  0
SECTION
  2
HEADER
  9
$ACADVER
  1
AC1018
  9
$ACADMAINTVER
 70
     0
  9
$DWGCODEPAGE
  3
ANSI_1252
  9
$EXTMIN
 10
424.261877561439
 20
976.838728404044
 30
0.0
  9
$EXTMAX
 10
7744.82110655838
 20
5738.16221982722
 30
0.0
  9
$LIMMIN
 10
0.0
 20
0.0
  9
$LIMMAX
 10
12.0
 20
9.0
  9
$ORTHOMODE
 70
     0
  9
$REGENMODE
 70
     1
  9
$FILLMODE
 70
     1
  9
$QTEXTMODE
 70
     0
  9
$MIRRTEXT
 70
     1
  9
$LTSCALE
 40
1.0
  9
$ATTMODE
 70
     1
  9
$TEXTSIZE
 40
0.2
  9
$TRACEWID
 40
0.05
  9
$TEXTSTYLE
  7
Standard
  9
$CLAYER
  8
0
  9
$CELTYPE
  6
ByLayer
  9
$CECOLOR
 62
   256
  9
$CELTSCALE
 40
1.0
  9
$DISPSILH
 70
     0
  9
$LUNITS
 70
     2
  9
$LUPREC
 70
     4
  9
$SKETCHINC
 40
0.1
  9
$FILLETRAD
 40
0.5
  9
$AUNITS
 70
     0
  9
$AUPREC
 70
     0
  9
$MENU
  1
.
  9
$ELEVATION
 40
0.0
  9
$PELEVATION
 40
0.0
  9
$THICKNESS
 40
0.0
  9
$LIMCHECK
 70
     0
  9
$CHAMFERA
 40
0.5
  9
$CHAMFERB
 40
0.5
  9
$CHAMFERC
 40
1.0
  9
$CHAMFERD
 40
0.0
  9
$SKPOLY
 70
     0
  9
$ANGBASE
 50
0.0
  9
$ANGDIR
 70
     0
  9
$PDMODE
 70
     0
  9
$PDSIZE
 40
0.0
  9
$PLINEWID
 40
0.0
  9
$SPLFRAME
 70
     0
  9
$SPLINETYPE
 70
     6
  9
$SPLINESEGS
 70
     8
  9
$HANDSEED
  5
00020273
  9
$SURFTAB1
 70
     6
  9
$SURFTAB2
 70
     6
  9
$SURFTYPE
 70
     6
  9
$SURFU
 70
     6
  9
$SURFV
 70
     6
  9
$UCSBASE
  2

  9
$UCSNAME
  2

  9
$UCSORG
 10
0.0
 20
0.0
 30
0.0
  9
$UCSXDIR
 10
1.0
 20
0.0
 30
0.0
  9
$UCSYDIR
 10
0.0
 20
1.0
 30
0.0
  9
$UCSORTHOREF
  2

  9
$UCSORTHOVIEW
 70
     0
  9
$UCSORGTOP
 10
0.0
 20
0.0
 30
0.0
  9
$UCSORGBOTTOM
 10
0.0
 20
0.0
 30
0.0
  9
$UCSORGLEFT
 10
0.0
 20
0.0
 30
0.0
  9
$UCSORGRIGHT
 10
0.0
 20
0.0
 30
0.0
  9
$UCSORGFRONT
 10
0.0
 20
0.0
 30
0.0
  9
$UCSORGBACK
 10
0.0
 20
0.0
 30
0.0
  9
$PUCSBASE
  2

  9
$PUCSNAME
  2

  9
$PUCSORG
 10
0.0
 20
0.0
 30
0.0
  9
$PUCSXDIR
 10
1.0
 20
0.0
 30
0.0
  9
$PUCSYDIR
 10
0.0
 20
1.0
 30
0.0
  9
$PUCSORTHOREF
  2

  9
$PUCSORTHOVIEW
 70
     0
  9
$PUCSORGTOP
 10
0.0
 20
0.0
 30
0.0
  9
$PUCSORGBOTTOM
 10
0.0
 20
0.0
 30
0.0
  9
$PUCSORGLEFT
 10
0.0
 20
0.0
 30
0.0
  9
$PUCSORGRIGHT
 10
0.0
 20
0.0
 30
0.0
  9
$PUCSORGFRONT
 10
0.0
 20
0.0
 30
0.0
  9
$PUCSORGBACK
 10
0.0
 20
0.0
 30
0.0
  9
$WORLDVIEW
 70
     1
  9
$SHADEDGE
 70
     3
  9
$SHADEDIF
 70
    70
  9
$TILEMODE
 70
     1
  9
$MAXACTVP
 70
    64
  9
$PINSBASE
 10
0.0
 20
0.0
 30
0.0
  9
$PLIMCHECK
 70
     0
  9
$PEXTMIN
 10
1.000000000000000E+20
 20
1.000000000000000E+20
 30
1.000000000000000E+20
  9
$PEXTMAX
 10
-1.000000000000000E+20
 20
-1.000000000000000E+20
 30
-1.000000000000000E+20
  9
$PLIMMIN
 10
0.0
 20
0.0
  9
$PLIMMAX
 10
12.0
 20
9.0
  9
$UNITMODE
 70
     0
  9
$VISRETAIN
 70
     1
  9
$PLINEGEN
 70
     0
  9
$PSLTSCALE
 70
     1
  9
$TREEDEPTH
 70
  3020
  9
$CMLSTYLE
  2
Standard
  9
$CMLJUST
 70
     0
  9
$CMLSCALE
 40
1.0
  9
$PROXYGRAPHICS
 70
     1
  9
$MEASUREMENT
 70
     0
  9
$CELWEIGHT
370
    -1
  9
$ENDCAPS
280
     0
  9
$JOINSTYLE
280
     0
  9
$LWDISPLAY
290
     0
  9
$INSUNITS
 70
     1
  9
$HYPERLINKBASE
  1

  9
$STYLESHEET
  1

  9
$XEDIT
290
     1
  9
$CEPSNTYPE
380
     0
  9
$PSTYLEMODE
290
     1
  9
$EXTNAMES
290
     1
  9
$PSVPSCALE
 40
0.0
  9
$OLESTARTUP
290
     0
  9
$SORTENTS
280
   127
  9
$INDEXCTL
280
     0
  9
$HIDETEXT
280
     1
  9
$XCLIPFRAME
290
     0
  9
$HALOGAP
280
     0
  9
$OBSCOLOR
 70
   257
  9
$OBSLTYPE
280
     0
  9
$INTERSECTIONDISPLAY
280
     0
  9
$INTERSECTIONCOLOR
 70
   257
  9
$DIMASSOC
280
     2
  9
$PROJECTNAME
  1

  0
ENDSEC
  0
SECTION
  2
CLASSES
  0
CLASS
  1
ACDBDICTIONARYWDFLT
  2
AcDbDictionaryWithDefault
  3
ObjectDBX Classes
 90
        0
 91
        4
280
     0
281
     0
  0
ENDSEC
  0
SECTION
  2
TABLES
  0
TABLE
  2
VPORT
  5
8
330
0
100
AcDbSymbolTable
 70
     1
  0
VPORT
  5
29
330
8
100
AcDbSymbolTableRecord
100
AcDbViewportTableRecord
  2
*Active
 70
     0
 10
0.0
 20
0.0
 11
1.0
 21
1.0
 12
80.25
 22
106.4409457059851
 13
0.0
 23
0.0
 14
0.5
 24
0.5
 15
0.5
 25
0.5
 16
0.0
 26
0.0
 36
1.0
 17
0.0
 27
0.0
 37
0.0
 40
113.3818914119703
 41
0.8863849310366128
 42
50.0
 43
0.0
 44
0.0
 50
0.0
 51
0.0
 71
     0
 72
  1000
 73
     1
 74
     3
 75
     0
 76
     0
 77
     0
 78
     0
281
     0
 65
     1
110
0.0
120
0.0
130
0.0
111
1.0
121
0.0
131
0.0
112
0.0
122
1.0
132
0.0
 79
     0
146
0.0
  0
ENDTAB
  0
TABLE
  2
LTYPE
  5
5
330
0
100
AcDbSymbolTable
 70
     1
  0
LTYPE
  5
14
330
5
100
AcDbSymbolTableRecord
100
AcDbLinetypeTableRecord
  2
ByBlock
 70
     0
  3

 72
    65
 73
     0
 40
0.0
  0
LTYPE
  5
15
330
5
100
AcDbSymbolTableRecord
100
AcDbLinetypeTableRecord
  2
ByLayer
 70
     0
  3

 72
    65
 73
     0
 40
0.0
  0
LTYPE
  5
16
330
5
100
AcDbSymbolTableRecord
100
AcDbLinetypeTableRecord
  2
Continuous
 70
     0
  3
Solid line
 72
    65
 73
     0
 40
0.0
  0
ENDTAB
  0
TABLE
  2
LAYER
  5
2
330
0
100
AcDbSymbolTable
 70
     1
  0
LAYER
  5
10
330
2
100
AcDbSymbolTableRecord
100
AcDbLayerTableRecord
  2
0
 70
     0
 62
     7
  6
Continuous
370
    -3
390
F
  0
ENDTAB
  0
TABLE
  2
STYLE
  5
3
330
0
100
AcDbSymbolTable
 70
     1
  0
STYLE
  5
11
330
3
100
AcDbSymbolTableRecord
100
AcDbTextStyleTableRecord
  2
Standard
 70
     0
 40
0.0
 41
1.0
 50
0.0
 71
     0
 42
0.2
  3
txt
  4

  0
ENDTAB
  0
TABLE
  2
VIEW
  5
6
330
0
100
AcDbSymbolTable
 70
     0
  0
ENDTAB
  0
TABLE
  2
UCS
  5
7
330
0
100
AcDbSymbolTable
 70
     0
  0
ENDTAB
  0
TABLE
  2
APPID
  5
9
330
0
100
AcDbSymbolTable
 70
     1
  0
APPID
  5
12
330
9
100
AcDbSymbolTableRecord
100
AcDbRegAppTableRecord
  2
ACAD
 70
     0
  0
ENDTAB
  0
TABLE
  2
DIMSTYLE
  5
A
330
0
100
AcDbSymbolTable
 70
     1
100
AcDbDimStyleTable
  0
DIMSTYLE
105
27
330
A
100
AcDbSymbolTableRecord
100
AcDbDimStyleTableRecord
  2
Standard
 70
     0
340
11
  0
ENDTAB
  0
TABLE
  2
BLOCK_RECORD
  5
1
330
0
100
AcDbSymbolTable
 70
     1
  0
BLOCK_RECORD
  5
1F
330
1
100
AcDbSymbolTableRecord
100
AcDbBlockTableRecord
  2
*Model_Space
340
22
  0
BLOCK_RECORD
  5
1B
330
1
100
AcDbSymbolTableRecord
100
AcDbBlockTableRecord
  2
*Paper_Space
340
1E
  0
ENDTAB
  0
ENDSEC
  0
SECTION
  2
BLOCKS
  0
BLOCK
  5
20
330
1F
100
AcDbEntity
  8
0
100
AcDbBlockBegin
  2
*Model_Space
 70
     0
 10
0.0
 20
0.0
 30
0.0
  3
*Model_Space
  1

  0
ENDBLK
  5
21
330
1F
100
AcDbEntity
  8
0
100
AcDbBlockEnd
  0
BLOCK
  5
1C
330
1B
100
AcDbEntity
 67
     1
  8
0
100
AcDbBlockBegin
  2
*Paper_Space
 70
     0
 10
0.0
 20
0.0
 30
0.0
  3
*Paper_Space
  1

  0
ENDBLK
  5
1D
330
1B
100
AcDbEntity
 67
     1
  8
0
100
AcDbBlockEnd
  0
ENDSEC
  0
SECTION
  2
ENTITIES
  0
LWPOLYLINE
  5
20000
100
AcDbEntity
  8
0
100
AcDbPolyline
 70
0
 90
2
 38
0
 10
4066.27276937492
 20
982.635681118969
 10
4033.27605843911
 20
1579.1563308218
  0
LWPOLYLINE
  5
20001
100
AcDbEntity
  8
0
100
AcDbPolyline
 70
0
 90
2
 38
0
 10
4041.43409588002
 20
1495.22993670251
 10
3435.49327841203
 20
4024.81079085683
  0
LWPOLYLINE
  5
20002
100
AcDbEntity
  8
0
100
AcDbPolyline
 70
0
 90
2
 38
0
 10
3211.35893361861
 20
4303.28570942811
 10
3464.19143608461
 20
3949.33371843757
  0
LWPOLYLINE
  5
20003
100
AcDbEntity
  8
0
100
AcDbPolyline
 70
0
 90
2
 38
0
 10
3187.07553067007
 20
4478.83447614487
 10
3225.64322016751
 20
4267.60506457336
  0
LWPOLYLINE
  5
20004
100
AcDbEntity
  8
0
100
AcDbPolyline
 70
0
 90
2
 38
0
 10
3032.80477268038
 20
4668.65553064678
 10
3215.64423245165
 20
4403.19152496919
  0
LWPOLYLINE
  5
20005
100
AcDbEntity
  8
0
100
AcDbPolyline
 70
0
 90
2
 38
0
 10
4043.0651628963
 20
976.838728404044
 10
4010.06845196048
 20
1573.35937810687
  0
LWPOLYLINE
  5
20006
100
AcDbEntity
  8
0
100
AcDbPolyline
 70
0
 90
2
 38
0
 10
4018.22648940139
 20
1489.43298398759
 10
3412.28567193341
 20
4019.0138381419
  0
LWPOLYLINE
  5
20007
100
AcDbEntity
  8
0
100
AcDbPolyline
 70
0
 90
2
 38
0
 10
3188.15132713999
 20
4297.48875671319
 10
3440.98382960599
 20
3943.53676572265
  0
LWPOLYLINE
  5
20008
100
AcDbEntity
  8
0
100
AcDbPolyline
 70
0
 90
2
 38
0
 10
3163.86792419145
 20
4473.03752342994
 10
3202.43561368888
 20
4261.80811185843
  0
LWPOLYLINE
  5
20009
100
AcDbEntity
  8
0
100
AcDbPolyline
 70
0
 90
2
 38
0
 10
3009.59716620176
 20
4662.85857793185
 10
3192.43662597303
 20
4397.39457225426
  0
LWPOLYLINE
  5
2000A
100
AcDbEntity
  8
0
100
AcDbPolyline
 70
0
 90
2
 38
0
 10
2767.43628161287
 20
4577.06812439587
 10
3210.12923133794
 20
4710.06269813577
  0
LWPOLYLINE
  5
2000B
100
AcDbEntity
  8
0
100
AcDbPolyline
 70
0
 90
2
 38
0
 10
2601.42634503861
 20
4660.75010226056
 10
2833.24195383741
 20
4571.09081894607
  0
LWPOLYLINE
  5
2000C
100
AcDbEntity
  8
0
100
AcDbPolyline
 70
0
 90
2
 38
0
 10
2327.73432917846
 20
4639.829582925
 10
2680.69234151576
 20
4648.79554109971
  0
LWPOLYLINE
  5
2000D
100
AcDbEntity
  8
0
100
AcDbPolyline
 70
0
 90
2
 38
0
 10
2118.35255123944
 20
4382.8063936199
 10
2427.93846484441
 20
4662.24440375363
  0
LWPOLYLINE
  5
2000E
100
AcDbEntity
  8
0
100
AcDbPolyline
 70
0
 90
2
 38
0
 10
2149.75976002259
 20
4290.15845758051
 10
2152.75088599704
 20
4436.60194371309
  0
LWPOLYLINE
  5
2000F
100
AcDbEntity
  8
0
100
AcDbPolyline
 70
0
 90
2
 38
0
 10
1491.4119550481
 20
3947.47995494369
 10
2162.92938759753
 20
4324.04885533477
  0
LWPOLYLINE
  5
20010
100
AcDbEntity
  8
0
100
AcDbPolyline
 70
0
 90
2
 38
0
 10
1281.68865033501
 20
3939.00780315394
 10
1561.30797016647
 20
3975.71445909944
  0
LWPOLYLINE
  5
20011
100
AcDbEntity
  8
0
100
AcDbPolyline
 70
0
 90
2
 38
0
 10
1163.48255347718
 20
3880.0779200739
 10
1335.47474200036
 20
3950.31098554591
  0
LWPOLYLINE
  5
20012
100
AcDbEntity
  8
0
100
AcDbPolyline
 70
0
 90
2
 38
0
 10
455.762896826229
 20
4014.77947823416
 10
1224.37340577647
 20
3893.37383604835
  0
LWPOLYLINE
  5
20013
100
AcDbEntity
  8
0
100
AcDbPolyline
 70
0
 90
2
 38
0
 10
2922.62326817503
 20
5531.47743853304
 10
3261.50378881117
 20
4868.80001349445
  0
LWPOLYLINE
  5
20014
100
AcDbEntity
  8
0
100
AcDbPolyline
 70
0
 90
2
 38
0
 10
3184.04541350777
 20
4963.1227032393
 10
3828.00727174064
 20
4326.46272697743
  0
LWPOLYLINE
  5
20015
100
AcDbEntity
  8
0
100
AcDbPolyline
 70
0
 90
2
 38
0
 10
3706.97849598719
 20
4401.43718925164
 10
4340.32008117446
 20
4058.54252197451
  0
LWPOLYLINE
  5
20016
100
AcDbEntity
  8
0
100
AcDbPolyline
 70
0
 90
2
 38
0
 10
4282.61093554005
 20
4111.65083165463
 10
4524.07821451017
 20
3788.44898196044
  0
LWPOLYLINE
  5
20017
100
AcDbEntity
  8
0
100
AcDbPolyline
 70
0
 90
2
 38
0
 10
4437.51443171664
 20
3824.86605885948
 10
5160.80186702064
 20
3762.3770692442
  0
LWPOLYLINE
  5
20018
100
AcDbEntity
  8
0
100
AcDbPolyline
 70
0
 90
2
 38
0
 10
5116.76061258934
 20
3785.13777339282
 10
5194.21242501953
 20
3631.88241519752
  0
LWPOLYLINE
  5
20019
100
AcDbEntity
  8
0
100
AcDbPolyline
 70
0
 90
2
 38
0
 10
5169.91383738397
 20
3639.46931658039
 10
5422.01181278654
 20
3741.13374537215
  0
LWPOLYLINE
  5
2001A
100
AcDbEntity
  8
0
100
AcDbPolyline
 70
0
 90
2
 38
0
 10
5373.41463751547
 20
3718.37304122353
 10
5544.78000730599
 20
3836.05315099133
  0
LWPOLYLINE
  5
2001B
100
AcDbEntity
  8
0
100
AcDbPolyline
 70
0
 90
2
 38
0
 10
5520.95986599522
 20
3805.58915676716
 10
5587.65628740215
 20
3950.29312933195
  0
LWPOLYLINE
  5
2001C
100
AcDbEntity
  8
0
100
AcDbPolyline
 70
0
 90
2
 38
0
 10
5570.5056981534
 20
3919.82913510779
 10
5684.8422734981
 20
4037.87711272643
  0
LWPOLYLINE
  5
2001D
100
AcDbEntity
  8
0
100
AcDbPolyline
 70
0
 90
2
 38
0
 10
5662.01595708411
 20
4005.80904357128
 10
5733.47625233262
 20
4191.44900837479
  0
LWPOLYLINE
  5
2001E
100
AcDbEntity
  8
0
100
AcDbPolyline
 70
0
 90
2
 38
0
 10
5722.04256906139
 20
4139.089018302
 10
5741.09870784677
 20
4311.40098563244
  0
LWPOLYLINE
  5
2001F
100
AcDbEntity
  8
0
100
AcDbPolyline
 70
0
 90
2
 38
0
 10
5724.90102205015
 20
4258.08899574015
 10
5775.39962897665
 20
4380.89697245632
  0
LWPOLYLINE
  5
20020
100
AcDbEntity
  8
0
100
AcDbPolyline
 70
0
 90
2
 38
0
 10
4644.18226856116
 20
3835.56978974546
 10
4654.78426850881
 20
3711.34326366397
  0
LWPOLYLINE
  5
20021
100
AcDbEntity
  8
0
100
AcDbPolyline
 70
0
 90
2
 38
0
 10
4522.74221942038
 20
3717.12126591227
 10
4864.89491142458
 20
3755.64109852549
  0
LWPOLYLINE
  5
20022
100
AcDbEntity
  8
0
100
AcDbPolyline
 70
0
 90
2
 38
0
 10
4822.48729768529
 20
3752.75212227072
 10
4941.03595078748
 20
3741.19616751288
  0
LWPOLYLINE
  5
20023
100
AcDbEntity
  8
0
100
AcDbPolyline
 70
0
 90
2
 38
0
 10
4902.48357466087
 20
3749.86314601594
 10
5055.7294949608
 20
3638.15556677723
  0
LWPOLYLINE
  5
20024
100
AcDbEntity
  8
0
100
AcDbPolyline
 70
0
 90
2
 38
0
 10
5007.76956180923
 20
3655.41033968134
 10
5209.20588792555
 20
3590.88957155891
  0
LWPOLYLINE
  5
20025
100
AcDbEntity
  8
0
100
AcDbPolyline
 70
0
 90
2
 38
0
 10
5152.34116530974
 20
3589.92657947399
 10
5440.52053073666
 20
3697.78219037302
  0
LWPOLYLINE
  5
20026
100
AcDbEntity
  8
0
100
AcDbPolyline
 70
0
 90
2
 38
0
 10
5399.07662988768
 20
3674.67028085733
 10
5462.6881148385
 20
3730.5240704767
  0
LWPOLYLINE
  5
20027
100
AcDbEntity
  8
0
100
AcDbPolyline
 70
0
 90
2
 38
0
 10
5427.99097632454
 20
3711.26412930071
 10
5561.9605798774
 20
3772.89592116837
  0
LWPOLYLINE
  5
20028
100
AcDbEntity
  8
0
100
AcDbPolyline
 70
0
 90
2
 38
0
 10
5537.86531262731
 20
3754.59897207731
 10
5653.87336169777
 20
3941.13264287647
  0
LWPOLYLINE
  5
20029
100
AcDbEntity
  8
0
100
AcDbPolyline
 70
0
 90
2
 38
0
 10
5630.74193602181
 20
3913.39831166664
 10
5715.19427521745
 20
3995.77320472168
  0
LWPOLYLINE
  5
2002A
100
AcDbEntity
  8
0
100
AcDbPolyline
 70
0
 90
2
 38
0
 10
5700.01898211861
 20
3969.6937317143
 10
5772.88823616487
 20
4161.57247861604
  0
LWPOLYLINE
  5
2002B
100
AcDbEntity
  8
0
100
AcDbPolyline
 70
0
 90
2
 38
0
 10
5757.71294306603
 20
4113.0525693199
 10
5785.04113312872
 20
4267.21541114671
  0
LWPOLYLINE
  5
2002C
100
AcDbEntity
  8
0
100
AcDbPolyline
 70
0
 90
2
 38
0
 10
5775.32885289312
 20
4236.8904367499
 10
5812.35658349635
 20
4293.29483441533
  0
LWPOLYLINE
  5
2002D
100
AcDbEntity
  8
0
100
AcDbPolyline
 70
0
 90
2
 38
0
 10
5799.60942479831
 20
4293.29483441533
 10
5873.664757321
 20
4268.42839022708
  0
LWPOLYLINE
  5
2002E
100
AcDbEntity
  8
0
100
AcDbPolyline
 70
0
 90
2
 38
0
 10
5846.53165188132
 20
4272.16287562144
 10
6317.91503825167
 20
4322.57141528052
  0
LWPOLYLINE
  5
2002F
100
AcDbEntity
  8
0
100
AcDbPolyline
 70
0
 90
2
 38
0
 10
6267.41179870878
 20
4315.77859316192
 10
6601.51094450813
 20
4404.08483305478
  0
LWPOLYLINE
  5
20030
100
AcDbEntity
  8
0
100
AcDbPolyline
 70
0
 90
2
 38
0
 10
6565.57573926725
 20
4382.73606301672
 10
6748.16490907036
 20
4504.03581138771
  0
LWPOLYLINE
  5
20031
100
AcDbEntity
  8
0
100
AcDbPolyline
 70
0
 90
2
 38
0
 10
6724.85564239899
 20
4500.15419874851
 10
6830.71839028635
 20
4450.66393603133
  0
LWPOLYLINE
  5
20032
100
AcDbEntity
  8
0
100
AcDbPolyline
 70
0
 90
2
 38
0
 10
6809.35160539887
 20
4469.10149658999
 10
6909.38716530218
 20
4208.06443928936
  0
LWPOLYLINE
  5
20033
100
AcDbEntity
  8
0
100
AcDbPolyline
 70
0
 90
2
 38
0
 10
6889.2728597259
 20
4240.73628722241
 10
7093.2286857327
 20
4029.18954237773
  0
LWPOLYLINE
  5
20034
100
AcDbEntity
  8
0
100
AcDbPolyline
 70
0
 90
2
 38
0
 10
7066.06160777292
 20
4062.59384325446
 10
7206.20983473555
 20
3854.37566580377
  0
LWPOLYLINE
  5
20035
100
AcDbEntity
  8
0
100
AcDbPolyline
 70
0
 90
2
 38
0
 10
7183.97301875561
 20
3866.84850481829
 10
7333.73302391524
 20
3789.48130987339
  0
LWPOLYLINE
  5
20036
100
AcDbEntity
  8
0
100
AcDbPolyline
 70
0
 90
2
 38
0
 10
7297.64404154738
 20
3801.09336994975
 10
7476.25379388215
 20
3753.42289915504
  0
LWPOLYLINE
  5
20037
100
AcDbEntity
  8
0
100
AcDbPolyline
 70
0
 90
2
 38
0
 10
7441.38820828934
 20
3765.64609934541
 10
7497.05076695519
 20
3736.31037909751
  0
LWPOLYLINE
  5
20038
100
AcDbEntity
  8
0
100
AcDbPolyline
 70
0
 90
2
 38
0
 10
7470.1369386907
 20
3737.5327090643
 10
7734.38150555149
 20
3777.86929953579
  0
LWPOLYLINE
  5
20039
100
AcDbEntity
  8
0
100
AcDbPolyline
 70
0
 90
2
 38
0
 10
5735.98455673351
 20
4363.65861334219
 10
5912.20233481197
 20
4325.0816806353
  0
LWPOLYLINE
  5
2003A
100
AcDbEntity
  8
0
100
AcDbPolyline
 70
0
 90
2
 38
0
 10
5845.87317693676
 20
4332.00576333507
 10
6249.78829653817
 20
4340.90810563886
  0
LWPOLYLINE
  5
2003B
100
AcDbEntity
  8
0
100
AcDbPolyline
 70
0
 90
2
 38
0
 10
6172.56927308094
 20
4328.04914464949
 10
6642.81355055756
 20
4464.55204165317
  0
LWPOLYLINE
  5
2003C
100
AcDbEntity
  8
0
100
AcDbPolyline
 70
0
 90
2
 38
0
 10
6598.26399516259
 20
4444.76904770279
 10
6754.6820995271
 20
4535.77097903858
  0
LWPOLYLINE
  5
2003D
100
AcDbEntity
  8
0
100
AcDbPolyline
 70
0
 90
2
 38
0
 10
6721.02253839793
 20
4528.84689633881
 10
6824.97124361861
 20
4496.20489166029
  0
LWPOLYLINE
  5
2003E
100
AcDbEntity
  8
0
100
AcDbPolyline
 70
0
 90
2
 38
0
 10
6795.27166870574
 20
4511.04216199246
 10
6880.41066459561
 20
4405.2029603245
  0
LWPOLYLINE
  5
2003F
100
AcDbEntity
  8
0
100
AcDbPolyline
 70
0
 90
2
 38
0
 10
6844.935375214
 20
4457.5317641963
 10
6926.11438488754
 20
4234.97265947505
  0
LWPOLYLINE
  5
20040
100
AcDbEntity
  8
0
100
AcDbPolyline
 70
0
 90
2
 38
0
 10
6902.35472495723
 20
4263.65809520674
 10
7120.21882348362
 20
4042.97160496848
  0
LWPOLYLINE
  5
20041
100
AcDbEntity
  8
0
100
AcDbPolyline
 70
0
 90
2
 38
0
 10
7091.82152850801
 20
4079.16416111594
 10
7228.65022846856
 20
3876.97745462203
  0
LWPOLYLINE
  5
20042
100
AcDbEntity
  8
0
100
AcDbPolyline
 70
0
 90
2
 38
0
 10
7206.82777428682
 20
3894.10917383997
 10
7365.90680202507
 20
3817.33327324482
  0
LWPOLYLINE
  5
20043
100
AcDbEntity
  8
0
100
AcDbPolyline
 70
0
 90
2
 38
0
 10
7319.6310822943
 20
3832.06435132962
 10
7538.2450212549
 20
3778.33306371118
  0
LWPOLYLINE
  5
20044
100
AcDbEntity
  8
0
100
AcDbPolyline
 70
0
 90
2
 38
0
 10
7512.13611008602
 20
3779.11177369938
 10
7727.63255559211
 20
3825.05591169705
  0
LWPOLYLINE
  5
20045
100
AcDbEntity
  8
0
100
AcDbPolyline
 70
0
 90
2
 38
0
 10
4664.77926702722
 20
3740.34409285729
 10
4736.95144099244
 20
3682.57551028853
  0
LWPOLYLINE
  5
20046
100
AcDbEntity
  8
0
100
AcDbPolyline
 70
0
 90
2
 38
0
 10
4717.01433299258
 20
3706.87816565996
 10
4809.76935020718
 20
2844.26197727492
  0
LWPOLYLINE
  5
20047
100
AcDbEntity
  8
0
100
AcDbPolyline
 70
0
 90
2
 38
0
 10
4796.1274531293
 20
2864.05551584191
 10
4835.98661312577
 20
2835.7922626843
  0
LWPOLYLINE
  5
20048
100
AcDbEntity
  8
0
100
AcDbPolyline
 70
0
 90
2
 38
0
 10
4829.55769974779
 20
2849.28156294811
 10
4812.19967223235
 20
2759.99546953152
  0
LWPOLYLINE
  5
20049
100
AcDbEntity
  8
0
100
AcDbPolyline
 70
0
 90
2
 38
0
 10
4638.61965444576
 20
2855.06264899937
 10
7744.82110655838
 20
1260.9089090284
  0
LWPOLYLINE
  5
2004A
100
AcDbEntity
  8
0
100
AcDbPolyline
 70
0
 90
2
 38
0
 10
4557.31595018139
 20
3737.67580746977
 10
4652.06106218151
 20
3034.761020781
  0
LWPOLYLINE
  5
2004B
100
AcDbEntity
  8
0
100
AcDbPolyline
 70
0
 90
2
 38
0
 10
4644.81759301661
 20
3098.6543046678
 10
4659.93625265581
 20
2770.7426720916
  0
LWPOLYLINE
  5
2004C
100
AcDbEntity
  8
0
100
AcDbPolyline
 70
0
 90
2
 38
0
 10
4656.51403599067
 20
2810.90751463326
 10
4736.43850741241
 20
2253.80667062277
  0
LWPOLYLINE
  5
2004D
100
AcDbEntity
  8
0
100
AcDbPolyline
 70
0
 90
2
 38
0
 10
4727.87871918452
 20
2340.90972997049
 10
4718.34749703904
 20
2044.63017653037
  0
LWPOLYLINE
  5
2004E
100
AcDbEntity
  8
0
100
AcDbPolyline
 70
0
 90
2
 38
0
 10
4722.59920940333
 20
2085.65858338062
 10
4640.83147139847
 20
1795.68645152416
  0
LWPOLYLINE
  5
2004F
100
AcDbEntity
  8
0
100
AcDbPolyline
 70
0
 90
2
 38
0
 10
4659.46462657183
 20
1848.56760429855
 10
4384.26636697006
 20
1381.85919288883
  0
LWPOLYLINE
  5
20050
100
AcDbEntity
  8
0
100
AcDbPolyline
 70
0
 90
2
 38
0
 10
3459.29887845474
 20
3899.9024956256
 10
3585.45454501649
 20
4014.82384520589
  0
LWPOLYLINE
  5
20051
100
AcDbEntity
  8
0
100
AcDbPolyline
 70
0
 90
2
 38
0
 10
3563.99523648525
 20
3992.45045676231
 10
3689.48933969153
 20
4157.03197665558
  0
LWPOLYLINE
  5
20052
100
AcDbEntity
  8
0
100
AcDbPolyline
 70
0
 90
2
 38
0
 10
3676.89377049604
 20
4146.77753596655
 10
3745.47013336574
 20
4161.6930951031
  0
LWPOLYLINE
  5
20053
100
AcDbEntity
  8
0
100
AcDbPolyline
 70
0
 90
2
 38
0
 10
3670.53885029632
 20
4193.75743385144
 10
4247.27784174448
 20
3838.44125795757
  0
LWPOLYLINE
  5
20054
100
AcDbEntity
  8
0
100
AcDbPolyline
 70
0
 90
2
 38
0
 10
4209.08539417363
 20
3869.00274014654
 10
4347.9929807336
 20
3727.35093670005
  0
LWPOLYLINE
  5
20055
100
AcDbEntity
  8
0
100
AcDbPolyline
 70
0
 90
2
 38
0
 10
4334.62723906536
 20
3747.8594699068
 10
4383.84029494709
 20
3640.75590902193
  0
LWPOLYLINE
  5
20056
100
AcDbEntity
  8
0
100
AcDbPolyline
 70
0
 90
2
 38
0
 10
4377.63477662555
 20
3665.07995205911
 10
4479.46830641851
 20
2861.47835185822
  0
LWPOLYLINE
  5
20057
100
AcDbEntity
  8
0
100
AcDbPolyline
 70
0
 90
2
 38
0
 10
4308.63131226259
 20
2732.73077167047
 10
4481.67330313043
 20
2886.73872700627
  0
LWPOLYLINE
  5
20058
100
AcDbEntity
  8
0
100
AcDbPolyline
 70
0
 90
2
 38
0
 10
4312.50906953818
 20
2746.77550463984
 10
4379.36647436424
 20
2340.22562309916
  0
LWPOLYLINE
  5
20059
100
AcDbEntity
  8
0
100
AcDbPolyline
 70
0
 90
2
 38
0
 10
4367.8856928265
 20
2422.26547588333
 10
4378.78392285475
 20
1924.04771078202
  0
LWPOLYLINE
  5
2005A
100
AcDbEntity
  8
0
100
AcDbPolyline
 70
0
 90
2
 38
0
 10
4387.41332901208
 20
1963.23941453222
 10
4324.50522964794
 20
1854.0346895734
  0
LWPOLYLINE
  5
2005B
100
AcDbEntity
  8
0
100
AcDbPolyline
 70
0
 90
2
 38
0
 10
4328.44282488507
 20
1881.5740945924
 10
4326.86773531671
 20
1772.20334166088
  0
LWPOLYLINE
  5
2005C
100
AcDbEntity
  8
0
100
AcDbPolyline
 70
0
 90
2
 38
0
 10
4329.87353124304
 20
1856.38409978628
 10
4284.17997697036
 20
1732.28003052587
  0
LWPOLYLINE
  5
2005D
100
AcDbEntity
  8
0
100
AcDbPolyline
 70
0
 90
2
 38
0
 10
4219.20753227486
 20
1714.44008113917
 10
4296.57930338874
 20
1739.21779138396
  0
LWPOLYLINE
  5
2005E
100
AcDbEntity
  8
0
100
AcDbPolyline
 70
0
 90
2
 38
0
 10
4185.48131294336
 20
1662.40682496474
 10
4237.55848390053
 20
1727.82005561389
  0
LWPOLYLINE
  5
2005F
100
AcDbEntity
  8
0
100
AcDbPolyline
 70
0
 90
2
 38
0
 10
3986.09993824185
 20
1694.61789304784
 10
4212.75983106377
 20
1669.84018280306
  0
LWPOLYLINE
  5
20060
100
AcDbEntity
  8
0
100
AcDbPolyline
 70
0
 90
2
 38
0
 10
3769.25282769414
 20
2569.85275448453
 10
4132.59677989859
 20
2625.28207354696
  0
LWPOLYLINE
  5
20061
100
AcDbEntity
  8
0
100
AcDbPolyline
 70
0
 90
2
 38
0
 10
4095.11286526595
 20
2624.28336903411
 10
4322.51526354617
 20
2609.30245317014
  0
LWPOLYLINE
  5
20062
100
AcDbEntity
  8
0
100
AcDbPolyline
 70
0
 90
2
 38
0
 10
4292.52820905033
 20
2616.29353397633
 10
4360.49898601245
 20
2511.42727214481
  0
LWPOLYLINE
  5
20063
100
AcDbEntity
  8
0
100
AcDbPolyline
 70
0
 90
2
 38
0
 10
4371.54246037626
 20
2116.798425482
 10
4520.7473633347
 20
2106.31046368665
  0
LWPOLYLINE
  5
20064
100
AcDbEntity
  8
0
100
AcDbPolyline
 70
0
 90
2
 38
0
 10
4474.46353652526
 20
2121.72535021024
 10
4569.46717425599
 20
2038.97174625522
  0
LWPOLYLINE
  5
20065
100
AcDbEntity
  8
0
100
AcDbPolyline
 70
0
 90
2
 38
0
 10
4537.79925211781
 20
2052.76400529126
 10
4726.99440419156
 20
2031.66994743062
  0
LWPOLYLINE
  5
20066
100
AcDbEntity
  8
0
100
AcDbPolyline
 70
0
 90
2
 38
0
 10
3962.99630826415
 20
4044.04148564338
 10
4301.41035016783
 20
2678.92049890505
  0
LWPOLYLINE
  5
20067
100
AcDbEntity
  8
0
100
AcDbPolyline
 70
0
 90
2
 38
0
 10
4288.95556103671
 20
2703.37311663049
 10
4334.27902073431
 20
2633.29677798352
  0
LWPOLYLINE
  5
20068
100
AcDbEntity
  8
0
100
AcDbPolyline
 70
0
 90
2
 38
0
 10
3476.40249812075
 20
2967.32496460105
 10
4221.37842778288
 20
3186.18096908397
  0
LWPOLYLINE
  5
20069
100
AcDbEntity
  8
0
100
AcDbPolyline
 70
0
 90
2
 38
0
 10
4192.99425855369
 20
3182.17495981214
 10
4412.57100961808
 20
3160.77500859257
  0
LWPOLYLINE
  5
2006A
100
AcDbEntity
  8
0
100
AcDbPolyline
 70
0
 90
2
 38
0
 10
4354.67655932857
 20
3202.57083473305
 10
4350.57875277504
 20
3062.78388652338
  0
LWPOLYLINE
  5
2006B
100
AcDbEntity
  8
0
100
AcDbPolyline
 70
0
 90
2
 38
0
 10
4338.43885287381
 20
3048.96949374022
 10
4356.3114868585
 20
3086.03252788357
  0
LWPOLYLINE
  5
2006C
100
AcDbEntity
  8
0
100
AcDbPolyline
 70
0
 90
2
 38
0
 10
4342.82272348867
 20
3066.49017004221
 10
4363.25590749228
 20
2838.74196996204
  0
LWPOLYLINE
  5
2006D
100
AcDbEntity
  8
0
100
AcDbPolyline
 70
0
 90
2
 38
0
 10
4256.96361311967
 20
2802.08326217882
 10
4355.24186721042
 20
2845.31574259238
  0
LWPOLYLINE
  5
2006E
100
AcDbEntity
  8
0
100
AcDbPolyline
 70
0
 90
2
 38
0
 10
4344.71514727891
 20
2843.85123461508
 10
4451.04784836102
 20
2848.77726168531
  0
LWPOLYLINE
  5
2006F
100
AcDbEntity
  8
0
100
AcDbPolyline
 70
0
 90
2
 38
0
 10
4409.132964847
 20
2837.76495154748
 10
4404.64936429623
 20
3267.45360153294
  0
LWPOLYLINE
  5
20070
100
AcDbEntity
  8
0
100
AcDbPolyline
 70
0
 90
2
 38
0
 10
4397.50522642306
 20
3263.56010133069
 10
4440.80281724199
 20
3266.15576813219
  0
LWPOLYLINE
  5
20071
100
AcDbEntity
  8
0
100
AcDbPolyline
 70
0
 90
2
 38
0
 10
4399.73737541432
 20
3257.9225613337
 10
4391.10616768396
 20
3574.30194460981
  0
LWPOLYLINE
  5
20072
100
AcDbEntity
  8
0
100
AcDbPolyline
 70
0
 90
2
 38
0
 10
3825.11162913707
 20
3363.73216844092
 10
4277.57129234017
 20
3470.00409729956
  0
LWPOLYLINE
  5
20073
100
AcDbEntity
  8
0
100
AcDbPolyline
 70
0
 90
2
 38
0
 10
4242.11736446741
 20
3466.63036711371
 10
4399.40601465953
 20
3444.31343215994
  0
LWPOLYLINE
  5
20074
100
AcDbEntity
  8
0
100
AcDbPolyline
 70
0
 90
2
 38
0
 10
3613.18126877144
 20
3245.31537793505
 10
3843.68649055433
 20
3371.21491686549
  0
LWPOLYLINE
  5
20075
100
AcDbEntity
  8
0
100
AcDbPolyline
 70
0
 90
2
 38
0
 10
3842.79355374756
 20
3369.65371674351
 10
3904.13917455459
 20
3268.13288374479
  0
LWPOLYLINE
  5
20076
100
AcDbEntity
  8
0
100
AcDbPolyline
 70
0
 90
2
 38
0
 10
3795.42801101398
 20
3269.06851951306
 10
3881.92153245909
 20
3318.32371686207
  0
LWPOLYLINE
  5
20077
100
AcDbEntity
  8
0
100
AcDbPolyline
 70
0
 90
2
 38
0
 10
3764.95350232817
 20
3338.02583559268
 10
3809.09667431979
 20
3269.51626780852
  0
LWPOLYLINE
  5
20078
100
AcDbEntity
  8
0
100
AcDbPolyline
 70
0
 90
2
 38
0
 10
3398.78043703867
 20
3188.56758388748
 10
3610.34482071048
 20
3235.92723718626
  0
LWPOLYLINE
  5
20079
100
AcDbEntity
  8
0
100
AcDbPolyline
 70
0
 90
2
 38
0
 10
3182.47431313685
 20
3066.58924964725
 10
3470.34071959069
 20
3209.8232429714
  0
LWPOLYLINE
  5
2007A
100
AcDbEntity
  8
0
100
AcDbPolyline
 70
0
 90
2
 38
0
 10
3132.06758643515
 20
3067.63122687916
 10
3218.19628934054
 20
3073.98435838101
  0
LWPOLYLINE
  5
2007B
100
AcDbEntity
  8
0
100
AcDbPolyline
 70
0
 90
2
 38
0
 10
2679.70237713263
 20
2830.87867030346
 10
3182.83269748716
 20
3080.38310032353
  0
LWPOLYLINE
  5
2007C
100
AcDbEntity
  8
0
100
AcDbPolyline
 70
0
 90
2
 38
0
 10
2382.47113667152
 20
2618.92247600663
 10
2747.33986308315
 20
2866.60099623704
  0
LWPOLYLINE
  5
2007D
100
AcDbEntity
  8
0
100
AcDbPolyline
 70
0
 90
2
 38
0
 10
2146.95136502747
 20
2247.5301865463
 10
2429.02056681993
 20
2660.48030219224
  0
LWPOLYLINE
  5
2007E
100
AcDbEntity
  8
0
100
AcDbPolyline
 70
0
 90
2
 38
0
 10
1603.71313891378
 20
2055.64323274956
 10
2196.51096635101
 20
2266.63961824195
  0
LWPOLYLINE
  5
2007F
100
AcDbEntity
  8
0
100
AcDbPolyline
 70
0
 90
2
 38
0
 10
1465.39724041223
 20
2049.8645838974
 10
1646.15215149739
 20
2062.15687122202
  0
LWPOLYLINE
  5
20080
100
AcDbEntity
  8
0
100
AcDbPolyline
 70
0
 90
2
 38
0
 10
1454.98723667666
 20
1995.02203295779
 10
1513.1130604175
 20
2061.65431081573
  0
LWPOLYLINE
  5
20081
100
AcDbEntity
  8
0
100
AcDbPolyline
 70
0
 90
2
 38
0
 10
1491.2660276322
 20
2046.65911992835
 10
1409.95691864873
 20
2177.94337675114
  0
LWPOLYLINE
  5
20082
100
AcDbEntity
  8
0
100
AcDbPolyline
 70
0
 90
2
 38
0
 10
1369.1971008182
 20
2100.22905501729
 10
1452.58625455519
 20
2122.27302366962
  0
LWPOLYLINE
  5
20083
100
AcDbEntity
  8
0
100
AcDbPolyline
 70
0
 90
2
 38
0
 10
986.242768752287
 20
1819.80507349265
 10
1473.39081997174
 20
2004.86130423756
  0
LWPOLYLINE
  5
20084
100
AcDbEntity
  8
0
100
AcDbPolyline
 70
0
 90
2
 38
0
 10
880.13127510222
 20
1816.91356056125
 10
1009.39711261442
 20
1826.30679979149
  0
LWPOLYLINE
  5
20085
100
AcDbEntity
  8
0
100
AcDbPolyline
 70
0
 90
2
 38
0
 10
838.651342792538
 20
1759.08350088815
 10
907.141487524102
 20
1829.44344993067
  0
LWPOLYLINE
  5
20086
100
AcDbEntity
  8
0
100
AcDbPolyline
 70
0
 90
2
 38
0
 10
424.261877561439
 20
1642.31127266191
 10
861.802971823272
 20
1771.61334051882
  0
LWPOLYLINE
  5
20087
100
AcDbEntity
  8
0
100
AcDbPolyline
 70
0
 90
2
 38
0
 10
812.106450949024
 20
1749.70714822491
 10
452.244167319877
 20
2758.66107814397
  0
LWPOLYLINE
  5
20088
100
AcDbEntity
  8
0
100
AcDbPolyline
 70
0
 90
2
 38
0
 10
1411.58631277576
 20
2168.14862165938
 10
1429.34017162389
 20
2204.02061151443
  0
LWPOLYLINE
  5
20089
100
AcDbEntity
  8
0
100
AcDbPolyline
 70
0
 90
2
 38
0
 10
1426.97290465495
 20
2188.64690868209
 10
1387.01298525227
 20
2355.14615611146
  0
LWPOLYLINE
  5
2008A
100
AcDbEntity
  8
0
100
AcDbPolyline
 70
0
 90
2
 38
0
 10
1394.58911460264
 20
2334.36286600798
 10
1347.19744906003
 20
2441.52710817708
  0
LWPOLYLINE
  5
2008B
100
AcDbEntity
  8
0
100
AcDbPolyline
 70
0
 90
2
 38
0
 10
1290.28318318572
 20
2409.68987659572
 10
1352.89003380155
 20
2441.34068731378
  0
LWPOLYLINE
  5
2008C
100
AcDbEntity
  8
0
100
AcDbPolyline
 70
0
 90
2
 38
0
 10
1219.44507405347
 20
2409.68987659572
 10
1309.98814563153
 20
2413.92657422506
  0
LWPOLYLINE
  5
2008D
100
AcDbEntity
  8
0
100
AcDbPolyline
 70
0
 90
2
 38
0
 10
1112.11031231213
 20
2464.56107705968
 10
1242.06330878183
 20
2407.48988161053
  0
LWPOLYLINE
  5
2008E
100
AcDbEntity
  8
0
100
AcDbPolyline
 70
0
 90
2
 38
0
 10
956.423903967705
 20
2397.50676584392
 10
1127.03389992112
 20
2464.79594347283
  0
LWPOLYLINE
  5
2008F
100
AcDbEntity
  8
0
100
AcDbPolyline
 70
0
 90
2
 38
0
 10
908.739096755424
 20
2439.04350279634
 10
1020.13614832475
 20
2369.12762138122
  0
LWPOLYLINE
  5
20090
100
AcDbEntity
  8
0
100
AcDbPolyline
 70
0
 90
2
 38
0
 10
927.640428943516
 20
2332.56242246219
 10
993.593830156984
 20
2398.05836866515
  0
LWPOLYLINE
  5
20091
100
AcDbEntity
  8
0
100
AcDbPolyline
 70
0
 90
2
 38
0
 10
789.299051051901
 20
2279.92464142849
 10
956.193431302934
 20
2352.6531998443
  0
LWPOLYLINE
  5
20092
100
AcDbEntity
  8
0
100
AcDbPolyline
 70
0
 90
2
 38
0
 10
796.23446382051
 20
2289.36495813396
 10
830.302724661204
 20
2223.77823869847
  0
LWPOLYLINE
  5
20093
100
AcDbEntity
  8
0
100
AcDbPolyline
 70
0
 90
2
 38
0
 10
798.775711271184
 20
2219.20560550063
 10
896.661994542868
 20
2258.07301255161
  0
LWPOLYLINE
  5
20094
100
AcDbEntity
  8
0
100
AcDbPolyline
 70
0
 90
2
 38
0
 10
883.441022136423
 20
2259.59725677673
 10
911.160796966811
 20
2187.6133373002
  0
LWPOLYLINE
  5
20095
100
AcDbEntity
  8
0
100
AcDbPolyline
 70
0
 90
2
 38
0
 10
910.652238635579
 20
2196.50458786107
 10
903.024764453687
 20
2168.30664169212
  0
LWPOLYLINE
  5
20096
100
AcDbEntity
  8
0
100
AcDbPolyline
 70
0
 90
2
 38
0
 10
901.244938978183
 20
2178.21405506972
 10
966.391364155439
 20
2030.17470090116
  0
LWPOLYLINE
  5
20097
100
AcDbEntity
  8
0
100
AcDbPolyline
 70
0
 90
2
 38
0
 10
965.199880959874
 20
2036.30142157864
 10
958.100138993672
 20
2012.60174916499
  0
LWPOLYLINE
  5
20098
100
AcDbEntity
  8
0
100
AcDbPolyline
 70
0
 90
2
 38
0
 10
956.002464561141
 20
2021.46897590595
 10
981.210717895941
 20
1976.98785372287
  0
LWPOLYLINE
  5
20099
100
AcDbEntity
  8
0
100
AcDbPolyline
 70
0
 90
2
 38
0
 10
976.007517601189
 20
1991.28446376047
 10
1025.65513863589
 20
1768.124514848
  0
LWPOLYLINE
  5
2009A
100
AcDbEntity
  8
0
100
AcDbPolyline
 70
0
 90
2
 38
0
 10
2078.56082154803
 20
2625.27898974399
 10
2286.78148566553
 20
2432.18611977044
  0
LWPOLYLINE
  5
2009B
100
AcDbEntity
  8
0
100
AcDbPolyline
 70
0
 90
2
 38
0
 10
1996.46982986706
 20
2597.93844027769
 10
2123.45447739282
 20
2591.95765311486
  0
LWPOLYLINE
  5
2009C
100
AcDbEntity
  8
0
100
AcDbPolyline
 70
0
 90
2
 38
0
 10
1917.37163704979
 20
2571.02504726122
 10
2019.13040156176
 20
2601.78319649753
  0
LWPOLYLINE
  5
2009D
100
AcDbEntity
  8
0
100
AcDbPolyline
 70
0
 90
2
 38
0
 10
2076.85383109668
 20
2615.19007964008
 10
2111.05836806915
 20
2653.21058486626
  0
LWPOLYLINE
  5
2009E
100
AcDbEntity
  8
0
100
AcDbPolyline
 70
0
 90
2
 38
0
 10
2108.49305675007
 20
2641.24906027936
 10
2049.06250808002
 20
2737.36831394691
  0
LWPOLYLINE
  5
2009F
100
AcDbEntity
  8
0
100
AcDbPolyline
 70
0
 90
2
 38
0
 10
2514.54754433141
 20
2690.58045740492
 10
2403.82839895866
 20
2906.99170247675
  0
LWPOLYLINE
  5
200A0
100
AcDbEntity
  8
0
100
AcDbPolyline
 70
0
 90
2
 38
0
 10
2406.59638724427
 20
2889.0150709843
 10
2421.82032281508
 20
2929.80821351135
  0
LWPOLYLINE
  5
200A1
100
AcDbEntity
  8
0
100
AcDbPolyline
 70
0
 90
2
 38
0
 10
2422.51225554459
 20
2908.37453941415
 10
2369.92073548572
 20
2996.87495941648
  0
LWPOLYLINE
  5
200A2
100
AcDbEntity
  8
0
100
AcDbPolyline
 70
0
 90
2
 38
0
 10
2363.00102213929
 20
2979.84351353376
 10
2423.20457432546
 20
3006.1170671731
  0
LWPOLYLINE
  5
200A3
100
AcDbEntity
  8
0
100
AcDbPolyline
 70
0
 90
2
 38
0
 10
2411.44068845354
 20
2994.36310242146
 10
2431.50853918226
 20
3062.12126679529
  0
LWPOLYLINE
  5
200A4
100
AcDbEntity
  8
0
100
AcDbPolyline
 70
0
 90
2
 38
0
 10
2436.35245434019
 20
3030.3164151451
 10
2246.02913149471
 20
3314.72825129506
  0
LWPOLYLINE
  5
200A5
100
AcDbEntity
  8
0
100
AcDbPolyline
 70
0
 90
2
 38
0
 10
3167.34920671542
 20
3571.50160282099
 10
4048.09644164992
 20
3770.80455562967
  0
LWPOLYLINE
  5
200A6
100
AcDbEntity
  8
0
100
AcDbPolyline
 70
0
 90
2
 38
0
 10
2951.40725793438
 20
3669.34957674595
 10
3275.08147267871
 20
3542.89873342682
  0
LWPOLYLINE
  5
200A7
100
AcDbEntity
  8
0
100
AcDbPolyline
 70
0
 90
2
 38
0
 10
3225.8022733298
 20
3542.89873342682
 10
3369.15974528802
 20
3573.11264117803
  0
LWPOLYLINE
  5
200A8
100
AcDbEntity
  8
0
100
AcDbPolyline
 70
0
 90
2
 38
0
 10
3304.20094107406
 20
3633.54045668044
 10
3365.79981157639
 20
3469.04249789985
  0
LWPOLYLINE
  5
200A9
100
AcDbEntity
  8
0
100
AcDbPolyline
 70
0
 90
2
 38
0
 10
2912.20785972035
 20
3742.08673996681
 10
3005.16619732039
 20
3636.89757412127
  0
LWPOLYLINE
  5
200AA
100
AcDbEntity
  8
0
100
AcDbPolyline
 70
0
 90
2
 38
0
 10
2687.09191499003
 20
3836.08558066125
 10
2970.44692519485
 20
3698.44441219104
  0
LWPOLYLINE
  5
200AB
100
AcDbEntity
  8
0
100
AcDbPolyline
 70
0
 90
2
 38
0
 10
2448.1799100035
 20
4038.33485851216
 10
2735.99458557446
 20
3808.0529661224
  0
LWPOLYLINE
  5
200AC
100
AcDbEntity
  8
0
100
AcDbPolyline
 70
0
 90
2
 38
0
 10
2495.34830917347
 20
3989.04847496218
 10
2397.53627644762
 20
4203.60376803477
  0
LWPOLYLINE
  5
200AD
100
AcDbEntity
  8
0
100
AcDbPolyline
 70
0
 90
2
 38
0
 10
2337.9496343424
 20
4222.70031739221
 10
2424.51882185502
 20
4175.52061891825
  0
LWPOLYLINE
  5
200AE
100
AcDbEntity
  8
0
100
AcDbPolyline
 70
0
 90
2
 38
0
 10
2189.54518420837
 20
4204.72706813528
 10
2372.84121406042
 20
4216.19026011029
  0
LWPOLYLINE
  5
200AF
100
AcDbEntity
  8
0
100
AcDbPolyline
 70
0
 90
2
 38
0
 10
1942.59687664463
 20
4063.24323247303
 10
2210.16521707254
 20
4208.94476555924
  0
LWPOLYLINE
  5
200B0
100
AcDbEntity
  8
0
100
AcDbPolyline
 70
0
 90
2
 38
0
 10
2054.52590699463
 20
4272.32741143142
 10
2129.89098311431
 20
4143.11203822892
  0
LWPOLYLINE
  5
200B1
100
AcDbEntity
  8
0
100
AcDbPolyline
 70
0
 90
2
 38
0
 10
1855.05882889015
 20
4006.53527917027
 10
1945.49547897533
 20
4053.67971286512
  0
LWPOLYLINE
  5
200B2
100
AcDbEntity
  8
0
100
AcDbPolyline
 70
0
 90
2
 38
0
 10
1933.98033886612
 20
4044.41920176821
 10
1957.29153579431
 20
4074.16511754963
  0
LWPOLYLINE
  5
200B3
100
AcDbEntity
  8
0
100
AcDbPolyline
 70
0
 90
2
 38
0
 10
1730.8474456853
 20
4003.14588127578
 10
1876.05153000513
 20
4011.28388809231
  0
LWPOLYLINE
  5
200B4
100
AcDbEntity
  8
0
100
AcDbPolyline
 70
0
 90
2
 38
0
 10
1678.88840644575
 20
3970.03250239197
 10
1759.2141139193
 20
4009.0389292703
  0
LWPOLYLINE
  5
200B5
100
AcDbEntity
  8
0
100
AcDbPolyline
 70
0
 90
2
 38
0
 10
1681.0340799313
 20
3976.65666038371
 10
1711.22007956381
 20
3909.23910702157
  0
LWPOLYLINE
  5
200B6
100
AcDbEntity
  8
0
100
AcDbPolyline
 70
0
 90
2
 38
0
 10
1710.50987373637
 20
3921.30334214281
 10
1697.54755574433
 20
3891.67510826176
  0
LWPOLYLINE
  5
200B7
100
AcDbEntity
  8
0
100
AcDbPolyline
 70
0
 90
2
 38
0
 10
1697.54755574433
 20
3903.2070391997
 10
1712.85783813708
 20
3832.09628361197
  0
LWPOLYLINE
  5
200B8
100
AcDbEntity
  8
0
100
AcDbPolyline
 70
0
 90
2
 38
0
 10
1715.98292393511
 20
3839.76057850158
 10
1645.52533276475
 20
3832.3801427013
  0
LWPOLYLINE
  5
200B9
100
AcDbEntity
  8
0
100
AcDbPolyline
 70
0
 90
2
 38
0
 10
1657.17366059479
 20
3779.5816060032
 10
1648.36641344208
 20
3906.18460018167
  0
LWPOLYLINE
  5
200BA
100
AcDbEntity
  8
0
100
AcDbPolyline
 70
0
 90
2
 38
0
 10
1643.53716823604
 20
3898.27643616378
 10
1708.96644037991
 20
3910.95390042685
  0
LWPOLYLINE
  5
200BB
100
AcDbEntity
  8
0
100
AcDbPolyline
 70
0
 90
2
 38
0
 10
1634.07054535225
 20
3938.75284228274
 10
1649.63742321879
 20
3901.20943121898
  0
LWPOLYLINE
  5
200BC
100
AcDbEntity
  8
0
100
AcDbPolyline
 70
0
 90
2
 38
0
 10
1629.5999418641
 20
3986.55323071217
 10
1637.83068564539
 20
3918.79630980727
  0
LWPOLYLINE
  5
200BD
100
AcDbEntity
  8
0
100
AcDbPolyline
 70
0
 90
2
 38
0
 10
3345.04929335092
 20
3553.52656296879
 10
3242.25616854886
 20
3483.35174158186
  0
LWPOLYLINE
  5
200BE
100
AcDbEntity
  8
0
100
AcDbPolyline
 70
0
 90
2
 38
0
 10
3252.59668303876
 20
3494.58300173043
 10
3233.33658044899
 20
3454.34593851279
  0
LWPOLYLINE
  5
200BF
100
AcDbEntity
  8
0
100
AcDbPolyline
 70
0
 90
2
 38
0
 10
3235.67103305193
 20
3471.84030301203
 10
3237.71388819064
 20
3407.11112949547
  0
LWPOLYLINE
  5
200C0
100
AcDbEntity
  8
0
100
AcDbPolyline
 70
0
 90
2
 38
0
 10
3232.75930497483
 20
3422.448274341
 10
3279.45041597412
 20
3346.34772659586
  0
LWPOLYLINE
  5
200C1
100
AcDbEntity
  8
0
100
AcDbPolyline
 70
0
 90
2
 38
0
 10
3270.69580049081
 20
3354.22017818583
 10
3289.08046726902
 20
3350.42973668923
  0
LWPOLYLINE
  5
200C2
100
AcDbEntity
  8
0
100
AcDbPolyline
 70
0
 90
2
 38
0
 10
3281.49314242906
 20
3356.84434529541
 10
3301.33682599862
 20
3328.27022490311
  0
LWPOLYLINE
  5
200C3
100
AcDbEntity
  8
0
100
AcDbPolyline
 70
0
 90
2
 38
0
 10
3268.36121920409
 20
3310.1926734716
 10
3421.85833025874
 20
3424.19768592155
  0
LWPOLYLINE
  5
200C4
100
AcDbEntity
  8
0
100
AcDbPolyline
 70
0
 90
2
 38
0
 10
3185.77633914375
 20
3390.08366271335
 10
3239.42705546384
 20
3409.11754123627
  0
LWPOLYLINE
  5
200C5
100
AcDbEntity
  8
0
100
AcDbPolyline
 70
0
 90
2
 38
0
 10
3186.32118630326
 20
3395.03172405317
 10
3197.35968166072
 20
3360.55097698554
  0
LWPOLYLINE
  5
200C6
100
AcDbEntity
  8
0
100
AcDbPolyline
 70
0
 90
2
 38
0
 10
3663.6013785871
 20
3282.55259720733
 10
3710.78174534941
 20
3186.82861744602
  0
LWPOLYLINE
  5
200C7
100
AcDbEntity
  8
0
100
AcDbPolyline
 70
0
 90
2
 38
0
 10
3639.52142470784
 20
3152.82879442515
 10
3708.31153134984
 20
3196.75677188553
  0
LWPOLYLINE
  5
200C8
100
AcDbEntity
  8
0
100
AcDbPolyline
 70
0
 90
2
 38
0
 10
4638.24505593811
 20
3691.05925120878
 10
4715.27504291039
 20
3702.70881430834
  0
LWPOLYLINE
  5
200C9
100
AcDbEntity
  8
0
100
AcDbPolyline
 70
0
 90
2
 38
0
 10
4665.84965877802
 20
3699.87196427148
 10
4672.29748867286
 20
3654.2890788699
  0
LWPOLYLINE
  5
200CA
100
AcDbEntity
  8
0
100
AcDbPolyline
 70
0
 90
2
 38
0
 10
4543.26226498108
 20
3641.10865629048
 10
4680.29685900284
 20
3661.64648562544
  0
LWPOLYLINE
  5
200CB
100
AcDbEntity
  8
0
100
AcDbPolyline
 70
0
 90
2
 38
0
 10
4618.00850076298
 20
3731.3505794109
 10
4634.20348420006
 20
3636.12975692097
  0
LWPOLYLINE
  5
200CC
100
AcDbEntity
  8
0
100
AcDbPolyline
 70
0
 90
2
 38
0
 10
4588.73281024868
 20
3653.24461470011
 10
4603.68213461531
 20
3628.35031680762
  0
LWPOLYLINE
  5
200CD
100
AcDbEntity
  8
0
100
AcDbPolyline
 70
0
 90
2
 38
0
 10
4592.47017351128
 20
3633.32916643837
 10
4639.18650653309
 20
3642.66453436539
  0
LWPOLYLINE
  5
200CE
100
AcDbEntity
  8
0
100
AcDbPolyline
 70
0
 90
2
 38
0
 10
4610.84531768915
 20
3641.73098762494
 10
4613.33676451378
 20
3603.76713484361
  0
LWPOLYLINE
  5
200CF
100
AcDbEntity
  8
0
100
AcDbPolyline
 70
0
 90
2
 38
0
 10
4564.12898466736
 20
3607.50127206667
 10
4706.14660102216
 20
3615.59197732477
  0
LWPOLYLINE
  5
200D0
100
AcDbEntity
  8
0
100
AcDbPolyline
 70
0
 90
2
 38
0
 10
4641.67808204147
 20
3662.57998262713
 10
4649.15267988292
 20
3600.34416328779
  0
LWPOLYLINE
  5
200D1
100
AcDbEntity
  8
0
100
AcDbPolyline
 70
0
 90
2
 38
0
 10
4573.9285125114
 20
3508.98655009676
 10
4696.16948955032
 20
3536.78773019673
  0
LWPOLYLINE
  5
200D2
100
AcDbEntity
  8
0
100
AcDbPolyline
 70
0
 90
2
 38
0
 10
4677.09868081307
 20
3540.84860131813
 10
4685.85252419367
 20
3498.67829207205
  0
LWPOLYLINE
  5
200D3
100
AcDbEntity
  8
0
100
AcDbPolyline
 70
0
 90
2
 38
0
 10
4677.09868081307
 20
3503.6762413857
 10
4764.01171140795
 20
3508.98655009676
  0
LWPOLYLINE
  5
200D4
100
AcDbEntity
  8
0
100
AcDbPolyline
 70
0
 90
2
 38
0
 10
4623.32507147521
 20
3615.19327144425
 10
4626.76414571662
 20
3512.73506182075
  0
LWPOLYLINE
  5
200D5
100
AcDbEntity
  8
0
100
AcDbPolyline
 70
0
 90
2
 38
0
 10
4604.74802243354
 20
3527.67633589495
 10
4609.1416730163
 20
3476.2507381215
  0
LWPOLYLINE
  5
200D6
100
AcDbEntity
  8
0
100
AcDbPolyline
 70
0
 90
2
 38
0
 10
4612.59387300411
 20
3488.16640357394
 10
4580.58262251885
 20
3465.58933491819
  0
LWPOLYLINE
  5
200D7
100
AcDbEntity
  8
0
100
AcDbPolyline
 70
0
 90
2
 38
0
 10
4686.9729739381
 20
3393.46808673207
 10
4767.00116449315
 20
3409.14658867068
  0
LWPOLYLINE
  5
200D8
100
AcDbEntity
  8
0
100
AcDbPolyline
 70
0
 90
2
 38
0
 10
4597.23095894197
 20
3340.95873117037
 10
4775.80365034571
 20
3320.89023675164
  0
LWPOLYLINE
  5
200D9
100
AcDbEntity
  8
0
100
AcDbPolyline
 70
0
 90
2
 38
0
 10
4718.6855493508
 20
3336.56873869025
 10
4713.35031948928
 20
3295.49099099251
  0
LWPOLYLINE
  5
200DA
100
AcDbEntity
  8
0
100
AcDbPolyline
 70
0
 90
2
 38
0
 10
4613.86436804567
 20
3251.90466905775
 10
4714.60562984383
 20
3272.60031947041
  0
LWPOLYLINE
  5
200DB
100
AcDbEntity
  8
0
100
AcDbPolyline
 70
0
 90
2
 38
0
 10
4701.46058087246
 20
3283.99437457243
 10
4706.48195097438
 20
3209.23911100274
  0
LWPOLYLINE
  5
200DC
100
AcDbEntity
  8
0
100
AcDbPolyline
 70
0
 90
2
 38
0
 10
4614.59078803041
 20
3204.22201226743
 10
4788.83249785629
 20
3237.33504297995
  0
LWPOLYLINE
  5
200DD
100
AcDbEntity
  8
0
100
AcDbPolyline
 70
0
 90
2
 38
0
 10
4771.25763815764
 20
3235.32818359033
 10
4857.62517817406
 20
3222.78536214393
  0
LWPOLYLINE
  5
200DE
100
AcDbEntity
  8
0
100
AcDbPolyline
 70
0
 90
2
 38
0
 10
4635.71075741202
 20
3103.98722458393
 10
4705.65142580491
 20
3108.57164586731
  0
LWPOLYLINE
  5
200DF
100
AcDbEntity
  8
0
100
AcDbPolyline
 70
0
 90
2
 38
0
 10
4699.45105483488
 20
3104.73066979302
 10
4704.53535130928
 20
3132.73284421226
  0
LWPOLYLINE
  5
200E0
100
AcDbEntity
  8
0
100
AcDbPolyline
 70
0
 90
2
 38
0
 10
4694.24270718862
 20
3126.53768300439
 10
4788.40642583332
 20
3131.48077046846
  0
LWPOLYLINE
  5
200E1
100
AcDbEntity
  8
0
100
AcDbPolyline
 70
0
 90
2
 38
0
 10
4636.64165593634
 20
3341.0844210107
 10
4634.83532160043
 20
3318.22339378809
  0
LWPOLYLINE
  5
200E2
100
AcDbEntity
  8
0
100
AcDbPolyline
 70
0
 90
2
 38
0
 10
4630.82128819305
 20
3324.23944573003
 10
4651.89531746224
 20
3319.02553073109
  0
LWPOLYLINE
  5
200E3
100
AcDbEntity
  8
0
100
AcDbPolyline
 70
0
 90
2
 38
0
 10
4647.47979063547
 20
3327.64854017249
 10
4629.81768332838
 20
3285.13508323808
  0
LWPOLYLINE
  5
200E4
100
AcDbEntity
  8
0
100
AcDbPolyline
 70
0
 90
2
 38
0
 10
4643.64707268574
 20
2936.97900044856
 10
4815.9555659605
 20
2951.63114312512
  0
LWPOLYLINE
  5
200E5
100
AcDbEntity
  8
0
100
AcDbPolyline
 70
0
 90
2
 38
0
 10
4654.98205549136
 20
2792.3381463671
 10
4701.84830512651
 20
2832.19057977259
  0
LWPOLYLINE
  5
200E6
100
AcDbEntity
  8
0
100
AcDbPolyline
 70
0
 90
2
 38
0
 10
5609.27760882283
 20
2371.89001249803
 10
5535.43910848335
 20
2224.55461096506
  0
LWPOLYLINE
  5
200E7
100
AcDbEntity
  8
0
100
AcDbPolyline
 70
0
 90
2
 38
0
 10
5312.50744237506
 20
1967.77922015007
 10
5556.95568130037
 20
2255.02124134338
  0
LWPOLYLINE
  5
200E8
100
AcDbEntity
  8
0
100
AcDbPolyline
 70
0
 90
2
 38
0
 10
5321.48931342844
 20
1973.11186156327
 10
5294.38464710597
 20
1967.69550982112
  0
LWPOLYLINE
  5
200E9
100
AcDbEntity
  8
0
100
AcDbPolyline
 70
0
 90
2
 38
0
 10
5304.54886480596
 20
1974.8044714827
 10
5271.00679197547
 20
1926.0573058033
  0
LWPOLYLINE
  5
200EA
100
AcDbEntity
  8
0
100
AcDbPolyline
 70
0
 90
2
 38
0
 10
5189.78325771118
 20
1857.80215176402
 10
5282.32568930756
 20
1938.32735990329
  0
LWPOLYLINE
  5
200EB
100
AcDbEntity
  8
0
100
AcDbPolyline
 70
0
 90
2
 38
0
 10
5188.92892604088
 20
1866.14652468562
 10
5230.6981395066
 20
1821.41631080472
  0
LWPOLYLINE
  5
200EC
100
AcDbEntity
  8
0
100
AcDbPolyline
 70
0
 90
2
 38
0
 10
5137.80581668994
 20
1715.66569386396
 10
5231.5744761047
 20
1836.20180309028
  0
LWPOLYLINE
  5
200ED
100
AcDbEntity
  8
0
100
AcDbPolyline
 70
0
 90
2
 38
0
 10
5140.54768216651
 20
1738.6771310894
 10
5159.19164677808
 20
1701.42051370167
  0
LWPOLYLINE
  5
200EE
100
AcDbEntity
  8
0
100
AcDbPolyline
 70
0
 90
2
 38
0
 10
5159.74009708368
 20
1727.71928489109
 10
5110.9365130162
 20
1599.51271316921
  0
LWPOLYLINE
  5
200EF
100
AcDbEntity
  8
0
100
AcDbPolyline
 70
0
 90
2
 38
0
 10
5055.55268343573
 20
1625.81148435864
 10
5220.60740024972
 20
1571.5702749978
  0
LWPOLYLINE
  5
200F0
100
AcDbEntity
  8
0
100
AcDbPolyline
 70
0
 90
2
 38
0
 10
6302.93019715947
 20
1981.01758838204
 10
6665.03106396928
 20
2205.36584595113
  0
LWPOLYLINE
  5
200F1
100
AcDbEntity
  8
0
100
AcDbPolyline
 70
0
 90
2
 38
0
 10
6642.55090694572
 20
2189.51733693921
 10
6817.24777133067
 20
2344.61258151505
  0
LWPOLYLINE
  5
200F2
100
AcDbEntity
  8
0
100
AcDbPolyline
 70
0
 90
2
 38
0
 10
6803.1922845573
 20
2323.91727927369
 10
6861.72359091498
 20
2485.89437834414
  0
LWPOLYLINE
  5
200F3
100
AcDbEntity
  8
0
100
AcDbPolyline
 70
0
 90
2
 38
0
 10
6837.28293637719
 20
2443.77380785561
 10
6951.58798419373
 20
2599.80359394705
  0
LWPOLYLINE
  5
200F4
100
AcDbEntity
  8
0
100
AcDbPolyline
 70
0
 90
2
 38
0
 10
6929.18387928905
 20
2579.2951602178
 10
7020.33665465593
 20
2639.2980077757
  0
LWPOLYLINE
  5
200F5
100
AcDbEntity
  8
0
100
AcDbPolyline
 70
0
 90
2
 38
0
 10
7001.74853880846
 20
2634.29777047921
 10
7071.81107074884
 20
2633.22629816407
  0
LWPOLYLINE
  5
200F6
100
AcDbEntity
  8
0
100
AcDbPolyline
 70
0
 90
2
 38
0
 10
7047.8612161795
 20
2629.29753318272
 10
7101.15933891974
 20
2651.1346383424
  0
LWPOLYLINE
  5
200F7
100
AcDbEntity
  8
0
100
AcDbPolyline
 70
0
 90
2
 38
0
 10
7089.72063698078
 20
2639.34834339834
 10
7119.78979173352
 20
2740.58989327342
  0
LWPOLYLINE
  5
200F8
100
AcDbEntity
  8
0
100
AcDbPolyline
 70
0
 90
2
 38
0
 10
7121.21959730497
 20
2717.73165142124
 10
7108.35096111079
 20
2764.8767814587
  0
LWPOLYLINE
  5
200F9
100
AcDbEntity
  8
0
100
AcDbPolyline
 70
0
 90
2
 38
0
 10
7104.41889927653
 20
2749.87606956922
 10
7131.9434608001
 20
2795.94967755279
  0
LWPOLYLINE
  5
200FA
100
AcDbEntity
  8
0
100
AcDbPolyline
 70
0
 90
2
 38
0
 10
7119.78979173352
 20
2786.30632723902
 10
7391.72604598655
 20
2897.67046035687
  0
LWPOLYLINE
  5
200FB
100
AcDbEntity
  8
0
100
AcDbPolyline
 70
0
 90
2
 38
0
 10
7365.04037407867
 20
2875.36859624664
 10
7450.30290640527
 20
2965.65603033023
  0
LWPOLYLINE
  5
200FC
100
AcDbEntity
  8
0
100
AcDbPolyline
 70
0
 90
2
 38
0
 10
7432.44880288607
 20
2938.71543021338
 10
7554.23732772545
 20
3294.57291300566
  0
LWPOLYLINE
  5
200FD
100
AcDbEntity
  8
0
100
AcDbPolyline
 70
0
 90
2
 38
0
 10
7529.98493756988
 20
3261.02093775776
 10
7735.19800418804
 20
3476.31261313589
  0
LWPOLYLINE
  5
200FE
100
AcDbEntity
  8
0
100
AcDbPolyline
 70
0
 90
2
 38
0
 10
6861.59966842688
 20
2464.95694783101
 10
6827.27378264206
 20
2490.56922468873
  0
LWPOLYLINE
  5
200FF
100
AcDbEntity
  8
0
100
AcDbPolyline
 70
0
 90
2
 38
0
 10
6840.38537382847
 20
2476.87987514206
 10
6791.57947345282
 20
2595.80260828973
  0
LWPOLYLINE
  5
20100
100
AcDbEntity
  8
0
100
AcDbPolyline
 70
0
 90
2
 38
0
 10
6768.9509440214
 20
2609.36825754638
 10
6808.55093486828
 20
2564.90305176571
  0
LWPOLYLINE
  5
20101
100
AcDbEntity
  8
0
100
AcDbPolyline
 70
0
 90
2
 38
0
 10
6782.15094097037
 20
2582.61377986029
 10
6763.28821391874
 20
2683.43533566661
  0
LWPOLYLINE
  5
20102
100
AcDbEntity
  8
0
100
AcDbPolyline
 70
0
 90
2
 38
0
 10
6762.53399823571
 20
2661.5795287341
 10
6799.87108466597
 20
2754.65506887214
  0
LWPOLYLINE
  5
20103
100
AcDbEntity
  8
0
100
AcDbPolyline
 70
0
 90
2
 38
0
 10
6779.12815878398
 20
2740.71254904954
 10
6833.4367066297
 20
2747.49542341661
  0
LWPOLYLINE
  5
20104
100
AcDbEntity
  8
0
100
AcDbPolyline
 70
0
 90
2
 38
0
 10
6828.53385429675
 20
2736.19069912316
 10
6821.74539841435
 20
2810.80181977347
  0
LWPOLYLINE
  5
20105
100
AcDbEntity
  8
0
100
AcDbPolyline
 70
0
 90
2
 38
0
 10
6816.86429364164
 20
2786.92607215809
 10
6838.73860739003
 20
2835.53640651546
  0
LWPOLYLINE
  5
20106
100
AcDbEntity
  8
0
100
AcDbPolyline
 70
0
 90
2
 38
0
 10
6834.58997074014
 20
2807.27459578182
 10
6779.3385567778
 20
3316.0728391279
  0
LWPOLYLINE
  5
20107
100
AcDbEntity
  8
0
100
AcDbPolyline
 70
0
 90
2
 38
0
 10
6779.93075957141
 20
3281.26565659448
 10
6786.39145784508
 20
3331.00899011008
  0
LWPOLYLINE
  5
20108
100
AcDbEntity
  8
0
100
AcDbPolyline
 70
0
 90
2
 38
0
 10
6786.77146107182
 20
3306.70693160375
 10
6693.42063791759
 20
4339.83867261278
  0
LWPOLYLINE
  5
20109
100
AcDbEntity
  8
0
100
AcDbPolyline
 70
0
 90
2
 38
0
 10
6522.10365323143
 20
4393.31897846062
 10
6583.78307978524
 20
4336.09364260182
  0
LWPOLYLINE
  5
2010A
100
AcDbEntity
  8
0
100
AcDbPolyline
 70
0
 90
2
 38
0
 10
6559.86655431704
 20
4346.15524612783
 10
6654.27387137295
 20
4348.67063457464
  0
LWPOLYLINE
  5
2010B
100
AcDbEntity
  8
0
100
AcDbPolyline
 70
0
 90
2
 38
0
 10
6624.06355050448
 20
4354.95915543043
 10
6712.35954577185
 20
4330.03919233906
  0
LWPOLYLINE
  5
2010C
100
AcDbEntity
  8
0
100
AcDbPolyline
 70
0
 90
2
 38
0
 10
6701.45887075161
 20
4330.53424219295
 10
6842.42398240219
 20
4349.34673350602
  0
LWPOLYLINE
  5
2010D
100
AcDbEntity
  8
0
100
AcDbPolyline
 70
0
 90
2
 38
0
 10
6830.03688094369
 20
4351.82203251425
 10
6887.51298023757
 20
4288.94876125814
  0
LWPOLYLINE
  5
2010E
100
AcDbEntity
  8
0
100
AcDbPolyline
 70
0
 90
2
 38
0
 10
3541.88079878794
 20
3984.23605121419
 10
3647.89101829665
 20
3907.66686489542
  0
LWPOLYLINE
  5
2010F
100
AcDbEntity
  8
0
100
AcDbPolyline
 70
0
 90
2
 38
0
 10
3627.19982329756
 20
3909.96394993534
 10
3694.12684605306
 20
3921.19406609247
  0
LWPOLYLINE
  5
20110
100
AcDbEntity
  8
0
100
AcDbPolyline
 70
0
 90
2
 38
0
 10
3680.84359069308
 20
3909.19822176286
 10
3736.78642264978
 20
3998.52898058373
  0
LWPOLYLINE
  5
20111
100
AcDbEntity
  8
0
100
AcDbPolyline
 70
0
 90
2
 38
0
 10
3724.52491656863
 20
3997.25283328127
 10
3800.64806888497
 20
3945.95143318542
  0
LWPOLYLINE
  5
20112
100
AcDbEntity
  8
0
100
AcDbPolyline
 70
0
 90
2
 38
0
 10
3756.48752458193
 20
3961.17019978799
 10
3852.96317616664
 20
4092.75000430815
  0
LWPOLYLINE
  5
20113
100
AcDbEntity
  8
0
100
AcDbPolyline
 70
0
 90
2
 38
0
 10
3671.89762241661
 20
4140.63828112217
 10
3810.04301489869
 20
4018.12754322112
  0
LWPOLYLINE
  5
20114
100
AcDbEntity
  8
0
100
AcDbPolyline
 70
0
 90
2
 38
0
 10
3628.9826085002
 20
4106.33525063527
 10
3698.46400445278
 20
4059.78121599253
  0
LWPOLYLINE
  5
20115
100
AcDbEntity
  8
0
100
AcDbPolyline
 70
0
 90
2
 38
0
 10
3664.13194184614
 20
4038.54599953796
 10
3723.39558764279
 20
4116.13612359421
  0
LWPOLYLINE
  5
20116
100
AcDbEntity
  8
0
100
AcDbPolyline
 70
0
 90
2
 38
0
 10
3702.95982996342
 20
4033.23723272839
 10
3748.32717083284
 20
4087.95866979337
  0
LWPOLYLINE
  5
20117
100
AcDbEntity
  8
0
100
AcDbPolyline
 70
0
 90
2
 38
0
 10
3731.97853895256
 20
4015.26895734721
 10
3767.12800098228
 20
4066.31509813931
  0
LWPOLYLINE
  5
20118
100
AcDbEntity
  8
0
100
AcDbPolyline
 70
0
 90
2
 38
0
 10
3793.08429317828
 20
3959.31489439263
 10
3776.13342116892
 20
3930.39886978092
  0
LWPOLYLINE
  5
20119
100
AcDbEntity
  8
0
100
AcDbPolyline
 70
0
 90
2
 38
0
 10
3779.02751956703
 20
3948.98773564005
 10
3861.30394458689
 20
3849.79218955679
  0
LWPOLYLINE
  5
2011A
100
AcDbEntity
  8
0
100
AcDbPolyline
 70
0
 90
2
 38
0
 10
3683.94010869015
 20
3707.27746840557
 10
3988.22849678356
 20
3968.3479004125
  0
LWPOLYLINE
  5
2011B
100
AcDbEntity
  8
0
100
AcDbPolyline
 70
0
 90
2
 38
0
 10
3693.04538749647
 20
3727.372075672
 10
3708.40791550724
 20
3685.74595817227
  0
LWPOLYLINE
  5
2011C
100
AcDbEntity
  8
0
100
AcDbPolyline
 70
0
 90
2
 38
0
 10
3590.8676285699
 20
3894.45326656471
 10
3652.85962804538
 20
3669.33938030065
  0
LWPOLYLINE
  5
2011D
100
AcDbEntity
  8
0
100
AcDbPolyline
 70
0
 90
2
 38
0
 10
3505.74754919694
 20
3952.20682802868
 10
3628.28102448658
 20
3846.03094471087
  0
LWPOLYLINE
  5
2011E
100
AcDbEntity
  8
0
100
AcDbPolyline
 70
0
 90
2
 38
0
 10
3615.42422720091
 20
3850.48773634237
 10
3683.64413597711
 20
3844.7201294944
  0
LWPOLYLINE
  5
2011F
100
AcDbEntity
  8
0
100
AcDbPolyline
 70
0
 90
2
 38
0
 10
3665.80200005026
 20
3851.27420557675
 10
3699.6933206821
 20
3821.60782206865
  0
LWPOLYLINE
  5
20120
100
AcDbEntity
  8
0
100
AcDbPolyline
 70
0
 90
2
 38
0
 10
3683.42550222087
 20
3823.44298326722
 10
3724.88227144865
 20
3862.24304404048
  0
LWPOLYLINE
  5
20121
100
AcDbEntity
  8
0
100
AcDbPolyline
 70
0
 90
2
 38
0
 10
3708.0895518151
 20
3859.62141360754
 10
3806.74613624334
 20
3861.19440181505
  0
LWPOLYLINE
  5
20122
100
AcDbEntity
  8
0
100
AcDbPolyline
 70
0
 90
2
 38
0
 10
3792.5774077363
 20
3863.55385925694
 10
3837.70745570015
 20
3820.55917984324
  0
LWPOLYLINE
  5
20123
100
AcDbEntity
  8
0
100
AcDbPolyline
 70
0
 90
2
 38
0
 10
3709.40148303646
 20
3854.90249872374
 10
3788.64161407217
 20
3780.71047684455
  0
LWPOLYLINE
  5
20124
100
AcDbEntity
  8
0
100
AcDbPolyline
 70
0
 90
2
 38
0
 10
3695.75752701797
 20
3786.21586096272
 10
3748.75916231005
 20
3832.61864004375
  0
LWPOLYLINE
  5
20125
100
AcDbEntity
  8
0
100
AcDbPolyline
 70
0
 90
2
 38
0
 10
3723.05367481738
 20
3775.43418944366
 10
3762.93612657953
 20
3818.69099210966
  0
LWPOLYLINE
  5
20126
100
AcDbEntity
  8
0
100
AcDbPolyline
 70
0
 90
2
 38
0
 10
3723.8408335502
 20
3788.01799562627
 10
3752.96557798088
 20
3753.41250375471
  0
LWPOLYLINE
  5
20127
100
AcDbEntity
  8
0
100
AcDbPolyline
 70
0
 90
2
 38
0
 10
3761.09942286959
 20
3865.61811717278
 10
3812.00209689126
 20
3805.32071669267
  0
LWPOLYLINE
  5
20128
100
AcDbEntity
  8
0
100
AcDbPolyline
 70
0
 90
2
 38
0
 10
3787.075532369
 20
3827.34235264286
 10
3840.60194014962
 20
3883.18301123023
  0
LWPOLYLINE
  5
20129
100
AcDbEntity
  8
0
100
AcDbPolyline
 70
0
 90
2
 38
0
 10
3778.43737571404
 20
3895.8604754933
 10
3813.85926132352
 20
3922.60107606604
  0
LWPOLYLINE
  5
2012A
100
AcDbEntity
  8
0
100
AcDbPolyline
 70
0
 90
2
 38
0
 10
3800.47756286553
 20
3880.13074263442
 10
3870.53417535164
 20
3925.74705248107
  0
LWPOLYLINE
  5
2012B
100
AcDbEntity
  8
0
100
AcDbPolyline
 70
0
 90
2
 38
0
 10
3835.37467598644
 20
3929.15515214839
 10
3878.14337643562
 20
3887.7334609422
  0
LWPOLYLINE
  5
2012C
100
AcDbEntity
  8
0
100
AcDbPolyline
 70
0
 90
2
 38
0
 10
3838.28614669596
 20
3917.13478661131
 10
3865.8364449772
 20
3945.44837539156
  0
LWPOLYLINE
  5
2012D
100
AcDbEntity
  8
0
100
AcDbPolyline
 70
0
 90
2
 38
0
 10
3861.37600750834
 20
3930.76723501935
 10
3846.68237782895
 20
3988.44305480528
  0
LWPOLYLINE
  5
2012E
100
AcDbEntity
  8
0
100
AcDbPolyline
 70
0
 90
2
 38
0
 10
3840.65379971627
 20
3973.55718970698
 10
3879.7490927456
 20
4023.36806845533
  0
LWPOLYLINE
  5
2012F
100
AcDbEntity
  8
0
100
AcDbPolyline
 70
0
 90
2
 38
0
 10
3866.23394919918
 20
4023.57682202077
 10
3896.52392533259
 20
3991.47030480603
  0
LWPOLYLINE
  5
20130
100
AcDbEntity
  8
0
100
AcDbPolyline
 70
0
 90
2
 38
0
 10
3874.92589567759
 20
3999.89167332432
 10
3913.64427389109
 20
4001.7338476877
  0
LWPOLYLINE
  5
20131
100
AcDbEntity
  8
0
100
AcDbPolyline
 70
0
 90
2
 38
0
 10
3901.26489345989
 20
3998.31266672714
 10
3924.97012014774
 20
4033.05086160385
  0
LWPOLYLINE
  5
20132
100
AcDbEntity
  8
0
100
AcDbPolyline
 70
0
 90
2
 38
0
 10
3904.95245609645
 20
4033.57719713624
 10
3981.07239131807
 20
3984.62789314616
  0
LWPOLYLINE
  5
20133
100
AcDbEntity
  8
0
100
AcDbPolyline
 70
0
 90
2
 38
0
 10
3901.52830917446
 20
3948.83702720468
 10
3959.47436166307
 20
4005.94453194684
  0
LWPOLYLINE
  5
20134
100
AcDbEntity
  8
0
100
AcDbPolyline
 70
0
 90
2
 38
0
 10
3921.01927048041
 20
3981.20671218561
 10
3968.16617945774
 20
3946.73168507511
  0
LWPOLYLINE
  5
20135
100
AcDbEntity
  8
0
100
AcDbPolyline
 70
0
 90
2
 38
0
 10
3876.46199405813
 20
3776.5389369876
 10
3994.75829825155
 20
3804.75702735336
  0
LWPOLYLINE
  5
20136
100
AcDbEntity
  8
0
100
AcDbPolyline
 70
0
 90
2
 38
0
 10
3961.98704131277
 20
3794.10870544329
 10
3934.0115717951
 20
3839.09785929599
  0
LWPOLYLINE
  5
20137
100
AcDbEntity
  8
0
100
AcDbPolyline
 70
0
 90
2
 38
0
 10
3930.81442307562
 20
3794.37490727369
 10
3962.78629632169
 20
3733.67944751691
  0
LWPOLYLINE
  5
20138
100
AcDbEntity
  8
0
100
AcDbPolyline
 70
0
 90
2
 38
0
 10
3989.16801712167
 20
3797.34475874824
 10
3976.37929356002
 20
3873.21407100954
  0
LWPOLYLINE
  5
20139
100
AcDbEntity
  8
0
100
AcDbPolyline
 70
0
 90
2
 38
0
 10
3954.79812148129
 20
3846.85944319538
 10
4020.3407640426
 20
3863.63055642109
  0
LWPOLYLINE
  5
2013A
100
AcDbEntity
  8
0
100
AcDbPolyline
 70
0
 90
2
 38
0
 10
3970.83662543181
 20
3901.32775972319
 10
4000.42385939753
 20
3908.34251617797
  0
LWPOLYLINE
  5
2013B
100
AcDbEntity
  8
0
100
AcDbPolyline
 70
0
 90
2
 38
0
 10
3973.87562177552
 20
3961.96582095377
 10
3990.85480421828
 20
3894.91439458595
  0
LWPOLYLINE
  5
2013C
100
AcDbEntity
  8
0
100
AcDbPolyline
 70
0
 90
2
 38
0
 10
3523.79750944185
 20
3749.11970080685
 10
3676.42677702842
 20
3786.29499532598
  0
LWPOLYLINE
  5
2013D
100
AcDbEntity
  8
0
100
AcDbPolyline
 70
0
 90
2
 38
0
 10
3547.69679128242
 20
3718.18547636881
 10
3648.99692677302
 20
3746.67752781115
  0
LWPOLYLINE
  5
2013E
100
AcDbEntity
  8
0
100
AcDbPolyline
 70
0
 90
2
 38
0
 10
3555.30110238242
 20
3688.60802575921
 10
3673.43925420006
 20
3718.72817595243
  0
LWPOLYLINE
  5
2013F
100
AcDbEntity
  8
0
100
AcDbPolyline
 70
0
 90
2
 38
0
 10
3548.64609158845
 20
3897.87345275011
 10
3604.70062107334
 20
3686.43543682943
  0
LWPOLYLINE
  5
20140
100
AcDbEntity
  8
0
100
AcDbPolyline
 70
0
 90
2
 38
0
 10
3513.0145800879
 20
3829.70966880845
 10
3608.17688492956
 20
3850.54956161801
  0
LWPOLYLINE
  5
20141
100
AcDbEntity
  8
0
100
AcDbPolyline
 70
0
 90
2
 38
0
 10
3502.15122336627
 20
3864.00862071723
 10
3587.31943047604
 20
3885.71685275609
  0
LWPOLYLINE
  5
20142
100
AcDbEntity
  8
0
100
AcDbPolyline
 70
0
 90
2
 38
0
 10
3485.91094323572
 20
3793.71626664622
 10
3675.09477113609
 20
3832.31463675761
  0
LWPOLYLINE
  5
20143
100
AcDbEntity
  8
0
100
AcDbPolyline
 70
0
 90
2
 38
0
 10
3643.80852511391
 20
3863.14028148792
 10
3671.1839421269
 20
3801.4889920273
  0
LWPOLYLINE
  5
20144
100
AcDbEntity
  8
0
100
AcDbPolyline
 70
0
 90
2
 38
0
 10
3671.1839421269
 20
3819.28969753429
 10
3662.05884601717
 20
3765.88753127456
  0
LWPOLYLINE
  5
20145
100
AcDbEntity
  8
0
100
AcDbPolyline
 70
0
 90
2
 38
0
 10
3300.35046476156
 20
3844.60742146979
 10
3456.58287841959
 20
3881.70756072627
  0
LWPOLYLINE
  5
20146
100
AcDbEntity
  8
0
100
AcDbPolyline
 70
0
 90
2
 38
0
 10
3289.84163187661
 20
3944.70771555288
 10
3297.54811790449
 20
3861.40748265239
  0
LWPOLYLINE
  5
20147
100
AcDbEntity
  8
0
100
AcDbPolyline
 70
0
 90
2
 38
0
 10
3277.93143253743
 20
3886.6075744263
 10
3348.69143061021
 20
3827.10738675219
  0
LWPOLYLINE
  5
20148
100
AcDbEntity
  8
0
100
AcDbPolyline
 70
0
 90
2
 38
0
 10
3333.97901309776
 20
3848.80746163482
 10
3357.79915440854
 20
3760.6072150343
  0
LWPOLYLINE
  5
20149
100
AcDbEntity
  8
0
100
AcDbPolyline
 70
0
 90
2
 38
0
 10
3335.38012218441
 20
3790.70732050823
 10
3394.93060414512
 20
3745.90717393422
  0
LWPOLYLINE
  5
2014A
100
AcDbEntity
  8
0
100
AcDbPolyline
 70
0
 90
2
 38
0
 10
3380.21818663266
 20
3769.0072456256
 10
3397.03239645888
 20
3685.70701272511
  0
LWPOLYLINE
  5
2014B
100
AcDbEntity
  8
0
100
AcDbPolyline
 70
0
 90
2
 38
0
 10
3323.47005152902
 20
3680.80699902508
 10
3502.12149741118
 20
3725.6071455991
  0
LWPOLYLINE
  5
2014C
100
AcDbEntity
  8
0
100
AcDbPolyline
 70
0
 90
2
 38
0
 10
3335.83000070818
 20
3709.91078744653
 10
3363.08213865201
 20
3608.02119129934
  0
LWPOLYLINE
  5
2014D
100
AcDbEntity
  8
0
100
AcDbPolyline
 70
0
 90
2
 38
0
 10
3283.08393141961
 20
3729.23464292597
 10
3344.62103370357
 20
3696.73538848163
  0
LWPOLYLINE
  5
2014E
100
AcDbEntity
  8
0
100
AcDbPolyline
 70
0
 90
2
 38
0
 10
3312.97344360394
 20
3724.40366662142
 10
3254.07358687669
 20
3701.127171557
  0
LWPOLYLINE
  5
2014F
100
AcDbEntity
  8
0
100
AcDbPolyline
 70
0
 90
2
 38
0
 10
3261.10641327301
 20
3717.37682364856
 10
3276.93027266472
 20
3602.31182853646
  0
LWPOLYLINE
  5
20150
100
AcDbEntity
  8
0
100
AcDbPolyline
 70
0
 90
2
 38
0
 10
3260.22737431536
 20
3608.89952801891
 10
3364.84034525108
 20
3631.73687959292
  0
LWPOLYLINE
  5
20151
100
AcDbEntity
  8
0
100
AcDbPolyline
 70
0
 90
2
 38
0
 10
3227.9595283563
 20
3922.32935323355
 10
3308.74978430547
 20
3932.24258604579
  0
LWPOLYLINE
  5
20152
100
AcDbEntity
  8
0
100
AcDbPolyline
 70
0
 90
2
 38
0
 10
3112.44369477594
 20
3969.06314374608
 10
3260.55912112152
 20
3918.0808177799
  0
LWPOLYLINE
  5
20153
100
AcDbEntity
  8
0
100
AcDbPolyline
 70
0
 90
2
 38
0
 10
2967.36337367096
 20
4242.65214939622
 10
3146.45842316073
 20
3946.46931312903
  0
LWPOLYLINE
  5
20154
100
AcDbEntity
  8
0
100
AcDbPolyline
 70
0
 90
2
 38
0
 10
3038.73812478974
 20
4007.36482216868
 10
3078.42459114236
 20
4061.88755289725
  0
LWPOLYLINE
  5
20155
100
AcDbEntity
  8
0
100
AcDbPolyline
 70
0
 90
2
 38
0
 10
2959.78804701277
 20
4232.40405055766
 10
3003.69637109082
 20
4259.71172270521
  0
LWPOLYLINE
  5
20156
100
AcDbEntity
  8
0
100
AcDbPolyline
 70
0
 90
2
 38
0
 10
2984.8785546813
 20
4238.22373388478
 10
2912.74318427953
 20
4356.40774700532
  0
LWPOLYLINE
  5
20157
100
AcDbEntity
  8
0
100
AcDbPolyline
 70
0
 90
2
 38
0
 10
2874.21139755903
 20
4325.51873509789
 10
2983.98240077982
 20
4389.0874039233
  0
LWPOLYLINE
  5
20158
100
AcDbEntity
  8
0
100
AcDbPolyline
 70
0
 90
2
 38
0
 10
2883.62037010568
 20
4332.23371606091
 10
2882.27613925346
 20
4302.24005152814
  0
LWPOLYLINE
  5
20159
100
AcDbEntity
  8
0
100
AcDbPolyline
 70
0
 90
2
 38
0
 10
2737.109501916
 20
4252.54904318548
 10
2886.30857444256
 20
4319.25140295282
  0
LWPOLYLINE
  5
2015A
100
AcDbEntity
  8
0
100
AcDbPolyline
 70
0
 90
2
 38
0
 10
2758.20399190752
 20
4272.45310127174
 10
2627.95244904903
 20
4088.38557754942
  0
LWPOLYLINE
  5
2015B
100
AcDbEntity
  8
0
100
AcDbPolyline
 70
0
 90
2
 38
0
 10
2549.51363196284
 20
4051.71587750078
 10
2650.98028427546
 20
4106.36091583416
  0
LWPOLYLINE
  5
2015C
100
AcDbEntity
  8
0
100
AcDbPolyline
 70
0
 90
2
 38
0
 10
2489.78505163916
 20
4150.2207511967
 10
2611.40114020226
 20
3999.94688334521
  0
LWPOLYLINE
  5
2015D
100
AcDbEntity
  8
0
100
AcDbPolyline
 70
0
 90
2
 38
0
 10
2526.48579673642
 20
3933.07859508269
 10
2609.24221228651
 20
4029.42644807994
  0
LWPOLYLINE
  5
2015E
100
AcDbEntity
  8
0
100
AcDbPolyline
 70
0
 90
2
 38
0
 10
1929.66364118875
 20
4492.50532287373
 10
2083.25777981975
 20
4260.49053217093
  0
LWPOLYLINE
  5
2015F
100
AcDbEntity
  8
0
100
AcDbPolyline
 70
0
 90
2
 38
0
 10
1747.68005729323
 20
4369.58841827853
 10
1955.14135837618
 20
4481.59557405398
  0
LWPOLYLINE
  5
20160
100
AcDbEntity
  8
0
100
AcDbPolyline
 70
0
 90
2
 38
0
 10
1781.89295871193
 20
4181.94010192267
 10
2055.59629874544
 20
4327.40388374778
  0
LWPOLYLINE
  5
20161
100
AcDbEntity
  8
0
100
AcDbPolyline
 70
0
 90
2
 38
0
 10
823.834820095377
 20
5738.16221982722
 10
1820.70849318556
 20
4333.37243517626
  0
LWPOLYLINE
  5
20162
100
AcDbEntity
  8
0
100
AcDbPolyline
 70
0
 90
2
 38
0
 10
3018.90846775311
 20
2580.37677923948
 10
3357.08650358912
 20
2804.99840102006
  0
LWPOLYLINE
  5
20163
100
AcDbEntity
  8
0
100
AcDbPolyline
 70
0
 90
2
 38
0
 10
3298.7543997357
 20
2758.36030787706
 10
3506.13604555371
 20
2982.72960494059
  0
LWPOLYLINE
  5
20164
100
AcDbEntity
  8
0
100
AcDbPolyline
 70
0
 90
2
 38
0
 10
3450.61645457664
 20
2951.43726144819
 10
3502.33987379987
 20
2904.4988456871
  0
LWPOLYLINE
  5
20165
100
AcDbEntity
  8
0
100
AcDbPolyline
 70
0
 90
2
 38
0
 10
3489.05314397761
 20
2904.97295552407
 10
3626.19132844894
 20
2977.04008794198
  0
LWPOLYLINE
  5
20166
100
AcDbEntity
  8
0
100
AcDbPolyline
 70
0
 90
2
 38
0
 10
3504.81266147518
 20
3223.95407373009
 10
3564.48873881325
 20
2978.57149454817
  0
LWPOLYLINE
  5
20167
100
AcDbEntity
  8
0
100
AcDbPolyline
 70
0
 90
2
 38
0
 10
3512.46342742274
 20
3095.52954677263
 10
3634.87593995142
 20
3133.75114579558
  0
LWPOLYLINE
  5
20168
100
AcDbEntity
  8
0
100
AcDbPolyline
 70
0
 90
2
 38
0
 10
3406.55036417418
 20
3362.20857081965
 10
3468.70888047169
 20
3264.47584159594
  0
LWPOLYLINE
  5
20169
100
AcDbEntity
  8
0
100
AcDbPolyline
 70
0
 90
2
 38
0
 10
3456.18087026505
 20
3292.399478517
 10
3481.71881146538
 20
3185.51934413103
  0
LWPOLYLINE
  5
2016A
100
AcDbEntity
  8
0
100
AcDbPolyline
 70
0
 90
2
 38
0
 10
3445.58015715527
 20
3272.17888297769
 10
3591.5804080731
 20
3333.32204129119
  0
LWPOLYLINE
  5
2016B
100
AcDbEntity
  8
0
100
AcDbPolyline
 70
0
 90
2
 38
0
 10
3484.60995013635
 20
3315.9901235741
 10
3524.12153522071
 20
3274.10466819251
  0
LWPOLYLINE
  5
2016C
100
AcDbEntity
  8
0
100
AcDbPolyline
 70
0
 90
2
 38
0
 10
3513.03903000767
 20
3291.43658590959
 10
3532.79482254984
 20
3206.702782539
  0
LWPOLYLINE
  5
2016D
100
AcDbEntity
  8
0
100
AcDbPolyline
 70
0
 90
2
 38
0
 10
3187.79088384906
 20
3196.11106333502
 10
3289.94290601797
 20
3225.9604854709
  0
LWPOLYLINE
  5
2016E
100
AcDbEntity
  8
0
100
AcDbPolyline
 70
0
 90
2
 38
0
 10
3260.53917513433
 20
3214.81015028087
 10
3475.32991874556
 20
3326.87311294229
  0
LWPOLYLINE
  5
2016F
100
AcDbEntity
  8
0
100
AcDbPolyline
 70
0
 90
2
 38
0
 10
3355.76260477543
 20
3343.2466642789
 10
3404.31795781534
 20
3282.30062066158
  0
LWPOLYLINE
  5
20170
100
AcDbEntity
  8
0
100
AcDbPolyline
 70
0
 90
2
 38
0
 10
3307.51081679205
 20
3292.00350826814
 10
3429.20244273885
 20
3344.459494143
  0
LWPOLYLINE
  5
20171
100
AcDbEntity
  8
0
100
AcDbPolyline
 70
0
 90
2
 38
0
 10
3313.88375272213
 20
3308.37705960475
 10
3346.96204917971
 20
3251.06960505724
  0
LWPOLYLINE
  5
20172
100
AcDbEntity
  8
0
100
AcDbPolyline
 70
0
 90
2
 38
0
 10
3141.16591631692
 20
3284.31727858644
 10
3249.13933569942
 20
3086.33354684425
  0
LWPOLYLINE
  5
20173
100
AcDbEntity
  8
0
100
AcDbPolyline
 70
0
 90
2
 38
0
 10
3122.82886254038
 20
3163.48144360713
 10
3192.97246526738
 20
3203.0112216924
  0
LWPOLYLINE
  5
20174
100
AcDbEntity
  8
0
100
AcDbPolyline
 70
0
 90
2
 38
0
 10
3102.56953033472
 20
3196.51842375935
 10
3132.00298717344
 20
3163.48144360713
  0
LWPOLYLINE
  5
20175
100
AcDbEntity
  8
0
100
AcDbPolyline
 70
0
 90
2
 38
0
 10
3079.82544286142
 20
3204.72994445953
 10
3104.67183738362
 20
3185.44244801186
  0
LWPOLYLINE
  5
20176
100
AcDbEntity
  8
0
100
AcDbPolyline
 70
0
 90
2
 38
0
 10
3098.74697840428
 20
3185.44244801186
 10
3129.70945601517
 20
3206.44861748791
  0
LWPOLYLINE
  5
20177
100
AcDbEntity
  8
0
100
AcDbPolyline
 70
0
 90
2
 38
0
 10
2973.91791301574
 20
3167.17240758863
 10
3092.56938446478
 20
3205.05991137712
  0
LWPOLYLINE
  5
20178
100
AcDbEntity
  8
0
100
AcDbPolyline
 70
0
 90
2
 38
0
 10
3095.47442098487
 20
3141.48810900998
 10
3148.2650148642
 20
3067.22794503295
  0
LWPOLYLINE
  5
20179
100
AcDbEntity
  8
0
100
AcDbPolyline
 70
0
 90
2
 38
0
 10
3147.68503703048
 20
3064.13722837755
 10
3248.52203956711
 20
2886.54086622874
  0
LWPOLYLINE
  5
2017A
100
AcDbEntity
  8
0
100
AcDbPolyline
 70
0
 90
2
 38
0
 10
3346.90787330485
 20
3167.44015132052
 10
3393.71145393509
 20
3078.83632444125
  0
LWPOLYLINE
  5
2017B
100
AcDbEntity
  8
0
100
AcDbPolyline
 70
0
 90
2
 38
0
 10
3383.58275296066
 20
3087.37522564363
 10
3424.41411897748
 20
3081.36638582154
  0
LWPOLYLINE
  5
2017C
100
AcDbEntity
  8
0
100
AcDbPolyline
 70
0
 90
2
 38
0
 10
3405.10627470225
 20
3091.17029284468
 10
3474.51522168204
 20
2940.69672388162
  0
LWPOLYLINE
  5
2017D
100
AcDbEntity
  8
0
100
AcDbPolyline
 70
0
 90
2
 38
0
 10
3383.81747219047
 20
3629.54737948558
 10
3410.37536109659
 20
3526.64162052164
  0
LWPOLYLINE
  5
2017E
100
AcDbEntity
  8
0
100
AcDbPolyline
 70
0
 90
2
 38
0
 10
3388.02787705875
 20
3571.29881790646
 10
3495.55489237975
 20
3566.44481255716
  0
LWPOLYLINE
  5
2017F
100
AcDbEntity
  8
0
100
AcDbPolyline
 70
0
 90
2
 38
0
 10
3469.32090056868
 20
3559.97275568601
 10
3521.46498709575
 20
3591.36223897191
  0
LWPOLYLINE
  5
20180
100
AcDbEntity
  8
0
100
AcDbPolyline
 70
0
 90
2
 38
0
 10
3427.45221453466
 20
3493.54236744496
 10
3488.08183874378
 20
3540.65894743559
  0
LWPOLYLINE
  5
20181
100
AcDbEntity
  8
0
100
AcDbPolyline
 70
0
 90
2
 38
0
 10
3466.8355018821
 20
3543.24780002731
 10
3515.02835269047
 20
3486.81147007953
  0
LWPOLYLINE
  5
20182
100
AcDbEntity
  8
0
100
AcDbPolyline
 70
0
 90
2
 38
0
 10
3469.25552920424
 20
3460.74020396714
 10
3539.8062874373
 20
3510.76620284189
  0
LWPOLYLINE
  5
20183
100
AcDbEntity
  8
0
100
AcDbPolyline
 70
0
 90
2
 38
0
 10
3429.26588384647
 20
3517.58792317862
 10
3479.33417218503
 20
3460.74020396714
  0
LWPOLYLINE
  5
20184
100
AcDbEntity
  8
0
100
AcDbPolyline
 70
0
 90
2
 38
0
 10
3088.79611842523
 20
3607.53792953098
 10
3152.25935965197
 20
3708.88925284398
  0
LWPOLYLINE
  5
20185
100
AcDbEntity
  8
0
100
AcDbPolyline
 70
0
 90
2
 38
0
 10
3080.47310836776
 20
3736.95578921548
 10
3178.78906680847
 20
3682.9017467993
  0
LWPOLYLINE
  5
20186
100
AcDbEntity
  8
0
100
AcDbPolyline
 70
0
 90
2
 38
0
 10
3666.70896338994
 20
3694.12116912356
 10
3695.65149157643
 20
3633.62580838839
  0
LWPOLYLINE
  5
20187
100
AcDbEntity
  8
0
100
AcDbPolyline
 70
0
 90
2
 38
0
 10
3562.91493608276
 20
3621.6597078358
 10
3745.21984339759
 20
3662.2115179112
  0
LWPOLYLINE
  5
20188
100
AcDbEntity
  8
0
100
AcDbPolyline
 70
0
 90
2
 38
0
 10
3577.8852359069
 20
3630.63427081556
 10
3598.84370713421
 20
3528.25753327692
  0
LWPOLYLINE
  5
20189
100
AcDbEntity
  8
0
100
AcDbPolyline
 70
0
 90
2
 38
0
 10
3534.30505548894
 20
3562.4939138287
 10
3607.16054036984
 20
3582.43746448846
  0
LWPOLYLINE
  5
2018A
100
AcDbEntity
  8
0
100
AcDbPolyline
 70
0
 90
2
 38
0
 10
3912.63178984501
 20
3750.38982971964
 10
3950.71382672552
 20
3613.73154883737
  0
LWPOLYLINE
  5
2018B
100
AcDbEntity
  8
0
100
AcDbPolyline
 70
0
 90
2
 38
0
 10
3848.2676334166
 20
3599.2618479235
 10
4070.86021774283
 20
3656.06883109255
  0
LWPOLYLINE
  5
2018C
100
AcDbEntity
  8
0
100
AcDbPolyline
 70
0
 90
2
 38
0
 10
3838.07664948868
 20
3687.15187389318
 10
3910.49293660023
 20
3463.01256884456
  0
LWPOLYLINE
  5
2018D
100
AcDbEntity
  8
0
100
AcDbPolyline
 70
0
 90
2
 38
0
 10
3764.60090874831
 20
3421.74710707583
 10
3911.56564465922
 20
3476.94633464584
  0
LWPOLYLINE
  5
2018E
100
AcDbEntity
  8
0
100
AcDbPolyline
 70
0
 90
2
 38
0
 10
3825.89261104807
 20
3488.70288581288
 10
3875.69207895294
 20
3359.16485729015
  0
LWPOLYLINE
  5
2018F
100
AcDbEntity
  8
0
100
AcDbPolyline
 70
0
 90
2
 38
0
 10
3784.81262795231
 20
3397.78983763682
 10
3943.17334278449
 20
3459.4543078682
  0
LWPOLYLINE
  5
20190
100
AcDbEntity
  8
0
100
AcDbPolyline
 70
0
 90
2
 38
0
 10
3917.01939228972
 20
3416.97462355016
 10
3969.10557111207
 20
3274.40096197123
  0
LWPOLYLINE
  5
20191
100
AcDbEntity
  8
0
100
AcDbPolyline
 70
0
 90
2
 38
0
 10
3935.46659938901
 20
3318.85358384625
 10
4098.23563475581
 20
3352.46410161177
  0
LWPOLYLINE
  5
20192
100
AcDbEntity
  8
0
100
AcDbPolyline
 70
0
 90
2
 38
0
 10
4060.05837187197
 20
3349.48693853987
 10
4148.22272362397
 20
3341.66427544621
  0
LWPOLYLINE
  5
20193
100
AcDbEntity
  8
0
100
AcDbPolyline
 70
0
 90
2
 38
0
 10
3950.44860943788
 20
3296.08885085826
 10
4152.30753311488
 20
3328.73990799065
  0
LWPOLYLINE
  5
20194
100
AcDbEntity
  8
0
100
AcDbPolyline
 70
0
 90
2
 38
0
 10
4016.04182472802
 20
3314.77420990703
 10
4050.89904587457
 20
3190.15599110984
  0
LWPOLYLINE
  5
20195
100
AcDbEntity
  8
0
100
AcDbPolyline
 70
0
 90
2
 38
0
 10
3982.03957867069
 20
3239.11912247451
 10
4139.90885011546
 20
3270.87115156418
  0
LWPOLYLINE
  5
20196
100
AcDbEntity
  8
0
100
AcDbPolyline
 70
0
 90
2
 38
0
 10
4108.1300025518
 20
3326.52260391784
 10
4143.32604811285
 20
3220.34105038166
  0
LWPOLYLINE
  5
20197
100
AcDbEntity
  8
0
100
AcDbPolyline
 70
0
 90
2
 38
0
 10
3975.88875095916
 20
3270.52974473237
 10
4131.36617683142
 20
3296.47765872603
  0
LWPOLYLINE
  5
20198
100
AcDbEntity
  8
0
100
AcDbPolyline
 70
0
 90
2
 38
0
 10
3955.72799053529
 20
3205.65995974821
 10
4176.81343033334
 20
3234.68068444455
  0
LWPOLYLINE
  5
20199
100
AcDbEntity
  8
0
100
AcDbPolyline
 70
0
 90
2
 38
0
 10
3996.37122085367
 20
3222.32174718482
 10
4020.6326188744
 20
3117.50587071469
  0
LWPOLYLINE
  5
2019A
100
AcDbEntity
  8
0
100
AcDbPolyline
 70
0
 90
2
 38
0
 10
3845.56179940075
 20
3339.37077159683
 10
3956.78203944498
 20
3359.66935750797
  0
LWPOLYLINE
  5
2019B
100
AcDbEntity
  8
0
100
AcDbPolyline
 70
0
 90
2
 38
0
 10
3879.65103569895
 20
3287.42013149868
 10
3967.11200186424
 20
3310.81510428357
  0
LWPOLYLINE
  5
2019C
100
AcDbEntity
  8
0
100
AcDbPolyline
 70
0
 90
2
 38
0
 10
3890.17518195469
 20
3103.6576555764
 10
3911.8268727494
 20
3019.8977868174
  0
LWPOLYLINE
  5
2019D
100
AcDbEntity
  8
0
100
AcDbPolyline
 70
0
 90
2
 38
0
 10
3745.83096270804
 20
3009.91317888807
 10
4213.05799140118
 20
3070.72452994995
  0
LWPOLYLINE
  5
2019E
100
AcDbEntity
  8
0
100
AcDbPolyline
 70
0
 90
2
 38
0
 10
4105.58116275762
 20
3077.03200127236
 10
4141.11204353574
 20
2976.63108613864
  0
LWPOLYLINE
  5
2019F
100
AcDbEntity
  8
0
100
AcDbPolyline
 70
0
 90
2
 38
0
 10
4047.28830745962
 20
3145.26024664381
 10
4076.15722851921
 20
3035.42941020496
  0
LWPOLYLINE
  5
201A0
100
AcDbEntity
  8
0
100
AcDbPolyline
 70
0
 90
2
 38
0
 10
3702.0840081005
 20
2851.47310234451
 10
4241.94081030993
 20
2983.38874295564
  0
LWPOLYLINE
  5
201A1
100
AcDbEntity
  8
0
100
AcDbPolyline
 70
0
 90
2
 38
0
 10
4110.47307696854
 20
2981.15288632626
 10
4187.1159831057
 20
3010.21902250825
  0
LWPOLYLINE
  5
201A2
100
AcDbEntity
  8
0
100
AcDbPolyline
 70
0
 90
2
 38
0
 10
4114.94857044064
 20
2997.92181104663
 10
4133.41006144046
 20
2938.67156062922
  0
LWPOLYLINE
  5
201A3
100
AcDbEntity
  8
0
100
AcDbPolyline
 70
0
 90
2
 38
0
 10
4141.77425031018
 20
3167.09844605616
 10
4159.43918866059
 20
3098.06204535204
  0
LWPOLYLINE
  5
201A4
100
AcDbEntity
  8
0
100
AcDbPolyline
 70
0
 90
2
 38
0
 10
4056.35613928357
 20
3089.79556332476
 10
4171.73762698896
 20
3115.26528890334
  0
LWPOLYLINE
  5
201A5
100
AcDbEntity
  8
0
100
AcDbPolyline
 70
0
 90
2
 38
0
 10
4097.4999495383
 20
3154.58700976578
 10
4114.71771172449
 20
3093.37028782987
  0
LWPOLYLINE
  5
201A6
100
AcDbEntity
  8
0
100
AcDbPolyline
 70
0
 90
2
 38
0
 10
4197.61838180124
 20
2991.30018973153
 10
4229.46594650784
 20
2862.57096314532
  0
LWPOLYLINE
  5
201A7
100
AcDbEntity
  8
0
100
AcDbPolyline
 70
0
 90
2
 38
0
 10
4174.09447057106
 20
2887.88286764619
 10
4257.33267822442
 20
2906.68600807284
  0
LWPOLYLINE
  5
201A8
100
AcDbEntity
  8
0
100
AcDbPolyline
 70
0
 90
2
 38
0
 10
4159.25645768124
 20
2909.94041497933
 10
4188.20876583564
 20
2882.82050664153
  0
LWPOLYLINE
  5
201A9
100
AcDbEntity
  8
0
100
AcDbPolyline
 70
0
 90
2
 38
0
 10
4161.06600911185
 20
2932.72116384725
 10
4245.75165201564
 20
2954.05550964562
  0
LWPOLYLINE
  5
201AA
100
AcDbEntity
  8
0
100
AcDbPolyline
 70
0
 90
2
 38
0
 10
4010.56195428848
 20
2769.37241905985
 10
4286.08321019882
 20
2789.11885502344
  0
LWPOLYLINE
  5
201AB
100
AcDbEntity
  8
0
100
AcDbPolyline
 70
0
 90
2
 38
0
 10
4022.18737640424
 20
2790.86115396165
 10
4084.38308231655
 20
2607.33548426408
  0
LWPOLYLINE
  5
201AC
100
AcDbEntity
  8
0
100
AcDbPolyline
 70
0
 90
2
 38
0
 10
4072.75766020079
 20
2622.43567366865
 10
4107.7065042046
 20
2414.65136740007
  0
LWPOLYLINE
  5
201AD
100
AcDbEntity
  8
0
100
AcDbPolyline
 70
0
 90
2
 38
0
 10
4106.24208269414
 20
2448.30272068555
 10
4101.48322752028
 20
2399.13093523296
  0
LWPOLYLINE
  5
201AE
100
AcDbEntity
  8
0
100
AcDbPolyline
 70
0
 90
2
 38
0
 10
4097.8223024279
 20
2418.88284245988
 10
4110.26924184794
 20
2387.06033355075
  0
LWPOLYLINE
  5
201AF
100
AcDbEntity
  8
0
100
AcDbPolyline
 70
0
 90
2
 38
0
 10
4108.80482033745
 20
2403.15450228621
 10
4102.94752034696
 20
2342.80149387515
  0
LWPOLYLINE
  5
201B0
100
AcDbEntity
  8
0
100
AcDbPolyline
 70
0
 90
2
 38
0
 10
4096.72411497883
 20
2359.26139169487
 10
4123.08215796179
 20
2319.75762697979
  0
LWPOLYLINE
  5
201B1
100
AcDbEntity
  8
0
100
AcDbPolyline
 70
0
 90
2
 38
0
 10
4119.05525617558
 20
2331.09667101596
 10
4076.59063551811
 20
2201.45120677692
  0
LWPOLYLINE
  5
201B2
100
AcDbEntity
  8
0
100
AcDbPolyline
 70
0
 90
2
 38
0
 10
4081.37072351703
 20
2229.41030743212
 10
4074.75740627045
 20
2147.78850890515
  0
LWPOLYLINE
  5
201B3
100
AcDbEntity
  8
0
100
AcDbPolyline
 70
0
 90
2
 38
0
 10
4079.16727101055
 20
2170.1864185562
 10
4050.13556495879
 20
2062.603077616
  0
LWPOLYLINE
  5
201B4
100
AcDbEntity
  8
0
100
AcDbPolyline
 70
0
 90
2
 38
0
 10
4054.17790879958
 20
2088.30558057992
 10
4045.7257002187
 20
1991.37036259475
  0
LWPOLYLINE
  5
201B5
100
AcDbEntity
  8
0
100
AcDbPolyline
 70
0
 90
2
 38
0
 10
3918.94192808642
 20
1985.86269049373
 10
4001.62705281781
 20
2005.32317834016
  0
LWPOLYLINE
  5
201B6
100
AcDbEntity
  8
0
100
AcDbPolyline
 70
0
 90
2
 38
0
 10
3977.37273240543
 20
2004.22161407671
 10
4079.53466322605
 20
1989.16733354535
  0
LWPOLYLINE
  5
201B7
100
AcDbEntity
  8
0
100
AcDbPolyline
 70
0
 90
2
 38
0
 10
4066.67258990506
 20
1981.45653291742
 10
4081.73965993797
 20
2044.97849704949
  0
LWPOLYLINE
  5
201B8
100
AcDbEntity
  8
0
100
AcDbPolyline
 70
0
 90
2
 38
0
 10
4072.18488865922
 20
2032.861588584
 10
4110.40384509045
 20
2052.68924793867
  0
LWPOLYLINE
  5
201B9
100
AcDbEntity
  8
0
100
AcDbPolyline
 70
0
 90
2
 38
0
 10
4092.39686523081
 20
2049.38460488706
 10
4350.51415351333
 20
2021.09931745984
  0
LWPOLYLINE
  5
201BA
100
AcDbEntity
  8
0
100
AcDbPolyline
 70
0
 90
2
 38
0
 10
4377.36170962683
 20
2151.32632725216
 10
4339.15008817153
 20
2053.01468862932
  0
LWPOLYLINE
  5
201BB
100
AcDbEntity
  8
0
100
AcDbPolyline
 70
0
 90
2
 38
0
 10
4342.74409769403
 20
2074.62662643356
 10
4323.94275280941
 20
1913.44693912417
  0
LWPOLYLINE
  5
201BC
100
AcDbEntity
  8
0
100
AcDbPolyline
 70
0
 90
2
 38
0
 10
4311.811474722
 20
2515.39373910438
 10
4360.11859673433
 20
2380.85602041149
  0
LWPOLYLINE
  5
201BD
100
AcDbEntity
  8
0
100
AcDbPolyline
 70
0
 90
2
 38
0
 10
4349.46821168228
 20
2386.17672452288
 10
4370.37044809412
 20
2383.48297289149
  0
LWPOLYLINE
  5
201BE
100
AcDbEntity
  8
0
100
AcDbPolyline
 70
0
 90
2
 38
0
 10
4225.01142849322
 20
2944.51178606322
 10
4293.63836409172
 20
2960.00754780659
  0
LWPOLYLINE
  5
201BF
100
AcDbEntity
  8
0
100
AcDbPolyline
 70
0
 90
2
 38
0
 10
4268.43641626253
 20
2960.39496298914
 10
4366.91786205495
 20
2946.44876249848
  0
LWPOLYLINE
  5
201C0
100
AcDbEntity
  8
0
100
AcDbPolyline
 70
0
 90
2
 38
0
 10
4266.11007073827
 20
2963.49413523332
 10
4282.78208497845
 20
2900.73615841721
  0
LWPOLYLINE
  5
201C1
100
AcDbEntity
  8
0
100
AcDbPolyline
 70
0
 90
2
 38
0
 10
4267.27324350041
 20
2910.03362541099
 10
4367.69331056305
 20
2906.54708772301
  0
LWPOLYLINE
  5
201C2
100
AcDbEntity
  8
0
100
AcDbPolyline
 70
0
 90
2
 38
0
 10
4301.23907204563
 20
2963.55357304859
 10
4309.99626120471
 20
2902.06179578343
  0
LWPOLYLINE
  5
201C3
100
AcDbEntity
  8
0
100
AcDbPolyline
 70
0
 90
2
 38
0
 10
4296.61726510627
 20
2913.72822032179
 10
4306.83398579186
 20
2869.73612960293
  0
LWPOLYLINE
  5
201C4
100
AcDbEntity
  8
0
100
AcDbPolyline
 70
0
 90
2
 38
0
 10
4280.56241831463
 20
2889.18015392061
 10
4368.62099199265
 20
2888.20796016554
  0
LWPOLYLINE
  5
201C5
100
AcDbEntity
  8
0
100
AcDbPolyline
 70
0
 90
2
 38
0
 10
4247.7228302843
 20
2871.19442023554
 10
4312.42889953809
 20
2878.72899644547
  0
LWPOLYLINE
  5
201C6
100
AcDbEntity
  8
0
100
AcDbPolyline
 70
0
 90
2
 38
0
 10
4350.75003089721
 20
2898.77998282153
 10
4397.90903615064
 20
2898.93248185218
  0
LWPOLYLINE
  5
201C7
100
AcDbEntity
  8
0
100
AcDbPolyline
 70
0
 90
2
 38
0
 10
4385.24166140132
 20
2906.40443696635
 10
4389.66761161495
 20
2875.60162232576
  0
LWPOLYLINE
  5
201C8
100
AcDbEntity
  8
0
100
AcDbPolyline
 70
0
 90
2
 38
0
 10
4381.43223521727
 20
2880.89989425749
 10
4420.96029182651
 20
2890.65923535387
  0
LWPOLYLINE
  5
201C9
100
AcDbEntity
  8
0
100
AcDbPolyline
 70
0
 90
2
 38
0
 10
4236.41113924436
 20
3019.99308627686
 10
4356.49125811071
 20
3016.30520609833
  0
LWPOLYLINE
  5
201CA
100
AcDbEntity
  8
0
100
AcDbPolyline
 70
0
 90
2
 38
0
 10
4236.6571826475
 20
3072.36078585706
 10
4259.78732148561
 20
2969.83806506502
  0
LWPOLYLINE
  5
201CB
100
AcDbEntity
  8
0
100
AcDbPolyline
 70
0
 90
2
 38
0
 10
4198.02489388839
 20
3054.41315206028
 10
4287.83884312212
 20
3078.99892043968
  0
LWPOLYLINE
  5
201CC
100
AcDbEntity
  8
0
100
AcDbPolyline
 70
0
 90
2
 38
0
 10
4281.19515650155
 20
3080.71993118966
 10
4300.14217143448
 20
3013.35490195549
  0
LWPOLYLINE
  5
201CD
100
AcDbEntity
  8
0
100
AcDbPolyline
 70
0
 90
2
 38
0
 10
4278.48842169915
 20
3067.19775360711
 10
4355.26091241109
 20
3057.3634562031
  0
LWPOLYLINE
  5
201CE
100
AcDbEntity
  8
0
100
AcDbPolyline
 70
0
 90
2
 38
0
 10
4236.41113924436
 20
3036.71137694205
 10
4299.40391254119
 20
3048.02087615623
  0
LWPOLYLINE
  5
201CF
100
AcDbEntity
  8
0
100
AcDbPolyline
 70
0
 90
2
 38
0
 10
4282.17933011419
 20
3034.25283989511
 10
4359.69007971941
 20
3036.95723562062
  0
LWPOLYLINE
  5
201D0
100
AcDbEntity
  8
0
100
AcDbPolyline
 70
0
 90
2
 38
0
 10
4338.31583117222
 20
2996.97960976237
 10
4391.6265649237
 20
3002.67783104356
  0
LWPOLYLINE
  5
201D1
100
AcDbEntity
  8
0
100
AcDbPolyline
 70
0
 90
2
 38
0
 10
4384.18786985919
 20
3047.76785509657
 10
4389.64290432757
 20
2997.22735851372
  0
LWPOLYLINE
  5
201D2
100
AcDbEntity
  8
0
100
AcDbPolyline
 70
0
 90
2
 38
0
 10
4362.86355062184
 20
3004.6598210544
 10
4362.61557696186
 20
2956.84456073647
  0
LWPOLYLINE
  5
201D3
100
AcDbEntity
  8
0
100
AcDbPolyline
 70
0
 90
2
 38
0
 10
4296.58226311588
 20
2996.72837929798
 10
4327.62130758079
 20
2994.37891934635
  0
LWPOLYLINE
  5
201D4
100
AcDbEntity
  8
0
100
AcDbPolyline
 70
0
 90
2
 38
0
 10
4317.90207842062
 20
3020.22297881426
 10
4318.21555212885
 20
2990.46313618073
  0
LWPOLYLINE
  5
201D5
100
AcDbEntity
  8
0
100
AcDbPolyline
 70
0
 90
2
 38
0
 10
4188.02693564285
 20
3099.9703225242
 10
4239.41616306794
 20
3119.89556932118
  0
LWPOLYLINE
  5
201D6
100
AcDbEntity
  8
0
100
AcDbPolyline
 70
0
 90
2
 38
0
 10
4213.84939669902
 20
3117.85195298972
 10
4340.14944647121
 20
3105.59025500101
  0
LWPOLYLINE
  5
201D7
100
AcDbEntity
  8
0
100
AcDbPolyline
 70
0
 90
2
 38
0
 10
4286.97048491891
 20
3103.29118041078
 10
4289.2714797369
 20
3181.71502552107
  0
LWPOLYLINE
  5
201D8
100
AcDbEntity
  8
0
100
AcDbPolyline
 70
0
 90
2
 38
0
 10
4324.29804874881
 20
3176.09504330551
 10
4311.00334053169
 20
3098.94848948909
  0
LWPOLYLINE
  5
201D9
100
AcDbEntity
  8
0
100
AcDbPolyline
 70
0
 90
2
 38
0
 10
4310.49195115714
 20
3105.07933848345
 10
4316.8836749203
 20
3080.04502598847
  0
LWPOLYLINE
  5
201DA
100
AcDbEntity
  8
0
100
AcDbPolyline
 70
0
 90
2
 38
0
 10
4300.00962713256
 20
3079.27865121214
 10
4323.27539868347
 20
3090.00764938695
  0
LWPOLYLINE
  5
201DB
100
AcDbEntity
  8
0
100
AcDbPolyline
 70
0
 90
2
 38
0
 10
4308.19095633915
 20
3087.19770801793
 10
4309.98069046636
 20
3059.35340441516
  0
LWPOLYLINE
  5
201DC
100
AcDbEntity
  8
0
100
AcDbPolyline
 70
0
 90
2
 38
0
 10
4297.50119404789
 20
3168.65293144586
 10
4310.63581963241
 20
3316.00166296585
  0
LWPOLYLINE
  5
201DD
100
AcDbEntity
  8
0
100
AcDbPolyline
 70
0
 90
2
 38
0
 10
4239.20319139835
 20
3337.86139926022
 10
4407.66378203637
 20
3314.64195455071
  0
LWPOLYLINE
  5
201DE
100
AcDbEntity
  8
0
100
AcDbPolyline
 70
0
 90
2
 38
0
 10
4301.75226299325
 20
3304.64302185921
 10
4414.75232851298
 20
3300.47680404931
  0
LWPOLYLINE
  5
201DF
100
AcDbEntity
  8
0
100
AcDbPolyline
 70
0
 90
2
 38
0
 10
4255.23937904069
 20
3275.97255749354
 10
4281.66189260158
 20
3220.5583590134
  0
LWPOLYLINE
  5
201E0
100
AcDbEntity
  8
0
100
AcDbPolyline
 70
0
 90
2
 38
0
 10
4156.61277793511
 20
3221.08111335525
 10
4271.19745562356
 20
3255.3229154316
  0
LWPOLYLINE
  5
201E1
100
AcDbEntity
  8
0
100
AcDbPolyline
 70
0
 90
2
 38
0
 10
4265.18045905183
 20
3231.27522093138
 10
4314.36288819194
 20
3220.5583590134
  0
LWPOLYLINE
  5
201E2
100
AcDbEntity
  8
0
100
AcDbPolyline
 70
0
 90
2
 38
0
 10
4209.66833173449
 20
3251.25120126105
 10
4245.94249007365
 20
3166.96425088829
  0
LWPOLYLINE
  5
201E3
100
AcDbEntity
  8
0
100
AcDbPolyline
 70
0
 90
2
 38
0
 10
4238.34988919835
 20
3465.75217961041
 10
4280.58957059396
 20
3404.79091593328
  0
LWPOLYLINE
  5
201E4
100
AcDbEntity
  8
0
100
AcDbPolyline
 70
0
 90
2
 38
0
 10
4237.92317375648
 20
3409.05392536536
 10
4305.33597781268
 20
3411.18543008141
  0
LWPOLYLINE
  5
201E5
100
AcDbEntity
  8
0
100
AcDbPolyline
 70
0
 90
2
 38
0
 10
4291.25604111954
 20
3418.00630485926
 10
4311.00732972912
 20
3310.80510679331
  0
LWPOLYLINE
  5
201E6
100
AcDbEntity
  8
0
100
AcDbPolyline
 70
0
 90
2
 38
0
 10
4238.73529714422
 20
3355.68020967495
 10
4246.01249405445
 20
3330.14701744174
  0
LWPOLYLINE
  5
201E7
100
AcDbEntity
  8
0
100
AcDbPolyline
 70
0
 90
2
 38
0
 10
4124.80446178393
 20
3362.79857196171
 10
4174.39095801921
 20
3368.04048988114
  0
LWPOLYLINE
  5
201E8
100
AcDbEntity
  8
0
100
AcDbPolyline
 70
0
 90
2
 38
0
 10
4155.43635074279
 20
3373.78969338881
 10
4176.76028392877
 20
3343.01458323617
  0
LWPOLYLINE
  5
201E9
100
AcDbEntity
  8
0
100
AcDbPolyline
 70
0
 90
2
 38
0
 10
4157.29801910763
 20
3352.82202171111
 10
4248.5166805741
 20
3344.02915441267
  0
LWPOLYLINE
  5
201EA
100
AcDbEntity
  8
0
100
AcDbPolyline
 70
0
 90
2
 38
0
 10
4140.18809393598
 20
3444.03335321618
 10
4151.87618505661
 20
3387.27148310023
  0
LWPOLYLINE
  5
201EB
100
AcDbEntity
  8
0
100
AcDbPolyline
 70
0
 90
2
 38
0
 10
4142.63450143472
 20
3400.0361394053
 10
4164.65165418808
 20
3385.09879469294
  0
LWPOLYLINE
  5
201EC
100
AcDbEntity
  8
0
100
AcDbPolyline
 70
0
 90
2
 38
0
 10
4157.04078021488
 20
3396.23390982315
 10
4167.91353085305
 20
3360.11267905402
  0
LWPOLYLINE
  5
201ED
100
AcDbEntity
  8
0
100
AcDbPolyline
 70
0
 90
2
 38
0
 10
4173.62168633298
 20
3453.5389769103
 10
4186.39702678064
 20
3409.81328697688
  0
LWPOLYLINE
  5
201EE
100
AcDbEntity
  8
0
100
AcDbPolyline
 70
0
 90
2
 38
0
 10
4131.76175079655
 20
3416.87459890873
 10
4201.61890341085
 20
3414.70186076267
  0
LWPOLYLINE
  5
201EF
100
AcDbEntity
  8
0
100
AcDbPolyline
 70
0
 90
2
 38
0
 10
4192.64887126599
 20
3420.40520513589
 10
4197.26977741884
 20
3401.93725419637
  0
LWPOLYLINE
  5
201F0
100
AcDbEntity
  8
0
100
AcDbPolyline
 70
0
 90
2
 38
0
 10
4186.66893562526
 20
3406.55425436594
 10
4241.84790061478
 20
3417.68931975739
  0
LWPOLYLINE
  5
201F1
100
AcDbEntity
  8
0
100
AcDbPolyline
 70
0
 90
2
 38
0
 10
4218.19968084514
 20
3464.67404230175
 10
4236.95521430112
 20
3366.63079401466
  0
LWPOLYLINE
  5
201F2
100
AcDbEntity
  8
0
100
AcDbPolyline
 70
0
 90
2
 38
0
 10
4224.99521433591
 20
3387.27148310023
 10
4282.89236698498
 20
3392.70325385722
  0
LWPOLYLINE
  5
201F3
100
AcDbEntity
  8
0
100
AcDbPolyline
 70
0
 90
2
 38
0
 10
4263.86505336818
 20
3397.04863067182
 10
4267.12693003315
 20
3351.96507265728
  0
LWPOLYLINE
  5
201F4
100
AcDbEntity
  8
0
100
AcDbPolyline
 70
0
 90
2
 38
0
 10
4328.75089387418
 20
3466.21057199999
 10
4339.26899199191
 20
3356.30259074818
  0
LWPOLYLINE
  5
201F5
100
AcDbEntity
  8
0
100
AcDbPolyline
 70
0
 90
2
 38
0
 10
4291.06134254788
 20
3362.87079263767
 10
4408.51258030377
 20
3372.94204548265
  0
LWPOLYLINE
  5
201F6
100
AcDbEntity
  8
0
100
AcDbPolyline
 70
0
 90
2
 38
0
 10
4080.70697253715
 20
3526.75606940277
 10
4383.81996290854
 20
3668.73396014376
  0
LWPOLYLINE
  5
201F7
100
AcDbEntity
  8
0
100
AcDbPolyline
 70
0
 90
2
 38
0
 10
4287.91476655722
 20
3703.89876434396
 10
4341.1466171465
 20
3624.33838862365
  0
LWPOLYLINE
  5
201F8
100
AcDbEntity
  8
0
100
AcDbPolyline
 70
0
 90
2
 38
0
 10
4337.62711553741
 20
3637.52517776404
 10
4323.5492377849
 20
3564.11868008283
  0
LWPOLYLINE
  5
201F9
100
AcDbEntity
  8
0
100
AcDbPolyline
 70
0
 90
2
 38
0
 10
4240.40213825362
 20
3613.34940596312
 10
4272.07726668395
 20
3505.21764548217
  0
LWPOLYLINE
  5
201FA
100
AcDbEntity
  8
0
100
AcDbPolyline
 70
0
 90
2
 38
0
 10
4226.32438918491
 20
3563.23954754313
 10
4257.55954774315
 20
3457.74518468127
  0
LWPOLYLINE
  5
201FB
100
AcDbEntity
  8
0
100
AcDbPolyline
 70
0
 90
2
 38
0
 10
4228.96395104981
 20
3518.84402576178
 10
4277.35651909755
 20
3539.50331714268
  0
LWPOLYLINE
  5
201FC
100
AcDbEntity
  8
0
100
AcDbPolyline
 70
0
 90
2
 38
0
 10
4155.93525778991
 20
3530.27254982278
 10
4188.93016715266
 20
3439.28365004147
  0
LWPOLYLINE
  5
201FD
100
AcDbEntity
  8
0
100
AcDbPolyline
 70
0
 90
2
 38
0
 10
4121.62069617846
 20
3505.65718688264
 10
4239.08235732117
 20
3559.72306712311
  0
LWPOLYLINE
  5
201FE
100
AcDbEntity
  8
0
100
AcDbPolyline
 70
0
 90
2
 38
0
 10
4197.28895130329
 20
3553.12969742229
 10
4223.24485744792
 20
3481.04182394249
  0
LWPOLYLINE
  5
201FF
100
AcDbEntity
  8
0
100
AcDbPolyline
 70
0
 90
2
 38
0
 10
4166.93360380543
 20
3465.65722832225
 10
4225.44457812453
 20
3493.78907168241
  0
LWPOLYLINE
  5
20200
100
AcDbEntity
  8
0
100
AcDbPolyline
 70
0
 90
2
 38
0
 10
4283.06840640731
 20
3758.06272941432
 10
4316.94325551426
 20
3699.16169481366
  0
LWPOLYLINE
  5
20201
100
AcDbEntity
  8
0
100
AcDbPolyline
 70
0
 90
2
 38
0
 10
4283.50837627941
 20
3679.82102763417
 10
4320.46262843956
 20
3711.90894255359
  0
LWPOLYLINE
  5
20202
100
AcDbEntity
  8
0
100
AcDbPolyline
 70
0
 90
2
 38
0
 10
4190.24287047676
 20
3698.72210367444
 10
4291.42719055794
 20
3758.94186195402
  0
LWPOLYLINE
  5
20203
100
AcDbEntity
  8
0
100
AcDbPolyline
 70
0
 90
2
 38
0
 10
4023.0354025689
 20
3911.17762535832
 10
4202.96738082811
 20
3695.79323693612
  0
LWPOLYLINE
  5
20204
100
AcDbEntity
  8
0
100
AcDbPolyline
 70
0
 90
2
 38
0
 10
4122.02000197343
 20
3654.03501329634
 10
4184.05034921784
 20
3728.76023465646
  0
LWPOLYLINE
  5
20205
100
AcDbEntity
  8
0
100
AcDbPolyline
 70
0
 90
2
 38
0
 10
4052.95078019469
 20
3642.1668980961
 10
4142.25681451615
 20
3666.78226103625
  0
LWPOLYLINE
  5
20206
100
AcDbEntity
  8
0
100
AcDbPolyline
 70
0
 90
2
 38
0
 10
4180.97081748085
 20
3714.25477157591
 10
4236.40226006295
 20
3767.00192813746
  0
LWPOLYLINE
  5
20207
100
AcDbEntity
  8
0
100
AcDbPolyline
 70
0
 90
2
 38
0
 10
4173.93194294648
 20
3799.08984305688
 10
4244.76091552977
 20
3749.41957577612
  0
LWPOLYLINE
  5
20208
100
AcDbEntity
  8
0
100
AcDbPolyline
 70
0
 90
2
 38
0
 10
4133.01834798895
 20
3754.69427153677
 10
4185.37013015029
 20
3798.65025191765
  0
LWPOLYLINE
  5
20209
100
AcDbEntity
  8
0
100
AcDbPolyline
 70
0
 90
2
 38
0
 10
4193.88771009562
 20
3775.85418351241
 10
4213.2826732955
 20
3803.53783092829
  0
LWPOLYLINE
  5
2020A
100
AcDbEntity
  8
0
100
AcDbPolyline
 70
0
 90
2
 38
0
 10
4197.21264181685
 20
3802.70729315472
 10
4247.36238699337
 20
3775.57733758788
  0
LWPOLYLINE
  5
2020B
100
AcDbEntity
  8
0
100
AcDbPolyline
 70
0
 90
2
 38
0
 10
4228.52153618576
 20
3774.19315770403
 10
4283.93573514023
 20
3814.05762788886
  0
LWPOLYLINE
  5
2020C
100
AcDbEntity
  8
0
100
AcDbPolyline
 70
0
 90
2
 38
0
 10
4088.86320840503
 20
3803.03154011519
 10
4182.79014887934
 20
3910.44412790072
  0
LWPOLYLINE
  5
2020D
100
AcDbEntity
  8
0
100
AcDbPolyline
 70
0
 90
2
 38
0
 10
4120.72634384999
 20
3875.28588921652
 10
4160.34743883819
 20
3830.16149568203
  0
LWPOLYLINE
  5
2020E
100
AcDbEntity
  8
0
100
AcDbPolyline
 70
0
 90
2
 38
0
 10
4076.1179799638
 20
3881.65309678675
 10
4166.72011740069
 20
3766.48912154712
  0
LWPOLYLINE
  5
2020F
100
AcDbEntity
  8
0
100
AcDbPolyline
 70
0
 90
2
 38
0
 10
4095.78999935981
 20
3765.93542969808
 10
4204.12463413598
 20
3857.0146550631
  0
LWPOLYLINE
  5
20210
100
AcDbEntity
  8
0
100
AcDbPolyline
 70
0
 90
2
 38
0
 10
4178.07993617744
 20
3850.92424367863
 10
4214.09917193206
 20
3797.21797465524
  0
LWPOLYLINE
  5
20211
100
AcDbEntity
  8
0
100
AcDbPolyline
 70
0
 90
2
 38
0
 10
4161.45579230651
 20
3799.43264257391
 10
4225.45911939259
 20
3835.97506114198
  0
LWPOLYLINE
  5
20212
100
AcDbEntity
  8
0
100
AcDbPolyline
 70
0
 90
2
 38
0
 10
4205.50991511665
 20
3835.14457310717
 10
4236.54188197321
 20
3796.11064069591
  0
LWPOLYLINE
  5
20213
100
AcDbEntity
  8
0
100
AcDbPolyline
 70
0
 90
2
 38
0
 10
4214.65328432433
 20
3806.63038791771
 10
4274.77769598071
 20
3845.3875241432
  0
LWPOLYLINE
  5
20214
100
AcDbEntity
  8
0
100
AcDbPolyline
 70
0
 90
2
 38
0
 10
4018.61061050938
 20
3891.05178215213
 10
4103.48747752252
 20
3955.32514969452
  0
LWPOLYLINE
  5
20215
100
AcDbEntity
  8
0
100
AcDbPolyline
 70
0
 90
2
 38
0
 10
4059.70886670306
 20
3935.68604996973
 10
4124.03660561936
 20
3883.46393573287
  0
LWPOLYLINE
  5
20216
100
AcDbEntity
  8
0
100
AcDbPolyline
 70
0
 90
2
 38
0
 10
4106.16770346454
 20
3879.89319032836
 10
4137.43812138075
 20
3917.3860170757
  0
LWPOLYLINE
  5
20217
100
AcDbEntity
  8
0
100
AcDbPolyline
 70
0
 90
2
 38
0
 10
3822.23631857208
 20
3679.21202628673
 10
4025.58244079005
 20
3732.48885087743
  0
LWPOLYLINE
  5
20218
100
AcDbEntity
  8
0
100
AcDbPolyline
 70
0
 90
2
 38
0
 10
3997.11398367954
 20
3735.19787230739
 10
4031.45685572439
 20
3634.06221624714
  0
LWPOLYLINE
  5
20219
100
AcDbEntity
  8
0
100
AcDbPolyline
 70
0
 90
2
 38
0
 10
4009.32478834811
 20
3538.20538426442
 10
4098.79708212402
 20
3552.20182090021
  0
LWPOLYLINE
  5
2021A
100
AcDbEntity
  8
0
100
AcDbPolyline
 70
0
 90
2
 38
0
 10
4008.42104210311
 20
3651.53146267382
 10
4042.31210536737
 20
3516.53346151856
  0
LWPOLYLINE
  5
2021B
100
AcDbEntity
  8
0
100
AcDbPolyline
 70
0
 90
2
 38
0
 10
4015.65114074684
 20
3516.98494022084
 10
4063.09852636978
 20
3535.9478912755
  0
LWPOLYLINE
  5
2021C
100
AcDbEntity
  8
0
100
AcDbPolyline
 70
0
 90
2
 38
0
 10
4023.78498563555
 20
3531.43290529766
 10
4051.34969650107
 20
3426.68527040289
  0
LWPOLYLINE
  5
2021D
100
AcDbEntity
  8
0
100
AcDbPolyline
 70
0
 90
2
 38
0
 10
3911.71864968346
 20
3398.69234739257
 10
4089.3075535259
 20
3465.51412991677
  0
LWPOLYLINE
  5
2021E
100
AcDbEntity
  8
0
100
AcDbPolyline
 70
0
 90
2
 38
0
 10
3949.65861966173
 20
3401.16451285907
 10
3983.54968292598
 20
3315.37977928021
  0
LWPOLYLINE
  5
2021F
100
AcDbEntity
  8
0
100
AcDbPolyline
 70
0
 90
2
 38
0
 10
3998.00975152967
 20
3444.50835835079
 10
4021.05573117023
 20
3401.61599156135
  0
LWPOLYLINE
  5
20220
100
AcDbEntity
  8
0
100
AcDbPolyline
 70
0
 90
2
 38
0
 10
4076.63696168188
 20
3467.0832385012
 10
4095.61589019428
 20
3413.80646364926
  0
LWPOLYLINE
  5
20221
100
AcDbEntity
  8
0
100
AcDbPolyline
 70
0
 90
2
 38
0
 10
3950.11055712611
 20
3483.78869656695
 10
3983.54968292598
 20
3413.35493520822
  0
LWPOLYLINE
  5
20222
100
AcDbEntity
  8
0
100
AcDbPolyline
 70
0
 90
2
 38
0
 10
3834.88104497467
 20
3398.45549142911
 10
3984.00149170659
 20
3441.34785821855
  0
LWPOLYLINE
  5
20223
100
AcDbEntity
  8
0
100
AcDbPolyline
 70
0
 90
2
 38
0
 10
3939.71728228303
 20
3471.59822447904
 10
4042.294089637
 20
3503.20312632388
  0
LWPOLYLINE
  5
20224
100
AcDbEntity
  8
0
100
AcDbPolyline
 70
0
 90
2
 38
0
 10
3897.54142804642
 20
2765.78545882038
 10
3950.19934894002
 20
2526.10214543357
  0
LWPOLYLINE
  5
20225
100
AcDbEntity
  8
0
100
AcDbPolyline
 70
0
 90
2
 38
0
 10
3927.52719570437
 20
2537.06327438988
 10
4043.81345912506
 20
2542.90921978099
  0
LWPOLYLINE
  5
20226
100
AcDbEntity
  8
0
100
AcDbPolyline
 70
0
 90
2
 38
0
 10
3815.62917814733
 20
2743.13243908186
 10
3865.3616017985
 20
2501.25693969479
  0
LWPOLYLINE
  5
20227
100
AcDbEntity
  8
0
100
AcDbPolyline
 70
0
 90
2
 38
0
 10
3783.18426329561
 20
2524.0633537616
 10
3890.22794230789
 20
2512.21806865109
  0
LWPOLYLINE
  5
20228
100
AcDbEntity
  8
0
100
AcDbPolyline
 70
0
 90
2
 38
0
 10
4199.42342929926
 20
2715.88495083093
 10
4242.75525000587
 20
2604.62094183203
  0
LWPOLYLINE
  5
20229
100
AcDbEntity
  8
0
100
AcDbPolyline
 70
0
 90
2
 38
0
 10
4070.61957905875
 20
2512.96201124776
 10
4280.15835121949
 20
2522.77581628366
  0
LWPOLYLINE
  5
2022A
100
AcDbEntity
  8
0
100
AcDbPolyline
 70
0
 90
2
 38
0
 10
4260.04636195139
 20
2533.99160767862
 10
4280.11858792891
 20
2458.62599981503
  0
LWPOLYLINE
  5
2022B
100
AcDbEntity
  8
0
100
AcDbPolyline
 70
0
 90
2
 38
0
 10
4257.66802817664
 20
2460.12144529954
 10
4340.7352150754
 20
2478.06674137472
  0
LWPOLYLINE
  5
2022C
100
AcDbEntity
  8
0
100
AcDbPolyline
 70
0
 90
2
 38
0
 10
4235.15750177906
 20
2365.0682921613
 10
4366.26633603495
 20
2352.20664527902
  0
LWPOLYLINE
  5
2022D
100
AcDbEntity
  8
0
100
AcDbPolyline
 70
0
 90
2
 38
0
 10
4329.5559396536
 20
2372.21366259341
 10
4376.27832081344
 20
2297.42562118249
  0
LWPOLYLINE
  5
2022E
100
AcDbEntity
  8
0
100
AcDbPolyline
 70
0
 90
2
 38
0
 10
4088.58074748979
 20
1899.00842441127
 10
4338.70921751295
 20
1848.97546211046
  0
LWPOLYLINE
  5
2022F
100
AcDbEntity
  8
0
100
AcDbPolyline
 70
0
 90
2
 38
0
 10
5791.56733145061
 20
4336.46359948048
 10
5903.86555558917
 20
4625.44786987323
  0
LWPOLYLINE
  5
20230
100
AcDbEntity
  8
0
100
AcDbPolyline
 70
0
 90
2
 38
0
 10
5862.7945803586
 20
4563.51978422685
 10
6575.3357611883
 20
5511.94473001064
  0
LWPOLYLINE
  5
20231
100
AcDbEntity
  8
0
100
AcDbPolyline
 70
0
 90
2
 38
0
 10
5162.84047559436
 20
3746.16278140926
 10
5137.10564819796
 20
3804.7886114644
  0
LWPOLYLINE
  5
20232
100
AcDbEntity
  8
0
100
AcDbPolyline
 70
0
 90
2
 38
0
 10
5141.22327205492
 20
3779.07551414513
 10
5188.57530299073
 20
3857.75755314586
  0
LWPOLYLINE
  5
20233
100
AcDbEntity
  8
0
100
AcDbPolyline
 70
0
 90
2
 38
0
 10
5169.53151784904
 20
3856.21475636419
 10
5256.51532452746
 20
3835.13004938996
  0
LWPOLYLINE
  5
20234
100
AcDbEntity
  8
0
100
AcDbPolyline
 70
0
 90
2
 38
0
 10
5227.69234358028
 20
3827.93036423461
 10
5381.96297288619
 20
3993.82439046211
  0
LWPOLYLINE
  5
20235
100
AcDbEntity
  8
0
100
AcDbPolyline
 70
0
 90
2
 38
0
 10
5345.30984079058
 20
3968.02236024434
 10
5463.5995821108
 20
3987.99809188023
  0
LWPOLYLINE
  5
20236
100
AcDbEntity
  8
0
100
AcDbPolyline
 70
0
 90
2
 38
0
 10
5410.28588863218
 20
3961.36378303238
 10
5646.03021348675
 20
4387.51361989567
  0
LWPOLYLINE
  5
20237
100
AcDbEntity
  8
0
100
AcDbPolyline
 70
0
 90
2
 38
0
 10
5132.45218504668
 20
3914.40716288603
 10
5497.65111405903
 20
4364.35346378516
  0
LWPOLYLINE
  5
20238
100
AcDbEntity
  8
0
100
AcDbPolyline
 70
0
 90
2
 38
0
 10
5477.45548032856
 20
4354.85261501176
 10
5570.99199418927
 20
4336.29369188468
  0
LWPOLYLINE
  5
20239
100
AcDbEntity
  8
0
100
AcDbPolyline
 70
0
 90
2
 38
0
 10
5548.43707188472
 20
4329.33409571203
 10
5682.59030720344
 20
4464.38203457986
  0
LWPOLYLINE
  5
2023A
100
AcDbEntity
  8
0
100
AcDbPolyline
 70
0
 90
2
 38
0
 10
5662.42362732533
 20
4435.74822767851
 10
5773.38032297121
 20
4652.25641358879
  0
LWPOLYLINE
  5
2023B
100
AcDbEntity
  8
0
100
AcDbPolyline
 70
0
 90
2
 38
0
 10
5743.13023881213
 20
4616.19909712311
 10
6051.61230288135
 20
4755.79121861946
  0
LWPOLYLINE
  5
2023C
100
AcDbEntity
  8
0
100
AcDbPolyline
 70
0
 90
2
 38
0
 10
6012.87089026976
 20
4729.8087361893
 10
6271.67599340057
 20
4957.76166099554
  0
LWPOLYLINE
  5
2023D
100
AcDbEntity
  8
0
100
AcDbPolyline
 70
0
 90
2
 38
0
 10
6215.97341407658
 20
4895.31887868603
 10
6608.65791342463
 20
5492.97546213378
  0
LWPOLYLINE
  5
2023E
100
AcDbEntity
  8
0
100
AcDbPolyline
 70
0
 90
2
 38
0
 10
5083.18984327407
 20
3758.18364433393
 10
4981.25285171534
 20
3828.98905368906
  0
LWPOLYLINE
  5
2023F
100
AcDbEntity
  8
0
100
AcDbPolyline
 70
0
 90
2
 38
0
 10
4997.06126905244
 20
3794.13098840666
 10
5018.32086034431
 20
4008.18113465759
  0
LWPOLYLINE
  5
20240
100
AcDbEntity
  8
0
100
AcDbPolyline
 70
0
 90
2
 38
0
 10
4643.2800665216
 20
3894.89250953263
 10
5019.41106939848
 20
3852.95393315797
  0
LWPOLYLINE
  5
20241
100
AcDbEntity
  8
0
100
AcDbPolyline
 70
0
 90
2
 38
0
 10
4862.4172337653
 20
3848.59666878032
 10
4936.67575798966
 20
4128.7989149238
  0
LWPOLYLINE
  5
20242
100
AcDbEntity
  8
0
100
AcDbPolyline
 70
0
 90
2
 38
0
 10
4926.42944003278
 20
4119.70870933274
 10
4982.43095179691
 20
4099.40102122896
  0
LWPOLYLINE
  5
20243
100
AcDbEntity
  8
0
100
AcDbPolyline
 70
0
 90
2
 38
0
 10
4891.19375986492
 20
3987.7182118915
 10
5098.61941553853
 20
3965.42574840645
  0
LWPOLYLINE
  5
20244
100
AcDbEntity
  8
0
100
AcDbPolyline
 70
0
 90
2
 38
0
 10
4888.0563204232
 20
3976.57200501835
 10
5107.33478246641
 20
3941.39168232579
  0
LWPOLYLINE
  5
20245
100
AcDbEntity
  8
0
100
AcDbPolyline
 70
0
 90
2
 38
0
 10
4880.03816226014
 20
3958.80765854313
 10
5088.16102669857
 20
3923.62733585057
  0
LWPOLYLINE
  5
20246
100
AcDbEntity
  8
0
100
AcDbPolyline
 70
0
 90
2
 38
0
 10
4870.62558656742
 20
3937.90847713457
 10
4952.20132836018
 20
3931.29038727126
  0
LWPOLYLINE
  5
20247
100
AcDbEntity
  8
0
100
AcDbPolyline
 70
0
 90
2
 38
0
 10
4870.62558656742
 20
3920.49250091723
 10
4947.32073832263
 20
3914.57105209216
  0
LWPOLYLINE
  5
20248
100
AcDbEntity
  8
0
100
AcDbPolyline
 70
0
 90
2
 38
0
 10
4936.16501203403
 20
3924.67229740794
 10
5106.63757370159
 20
3898.89662873166
  0
LWPOLYLINE
  5
20249
100
AcDbEntity
  8
0
100
AcDbPolyline
 70
0
 90
2
 38
0
 10
4931.63444190056
 20
3900.26703097968
 10
5026.10893189395
 20
3890.16573592515
  0
LWPOLYLINE
  5
2024A
100
AcDbEntity
  8
0
100
AcDbPolyline
 70
0
 90
2
 38
0
 10
4938.6066582326
 20
3880.41276138973
 10
5047.72304702248
 20
3862.30014413414
  0
LWPOLYLINE
  5
2024B
100
AcDbEntity
  8
0
100
AcDbPolyline
 70
0
 90
2
 38
0
 10
4939.65260006362
 20
3858.81693894292
 10
4955.34018332357
 20
4011.72939814369
  0
LWPOLYLINE
  5
2024C
100
AcDbEntity
  8
0
100
AcDbPolyline
 70
0
 90
2
 38
0
 10
4744.52448193188
 20
3990.44777542832
 10
4894.58367689923
 20
3941.77566553408
  0
LWPOLYLINE
  5
2024D
100
AcDbEntity
  8
0
100
AcDbPolyline
 70
0
 90
2
 38
0
 10
4584.94654714651
 20
3948.48905485686
 10
4693.01158938627
 20
3885.83070477213
  0
LWPOLYLINE
  5
2024E
100
AcDbEntity
  8
0
100
AcDbPolyline
 70
0
 90
2
 38
0
 10
4589.42590113229
 20
3888.62796275797
 10
4619.66170139084
 20
3971.98594235598
  0
LWPOLYLINE
  5
2024F
100
AcDbEntity
  8
0
100
AcDbPolyline
 70
0
 90
2
 38
0
 10
4574.86790416573
 20
3902.61420294846
 10
4677.33378609424
 20
3856.17988949514
  0
LWPOLYLINE
  5
20250
100
AcDbEntity
  8
0
100
AcDbPolyline
 70
0
 90
2
 38
0
 10
4631.97995702262
 20
3864.57166345269
 10
4817.87424124352
 20
3862.89327881792
  0
LWPOLYLINE
  5
20251
100
AcDbEntity
  8
0
100
AcDbPolyline
 70
0
 90
2
 38
0
 10
4785.39882833397
 20
3868.48779478962
 10
4852.0296210089
 20
3840.51531440865
  0
LWPOLYLINE
  5
20252
100
AcDbEntity
  8
0
100
AcDbPolyline
 70
0
 90
2
 38
0
 10
4742.84464375986
 20
3855.06101614406
 10
4750.68354540589
 20
3896.4602751706
  0
LWPOLYLINE
  5
20253
100
AcDbEntity
  8
0
100
AcDbPolyline
 70
0
 90
2
 38
0
 10
4656.05669380719
 20
3856.73935104006
 10
4661.09595095567
 20
3897.57914852168
  0
LWPOLYLINE
  5
20254
100
AcDbEntity
  8
0
100
AcDbPolyline
 70
0
 90
2
 38
0
 10
4896.26338638747
 20
3807.50777960089
 10
4999.84907464145
 20
3824.85073932215
  0
LWPOLYLINE
  5
20255
100
AcDbEntity
  8
0
100
AcDbPolyline
 70
0
 90
2
 38
0
 10
4724.73214319383
 20
3874.31110904605
 10
4735.3519015043
 20
3822.36216006566
  0
LWPOLYLINE
  5
20256
100
AcDbEntity
  8
0
100
AcDbPolyline
 70
0
 90
2
 38
0
 10
4712.22742475287
 20
3847.39264267631
 10
4796.12397866702
 20
3843.85566988819
  0
LWPOLYLINE
  5
20257
100
AcDbEntity
  8
0
100
AcDbPolyline
 70
0
 90
2
 38
0
 10
4679.66000293472
 20
3822.63398237567
 10
4739.83897651735
 20
3832.18372434773
  0
LWPOLYLINE
  5
20258
100
AcDbEntity
  8
0
100
AcDbPolyline
 70
0
 90
2
 38
0
 10
4559.65606487103
 20
3876.74930294115
 10
4659.48238493461
 20
3817.32854806286
  0
LWPOLYLINE
  5
20259
100
AcDbEntity
  8
0
100
AcDbPolyline
 70
0
 90
2
 38
0
 10
4745.50286477408
 20
3803.88814099772
 10
4798.60191369386
 20
3824.04875159542
  0
LWPOLYLINE
  5
2025A
100
AcDbEntity
  8
0
100
AcDbPolyline
 70
0
 90
2
 38
0
 10
4726.38727407853
 20
3825.81721312011
 10
4838.60326927635
 20
3809.90095992041
  0
LWPOLYLINE
  5
2025B
100
AcDbEntity
  8
0
100
AcDbPolyline
 70
0
 90
2
 38
0
 10
4572.39987779059
 20
3834.30592791612
 10
4583.72765430406
 20
3874.27340706783
  0
LWPOLYLINE
  5
2025C
100
AcDbEntity
  8
0
100
AcDbPolyline
 70
0
 90
2
 38
0
 10
4563.90404540548
 20
3859.41823078295
 10
4574.52380371591
 20
3952.08631101914
  0
LWPOLYLINE
  5
2025D
100
AcDbEntity
  8
0
100
AcDbPolyline
 70
0
 90
2
 38
0
 10
4526.38062484981
 20
3941.12175008857
 10
4610.63118786548
 20
3900.09314428329
  0
LWPOLYLINE
  5
2025E
100
AcDbEntity
  8
0
100
AcDbPolyline
 70
0
 90
2
 38
0
 10
4508.37995049582
 20
4010.33895117638
 10
4625.62272051469
 20
3955.44551748779
  0
LWPOLYLINE
  5
2025F
100
AcDbEntity
  8
0
100
AcDbPolyline
 70
0
 90
2
 38
0
 10
4464.76785649837
 20
3980.91156239831
 10
4535.00025103925
 20
4013.16853935464
  0
LWPOLYLINE
  5
20260
100
AcDbEntity
  8
0
100
AcDbPolyline
 70
0
 90
2
 38
0
 10
4309.22493057785
 20
4211.42792329116
 10
4267.378635523
 20
4125.98837668969
  0
LWPOLYLINE
  5
20261
100
AcDbEntity
  8
0
100
AcDbPolyline
 70
0
 90
2
 38
0
 10
4264.64963842524
 20
4165.98137182403
 10
4337.42559672499
 20
4047.82023853196
  0
LWPOLYLINE
  5
20262
100
AcDbEntity
  8
0
100
AcDbPolyline
 70
0
 90
2
 38
0
 10
3688.55123487508
 20
4178.94010876105
 10
3502.25365566173
 20
4356.91115297048
  0
LWPOLYLINE
  5
20263
100
AcDbEntity
  8
0
100
AcDbPolyline
 70
0
 90
2
 38
0
 10
3540.21395767853
 20
4331.82013829189
 10
3451.44517817306
 20
4377.91757114032
  0
LWPOLYLINE
  5
20264
100
AcDbEntity
  8
0
100
AcDbPolyline
 70
0
 90
2
 38
0
 10
3489.40548018988
 20
4349.90903016013
 10
3012.53089920664
 20
4890.66830485511
  0
LWPOLYLINE
  5
20265
100
AcDbEntity
  8
0
100
AcDbPolyline
 70
0
 90
2
 38
0
 10
3072.49175376815
 20
4815.19297329238
 10
2714.33993505263
 20
5549.06327260741
  0
LWPOLYLINE
  5
20266
100
AcDbEntity
  8
0
100
AcDbPolyline
 70
0
 90
2
 38
0
 10
3321.06649573178
 20
4248.85444827468
 10
3490.34860367408
 20
4095.73243968835
  0
LWPOLYLINE
  5
20267
100
AcDbEntity
  8
0
100
AcDbPolyline
 70
0
 90
2
 38
0
 10
3481.74351875273
 20
4116.74930299728
 10
3485.56800093999
 20
4011.66503619141
  0
LWPOLYLINE
  5
20268
100
AcDbEntity
  8
0
100
AcDbPolyline
 70
0
 90
2
 38
0
 10
3433.93762009569
 20
3999.24601451257
 10
3497.04144750179
 20
4065.16245217185
  0
LWPOLYLINE
  5
20269
100
AcDbEntity
  8
0
100
AcDbPolyline
 70
0
 90
2
 38
0
 10
3477.91903656546
 20
4035.54784671037
 10
3548.75701701394
 20
3973.14654652465
  0
LWPOLYLINE
  5
2026A
100
AcDbEntity
  8
0
100
AcDbPolyline
 70
0
 90
2
 38
0
 10
3155.36192578708
 20
4045.67943266825
 10
3257.08543094106
 20
3922.74059328097
  0
LWPOLYLINE
  5
2026B
100
AcDbEntity
  8
0
100
AcDbPolyline
 70
0
 90
2
 38
0
 10
2525.71227848515
 20
3569.8269983318
 10
2807.75831719572
 20
3796.26204547389
  0
LWPOLYLINE
  5
2026C
100
AcDbEntity
  8
0
100
AcDbPolyline
 70
0
 90
2
 38
0
 10
2475.24082383796
 20
3466.00306190349
 10
2547.48415993809
 20
3601.46855764096
  0
LWPOLYLINE
  5
2026D
100
AcDbEntity
  8
0
100
AcDbPolyline
 70
0
 90
2
 38
0
 10
2097.20015354321
 20
3296.91839385668
 10
2358.4638891326
 20
3388.87670202264
  0
LWPOLYLINE
  5
2026E
100
AcDbEntity
  8
0
100
AcDbPolyline
 70
0
 90
2
 38
0
 10
2309.97171983274
 20
3388.87670202264
 10
2361.4327528117
 20
3353.27996645187
  0
LWPOLYLINE
  5
2026F
100
AcDbEntity
  8
0
100
AcDbPolyline
 70
0
 90
2
 38
0
 10
2345.59859871693
 20
3348.33593395141
 10
2506.9091320275
 20
3524.34219776011
  0
LWPOLYLINE
  5
20270
100
AcDbEntity
  8
0
100
AcDbPolyline
 70
0
 90
2
 38
0
 10
2234.75939136974
 20
3301.86237661838
 10
2351.53645475888
 20
3372.06714073735
  0
LWPOLYLINE
  5
20271
100
AcDbEntity
  8
0
100
AcDbPolyline
 70
0
 90
2
 38
0
 10
2015.27310500848
 20
3308.08215851124
 10
2133.39890318245
 20
3293.07881046762
  0
LWPOLYLINE
  5
20272
100
AcDbEntity
  8
0
100
AcDbPolyline
 70
0
 90
2
 38
0
 10
1767.00849097456
 20
3171.05188146125
 10
2044.30403895752
 20
3309.08235518681
  0
ENDSEC
  0
SECTION
  2
OBJECTS
  0
DICTIONARY
  5
C
330
0
100
AcDbDictionary
281
     1
  3
ACAD_GROUP
350
D
  3
ACAD_LAYOUT
350
1A
  3
ACAD_MLEADERSTYLE
350
43
  3
ACAD_PLOTSETTINGS
350
19
  3
ACAD_PLOTSTYLENAME
350
E
  3
ACAD_TABLESTYLE
350
42
  0
DICTIONARY
  5
D
102
{ACAD_REACTORS
330
C
102
}
330
C
100
AcDbDictionary
281
     1
  0
DICTIONARY
  5
1A
102
{ACAD_REACTORS
330
C
102
}
330
C
100
AcDbDictionary
281
     1
  3
Layout1
350
1E
  3
Model
350
22
  0
DICTIONARY
  5
43
102
{ACAD_REACTORS
330
C
102
}
330
C
100
AcDbDictionary
281
     1
  0
DICTIONARY
  5
19
102
{ACAD_REACTORS
330
C
102
}
330
C
100
AcDbDictionary
281
     1
  0
ACDBDICTIONARYWDFLT
  5
E
102
{ACAD_REACTORS
330
C
102
}
330
C
100
AcDbDictionary
281
     1
  3
Normal
350
F
100
AcDbDictionaryWithDefault
340
F
  0
DICTIONARY
  5
42
102
{ACAD_REACTORS
330
C
102
}
330
C
100
AcDbDictionary
281
     1
  0
LAYOUT
  5
1E
102
{ACAD_REACTORS
330
1A
102
}
330
1A
100
AcDbPlotSettings
  1

  2
none_device
  4

  6

 40
0.0
 41
0.0
 42
0.0
 43
0.0
 44
0.0
 45
0.0
 46
0.0
 47
0.0
 48
0.0
 49
0.0
140
0.0
141
0.0
142
1.0
143
1.0
 70
   688
 72
     0
 73
     0
 74
     5
  7

 75
    16
 76
     0
 77
     2
 78
   300
147
1.0
148
0.0
149
0.0
100
AcDbLayout
  1
Layout1
 70
     1
 71
     1
 10
0.0
 20
0.0
 11
12.0
 21
9.0
 12
0.0
 22
0.0
 32
0.0
 14
1.000000000000000E+20
 24
1.000000000000000E+20
 34
1.000000000000000E+20
 15
-1.000000000000000E+20
 25
-1.000000000000000E+20
 35
-1.000000000000000E+20
146
0.0
 13
0.0
 23
0.0
 33
0.0
 16
1.0
 26
0.0
 36
0.0
 17
0.0
 27
1.0
 37
0.0
 76
     0
330
1B
  0
LAYOUT
  5
22
102
{ACAD_REACTORS
330
1A
102
}
330
1A
100
AcDbPlotSettings
  1

  2
none_device
  4

  6

 40
0.0
 41
0.0
 42
0.0
 43
0.0
 44
0.0
 45
0.0
 46
0.0
 47
0.0
 48
0.0
 49
0.0
140
0.0
141
0.0
142
1.0
143
1.0
 70
  1712
 72
     0
 73
     0
 74
     0
  7

 75
     0
 76
     0
 77
     2
 78
   300
147
1.0
148
0.0
149
0.0
100
AcDbLayout
  1
Model
 70
     1
 71
     0
 10
0.0
 20
0.0
 11
12.0
 21
9.0
 12
0.0
 22
0.0
 32
0.0
 14
30.0
 24
49.75
 34
0.0
 15
130.5
 25
163.1318914119703
 35
0.0
146
0.0
 13
0.0
 23
0.0
 33
0.0
 16
1.0
 26
0.0
 36
0.0
 17
0.0
 27
1.0
 37
0.0
 76
     0
330
1F
331
29
  0
ACDBPLACEHOLDER
  5
F
102
{ACAD_REACTORS
330
E
102
}
330
E
  0
ENDSEC
  0
EOF
