  0
SECTION
  2
HEADER
  9
$ACADVER
  1
AC1018
  9
$ACADMAINTVER
 70
     0
  9
$DWGCODEPAGE
  3
ANSI_1252
  9
$EXTMIN
 10
7066.48428928503
 20
499.756781789882
 30
0.0
  9
$EXTMAX
 10
15179.9384888718
 20
5121.58049259189
 30
0.0
  9
$LIMMIN
 10
0.0
 20
0.0
  9
$LIMMAX
 10
12.0
 20
9.0
  9
$ORTHOMODE
 70
     0
  9
$REGENMODE
 70
     1
  9
$FILLMODE
 70
     1
  9
$QTEXTMODE
 70
     0
  9
$MIRRTEXT
 70
     1
  9
$LTSCALE
 40
1.0
  9
$ATTMODE
 70
     1
  9
$TEXTSIZE
 40
0.2
  9
$TRACEWID
 40
0.05
  9
$TEXTSTYLE
  7
Standard
  9
$CLAYER
  8
0
  9
$CELTYPE
  6
ByLayer
  9
$CECOLOR
 62
   256
  9
$CELTSCALE
 40
1.0
  9
$DISPSILH
 70
     0
  9
$LUNITS
 70
     2
  9
$LUPREC
 70
     4
  9
$SKETCHINC
 40
0.1
  9
$FILLETRAD
 40
0.5
  9
$AUNITS
 70
     0
  9
$AUPREC
 70
     0
  9
$MENU
  1
.
  9
$ELEVATION
 40
0.0
  9
$PELEVATION
 40
0.0
  9
$THICKNESS
 40
0.0
  9
$LIMCHECK
 70
     0
  9
$CHAMFERA
 40
0.5
  9
$CHAMFERB
 40
0.5
  9
$CHAMFERC
 40
1.0
  9
$CHAMFERD
 40
0.0
  9
$SKPOLY
 70
     0
  9
$ANGBASE
 50
0.0
  9
$ANGDIR
 70
     0
  9
$PDMODE
 70
     0
  9
$PDSIZE
 40
0.0
  9
$PLINEWID
 40
0.0
  9
$SPLFRAME
 70
     0
  9
$SPLINETYPE
 70
     6
  9
$SPLINESEGS
 70
     8
  9
$HANDSEED
  5
0002026C
  9
$SURFTAB1
 70
     6
  9
$SURFTAB2
 70
     6
  9
$SURFTYPE
 70
     6
  9
$SURFU
 70
     6
  9
$SURFV
 70
     6
  9
$UCSBASE
  2

  9
$UCSNAME
  2

  9
$UCSORG
 10
0.0
 20
0.0
 30
0.0
  9
$UCSXDIR
 10
1.0
 20
0.0
 30
0.0
  9
$UCSYDIR
 10
0.0
 20
1.0
 30
0.0
  9
$UCSORTHOREF
  2

  9
$UCSORTHOVIEW
 70
     0
  9
$UCSORGTOP
 10
0.0
 20
0.0
 30
0.0
  9
$UCSORGBOTTOM
 10
0.0
 20
0.0
 30
0.0
  9
$UCSORGLEFT
 10
0.0
 20
0.0
 30
0.0
  9
$UCSORGRIGHT
 10
0.0
 20
0.0
 30
0.0
  9
$UCSORGFRONT
 10
0.0
 20
0.0
 30
0.0
  9
$UCSORGBACK
 10
0.0
 20
0.0
 30
0.0
  9
$PUCSBASE
  2

  9
$PUCSNAME
  2

  9
$PUCSORG
 10
0.0
 20
0.0
 30
0.0
  9
$PUCSXDIR
 10
1.0
 20
0.0
 30
0.0
  9
$PUCSYDIR
 10
0.0
 20
1.0
 30
0.0
  9
$PUCSORTHOREF
  2

  9
$PUCSORTHOVIEW
 70
     0
  9
$PUCSORGTOP
 10
0.0
 20
0.0
 30
0.0
  9
$PUCSORGBOTTOM
 10
0.0
 20
0.0
 30
0.0
  9
$PUCSORGLEFT
 10
0.0
 20
0.0
 30
0.0
  9
$PUCSORGRIGHT
 10
0.0
 20
0.0
 30
0.0
  9
$PUCSORGFRONT
 10
0.0
 20
0.0
 30
0.0
  9
$PUCSORGBACK
 10
0.0
 20
0.0
 30
0.0
  9
$WORLDVIEW
 70
     1
  9
$SHADEDGE
 70
     3
  9
$SHADEDIF
 70
    70
  9
$TILEMODE
 70
     1
  9
$MAXACTVP
 70
    64
  9
$PINSBASE
 10
0.0
 20
0.0
 30
0.0
  9
$PLIMCHECK
 70
     0
  9
$PEXTMIN
 10
1.000000000000000E+20
 20
1.000000000000000E+20
 30
1.000000000000000E+20
  9
$PEXTMAX
 10
-1.000000000000000E+20
 20
-1.000000000000000E+20
 30
-1.000000000000000E+20
  9
$PLIMMIN
 10
0.0
 20
0.0
  9
$PLIMMAX
 10
12.0
 20
9.0
  9
$UNITMODE
 70
     0
  9
$VISRETAIN
 70
     1
  9
$PLINEGEN
 70
     0
  9
$PSLTSCALE
 70
     1
  9
$TREEDEPTH
 70
  3020
  9
$CMLSTYLE
  2
Standard
  9
$CMLJUST
 70
     0
  9
$CMLSCALE
 40
1.0
  9
$PROXYGRAPHICS
 70
     1
  9
$MEASUREMENT
 70
     0
  9
$CELWEIGHT
370
    -1
  9
$ENDCAPS
280
     0
  9
$JOINSTYLE
280
     0
  9
$LWDISPLAY
290
     0
  9
$INSUNITS
 70
     1
  9
$HYPERLINKBASE
  1

  9
$STYLESHEET
  1

  9
$XEDIT
290
     1
  9
$CEPSNTYPE
380
     0
  9
$PSTYLEMODE
290
     1
  9
$EXTNAMES
290
     1
  9
$PSVPSCALE
 40
0.0
  9
$OLESTARTUP
290
     0
  9
$SORTENTS
280
   127
  9
$INDEXCTL
280
     0
  9
$HIDETEXT
280
     1
  9
$XCLIPFRAME
290
     0
  9
$HALOGAP
280
     0
  9
$OBSCOLOR
 70
   257
  9
$OBSLTYPE
280
     0
  9
$INTERSECTIONDISPLAY
280
     0
  9
$INTERSECTIONCOLOR
 70
   257
  9
$DIMASSOC
280
     2
  9
$PROJECTNAME
  1

  0
ENDSEC
  0
SECTION
  2
CLASSES
  0
CLASS
  1
ACDBDICTIONARYWDFLT
  2
AcDbDictionaryWithDefault
  3
ObjectDBX Classes
 90
        0
 91
        4
280
     0
281
     0
  0
ENDSEC
  0
SECTION
  2
TABLES
  0
TABLE
  2
VPORT
  5
8
330
0
100
AcDbSymbolTable
 70
     1
  0
VPORT
  5
29
330
8
100
AcDbSymbolTableRecord
100
AcDbViewportTableRecord
  2
*Active
 70
     0
 10
0.0
 20
0.0
 11
1.0
 21
1.0
 12
80.25
 22
106.4409457059851
 13
0.0
 23
0.0
 14
0.5
 24
0.5
 15
0.5
 25
0.5
 16
0.0
 26
0.0
 36
1.0
 17
0.0
 27
0.0
 37
0.0
 40
113.3818914119703
 41
0.8863849310366128
 42
50.0
 43
0.0
 44
0.0
 50
0.0
 51
0.0
 71
     0
 72
  1000
 73
     1
 74
     3
 75
     0
 76
     0
 77
     0
 78
     0
281
     0
 65
     1
110
0.0
120
0.0
130
0.0
111
1.0
121
0.0
131
0.0
112
0.0
122
1.0
132
0.0
 79
     0
146
0.0
  0
ENDTAB
  0
TABLE
  2
LTYPE
  5
5
330
0
100
AcDbSymbolTable
 70
     1
  0
LTYPE
  5
14
330
5
100
AcDbSymbolTableRecord
100
AcDbLinetypeTableRecord
  2
ByBlock
 70
     0
  3

 72
    65
 73
     0
 40
0.0
  0
LTYPE
  5
15
330
5
100
AcDbSymbolTableRecord
100
AcDbLinetypeTableRecord
  2
ByLayer
 70
     0
  3

 72
    65
 73
     0
 40
0.0
  0
LTYPE
  5
16
330
5
100
AcDbSymbolTableRecord
100
AcDbLinetypeTableRecord
  2
Continuous
 70
     0
  3
Solid line
 72
    65
 73
     0
 40
0.0
  0
ENDTAB
  0
TABLE
  2
LAYER
  5
2
330
0
100
AcDbSymbolTable
 70
     1
  0
LAYER
  5
10
330
2
100
AcDbSymbolTableRecord
100
AcDbLayerTableRecord
  2
0
 70
     0
 62
     7
  6
Continuous
370
    -3
390
F
  0
ENDTAB
  0
TABLE
  2
STYLE
  5
3
330
0
100
AcDbSymbolTable
 70
     1
  0
STYLE
  5
11
330
3
100
AcDbSymbolTableRecord
100
AcDbTextStyleTableRecord
  2
Standard
 70
     0
 40
0.0
 41
1.0
 50
0.0
 71
     0
 42
0.2
  3
txt
  4

  0
ENDTAB
  0
TABLE
  2
VIEW
  5
6
330
0
100
AcDbSymbolTable
 70
     0
  0
ENDTAB
  0
TABLE
  2
UCS
  5
7
330
0
100
AcDbSymbolTable
 70
     0
  0
ENDTAB
  0
TABLE
  2
APPID
  5
9
330
0
100
AcDbSymbolTable
 70
     1
  0
APPID
  5
12
330
9
100
AcDbSymbolTableRecord
100
AcDbRegAppTableRecord
  2
ACAD
 70
     0
  0
ENDTAB
  0
TABLE
  2
DIMSTYLE
  5
A
330
0
100
AcDbSymbolTable
 70
     1
100
AcDbDimStyleTable
  0
DIMSTYLE
105
27
330
A
100
AcDbSymbolTableRecord
100
AcDbDimStyleTableRecord
  2
Standard
 70
     0
340
11
  0
ENDTAB
  0
TABLE
  2
BLOCK_RECORD
  5
1
330
0
100
AcDbSymbolTable
 70
     1
  0
BLOCK_RECORD
  5
1F
330
1
100
AcDbSymbolTableRecord
100
AcDbBlockTableRecord
  2
*Model_Space
340
22
  0
BLOCK_RECORD
  5
1B
330
1
100
AcDbSymbolTableRecord
100
AcDbBlockTableRecord
  2
*Paper_Space
340
1E
  0
ENDTAB
  0
ENDSEC
  0
SECTION
  2
BLOCKS
  0
BLOCK
  5
20
330
1F
100
AcDbEntity
  8
0
100
AcDbBlockBegin
  2
*Model_Space
 70
     0
 10
0.0
 20
0.0
 30
0.0
  3
*Model_Space
  1

  0
ENDBLK
  5
21
330
1F
100
AcDbEntity
  8
0
100
AcDbBlockEnd
  0
BLOCK
  5
1C
330
1B
100
AcDbEntity
 67
     1
  8
0
100
AcDbBlockBegin
  2
*Paper_Space
 70
     0
 10
0.0
 20
0.0
 30
0.0
  3
*Paper_Space
  1

  0
ENDBLK
  5
1D
330
1B
100
AcDbEntity
 67
     1
  8
0
100
AcDbBlockEnd
  0
ENDSEC
  0
SECTION
  2
ENTITIES
  0
LWPOLYLINE
  5
20000
100
AcDbEntity
  8
0
100
AcDbPolyline
 70
0
 90
11
 38
-1.79769313486232e+308
 10
10931.294408154
 20
4541.51055771215
 10
10825.2258577442
 20
4493.86237328695
 10
10586.852979325
 20
4367.72915650494
 10
10503.4412848747
 20
4330.96970752496
 10
10470.1144557262
 20
4320.49309025807
 10
10449.944477184
 20
4316.02011949625
 10
10427.5892970434
 20
4314.20867677182
 10
10404.9892140238
 20
4318.14338947702
 10
10385.0095918144
 20
4331.63606053321
 10
10370.7729421447
 20
4348.97030840218
 10
10299.3648283745
 20
4456.00403072881
  0
LWPOLYLINE
  5
20001
100
AcDbEntity
  8
0
100
AcDbPolyline
 70
0
 90
7
 38
-1.79769313486232e+308
 10
10646.2708707342
 20
3786.93989977343
 10
10630.0716584346
 20
3791.08146005319
 10
10525.6472969039
 20
3788.38381754151
 10
10496.4693451638
 20
3794.6770238081
 10
10464.8835528551
 20
3809.00494807037
 10
10435.4840753342
 20
3832.43503402509
 10
10376.3600673846
 20
3892.60122189308
  0
LWPOLYLINE
  5
20002
100
AcDbEntity
  8
0
100
AcDbPolyline
 70
0
 90
8
 38
-1.79769313486232e+308
 10
10357.122946175
 20
4313.03900246704
 10
10357.767486023
 20
4288.74370149905
 10
10351.2319187245
 20
4256.31898709023
 10
10335.151818285
 20
4225.45736169685
 10
10300.539249005
 20
4186.86232274501
 10
10244.1158519036
 20
4137.93843962494
 10
10123.9653859048
 20
4056.8118011063
 10
10053.0771341736
 20
3995.08314118683
  0
LWPOLYLINE
  5
20003
100
AcDbEntity
  8
0
100
AcDbPolyline
 70
0
 90
12
 38
-1.79769313486232e+308
 10
9690.89137850354
 20
3715.19059362644
 10
9839.07765826421
 20
3806.28013115805
 10
10015.1806399135
 20
3912.88483031616
 10
10065.0039044137
 20
3936.77830852997
 10
10112.4070831745
 20
3955.03711247128
 10
10159.3516256439
 20
3973.26747830035
 10
10201.4671285937
 20
3980.22840568712
 10
10232.1300823337
 20
3977.44662197409
 10
10258.7777420341
 20
3968.23827536507
 10
10283.0286931044
 20
3952.33296536524
 10
10301.6479911341
 20
3934.81295274813
 10
10364.4511082547
 20
3877.56676394222
  0
LWPOLYLINE
  5
20004
100
AcDbEntity
  8
0
100
AcDbPolyline
 70
0
 90
16
 38
-1.79769313486232e+308
 10
10628.9918593748
 20
4768.81786174616
 10
10611.3087582646
 20
4773.51355120409
 10
10358.6714002939
 20
4772.33736428814
 10
10326.6147265343
 20
4769.78313697837
 10
10305.7757178547
 20
4764.95805550143
 10
10288.0358438047
 20
4758.46768335402
 10
10258.7988927348
 20
4742.15766214822
 10
10237.0325927048
 20
4721.75754971998
 10
10220.773267884
 20
4699.91603529183
 10
10211.1274340043
 20
4677.42630248526
 10
10205.3165565843
 20
4659.22855276205
 10
10202.3042511644
 20
4634.82259635497
 10
10202.6148325449
 20
4617.28221938209
 10
10206.2928285135
 20
4594.01369734211
 10
10217.9312812837
 20
4564.2096601991
 10
10283.6209127943
 20
4448.86945587872
  0
LWPOLYLINE
  5
20005
100
AcDbEntity
  8
0
100
AcDbPolyline
 70
0
 90
9
 38
-1.79769313486232e+308
 10
11113.3574353533
 20
1256.03654551143
 10
10975.7030926144
 20
1266.5157726082
 10
10856.2394678744
 20
1281.17195852902
 10
10830.4756849336
 20
1287.07065779213
 10
10794.4215282539
 20
1295.32107997695
 10
10718.3324299047
 20
1324.29073808212
 10
10654.7422839834
 20
1370.50391704366
 10
10516.6660403835
 20
1477.50570601188
 10
10503.1640993434
 20
1480.27917266507
  0
LWPOLYLINE
  5
20006
100
AcDbEntity
  8
0
100
AcDbPolyline
 70
0
 90
3
 38
-1.79769313486232e+308
 10
10304.7471257637
 20
573.031310503929
 10
10317.2906059849
 20
570.529679916892
 10
10537.9476577943
 20
524.663107055041
  0
LWPOLYLINE
  5
20007
100
AcDbEntity
  8
0
100
AcDbPolyline
 70
0
 90
5
 38
-1.79769313486232e+308
 10
11703.398603935
 20
1559.66474168198
 10
11888.2746746542
 20
1500.28333653659
 10
11900.1769546142
 20
1488.36672911895
 10
12101.861155255
 20
1455.69313661158
 10
12244.137483245
 20
1439.83888157001
  0
LWPOLYLINE
  5
20008
100
AcDbEntity
  8
0
100
AcDbPolyline
 70
0
 90
5
 38
-1.79769313486232e+308
 10
10500.0438140149
 20
1332.45839571031
 10
10532.2897309142
 20
1359.61065661404
 10
10566.7653772144
 20
1379.8565279684
 10
10604.8065868041
 20
1384.0749070487
 10
10654.7422839834
 20
1370.50391704366
  0
LWPOLYLINE
  5
20009
100
AcDbEntity
  8
0
100
AcDbPolyline
 70
0
 90
5
 38
-1.79769313486232e+308
 10
12431.534046361
 20
2385.09024436369
 10
12378.4511280547
 20
2388.31982753016
 10
12098.4169302045
 20
2390.37679239372
 10
11749.9346038646
 20
2394.88141725827
 10
11393.2213143746
 20
2395.11686869022
  0
LWPOLYLINE
  5
2000A
100
AcDbEntity
  8
0
100
AcDbPolyline
 70
0
 90
6
 38
-1.79769313486232e+308
 10
10283.377123114
 20
2396.99142446658
 10
10593.5154508541
 20
2389.72606699411
 10
10613.7733717842
 20
2390.38196715023
 10
10997.8879539336
 20
2387.86315550385
 10
11000.1510791837
 20
2387.85409968402
 10
11320.866984945
 20
2386.65226318324
  0
LWPOLYLINE
  5
2000B
100
AcDbEntity
  8
0
100
AcDbPolyline
 70
0
 90
16
 38
-1.79769313486232e+308
 10
14604.8714821255
 20
719.924562794618
 10
14138.1183940435
 20
765.940353825316
 10
13658.7911382134
 20
826.653196734935
 10
13416.0434038139
 20
846.000497187115
 10
13022.6625872443
 20
862.027333528362
 10
12717.2408663335
 20
865.50693186149
 10
12528.2125786042
 20
922.860941218305
 10
11965.4402324839
 20
973.509488102141
 10
11913.4829733449
 20
993.46368773384
 10
11868.404145554
 20
1033.44591465322
 10
11838.985743724
 20
1100.97191577833
 10
11810.3031637261
 20
1180.69011311149
 10
11874.8495440635
 20
1401.64050635844
 10
11900.1769546142
 20
1488.36672911895
 10
11752.0953151735
 20
2383.72852793019
 10
11749.9346038646
 20
2394.88141725827
  0
LWPOLYLINE
  5
2000C
100
AcDbEntity
  8
0
100
AcDbPolyline
 70
0
 90
9
 38
-1.79769313486232e+308
 10
13416.0434038139
 20
846.000497187115
 10
13418.5781486148
 20
1101.88128531314
 10
13423.3448492142
 20
1245.94410474515
 10
13420.4115806336
 20
1347.63338476708
 10
13409.362007974
 20
1519.31733330348
 10
13426.3181928138
 20
1551.02347751995
 10
14075.5946888349
 20
1672.99003998013
 10
14338.6560039243
 20
1729.1149276766
 10
14604.8714821255
 20
1796.66915251274
  0
LWPOLYLINE
  5
2000D
100
AcDbEntity
  8
0
100
AcDbPolyline
 70
0
 90
21
 38
-1.79769313486232e+308
 10
11295.3981986439
 20
1637.77919439701
 10
11360.4844785149
 20
1613.25882311314
 10
11874.8495440635
 20
1401.64050635844
 10
12060.3946449349
 20
1320.61438838495
 10
12228.4904156143
 20
1269.04858797844
 10
12508.9910421243
 20
1241.74388217889
 10
12584.5803159534
 20
1195.45485806009
 10
12628.3689508534
 20
1167.36641393192
 10
12674.764688235
 20
1156.98299334161
 10
12803.0080812036
 20
1136.27438815506
 10
12828.5436592049
 20
1126.39806811521
 10
12870.2472800335
 20
1126.95559167126
 10
12917.6883074346
 20
1147.84786701118
 10
12981.8072209342
 20
1151.02485156814
 10
13041.7449743545
 20
1141.17697820403
 10
13085.0148604347
 20
1139.64928437127
 10
13168.4120833448
 20
1130.86731217159
 10
13221.0495045635
 20
1118.92647871897
 10
13238.2494790948
 20
1119.45813079374
 10
13309.1321648548
 20
1108.04895981178
 10
13418.5781486148
 20
1101.88128531314
  0
LWPOLYLINE
  5
2000E
100
AcDbEntity
  8
0
100
AcDbPolyline
 70
0
 90
8
 38
-1.79769313486232e+308
 10
10761.7559368743
 20
1783.34231750723
 10
10786.0814720041
 20
1757.62764677368
 10
10795.4657050746
 20
1717.5240945016
 10
10774.0700989443
 20
1544.49984446876
 10
10757.8964901234
 20
1430.36980279032
 10
10763.6227647348
 20
1377.22925854996
 10
10785.0038993249
 20
1335.06237130016
 10
10830.4756849336
 20
1287.07065779213
  0
LWPOLYLINE
  5
2000F
100
AcDbEntity
  8
0
100
AcDbPolyline
 70
0
 90
4
 38
-1.79769313486232e+308
 10
11527.7542585733
 20
4847.46604032405
 10
11339.2692099644
 20
4754.27922129827
 10
11233.7127292047
 20
4701.4001701666
 10
11003.8502258642
 20
4579.51278354004
  0
LWPOLYLINE
  5
20010
100
AcDbEntity
  8
0
100
AcDbPolyline
 70
0
 90
4
 38
-1.79769313486232e+308
 10
11009.0432801137
 20
4555.78111103885
 10
11238.236753315
 20
4678.33851973209
 10
11341.8306714448
 20
4730.21855894998
 10
11534.8976303043
 20
4823.47636549137
  0
LWPOLYLINE
  5
20011
100
AcDbEntity
  8
0
100
AcDbPolyline
 70
0
 90
2
 38
0
 10
10617.5827247633
 20
4559.34972234685
 10
10623.0440589751
 20
4060.26770418379
  0
LWPOLYLINE
  5
20012
100
AcDbEntity
  8
0
100
AcDbPolyline
 70
0
 90
2
 38
0
 10
10636.0662130138
 20
4059.59101473875
 10
10630.4590502644
 20
4559.64214666896
  0
LWPOLYLINE
  5
20013
100
AcDbEntity
  8
0
100
AcDbPolyline
 70
0
 90
11
 38
-1.79769313486232e+308
 10
10641.8225438839
 20
3308.89583120691
 10
10641.3739263343
 20
2959.44069396341
 10
10640.2195432151
 20
2872.44941355903
 10
10594.4638929146
 20
2401.53227502396
 10
10593.5154508541
 20
2389.72606699411
 10
10542.1014308336
 20
1838.47677796995
 10
10503.1640993434
 20
1480.27917266507
 10
10471.6128160751
 20
1189.96755551323
 10
10457.1334899033
 20
1076.77339678686
 10
10434.4565964343
 20
944.6997468221
 10
10309.475977734
 20
586.109905433468
  0
LWPOLYLINE
  5
20014
100
AcDbEntity
  8
0
100
AcDbPolyline
 70
0
 90
3
 38
-1.79769313486232e+308
 10
10620.8095090388
 20
524.663107055041
 10
10553.5383953138
 20
534.064655019994
 10
10322.052853795
 20
584.25502327187
  0
LWPOLYLINE
  5
20015
100
AcDbEntity
  8
0
100
AcDbPolyline
 70
0
 90
6
 38
-1.79769313486232e+308
 10
10557.5202935042
 20
1834.16639798004
 10
10613.7733717842
 20
2390.38196715023
 10
10614.0973115044
 20
2400.45075035524
 10
10655.838780964
 20
2862.78001559116
 10
10659.0570274445
 20
2960.37607344901
 10
10655.2788439246
 20
3305.52681908161
  0
LWPOLYLINE
  5
20016
100
AcDbEntity
  8
0
100
AcDbPolyline
 70
0
 90
5
 38
-1.79769313486232e+308
 10
10283.6209127943
 20
4448.86945587872
 10
10333.5777606836
 20
4368.42785879653
 10
10349.7324451844
 20
4340.35299624186
 10
10355.1058370045
 20
4325.26883257376
 10
10357.122946175
 20
4313.03900246704
  0
LWPOLYLINE
  5
20017
100
AcDbEntity
  8
0
100
AcDbPolyline
 70
0
 90
3
 38
-1.79769313486232e+308
 10
10300.2001773647
 20
524.663107055041
 10
10317.2906059849
 20
570.529679916892
 10
10322.052853795
 20
584.25502327187
  0
LWPOLYLINE
  5
20018
100
AcDbEntity
  8
0
100
AcDbPolyline
 70
0
 90
6
 38
-1.79769313486232e+308
 10
10364.4511082547
 20
3877.56676394222
 10
10456.6102882943
 20
3804.4726437238
 10
10483.8702052033
 20
3789.03849715842
 10
10521.1978568549
 20
3780.45391637189
 10
10630.3711078635
 20
3778.17677159151
 10
10646.2708707342
 20
3786.93989977343
  0
LWPOLYLINE
  5
20019
100
AcDbEntity
  8
0
100
AcDbPolyline
 70
0
 90
17
 38
-1.79769313486232e+308
 10
10299.3648283745
 20
4456.00403072881
 10
10241.2003944444
 20
4536.13435837217
 10
10222.6935290939
 20
4566.6900924664
 10
10217.3201372738
 20
4581.9168778412
 10
10211.4780904038
 20
4601.20787514523
 10
10209.5956778137
 20
4624.28491045683
 10
10210.3326128351
 20
4647.28952869642
 10
10216.4785619231
 20
4670.73024175512
 10
10227.1952893047
 20
4695.40928679341
 10
10243.7885726041
 20
4718.29887608495
 10
10263.3362751848
 20
4736.44366054153
 10
10283.8758344336
 20
4749.35968872402
 10
10301.7838009151
 20
4756.78298204308
 10
10326.0236200339
 20
4762.54616243029
 10
10349.3049783448
 20
4764.48965133829
 10
10611.3532860542
 20
4768.03761922205
 10
10628.9918593748
 20
4768.81786174616
  0
LWPOLYLINE
  5
2001A
100
AcDbEntity
  8
0
100
AcDbPolyline
 70
0
 90
9
 38
-1.79769313486232e+308
 10
10376.3600673846
 20
3892.60122189308
 10
10311.2481840237
 20
3942.37679242119
 10
10278.5369516539
 20
3973.89111513188
 10
10257.9450722451
 20
4012.1956734281
 10
10260.0334258939
 20
4058.70730754323
 10
10292.0600433948
 20
4108.10702367881
 10
10369.6230117942
 20
4166.56791926138
 10
10481.8274925447
 20
4237.43609355679
 10
10539.696929835
 20
4285.15575909391
  0
LWPOLYLINE
  5
2001B
100
AcDbEntity
  8
0
100
AcDbPolyline
 70
0
 90
4
 38
-1.79769313486232e+308
 10
8173.38296682412
 20
2713.98814759133
 10
7789.62238064432
 20
2450.86982215904
 10
7336.92274702364
 20
2144.30021480341
 10
7124.75436926012
 20
1998.23491012097
  0
LWPOLYLINE
  5
2001C
100
AcDbEntity
  8
0
100
AcDbPolyline
 70
0
 90
4
 38
-1.79769313486232e+308
 10
7124.75436926012
 20
1974.26055043765
 10
7351.59020313458
 20
2128.19411743395
 10
7803.98816093454
 20
2435.05829245141
 10
8185.40547182435
 20
2695.23307172824
  0
LWPOLYLINE
  5
2001D
100
AcDbEntity
  8
0
100
AcDbPolyline
 70
0
 90
2
 38
-1.79769313486232e+308
 10
11534.8976303043
 20
4823.47636549137
 10
12142.3984931841
 20
5091.10070526881
  0
LWPOLYLINE
  5
2001E
100
AcDbEntity
  8
0
100
AcDbPolyline
 70
0
 90
2
 38
-1.79769313486232e+308
 10
12076.0137900408
 20
5091.10070526881
 10
11527.7542585733
 20
4847.46604032405
  0
LWPOLYLINE
  5
2001F
100
AcDbEntity
  8
0
100
AcDbPolyline
 70
0
 90
7
 38
-1.79769313486232e+308
 10
7124.75436926012
 20
2102.48237666022
 10
7158.24271915505
 20
2129.87846495826
 10
7220.24433594407
 20
2170.54996376634
 10
7285.20037201443
 20
2178.05710972156
 10
7317.10231169337
 20
2173.44130757367
 10
7335.38542485447
 20
2170.80352230146
 10
7343.89579992393
 20
2166.71941937329
  0
LWPOLYLINE
  5
20020
100
AcDbEntity
  8
0
100
AcDbPolyline
 70
0
 90
2
 38
0
 10
7343.89579992393
 20
2166.71941937329
 10
7396.24379047403
 20
2141.60939548826
  0
LWPOLYLINE
  5
20021
100
AcDbEntity
  8
0
100
AcDbPolyline
 70
0
 90
3
 38
-1.79769313486232e+308
 10
9653.49804835418
 20
2401.14546176521
 10
9925.86901245477
 20
2400.27739593023
 10
10283.377123114
 20
2396.99142446658
  0
LWPOLYLINE
  5
20022
100
AcDbEntity
  8
0
100
AcDbPolyline
 70
0
 90
14
 38
-1.79769313486232e+308
 10
7193.9473326339
 20
2730.82336516315
 10
7066.48428928503
 20
2628.37120265709
 10
7104.17261609459
 20
2572.87878757818
 10
7115.53833610402
 20
2557.96881682714
 10
7123.91512778425
 20
2543.05110160876
 10
7184.32376265364
 20
2455.95145695992
 10
7189.10493478389
 20
2406.96189251365
 10
7193.88944649348
 20
2390.2513045921
 10
7208.84744647355
 20
2368.17840767335
 10
7224.98543305347
 20
2336.54393395698
 10
7251.052005023
 20
2293.98312478149
 10
7256.69479000406
 20
2282.83938108394
 10
7293.78087836342
 20
2224.9655543101
 10
7317.10231169337
 20
2173.44130757367
  0
LWPOLYLINE
  5
20023
100
AcDbEntity
  8
0
100
AcDbPolyline
 70
0
 90
23
 38
-1.79769313486232e+308
 10
7515.48030165293
 20
5091.10070526881
 10
7623.14630855458
 20
4776.07683682311
 10
7631.52198704356
 20
4756.97448417693
 10
7644.68440363394
 20
4757.0029507122
 10
7823.00486954512
 20
4813.54667211706
 10
7838.56510797353
 20
4814.7836780563
 10
7844.54296462262
 20
4805.23052763203
 10
7927.53164501512
 20
4476.09058503723
 10
7980.93494433375
 20
4264.26212863121
 10
7986.91168779345
 20
4234.39935843982
 10
7980.90934085497
 20
3890.2632460516
 10
7900.73147760356
 20
3879.34709123811
 10
7973.69806423435
 20
3492.56011564713
 10
7982.07151633339
 20
3445.98201427152
 10
7981.46927788505
 20
3440.00078845639
 10
7994.03613520438
 20
3379.10190313132
 10
8053.24363277504
 20
3072.17447854634
 10
8071.18499510387
 20
2977.22326614205
 10
8083.13736882457
 20
2908.54735781215
 10
8089.72636948364
 20
2867.0920434921
 10
8103.77600242408
 20
2800.50482117999
 10
8114.68085974479
 20
2749.55908846026
 10
8117.23452885473
 20
2728.9720464238
  0
LWPOLYLINE
  5
20024
100
AcDbEntity
  8
0
100
AcDbPolyline
 70
0
 90
8
 38
-1.79769313486232e+308
 10
8053.24363277504
 20
3072.17447854634
 10
8200.4358294739
 20
3098.02381332833
 10
8308.75303359354
 20
3100.69931309028
 10
8536.71197365435
 20
3068.31390179703
 10
8622.87325952413
 20
3060.13217404215
 10
8705.44671821432
 20
3115.27096424075
 10
8799.9747770133
 20
3179.32665864807
 10
8810.4477147034
 20
3164.54146108506
  0
LWPOLYLINE
  5
20025
100
AcDbEntity
  8
0
100
AcDbPolyline
 70
0
 90
5
 38
-1.79769313486232e+308
 10
10659.0570274445
 20
2960.37607344901
 10
10641.3739263343
 20
2959.44069396341
 10
9958.75835601451
 20
2957.83127216306
 10
9740.28494976485
 20
2957.94770942498
 10
9322.85912319483
 20
2958.13659653869
  0
LWPOLYLINE
  5
20026
100
AcDbEntity
  8
0
100
AcDbPolyline
 70
0
 90
4
 38
-1.79769313486232e+308
 10
9992.91674176442
 20
3651.33787387898
 10
9958.75835601451
 20
2957.83127216306
 10
9925.86901245477
 20
2400.27739593023
 10
9908.90280886391
 20
2000.42369344886
  0
LWPOLYLINE
  5
20027
100
AcDbEntity
  8
0
100
AcDbPolyline
 70
0
 90
7
 38
-1.79769313486232e+308
 10
8757.02906125872
 20
524.663107055041
 10
8936.81092148484
 20
579.773039268423
 10
9053.28227831447
 20
603.467424830049
 10
9846.1486723146
 20
629.332359382044
 10
10030.9868944141
 20
625.488057869114
 10
10190.0913898239
 20
602.464959198702
 10
10304.7471257637
 20
573.031310503929
  0
LWPOLYLINE
  5
20028
100
AcDbEntity
  8
0
100
AcDbPolyline
 70
0
 90
10
 38
-1.79769313486232e+308
 10
10309.475977734
 20
586.109905433468
 10
10216.7190120241
 20
613.5632283465
 10
10060.5923129937
 20
639.866682903468
 10
9938.87112898404
 20
646.220395085029
 10
9496.79248797359
 20
631.963352419063
 10
9089.07260779501
 20
620.413633418362
 10
8988.86391537474
 20
609.757736813835
 10
8913.47946941504
 20
591.683608086872
 10
8735.48183002347
 20
539.339536590129
 10
8687.6263155791
 20
524.663107055042
  0
LWPOLYLINE
  5
20029
100
AcDbEntity
  8
0
100
AcDbPolyline
 70
0
 90
2
 38
0
 10
11255.6270841642
 20
1652.65572900148
 10
11295.3981986439
 20
1637.77919439701
  0
LWPOLYLINE
  5
2002A
100
AcDbEntity
  8
0
100
AcDbPolyline
 70
0
 90
15
 38
-1.79769313486232e+308
 10
7396.24379047403
 20
2141.60939548826
 10
7419.52292238386
 20
2130.45285080383
 10
7494.80495442474
 20
2121.04017078886
 10
8232.38118374372
 20
2298.9029859934
 10
8379.73924648413
 20
2334.43005589033
 10
8462.40064757341
 20
2339.01616267636
 10
8621.07099696459
 20
2326.08062911881
 10
9292.60248559364
 20
2157.95354441702
 10
9513.91342565441
 20
2101.39723957805
 10
9908.90280886391
 20
2000.42369344886
 10
10542.1014308336
 20
1838.47677796995
 10
10557.5202935042
 20
1834.16639798004
 10
10761.7559368743
 20
1783.34231750723
 10
11138.4811312242
 20
1689.57160256719
 10
11255.6270841642
 20
1652.65572900148
  0
LWPOLYLINE
  5
2002B
100
AcDbEntity
  8
0
100
AcDbPolyline
 70
0
 90
2
 38
0
 10
11174.7579268834
 20
1249.9179538168
 10
11113.3574353533
 20
1256.03654551143
  0
LWPOLYLINE
  5
2002C
100
AcDbEntity
  8
0
100
AcDbPolyline
 70
0
 90
6
 38
-1.79769313486232e+308
 10
12101.861155255
 20
1455.69313661158
 10
12060.3946449349
 20
1320.61438838495
 10
12007.9698439336
 20
1149.79208832709
 10
11907.5440785142
 20
1168.06881830199
 10
11810.3031637261
 20
1180.69011311149
 10
11174.7579268834
 20
1249.9179538168
  0
LWPOLYLINE
  5
2002D
100
AcDbEntity
  8
0
100
AcDbPolyline
 70
0
 90
9
 38
-1.79769313486232e+308
 10
8132.19698161469
 20
2640.68347814036
 10
8136.53510217393
 20
2625.30380880889
 10
8149.69306598441
 20
2565.29119503833
 10
8173.92175315345
 20
2446.0119985613
 10
8191.41895071441
 20
2383.9122316312
 10
8200.69743027376
 20
2360.3386705081
 10
8217.14711142542
 20
2329.31095362837
 10
8227.62004912296
 20
2312.59917567493
 10
8232.38118374372
 20
2298.9029859934
  0
LWPOLYLINE
  5
2002E
100
AcDbEntity
  8
0
100
AcDbPolyline
 70
0
 90
2
 38
0
 10
8122.48546923348
 20
2695.92779949829
 10
8132.19698161469
 20
2640.68347814036
  0
LWPOLYLINE
  5
2002F
100
AcDbEntity
  8
0
100
AcDbPolyline
 70
0
 90
2
 38
0
 10
8120.38932322363
 20
2708.16769301994
 10
8122.48546923348
 20
2695.92779949829
  0
LWPOLYLINE
  5
20030
100
AcDbEntity
  8
0
100
AcDbPolyline
 70
0
 90
2
 38
0
 10
8117.23452885473
 20
2728.9720464238
 10
8120.38932322363
 20
2708.16769301994
  0
LWPOLYLINE
  5
20031
100
AcDbEntity
  8
0
100
AcDbPolyline
 70
0
 90
2
 38
0
 10
8286.05610262254
 20
2791.15891131116
 10
8173.38296682412
 20
2713.98814759133
  0
LWPOLYLINE
  5
20032
100
AcDbEntity
  8
0
100
AcDbPolyline
 70
0
 90
2
 38
0
 10
8185.40547182435
 20
2695.23307172824
 10
8298.61405437464
 20
2772.44382540006
  0
LWPOLYLINE
  5
20033
100
AcDbEntity
  8
0
100
AcDbPolyline
 70
0
 90
4
 38
-1.79769313486232e+308
 10
9054.24073913345
 20
3313.98557705022
 10
8879.13072733419
 20
3194.73547168132
 10
8514.5638477637
 20
2947.66500965143
 10
8286.05610262254
 20
2791.15891131116
  0
LWPOLYLINE
  5
20034
100
AcDbEntity
  8
0
100
AcDbPolyline
 70
0
 90
3
 38
-1.79769313486232e+308
 10
8298.61405437464
 20
2772.44382540006
 10
8897.95596641512
 20
3181.18321907716
 10
9080.35963125365
 20
3304.0195616466
  0
LWPOLYLINE
  5
20035
100
AcDbEntity
  8
0
100
AcDbPolyline
 70
0
 90
5
 38
-1.79769313486232e+308
 10
11394.7152219343
 20
2386.7195349765
 10
11752.0953151735
 20
2383.72852793019
 10
12097.2458491644
 20
2380.65601927657
 10
12376.4562827742
 20
2379.9302605019
 10
12431.6838052811
 20
2374.76767377736
  0
LWPOLYLINE
  5
20036
100
AcDbEntity
  8
0
100
AcDbPolyline
 70
0
 90
2
 38
0
 10
11320.866984945
 20
2386.65226318324
 10
11394.7152219343
 20
2386.7195349765
  0
LWPOLYLINE
  5
20037
100
AcDbEntity
  8
0
100
AcDbPolyline
 70
0
 90
7
 38
-1.79769313486232e+308
 10
11319.072514754
 20
2395.03536627125
 10
11000.0408728945
 20
2396.93967689024
 10
10998.1896297543
 20
2396.96296329899
 10
10614.0973115044
 20
2400.45075035524
 10
10594.4638929146
 20
2401.53227502396
 10
10471.8098515647
 20
2400.95140829505
 10
10283.377123114
 20
2396.99142446658
  0
LWPOLYLINE
  5
20038
100
AcDbEntity
  8
0
100
AcDbPolyline
 70
0
 90
2
 38
0
 10
11393.2213143746
 20
2395.11686869022
 10
11319.072514754
 20
2395.03536627125
  0
LWPOLYLINE
  5
20039
100
AcDbEntity
  8
0
100
AcDbPolyline
 70
0
 90
2
 38
0
 10
12109.5332945643
 20
2946.90040561333
 10
12113.4194579835
 20
2912.55537194814
  0
LWPOLYLINE
  5
2003A
100
AcDbEntity
  8
0
100
AcDbPolyline
 70
0
 90
12
 38
-1.79769313486232e+308
 10
12224.0532207137
 20
3457.5330463863
 10
12220.015662784
 20
3408.23940167027
 10
12217.4720124139
 20
3381.50835441621
 10
12210.8952569051
 20
3353.56896597017
 10
12199.5373292549
 20
3321.14538063211
 10
12123.897961654
 20
3102.54680552203
 10
12115.5267359449
 20
3075.05826805215
 10
12111.9366823642
 20
3051.75638807621
 10
12110.1410989838
 20
3031.44571257625
 10
12108.0427265747
 20
2991.11296686633
 10
12108.3421760036
 20
2967.51756228516
 10
12109.5332945643
 20
2946.90040561333
  0
LWPOLYLINE
  5
2003B
100
AcDbEntity
  8
0
100
AcDbPolyline
 70
0
 90
4
 38
-1.79769313486232e+308
 10
12076.0049771222
 20
2237.12607332002
 10
12073.3166114243
 20
2200.67689344995
 10
12072.1210400949
 20
2151.98716432331
 10
12071.8093455231
 20
1989.93997116396
  0
LWPOLYLINE
  5
2003C
100
AcDbEntity
  8
0
100
AcDbPolyline
 70
0
 90
2
 38
0
 10
12079.0050374048
 20
2261.03317066617
 10
12076.0049771222
 20
2237.12607332002
  0
LWPOLYLINE
  5
2003D
100
AcDbEntity
  8
0
100
AcDbPolyline
 70
0
 90
14
 38
-1.79769313486232e+308
 10
12113.4194579835
 20
2912.55537194814
 10
12126.2612744442
 20
2797.86949123684
 10
12129.2557687445
 20
2754.55416484699
 10
12131.3374432253
 20
2720.2057777565
 10
12132.5396937246
 20
2691.83705664994
 10
12131.3318772449
 20
2636.27320595654
 10
12128.3418357244
 20
2581.59967327826
 10
12122.3650922647
 20
2535.29663937315
 10
12111.5949315245
 20
2469.26359049147
 10
12098.4169302045
 20
2390.37679239372
 10
12097.2458491644
 20
2380.65601927657
 10
12095.7508284042
 20
2358.72932572998
 10
12083.4878733049
 20
2297.78265981385
 10
12079.0050374048
 20
2261.03317066617
  0
LWPOLYLINE
  5
2003E
100
AcDbEntity
  8
0
100
AcDbPolyline
 70
0
 90
2
 38
0
 10
11728.0837010148
 20
3283.38373776209
 10
11724.5537599644
 20
3478.42403622819
  0
LWPOLYLINE
  5
2003F
100
AcDbEntity
  8
0
100
AcDbPolyline
 70
0
 90
2
 38
0
 10
11728.6280533245
 20
3253.79500137698
 10
11728.0837010148
 20
3283.38373776209
  0
LWPOLYLINE
  5
20040
100
AcDbEntity
  8
0
100
AcDbPolyline
 70
0
 90
3
 38
-1.79769313486232e+308
 10
11749.9346038646
 20
2394.88141725827
 10
11742.1255415848
 20
2616.07187640304
 10
11735.6278229042
 20
2932.56699949698
  0
LWPOLYLINE
  5
20041
100
AcDbEntity
  8
0
100
AcDbPolyline
 70
0
 90
2
 38
0
 10
11735.1502622946
 20
2960.74349777503
 10
11728.6280533245
 20
3253.79500137698
  0
LWPOLYLINE
  5
20042
100
AcDbEntity
  8
0
100
AcDbPolyline
 70
0
 90
2
 38
0
 10
11735.6278229042
 20
2932.56699949698
 10
11735.1502622946
 20
2960.74349777503
  0
LWPOLYLINE
  5
20043
100
AcDbEntity
  8
0
100
AcDbPolyline
 70
0
 90
2
 38
0
 10
11389.7114108244
 20
3515.60276148384
 10
11310.7803258842
 20
3523.25562039865
  0
LWPOLYLINE
  5
20044
100
AcDbEntity
  8
0
100
AcDbPolyline
 70
0
 90
4
 38
-1.79769313486232e+308
 10
11389.7114108244
 20
3515.60276148384
 10
11724.5537599644
 20
3478.42403622819
 10
12224.0532207137
 20
3457.5330463863
 10
12375.294107294
 20
3452.33326929724
  0
LWPOLYLINE
  5
20045
100
AcDbEntity
  8
0
100
AcDbPolyline
 70
0
 90
2
 38
0
 10
10255.7999456546
 20
3628.50587024875
 10
9992.91674176442
 20
3651.33787387898
  0
LWPOLYLINE
  5
20046
100
AcDbEntity
  8
0
100
AcDbPolyline
 70
0
 90
2
 38
0
 10
10297.3777754644
 20
3623.78861555373
 10
10255.7999456546
 20
3628.50587024875
  0
LWPOLYLINE
  5
20047
100
AcDbEntity
  8
0
100
AcDbPolyline
 70
0
 90
5
 38
-1.79769313486232e+308
 10
11310.7803258842
 20
3523.25562039865
 10
11037.489862785
 20
3550.32724204902
 10
10650.0924688543
 20
3589.42231726376
 10
10634.9964327051
 20
3590.86103699133
 10
10297.3777754644
 20
3623.78861555373
  0
LWPOLYLINE
  5
20048
100
AcDbEntity
  8
0
100
AcDbPolyline
 70
0
 90
2
 38
0
 10
10641.2670596244
 20
3336.5673061233
 10
10641.8225438839
 20
3308.89583120691
  0
LWPOLYLINE
  5
20049
100
AcDbEntity
  8
0
100
AcDbPolyline
 70
0
 90
5
 38
-1.79769313486232e+308
 10
10623.0440589751
 20
4060.26770418379
 10
10630.0716584346
 20
3791.08146005319
 10
10630.3711078635
 20
3778.17677159151
 10
10634.9964327051
 20
3590.86103699133
 10
10641.2670596244
 20
3336.5673061233
  0
LWPOLYLINE
  5
2004A
100
AcDbEntity
  8
0
100
AcDbPolyline
 70
0
 90
4
 38
-1.79769313486232e+308
 10
10655.025035484
 20
3333.89822487403
 10
10650.0924688543
 20
3589.42231726376
 10
10646.2708707342
 20
3786.93989977343
 10
10636.0662130138
 20
4059.59101473875
  0
LWPOLYLINE
  5
2004B
100
AcDbEntity
  8
0
100
AcDbPolyline
 70
0
 90
2
 38
0
 10
10655.2788439246
 20
3305.52681908161
 10
10655.025035484
 20
3333.89822487403
  0
LWPOLYLINE
  5
2004C
100
AcDbEntity
  8
0
100
AcDbPolyline
 70
0
 90
2
 38
0
 10
9378.54669846432
 20
3507.83217106722
 10
9415.93112305389
 20
3533.45469560623
  0
LWPOLYLINE
  5
2004D
100
AcDbEntity
  8
0
100
AcDbPolyline
 70
0
 90
2
 38
0
 10
9370.63076946349
 20
3530.28616304193
 10
9101.50810811506
 20
3346.17884966833
  0
LWPOLYLINE
  5
2004E
100
AcDbEntity
  8
0
100
AcDbPolyline
 70
0
 90
2
 38
0
 10
9407.55655776361
 20
3555.54646698814
 10
9370.63076946349
 20
3530.28616304193
  0
LWPOLYLINE
  5
2004F
100
AcDbEntity
  8
0
100
AcDbPolyline
 70
0
 90
2
 38
0
 10
9127.4488890546
 20
3335.73410764905
 10
9378.54669846432
 20
3507.83217106722
  0
LWPOLYLINE
  5
20050
100
AcDbEntity
  8
0
100
AcDbPolyline
 70
0
 90
2
 38
0
 10
9101.50810811506
 20
3346.17884966833
 10
9054.24073913345
 20
3313.98557705022
  0
LWPOLYLINE
  5
20051
100
AcDbEntity
  8
0
100
AcDbPolyline
 70
0
 90
2
 38
0
 10
9080.35963125365
 20
3304.0195616466
 10
9127.4488890546
 20
3335.73410764905
  0
LWPOLYLINE
  5
20052
100
AcDbEntity
  8
0
100
AcDbPolyline
 70
0
 90
7
 38
-1.79769313486232e+308
 10
9415.93112305389
 20
3533.45469560623
 10
9690.89137850354
 20
3715.19059362644
 10
9876.79381493503
 20
3845.07842294369
 10
10226.8067842836
 20
4083.41231669029
 10
10539.696929835
 20
4285.15575909391
 10
10891.6145756638
 20
4492.98381104702
 10
11009.0432801137
 20
4555.78111103885
  0
LWPOLYLINE
  5
20053
100
AcDbEntity
  8
0
100
AcDbPolyline
 70
0
 90
9
 38
-1.79769313486232e+308
 10
11003.8502258642
 20
4579.51278354004
 10
10931.294408154
 20
4541.51055771215
 10
10665.333220335
 20
4387.19838112695
 10
10415.7660539227
 20
4234.33337059347
 10
10248.1289195439
 20
4123.17539916197
 10
10053.0771341736
 20
3995.08314118683
 10
9861.27253833437
 20
3865.73458060399
 10
9676.76382193366
 20
3737.91924916031
 10
9407.55655776361
 20
3555.54646698814
  0
LWPOLYLINE
  5
20054
100
AcDbEntity
  8
0
100
AcDbPolyline
 70
0
 90
7
 38
-1.79769313486232e+308
 10
8837.97034561472
 20
3123.07494881898
 10
8844.53930876428
 20
3114.59820717815
 10
8984.23970373371
 20
3082.92303429181
 10
8969.88171581389
 20
3014.78733487343
 10
9242.68237314397
 20
2924.52120358367
 10
9315.6756764541
 20
2942.59093771186
 10
9322.85912319483
 20
2958.13659653869
  0
LWPOLYLINE
  5
20055
100
AcDbEntity
  8
0
100
AcDbPolyline
 70
0
 90
2
 38
0
 10
8810.4477147034
 20
3164.54146108506
 10
8837.97034561472
 20
3123.07494881898
  0
LWPOLYLINE
  5
20056
100
AcDbEntity
  8
0
100
AcDbPolyline
 70
0
 90
6
 38
-1.79769313486232e+308
 10
10596.8787019297
 20
5091.10070526881
 10
10600.3682787048
 20
5048.52953165872
 10
10606.0667234345
 20
4905.14366953969
 10
10611.3087582646
 20
4773.51355120409
 10
10611.3532860542
 20
4768.03761922205
 10
10617.5827247633
 20
4559.34972234685
  0
LWPOLYLINE
  5
20057
100
AcDbEntity
  8
0
100
AcDbPolyline
 70
0
 90
4
 38
-1.79769313486232e+308
 10
10630.4590502644
 20
4559.64214666896
 10
10628.9918593748
 20
4768.81786174616
 10
10622.220294744
 20
5044.48848429006
 10
10618.383705188
 20
5091.10070526881
  0
LWPOLYLINE
  5
20058
100
AcDbEntity
  8
0
100
AcDbPolyline
 70
0
 90
3
 38
-1.79769313486232e+308
 10
10309.475977734
 20
586.109905433468
 10
10304.7471257637
 20
573.031310503929
 10
10287.0495834049
 20
524.663107055042
  0
LWPOLYLINE
  5
20059
100
AcDbEntity
  8
0
100
AcDbPolyline
 70
0
 90
2
 38
0
 10
10322.052853795
 20
584.25502327187
 10
10309.475977734
 20
586.109905433468
  0
LWPOLYLINE
  5
2005A
100
AcDbEntity
  8
0
100
AcDbPolyline
 70
0
 90
7
 38
-1.79769313486232e+308
 10
10322.052853795
 20
584.25502327187
 10
10408.4022696151
 20
811.185208688117
 10
10446.1529353245
 20
943.930090938788
 10
10470.3894148639
 20
1073.58737620022
 10
10500.0438140149
 20
1332.45839571031
 10
10516.6660403835
 20
1477.50570601188
 10
10557.5202935042
 20
1834.16639798004
  0
LWPOLYLINE
  5
2005B
100
AcDbEntity
  8
0
100
AcDbPolyline
 70
0
 90
6
 38
-1.79769313486232e+308
 10
11742.1255415848
 20
2616.07187640304
 10
11774.7154357138
 20
2618.19873915017
 10
11869.7756016741
 20
2633.55511290217
 10
11945.4060637264
 20
2640.22550319145
 10
12038.9667561541
 20
2639.44927450186
 10
12131.3318772449
 20
2636.27320595654
  0
LWPOLYLINE
  5
2005C
100
AcDbEntity
  8
0
100
AcDbPolyline
 70
0
 90
5
 38
-1.79769313486232e+308
 10
10997.0619633144
 20
2363.34907725137
 10
10997.8879539336
 20
2387.86315550385
 10
10998.1896297543
 20
2396.96296329899
 10
11024.1292975044
 20
3163.01093279626
 10
11037.489862785
 20
3550.32724204902
  0
LWPOLYLINE
  5
2005D
100
AcDbEntity
  8
0
100
AcDbPolyline
 70
0
 90
9
 38
-1.79769313486232e+308
 10
8621.07099696459
 20
2326.08062911881
 10
8731.60568535352
 20
2377.21092941901
 10
8841.11178164394
 20
2422.71905167131
 10
8859.90473807441
 20
2429.22891172124
 10
8905.26409099461
 20
2425.43839264019
 10
8990.46135007428
 20
2411.0499548913
 10
9100.61755218381
 20
2401.88674605135
 10
9170.21004505479
 20
2402.23086756337
 10
9653.49804835418
 20
2401.14546176521
  0
LWPOLYLINE
  5
2005E
100
AcDbEntity
  8
0
100
AcDbPolyline
 70
0
 90
6
 38
-1.79769313486232e+308
 10
9740.28494976485
 20
2957.94770942498
 10
9734.31933825487
 20
2644.83630259018
 10
9729.84429472523
 20
2603.95497545144
 10
9716.44810720371
 20
2548.18581573348
 10
9513.91342565441
 20
2101.39723957805
 10
9440.27892208496
 20
1662.48848127117
  0
LWPOLYLINE
  5
2005F
100
AcDbEntity
  8
0
100
AcDbPolyline
 70
0
 90
5
 38
-1.79769313486232e+308
 10
10064.7378508246
 20
4281.14859924661
 10
10085.6993109437
 20
4566.16346961129
 10
10097.0694837349
 20
4687.45163836991
 10
10123.3932037244
 20
4795.04594309032
 10
10606.0667234345
 20
4905.14366953969
  0
LWPOLYLINE
  5
20060
100
AcDbEntity
  8
0
100
AcDbPolyline
 70
0
 90
16
 38
-1.79769313486232e+308
 10
7927.53164501512
 20
4476.09058503723
 10
8058.72945727432
 20
4488.06049948847
 10
8202.93049926335
 20
4480.00594007652
 10
8253.7957141942
 20
4520.73424491202
 10
8370.48080443429
 20
4568.17679936495
 10
8515.28185847426
 20
4607.91036826009
 10
8465.63002600358
 20
4828.26006342992
 10
8657.69844902331
 20
4878.23862368343
 10
8796.50272209408
 20
4888.68465322871
 10
9033.42733393447
 20
4885.57788693402
 10
9102.82835727395
 20
4849.27626630626
 10
9346.91415195377
 20
4721.30208647214
 10
9608.3424101139
 20
4610.08803233653
 10
9852.40260131495
 20
4598.59545650529
 10
9979.82334325486
 20
4576.7179274518
 10
10085.6993109437
 20
4566.16346961129
  0
LWPOLYLINE
  5
20061
100
AcDbEntity
  8
0
100
AcDbPolyline
 70
0
 90
2
 38
0
 10
12871.9191089201
 20
5091.10070526881
 10
12122.11369083
 20
499.756781789882
  0
LWPOLYLINE
  5
20062
100
AcDbEntity
  8
0
100
AcDbPolyline
 70
0
 90
2
 38
0
 10
11093.952008501
 20
1678.51560112648
 10
11113.2661138821
 20
1832.26111440692
  0
LWPOLYLINE
  5
20063
100
AcDbEntity
  8
0
100
AcDbPolyline
 70
0
 90
2
 38
0
 10
11114.5536723844
 20
1767.28908291156
 10
11017.325173243
 20
2122.87804710039
  0
LWPOLYLINE
  5
20064
100
AcDbEntity
  8
0
100
AcDbPolyline
 70
0
 90
2
 38
0
 10
10931.0558422023
 20
2289.48906156223
 10
11037.2826939524
 20
2070.77209174237
  0
LWPOLYLINE
  5
20065
100
AcDbEntity
  8
0
100
AcDbPolyline
 70
0
 90
2
 38
0
 10
10911.0975936473
 20
2118.37499232177
 10
11007.0239773785
 20
2169.8378594814
  0
LWPOLYLINE
  5
20066
100
AcDbEntity
  8
0
100
AcDbPolyline
 70
0
 90
2
 38
0
 10
10576.3207375036
 20
2122.87804710039
 10
10948.438245907
 20
2124.80788665148
  0
LWPOLYLINE
  5
20067
100
AcDbEntity
  8
0
100
AcDbPolyline
 70
0
 90
2
 38
0
 10
10847.3616281663
 20
2198.78574022604
 10
10882.359346102
 20
1940.36490175675
  0
LWPOLYLINE
  5
20068
100
AcDbEntity
  8
0
100
AcDbPolyline
 70
0
 90
2
 38
0
 10
10871.4009058466
 20
1948.73827232211
 10
10946.820973441
 20
1957.11135540949
  0
LWPOLYLINE
  5
20069
100
AcDbEntity
  8
0
100
AcDbPolyline
 70
0
 90
2
 38
0
 10
10912.6559106364
 20
1949.38222295442
 10
11360.1039616507
 20
2198.15760088159
  0
LWPOLYLINE
  5
2006A
100
AcDbEntity
  8
0
100
AcDbPolyline
 70
0
 90
2
 38
0
 10
11329.1821779228
 20
2392.83393874834
 10
11365.658149854
 20
1956.33142770175
  0
LWPOLYLINE
  5
2006B
100
AcDbEntity
  8
0
100
AcDbPolyline
 70
0
 90
2
 38
0
 10
11367.4108015634
 20
1988.81528736471
 10
11237.4663797971
 20
1589.92208054493
  0
LWPOLYLINE
  5
2006C
100
AcDbEntity
  8
0
100
AcDbPolyline
 70
0
 90
2
 38
0
 10
11254.8393215118
 20
1626.41539532773
 10
11169.867738809
 20
1484.56428267702
  0
LWPOLYLINE
  5
2006D
100
AcDbEntity
  8
0
100
AcDbPolyline
 70
0
 90
2
 38
0
 10
11186.4473290439
 20
1529.08714438399
 10
11109.2214770264
 20
1209.18943146721
  0
LWPOLYLINE
  5
2006E
100
AcDbEntity
  8
0
100
AcDbPolyline
 70
0
 90
2
 38
0
 10
10804.7906789038
 20
1909.76114795764
 10
10882.9328882726
 20
1958.2543677818
  0
LWPOLYLINE
  5
2006F
100
AcDbEntity
  8
0
100
AcDbPolyline
 70
0
 90
2
 38
0
 10
10556.3246409881
 20
1876.68077152595
 10
10619.5642159104
 20
1855.8351696296
  0
LWPOLYLINE
  5
20070
100
AcDbEntity
  8
0
100
AcDbPolyline
 70
0
 90
2
 38
0
 10
10590.2262237602
 20
1859.74371998518
 10
10820.3658424946
 20
1899.48093607806
  0
LWPOLYLINE
  5
20071
100
AcDbEntity
  8
0
100
AcDbPolyline
 70
0
 90
2
 38
0
 10
10804.0664727365
 20
1889.05813512986
 10
10817.105822974
 20
1919.67540039314
  0
LWPOLYLINE
  5
20072
100
AcDbEntity
  8
0
100
AcDbPolyline
 70
0
 90
2
 38
0
 10
10795.2005879895
 20
2162.59830199357
 10
10785.3557511873
 20
1987.49720091425
  0
LWPOLYLINE
  5
20073
100
AcDbEntity
  8
0
100
AcDbPolyline
 70
0
 90
2
 38
0
 10
10675.0689778281
 20
2075.56808656303
 10
10801.7453737743
 20
2084.9591291098
  0
LWPOLYLINE
  5
20074
100
AcDbEntity
  8
0
100
AcDbPolyline
 70
0
 90
2
 38
0
 10
10682.4245833821
 20
2086.18407270091
 10
10672.5935756424
 20
1922.68874437862
  0
LWPOLYLINE
  5
20075
100
AcDbEntity
  8
0
100
AcDbPolyline
 70
0
 90
2
 38
0
 10
10667.28103211
 20
1940.24588588096
 10
10718.360494031
 20
1872.05870087159
  0
LWPOLYLINE
  5
20076
100
AcDbEntity
  8
0
100
AcDbPolyline
 70
0
 90
2
 38
0
 10
10780.2157070134
 20
2064.52318330761
 10
10867.5840845993
 20
2064.11323973548
  0
LWPOLYLINE
  5
20077
100
AcDbEntity
  8
0
100
AcDbPolyline
 70
0
 90
2
 38
0
 10
10776.5240751739
 20
2022.30848214822
 10
10884.8114572351
 20
2011.65224909585
  0
LWPOLYLINE
  5
20078
100
AcDbEntity
  8
0
100
AcDbPolyline
 70
0
 90
2
 38
0
 10
10662.9685481492
 20
1989.95944964886
 10
10798.0872228231
 20
1996.11492774636
  0
LWPOLYLINE
  5
20079
100
AcDbEntity
  8
0
100
AcDbPolyline
 70
0
 90
2
 38
0
 10
10935.543736903
 20
2075.80985552812
 10
10950.2163722051
 20
2010.99277465366
  0
LWPOLYLINE
  5
2007A
100
AcDbEntity
  8
0
100
AcDbPolyline
 70
0
 90
2
 38
0
 10
10946.3551523888
 20
2019.22355615045
 10
10984.710421128
 20
1977.55535059457
  0
LWPOLYLINE
  5
2007B
100
AcDbEntity
  8
0
100
AcDbPolyline
 70
0
 90
2
 38
0
 10
10933.9992489765
 20
2065.52159426559
 10
10969.0078845931
 20
2097.15854385594
  0
LWPOLYLINE
  5
2007C
100
AcDbEntity
  8
0
100
AcDbPolyline
 70
0
 90
2
 38
0
 10
10965.1466647767
 20
2082.24016255618
 10
10946.0974951192
 20
2146.02864728676
  0
LWPOLYLINE
  5
2007D
100
AcDbEntity
  8
0
100
AcDbPolyline
 70
0
 90
2
 38
0
 10
10955.3651505238
 20
2101.7932635406
 10
11013.8730025381
 20
2133.98504559533
  0
LWPOLYLINE
  5
2007E
100
AcDbEntity
  8
0
100
AcDbPolyline
 70
0
 90
2
 38
0
 10
10986.8095272449
 20
2129.3494634768
 10
10995.3151285218
 20
2046.42328341521
  0
LWPOLYLINE
  5
2007F
100
AcDbEntity
  8
0
100
AcDbPolyline
 70
0
 90
2
 38
0
 10
10999.1814432559
 20
2056.98234891682
 10
10937.0656616223
 20
2025.82060039579
  0
LWPOLYLINE
  5
20080
100
AcDbEntity
  8
0
100
AcDbPolyline
 70
0
 90
2
 38
0
 10
10890.5577966225
 20
2045.07587421278
 10
10938.9376799762
 20
2075.06270030787
  0
LWPOLYLINE
  5
20081
100
AcDbEntity
  8
0
100
AcDbPolyline
 70
0
 90
2
 38
0
 10
10903.493792814
 20
2064.72240553447
 10
10910.9964231376
 20
1990.27193819231
  0
LWPOLYLINE
  5
20082
100
AcDbEntity
  8
0
100
AcDbPolyline
 70
0
 90
2
 38
0
 10
10993.0347889017
 20
2136.37714970752
 10
11104.2146285595
 20
2184.87583161291
  0
LWPOLYLINE
  5
20083
100
AcDbEntity
  8
0
100
AcDbPolyline
 70
0
 90
2
 38
0
 10
11085.1319780139
 20
2201.45641048223
 10
11109.6079629307
 20
2101.55753161269
  0
LWPOLYLINE
  5
20084
100
AcDbEntity
  8
0
100
AcDbPolyline
 70
0
 90
2
 38
0
 10
11027.882570686
 20
2051.40067682922
 10
11119.9790319529
 20
2114.82205220376
  0
LWPOLYLINE
  5
20085
100
AcDbEntity
  8
0
100
AcDbPolyline
 70
0
 90
2
 38
0
 10
11042.8172303301
 20
2171.19648032432
 10
11073.9304373969
 20
2105.2881331105
  0
LWPOLYLINE
  5
20086
100
AcDbEntity
  8
0
100
AcDbPolyline
 70
0
 90
2
 38
0
 10
11053.1882993523
 20
2110.67690748646
 10
11137.4029228452
 20
2122.28325519938
  0
LWPOLYLINE
  5
20087
100
AcDbEntity
  8
0
100
AcDbPolyline
 70
0
 90
2
 38
0
 10
11158.7600902477
 20
2392.12329322915
 10
11189.5370327423
 20
2203.45754456765
  0
LWPOLYLINE
  5
20088
100
AcDbEntity
  8
0
100
AcDbPolyline
 70
0
 90
2
 38
0
 10
11084.3146076362
 20
2289.47928731155
 10
11314.3057459103
 20
2287.4013966106
  0
LWPOLYLINE
  5
20089
100
AcDbEntity
  8
0
100
AcDbPolyline
 70
0
 90
2
 38
0
 10
11294.3715162534
 20
2274.18632222881
 10
11287.3012260939
 20
2366.02604394418
  0
LWPOLYLINE
  5
2008A
100
AcDbEntity
  8
0
100
AcDbPolyline
 70
0
 90
2
 38
0
 10
11270.6655917637
 20
2354.39008600125
 10
11348.8536553923
 20
2355.63687791739
  0
LWPOLYLINE
  5
2008B
100
AcDbEntity
  8
0
100
AcDbPolyline
 70
0
 90
2
 38
0
 10
11229.3953022206
 20
2277.27642282983
 10
11228.9789746552
 20
2390.03591575549
  0
LWPOLYLINE
  5
2008C
100
AcDbEntity
  8
0
100
AcDbPolyline
 70
0
 90
2
 38
0
 10
11014.9392960407
 20
2330.11947167944
 10
11304.767332019
 20
2325.95851567428
  0
LWPOLYLINE
  5
2008D
100
AcDbEntity
  8
0
100
AcDbPolyline
 70
0
 90
2
 38
0
 10
11106.9680676858
 20
2254.39173975727
 10
11090.7276534046
 20
2391.70012567076
  0
LWPOLYLINE
  5
2008E
100
AcDbEntity
  8
0
100
AcDbPolyline
 70
0
 90
2
 38
0
 10
10924.6551698055
 20
2269.87329038233
 10
11009.4018482815
 20
2302.82717651129
  0
LWPOLYLINE
  5
2008F
100
AcDbEntity
  8
0
100
AcDbPolyline
 70
0
 90
2
 38
0
 10
10989.3628088879
 20
2308.66700380773
 10
11018.5858014658
 20
2244.01091059134
  0
LWPOLYLINE
  5
20090
100
AcDbEntity
  8
0
100
AcDbPolyline
 70
0
 90
2
 38
0
 10
10993.9555133253
 20
2249.85102536582
 10
11186.4087532379
 20
2267.78763777646
  0
LWPOLYLINE
  5
20091
100
AcDbEntity
  8
0
100
AcDbPolyline
 70
0
 90
2
 38
0
 10
10801.3530651069
 20
2282.89834183204
 10
10932.1337812311
 20
2270.91424807854
  0
LWPOLYLINE
  5
20092
100
AcDbEntity
  8
0
100
AcDbPolyline
 70
0
 90
2
 38
0
 10
10835.9824932731
 20
2254.6838173655
 10
10823.087984269
 20
2395.57015397959
  0
LWPOLYLINE
  5
20093
100
AcDbEntity
  8
0
100
AcDbPolyline
 70
0
 90
2
 38
0
 10
10912.2315767716
 20
2291.09433849552
 10
10914.2426135958
 20
2140.40787819639
  0
LWPOLYLINE
  5
20094
100
AcDbEntity
  8
0
100
AcDbPolyline
 70
0
 90
2
 38
0
 10
10642.8945721766
 20
2148.34428226133
 10
10926.5279160048
 20
2156.30972160021
  0
LWPOLYLINE
  5
20095
100
AcDbEntity
  8
0
100
AcDbPolyline
 70
0
 90
2
 38
0
 10
10733.7114812405
 20
2395.64087355795
 10
10725.6280302922
 20
2110.24770289089
  0
LWPOLYLINE
  5
20096
100
AcDbEntity
  8
0
100
AcDbPolyline
 70
0
 90
2
 38
0
 10
10584.8379843067
 20
2194.38474012358
 10
10751.2263528069
 20
2194.38474012358
  0
LWPOLYLINE
  5
20097
100
AcDbEntity
  8
0
100
AcDbPolyline
 70
0
 90
2
 38
0
 10
10600.3316292135
 20
2333.04283506324
 10
10753.2468516213
 20
2322.94632160058
  0
LWPOLYLINE
  5
20098
100
AcDbEntity
  8
0
100
AcDbPolyline
 70
0
 90
2
 38
0
 10
10618.7133646446
 20
2084.4267199263
 10
10689.4912343146
 20
2082.30944474472
  0
LWPOLYLINE
  5
20099
100
AcDbEntity
  8
0
100
AcDbPolyline
 70
0
 90
2
 38
0
 10
10625.0703663176
 20
2091.57198464294
 10
10604.7270875492
 20
1923.02653098263
  0
LWPOLYLINE
  5
2009A
100
AcDbEntity
  8
0
100
AcDbPolyline
 70
0
 90
2
 38
0
 10
10599.6416317797
 20
1939.54242731078
 10
10649.6584394252
 20
1856.8899262679
  0
LWPOLYLINE
  5
2009B
100
AcDbEntity
  8
0
100
AcDbPolyline
 70
0
 90
2
 38
0
 10
11005.9474940405
 20
1712.05881707516
 10
11019.5436460045
 20
1854.28221368516
  0
LWPOLYLINE
  5
2009C
100
AcDbEntity
  8
0
100
AcDbPolyline
 70
0
 90
2
 38
0
 10
11003.3978516245
 20
1834.32836842333
 10
11098.1480371987
 20
1873.81145399885
  0
LWPOLYLINE
  5
2009D
100
AcDbEntity
  8
0
100
AcDbPolyline
 70
0
 90
2
 38
0
 10
10420.675367022
 20
1855.7802613391
 10
10533.2330180111
 20
1899.40389198455
  0
LWPOLYLINE
  5
2009E
100
AcDbEntity
  8
0
100
AcDbPolyline
 70
0
 90
2
 38
0
 10
10513.4501801962
 20
1872.13919470063
 10
10531.1863167626
 20
1986.65115327551
  0
LWPOLYLINE
  5
2009F
100
AcDbEntity
  8
0
100
AcDbPolyline
 70
0
 90
2
 38
0
 10
10423.404059405
 20
1985.28793278523
 10
10559.8372228607
 20
1957.34162525611
  0
LWPOLYLINE
  5
200A0
100
AcDbEntity
  8
0
100
AcDbPolyline
 70
0
 90
2
 38
0
 10
10411.1274911406
 20
2139.53710745304
 10
10581.6689454603
 20
2106.81924072996
  0
LWPOLYLINE
  5
200A1
100
AcDbEntity
  8
0
100
AcDbPolyline
 70
0
 90
2
 38
0
 10
10441.1423795074
 20
1962.31614389049
 10
10452.7391401735
 20
2149.07965088513
  0
LWPOLYLINE
  5
200A2
100
AcDbEntity
  8
0
100
AcDbPolyline
 70
0
 90
2
 38
0
 10
10413.9078605466
 20
1886.5964613512
 10
10402.2965429726
 20
1763.06804401253
  0
LWPOLYLINE
  5
200A3
100
AcDbEntity
  8
0
100
AcDbPolyline
 70
0
 90
2
 38
0
 10
10398.1987734031
 20
1786.27211509965
 10
10430.3054894329
 20
1677.60630833637
  0
LWPOLYLINE
  5
200A4
100
AcDbEntity
  8
0
100
AcDbPolyline
 70
0
 90
2
 38
0
 10
10358.5879713589
 20
1652.35481921217
 10
10434.4039868478
 20
1696.03335814818
  0
LWPOLYLINE
  5
200A5
100
AcDbEntity
  8
0
100
AcDbPolyline
 70
0
 90
2
 38
0
 10
10400.2527531056
 20
1750.63145994872
 10
10486.9966393433
 20
1749.26651459065
  0
LWPOLYLINE
  5
200A6
100
AcDbEntity
  8
0
100
AcDbPolyline
 70
0
 90
2
 38
0
 10
10456.943903016
 20
1740.39436976321
 10
10532.7591906595
 20
1790.89763548953
  0
LWPOLYLINE
  5
200A7
100
AcDbEntity
  8
0
100
AcDbPolyline
 70
0
 90
2
 38
0
 10
10506.1215049218
 20
1789.53269013145
 10
10545.7366740385
 20
1761.55102281319
  0
LWPOLYLINE
  5
200A8
100
AcDbEntity
  8
0
100
AcDbPolyline
 70
0
 90
2
 38
0
 10
10345.3826723716
 20
1870.89412765222
 10
10363.2083339214
 20
1952.41597787512
  0
LWPOLYLINE
  5
200A9
100
AcDbEntity
  8
0
100
AcDbPolyline
 70
0
 90
2
 38
0
 10
10269.9655161586
 20
1960.63669764326
 10
10420.1141982231
 20
1922.27362620318
  0
LWPOLYLINE
  5
200AA
100
AcDbEntity
  8
0
100
AcDbPolyline
 70
0
 90
2
 38
0
 10
10315.2156643174
 20
1911.99772649299
 10
10310.4162517878
 20
1798.27805717819
  0
LWPOLYLINE
  5
200AB
100
AcDbEntity
  8
0
100
AcDbPolyline
 70
0
 90
2
 38
0
 10
10208.9465975342
 20
1840.06642852165
 10
10317.9581857628
 20
1818.14479661785
  0
LWPOLYLINE
  5
200AC
100
AcDbEntity
  8
0
100
AcDbPolyline
 70
0
 90
2
 38
0
 10
10212.3747493411
 20
1765.39517810557
 10
10250.7685938862
 20
1921.58856622252
  0
LWPOLYLINE
  5
200AD
100
AcDbEntity
  8
0
100
AcDbPolyline
 70
0
 90
2
 38
0
 10
10117.7606708556
 20
1754.43421841465
 10
10229.5147805295
 20
1775.67107781576
  0
LWPOLYLINE
  5
200AE
100
AcDbEntity
  8
0
100
AcDbPolyline
 70
0
 90
2
 38
0
 10
10137.8521151176
 20
1948.24352275149
 10
10069.8917349685
 20
1834.38040193421
  0
LWPOLYLINE
  5
200AF
100
AcDbEntity
  8
0
100
AcDbPolyline
 70
0
 90
2
 38
0
 10
10069.2046489164
 20
1869.36244507687
 10
10238.7635119539
 20
1801.45612603525
  0
LWPOLYLINE
  5
200B0
100
AcDbEntity
  8
0
100
AcDbPolyline
 70
0
 90
2
 38
0
 10
10196.2020246815
 20
1905.71633304865
 10
10216.1100519041
 20
1978.4238215143
  0
LWPOLYLINE
  5
200B1
100
AcDbEntity
  8
0
100
AcDbPolyline
 70
0
 90
2
 38
0
 10
9921.61361556733
 20
2007.2325629259
 10
9796.79274165777
 20
1552.67331336118
  0
LWPOLYLINE
  5
200B2
100
AcDbEntity
  8
0
100
AcDbPolyline
 70
0
 90
2
 38
0
 10
9850.57081017364
 20
1683.11409858806
 10
9068.9165338045
 20
1720.4629477823
  0
LWPOLYLINE
  5
200B3
100
AcDbEntity
  8
0
100
AcDbPolyline
 70
0
 90
2
 38
0
 10
9458.37932579766
 20
1896.0369501072
 10
9832.00638554874
 20
1810.13882288645
  0
LWPOLYLINE
  5
200B4
100
AcDbEntity
  8
0
100
AcDbPolyline
 70
0
 90
2
 38
0
 10
9530.07428066444
 20
1735.5423167402
 10
9578.5684357452
 20
2035.0848651618
  0
LWPOLYLINE
  5
200B5
100
AcDbEntity
  8
0
100
AcDbPolyline
 70
0
 90
2
 38
0
 10
9473.86496440508
 20
2050.50259567954
 10
9849.69594000978
 20
1940.37668835314
  0
LWPOLYLINE
  5
200B6
100
AcDbEntity
  8
0
100
AcDbPolyline
 70
0
 90
2
 38
0
 10
9847.49202415615
 20
2031.78116843582
 10
9781.36290301883
 20
1713.51690529252
  0
LWPOLYLINE
  5
200B7
100
AcDbEntity
  8
0
100
AcDbPolyline
 70
0
 90
2
 38
0
 10
9429.77936887717
 20
1744.35236632807
 10
9801.20178492914
 20
1731.13729194622
  0
LWPOLYLINE
  5
200B8
100
AcDbEntity
  8
0
100
AcDbPolyline
 70
0
 90
2
 38
0
 10
9617.14351379348
 20
1677.17537887307
 10
9664.53571094724
 20
2018.56609405403
  0
LWPOLYLINE
  5
200B9
100
AcDbEntity
  8
0
100
AcDbPolyline
 70
0
 90
2
 38
0
 10
9713.02986602799
 20
1677.17537887307
 10
9773.64774184011
 20
1973.41451804666
  0
LWPOLYLINE
  5
200BA
100
AcDbEntity
  8
0
100
AcDbPolyline
 70
0
 90
2
 38
0
 10
9477.17156603106
 20
1995.43964201631
 10
9845.28738045704
 20
1893.02245620987
  0
LWPOLYLINE
  5
200BB
100
AcDbEntity
  8
0
100
AcDbPolyline
 70
0
 90
2
 38
0
 10
9469.45640485233
 20
1960.19915618689
 10
9836.47026135144
 20
1857.7819703804
  0
LWPOLYLINE
  5
200BC
100
AcDbEntity
  8
0
100
AcDbPolyline
 70
0
 90
2
 38
0
 10
9446.31164916151
 20
1850.07324886048
 10
9823.24458269309
 20
1788.40261426743
  0
LWPOLYLINE
  5
200BD
100
AcDbEntity
  8
0
100
AcDbPolyline
 70
0
 90
2
 38
0
 10
9446.31164916151
 20
1804.92167285318
 10
9804.50838655513
 20
1765.27616222977
  0
LWPOLYLINE
  5
200BE
100
AcDbEntity
  8
0
100
AcDbPolyline
 70
0
 90
2
 38
0
 10
9670.03822212759
 20
2043.07531508332
 10
9777.93984612986
 20
2374.81309529516
  0
LWPOLYLINE
  5
200BF
100
AcDbEntity
  8
0
100
AcDbPolyline
 70
0
 90
2
 38
0
 10
9790.39036944334
 20
2356.843997875
 10
9594.64581265813
 20
2358.9175764065
  0
LWPOLYLINE
  5
200C0
100
AcDbEntity
  8
0
100
AcDbPolyline
 70
0
 90
2
 38
0
 10
9363.05414236209
 20
2152.00991373998
 10
9265.28776547429
 20
1698.62583439902
  0
LWPOLYLINE
  5
200C1
100
AcDbEntity
  8
0
100
AcDbPolyline
 70
0
 90
2
 38
0
 10
9390.1030607475
 20
1680.61160293897
 10
9465.68034294702
 20
2131.0694441165
  0
LWPOLYLINE
  5
200C2
100
AcDbEntity
  8
0
100
AcDbPolyline
 70
0
 90
2
 38
0
 10
9403.27269531053
 20
1886.48894459387
 10
9496.19089402736
 20
1874.01728821878
  0
LWPOLYLINE
  5
200C3
100
AcDbEntity
  8
0
100
AcDbPolyline
 70
0
 90
2
 38
0
 10
9292.32576617878
 20
1928.06055755488
 10
9435.16979186679
 20
1887.87458836508
  0
LWPOLYLINE
  5
200C4
100
AcDbEntity
  8
0
100
AcDbPolyline
 70
0
 90
2
 38
0
 10
9072.51209005201
 20
1947.46072026412
 10
9321.44904393772
 20
1884.41019145906
  0
LWPOLYLINE
  5
200C5
100
AcDbEntity
  8
0
100
AcDbPolyline
 70
0
 90
2
 38
0
 10
9084.99391071743
 20
1871.24571319832
 10
9429.6228821174
 20
1858.7743443012
  0
LWPOLYLINE
  5
200C6
100
AcDbEntity
  8
0
100
AcDbPolyline
 70
0
 90
2
 38
0
 10
9155.72228690074
 20
1835.21696280025
 10
9436.55706518819
 20
1820.6668407683
  0
LWPOLYLINE
  5
200C7
100
AcDbEntity
  8
0
100
AcDbPolyline
 70
0
 90
2
 38
0
 10
9152.25555928808
 20
1801.26667805907
 10
9419.2212435886
 20
1791.56659670442
  0
LWPOLYLINE
  5
200C8
100
AcDbEntity
  8
0
100
AcDbPolyline
 70
0
 90
2
 38
0
 10
9147.40155835403
 20
1766.6235714322
 10
9414.36724265455
 20
1756.23066819197
  0
LWPOLYLINE
  5
200C9
100
AcDbEntity
  8
0
100
AcDbPolyline
 70
0
 90
2
 38
0
 10
9154.33574142481
 20
1701.49457697023
 10
9186.22919875407
 20
2111.73885107378
  0
LWPOLYLINE
  5
200CA
100
AcDbEntity
  8
0
100
AcDbPolyline
 70
0
 90
2
 38
0
 10
9173.58652425651
 20
2097.03780311241
 10
9458.26505407074
 20
2019.73670431052
  0
LWPOLYLINE
  5
200CB
100
AcDbEntity
  8
0
100
AcDbPolyline
 70
0
 90
2
 38
0
 10
9097.96265995165
 20
2082.27236008778
 10
9459.56862517178
 20
1983.69185514667
  0
LWPOLYLINE
  5
200CC
100
AcDbEntity
  8
0
100
AcDbPolyline
 70
0
 90
2
 38
0
 10
9091.00809720985
 20
2053.17585323739
 10
9446.09547907941
 20
1955.0297274951
  0
LWPOLYLINE
  5
200CD
100
AcDbEntity
  8
0
100
AcDbPolyline
 70
0
 90
2
 38
0
 10
9075.36233261577
 20
2022.34240454755
 10
9442.61856163118
 20
1918.55078661034
  0
LWPOLYLINE
  5
200CE
100
AcDbEntity
  8
0
100
AcDbPolyline
 70
0
 90
2
 38
0
 10
9070.58111622115
 20
1988.03478470107
 10
9326.57380335836
 20
1912.90500693739
  0
LWPOLYLINE
  5
200CF
100
AcDbEntity
  8
0
100
AcDbPolyline
 70
0
 90
2
 38
0
 10
9709.27709517535
 20
2761.35107431404
 10
10642.4214726704
 20
2817.59010031505
  0
LWPOLYLINE
  5
200D0
100
AcDbEntity
  8
0
100
AcDbPolyline
 70
0
 90
2
 38
0
 10
10483.5240889675
 20
2975.65755725867
 10
10484.9302862692
 20
2796.51451605
  0
LWPOLYLINE
  5
200D1
100
AcDbEntity
  8
0
100
AcDbPolyline
 70
0
 90
2
 38
0
 10
10456.8063402364
 20
2830.93798951473
 10
10607.267267975
 20
2833.04549044563
  0
LWPOLYLINE
  5
200D2
100
AcDbEntity
  8
0
100
AcDbPolyline
 70
0
 90
2
 38
0
 10
10588.2836044029
 20
2966.52466992079
 10
10586.8774071013
 20
2823.91289058572
  0
LWPOLYLINE
  5
200D3
100
AcDbEntity
  8
0
100
AcDbPolyline
 70
0
 90
2
 38
0
 10
10544.6922158977
 20
2854.82367084699
 10
10543.2860185961
 20
2789.48912964301
  0
LWPOLYLINE
  5
200D4
100
AcDbEntity
  8
0
100
AcDbPolyline
 70
0
 90
2
 38
0
 10
10461.7280307922
 20
2821.80538965482
 10
10463.1342280938
 20
2637.04215431173
  0
LWPOLYLINE
  5
200D5
100
AcDbEntity
  8
0
100
AcDbPolyline
 70
0
 90
2
 38
0
 10
10581.2526178948
 20
2659.52264337137
 10
9925.27395005478
 20
2604.72589429992
  0
LWPOLYLINE
  5
200D6
100
AcDbEntity
  8
0
100
AcDbPolyline
 70
0
 90
2
 38
0
 10
10295.8003884265
 20
2972.14486405521
 10
10288.0663032675
 20
2625.80176604289
  0
LWPOLYLINE
  5
200D7
100
AcDbEntity
  8
0
100
AcDbPolyline
 70
0
 90
2
 38
0
 10
10073.6248539955
 20
2970.73995926057
 10
10074.3279526463
 20
2775.43893178494
  0
LWPOLYLINE
  5
200D8
100
AcDbEntity
  8
0
100
AcDbPolyline
 70
0
 90
2
 38
0
 10
10046.0970133407
 20
2792.11610324914
 10
10062.267554464
 20
2593.30238257005
  0
LWPOLYLINE
  5
200D9
100
AcDbEntity
  8
0
100
AcDbPolyline
 70
0
 90
2
 38
0
 10
10067.1892450198
 20
2678.30731576646
 10
9927.27552488889
 20
2681.82000896998
  0
LWPOLYLINE
  5
200DA
100
AcDbEntity
  8
0
100
AcDbPolyline
 70
0
 90
2
 38
0
 10
9726.89604863327
 20
2678.30731576646
 10
9957.50803902862
 20
2693.76299337507
  0
LWPOLYLINE
  5
200DB
100
AcDbEntity
  8
0
100
AcDbPolyline
 70
0
 90
2
 38
0
 10
9824.62530540594
 20
2780.87571498036
 10
9842.20204383088
 20
2601.73267377162
  0
LWPOLYLINE
  5
200DC
100
AcDbEntity
  8
0
100
AcDbPolyline
 70
0
 90
2
 38
0
 10
9719.16196347424
 20
2600.32748149906
 10
9949.0708552188
 20
2618.5929686969
  0
LWPOLYLINE
  5
200DD
100
AcDbEntity
  8
0
100
AcDbPolyline
 70
0
 90
2
 38
0
 10
9801.81026367867
 20
2551.92510471056
 10
9940.49246940261
 20
2547.70464076748
  0
LWPOLYLINE
  5
200DE
100
AcDbEntity
  8
0
100
AcDbPolyline
 70
0
 90
2
 38
0
 10
9818.70573881478
 20
2564.58649653976
 10
9819.40956531093
 20
2385.21778513183
  0
LWPOLYLINE
  5
200DF
100
AcDbEntity
  8
0
100
AcDbPolyline
 70
0
 90
2
 38
0
 10
10269.9509592508
 20
2376.77685724565
 10
10285.438053549
 20
2596.94300346612
  0
LWPOLYLINE
  5
200E0
100
AcDbEntity
  8
0
100
AcDbPolyline
 70
0
 90
2
 38
0
 10
10388.9878899392
 20
2583.57844054466
 10
10622.0024979809
 20
2584.28189911484
  0
LWPOLYLINE
  5
200E1
100
AcDbEntity
  8
0
100
AcDbPolyline
 70
0
 90
2
 38
0
 10
10651.3201104602
 20
2935.94477679249
 10
10780.3088712238
 20
3016.23420899722
  0
LWPOLYLINE
  5
200E2
100
AcDbEntity
  8
0
100
AcDbPolyline
 70
0
 90
2
 38
0
 10
10757.0491159607
 20
3019.05120553554
 10
10820.4859369848
 20
2946.50901689736
  0
LWPOLYLINE
  5
200E3
100
AcDbEntity
  8
0
100
AcDbPolyline
 70
0
 90
2
 38
0
 10
10797.2254538763
 20
2963.41214603878
 10
10892.3817771804
 20
2922.56296519336
  0
LWPOLYLINE
  5
200E4
100
AcDbEntity
  8
0
100
AcDbPolyline
 70
0
 90
2
 38
0
 10
10865.6072565087
 20
3272.80943895795
 10
10879.8904945247
 20
2713.15136948792
  0
LWPOLYLINE
  5
200E5
100
AcDbEntity
  8
0
100
AcDbPolyline
 70
0
 90
2
 38
0
 10
10644.0227325377
 20
2812.09783387318
 10
10708.5243913735
 20
2822.25098049414
  0
LWPOLYLINE
  5
200E6
100
AcDbEntity
  8
0
100
AcDbPolyline
 70
0
 90
2
 38
0
 10
10681.5751878071
 20
2823.57539145969
 10
10835.3186982735
 20
2793.11595159693
  0
LWPOLYLINE
  5
200E7
100
AcDbEntity
  8
0
100
AcDbPolyline
 70
0
 90
2
 38
0
 10
10815.8801313301
 20
2792.67467292707
 10
10891.8686461775
 20
2809.00773327216
  0
LWPOLYLINE
  5
200E8
100
AcDbEntity
  8
0
100
AcDbPolyline
 70
0
 90
2
 38
0
 10
10773.2232963111
 20
2814.52041064919
 10
10739.9694959399
 20
2707.76978206099
  0
LWPOLYLINE
  5
200E9
100
AcDbEntity
  8
0
100
AcDbPolyline
 70
0
 90
2
 38
0
 10
10635.9633004875
 20
2715.54634837969
 10
10761.1956511716
 20
2713.42562346254
  0
LWPOLYLINE
  5
200EA
100
AcDbEntity
  8
0
100
AcDbPolyline
 70
0
 90
2
 38
0
 10
10792.827084159
 20
2995.14108857658
 10
10764.4549428469
 20
2844.88843252038
  0
LWPOLYLINE
  5
200EB
100
AcDbEntity
  8
0
100
AcDbPolyline
 70
0
 90
2
 38
0
 10
10745.3038748342
 20
2877.49044562527
 10
10838.2228013965
 20
2812.99534006696
  0
LWPOLYLINE
  5
200EC
100
AcDbEntity
  8
0
100
AcDbPolyline
 70
0
 90
2
 38
0
 10
10648.9669863006
 20
3144.81505149766
 10
10796.6883039753
 20
3159.71704655368
  0
LWPOLYLINE
  5
200ED
100
AcDbEntity
  8
0
100
AcDbPolyline
 70
0
 90
2
 38
0
 10
10767.5701211342
 20
3168.23271870962
 10
10795.2682776112
 20
3053.27258199378
  0
LWPOLYLINE
  5
200EE
100
AcDbEntity
  8
0
100
AcDbPolyline
 70
0
 90
2
 38
0
 10
10651.8077668743
 20
3061.07847106445
 10
10796.6883039753
 20
3093.72159351775
  0
LWPOLYLINE
  5
200EF
100
AcDbEntity
  8
0
100
AcDbPolyline
 70
0
 90
2
 38
0
 10
10768.9908753437
 20
3064.62652405712
 10
10881.91244903
 20
3082.36736397643
  0
LWPOLYLINE
  5
200F0
100
AcDbEntity
  8
0
100
AcDbPolyline
 70
0
 90
2
 38
0
 10
10761.1891005631
 20
3598.04360526177
 10
10749.055189996
 20
3309.19236220379
  0
LWPOLYLINE
  5
200F1
100
AcDbEntity
  8
0
100
AcDbPolyline
 70
0
 90
2
 38
0
 10
10729.7825718025
 20
3373.38159121177
 10
10896.808532868
 20
3364.82308483962
  0
LWPOLYLINE
  5
200F2
100
AcDbEntity
  8
0
100
AcDbPolyline
 70
0
 90
2
 38
0
 10
10863.9739714439
 20
3387.64567267266
 10
10868.2566137436
 20
3306.33943092043
  0
LWPOLYLINE
  5
200F3
100
AcDbEntity
  8
0
100
AcDbPolyline
 70
0
 90
2
 38
0
 10
10858.2640243263
 20
3461.10664087365
 10
11045.2751642264
 20
3432.57819047384
  0
LWPOLYLINE
  5
200F4
100
AcDbEntity
  8
0
100
AcDbPolyline
 70
0
 90
2
 38
0
 10
11013.8686354657
 20
3384.07979604643
 10
11279.3968251127
 20
3374.09482403263
  0
LWPOLYLINE
  5
200F5
100
AcDbEntity
  8
0
100
AcDbPolyline
 70
0
 90
2
 38
0
 10
11277.255503963
 20
3550.97138899803
 10
11250.131617502
 20
3239.29755810701
  0
LWPOLYLINE
  5
200F6
100
AcDbEntity
  8
0
100
AcDbPolyline
 70
0
 90
2
 38
0
 10
11150.2020841025
 20
3361.25692073541
 10
11168.0466696325
 20
3558.81666254933
  0
LWPOLYLINE
  5
200F7
100
AcDbEntity
  8
0
100
AcDbPolyline
 70
0
 90
2
 38
0
 10
10999.3947019563
 20
3096.65645601996
 10
11288.1382482973
 20
3100.9519517108
  0
LWPOLYLINE
  5
200F8
100
AcDbEntity
  8
0
100
AcDbPolyline
 70
0
 90
2
 38
0
 10
10839.2534304747
 20
3203.41599642491
 10
11048.2760707867
 20
3191.93240180123
  0
LWPOLYLINE
  5
200F9
100
AcDbEntity
  8
0
100
AcDbPolyline
 70
0
 90
2
 38
0
 10
10922.5749876688
 20
3217.0525134973
 10
10913.9558425104
 20
3094.32328488975
  0
LWPOLYLINE
  5
200FA
100
AcDbEntity
  8
0
100
AcDbPolyline
 70
0
 90
2
 38
0
 10
10831.3519408751
 20
3119.4431091079
 10
11031.7554360287
 20
3114.41914426425
  0
LWPOLYLINE
  5
200FB
100
AcDbEntity
  8
0
100
AcDbPolyline
 70
0
 90
2
 38
0
 10
10856.4924486368
 20
3028.29333449854
 10
11140.2175009846
 20
3033.31729934213
  0
LWPOLYLINE
  5
200FC
100
AcDbEntity
  8
0
100
AcDbPolyline
 70
0
 90
2
 38
0
 10
11087.0636796901
 20
3114.41914426425
 10
11089.2188299023
 20
2953.65111935645
  0
LWPOLYLINE
  5
200FD
100
AcDbEntity
  8
0
100
AcDbPolyline
 70
0
 90
2
 38
0
 10
10847.1549200744
 20
2960.82800664881
 10
11250.8339883074
 20
2967.28763642884
  0
LWPOLYLINE
  5
200FE
100
AcDbEntity
  8
0
100
AcDbPolyline
 70
0
 90
2
 38
0
 10
11230.0037809701
 20
3120.16094157612
 10
11228.567014162
 20
2951.49790942977
  0
LWPOLYLINE
  5
200FF
100
AcDbEntity
  8
0
100
AcDbPolyline
 70
0
 90
2
 38
0
 10
11191.9338276255
 20
2983.7949084182
 10
11253.7279015947
 20
2662.05992385373
  0
LWPOLYLINE
  5
20100
100
AcDbEntity
  8
0
100
AcDbPolyline
 70
0
 90
2
 38
0
 10
11302.5714224647
 20
2664.2131337804
 10
10996.5793959715
 20
2697.94579770527
  0
LWPOLYLINE
  5
20101
100
AcDbEntity
  8
0
100
AcDbPolyline
 70
0
 90
2
 38
0
 10
10861.5407842911
 20
2770.43480292062
 10
11049.0148338618
 20
2763.25762815034
  0
LWPOLYLINE
  5
20102
100
AcDbEntity
  8
0
100
AcDbPolyline
 70
0
 90
2
 38
0
 10
10857.9495951161
 20
2852.97202530119
 10
10999.4529295879
 20
2849.38343791605
  0
LWPOLYLINE
  5
20103
100
AcDbEntity
  8
0
100
AcDbPolyline
 70
0
 90
2
 38
0
 10
10987.2418674091
 20
2918.28414322424
 10
10972.8756550179
 20
2833.59371091699
  0
LWPOLYLINE
  5
20104
100
AcDbEntity
  8
0
100
AcDbPolyline
 70
0
 90
2
 38
0
 10
10971.4396160551
 20
2907.51838106877
 10
11054.7611732492
 20
2901.05903876666
  0
LWPOLYLINE
  5
20105
100
AcDbEntity
  8
0
100
AcDbPolyline
 70
0
 90
2
 38
0
 10
11117.9709065103
 20
2990.05589092732
 10
11126.5900516686
 20
2670.67247608252
  0
LWPOLYLINE
  5
20106
100
AcDbEntity
  8
0
100
AcDbPolyline
 70
0
 90
2
 38
0
 10
11046.1413002455
 20
2985.74947107397
 10
11038.9589218954
 20
2675.69644092611
  0
LWPOLYLINE
  5
20107
100
AcDbEntity
  8
0
100
AcDbPolyline
 70
0
 90
2
 38
0
 10
11028.9022820834
 20
2852.25448031095
 10
11145.9842200431
 20
2853.68985776941
  0
LWPOLYLINE
  5
20108
100
AcDbEntity
  8
0
100
AcDbPolyline
 70
0
 90
2
 38
0
 10
11097.1399713277
 20
2768.28188047191
 10
11294.6699328651
 20
2791.96632723155
  0
LWPOLYLINE
  5
20109
100
AcDbEntity
  8
0
100
AcDbPolyline
 70
0
 90
2
 38
0
 10
11271.8119482596
 20
2827.14213051985
 10
11289.0728017834
 20
2610.11955580115
  0
LWPOLYLINE
  5
2010A
100
AcDbEntity
  8
0
100
AcDbPolyline
 70
0
 90
2
 38
0
 10
11277.5655661009
 20
2632.39679794252
 10
11327.9091763282
 20
2563.40927429014
  0
LWPOLYLINE
  5
2010B
100
AcDbEntity
  8
0
100
AcDbPolyline
 70
0
 90
2
 38
0
 10
11314.9637181467
 20
2597.18448495323
 10
11318.5687363843
 20
2378.42151865963
  0
LWPOLYLINE
  5
2010C
100
AcDbEntity
  8
0
100
AcDbPolyline
 70
0
 90
2
 38
0
 10
11131.5779761552
 20
2382.01470569213
 10
11139.488927745
 20
2691.02045362862
  0
LWPOLYLINE
  5
2010D
100
AcDbEntity
  8
0
100
AcDbPolyline
 70
0
 90
2
 38
0
 10
11069.0080189957
 20
2389.91948718135
 10
11077.638081835
 20
2483.3397627254
  0
LWPOLYLINE
  5
2010E
100
AcDbEntity
  8
0
100
AcDbPolyline
 70
0
 90
2
 38
0
 10
10756.781996701
 20
2720.02841726714
 10
10756.781996701
 20
2379.55734408292
  0
LWPOLYLINE
  5
2010F
100
AcDbEntity
  8
0
100
AcDbPolyline
 70
0
 90
2
 38
0
 10
10730.0715264239
 20
2555.56342578295
 10
11016.6715680789
 20
2548.35002878954
  0
LWPOLYLINE
  5
20110
100
AcDbEntity
  8
0
100
AcDbPolyline
 70
0
 90
2
 38
0
 10
10853.518472356
 20
2565.66223906924
 10
10852.7971775703
 20
2388.21330548375
  0
LWPOLYLINE
  5
20111
100
AcDbEntity
  8
0
100
AcDbPolyline
 70
0
 90
2
 38
0
 10
10865.0693787623
 20
2607.49976914405
 10
11043.3827662014
 20
2598.12252553942
  0
LWPOLYLINE
  5
20112
100
AcDbEntity
  8
0
100
AcDbPolyline
 70
0
 90
2
 38
0
 10
10880.2296704785
 20
2663.04281100183
 10
10880.2296704785
 20
2534.6448044845
  0
LWPOLYLINE
  5
20113
100
AcDbEntity
  8
0
100
AcDbPolyline
 70
0
 90
2
 38
0
 10
11546.3894396928
 20
2979.03743564431
 10
11380.544771702
 20
2936.8825299007
  0
LWPOLYLINE
  5
20114
100
AcDbEntity
  8
0
100
AcDbPolyline
 70
0
 90
2
 38
0
 10
11395.8200629905
 20
2952.87234156055
 10
11393.6125079099
 20
2392.895171554
  0
LWPOLYLINE
  5
20115
100
AcDbEntity
  8
0
100
AcDbPolyline
 70
0
 90
2
 38
0
 10
11525.9901168291
 20
2979.03024869529
 10
11749.579854861
 20
2909.89697371673
  0
LWPOLYLINE
  5
20116
100
AcDbEntity
  8
0
100
AcDbPolyline
 70
0
 90
2
 38
0
 10
11376.6879189581
 20
2893.15943188081
 10
11668.0094936853
 20
2900.43664898147
  0
LWPOLYLINE
  5
20117
100
AcDbEntity
  8
0
100
AcDbPolyline
 70
0
 90
2
 38
0
 10
11641.0624736552
 20
2909.1693669979
 10
11678.2058798129
 20
2855.31784546166
  0
LWPOLYLINE
  5
20118
100
AcDbEntity
  8
0
100
AcDbPolyline
 70
0
 90
2
 38
0
 10
11667.2809204458
 20
2886.60982149898
 10
11660.7266726708
 20
2751.98159261438
  0
LWPOLYLINE
  5
20119
100
AcDbEntity
  8
0
100
AcDbPolyline
 70
0
 90
2
 38
0
 10
11367.22010607
 20
2750.52609169867
 10
11735.742058226
 20
2763.62531246222
  0
LWPOLYLINE
  5
2011A
100
AcDbEntity
  8
0
100
AcDbPolyline
 70
0
 90
2
 38
0
 10
11717.5342778442
 20
2745.43226971052
 10
11711.7078754635
 20
2932.45623173768
  0
LWPOLYLINE
  5
2011B
100
AcDbEntity
  8
0
100
AcDbPolyline
 70
0
 90
2
 38
0
 10
11377.4164921977
 20
2848.04062836099
 10
11751.7648467345
 20
2837.12480270997
  0
LWPOLYLINE
  5
2011C
100
AcDbEntity
  8
0
100
AcDbPolyline
 70
0
 90
2
 38
0
 10
11563.1335229868
 20
2918.62969173316
 10
11574.058482354
 20
2795.64489521843
  0
LWPOLYLINE
  5
2011D
100
AcDbEntity
  8
0
100
AcDbPolyline
 70
0
 90
2
 38
0
 10
11362.8501223231
 20
2805.83282667265
 10
11689.8586845745
 20
2802.19450560026
  0
LWPOLYLINE
  5
2011E
100
AcDbEntity
  8
0
100
AcDbPolyline
 70
0
 90
2
 38
0
 10
11474.281068642
 20
2901.89214989718
 10
11468.4546662613
 20
2743.24916207593
  0
LWPOLYLINE
  5
2011F
100
AcDbEntity
  8
0
100
AcDbPolyline
 70
0
 90
2
 38
0
 10
11604.6469128915
 20
2812.38243705442
 10
11613.3868803853
 20
2750.52609169867
  0
LWPOLYLINE
  5
20120
100
AcDbEntity
  8
0
100
AcDbPolyline
 70
0
 90
2
 38
0
 10
11652.9438218704
 20
2771.92048902228
 10
11655.2234336451
 20
2703.58812764264
  0
LWPOLYLINE
  5
20121
100
AcDbEntity
  8
0
100
AcDbPolyline
 70
0
 90
2
 38
0
 10
11664.7982398061
 20
2713.15481922345
 10
11406.7501172755
 20
2717.71019499091
  0
LWPOLYLINE
  5
20122
100
AcDbEntity
  8
0
100
AcDbPolyline
 70
0
 90
2
 38
0
 10
11529.8258620566
 20
2729.02302770584
 10
11552.6212519581
 20
2573.68057435297
  0
LWPOLYLINE
  5
20123
100
AcDbEntity
  8
0
100
AcDbPolyline
 70
0
 90
2
 38
0
 10
11407.1846409759
 20
2685.29015543521
 10
11733.1640298398
 20
2678.00143921614
  0
LWPOLYLINE
  5
20124
100
AcDbEntity
  8
0
100
AcDbPolyline
 70
0
 90
2
 38
0
 10
11692.5873769574
 20
2772.7556124985
 10
11705.8086885434
 20
2613.31343594607
  0
LWPOLYLINE
  5
20125
100
AcDbEntity
  8
0
100
AcDbPolyline
 70
0
 90
2
 38
0
 10
11713.5595141464
 20
2641.10191807465
 10
11413.1114860211
 20
2645.65758132009
  0
LWPOLYLINE
  5
20126
100
AcDbEntity
  8
0
100
AcDbPolyline
 70
0
 90
2
 38
0
 10
11373.323817546
 20
2601.06514994655
 10
11564.1299433315
 20
2598.87370545109
  0
LWPOLYLINE
  5
20127
100
AcDbEntity
  8
0
100
AcDbPolyline
 70
0
 90
2
 38
0
 10
11485.9069431239
 20
2606.17823295808
 10
11510.7723253267
 20
2379.66514831822
  0
LWPOLYLINE
  5
20128
100
AcDbEntity
  8
0
100
AcDbPolyline
 70
0
 90
2
 38
0
 10
11455.2122471589
 20
2530.14232466184
 10
11722.0483749792
 20
2545.48243613017
  0
LWPOLYLINE
  5
20129
100
AcDbEntity
  8
0
100
AcDbPolyline
 70
0
 90
2
 38
0
 10
11523.9317700542
 20
2612.68587155757
 10
11749.8287779858
 20
2625.103769554
  0
LWPOLYLINE
  5
2012A
100
AcDbEntity
  8
0
100
AcDbPolyline
 70
0
 90
2
 38
0
 10
11682.5714964875
 20
2628.75617704645
 10
11700.1169375606
 20
2420.57153727784
  0
LWPOLYLINE
  5
2012B
100
AcDbEntity
  8
0
100
AcDbPolyline
 70
0
 90
2
 38
0
 10
11705.2344185273
 20
2468.78274122241
 10
11484.4548915625
 20
2451.98195423506
  0
LWPOLYLINE
  5
2012C
100
AcDbEntity
  8
0
100
AcDbPolyline
 70
0
 90
2
 38
0
 10
11475.6821710259
 20
2493.6188246932
 10
11707.4274167002
 20
2502.3846026751
  0
LWPOLYLINE
  5
2012D
100
AcDbEntity
  8
0
100
AcDbPolyline
 70
0
 90
2
 38
0
 10
11649.6736125142
 20
2630.21714004344
 10
11658.4463330507
 20
2456.36455574806
  0
LWPOLYLINE
  5
2012E
100
AcDbEntity
  8
0
100
AcDbPolyline
 70
0
 90
2
 38
0
 10
11580.9540896189
 20
2643.36580701627
 10
11593.3820497253
 20
2445.40762074862
  0
LWPOLYLINE
  5
2012F
100
AcDbEntity
  8
0
100
AcDbPolyline
 70
0
 90
2
 38
0
 10
11391.661154408
 20
3295.19391037867
 10
11374.0276440422
 20
3208.56300183578
  0
LWPOLYLINE
  5
20130
100
AcDbEntity
  8
0
100
AcDbPolyline
 70
0
 90
2
 38
0
 10
11371.0886043403
 20
3226.91703224555
 10
11399.7438775108
 20
3132.2102928267
  0
LWPOLYLINE
  5
20131
100
AcDbEntity
  8
0
100
AcDbPolyline
 70
0
 90
2
 38
0
 10
11398.2743576599
 20
3160.10859153635
 10
11371.8230003432
 20
3057.32602124161
  0
LWPOLYLINE
  5
20132
100
AcDbEntity
  8
0
100
AcDbPolyline
 70
0
 90
2
 38
0
 10
11367.4144407903
 20
3083.75588252727
 10
11391.661154408
 20
3001.52971130033
  0
LWPOLYLINE
  5
20133
100
AcDbEntity
  8
0
100
AcDbPolyline
 70
0
 90
2
 38
0
 10
11370.3534804921
 20
3022.08639784606
 10
11436.4811459386
 20
3000.79578006628
  0
LWPOLYLINE
  5
20134
100
AcDbEntity
  8
0
100
AcDbPolyline
 70
0
 90
2
 38
0
 10
11412.9688283238
 20
3019.8837417101
 10
11423.9840405199
 20
2927.96898824693
  0
LWPOLYLINE
  5
20135
100
AcDbEntity
  8
0
100
AcDbPolyline
 70
0
 90
2
 38
0
 10
11002.9043724473
 20
3154.92162668891
 10
11188.7953582856
 20
3154.18740797695
  0
LWPOLYLINE
  5
20136
100
AcDbEntity
  8
0
100
AcDbPolyline
 70
0
 90
2
 38
0
 10
11075.6445133002
 20
3212.1860865762
 10
11075.6445133002
 20
3077.83469896787
  0
LWPOLYLINE
  5
20137
100
AcDbEntity
  8
0
100
AcDbPolyline
 70
0
 90
2
 38
0
 10
10890.5723535303
 20
3548.6454048169
 10
10915.2521351576
 20
3778.80169765448
  0
LWPOLYLINE
  5
20138
100
AcDbEntity
  8
0
100
AcDbPolyline
 70
0
 90
2
 38
0
 10
10808.3076278487
 20
3553.34250721906
 10
10849.4403546122
 20
3904.44825260859
  0
LWPOLYLINE
  5
20139
100
AcDbEntity
  8
0
100
AcDbPolyline
 70
0
 90
2
 38
0
 10
10635.5520678398
 20
3886.83447794797
 10
11015.1445484419
 20
3861.00055847515
  0
LWPOLYLINE
  5
2013A
100
AcDbEntity
  8
0
100
AcDbPolyline
 70
0
 90
2
 38
0
 10
10990.4654946601
 20
3846.90925126872
 10
10986.2323458473
 20
3900.21657702501
  0
LWPOLYLINE
  5
2013B
100
AcDbEntity
  8
0
100
AcDbPolyline
 70
0
 90
2
 38
0
 10
10978.8643669216
 20
3888.71257146617
 10
11325.1819396361
 20
3844.0770183985
  0
LWPOLYLINE
  5
2013C
100
AcDbEntity
  8
0
100
AcDbPolyline
 70
0
 90
2
 38
0
 10
11002.3512099476
 20
3881.8102256264
 10
11005.5748371987
 20
3981.20458067465
  0
LWPOLYLINE
  5
2013D
100
AcDbEntity
  8
0
100
AcDbPolyline
 70
0
 90
2
 38
0
 10
10871.1003056988
 20
3958.1965695569
 10
11021.2329751645
 20
3972.46151345165
  0
LWPOLYLINE
  5
2013E
100
AcDbEntity
  8
0
100
AcDbPolyline
 70
0
 90
2
 38
0
 10
10898.732228245
 20
3971.0810442837
 10
10910.7060128253
 20
3899.29607259441
  0
LWPOLYLINE
  5
2013F
100
AcDbEntity
  8
0
100
AcDbPolyline
 70
0
 90
2
 38
0
 10
10834.2582275341
 20
3889.17282368144
 10
10920.8376207128
 20
3914.02126870456
  0
LWPOLYLINE
  5
20140
100
AcDbEntity
  8
0
100
AcDbPolyline
 70
0
 90
2
 38
0
 10
10975.1479883387
 20
3950.07272986154
 10
10969.1614599712
 20
4025.99910905462
  0
LWPOLYLINE
  5
20141
100
AcDbEntity
  8
0
100
AcDbPolyline
 70
0
 90
2
 38
0
 10
10957.6484015255
 20
4014.49510349572
 10
11089.8200301981
 20
4016.79578961636
  0
LWPOLYLINE
  5
20142
100
AcDbEntity
  8
0
100
AcDbPolyline
 70
0
 90
2
 38
0
 10
10753.634065371
 20
3985.50496349088
 10
10904.2267331259
 20
4008.51297460863
  0
LWPOLYLINE
  5
20143
100
AcDbEntity
  8
0
100
AcDbPolyline
 70
0
 90
2
 38
0
 10
10819.0287905055
 20
4014.95535571105
 10
10819.4895166401
 20
3870.00494316453
  0
LWPOLYLINE
  5
20144
100
AcDbEntity
  8
0
100
AcDbPolyline
 70
0
 90
2
 38
0
 10
10627.9395328616
 20
4229.3426199627
 10
10749.3637964431
 20
4227.95870105922
  0
LWPOLYLINE
  5
20145
100
AcDbEntity
  8
0
100
AcDbPolyline
 70
0
 90
2
 38
0
 10
10732.2812650409
 20
4233.49466415111
 10
10764.137602255
 20
4175.36834533722
  0
LWPOLYLINE
  5
20146
100
AcDbEntity
  8
0
100
AcDbPolyline
 70
0
 90
2
 38
0
 10
10730.8961752556
 20
4180.9043084291
 10
10960.8174403718
 20
4217.34846448054
  0
LWPOLYLINE
  5
20147
100
AcDbEntity
  8
0
100
AcDbPolyline
 70
0
 90
2
 38
0
 10
10357.6104749944
 20
2942.02436070831
 10
10374.2300967261
 20
3199.4189028574
  0
LWPOLYLINE
  5
20148
100
AcDbEntity
  8
0
100
AcDbPolyline
 70
0
 90
2
 38
0
 10
9999.10585899907
 20
3110.45769796392
 10
10393.2232222882
 20
3104.52674015384
  0
LWPOLYLINE
  5
20149
100
AcDbEntity
  8
0
100
AcDbPolyline
 70
0
 90
2
 38
0
 10
10416.9655390477
 20
3156.71750151028
 10
10648.6802152153
 20
3153.64349967503
  0
LWPOLYLINE
  5
2014A
100
AcDbEntity
  8
0
100
AcDbPolyline
 70
0
 90
2
 38
0
 10
10564.726888219
 20
3135.4418325845
 10
10550.5899471271
 20
3316.10189499252
  0
LWPOLYLINE
  5
2014B
100
AcDbEntity
  8
0
100
AcDbPolyline
 70
0
 90
2
 38
0
 10
10534.2207042111
 20
3240.26923361467
 10
10650.2931206089
 20
3246.21686514647
  0
LWPOLYLINE
  5
2014C
100
AcDbEntity
  8
0
100
AcDbPolyline
 70
0
 90
2
 38
0
 10
10590.0246105859
 20
3171.12762177532
 10
10598.9538178822
 20
3024.66651254456
  0
LWPOLYLINE
  5
2014D
100
AcDbEntity
  8
0
100
AcDbPolyline
 70
0
 90
2
 38
0
 10
10540.9176096834
 20
3032.10098008986
 10
10650.2931206089
 20
3043.99624315341
  0
LWPOLYLINE
  5
2014E
100
AcDbEntity
  8
0
100
AcDbPolyline
 70
0
 90
2
 38
0
 10
10554.3099649369
 20
3052.91783419013
 10
10558.0307105922
 20
3018.71888101276
  0
LWPOLYLINE
  5
2014F
100
AcDbEntity
  8
0
100
AcDbPolyline
 70
0
 90
2
 38
0
 10
10453.8629334622
 20
3023.17967653112
 10
10575.887669494
 20
3023.17967653112
  0
LWPOLYLINE
  5
20150
100
AcDbEntity
  8
0
100
AcDbPolyline
 70
0
 90
2
 38
0
 10
10488.08913528
 20
3035.07493959472
 10
10471.7206202095
 20
2944.37305564835
  0
LWPOLYLINE
  5
20151
100
AcDbEntity
  8
0
100
AcDbPolyline
 70
0
 90
2
 38
0
 10
11497.7591775234
 20
2392.1623902318
 10
11510.8836856719
 20
2161.73960532458
  0
LWPOLYLINE
  5
20152
100
AcDbEntity
  8
0
100
AcDbPolyline
 70
0
 90
2
 38
0
 10
11386.6812362207
 20
2169.60327746533
 10
11801.4934276037
 20
2208.0071707759
  0
LWPOLYLINE
  5
20153
100
AcDbEntity
  8
0
100
AcDbPolyline
 70
0
 90
2
 38
0
 10
11660.8795202036
 20
2181.31167985441
 10
11650.0986742245
 20
2315.72516270226
  0
LWPOLYLINE
  5
20154
100
AcDbEntity
  8
0
100
AcDbPolyline
 70
0
 90
2
 38
0
 10
11569.0108745452
 20
2302.61156804062
 10
11671.1909059035
 20
2297.92826458061
  0
LWPOLYLINE
  5
20155
100
AcDbEntity
  8
0
100
AcDbPolyline
 70
0
 90
2
 38
0
 10
11566.1992077873
 20
2390.65916797461
 10
11599.4777549019
 20
2174.75517000153
  0
LWPOLYLINE
  5
20156
100
AcDbEntity
  8
0
100
AcDbPolyline
 70
0
 90
2
 38
0
 10
11636.0374290534
 20
2238.44907448301
 10
11786.9634499989
 20
2264.67626380629
  0
LWPOLYLINE
  5
20157
100
AcDbEntity
  8
0
100
AcDbPolyline
 70
0
 90
2
 38
0
 10
11592.4467683936
 20
2232.82916782657
 10
11498.7039208451
 20
2231.423975554
  0
LWPOLYLINE
  5
20158
100
AcDbEntity
  8
0
100
AcDbPolyline
 70
0
 90
2
 38
0
 10
11596.6653602986
 20
2264.2076747301
 10
11475.2680269966
 20
2272.16966433352
  0
LWPOLYLINE
  5
20159
100
AcDbEntity
  8
0
100
AcDbPolyline
 70
0
 90
2
 38
0
 10
11695.0955321859
 20
2327.43356509134
 10
11486.0488729758
 20
2329.30677148415
  0
LWPOLYLINE
  5
2015A
100
AcDbEntity
  8
0
100
AcDbPolyline
 70
0
 90
2
 38
0
 10
11681.034287015
 20
2334.92696561856
 10
11722.7492900939
 20
2282.00457285176
  0
LWPOLYLINE
  5
2015B
100
AcDbEntity
  8
0
100
AcDbPolyline
 70
0
 90
2
 38
0
 10
11696.5017294874
 20
2283.40976512438
 10
11783.6823229617
 20
2301.20666324603
  0
LWPOLYLINE
  5
2015C
100
AcDbEntity
  8
0
100
AcDbPolyline
 70
0
 90
2
 38
0
 10
11544.4759341514
 20
2192.84127095179
 10
11510.6551422182
 20
2128.25704722561
  0
LWPOLYLINE
  5
2015D
100
AcDbEntity
  8
0
100
AcDbPolyline
 70
0
 90
2
 38
0
 10
11513.6611436963
 20
2153.03937231773
 10
11551.2405292452
 20
1977.30984441604
  0
LWPOLYLINE
  5
2015E
100
AcDbEntity
  8
0
100
AcDbPolyline
 70
0
 90
2
 38
0
 10
11412.9491764981
 20
1960.03730609495
 10
11558.756260786
 20
1990.82763309061
  0
LWPOLYLINE
  5
2015F
100
AcDbEntity
  8
0
100
AcDbPolyline
 70
0
 90
2
 38
0
 10
11406.1103411741
 20
2139.79440022801
 10
11519.0268199425
 20
2172.23197593924
  0
LWPOLYLINE
  5
20160
100
AcDbEntity
  8
0
100
AcDbPolyline
 70
0
 90
2
 38
0
 10
11479.5062707271
 20
2170.35158259742
 10
11508.2059424666
 20
2090.4329969621
  0
LWPOLYLINE
  5
20161
100
AcDbEntity
  8
0
100
AcDbPolyline
 70
0
 90
2
 38
0
 10
11504.9124420577
 20
2116.28905223793
 10
11491.7384404225
 20
2068.80775483599
  0
LWPOLYLINE
  5
20162
100
AcDbEntity
  8
0
100
AcDbPolyline
 70
0
 90
2
 38
0
 10
11491.2682522978
 20
2085.26155592461
 10
11514.3220273142
 20
2040.60127975233
  0
LWPOLYLINE
  5
20163
100
AcDbEntity
  8
0
100
AcDbPolyline
 70
0
 90
2
 38
0
 10
11510.0874228107
 20
2061.75620793452
 10
11470.0959576253
 20
2049.53350747353
  0
LWPOLYLINE
  5
20164
100
AcDbEntity
  8
0
100
AcDbPolyline
 70
0
 90
2
 38
0
 10
11487.5045637642
 20
2059.40578812669
 10
11495.0319408312
 20
2020.38669198001
  0
LWPOLYLINE
  5
20165
100
AcDbEntity
  8
0
100
AcDbPolyline
 70
0
 90
2
 38
0
 10
11464.4507887478
 20
2018.0359846942
 10
11544.9039072432
 20
2039.19091287645
  0
LWPOLYLINE
  5
20166
100
AcDbEntity
  8
0
100
AcDbPolyline
 70
0
 90
2
 38
0
 10
11499.7367334595
 20
2037.78054600058
 10
11521.8501322267
 20
1968.20455496234
  0
LWPOLYLINE
  5
20167
100
AcDbEntity
  8
0
100
AcDbPolyline
 70
0
 90
2
 38
0
 10
11475.7418543482
 20
2031.19902556512
 10
11474.3305621288
 20
1963.50342786877
  0
LWPOLYLINE
  5
20168
100
AcDbEntity
  8
0
100
AcDbPolyline
 70
0
 90
2
 38
0
 10
11477.153874413
 20
2061.75620793452
 10
11470.0959576253
 20
2033.54973285086
  0
LWPOLYLINE
  5
20169
100
AcDbEntity
  8
0
100
AcDbPolyline
 70
0
 90
2
 38
0
 10
11478.0942506624
 20
2039.19091287645
 10
11421.1658231534
 20
2023.20713825378
  0
LWPOLYLINE
  5
2016A
100
AcDbEntity
  8
0
100
AcDbPolyline
 70
0
 90
2
 38
0
 10
11399.0531522316
 20
2075.38927527139
 10
11506.3237342772
 20
2120.04983892164
  0
LWPOLYLINE
  5
2016B
100
AcDbEntity
  8
0
100
AcDbPolyline
 70
0
 90
2
 38
0
 10
11466.3322690917
 20
2089.49265655223
 10
11447.0421826087
 20
2129.45209310885
  0
LWPOLYLINE
  5
2016C
100
AcDbEntity
  8
0
100
AcDbPolyline
 70
0
 90
2
 38
0
 10
11438.573701447
 20
2112.99800454226
 10
11501.1487535243
 20
2148.25631400529
  0
LWPOLYLINE
  5
2016D
100
AcDbEntity
  8
0
100
AcDbPolyline
 70
0
 90
2
 38
0
 10
11440.9282812973
 20
1973.18051098654
 10
11479.5084542633
 20
1892.79189888528
  0
LWPOLYLINE
  5
2016E
100
AcDbEntity
  8
0
100
AcDbPolyline
 70
0
 90
2
 38
0
 10
11463.0409522192
 20
1949.67516299651
 10
11385.8813341325
 20
1933.69138837384
  0
LWPOLYLINE
  5
2016F
100
AcDbEntity
  8
0
100
AcDbPolyline
 70
0
 90
2
 38
0
 10
11413.1697136526
 20
1949.67516299651
 10
11329.4099935312
 20
1744.11950917978
  0
LWPOLYLINE
  5
20170
100
AcDbEntity
  8
0
100
AcDbPolyline
 70
0
 90
2
 38
0
 10
11367.8162114479
 20
1878.79200967034
 10
11553.4167869739
 20
1819.80613175355
  0
LWPOLYLINE
  5
20171
100
AcDbEntity
  8
0
100
AcDbPolyline
 70
0
 90
2
 38
0
 10
11544.443908954
 20
1830.65957468707
 10
11542.0856898768
 20
1627.50464932132
  0
LWPOLYLINE
  5
20172
100
AcDbEntity
  8
0
100
AcDbPolyline
 70
0
 90
2
 38
0
 10
11072.1362985001
 20
1846.49874789541
 10
11190.8791796493
 20
1875.97185087454
  0
LWPOLYLINE
  5
20173
100
AcDbEntity
  8
0
100
AcDbPolyline
 70
0
 90
2
 38
0
 10
11160.6262858385
 20
1875.97185087454
 10
11294.9137610721
 20
1859.42231962492
  0
LWPOLYLINE
  5
20174
100
AcDbEntity
  8
0
100
AcDbPolyline
 70
0
 90
2
 38
0
 10
11274.5551975503
 20
1865.09914691764
 10
11327.1085463946
 20
1816.37220751133
  0
LWPOLYLINE
  5
20175
100
AcDbEntity
  8
0
100
AcDbPolyline
 70
0
 90
2
 38
0
 10
11203.5371389001
 20
1881.18382630456
 10
11188.8594086803
 20
1842.8644515145
  0
LWPOLYLINE
  5
20176
100
AcDbEntity
  8
0
100
AcDbPolyline
 70
0
 90
2
 38
0
 10
11190.2801628899
 20
1860.84131083963
 10
11216.3202875588
 20
1821.10294483491
  0
LWPOLYLINE
  5
20177
100
AcDbEntity
  8
0
100
AcDbPolyline
 70
0
 90
2
 38
0
 10
11215.8464602073
 20
1834.82225556002
 10
11202.1163846906
 20
1785.62241490814
  0
LWPOLYLINE
  5
20178
100
AcDbEntity
  8
0
100
AcDbPolyline
 70
0
 90
2
 38
0
 10
11224.8426292797
 20
1787.04169360083
 10
11170.3946988743
 20
1805.01855292596
  0
LWPOLYLINE
  5
20179
100
AcDbEntity
  8
0
100
AcDbPolyline
 70
0
 90
2
 38
0
 10
11187.9132096678
 20
1810.69538021862
 10
11168.0277456524
 20
1788.46068481554
  0
LWPOLYLINE
  5
2017A
100
AcDbEntity
  8
0
100
AcDbPolyline
 70
0
 90
2
 38
0
 10
11182.7047480268
 20
1790.35315223172
 10
11123.9960106836
 20
1794.13779958617
  0
LWPOLYLINE
  5
2017B
100
AcDbEntity
  8
0
100
AcDbPolyline
 70
0
 90
2
 38
0
 10
11134.7622997549
 20
1849.18982908683
 10
11110.4988456932
 20
1960.56051598367
  0
LWPOLYLINE
  5
2017C
100
AcDbEntity
  8
0
100
AcDbPolyline
 70
0
 90
2
 38
0
 10
11071.0714606884
 20
1937.83164596587
 10
11233.3322179579
 20
1982.53159409668
  0
LWPOLYLINE
  5
2017D
100
AcDbEntity
  8
0
100
AcDbPolyline
 70
0
 90
2
 38
0
 10
11226.5086673871
 20
1852.9779261768
 10
11174.9473718152
 20
2114.49863949785
  0
LWPOLYLINE
  5
2017E
100
AcDbEntity
  8
0
100
AcDbPolyline
 70
0
 90
2
 38
0
 10
11141.4286357206
 20
2231.98771983519
 10
11161.982261808
 20
2211.15304210136
  0
LWPOLYLINE
  5
2017F
100
AcDbEntity
  8
0
100
AcDbPolyline
 70
0
 90
2
 38
0
 10
11148.2798444164
 20
2211.74840895826
 10
11203.6848915152
 20
2239.42879937356
  0
LWPOLYLINE
  5
20180
100
AcDbEntity
  8
0
100
AcDbPolyline
 70
0
 90
2
 38
0
 10
11174.8032584272
 20
2254.0645898378
 10
11286.2094580026
 20
2271.92272076517
  0
LWPOLYLINE
  5
20181
100
AcDbEntity
  8
0
100
AcDbPolyline
 70
0
 90
2
 38
0
 10
11271.613246467
 20
2276.98262035387
 10
11301.9964246033
 20
2213.2881409165
  0
LWPOLYLINE
  5
20182
100
AcDbEntity
  8
0
100
AcDbPolyline
 70
0
 90
2
 38
0
 10
11217.3996822785
 20
2183.52439771895
 10
11352.933228827
 20
2246.62351029948
  0
LWPOLYLINE
  5
20183
100
AcDbEntity
  8
0
100
AcDbPolyline
 70
0
 90
2
 38
0
 10
11224.2508909743
 20
2196.62045622501
 10
11243.6130341513
 20
2148.10538807587
  0
LWPOLYLINE
  5
20184
100
AcDbEntity
  8
0
100
AcDbPolyline
 70
0
 90
2
 38
0
 10
11250.4642428471
 20
2163.58262653148
 10
11184.3351217098
 20
2135.30686925928
  0
LWPOLYLINE
  5
20185
100
AcDbEntity
  8
0
100
AcDbPolyline
 70
0
 90
2
 38
0
 10
11201.3142990662
 20
2153.46282735403
 10
11214.1229223136
 20
2112.98420560011
  0
LWPOLYLINE
  5
20186
100
AcDbEntity
  8
0
100
AcDbPolyline
 70
0
 90
2
 38
0
 10
11107.3632877349
 20
1907.45614966768
 10
11174.1249065198
 20
1918.82331571722
  0
LWPOLYLINE
  5
20187
100
AcDbEntity
  8
0
100
AcDbPolyline
 70
0
 90
2
 38
0
 10
11165.1440222005
 20
1924.80630703818
 10
11181.9092130109
 20
1865.5763603326
  0
LWPOLYLINE
  5
20188
100
AcDbEntity
  8
0
100
AcDbPolyline
 70
0
 90
2
 38
0
 10
10936.503764978
 20
1729.55012612446
 10
10918.7639891846
 20
1845.48452564958
  0
LWPOLYLINE
  5
20189
100
AcDbEntity
  8
0
100
AcDbPolyline
 70
0
 90
2
 38
0
 10
10820.4764749946
 20
1754.46152882097
 10
10816.1610796523
 20
1850.27534586698
  0
LWPOLYLINE
  5
2018A
100
AcDbEntity
  8
0
100
AcDbPolyline
 70
0
 90
2
 38
0
 10
10927.7426899677
 20
1804.62327072979
 10
10810.1294248704
 20
1789.75347320538
  0
LWPOLYLINE
  5
2018B
100
AcDbEntity
  8
0
100
AcDbPolyline
 70
0
 90
2
 38
0
 10
10831.2514982106
 20
1831.96443715133
 10
10741.0008528635
 20
1832.44423786795
  0
LWPOLYLINE
  5
2018C
100
AcDbEntity
  8
0
100
AcDbPolyline
 70
0
 90
2
 38
0
 10
10765.9637663491
 20
1840.11903698847
 10
10750.122211344
 20
1779.20073221892
  0
LWPOLYLINE
  5
2018D
100
AcDbEntity
  8
0
100
AcDbPolyline
 70
0
 90
2
 38
0
 10
10734.7603064536
 20
1778.24141826358
 10
10722.7588637483
 20
1839.63923627185
  0
LWPOLYLINE
  5
2018E
100
AcDbEntity
  8
0
100
AcDbPolyline
 70
0
 90
2
 38
0
 10
10731.8802222286
 20
1826.20855341939
 10
10675.7138488474
 20
1831.48492391262
  0
LWPOLYLINE
  5
2018F
100
AcDbEntity
  8
0
100
AcDbPolyline
 70
0
 90
2
 38
0
 10
10982.0319500773
 20
1765.35981831636
 10
11086.5978586378
 20
1740.80402585742
  0
LWPOLYLINE
  5
20190
100
AcDbEntity
  8
0
100
AcDbPolyline
 70
0
 90
2
 38
0
 10
11055.7575935939
 20
1744.17441747029
 10
11122.7382938424
 20
1758.1375095062
  0
LWPOLYLINE
  5
20191
100
AcDbEntity
  8
0
100
AcDbPolyline
 70
0
 90
2
 38
0
 10
11146.3619718027
 20
1732.63533960015
 10
11169.973276391
 20
1771.63574967947
  0
LWPOLYLINE
  5
20192
100
AcDbEntity
  8
0
100
AcDbPolyline
 70
0
 90
2
 38
0
 10
11111.0680207915
 20
1772.9693599398
 10
11224.1773785894
 20
1749.95071213745
  0
LWPOLYLINE
  5
20193
100
AcDbEntity
  8
0
100
AcDbPolyline
 70
0
 90
2
 38
0
 10
11145.7695056517
 20
1742.75743860134
 10
11166.0057911472
 20
1706.54297744052
  0
LWPOLYLINE
  5
20194
100
AcDbEntity
  8
0
100
AcDbPolyline
 70
0
 90
2
 38
0
 10
11163.2872885998
 20
1718.91631635302
 10
11138.5208933707
 20
1682.40000333334
  0
LWPOLYLINE
  5
20195
100
AcDbEntity
  8
0
100
AcDbPolyline
 70
0
 90
2
 38
0
 10
11283.1925388436
 20
1700.80922951159
 10
11210.4036323492
 20
1734.30731142039
  0
LWPOLYLINE
  5
20196
100
AcDbEntity
  8
0
100
AcDbPolyline
 70
0
 90
2
 38
0
 10
11262.9569811935
 20
1724.04664804216
 10
11241.513200189
 20
1646.48739403143
  0
LWPOLYLINE
  5
20197
100
AcDbEntity
  8
0
100
AcDbPolyline
 70
0
 90
2
 38
0
 10
11191.9804097307
 20
1662.48209281662
 10
11236.0761950942
 20
1732.49677522306
  0
LWPOLYLINE
  5
20198
100
AcDbEntity
  8
0
100
AcDbPolyline
 70
0
 90
2
 38
0
 10
11038.4741768627
 20
1727.33194617863
 10
11008.3391940059
 20
1580.64056710125
  0
LWPOLYLINE
  5
20199
100
AcDbEntity
  8
0
100
AcDbPolyline
 70
0
 90
2
 38
0
 10
11005.6818304716
 20
1680.44745302334
 10
11194.8059055511
 20
1636.94973772467
  0
LWPOLYLINE
  5
2019A
100
AcDbEntity
  8
0
100
AcDbPolyline
 70
0
 90
2
 38
0
 10
11184.6480952294
 20
1645.64939577563
 10
11179.3275453976
 20
1598.28538938164
  0
LWPOLYLINE
  5
2019B
100
AcDbEntity
  8
0
100
AcDbPolyline
 70
0
 90
2
 38
0
 10
11167.7191392052
 20
1615.68441800552
 10
11249.9467447718
 20
1578.95307147113
  0
LWPOLYLINE
  5
2019C
100
AcDbEntity
  8
0
100
AcDbPolyline
 70
0
 90
2
 38
0
 10
10913.9747664907
 20
1757.48522201308
 10
10854.4057158915
 20
1557.14441840595
  0
LWPOLYLINE
  5
2019D
100
AcDbEntity
  8
0
100
AcDbPolyline
 70
0
 90
2
 38
0
 10
10862.1543579585
 20
1651.99173454766
 10
11032.1448333147
 20
1617.14998064988
  0
LWPOLYLINE
  5
2019E
100
AcDbEntity
  8
0
100
AcDbPolyline
 70
0
 90
2
 38
0
 10
10920.7553741833
 20
1653.92732365796
 10
10888.3000202096
 20
1523.63627476851
  0
LWPOLYLINE
  5
2019F
100
AcDbEntity
  8
0
100
AcDbPolyline
 70
0
 90
2
 38
0
 10
11281.2135272167
 20
3870.24642465165
 10
11255.1966936003
 20
3515.10276382416
  0
LWPOLYLINE
  5
201A0
100
AcDbEntity
  8
0
100
AcDbPolyline
 70
0
 90
2
 38
0
 10
11103.8659906157
 20
3896.99538647383
 10
11078.1097256504
 20
3526.55559830606
  0
LWPOLYLINE
  5
201A1
100
AcDbEntity
  8
0
100
AcDbPolyline
 70
0
 90
2
 38
0
 10
10956.0573314937
 20
3978.96771466138
 10
10959.9658612607
 20
3881.81655014155
  0
LWPOLYLINE
  5
201A2
100
AcDbEntity
  8
0
100
AcDbPolyline
 70
0
 90
2
 38
0
 10
10973.1580590309
 20
3898.41524012241
 10
10866.6458918862
 20
3867.65883552615
  0
LWPOLYLINE
  5
201A3
100
AcDbEntity
  8
0
100
AcDbPolyline
 70
0
 90
2
 38
0
 10
10989.2812902037
 20
3916.96648041334
 10
11188.6257703088
 20
3893.04486433597
  0
LWPOLYLINE
  5
201A4
100
AcDbEntity
  8
0
100
AcDbPolyline
 70
0
 90
2
 38
0
 10
11167.6165130046
 20
3905.2497411634
 10
11169.0823936285
 20
3856.43023385369
  0
LWPOLYLINE
  5
201A5
100
AcDbEntity
  8
0
100
AcDbPolyline
 70
0
 90
2
 38
0
 10
11200.3520874551
 20
3843.73693197081
 10
11208.6575312485
 20
4030.22819733655
  0
LWPOLYLINE
  5
201A6
100
AcDbEntity
  8
0
100
AcDbPolyline
 70
0
 90
2
 38
0
 10
11185.2056248013
 20
4018.02332050912
 10
11308.3301352237
 20
4018.99988314207
  0
LWPOLYLINE
  5
201A7
100
AcDbEntity
  8
0
100
AcDbPolyline
 70
0
 90
2
 38
0
 10
11288.7860306981
 20
4005.33030610421
 10
11293.18367257
 20
4067.33125287428
  0
LWPOLYLINE
  5
201A8
100
AcDbEntity
  8
0
100
AcDbPolyline
 70
0
 90
2
 38
0
 10
10795.7632124793
 20
4214.60477482231
 10
10831.8017493286
 20
4079.17620729475
  0
LWPOLYLINE
  5
201A9
100
AcDbEntity
  8
0
100
AcDbPolyline
 70
0
 90
2
 38
0
 10
10841.98648993
 20
4089.35292710841
 10
10766.7753139636
 20
4102.66085687157
  0
LWPOLYLINE
  5
201AA
100
AcDbEntity
  8
0
100
AcDbPolyline
 70
0
 90
2
 38
0
 10
10916.4145042521
 20
4230.28784749797
 10
10946.1855644119
 20
4080.76854771981
  0
LWPOLYLINE
  5
201AB
100
AcDbEntity
  8
0
100
AcDbPolyline
 70
0
 90
2
 38
0
 10
12213.6591731333
 20
3444.28400556126
 10
12238.8178770299
 20
3924.89426013938
  0
LWPOLYLINE
  5
201AC
100
AcDbEntity
  8
0
100
AcDbPolyline
 70
0
 90
2
 38
0
 10
12309.5062217165
 20
3919.40055630775
 10
12090.372353188
 20
3924.1094453063
  0
LWPOLYLINE
  5
201AD
100
AcDbEntity
  8
0
100
AcDbPolyline
 70
0
 90
2
 38
0
 10
12117.0770007019
 20
3931.17249132617
 10
12054.2428356643
 20
3895.85668627097
  0
LWPOLYLINE
  5
201AE
100
AcDbEntity
  8
0
100
AcDbPolyline
 70
0
 90
2
 38
0
 10
12088.8016628273
 20
3902.1349174577
 10
11806.0482840807
 20
3928.03323199379
  0
LWPOLYLINE
  5
201AF
100
AcDbEntity
  8
0
100
AcDbPolyline
 70
0
 90
2
 38
0
 10
11820.185953018
 20
3909.98306578864
 10
11907.2595532194
 20
4559.37163117534
  0
LWPOLYLINE
  5
201B0
100
AcDbEntity
  8
0
100
AcDbPolyline
 70
0
 90
2
 38
0
 10
9824.42296438629
 20
1624.43036000809
 10
9669.13714952953
 20
1313.42347798624
  0
LWPOLYLINE
  5
201B1
100
AcDbEntity
  8
0
100
AcDbPolyline
 70
0
 90
2
 38
0
 10
10482.7918765009
 20
1241.54076379025
 10
10256.2521810862
 20
1234.35985180648
  0
LWPOLYLINE
  5
201B2
100
AcDbEntity
  8
0
100
AcDbPolyline
 70
0
 90
2
 38
0
 10
10297.4977238858
 20
1230.61315154284
 10
9100.67242835439
 20
1523.60838940635
  0
LWPOLYLINE
  5
201B3
100
AcDbEntity
  8
0
100
AcDbPolyline
 70
0
 90
2
 38
0
 10
9138.24380760395
 20
1522.01087437797
 10
8984.46026564087
 20
1474.75352230744
  0
LWPOLYLINE
  5
201B4
100
AcDbEntity
  8
0
100
AcDbPolyline
 70
0
 90
2
 38
0
 10
9021.23174280219
 20
1482.74080997141
 10
8135.32453139208
 20
1340.65626521653
  0
LWPOLYLINE
  5
201B5
100
AcDbEntity
  8
0
100
AcDbPolyline
 70
0
 90
2
 38
0
 10
8703.96393546183
 20
1802.34874510363
 10
8671.2014307318
 20
1016.68125238118
  0
LWPOLYLINE
  5
201B6
100
AcDbEntity
  8
0
100
AcDbPolyline
 70
0
 90
2
 38
0
 10
8658.02087848785
 20
1052.40268883912
 10
8698.14190015348
 20
976.234540680889
  0
LWPOLYLINE
  5
201B7
100
AcDbEntity
  8
0
100
AcDbPolyline
 70
0
 90
2
 38
0
 10
8692.5251172462
 20
1005.09819038305
 10
8706.07541495038
 20
705.960698408249
  0
LWPOLYLINE
  5
201B8
100
AcDbEntity
  8
0
100
AcDbPolyline
 70
0
 90
2
 38
0
 10
8665.00528289075
 20
918.839853277372
 10
8976.87975586008
 20
931.663670154463
  0
LWPOLYLINE
  5
201B9
100
AcDbEntity
  8
0
100
AcDbPolyline
 70
0
 90
2
 38
0
 10
8934.52643237042
 20
1056.05710867728
 10
8970.4623430192
 20
829.071410269826
  0
LWPOLYLINE
  5
201BA
100
AcDbEntity
  8
0
100
AcDbPolyline
 70
0
 90
2
 38
0
 10
8964.98385073687
 20
880.110822393093
 10
8966.59093336738
 20
701.091396707576
  0
LWPOLYLINE
  5
201BB
100
AcDbEntity
  8
0
100
AcDbPolyline
 70
0
 90
2
 38
0
 10
8851.70563280757
 20
710.136603267398
 10
8837.24407266977
 20
1062.556122938
  0
LWPOLYLINE
  5
201BC
100
AcDbEntity
  8
0
100
AcDbPolyline
 70
0
 90
2
 38
0
 10
8589.15942574071
 20
1180.87285232457
 10
8740.0410481171
 20
1172.83238123788
  0
LWPOLYLINE
  5
201BD
100
AcDbEntity
  8
0
100
AcDbPolyline
 70
0
 90
2
 38
0
 10
8590.16530807549
 20
1203.98953011161
 10
8604.24766076286
 20
1174.33991566452
  0
LWPOLYLINE
  5
201BE
100
AcDbEntity
  8
0
100
AcDbPolyline
 70
0
 90
2
 38
0
 10
8533.83662517148
 20
1191.42616826698
 10
8602.73883726064
 20
1200.97446125827
  0
LWPOLYLINE
  5
201BF
100
AcDbEntity
  8
0
100
AcDbPolyline
 70
0
 90
2
 38
0
 10
8550.43368369586
 20
1178.36029494688
 10
8483.12399732915
 20
1449.87431714259
  0
LWPOLYLINE
  5
201C0
100
AcDbEntity
  8
0
100
AcDbPolyline
 70
0
 90
2
 38
0
 10
8490.98108835984
 20
1410.89920512383
 10
8332.78170838987
 20
2327.99874676234
  0
LWPOLYLINE
  5
201C1
100
AcDbEntity
  8
0
100
AcDbPolyline
 70
0
 90
2
 38
0
 10
8200.73308558902
 20
1596.34836288152
 10
8884.75709215901
 20
1702.20206023188
  0
LWPOLYLINE
  5
201C2
100
AcDbEntity
  8
0
100
AcDbPolyline
 70
0
 90
2
 38
0
 10
8092.17858426808
 20
1704.8158098518
 10
8695.11406331346
 20
1797.60133405833
  0
LWPOLYLINE
  5
201C3
100
AcDbEntity
  8
0
100
AcDbPolyline
 70
0
 90
2
 38
0
 10
8670.26396586408
 20
1802.82854582026
 10
8716.03961839725
 20
1771.46441281476
  0
LWPOLYLINE
  5
201C4
100
AcDbEntity
  8
0
100
AcDbPolyline
 70
0
 90
2
 38
0
 10
8130.10733560624
 20
1840.7267653977
 10
8164.11227242416
 20
1525.77913548861
  0
LWPOLYLINE
  5
201C5
100
AcDbEntity
  8
0
100
AcDbPolyline
 70
0
 90
2
 38
0
 10
8086.94755941979
 20
1821.124218204
 10
8621.87243698397
 20
1923.0575786024
  0
LWPOLYLINE
  5
201C6
100
AcDbEntity
  8
0
100
AcDbPolyline
 70
0
 90
2
 38
0
 10
13429.9536051147
 20
1532.73955187644
 10
13180.6432665419
 20
1487.68744324357
  0
LWPOLYLINE
  5
201C7
100
AcDbEntity
  8
0
100
AcDbPolyline
 70
0
 90
2
 38
0
 10
13249.6015227265
 20
1486.36245732207
 10
12378.3421998749
 20
1677.17049174773
  0
LWPOLYLINE
  5
201C8
100
AcDbEntity
  8
0
100
AcDbPolyline
 70
0
 90
2
 38
0
 10
13054.6619629471
 20
1490.33770256455
 10
13355.4826479143
 20
2587.07560993824
  0
LWPOLYLINE
  5
201C9
100
AcDbEntity
  8
0
100
AcDbPolyline
 70
0
 90
2
 38
0
 10
13305.1521389041
 20
2557.12184380862
 10
13621.8347585476
 20
2490.67993749952
  0
LWPOLYLINE
  5
201CA
100
AcDbEntity
  8
0
100
AcDbPolyline
 70
0
 90
2
 38
0
 10
13577.7819160623
 20
2488.18836601294
 10
13916.1426829273
 20
2639.65964114515
  0
LWPOLYLINE
  5
201CB
100
AcDbEntity
  8
0
100
AcDbPolyline
 70
0
 90
2
 38
0
 10
13836.3751947932
 20
2698.10908518702
 10
14132.8943134806
 20
2001.42119594751
  0
LWPOLYLINE
  5
201CC
100
AcDbEntity
  8
0
100
AcDbPolyline
 70
0
 90
2
 38
0
 10
14107.6344390742
 20
2041.27282826882
 10
14358.9026817576
 20
1714.48800584424
  0
LWPOLYLINE
  5
201CD
100
AcDbEntity
  8
0
100
AcDbPolyline
 70
0
 90
2
 38
0
 10
13848.0221767914
 20
2639.00275400461
 10
13885.3409936894
 20
2943.971736415
  0
LWPOLYLINE
  5
201CE
100
AcDbEntity
  8
0
100
AcDbPolyline
 70
0
 90
2
 38
0
 10
13864.015851484
 20
2920.00038665044
 10
14191.8876383729
 20
2970.60656948673
  0
LWPOLYLINE
  5
201CF
100
AcDbEntity
  8
0
100
AcDbPolyline
 70
0
 90
2
 38
0
 10
13330.8923912706
 20
2533.79501963226
 10
13395.6320555503
 20
4328.10337358527
  0
LWPOLYLINE
  5
201D0
100
AcDbEntity
  8
0
100
AcDbPolyline
 70
0
 90
2
 38
0
 10
13329.5466051367
 20
3934.03835911775
 10
15179.9384888718
 20
3959.59946200577
  0
LWPOLYLINE
  5
201D1
100
AcDbEntity
  8
0
100
AcDbPolyline
 70
0
 90
2
 38
0
 10
12877.6070201946
 20
3782.8028159134
 10
13404.1587643436
 20
3784.93274012528
  0
LWPOLYLINE
  5
201D2
100
AcDbEntity
  8
0
100
AcDbPolyline
 70
0
 90
2
 38
0
 10
12909.5841797442
 20
3761.50184892712
 10
12824.3127247391
 20
4147.04659159126
  0
LWPOLYLINE
  5
201D3
100
AcDbEntity
  8
0
100
AcDbPolyline
 70
0
 90
2
 38
0
 10
12822.1808655794
 20
4078.88384220854
 10
13039.5795506881
 20
5121.58049259189
  0
LWPOLYLINE
  5
201D4
100
AcDbEntity
  8
0
100
AcDbPolyline
 70
0
 90
2
 38
0
 10
12567.5033950695
 20
3429.57692056271
 10
12801.9998963338
 20
3396.1044241924
  0
LWPOLYLINE
  5
201D5
100
AcDbEntity
  8
0
100
AcDbPolyline
 70
0
 90
2
 38
0
 10
12760.9632451623
 20
3389.40992491838
 10
12967.8227289628
 20
3525.81103038747
  0
LWPOLYLINE
  5
201D6
100
AcDbEntity
  8
0
100
AcDbPolyline
 70
0
 90
2
 38
0
 10
12897.4735602299
 20
3501.54329084529
 10
13391.591785767
 20
3538.36318059161
  0
LWPOLYLINE
  5
201D7
100
AcDbEntity
  8
0
100
AcDbPolyline
 70
0
 90
2
 38
0
 10
12324.9343605378
 20
3449.07252595498
 10
12637.6582290821
 20
3491.07161864376
  0
LWPOLYLINE
  5
201D8
100
AcDbEntity
  8
0
100
AcDbPolyline
 70
0
 90
2
 38
0
 10
12712.3140590127
 20
2613.64691038063
 10
12672.1297147978
 20
1489.6333815605
  0
LWPOLYLINE
  5
201D9
100
AcDbEntity
  8
0
100
AcDbPolyline
 70
0
 90
2
 38
0
 10
12631.0435701394
 20
2037.20587755682
 10
12908.0644385611
 20
2056.66842298361
  0
LWPOLYLINE
  5
201DA
100
AcDbEntity
  8
0
100
AcDbPolyline
 70
0
 90
2
 38
0
 10
12864.7802008123
 20
2069.6434532681
 10
12866.9448130147
 20
1405.75794927217
  0
LWPOLYLINE
  5
201DB
100
AcDbEntity
  8
0
100
AcDbPolyline
 70
0
 90
2
 38
0
 10
13476.4840333218
 20
1373.43823952484
 10
13495.4749753479
 20
1887.14036965312
  0
LWPOLYLINE
  5
201DC
100
AcDbEntity
  8
0
100
AcDbPolyline
 70
0
 90
2
 38
0
 10
13529.3874758007
 20
1864.098148658
 10
13480.5534169209
 20
1854.61022603844
  0
LWPOLYLINE
  5
201DD
100
AcDbEntity
  8
0
100
AcDbPolyline
 70
0
 90
2
 38
0
 10
13513.1099414044
 20
1843.76713231154
 10
13549.7351216415
 20
1986.08568412653
  0
LWPOLYLINE
  5
201DE
100
AcDbEntity
  8
0
100
AcDbPolyline
 70
0
 90
2
 38
0
 10
13534.4649252708
 20
1938.61847314465
 10
13643.2283182199
 20
2128.27055868978
  0
LWPOLYLINE
  5
201DF
100
AcDbEntity
  8
0
100
AcDbPolyline
 70
0
 90
2
 38
0
 10
13542.0505299694
 20
2197.9339430281
 10
13854.9359801912
 20
1914.18370890722
  0
LWPOLYLINE
  5
201E0
100
AcDbEntity
  8
0
100
AcDbPolyline
 70
0
 90
2
 38
0
 10
13831.9906541384
 20
1952.16472213733
 10
13707.8566221542
 20
1578.36230426159
  0
LWPOLYLINE
  5
201E1
100
AcDbEntity
  8
0
100
AcDbPolyline
 70
0
 90
2
 38
0
 10
13212.610236256
 20
2251.58365503576
 10
13590.2571861193
 20
2175.29735343572
  0
LWPOLYLINE
  5
201E2
100
AcDbEntity
  8
0
100
AcDbPolyline
 70
0
 90
2
 38
0
 10
13314.8608686175
 20
2252.94572561426
 10
13308.0445965007
 20
2123.53148450534
  0
LWPOLYLINE
  5
201E3
100
AcDbEntity
  8
0
100
AcDbPolyline
 70
0
 90
2
 38
0
 10
13113.1567137444
 20
2096.31192126125
 10
13270.5874889779
 20
2000.56134936667
  0
LWPOLYLINE
  5
201E4
100
AcDbEntity
  8
0
100
AcDbPolyline
 70
0
 90
2
 38
0
 10
13104.6008911354
 20
1997.99675847799
 10
13203.8506169366
 20
1965.51002403541
  0
LWPOLYLINE
  5
201E5
100
AcDbEntity
  8
0
100
AcDbPolyline
 70
0
 90
2
 38
0
 10
13101.1785620917
 20
1959.52559532464
 10
13185.0270793512
 20
1915.924962916
  0
LWPOLYLINE
  5
201E6
100
AcDbEntity
  8
0
100
AcDbPolyline
 70
0
 90
2
 38
0
 10
13096.0450685263
 20
1868.9047801632
 10
13169.6265986549
 20
1856.93592274166
  0
LWPOLYLINE
  5
201E7
100
AcDbEntity
  8
0
100
AcDbPolyline
 70
0
 90
2
 38
0
 10
9512.35197316064
 20
2970.13165589544
 10
9500.99103440228
 20
2814.44221664383
  0
LWPOLYLINE
  5
201E8
100
AcDbEntity
  8
0
100
AcDbPolyline
 70
0
 90
2
 38
0
 10
9488.00627256942
 20
2829.03804767155
 10
9752.02491086873
 20
2829.57879371592
  0
LWPOLYLINE
  5
201E9
100
AcDbEntity
  8
0
100
AcDbPolyline
 70
0
 90
2
 38
0
 10
9491.79325215554
 20
2865.79814200202
 10
9753.10648912448
 20
2866.33860056842
  0
LWPOLYLINE
  5
201EA
100
AcDbEntity
  8
0
100
AcDbPolyline
 70
0
 90
2
 38
0
 10
9615.68709515955
 20
2969.59090985113
 10
9609.73623121646
 20
2809.03648106824
  0
LWPOLYLINE
  5
201EB
100
AcDbEntity
  8
0
100
AcDbPolyline
 70
0
 90
2
 38
0
 10
9397.65591240325
 20
2977.15905464813
 10
9384.13036144246
 20
2778.76361440204
  0
LWPOLYLINE
  5
201EC
100
AcDbEntity
  8
0
100
AcDbPolyline
 70
0
 90
2
 38
0
 10
9313.79720530822
 20
2862.01406960347
 10
9475.56302770984
 20
2864.71693739132
  0
LWPOLYLINE
  5
201ED
100
AcDbEntity
  8
0
100
AcDbPolyline
 70
0
 90
2
 38
0
 10
9325.15887191205
 20
2830.65999832662
 10
9462.03747674904
 20
2828.49758910516
  0
LWPOLYLINE
  5
201EE
100
AcDbEntity
  8
0
100
AcDbPolyline
 70
0
 90
2
 38
0
 10
9295.94388563337
 20
2804.71166262537
 10
9470.6937420225
 20
2791.73749477474
  0
LWPOLYLINE
  5
201EF
100
AcDbEntity
  8
0
100
AcDbPolyline
 70
0
 90
2
 38
0
 10
9449.59350404399
 20
2783.08814536699
 10
9456.62740193377
 20
2964.72563284187
  0
LWPOLYLINE
  5
201F0
100
AcDbEntity
  8
0
100
AcDbPolyline
 70
0
 90
2
 38
0
 10
9717.66405765293
 20
2772.08348902606
 10
9723.43805516534
 20
2630.37094075244
  0
LWPOLYLINE
  5
201F1
100
AcDbEntity
  8
0
100
AcDbPolyline
 70
0
 90
2
 38
0
 10
9747.91549577296
 20
2649.39335742121
 10
9651.70743587415
 20
2631.39005012362
  0
LWPOLYLINE
  5
201F2
100
AcDbEntity
  8
0
100
AcDbPolyline
 70
0
 90
2
 38
0
 10
9684.68319930462
 20
2629.69163033098
 10
9615.67181040626
 20
2639.20283866534
  0
LWPOLYLINE
  5
201F3
100
AcDbEntity
  8
0
100
AcDbPolyline
 70
0
 90
2
 38
0
 10
9473.56945917499
 20
2621.19953136781
 10
9639.8086193694
 20
2640.22194803652
  0
LWPOLYLINE
  5
201F4
100
AcDbEntity
  8
0
100
AcDbPolyline
 70
0
 90
2
 38
0
 10
9639.46871557029
 20
2666.03804387583
 10
9642.86848140671
 20
2630.37094075244
  0
LWPOLYLINE
  5
201F5
100
AcDbEntity
  8
0
100
AcDbPolyline
 70
0
 90
2
 38
0
 10
9577.93666594301
 20
2603.53602301999
 10
9556.17918357358
 20
2798.17556370771
  0
LWPOLYLINE
  5
201F6
100
AcDbEntity
  8
0
100
AcDbPolyline
 70
0
 90
2
 38
0
 10
9488.86731367069
 20
2697.96822098619
 10
9726.83782100165
 20
2736.69236474513
  0
LWPOLYLINE
  5
201F7
100
AcDbEntity
  8
0
100
AcDbPolyline
 70
0
 90
2
 38
0
 10
9479.68845540425
 20
2649.39335742121
 10
9699.30124620221
 20
2662.9807157623
  0
LWPOLYLINE
  5
201F8
100
AcDbEntity
  8
0
100
AcDbPolyline
 70
0
 90
2
 38
0
 10
9678.70394939114
 20
2674.42090121389
 10
9689.57941527152
 20
2629.32567088684
  0
LWPOLYLINE
  5
201F9
100
AcDbEntity
  8
0
100
AcDbPolyline
 70
0
 90
2
 38
0
 10
9606.92893153092
 20
2645.08176296455
 10
9628.67913544644
 20
2550.54492302058
  0
LWPOLYLINE
  5
201FA
100
AcDbEntity
  8
0
100
AcDbPolyline
 70
0
 90
2
 38
0
 10
9500.89787019184
 20
2583.14377386787
 10
9706.43558675633
 20
2598.89986594551
  0
LWPOLYLINE
  5
201FB
100
AcDbEntity
  8
0
100
AcDbPolyline
 70
0
 90
2
 38
0
 10
9543.85384966782
 20
2778.73716642964
 10
9617.80366956594
 20
2817.8560174288
  0
LWPOLYLINE
  5
201FC
100
AcDbEntity
  8
0
100
AcDbPolyline
 70
0
 90
2
 38
0
 10
9532.43541112333
 20
2741.24860294646
 10
9668.91661237506
 20
2779.28049977566
  0
LWPOLYLINE
  5
201FD
100
AcDbEntity
  8
0
100
AcDbPolyline
 70
0
 90
2
 38
0
 10
9654.77894343773
 20
2768.95774115785
 10
9658.04187434004
 20
2809.16297137097
  0
LWPOLYLINE
  5
201FE
100
AcDbEntity
  8
0
100
AcDbPolyline
 70
0
 90
2
 38
0
 10
9650.42933936184
 20
2799.92659196717
 10
9701.54155432561
 20
2822.20239671873
  0
LWPOLYLINE
  5
201FF
100
AcDbEntity
  8
0
100
AcDbPolyline
 70
0
 90
2
 38
0
 10
9692.84161832847
 20
2835.2421095444
 10
9691.75421730953
 20
2810.24963806296
  0
LWPOLYLINE
  5
20200
100
AcDbEntity
  8
0
100
AcDbPolyline
 70
0
 90
2
 38
0
 10
9695.88328423095
 20
2822.57554311189
 10
9704.39252473472
 20
2769.17794927582
  0
LWPOLYLINE
  5
20201
100
AcDbEntity
  8
0
100
AcDbPolyline
 70
0
 90
2
 38
0
 10
9696.22391587543
 20
2772.23901460285
 10
9745.57911205746
 20
2767.47751713748
  0
LWPOLYLINE
  5
20202
100
AcDbEntity
  8
0
100
AcDbPolyline
 70
0
 90
2
 38
0
 10
9602.74673189572
 20
2820.86591167876
 10
9630.04602909682
 20
2754.7180953236
  0
LWPOLYLINE
  5
20203
100
AcDbEntity
  8
0
100
AcDbPolyline
 70
0
 90
2
 38
0
 10
9631.06937972107
 20
2763.24210434046
 10
9614.68994696951
 20
2715.16572755954
  0
LWPOLYLINE
  5
20204
100
AcDbEntity
  8
0
100
AcDbPolyline
 70
0
 90
2
 38
0
 10
9548.83012862818
 20
2731.87308420963
 10
9644.71939224424
 20
2746.19379882881
  0
LWPOLYLINE
  5
20205
100
AcDbEntity
  8
0
100
AcDbPolyline
 70
0
 90
2
 38
0
 10
9477.16938249487
 20
2722.32594113011
 10
9501.05654048769
 20
2691.97976758395
  0
LWPOLYLINE
  5
20206
100
AcDbEntity
  8
0
100
AcDbPolyline
 70
0
 90
2
 38
0
 10
9472.73316481709
 20
2711.41500260448
 10
9578.17685492313
 20
2727.78141039296
  0
LWPOLYLINE
  5
20207
100
AcDbEntity
  8
0
100
AcDbPolyline
 70
0
 90
2
 38
0
 10
9515.38854414527
 20
2723.00783885323
 10
9539.2757021382
 20
2621.39932855061
  0
LWPOLYLINE
  5
20208
100
AcDbEntity
  8
0
100
AcDbPolyline
 70
0
 90
2
 38
0
 10
9723.39802366856
 20
2881.01176316757
 10
9969.63030406938
 20
2879.37141392304
  0
LWPOLYLINE
  5
20209
100
AcDbEntity
  8
0
100
AcDbPolyline
 70
0
 90
2
 38
0
 10
9942.27132354607
 20
2896.86732261971
 10
10089.4634976191
 20
2899.05445494573
  0
LWPOLYLINE
  5
2020A
100
AcDbEntity
  8
0
100
AcDbPolyline
 70
0
 90
2
 38
0
 10
10025.4429445889
 20
2910.53603722371
 10
10021.0656823881
 20
2842.19303915958
  0
LWPOLYLINE
  5
2020B
100
AcDbEntity
  8
0
100
AcDbPolyline
 70
0
 90
2
 38
0
 10
9923.66686742438
 20
2847.66029501881
 10
10039.1227987733
 20
2848.75386118185
  0
LWPOLYLINE
  5
2020C
100
AcDbEntity
  8
0
100
AcDbPolyline
 70
0
 90
2
 38
0
 10
10154.7912609773
 20
2976.30840736203
 10
10167.3924482875
 20
2769.37889637047
  0
LWPOLYLINE
  5
2020D
100
AcDbEntity
  8
0
100
AcDbPolyline
 70
0
 90
2
 38
0
 10
10273.5006612384
 20
2759.09207249776
 10
10486.6363558732
 20
2758.21210245963
  0
LWPOLYLINE
  5
2020E
100
AcDbEntity
  8
0
100
AcDbPolyline
 70
0
 90
2
 38
0
 10
10042.7503802181
 20
2689.5704147942
 10
10483.9942770922
 20
2713.33104321343
  0
LWPOLYLINE
  5
2020F
100
AcDbEntity
  8
0
100
AcDbPolyline
 70
0
 90
2
 38
0
 10
10625.0325183571
 20
2654.80886724748
 10
10766.903414753
 20
2671.35638615134
  0
LWPOLYLINE
  5
20210
100
AcDbEntity
  8
0
100
AcDbPolyline
 70
0
 90
2
 38
0
 10
11942.4028402339
 20
2387.21345713595
 10
11949.0771824989
 20
2271.05884949281
  0
LWPOLYLINE
  5
20211
100
AcDbEntity
  8
0
100
AcDbPolyline
 70
0
 90
2
 38
0
 10
11936.2845718501
 20
2282.17418484867
 10
12089.7980831719
 20
2238.82452069985
  0
LWPOLYLINE
  5
20212
100
AcDbEntity
  8
0
100
AcDbPolyline
 70
0
 90
2
 38
0
 10
11862.864623399
 20
2387.76915203425
 10
11877.8822574179
 20
2293.28952020453
  0
LWPOLYLINE
  5
20213
100
AcDbEntity
  8
0
100
AcDbPolyline
 70
0
 90
2
 38
0
 10
11749.3978935124
 20
2276.06067853345
 10
11895.6809886881
 20
2312.18544657045
  0
LWPOLYLINE
  5
20214
100
AcDbEntity
  8
0
100
AcDbPolyline
 70
0
 90
2
 38
0
 10
12199.986597403
 20
2385.53429836669
 10
12203.8798424166
 20
2239.92441137804
  0
LWPOLYLINE
  5
20215
100
AcDbEntity
  8
0
100
AcDbPolyline
 70
0
 90
2
 38
0
 10
12172.7324266164
 20
2317.73118391301
 10
12356.8380077027
 20
2307.72752583172
  0
LWPOLYLINE
  5
20216
100
AcDbEntity
  8
0
100
AcDbPolyline
 70
0
 90
2
 38
0
 10
12326.2459379382
 20
2292.16605633357
 10
12331.2520585597
 20
2381.64385912265
  0
LWPOLYLINE
  5
20217
100
AcDbEntity
  8
0
100
AcDbPolyline
 70
0
 90
2
 38
0
 10
12315.1222767783
 20
2326.06746982143
 10
12267.3035622234
 20
1971.27625697391
  0
LWPOLYLINE
  5
20218
100
AcDbEntity
  8
0
100
AcDbPolyline
 70
0
 90
2
 38
0
 10
12277.3158034664
 20
1972.38764677051
 10
12058.1688337207
 20
1971.83195187221
  0
LWPOLYLINE
  5
20219
100
AcDbEntity
  8
0
100
AcDbPolyline
 70
0
 90
2
 38
0
 10
12160.5119024473
 20
1960.71661651641
 10
12205.0087306231
 20
2297.50940919167
  0
LWPOLYLINE
  5
2021A
100
AcDbEntity
  8
0
100
AcDbPolyline
 70
0
 90
2
 38
0
 10
11761.7093983557
 20
2229.70629473799
 10
11943.5899560718
 20
2281.94793969346
  0
LWPOLYLINE
  5
2021B
100
AcDbEntity
  8
0
100
AcDbPolyline
 70
0
 90
2
 38
0
 10
11824.0049578015
 20
2254.15974504285
 10
11877.9572254935
 20
1998.50846924831
  0
LWPOLYLINE
  5
2021C
100
AcDbEntity
  8
0
100
AcDbPolyline
 70
0
 90
2
 38
0
 10
11802.3129815176
 20
2009.06810970581
 10
12068.1810749636
 20
2010.73548187868
  0
LWPOLYLINE
  5
2021D
100
AcDbEntity
  8
0
100
AcDbPolyline
 70
0
 90
2
 38
0
 10
11955.2704189583
 20
1999.06445162458
 10
11947.4832010856
 20
2153.56660689792
  0
LWPOLYLINE
  5
2021E
100
AcDbEntity
  8
0
100
AcDbPolyline
 70
0
 90
2
 38
0
 10
11835.1293468068
 20
2141.89557664376
 10
12085.9798062339
 20
2141.33988174546
  0
LWPOLYLINE
  5
2021F
100
AcDbEntity
  8
0
100
AcDbPolyline
 70
0
 90
2
 38
0
 10
11872.9518327174
 20
2277.50180555118
 10
11912.4425402715
 20
2196.91627104674
  0
LWPOLYLINE
  5
20220
100
AcDbEntity
  8
0
100
AcDbPolyline
 70
0
 90
2
 38
0
 10
11885.1883694851
 20
2208.03131892456
 10
11993.0929048689
 20
2208.03131892456
  0
LWPOLYLINE
  5
20221
100
AcDbEntity
  8
0
100
AcDbPolyline
 70
0
 90
2
 38
0
 10
11964.1697845934
 20
2226.37155039224
 10
11994.7611265124
 20
2082.98473047471
  0
LWPOLYLINE
  5
20222
100
AcDbEntity
  8
0
100
AcDbPolyline
 70
0
 90
2
 38
0
 10
11958.0515162096
 20
2188.57969766035
 10
12090.9851990099
 20
2183.5778686197
  0
LWPOLYLINE
  5
20223
100
AcDbEntity
  8
0
100
AcDbPolyline
 70
0
 90
2
 38
0
 10
11842.9165646796
 20
2099.10189487121
 10
12085.9798062339
 20
2095.76715052547
  0
LWPOLYLINE
  5
20224
100
AcDbEntity
  8
0
100
AcDbPolyline
 70
0
 90
2
 38
0
 10
11891.8627117501
 20
2218.03526448383
 10
11913.554688034
 20
2041.85813339712
  0
LWPOLYLINE
  5
20225
100
AcDbEntity
  8
0
100
AcDbPolyline
 70
0
 90
2
 38
0
 10
11851.8159303147
 20
2050.19470678346
 10
12035.3647096744
 20
2049.63872440718
  0
LWPOLYLINE
  5
20226
100
AcDbEntity
  8
0
100
AcDbPolyline
 70
0
 90
2
 38
0
 10
12045.0683444702
 20
2264.17403980868
 10
12030.5703920626
 20
2042.98015987827
  0
LWPOLYLINE
  5
20227
100
AcDbEntity
  8
0
100
AcDbPolyline
 70
0
 90
2
 38
0
 10
11558.9134753911
 20
2115.3599234685
 10
11812.2247800961
 20
2134.95902092667
  0
LWPOLYLINE
  5
20228
100
AcDbEntity
  8
0
100
AcDbPolyline
 70
0
 90
2
 38
0
 10
11296.8258109227
 20
1960.23509093199
 10
11355.7441677394
 20
1918.18396473228
  0
LWPOLYLINE
  5
20229
100
AcDbEntity
  8
0
100
AcDbPolyline
 70
0
 90
2
 38
0
 10
11185.7216671859
 20
1942.29330391804
 10
11324.8820673337
 20
1954.62812078378
  0
LWPOLYLINE
  5
2022A
100
AcDbEntity
  8
0
100
AcDbPolyline
 70
0
 90
2
 38
0
 10
10013.2209647292
 20
1944.7771134997
 10
10149.2101424944
 20
2172.14918228652
  0
LWPOLYLINE
  5
2022B
100
AcDbEntity
  8
0
100
AcDbPolyline
 70
0
 90
2
 38
0
 10
10119.2927854104
 20
2158.56124898954
 10
10268.8802986758
 20
2119.60884772969
  0
LWPOLYLINE
  5
2022C
100
AcDbEntity
  8
0
100
AcDbPolyline
 70
0
 90
2
 38
0
 10
10479.5711606315
 20
2397.59428630187
 10
10468.2204117087
 20
2301.19286430389
  0
LWPOLYLINE
  5
2022D
100
AcDbEntity
  8
0
100
AcDbPolyline
 70
0
 90
2
 38
0
 10
10446.6543526779
 20
2333.51573630882
 10
10599.3177405794
 20
2313.66825789248
  0
LWPOLYLINE
  5
2022E
100
AcDbEntity
  8
0
100
AcDbPolyline
 70
0
 90
2
 38
0
 10
7947.85484889359
 20
3948.60630478326
 10
8311.03951077384
 20
4020.71986378176
  0
LWPOLYLINE
  5
2022F
100
AcDbEntity
  8
0
100
AcDbPolyline
 70
0
 90
2
 38
0
 10
8192.79738725582
 20
3980.16736019193
 10
8752.43188810826
 20
4235.0047858794
  0
LWPOLYLINE
  5
20230
100
AcDbEntity
  8
0
100
AcDbPolyline
 70
0
 90
2
 38
0
 10
8688.30725318671
 20
4214.61771133059
 10
8835.50306648679
 20
4227.72354408726
  0
LWPOLYLINE
  5
20231
100
AcDbEntity
  8
0
100
AcDbPolyline
 70
0
 90
2
 38
0
 10
8813.64223007136
 20
4068.99632522347
 10
8842.82737468881
 20
4480.13523074111
  0
LWPOLYLINE
  5
20232
100
AcDbEntity
  8
0
100
AcDbPolyline
 70
0
 90
2
 38
0
 10
8802.06803261256
 20
4128.70492273383
 10
8882.22419018717
 20
3853.48042249755
  0
LWPOLYLINE
  5
20233
100
AcDbEntity
  8
0
100
AcDbPolyline
 70
0
 90
2
 38
0
 10
8394.00151234318
 20
4344.22456267319
 10
8530.99511675245
 20
4045.70083614485
  0
LWPOLYLINE
  5
20234
100
AcDbEntity
  8
0
100
AcDbPolyline
 70
0
 90
2
 38
0
 10
8512.04930114083
 20
4060.26274477318
 10
8573.25891525857
 20
4077.73738010071
  0
LWPOLYLINE
  5
20235
100
AcDbEntity
  8
0
100
AcDbPolyline
 70
0
 90
2
 38
0
 10
8541.1965977978
 20
4083.56225854327
 10
8669.44659548637
 20
3806.88168243534
  0
LWPOLYLINE
  5
20236
100
AcDbEntity
  8
0
100
AcDbPolyline
 70
0
 90
2
 38
0
 10
8621.35275537241
 20
3814.16263674951
 10
9237.82543090498
 20
3946.67819009995
  0
LWPOLYLINE
  5
20237
100
AcDbEntity
  8
0
100
AcDbPolyline
 70
0
 90
2
 38
0
 10
9201.39094616112
 20
3959.78402285662
 10
9367.53184722725
 20
3515.63891022111
  0
LWPOLYLINE
  5
20238
100
AcDbEntity
  8
0
100
AcDbPolyline
 70
0
 90
2
 38
0
 10
9374.76080768264
 20
3520.07929480425
 10
9452.3076395191
 20
3314.97325651831
  0
LWPOLYLINE
  5
20239
100
AcDbEntity
  8
0
100
AcDbPolyline
 70
0
 90
2
 38
0
 10
9432.23657492805
 20
3319.53121958737
 10
9487.88763377013
 20
3350.52479350136
  0
LWPOLYLINE
  5
2023A
100
AcDbEntity
  8
0
100
AcDbPolyline
 70
0
 90
2
 38
0
 10
9472.37797626469
 20
3352.347978729
 10
9510.69539704337
 20
3263.01305248647
  0
LWPOLYLINE
  5
2023B
100
AcDbEntity
  8
0
100
AcDbPolyline
 70
0
 90
2
 38
0
 10
9505.2212718334
 20
3283.97939512634
 10
9499.74787446891
 20
3199.20243195287
  0
LWPOLYLINE
  5
2023C
100
AcDbEntity
  8
0
100
AcDbPolyline
 70
0
 90
2
 38
0
 10
9374.76080768264
 20
3218.34558936517
 10
9777.09045055485
 20
3204.67170015787
  0
LWPOLYLINE
  5
2023D
100
AcDbEntity
  8
0
100
AcDbPolyline
 70
0
 90
2
 38
0
 10
9752.45797887829
 20
3209.22966322693
 10
9809.02175584459
 20
3177.32420922117
  0
LWPOLYLINE
  5
2023E
100
AcDbEntity
  8
0
100
AcDbPolyline
 70
0
 90
2
 38
0
 10
9770.70433506591
 20
3182.79376490408
 10
9987.83517306962
 20
3216.52240413753
  0
LWPOLYLINE
  5
2023F
100
AcDbEntity
  8
0
100
AcDbPolyline
 70
0
 90
2
 38
0
 10
9393.00716387038
 20
3223.81514504808
 10
9380.23420504725
 20
3164.56220010563
  0
LWPOLYLINE
  5
20240
100
AcDbEntity
  8
0
100
AcDbPolyline
 70
0
 90
2
 38
0
 10
9302.68810105626
 20
3191.90969104232
 10
9387.53303866042
 20
3182.79376490408
  0
LWPOLYLINE
  5
20241
100
AcDbEntity
  8
0
100
AcDbPolyline
 70
0
 90
2
 38
0
 10
9757.93210408813
 20
3192.82128365611
 10
9765.23093770142
 20
3263.92464510026
  0
LWPOLYLINE
  5
20242
100
AcDbEntity
  8
0
100
AcDbPolyline
 70
0
 90
2
 38
0
 10
9769.79234478693
 20
3231.10759848065
 10
9744.24715498602
 20
3312.23847867682
  0
LWPOLYLINE
  5
20243
100
AcDbEntity
  8
0
100
AcDbPolyline
 70
0
 90
2
 38
0
 10
9751.5459885993
 20
3293.09532126458
 10
9725.08880851942
 20
3328.64685824764
  0
LWPOLYLINE
  5
20244
100
AcDbEntity
  8
0
100
AcDbPolyline
 70
0
 90
2
 38
0
 10
9733.29963241157
 20
3297.65328433365
 10
9746.07186338934
 20
3375.13750659657
  0
LWPOLYLINE
  5
20245
100
AcDbEntity
  8
0
100
AcDbPolyline
 70
0
 90
2
 38
0
 10
9758.84482221247
 20
3353.25957134285
 10
9715.96599434828
 20
3385.1650253486
  0
LWPOLYLINE
  5
20246
100
AcDbEntity
  8
0
100
AcDbPolyline
 70
0
 90
2
 38
0
 10
9726.91351692274
 20
3343.23234006879
 10
9731.47492400825
 20
3462.6495350895
  0
LWPOLYLINE
  5
20247
100
AcDbEntity
  8
0
100
AcDbPolyline
 70
0
 90
2
 38
0
 10
11658.9114262576
 20
4312.01696933061
 10
12028.9560309784
 20
4297.07760213967
  0
LWPOLYLINE
  5
20248
100
AcDbEntity
  8
0
100
AcDbPolyline
 70
0
 90
2
 38
0
 10
10156.827044545
 20
3650.03945656074
 10
10132.7950453185
 20
3398.57242248621
  0
LWPOLYLINE
  5
20249
100
AcDbEntity
  8
0
100
AcDbPolyline
 70
0
 90
2
 38
0
 10
10102.0879759819
 20
3427.92133498623
 10
10251.6201729974
 20
3419.91708612262
  0
LWPOLYLINE
  5
2024A
100
AcDbEntity
  8
0
100
AcDbPolyline
 70
0
 90
2
 38
0
 10
10223.5828405666
 20
3636.69904178806
 10
10219.5775073622
 20
3336.53927818453
  0
LWPOLYLINE
  5
2024B
100
AcDbEntity
  8
0
100
AcDbPolyline
 70
0
 90
2
 38
0
 10
9965.90591918712
 20
3347.87855887186
 10
10169.51120623
 20
3361.2189736446
  0
LWPOLYLINE
  5
2024C
100
AcDbEntity
  8
0
100
AcDbPolyline
 70
0
 90
2
 38
0
 10
10164.1702767273
 20
3346.54466113355
 10
10162.8354082742
 20
3437.92671793531
  0
LWPOLYLINE
  5
2024D
100
AcDbEntity
  8
0
100
AcDbPolyline
 70
0
 90
2
 38
0
 10
9978.58935302683
 20
3545.98422133341
 10
10080.058279435
 20
3545.98422133341
  0
LWPOLYLINE
  5
2024E
100
AcDbEntity
  8
0
100
AcDbPolyline
 70
0
 90
2
 38
0
 10
10056.0262802086
 20
3519.97034065711
 10
10074.7180777777
 20
3588.67354860617
  0
LWPOLYLINE
  5
2024F
100
AcDbEntity
  8
0
100
AcDbPolyline
 70
0
 90
2
 38
0
 10
10054.0232496838
 20
3571.99810200976
 10
10184.8643769757
 20
3565.3277508844
  0
LWPOLYLINE
  5
20250
100
AcDbEntity
  8
0
100
AcDbPolyline
 70
0
 90
2
 38
0
 10
10015.9729481648
 20
3561.99271906068
 10
10015.3055139382
 20
3333.87119522999
  0
LWPOLYLINE
  5
20251
100
AcDbEntity
  8
0
100
AcDbPolyline
 70
0
 90
2
 38
0
 10
10270.9794047928
 20
3537.9799724698
 10
10443.8768946535
 20
3399.90632022452
  0
LWPOLYLINE
  5
20252
100
AcDbEntity
  8
0
100
AcDbPolyline
 70
0
 90
2
 38
0
 10
10413.8365316979
 20
3433.25750089536
 10
10455.8928942667
 20
3335.87232931534
  0
LWPOLYLINE
  5
20253
100
AcDbEntity
  8
0
100
AcDbPolyline
 70
0
 90
2
 38
0
 10
10287.6681718369
 20
3558.65768723702
 10
10293.0091013396
 20
3323.86581228091
  0
LWPOLYLINE
  5
20254
100
AcDbEntity
  8
0
100
AcDbPolyline
 70
0
 90
2
 38
0
 10
10211.5668409534
 20
3457.93719635543
 10
10358.4293010629
 20
3487.95334520255
  0
LWPOLYLINE
  5
20255
100
AcDbEntity
  8
0
100
AcDbPolyline
 70
0
 90
2
 38
0
 10
10313.7032015881
 20
3485.95221111714
 10
10357.09443261
 20
3307.19036568451
  0
LWPOLYLINE
  5
20256
100
AcDbEntity
  8
0
100
AcDbPolyline
 70
0
 90
2
 38
0
 10
10190.2053064784
 20
3381.89668841183
 10
10367.1074016982
 20
3349.21274408809
  0
LWPOLYLINE
  5
20257
100
AcDbEntity
  8
0
100
AcDbPolyline
 70
0
 90
2
 38
0
 10
10351.7542309526
 20
3348.54550774099
 10
10450.5526926094
 20
3381.89668841183
  0
LWPOLYLINE
  5
20258
100
AcDbEntity
  8
0
100
AcDbPolyline
 70
0
 90
2
 38
0
 10
10323.0487364499
 20
3394.57015431539
 10
10410.4986327201
 20
3406.57667134988
  0
LWPOLYLINE
  5
20259
100
AcDbEntity
  8
0
100
AcDbPolyline
 70
0
 90
2
 38
0
 10
10393.1424314495
 20
3389.23398840631
 10
10390.4719666981
 20
3455.93606227002
  0
LWPOLYLINE
  5
2025A
100
AcDbEntity
  8
0
100
AcDbPolyline
 70
0
 90
2
 38
0
 10
10206.8940735225
 20
3435.25863498071
 10
10355.759564157
 20
3433.25750089536
  0
LWPOLYLINE
  5
2025B
100
AcDbEntity
  8
0
100
AcDbPolyline
 70
0
 90
2
 38
0
 10
10206.8940735225
 20
3515.30112361716
 10
10307.6948378589
 20
3499.95957475901
  0
LWPOLYLINE
  5
2025C
100
AcDbEntity
  8
0
100
AcDbPolyline
 70
0
 90
2
 38
0
 10
11594.3289765831
 20
3504.94789233548
 10
11590.3090864709
 20
3346.26580751158
  0
LWPOLYLINE
  5
2025D
100
AcDbEntity
  8
0
100
AcDbPolyline
 70
0
 90
2
 38
0
 10
11373.8718851278
 20
3441.34109367617
 10
11692.1615874018
 20
3399.829276131
  0
LWPOLYLINE
  5
2025E
100
AcDbEntity
  8
0
100
AcDbPolyline
 70
0
 90
2
 38
0
 10
11420.1082637956
 20
3535.74713114795
 10
11409.3863732933
 20
3337.56154981325
  0
LWPOLYLINE
  5
2025F
100
AcDbEntity
  8
0
100
AcDbPolyline
 70
0
 90
2
 38
0
 10
11498.5074025886
 20
3520.34751174174
 10
11482.4256586033
 20
3345.59627134073
  0
LWPOLYLINE
  5
20260
100
AcDbEntity
  8
0
100
AcDbPolyline
 70
0
 90
2
 38
0
 10
11456.9627153319
 20
3369.69986096729
 10
11651.2865179078
 20
3352.29163304868
  0
LWPOLYLINE
  5
20261
100
AcDbEntity
  8
0
100
AcDbPolyline
 70
0
 90
2
 38
0
 10
11467.0135323808
 20
3461.42746627796
 10
11694.8415141433
 20
3440.0020213346
  0
LWPOLYLINE
  5
20262
100
AcDbEntity
  8
0
100
AcDbPolyline
 70
0
 90
2
 38
0
 10
11978.3176433663
 20
3447.24014143256
 10
11991.1786714821
 20
3920.58525298437
  0
LWPOLYLINE
  5
20263
100
AcDbEntity
  8
0
100
AcDbPolyline
 70
0
 90
2
 38
0
 10
11945.0922289655
 20
3645.35989031423
 10
12250.5485612486
 20
3578.96283056698
  0
LWPOLYLINE
  5
20264
100
AcDbEntity
  8
0
100
AcDbPolyline
 70
0
 90
2
 38
0
 10
11853.991460198
 20
3460.09126871597
 10
11886.1447583331
 20
3840.2664980276
  0
LWPOLYLINE
  5
20265
100
AcDbEntity
  8
0
100
AcDbPolyline
 70
0
 90
2
 38
0
 10
11430.64018665
 20
3832.77022272075
 10
12263.4095893644
 20
3766.37345045147
  0
LWPOLYLINE
  5
20266
100
AcDbEntity
  8
0
100
AcDbPolyline
 70
0
 90
2
 38
0
 10
11484.2292594903
 20
3492.21865570749
 10
11504.584183785
 20
3845.94476271007
  0
LWPOLYLINE
  5
20267
100
AcDbEntity
  8
0
100
AcDbPolyline
 70
0
 90
2
 38
0
 10
11554.9576356736
 20
3800.96624843514
 10
11549.5985100359
 20
4051.56078689854
  0
LWPOLYLINE
  5
20268
100
AcDbEntity
  8
0
100
AcDbPolyline
 70
0
 90
2
 38
0
 10
11579.4066903108
 20
3837.76371490053
 10
11567.587208954
 20
3478.10233791848
  0
LWPOLYLINE
  5
20269
100
AcDbEntity
  8
0
100
AcDbPolyline
 70
0
 90
2
 38
0
 10
11397.5588856373
 20
3123.21855716756
 10
11747.4465400105
 20
3130.77175311069
  0
LWPOLYLINE
  5
2026A
100
AcDbEntity
  8
0
100
AcDbPolyline
 70
0
 90
2
 38
0
 10
11413.7570848857
 20
3036.89582499867
 10
11762.5653445392
 20
3010.99894785241
  0
LWPOLYLINE
  5
2026B
100
AcDbEntity
  8
0
100
AcDbPolyline
 70
0
 90
2
 38
0
 10
11627.5907832535
 20
3139.85749406298
 10
11609.2323388752
 20
3000.66210281453
  0
ENDSEC
  0
SECTION
  2
OBJECTS
  0
DICTIONARY
  5
C
330
0
100
AcDbDictionary
281
     1
  3
ACAD_GROUP
350
D
  3
ACAD_LAYOUT
350
1A
  3
ACAD_MLEADERSTYLE
350
43
  3
ACAD_PLOTSETTINGS
350
19
  3
ACAD_PLOTSTYLENAME
350
E
  3
ACAD_TABLESTYLE
350
42
  0
DICTIONARY
  5
D
102
{ACAD_REACTORS
330
C
102
}
330
C
100
AcDbDictionary
281
     1
  0
DICTIONARY
  5
1A
102
{ACAD_REACTORS
330
C
102
}
330
C
100
AcDbDictionary
281
     1
  3
Layout1
350
1E
  3
Model
350
22
  0
DICTIONARY
  5
43
102
{ACAD_REACTORS
330
C
102
}
330
C
100
AcDbDictionary
281
     1
  0
DICTIONARY
  5
19
102
{ACAD_REACTORS
330
C
102
}
330
C
100
AcDbDictionary
281
     1
  0
ACDBDICTIONARYWDFLT
  5
E
102
{ACAD_REACTORS
330
C
102
}
330
C
100
AcDbDictionary
281
     1
  3
Normal
350
F
100
AcDbDictionaryWithDefault
340
F
  0
DICTIONARY
  5
42
102
{ACAD_REACTORS
330
C
102
}
330
C
100
AcDbDictionary
281
     1
  0
LAYOUT
  5
1E
102
{ACAD_REACTORS
330
1A
102
}
330
1A
100
AcDbPlotSettings
  1

  2
none_device
  4

  6

 40
0.0
 41
0.0
 42
0.0
 43
0.0
 44
0.0
 45
0.0
 46
0.0
 47
0.0
 48
0.0
 49
0.0
140
0.0
141
0.0
142
1.0
143
1.0
 70
   688
 72
     0
 73
     0
 74
     5
  7

 75
    16
 76
     0
 77
     2
 78
   300
147
1.0
148
0.0
149
0.0
100
AcDbLayout
  1
Layout1
 70
     1
 71
     1
 10
0.0
 20
0.0
 11
12.0
 21
9.0
 12
0.0
 22
0.0
 32
0.0
 14
1.000000000000000E+20
 24
1.000000000000000E+20
 34
1.000000000000000E+20
 15
-1.000000000000000E+20
 25
-1.000000000000000E+20
 35
-1.000000000000000E+20
146
0.0
 13
0.0
 23
0.0
 33
0.0
 16
1.0
 26
0.0
 36
0.0
 17
0.0
 27
1.0
 37
0.0
 76
     0
330
1B
  0
LAYOUT
  5
22
102
{ACAD_REACTORS
330
1A
102
}
330
1A
100
AcDbPlotSettings
  1

  2
none_device
  4

  6

 40
0.0
 41
0.0
 42
0.0
 43
0.0
 44
0.0
 45
0.0
 46
0.0
 47
0.0
 48
0.0
 49
0.0
140
0.0
141
0.0
142
1.0
143
1.0
 70
  1712
 72
     0
 73
     0
 74
     0
  7

 75
     0
 76
     0
 77
     2
 78
   300
147
1.0
148
0.0
149
0.0
100
AcDbLayout
  1
Model
 70
     1
 71
     0
 10
0.0
 20
0.0
 11
12.0
 21
9.0
 12
0.0
 22
0.0
 32
0.0
 14
30.0
 24
49.75
 34
0.0
 15
130.5
 25
163.1318914119703
 35
0.0
146
0.0
 13
0.0
 23
0.0
 33
0.0
 16
1.0
 26
0.0
 36
0.0
 17
0.0
 27
1.0
 37
0.0
 76
     0
330
1F
331
29
  0
ACDBPLACEHOLDER
  5
F
102
{ACAD_REACTORS
330
E
102
}
330
E
  0
ENDSEC
  0
EOF
