  0
SECTION
  2
HEADER
  9
$ACADVER
  1
AC1018
  9
$ACADMAINTVER
 70
     0
  9
$DWGCODEPAGE
  3
ANSI_1252
  9
$EXTMIN
 10
8389.18032460986
 20
-2600.85893939983
 30
0.0
  9
$EXTMAX
 10
22219.5077782306
 20
6753.4717490772
 30
0.0
  9
$LIMMIN
 10
0.0
 20
0.0
  9
$LIMMAX
 10
12.0
 20
9.0
  9
$ORTHOMODE
 70
     0
  9
$REGENMODE
 70
     1
  9
$FILLMODE
 70
     1
  9
$QTEXTMODE
 70
     0
  9
$MIRRTEXT
 70
     1
  9
$LTSCALE
 40
1.0
  9
$ATTMODE
 70
     1
  9
$TEXTSIZE
 40
0.2
  9
$TRACEWID
 40
0.05
  9
$TEXTSTYLE
  7
Standard
  9
$CLAYER
  8
0
  9
$CELTYPE
  6
ByLayer
  9
$CECOLOR
 62
   256
  9
$CELTSCALE
 40
1.0
  9
$DISPSILH
 70
     0
  9
$LUNITS
 70
     2
  9
$LUPREC
 70
     4
  9
$SKETCHINC
 40
0.1
  9
$FILLETRAD
 40
0.5
  9
$AUNITS
 70
     0
  9
$AUPREC
 70
     0
  9
$MENU
  1
.
  9
$ELEVATION
 40
0.0
  9
$PELEVATION
 40
0.0
  9
$THICKNESS
 40
0.0
  9
$LIMCHECK
 70
     0
  9
$CHAMFERA
 40
0.5
  9
$CHAMFERB
 40
0.5
  9
$CHAMFERC
 40
1.0
  9
$CHAMFERD
 40
0.0
  9
$SKPOLY
 70
     0
  9
$ANGBASE
 50
0.0
  9
$ANGDIR
 70
     0
  9
$PDMODE
 70
     0
  9
$PDSIZE
 40
0.0
  9
$PLINEWID
 40
0.0
  9
$SPLFRAME
 70
     0
  9
$SPLINETYPE
 70
     6
  9
$SPLINESEGS
 70
     8
  9
$HANDSEED
  5
00020308
  9
$SURFTAB1
 70
     6
  9
$SURFTAB2
 70
     6
  9
$SURFTYPE
 70
     6
  9
$SURFU
 70
     6
  9
$SURFV
 70
     6
  9
$UCSBASE
  2

  9
$UCSNAME
  2

  9
$UCSORG
 10
0.0
 20
0.0
 30
0.0
  9
$UCSXDIR
 10
1.0
 20
0.0
 30
0.0
  9
$UCSYDIR
 10
0.0
 20
1.0
 30
0.0
  9
$UCSORTHOREF
  2

  9
$UCSORTHOVIEW
 70
     0
  9
$UCSORGTOP
 10
0.0
 20
0.0
 30
0.0
  9
$UCSORGBOTTOM
 10
0.0
 20
0.0
 30
0.0
  9
$UCSORGLEFT
 10
0.0
 20
0.0
 30
0.0
  9
$UCSORGRIGHT
 10
0.0
 20
0.0
 30
0.0
  9
$UCSORGFRONT
 10
0.0
 20
0.0
 30
0.0
  9
$UCSORGBACK
 10
0.0
 20
0.0
 30
0.0
  9
$PUCSBASE
  2

  9
$PUCSNAME
  2

  9
$PUCSORG
 10
0.0
 20
0.0
 30
0.0
  9
$PUCSXDIR
 10
1.0
 20
0.0
 30
0.0
  9
$PUCSYDIR
 10
0.0
 20
1.0
 30
0.0
  9
$PUCSORTHOREF
  2

  9
$PUCSORTHOVIEW
 70
     0
  9
$PUCSORGTOP
 10
0.0
 20
0.0
 30
0.0
  9
$PUCSORGBOTTOM
 10
0.0
 20
0.0
 30
0.0
  9
$PUCSORGLEFT
 10
0.0
 20
0.0
 30
0.0
  9
$PUCSORGRIGHT
 10
0.0
 20
0.0
 30
0.0
  9
$PUCSORGFRONT
 10
0.0
 20
0.0
 30
0.0
  9
$PUCSORGBACK
 10
0.0
 20
0.0
 30
0.0
  9
$WORLDVIEW
 70
     1
  9
$SHADEDGE
 70
     3
  9
$SHADEDIF
 70
    70
  9
$TILEMODE
 70
     1
  9
$MAXACTVP
 70
    64
  9
$PINSBASE
 10
0.0
 20
0.0
 30
0.0
  9
$PLIMCHECK
 70
     0
  9
$PEXTMIN
 10
1.000000000000000E+20
 20
1.000000000000000E+20
 30
1.000000000000000E+20
  9
$PEXTMAX
 10
-1.000000000000000E+20
 20
-1.000000000000000E+20
 30
-1.000000000000000E+20
  9
$PLIMMIN
 10
0.0
 20
0.0
  9
$PLIMMAX
 10
12.0
 20
9.0
  9
$UNITMODE
 70
     0
  9
$VISRETAIN
 70
     1
  9
$PLINEGEN
 70
     0
  9
$PSLTSCALE
 70
     1
  9
$TREEDEPTH
 70
  3020
  9
$CMLSTYLE
  2
Standard
  9
$CMLJUST
 70
     0
  9
$CMLSCALE
 40
1.0
  9
$PROXYGRAPHICS
 70
     1
  9
$MEASUREMENT
 70
     0
  9
$CELWEIGHT
370
    -1
  9
$ENDCAPS
280
     0
  9
$JOINSTYLE
280
     0
  9
$LWDISPLAY
290
     0
  9
$INSUNITS
 70
     1
  9
$HYPERLINKBASE
  1

  9
$STYLESHEET
  1

  9
$XEDIT
290
     1
  9
$CEPSNTYPE
380
     0
  9
$PSTYLEMODE
290
     1
  9
$EXTNAMES
290
     1
  9
$PSVPSCALE
 40
0.0
  9
$OLESTARTUP
290
     0
  9
$SORTENTS
280
   127
  9
$INDEXCTL
280
     0
  9
$HIDETEXT
280
     1
  9
$XCLIPFRAME
290
     0
  9
$HALOGAP
280
     0
  9
$OBSCOLOR
 70
   257
  9
$OBSLTYPE
280
     0
  9
$INTERSECTIONDISPLAY
280
     0
  9
$INTERSECTIONCOLOR
 70
   257
  9
$DIMASSOC
280
     2
  9
$PROJECTNAME
  1

  0
ENDSEC
  0
SECTION
  2
CLASSES
  0
CLASS
  1
ACDBDICTIONARYWDFLT
  2
AcDbDictionaryWithDefault
  3
ObjectDBX Classes
 90
        0
 91
        4
280
     0
281
     0
  0
ENDSEC
  0
SECTION
  2
TABLES
  0
TABLE
  2
VPORT
  5
8
330
0
100
AcDbSymbolTable
 70
     1
  0
VPORT
  5
29
330
8
100
AcDbSymbolTableRecord
100
AcDbViewportTableRecord
  2
*Active
 70
     0
 10
0.0
 20
0.0
 11
1.0
 21
1.0
 12
80.25
 22
106.4409457059851
 13
0.0
 23
0.0
 14
0.5
 24
0.5
 15
0.5
 25
0.5
 16
0.0
 26
0.0
 36
1.0
 17
0.0
 27
0.0
 37
0.0
 40
113.3818914119703
 41
0.8863849310366128
 42
50.0
 43
0.0
 44
0.0
 50
0.0
 51
0.0
 71
     0
 72
  1000
 73
     1
 74
     3
 75
     0
 76
     0
 77
     0
 78
     0
281
     0
 65
     1
110
0.0
120
0.0
130
0.0
111
1.0
121
0.0
131
0.0
112
0.0
122
1.0
132
0.0
 79
     0
146
0.0
  0
ENDTAB
  0
TABLE
  2
LTYPE
  5
5
330
0
100
AcDbSymbolTable
 70
     1
  0
LTYPE
  5
14
330
5
100
AcDbSymbolTableRecord
100
AcDbLinetypeTableRecord
  2
ByBlock
 70
     0
  3

 72
    65
 73
     0
 40
0.0
  0
LTYPE
  5
15
330
5
100
AcDbSymbolTableRecord
100
AcDbLinetypeTableRecord
  2
ByLayer
 70
     0
  3

 72
    65
 73
     0
 40
0.0
  0
LTYPE
  5
16
330
5
100
AcDbSymbolTableRecord
100
AcDbLinetypeTableRecord
  2
Continuous
 70
     0
  3
Solid line
 72
    65
 73
     0
 40
0.0
  0
ENDTAB
  0
TABLE
  2
LAYER
  5
2
330
0
100
AcDbSymbolTable
 70
     1
  0
LAYER
  5
10
330
2
100
AcDbSymbolTableRecord
100
AcDbLayerTableRecord
  2
0
 70
     0
 62
     7
  6
Continuous
370
    -3
390
F
  0
ENDTAB
  0
TABLE
  2
STYLE
  5
3
330
0
100
AcDbSymbolTable
 70
     1
  0
STYLE
  5
11
330
3
100
AcDbSymbolTableRecord
100
AcDbTextStyleTableRecord
  2
Standard
 70
     0
 40
0.0
 41
1.0
 50
0.0
 71
     0
 42
0.2
  3
txt
  4

  0
ENDTAB
  0
TABLE
  2
VIEW
  5
6
330
0
100
AcDbSymbolTable
 70
     0
  0
ENDTAB
  0
TABLE
  2
UCS
  5
7
330
0
100
AcDbSymbolTable
 70
     0
  0
ENDTAB
  0
TABLE
  2
APPID
  5
9
330
0
100
AcDbSymbolTable
 70
     1
  0
APPID
  5
12
330
9
100
AcDbSymbolTableRecord
100
AcDbRegAppTableRecord
  2
ACAD
 70
     0
  0
ENDTAB
  0
TABLE
  2
DIMSTYLE
  5
A
330
0
100
AcDbSymbolTable
 70
     1
100
AcDbDimStyleTable
  0
DIMSTYLE
105
27
330
A
100
AcDbSymbolTableRecord
100
AcDbDimStyleTableRecord
  2
Standard
 70
     0
340
11
  0
ENDTAB
  0
TABLE
  2
BLOCK_RECORD
  5
1
330
0
100
AcDbSymbolTable
 70
     1
  0
BLOCK_RECORD
  5
1F
330
1
100
AcDbSymbolTableRecord
100
AcDbBlockTableRecord
  2
*Model_Space
340
22
  0
BLOCK_RECORD
  5
1B
330
1
100
AcDbSymbolTableRecord
100
AcDbBlockTableRecord
  2
*Paper_Space
340
1E
  0
ENDTAB
  0
ENDSEC
  0
SECTION
  2
BLOCKS
  0
BLOCK
  5
20
330
1F
100
AcDbEntity
  8
0
100
AcDbBlockBegin
  2
*Model_Space
 70
     0
 10
0.0
 20
0.0
 30
0.0
  3
*Model_Space
  1

  0
ENDBLK
  5
21
330
1F
100
AcDbEntity
  8
0
100
AcDbBlockEnd
  0
BLOCK
  5
1C
330
1B
100
AcDbEntity
 67
     1
  8
0
100
AcDbBlockBegin
  2
*Paper_Space
 70
     0
 10
0.0
 20
0.0
 30
0.0
  3
*Paper_Space
  1

  0
ENDBLK
  5
1D
330
1B
100
AcDbEntity
 67
     1
  8
0
100
AcDbBlockEnd
  0
ENDSEC
  0
SECTION
  2
ENTITIES
  0
LWPOLYLINE
  5
20000
100
AcDbEntity
  8
0
100
AcDbPolyline
 70
0
 90
4
 38
-1.79769313486232e+308
 10
21476.6140191904
 20
-1371.77167787903
 10
21976.2159073516
 20
-1826.63272175973
 10
22149.0617026309
 20
-2003.63243005227
 10
22219.5077782306
 20
-2104.91094268288
  0
LWPOLYLINE
  5
20001
100
AcDbEntity
  8
0
100
AcDbPolyline
 70
0
 90
10
 38
-1.79769313486232e+308
 10
19427.2445163014
 20
4084.74499372078
 10
19359.506585862
 20
4273.630175328
 10
19268.5251350715
 20
4519.86722251272
 10
18902.1616029399
 20
5496.0075009974
 10
18758.4146829205
 20
5909.82150517276
 10
18725.4529833715
 20
6014.22380068584
 10
18679.043929921
 20
6186.16336915793
 10
18652.8838445502
 20
6329.92575413093
 10
18630.8203451815
 20
6480.26467876707
 10
18604.2288550301
 20
6753.4717490772
  0
LWPOLYLINE
  5
20002
100
AcDbEntity
  8
0
100
AcDbPolyline
 70
0
 90
14
 38
-1.79769313486232e+308
 10
19430.6397171016
 20
4018.99632824596
 10
19485.8764528516
 20
3769.45005632762
 10
19508.1291640415
 20
3648.43223360053
 10
19511.6134646009
 20
3599.74806960404
 10
19500.4816028508
 20
3560.10068050737
 10
19475.4457760504
 20
3535.75221802585
 10
19440.6696452903
 20
3523.92803120206
 10
19410.0678876112
 20
3531.57743112615
 10
19389.8968067407
 20
3546.88918747113
 10
19373.9001990515
 20
3567.75010267284
 10
19369.7257258701
 20
3601.13535856234
 10
19382.9393180604
 20
3632.4332355439
 10
19398.2457531108
 20
3649.81952798797
 10
19448.3172065015
 20
3669.29331906105
  0
LWPOLYLINE
  5
20003
100
AcDbEntity
  8
0
100
AcDbPolyline
 70
0
 90
2
 38
0
 10
22219.5077782306
 20
-2058.35992390604
 10
22161.2178110103
 20
-1993.03163203958
  0
LWPOLYLINE
  5
20004
100
AcDbEntity
  8
0
100
AcDbPolyline
 70
0
 90
8
 38
-1.79769313486232e+308
 10
19654.0244891415
 20
3202.61877126771
 10
19610.3761262107
 20
3467.5948724855
 10
19608.2833834509
 20
3555.92588543717
 10
19625.67144883
 20
3608.08463151765
 10
19661.1489647604
 20
3643.55734905426
 10
19722.3524801205
 20
3673.46815217112
 10
19755.7371531813
 20
3679.0301677204
 10
19928.5606234702
 20
3685.43508205714
  0
LWPOLYLINE
  5
20005
100
AcDbEntity
  8
0
100
AcDbPolyline
 70
0
 90
2
 38
0
 10
19448.3172065015
 20
3669.29331906105
 10
19608.2833834509
 20
3674.15527118521
  0
LWPOLYLINE
  5
20006
100
AcDbEntity
  8
0
100
AcDbPolyline
 70
0
 90
6
 38
-1.79769313486232e+308
 10
19930.0857307701
 20
3701.03222998523
 10
19754.4792449917
 20
3693.08458127931
 10
19643.7608993906
 20
3716.59056980081
 10
19585.3403995312
 20
3752.06359670556
 10
19526.2186146001
 20
3828.55921027588
 10
19447.9833327304
 20
4029.0576056001
  0
LWPOLYLINE
  5
20007
100
AcDbEntity
  8
0
100
AcDbPolyline
 70
0
 90
2
 38
0
 10
19754.4792449917
 20
3693.08458127931
 10
19605.5003679614
 20
3685.84994236112
  0
LWPOLYLINE
  5
20008
100
AcDbEntity
  8
0
100
AcDbPolyline
 70
0
 90
11
 38
-1.79769313486232e+308
 10
19446.9257488004
 20
3680.41746552114
 10
19385.72233355
 20
3660.25653875771
 10
19368.3341680611
 20
3634.52058744396
 10
19355.82186095
 20
3599.04789567285
 10
19360.6865067589
 20
3560.10068050737
 10
19380.1563025597
 20
3535.06499005773
 10
19414.9325334313
 20
3513.50407713803
 10
19470.5811302415
 20
3494.03064649703
 10
19535.2577336016
 20
3450.90900023386
 10
19577.6816257699
 20
3395.26327572914
 10
19642.1801297716
 20
3182.54932927585
  0
LWPOLYLINE
  5
20009
100
AcDbEntity
  8
0
100
AcDbPolyline
 70
0
 90
2
 38
0
 10
19605.5003679614
 20
3685.84994236112
 10
19446.9257488004
 20
3680.41746552114
  0
LWPOLYLINE
  5
2000A
100
AcDbEntity
  8
0
100
AcDbPolyline
 70
0
 90
2
 38
0
 10
19608.2833834509
 20
3674.15527118521
 10
19755.7371531813
 20
3679.0301677204
  0
LWPOLYLINE
  5
2000B
100
AcDbEntity
  8
0
100
AcDbPolyline
 70
0
 90
15
 38
-1.79769313486232e+308
 10
21976.2159073516
 20
-1826.63272175973
 10
22133.8109298903
 20
-2017.18777449976
 10
22146.5458862591
 20
-2046.82571124274
 10
22154.1489977105
 20
-2079.88476561417
 10
22154.5830836515
 20
-2109.1337589476
 10
22151.5997439004
 20
-2133.25086686423
 10
22141.8704522713
 20
-2157.7955301808
 10
22129.5807943917
 20
-2187.47194166423
 10
22123.1910412717
 20
-2209.91718951461
 10
22123.6474522012
 20
-2232.37521674985
 10
22127.8441502708
 20
-2252.85056231765
 10
22138.0521778404
 20
-2272.19843232946
 10
22156.7315888307
 20
-2290.10777784733
 10
22182.1012893799
 20
-2303.5463839107
 10
22219.5077782306
 20
-2307.02545050893
  0
LWPOLYLINE
  5
2000C
100
AcDbEntity
  8
0
100
AcDbPolyline
 70
0
 90
18
 38
-1.79769313486232e+308
 10
10682.2290546591
 20
6753.4717490772
 10
10764.5732358615
 20
6228.93133468425
 10
10806.0174312903
 20
5902.62452791736
 10
10829.0606274116
 20
5361.2019227423
 10
10853.5397309712
 20
4452.57332012581
 10
10861.3989290814
 20
4163.20043012604
 10
10872.6198905907
 20
3750.15765453794
 10
10876.1376285809
 20
3613.78933455574
 10
10882.738818401
 20
3416.34430461714
 10
10886.1452317811
 20
3295.77076445578
 10
10889.60720735
 20
3170.75147866423
 10
10901.4182293913
 20
2658.13741054584
 10
10888.3381867106
 20
1889.23013263766
 10
10860.7420937805
 20
184.468874660903
 10
10842.0181329115
 20
-280.649367676
 10
10702.33446156
 20
-1173.44357177604
 10
10686.5048408206
 20
-1468.63423748582
 10
10742.4547386817
 20
-2600.85893939983
  0
LWPOLYLINE
  5
2000D
100
AcDbEntity
  8
0
100
AcDbPolyline
 70
0
 90
15
 38
-1.79769313486232e+308
 10
15406.8698151014
 20
-2600.85893939983
 10
15358.594994701
 20
-2371.93084477109
 10
15356.6580263111
 20
-2362.75591012964
 10
15316.8390502701
 20
-2113.21586484218
 10
15252.2069967701
 20
-1527.16090017592
 10
15245.6391442805
 20
-1467.63632750779
 10
15229.2305754009
 20
-1318.80418706906
 10
15104.4637029204
 20
-206.485546197626
 10
14969.7337771314
 20
965.559243323863
 10
14949.8297952614
 20
1182.59080787573
 10
14952.47926126
 20
1381.68553257047
 10
14947.8149397015
 20
2235.59038888209
 10
14944.5532883811
 20
2832.7660618677
 10
14941.6589482701
 20
3361.85268786608
 10
14935.7144936412
 20
4449.68182940281
  0
LWPOLYLINE
  5
2000E
100
AcDbEntity
  8
0
100
AcDbPolyline
 70
0
 90
9
 38
-1.79769313486232e+308
 10
19712.3447768199
 20
2959.66188918205
 10
19880.6375751714
 20
2961.12687398086
 10
20167.7528914805
 20
2949.4847675591
 10
20587.6833901009
 20
2932.46240531525
 10
20732.4654689501
 20
2928.84524814796
 10
21063.52968464
 20
2921.67599540029
 10
22001.7637073002
 20
2942.01714313787
 10
22122.35610659
 20
2941.61524937593
 10
22219.5077782306
 20
2943.41340928024
  0
LWPOLYLINE
  5
2000F
100
AcDbEntity
  8
0
100
AcDbPolyline
 70
0
 90
5
 38
-1.79769313486232e+308
 10
16288.224084401
 20
-2255.8830288992
 10
16461.4928531903
 20
-2223.49829881394
 10
16477.5340107414
 20
-2220.50475003978
 10
16481.5080595608
 20
-2219.76609416201
 10
17906.3308025612
 20
-2276.00835577294
  0
LWPOLYLINE
  5
20010
100
AcDbEntity
  8
0
100
AcDbPolyline
 70
0
 90
3
 38
-1.79769313486232e+308
 10
15613.4275715216
 20
-2353.69762802951
 10
15655.9404633413
 20
-2593.64332469215
 10
15657.2204005509
 20
-2600.85893939983
  0
LWPOLYLINE
  5
20011
100
AcDbEntity
  8
0
100
AcDbPolyline
 70
0
 90
3
 38
-1.79769313486232e+308
 10
15590.4429584811
 20
-2600.85893939983
 10
15655.9404633413
 20
-2593.64332469215
 10
15953.8092177599
 20
-2565.09529620723
  0
LWPOLYLINE
  5
20012
100
AcDbEntity
  8
0
100
AcDbPolyline
 70
0
 90
4
 38
-1.79769313486232e+308
 10
15358.594994701
 20
-2371.93084477109
 10
15613.4275715216
 20
-2353.69762802951
 10
15684.0486295107
 20
-2347.671667043
 10
15912.3092599115
 20
-2328.20725471422
  0
LWPOLYLINE
  5
20013
100
AcDbEntity
  8
0
100
AcDbPolyline
 70
0
 90
6
 38
-1.79769313486232e+308
 10
15931.5898439004
 20
-1472.04265540454
 10
15923.1740226611
 20
-1813.42704647302
 10
15917.9754029713
 20
-2024.134024748
 10
15912.3092599115
 20
-2328.20725471422
 10
15953.8092177599
 20
-2565.09529620723
 10
15961.8635213631
 20
-2600.85893939983
  0
LWPOLYLINE
  5
20014
100
AcDbEntity
  8
0
100
AcDbPolyline
 70
0
 90
2
 38
0
 10
20164.7694516215
 20
3709.18743090576
 10
19930.0857307701
 20
3701.03222998523
  0
LWPOLYLINE
  5
20015
100
AcDbEntity
  8
0
100
AcDbPolyline
 70
0
 90
4
 38
-1.79769313486232e+308
 10
19928.5606234702
 20
3685.43508205714
 10
20011.0818032599
 20
3691.85282561288
 10
20102.8313138704
 20
3699.42455696606
 10
20164.3910279903
 20
3696.68890148739
  0
LWPOLYLINE
  5
20016
100
AcDbEntity
  8
0
100
AcDbPolyline
 70
0
 90
5
 38
-1.79769313486232e+308
 10
20167.7528914805
 20
2949.4847675591
 10
20167.1406060508
 20
3259.2488645023
 10
20168.7436005506
 20
3490.82829648734
 10
20164.3910279903
 20
3696.68890148739
 10
20164.7694516215
 20
3709.18743090576
  0
LWPOLYLINE
  5
20017
100
AcDbEntity
  8
0
100
AcDbPolyline
 70
0
 90
2
 38
0
 10
21927.3132624305
 20
-2446.63884405594
 10
21987.2937520309
 20
-2600.85893939983
  0
LWPOLYLINE
  5
20018
100
AcDbEntity
  8
0
100
AcDbPolyline
 70
0
 90
63
 38
-1.79769313486232e+308
 10
16618.4237227901
 20
6753.4717490772
 10
16681.2264378401
 20
6680.13160400803
 10
16899.7911139107
 20
6418.56236140535
 10
17112.9790709498
 20
6169.25331630104
 10
17291.5243466101
 20
5962.34021799278
 10
17426.4881342105
 20
5801.10191224527
 10
17504.7123036305
 20
5701.07143874618
 10
17642.6594309914
 20
5498.93806820514
 10
17672.2259297199
 20
5446.78433736705
 10
17769.263059651
 20
5275.594208683
 10
17817.0303335707
 20
5160.94140185521
 10
17906.6091141305
 20
4956.70323116577
 10
17948.4096084214
 20
4861.1658968461
 10
17973.4898849814
 20
4793.09212821408
 10
18010.5147330998
 20
4625.87858684047
 10
18034.4038762315
 20
4482.56372854405
 10
18063.0686655301
 20
4341.63626859116
 10
18103.6668138499
 20
4123.07153898303
 10
18127.5560570802
 20
4006.01778571087
 10
18183.0933292596
 20
3730.43747828586
 10
18208.1736058309
 20
3593.08400106768
 10
18248.1817937004
 20
3389.75315588911
 10
18289.9822879913
 20
3160.44453144085
 10
18337.7605742416
 20
2903.6554106992
 10
18366.4253635514
 20
2763.92549804098
 10
18386.0955837215
 20
2698.74134532793
 10
18389.9026456117
 20
2686.14006578701
 10
18404.6413451112
 20
2637.31696113723
 10
18465.5554364617
 20
2499.9755496952
 10
18552.7408376909
 20
2347.10488917085
 10
18624.9983276199
 20
2254.24516611698
 10
18854.3053293913
 20
2034.48562377517
 10
19059.1331274914
 20
1852.6475406104
 10
19148.712008161
 20
1764.26379750541
 10
19291.4346815716
 20
1553.17218188534
 10
19345.1797474413
 20
1439.70732885238
 10
19398.9248132999
 20
1278.47586285055
 10
19453.8609124902
 20
1025.27723893023
 10
19514.5078047304
 20
756.943984602229
 10
19533.2874279111
 20
673.843677169294
 10
19620.4728291403
 20
298.829649912775
 10
19683.7690872601
 20
31.3027122953208
 10
19732.7385069407
 20
-182.48150336917
 10
19802.0015446707
 20
-491.822991729132
 10
19834.250746611
 20
-602.884293679032
 10
19846.5405046004
 20
-629.32430649444
 10
19945.3253910909
 20
-841.762138794526
 10
20005.0371364499
 20
-954.025740774232
 10
20150.1532892915
 20
-1148.40452803287
 10
20221.8096062313
 20
-1221.25361343089
 10
20326.3162980913
 20
-1320.68336182728
 10
20427.2385773114
 20
-1408.75949724799
 10
20571.75355716
 20
-1495.95365294989
 10
20675.0580031513
 20
-1551.18834217393
 10
21118.1541349511
 20
-1786.47114138899
 10
21391.655010331
 20
-1932.17447625927
 10
21531.3943440015
 20
-2011.00629498099
 10
21621.3293233006
 20
-2080.53275754291
 10
21673.51594454
 20
-2120.88778684696
 10
21745.1834740206
 20
-2186.56476074585
 10
21798.9284397713
 20
-2253.44668330194
 10
21889.6872413117
 20
-2384.8249927609
 10
21927.3132624305
 20
-2446.63884405594
  0
LWPOLYLINE
  5
20019
100
AcDbEntity
  8
0
100
AcDbPolyline
 70
0
 90
8
 38
-1.79769313486232e+308
 10
14077.4969468503
 20
2843.99322683795
 10
14123.1712777815
 20
2716.91716464714
 10
14214.8429012014
 20
2504.79810448701
 10
14261.41894157
 20
2399.69938494742
 10
14286.49921813
 20
2335.204068469
 10
14296.0505104898
 20
2277.87808055768
 10
14296.0505104898
 20
2242.04632438265
 10
14296.083847811
 20
2210.40183805407
  0
LWPOLYLINE
  5
2001A
100
AcDbEntity
  8
0
100
AcDbPolyline
 70
0
 90
5
 38
-1.79769313486232e+308
 10
14296.083847811
 20
2210.40183805407
 10
14612.8768873806
 20
2221.55067897786
 10
14686.0359866316
 20
2224.13036839582
 10
14947.8149397015
 20
2235.59038888209
 10
15501.76296661
 20
2261.75120096107
  0
LWPOLYLINE
  5
2001B
100
AcDbEntity
  8
0
100
AcDbPolyline
 70
0
 90
5
 38
-1.79769313486232e+308
 10
14612.8768873806
 20
2221.55067897786
 10
14568.360152341
 20
2367.4452143471
 10
14506.2550276606
 20
2552.57057493611
 10
14437.2815140407
 20
2769.4613404955
 10
14414.572291791
 20
2838.43146794394
  0
LWPOLYLINE
  5
2001C
100
AcDbEntity
  8
0
100
AcDbPolyline
 70
0
 90
7
 38
-1.79769313486232e+308
 10
14176.3151706601
 20
3360.19317334529
 10
14278.1391593101
 20
3358.74108374084
 10
14635.24092319
 20
3362.33236490528
 10
14941.6589482701
 20
3361.85268786608
 10
15625.33880577
 20
3358.74108374084
 10
15715.4629968903
 20
3359.16899193602
 10
16370.6005021404
 20
3362.33236490528
  0
LWPOLYLINE
  5
2001D
100
AcDbEntity
  8
0
100
AcDbPolyline
 70
0
 90
12
 38
-1.79769313486232e+308
 10
19331.2425451907
 20
2956.35590939515
 10
19030.3904510005
 20
2930.01210301428
 10
18929.535046631
 20
2926.17458734114
 10
18337.7605742416
 20
2903.6554106992
 10
17851.5839151903
 20
2878.65998265764
 10
17383.4075068305
 20
2855.95935899403
 10
16822.0678051798
 20
2841.6337666508
 10
16243.362363161
 20
2839.59831433243
 10
15667.161524951
 20
2836.84990624536
 10
15499.2917001001
 20
2836.84990624536
 10
15079.5504133008
 20
2836.84990624536
 10
14944.5532883811
 20
2832.7660618677
  0
LWPOLYLINE
  5
2001E
100
AcDbEntity
  8
0
100
AcDbPolyline
 70
0
 90
14
 38
-1.79769313486232e+308
 10
16272.1651227999
 20
3780.34919151769
 10
16191.9994640606
 20
3793.86380593118
 10
16147.8168029911
 20
3741.31530399306
 10
15995.5984995305
 20
3573.75292894582
 10
15815.7953156713
 20
3469.00814789778
 10
15804.5074793114
 20
3450.7404008304
 10
15715.4629968903
 20
3359.16899193602
 10
15700.6018603216
 20
3342.05524088035
 10
15498.7574019707
 20
3127.073399922
 10
15499.2917001001
 20
2836.84990624536
 10
15501.1507812901
 20
2668.45688318426
 10
15499.2027004803
 20
2517.47696483287
 10
15498.7574019707
 20
2483.32979871577
 10
15501.76296661
 20
2261.75120096107
  0
LWPOLYLINE
  5
2001F
100
AcDbEntity
  8
0
100
AcDbPolyline
 70
0
 90
12
 38
-1.79769313486232e+308
 10
22219.5077782306
 20
2582.87800617714
 10
22139.0763243302
 20
2582.11581423285
 10
22049.5865434199
 20
2581.26016788709
 10
21816.09395601
 20
2578.04499481583
 10
21705.6204845416
 20
2583.65851942741
 10
21276.2612307216
 20
2618.64866827393
 10
21193.04987831
 20
2627.373515071
 10
20717.8604190699
 20
2677.20776443801
 10
20676.1155870813
 20
2681.58967811766
 10
20164.6359021007
 20
2725.12348668708
 10
20114.7758854306
 20
2729.36282725271
 10
19988.7733296412
 20
2742.85863257723
  0
LWPOLYLINE
  5
20020
100
AcDbEntity
  8
0
100
AcDbPolyline
 70
0
 90
15
 38
-1.79769313486232e+308
 10
9517.60569600156
 20
3038.68060550804
 10
9708.69671622058
 20
2956.27814222418
 10
9748.11494366033
 20
2929.99916128267
 10
9799.58906727052
 20
2870.34979279211
 10
9834.10921146115
 20
2838.04263576551
 10
9933.23928437149
 20
2791.46167787269
 10
10122.0593623514
 20
2735.39124873804
 10
10332.2639796208
 20
2712.69076983549
 10
10705.9635241716
 20
2675.61316517287
 10
10901.4182293913
 20
2658.13741054584
 10
10914.52059707
 20
2656.89293246216
 10
11003.3535426906
 20
2644.5509904424
 10
11260.7352732099
 20
2618.88196346222
 10
11286.5280473917
 20
2620.12655433512
 10
11351.5051871999
 20
2649.33477692411
  0
LWPOLYLINE
  5
20021
100
AcDbEntity
  8
0
100
AcDbPolyline
 70
0
 90
11
 38
-1.79769313486232e+308
 10
12128.4151127408
 20
3632.83515161101
 10
12233.5117650512
 20
3617.89932018763
 10
12252.0241891104
 20
3616.11011382111
 10
12303.9770486499
 20
3623.27976669895
 10
12431.1707378714
 20
3643.58335060778
 10
12677.2090698308
 20
3679.40620026889
 10
12726.7684499617
 20
3687.76881719765
 10
12756.0344122606
 20
3688.96162828768
 10
12801.5974185611
 20
3685.16282270209
 10
12920.8540224801
 20
3675.23136516579
 10
13136.1124973907
 20
3661.50123379717
  0
LWPOLYLINE
  5
20022
100
AcDbEntity
  8
0
100
AcDbPolyline
 70
0
 90
14
 38
-1.79769313486232e+308
 10
10889.60720735
 20
3170.75147866423
 10
10905.3478284604
 20
3170.7903046204
 10
10962.6885195109
 20
3158.09783663286
 10
11418.9202561914
 20
3073.29613617261
 10
11729.4459797009
 20
3017.15949478524
 10
12266.8854257814
 20
2968.1924986603
 10
12729.9856515112
 20
2932.06051186391
 10
12921.3772081803
 20
2918.03295792698
 10
13565.1266648802
 20
2869.06635187112
 10
13987.9180661808
 20
2834.43844769115
 10
14077.4969468503
 20
2843.99322683795
 10
14389.6033398616
 20
2838.70370877266
 10
14414.572291791
 20
2838.43146794394
 10
14944.5532883811
 20
2832.7660618677
  0
LWPOLYLINE
  5
20023
100
AcDbEntity
  8
0
100
AcDbPolyline
 70
0
 90
14
 38
-1.79769313486232e+308
 10
13273.8926378
 20
1553.6000279953
 10
13266.0112148016
 20
1753.5821572874
 10
13260.0333227399
 20
1918.41075857275
 10
13257.651155991
 20
2042.61373437208
 10
13261.9480662416
 20
2050.44362845796
 10
13274.4937106813
 20
2059.38853738282
 10
13309.7263524807
 20
2065.96108218527
 10
13559.3380847513
 20
2096.4254835808
 10
13687.1885091714
 20
2109.29827431042
 10
13790.4372928399
 20
2119.70811129094
 10
13901.5119373104
 20
2136.43113798101
 10
14056.6244807909
 20
2156.07102610043
 10
14175.4580110903
 20
2181.15570615011
 10
14296.083847811
 20
2210.40183805407
  0
LWPOLYLINE
  5
20024
100
AcDbEntity
  8
0
100
AcDbPolyline
 70
0
 90
30
 38
-1.79769313486232e+308
 10
10912.316429581
 20
1554.46854399389
 10
10952.7142536412
 20
1551.81111839099
 10
10990.8189105815
 20
1542.78881588916
 10
11015.8991871304
 20
1533.83133792097
 10
11052.9240352507
 20
1524.27768111799
 10
11116.2202933705
 20
1521.29617227905
 10
11204.1181922308
 20
1520.75174826209
 10
11393.3056815001
 20
1521.29617227905
 10
11719.9504497605
 20
1522.48877573304
 10
11982.708999462
 20
1524.8739829777
 10
12209.143986111
 20
1526.13140473014
 10
12338.0185570209
 20
1532.04254773271
 10
12519.0796490717
 20
1536.87766777596
 10
12782.9068951416
 20
1540.40360520885
 10
12792.0351138706
 20
1540.49442040792
 10
13026.5518477815
 20
1542.78881588916
 10
13273.8926378
 20
1553.6000279953
 10
13415.42427789
 20
1550.60557183262
 10
13692.9548644102
 20
1558.31857705035
 10
13699.6673788629
 20
1557.77403482527
 10
13705.4893964208
 20
1566.67965217039
 10
13706.6916423007
 20
1623.40605792042
 10
13706.6916423007
 20
1643.70626265055
 10
13700.1237897999
 20
1802.55731518718
 10
13692.9548644102
 20
1919.60340007266
 10
13695.3371312912
 20
1938.11512276775
 10
13691.7526185415
 20
1972.14409318205
 10
13691.4743069704
 20
2013.64021952043
 10
13689.9826371106
 20
2079.92285487906
 10
13687.1885091714
 20
2109.29827431042
  0
LWPOLYLINE
  5
20025
100
AcDbEntity
  8
0
100
AcDbPolyline
 70
0
 90
18
 38
-1.79769313486232e+308
 10
10754.3253788403
 20
-2600.85893939983
 10
10700.9986661798
 20
-1468.66011181462
 10
10716.7502996209
 20
-1174.95993654884
 10
10856.44518353
 20
-282.062100857846
 10
10875.2135941605
 20
184.028253283934
 10
10905.7485770802
 20
1890.85051246418
 10
10914.52059707
 20
2656.89293246216
 10
10905.3478284604
 20
3170.7903046204
 10
10896.9765570904
 20
3302.25313423772
 10
10894.7390522803
 20
3415.17740414396
 10
10890.7426784704
 20
3614.77470958291
 10
10886.8910667109
 20
3751.60978981725
 10
10875.9372042115
 20
4158.42912118614
 10
10868.0112313512
 20
4453.01409265411
 10
10843.5321277804
 20
5361.70768203552
 10
10820.4555943399
 20
5903.72670437035
 10
10778.4658882203
 20
6230.13733467099
 10
10697.2094440903
 20
6753.4717490772
  0
LWPOLYLINE
  5
20026
100
AcDbEntity
  8
0
100
AcDbPolyline
 70
0
 90
11
 38
-1.79769313486232e+308
 10
11536.65175279
 20
3071.29958820029
 10
11536.3623287915
 20
3101.00147868053
 10
11627.5998662705
 20
3325.49919165403
 10
11766.8716765507
 20
3682.64754297922
 10
11764.1219983804
 20
3695.59974651423
 10
11588.9162612199
 20
3760.27060147526
 10
11544.3661888517
 20
3775.62158372032
 10
11403.7920206315
 20
3769.82609160116
 10
11089.3255856107
 20
3760.063170076
 10
10886.8910667109
 20
3751.60978981725
 10
10872.6198905907
 20
3750.15765453794
  0
LWPOLYLINE
  5
20027
100
AcDbEntity
  8
0
100
AcDbPolyline
 70
0
 90
28
 38
-1.79769313486232e+308
 10
19846.5405046004
 20
-629.32430649444
 10
19690.0029658801
 20
-672.587160229101
 10
19518.314966721
 20
-719.284596604644
 10
19377.3844996109
 20
-772.436117187957
 10
19161.8031632914
 20
-849.473657370894
 10
18962.6526206913
 20
-919.214073583833
 10
18853.3701825305
 20
-961.024334687158
 10
18785.5989147811
 20
-995.771196734044
 10
18730.0616426016
 20
-1037.58120083611
 10
18647.6517874408
 20
-1087.73765859788
 10
18606.4413536913
 20
-1101.47547510394
 10
18503.1368076014
 20
-1115.21339300915
 10
18328.7660051207
 20
-1126.55354230886
 10
18159.7719217013
 20
-1140.29143254447
 10
17957.3262903611
 20
-1142.67612930236
 10
17936.4315994303
 20
-1147.45845894271
 10
17793.7088259007
 20
-1179.107152474
 10
17566.7840909916
 20
-1241.8083620047
 10
17455.7094465303
 20
-1270.47609262483
 10
17267.6018661703
 20
-1314.65701766207
 10
17141.0092498208
 20
-1340.34375761717
 10
17104.5744622513
 20
-1344.51690961223
 10
17057.3972488917
 20
-1345.70923849696
 10
16873.4751540511
 20
-1352.27986605407
 10
16722.3923217016
 20
-1357.65827907797
 10
16666.2539766501
 20
-1361.83142527228
 10
16492.8737831204
 20
-1380.72705942101
 10
16477.1332621216
 20
-1382.43780742714
  0
LWPOLYLINE
  5
20028
100
AcDbEntity
  8
0
100
AcDbPolyline
 70
0
 90
4
 38
-1.79769313486232e+308
 10
15245.6391442805
 20
-1467.63632750779
 10
15931.5898439004
 20
-1472.04265540454
 10
16475.7417043108
 20
-1481.65892508614
 10
16490.9257023106
 20
-1481.93107145734
  0
LWPOLYLINE
  5
20029
100
AcDbEntity
  8
0
100
AcDbPolyline
 70
0
 90
22
 38
-1.79769313486232e+308
 10
12792.0351138706
 20
1540.49442040792
 10
12782.8846702515
 20
1624.62455191242
 10
12753.0176350805
 20
1987.70027156046
 10
12747.050855461
 20
2036.66340988094
 10
12726.7462250809
 20
2114.30219990027
 10
12676.5856719701
 20
2263.59209336073
 10
12674.1922926507
 20
2308.97827995766
 10
12692.1147562708
 20
2534.70617040026
 10
12714.3896923414
 20
2808.26349010097
 10
12729.9856515112
 20
2932.06051186391
 10
12731.8780700113
 20
2967.34976755513
 10
12754.2198809511
 20
3217.80046925286
 10
12792.0127888802
 20
3590.55579754117
 10
12801.5974185611
 20
3685.16282270209
 10
12828.2584647513
 20
3960.08087801526
 10
12847.37196169
 20
4152.36118115403
 10
12874.8456175621
 20
4166.70122575399
 10
12902.3081609807
 20
4185.20334867213
 10
12925.0061706803
 20
4246.11671784578
 10
13029.6910620308
 20
4528.10073723283
 10
13108.3383050798
 20
4738.179585314
 10
13174.016830062
 20
4914.93806237413
  0
LWPOLYLINE
  5
2002A
100
AcDbEntity
  8
0
100
AcDbPolyline
 70
0
 90
12
 38
-1.79769313486232e+308
 10
8389.18032460986
 20
4120.84086967737
 10
8564.56609899131
 20
4228.19787604513
 10
8585.59433942986
 20
4234.29185585596
 10
8900.17209906084
 20
4228.19787604513
 10
9352.35189973144
 20
4216.06193088892
 10
9474.16876978008
 20
4212.79456306028
 10
10027.6270484305
 20
4198.35068768554
 10
10086.2589849806
 20
4195.74458622898
 10
10644.6153468709
 20
4170.99294622952
 10
10835.5616050414
 20
4166.70122575399
 10
10861.3989290814
 20
4163.20043012604
 10
10875.9372042115
 20
4158.42912118614
  0
LWPOLYLINE
  5
2002B
100
AcDbEntity
  8
0
100
AcDbPolyline
 70
0
 90
29
 38
-1.79769313486232e+308
 10
9257.91237773141
 20
2704.24171539734
 10
9436.37586183054
 20
2936.01462162763
 10
9517.60569600156
 20
3038.68060550804
 10
9556.44507543137
 20
3091.57615441515
 10
9603.58885137132
 20
3155.76420083514
 10
9615.5223105005
 20
3166.51198772213
 10
10123.47314503
 20
3430.64467411034
 10
10157.7484150915
 20
3438.82558233722
 10
10325.8185641817
 20
3430.21688006085
 10
10352.9471337399
 20
3429.40000216768
 10
10375.7899054806
 20
3427.94790449424
 10
10882.738818401
 20
3416.34430461714
 10
10894.7390522803
 20
3415.17740414396
 10
11346.1062432597
 20
3402.9903665242
 10
11416.5714267506
 20
3405.375934207
 10
11453.5962748709
 20
3395.82084057585
 10
11627.5998662705
 20
3325.49919165403
 10
11684.1056226301
 20
3302.66798176768
 10
11906.6110102213
 20
3206.10623799602
 10
12005.3736718311
 20
3147.40205805015
 10
12054.6992902602
 20
3135.64306661591
 10
12183.3289870503
 20
3118.73716028419
 10
12349.3397307205
 20
3109.1821701728
 10
12624.0428519803
 20
3091.27802425029
 10
12640.7630697205
 20
3084.10856131429
 10
12660.2327654115
 20
3068.75854880793
 10
12682.9197627711
 20
3048.45590287598
 10
12716.360098151
 20
2994.70486250112
 10
12731.8780700113
 20
2967.34976755513
  0
LWPOLYLINE
  5
2002C
100
AcDbEntity
  8
0
100
AcDbPolyline
 70
0
 90
12
 38
-1.79769313486232e+308
 10
9352.35189973144
 20
4216.06193088892
 10
9385.79223510018
 20
4069.47152077092
 10
9432.22361352062
 20
3850.79485525901
 10
9439.98259946099
 20
3811.38010029553
 10
9438.79146603076
 20
3749.2760426976
 10
9428.03802790074
 20
3534.89650611032
 10
9425.05458803056
 20
3451.89424576529
 10
9359.5208251006
 20
3314.06416826707
 10
9339.66149322083
 20
3266.79433182732
 10
9340.85252655065
 20
3255.45019011211
 10
9459.09609640157
 20
3166.47304517741
 10
9556.44507543137
 20
3091.57615441515
  0
LWPOLYLINE
  5
2002D
100
AcDbEntity
  8
0
100
AcDbPolyline
 70
0
 90
12
 38
-1.79769313486232e+308
 10
10325.8185641817
 20
3430.21688006085
 10
10298.856981562
 20
3530.24203596928
 10
10265.8618445708
 20
3648.35446210217
 10
10218.8405057001
 20
3797.76641902386
 10
10175.6708787004
 20
3947.82835944893
 10
10153.8744783304
 20
3997.69389999902
 10
10150.8911385811
 20
4013.2266084851
 10
10150.28996559
 20
4060.09735107201
 10
10145.5144195217
 20
4071.44222648034
 10
10107.59897441
 20
4138.63040660054
 10
10085.8025740399
 20
4181.92304591287
 10
10086.2589849806
 20
4195.74458622898
  0
LWPOLYLINE
  5
2002E
100
AcDbEntity
  8
0
100
AcDbPolyline
 70
0
 90
7
 38
-1.79769313486232e+308
 10
10131.5326673998
 20
2249.25412528741
 10
10098.0922319214
 20
2449.90860141779
 10
10078.9787349808
 20
2546.64600589511
 10
10122.0593623514
 20
2735.39124873804
 10
10168.5575155313
 20
2977.79914765724
 10
10181.6932205199
 20
3010.04195842578
 10
10375.7899054806
 20
3427.94790449424
  0
LWPOLYLINE
  5
2002F
100
AcDbEntity
  8
0
100
AcDbPolyline
 70
0
 90
5
 38
-1.79769313486232e+308
 10
20114.9095350499
 20
2271.8758793805
 10
20146.4574519205
 20
2567.86818528606
 10
20155.5187958009
 20
2652.86102952214
 10
20164.6359021007
 20
2725.12348668708
 10
20167.7528914805
 20
2949.4847675591
  0
LWPOLYLINE
  5
20030
100
AcDbEntity
  8
0
100
AcDbPolyline
 70
0
 90
9
 38
-1.79769313486232e+308
 10
22219.5077782306
 20
1485.19452883082
 10
22213.2818950615
 20
1490.78130097419
 10
22108.0070432811
 20
1595.15946073423
 10
21827.5153418812
 20
1733.22989481047
 10
21784.0116409003
 20
1748.18946200528
 10
21753.9108440313
 20
1755.92847068713
 10
21434.5797632109
 20
1755.92847068713
 10
21415.4996035914
 20
1755.48779368599
 10
21390.2190027717
 20
1754.90442129702
  0
LWPOLYLINE
  5
20031
100
AcDbEntity
  8
0
100
AcDbPolyline
 70
0
 90
7
 38
-1.79769313486232e+308
 10
21995.730253031
 20
-1971.70052598591
 10
21959.3175902399
 20
-1975.27733219776
 10
21908.5559642515
 20
-1975.8734664697
 10
21755.2578519615
 20
-1974.4998518572
 10
21715.2496640808
 20
-2012.12070738094
 10
21672.8479967914
 20
-2054.52354723949
 10
21621.3293233006
 20
-2080.53275754291
  0
LWPOLYLINE
  5
20032
100
AcDbEntity
  8
0
100
AcDbPolyline
 70
0
 90
5
 38
-1.79769313486232e+308
 10
20691.7114461414
 20
2459.41120375611
 10
20323.2550711515
 20
2533.46158807084
 10
20146.4574519205
 20
2567.86818528606
 10
20040.2363408203
 20
2586.00498932099
 10
19779.8711704309
 20
2631.98870664055
  0
LWPOLYLINE
  5
20033
100
AcDbEntity
  8
0
100
AcDbPolyline
 70
0
 90
7
 38
-1.79769313486232e+308
 10
17914.7472595605
 20
-2600.85893939983
 10
17910.2158517516
 20
-2480.24120318925
 10
17906.3308025612
 20
-2276.00835577294
 10
17904.2379596899
 20
-1926.07057469094
 10
17897.9707437414
 20
-1742.60307421989
 10
17897.3473458807
 20
-1724.62802399264
 10
17896.2786495104
 20
-1693.1102023822
  0
LWPOLYLINE
  5
20034
100
AcDbEntity
  8
0
100
AcDbPolyline
 70
0
 90
6
 38
-1.79769313486232e+308
 10
18189.5609695814
 20
241.603728125454
 10
17923.2291196803
 20
205.777832712629
 10
17761.9939220916
 20
186.659392599133
 10
17145.7181212599
 20
50.5114850691753
 10
16706.2065022099
 20
-60.5677090570098
 10
16291.2630864712
 20
-172.980910227052
  0
LWPOLYLINE
  5
20035
100
AcDbEntity
  8
0
100
AcDbPolyline
 70
0
 90
10
 38
-1.79769313486232e+308
 10
21696.1138421516
 20
3090.0723285476
 10
21731.8251197706
 20
3317.77203238767
 10
21738.9829327106
 20
3366.74040423718
 10
21740.1518412712
 20
3415.44977418531
 10
21740.2853907715
 20
3771.61532007542
 10
21740.29650321
 20
3819.80751924275
 10
21734.3298237114
 20
3985.81738619099
 10
21727.1607982214
 20
4070.61248016602
 10
21725.8472277201
 20
4152.6074481142
 10
21777.3213513303
 20
4559.10278103233
  0
LWPOLYLINE
  5
20036
100
AcDbEntity
  8
0
100
AcDbPolyline
 70
0
 90
3
 38
-1.79769313486232e+308
 10
19891.4801130309
 20
3258.47094066406
 10
20167.1406060508
 20
3259.2488645023
 10
20740.68086582
 20
3264.0068865401
  0
LWPOLYLINE
  5
20037
100
AcDbEntity
  8
0
100
AcDbPolyline
 70
0
 90
5
 38
-1.79769313486232e+308
 10
21753.9108440313
 20
1755.92847068713
 10
21751.6733392212
 20
1799.57573969022
 10
21734.3631610307
 20
1856.30320685275
 10
21705.0972988415
 20
1982.90379864408
 10
21686.974510971
 20
2087.35090626229
  0
LWPOLYLINE
  5
20038
100
AcDbEntity
  8
0
100
AcDbPolyline
 70
0
 90
26
 38
-1.79769313486232e+308
 10
21441.8266759007
 20
386.852934507304
 10
21364.125692151
 20
388.460179697839
 10
21322.6257342915
 20
391.441417242051
 10
21316.34740591
 20
394.448533700895
 10
21305.0150196603
 20
403.094070427236
 10
21244.7021013009
 20
477.132222931017
 10
21225.8223660509
 20
535.12392503547
 10
21219.4548378005
 20
554.696590541978
 10
21208.5678501814
 20
590.004985237611
 10
21203.4916675515
 20
630.005915160873
 10
21192.28181849
 20
648.450906825368
 10
21099.2855121302
 20
761.986301608966
 10
21007.7585506602
 20
883.727839865838
 10
20939.5419844217
 20
974.283048017998
 10
20810.2555524404
 20
1091.32122835296
 10
20746.502883391
 20
1150.96207135555
 10
20735.6157956417
 20
1169.55040699022
 10
20699.7820809609
 20
1278.52762292616
 10
20660.2079790304
 20
1396.39834828547
 10
20643.3542117807
 20
1446.92772191914
 10
20637.2205453399
 20
1479.10174920515
 10
20637.2205453399
 20
1512.84431264515
 10
20650.5009122803
 20
1683.72351898078
 10
20666.0299965902
 20
1862.87564441387
 10
20681.4032064001
 20
2010.58083219512
 10
20681.4255313906
 20
2056.01797602896
  0
LWPOLYLINE
  5
20039
100
AcDbEntity
  8
0
100
AcDbPolyline
 70
0
 90
4
 38
-1.79769313486232e+308
 10
21577.7366226814
 20
3418.14642449806
 10
21577.8702723007
 20
3493.758391332
 10
21576.2560652415
 20
3768.63327275787
 10
21571.9034926812
 20
3897.44449285709
  0
LWPOLYLINE
  5
2003A
100
AcDbEntity
  8
0
100
AcDbPolyline
 70
0
 90
7
 38
-1.79769313486232e+308
 10
22163.254891451
 20
2101.89609157585
 10
22159.5034918911
 20
2185.96531301888
 10
22139.0763243302
 20
2582.11581423285
 10
22122.35610659
 20
2941.61524937593
 10
22116.5118641513
 20
3127.09928380291
 10
22109.1981767113
 20
3409.33031098044
 10
22093.7358671515
 20
3785.06036880205
  0
LWPOLYLINE
  5
2003B
100
AcDbEntity
  8
0
100
AcDbPolyline
 70
0
 90
4
 38
-1.79769313486232e+308
 10
21316.34740591
 20
394.448533700895
 10
21169.2942846916
 20
282.990457904176
 10
21106.7327490705
 20
236.794988985756
 10
21038.6608447707
 20
163.341563377646
  0
LWPOLYLINE
  5
2003C
100
AcDbEntity
  8
0
100
AcDbPolyline
 70
0
 90
11
 38
-1.79769313486232e+308
 10
21225.8223660509
 20
535.12392503547
 10
21228.5608316804
 20
536.575685253017
 10
21332.4664506516
 20
550.898624911089
 10
21444.130955461
 20
565.234636903857
 10
21616.7207641597
 20
584.34060245764
 10
21784.5237141415
 20
713.922513053869
 10
21795.1213778905
 20
721.375744802062
 10
21979.789307659
 20
851.270214372896
 10
22082.5037932112
 20
915.174509317265
 10
22186.409412201
 20
982.060511277174
 10
22219.5077782306
 20
1004.70267819532
  0
LWPOLYLINE
  5
2003D
100
AcDbEntity
  8
0
100
AcDbPolyline
 70
0
 90
4
 38
-1.79769313486232e+308
 10
21576.2560652415
 20
3768.63327275787
 10
21740.2853907715
 20
3771.61532007542
 10
22093.7358671515
 20
3785.06036880205
 10
22219.5077782306
 20
3789.83470157033
  0
LWPOLYLINE
  5
2003E
100
AcDbEntity
  8
0
100
AcDbPolyline
 70
0
 90
4
 38
-1.79769313486232e+308
 10
20958.6444690316
 20
2457.64816303097
 10
20901.9605131703
 20
2329.04619655304
 10
20841.0019720621
 20
2190.70998373779
 10
20788.269940251
 20
2023.93327617703
  0
LWPOLYLINE
  5
2003F
100
AcDbEntity
  8
0
100
AcDbPolyline
 70
0
 90
7
 38
-1.79769313486232e+308
 10
21198.6046967502
 20
2221.08398690925
 10
21199.2726444914
 20
2338.84693532728
 10
21193.04987831
 20
2627.373515071
 10
21192.1037191111
 20
2809.40433384723
 10
21188.5192063614
 20
2872.70937500766
 10
21064.308856891
 20
2878.67292433616
 10
21063.52968464
 20
2921.67599540029
  0
LWPOLYLINE
  5
20040
100
AcDbEntity
  8
0
100
AcDbPolyline
 70
0
 90
14
 38
-1.79769313486232e+308
 10
22219.5077782306
 20
2111.45008489548
 10
22184.4724438111
 20
2104.3332899526
 10
22163.254891451
 20
2101.89609157585
 10
21969.6146174199
 20
2079.67651235277
 10
21878.8447034503
 20
2074.89294483431
 10
21747.4655287112
 20
2083.25448355928
 10
21686.974510971
 20
2087.35090626229
 10
21536.0697779912
 20
2097.59214381513
 10
21499.0449298709
 20
2107.14635725517
 10
21304.9927947815
 20
2182.36143036711
 10
21198.6046967502
 20
2221.08398690925
 10
21007.4580142214
 20
2290.64741381223
 10
20901.9605131703
 20
2329.04619655304
 10
20696.93229071
 20
2402.91439535574
  0
LWPOLYLINE
  5
20041
100
AcDbEntity
  8
0
100
AcDbPolyline
 70
0
 90
2
 38
0
 10
20720.9661958902
 20
2238.49418956053
 10
20664.6051014713
 20
2061.06081927533
  0
LWPOLYLINE
  5
20042
100
AcDbEntity
  8
0
100
AcDbPolyline
 70
0
 90
33
 38
-1.79769313486232e+308
 10
20657.0687647699
 20
2271.92776017275
 10
20680.3679474699
 20
2329.85006110242
 10
20696.93229071
 20
2402.91439535574
 10
20698.2792986403
 20
2457.64816303097
 10
20710.2238702006
 20
2571.70559046615
 10
20717.8604190699
 20
2677.20776443801
 10
20732.4654689501
 20
2928.84524814796
 10
20739.3339580013
 20
3152.35451661528
 10
20740.68086582
 20
3264.0068865401
 10
20741.8719992707
 20
3361.74891719513
 10
20743.6642055712
 20
3588.07936419931
 10
20746.0575848906
 20
3798.88146821421
 10
20752.0243645101
 20
3924.28310572414
 10
20780.6890536915
 20
4173.3007698009
 10
20805.0234953216
 20
4375.34776532429
 10
20824.2818544316
 20
4559.66028143617
 10
20854.1376770507
 20
4811.0766188401
 10
20866.6834216113
 20
4981.26192675589
 10
20854.7388500511
 20
5155.04147865542
 10
20839.8108386206
 20
5358.67335983098
 10
20829.0574004999
 20
5539.01962065103
 10
20827.2651941809
 20
5595.15458237764
 10
20839.2097657411
 20
5636.94804119796
 10
20860.7055295515
 20
5703.8334243322
 10
20897.7303776699
 20
5790.41680559574
 10
20905.4893636103
 20
5832.82037376205
 10
20898.3315506703
 20
5882.38221350044
 10
20847.569824561
 20
6076.46873503889
 10
20797.4092714409
 20
6234.71502757084
 10
20736.3505181405
 20
6436.75656227034
 10
20690.3644382111
 20
6596.2005301324
 10
20655.8777314606
 20
6742.89863317797
 10
20653.3984411112
 20
6753.4717490772
  0
LWPOLYLINE
  5
20043
100
AcDbEntity
  8
0
100
AcDbPolyline
 70
0
 90
6
 38
-1.79769313486232e+308
 10
21155.078770881
 20
3428.06461797573
 10
21483.5158455609
 20
3419.71523443901
 10
21577.7366226814
 20
3418.14642449806
 10
21740.1518412712
 20
3415.44977418531
 10
22109.1981767113
 20
3409.33031098044
 10
22219.5077782306
 20
3407.50088169391
  0
LWPOLYLINE
  5
20044
100
AcDbEntity
  8
0
100
AcDbPolyline
 70
0
 90
8
 38
-1.79769313486232e+308
 10
14319.3941429309
 20
5405.8214695371
 10
14443.5488300915
 20
5384.25731383602
 10
14848.473430091
 20
5325.3093917371
 10
14896.0291672009
 20
5325.81503295724
 10
15550.0978759802
 20
5328.43443203729
 10
15753.5565413809
 20
5305.04201196099
 10
16190.1181579917
 20
5266.06345013215
 10
16746.7378757815
 20
5223.19500965544
  0
LWPOLYLINE
  5
20045
100
AcDbEntity
  8
0
100
AcDbPolyline
 70
0
 90
11
 38
-1.79769313486232e+308
 10
16637.5100298101
 20
3753.97855069192
 10
16702.4438900812
 20
4603.81017143524
 10
16732.2107130899
 20
4974.23410687421
 10
16739.9362615808
 20
5129.69145503792
 10
16746.7378757815
 20
5223.19500965544
 10
16773.0092857606
 20
5505.62916329608
 10
16788.4381578914
 20
5530.99289762427
 10
16832.5430318708
 20
5549.73051684594
 10
17433.389960581
 20
5508.94876503723
 10
17530.4159780699
 20
5470.35859520093
 10
17672.2259297199
 20
5446.78433736705
  0
LWPOLYLINE
  5
20046
100
AcDbEntity
  8
0
100
AcDbPolyline
 70
0
 90
42
 38
-1.79769313486232e+308
 10
15499.2027004803
 20
2517.47696483287
 10
15736.0904887016
 20
2543.17166530911
 10
15779.7388516213
 20
2539.671443042
 10
15802.3478616807
 20
2534.21358393051
 10
15819.8918015505
 20
2526.81103187718
 10
15833.5284673623
 20
2519.78459831618
 10
15840.9423669814
 20
2515.50638864387
 10
15880.3049321002
 20
2484.31496763288
 10
15972.2993168305
 20
2448.84555463551
 10
16006.2072757012
 20
2441.83210631704
 10
16044.0113962009
 20
2441.83210631704
 10
16244.7538208417
 20
2431.69423183019
 10
16304.0091552916
 20
2427.02723310201
 10
16342.5925481408
 20
2428.19404091605
 10
16362.8637410901
 20
2428.97191285214
 10
16374.1626899014
 20
2431.69423183019
 10
16395.6028915006
 20
2439.88754115405
 10
16609.9818818509
 20
2545.90706719796
 10
16755.3763462598
 20
2613.33336317784
 10
16936.626750221
 20
2699.09134867101
 10
16969.7554367198
 20
2711.56287646724
 10
16986.9097404103
 20
2717.02081335208
 10
17006.4017611011
 20
2719.36742498085
 10
17017.7007099013
 20
2720.14519852784
 10
17046.15396239
 20
2717.40975834208
 10
17196.2237606901
 20
2692.46658694011
 10
17482.3259428306
 20
2640.62285615795
 10
17653.0566703617
 20
2612.94442144281
 10
17678.0033974103
 20
2613.73524633714
 10
17686.9646292212
 20
2615.67983866588
 10
17709.18400309
 20
2618.01337318926
 10
17732.961821591
 20
2619.58208225074
 10
17763.3631549007
 20
2621.52667550056
 10
18006.1954978625
 20
2649.2051292971
 10
18231.8846495706
 20
2674.14821398782
 10
18365.9689526199
 20
2695.57802446291
 10
18386.0955837215
 20
2698.74134532793
 10
18433.0167104001
 20
2704.16033549898
 10
18628.6829524408
 20
2792.25251411239
 10
18868.4095185804
 20
2904.12212836801
 10
18904.6550943307
 20
2913.46942715032
 10
18929.535046631
 20
2926.17458734114
  0
LWPOLYLINE
  5
20047
100
AcDbEntity
  8
0
100
AcDbPolyline
 70
0
 90
8
 38
-1.79769313486232e+308
 10
18905.1449426911
 20
5715.14096519223
 10
19589.6150848917
 20
5607.5512301001
 10
19796.9810243617
 20
5582.61532431108
 10
19853.10835709
 20
5582.61532431108
 10
19910.7940343502
 20
5589.63054347283
 10
20212.4921756606
 20
5620.80386216717
 10
20717.6599947116
 20
5686.28869218205
 10
20860.7055295515
 20
5703.8334243322
  0
LWPOLYLINE
  5
20048
100
AcDbEntity
  8
0
100
AcDbPolyline
 70
0
 90
2
 38
0
 10
19668.7409637603
 20
2959.28587838414
 10
19712.3447768199
 20
2959.66188918205
  0
LWPOLYLINE
  5
20049
100
AcDbEntity
  8
0
100
AcDbPolyline
 70
0
 90
2
 38
0
 10
19331.2425451907
 20
2956.35590939515
 10
19668.7409637603
 20
2959.28587838414
  0
LWPOLYLINE
  5
2004A
100
AcDbEntity
  8
0
100
AcDbPolyline
 70
0
 90
2
 38
0
 10
22219.5077782306
 20
-1928.07764141902
 10
21995.730253031
 20
-1971.70052598591
  0
LWPOLYLINE
  5
2004B
100
AcDbEntity
  8
0
100
AcDbPolyline
 70
0
 90
2
 38
0
 10
20440.1294081914
 20
-233.224567774101
 10
20207.7499669208
 20
-422.844937662943
  0
LWPOLYLINE
  5
2004C
100
AcDbEntity
  8
0
100
AcDbPolyline
 70
0
 90
3
 38
-1.79769313486232e+308
 10
20573.3565516598
 20
-128.238644412137
 10
20492.8947773106
 20
-192.293079292285
 10
20440.1294081914
 20
-233.224567774101
  0
LWPOLYLINE
  5
2004D
100
AcDbEntity
  8
0
100
AcDbPolyline
 70
0
 90
2
 38
0
 10
19748.4012408606
 20
2406.93315954239
 10
19746.5643845699
 20
2425.66607404605
  0
LWPOLYLINE
  5
2004E
100
AcDbEntity
  8
0
100
AcDbPolyline
 70
0
 90
4
 38
-1.79769313486232e+308
 10
22219.5077782306
 20
-2075.394798227
 10
22161.2178110103
 20
-1993.03163203958
 10
21987.2254321701
 20
-1815.81149781484
 10
21468.66582144
 20
-1341.51009575592
  0
LWPOLYLINE
  5
2004F
100
AcDbEntity
  8
0
100
AcDbPolyline
 70
0
 90
9
 38
-1.79769313486232e+308
 10
18590.1340062502
 20
6753.4717490772
 10
18617.5176532506
 20
6473.22294966609
 10
18638.1005951813
 20
6326.2298206311
 10
18665.6855756803
 20
6182.58421772264
 10
18711.7495428002
 20
6010.77438139601
 10
18742.2734132907
 20
5906.60558832728
 10
18885.8086963999
 20
5501.28508802422
 10
19255.8680659006
 20
4510.50565678405
 10
19408.2088064305
 20
4083.03361102904
  0
LWPOLYLINE
  5
20050
100
AcDbEntity
  8
0
100
AcDbPolyline
 70
0
 90
2
 38
0
 10
19734.4640386212
 20
2426.02901091904
 10
19736.1894701901
 20
2408.28149194096
  0
LWPOLYLINE
  5
20051
100
AcDbEntity
  8
0
100
AcDbPolyline
 70
0
 90
2
 38
0
 10
11524.0615584808
 20
3031.55011500011
 10
11536.65175279
 20
3071.29958820029
  0
LWPOLYLINE
  5
20052
100
AcDbEntity
  8
0
100
AcDbPolyline
 70
0
 90
5
 38
-1.79769313486232e+308
 10
11352.0840352005
 20
2635.03530530084
 10
11351.5051871999
 20
2649.33477692411
 10
11383.4872901211
 20
2710.4609828071
 10
11501.3746612309
 20
3007.66940834804
 10
11524.0615584808
 20
3031.55011500011
  0
LWPOLYLINE
  5
20053
100
AcDbEntity
  8
0
100
AcDbPolyline
 70
0
 90
38
 38
-1.79769313486232e+308
 10
20312.367983391
 20
2179.7686920726
 10
20308.3048348403
 20
2152.54491426202
 10
20306.2565418403
 20
2073.60958594794
 10
20308.3048348403
 20
1999.10819470102
 10
20318.8912860206
 20
1908.22154774109
 10
20324.0231309622
 20
1780.75306714012
 10
20335.644941201
 20
1526.37761972111
 10
20345.8863060805
 20
1324.4287530022
 10
20356.8290561303
 20
1120.75924724212
 10
20367.0815334502
 20
917.44291025924
 10
20365.3672143216
 20
807.418888082844
 10
20377.3340107608
 20
655.696719722007
 10
20379.1819795105
 20
619.532510650926
 10
20382.8109420105
 20
605.04093116906
 10
20399.4754974409
 20
578.702100840514
 10
20414.4590710714
 20
546.802707787254
 10
20462.7828680105
 20
437.831896812306
 10
20462.7828680105
 20
427.436405330547
 10
20459.3987796209
 20
419.231597957318
 10
20426.3035305603
 20
392.646851557889
 10
20307.5589999012
 20
301.797810422839
 10
20301.2805714006
 20
293.826454036054
 10
20300.0672130804
 20
284.156948199146
 10
20312.6351825199
 20
263.612653678865
 10
20400.8336178116
 20
131.689421868999
 10
20573.3565516598
 20
-128.238644412137
 10
20627.3019417799
 20
-204.256281601149
 10
20715.4113774407
 20
-330.043996212888
 10
20842.1708806208
 20
-521.99583829788
 10
20951.9207420307
 20
-688.658466447028
 10
21025.5029149014
 20
-800.469807572081
 10
21035.5996178309
 20
-820.675346203963
 10
21057.6074548899
 20
-869.005186000722
 10
21077.388899581
 20
-910.984155998915
 10
21084.9586736909
 20
-911.528473676066
 10
21231.0432106215
 20
-879.606824122253
 10
21336.095413161
 20
-856.925948944758
 10
21346.1921160906
 20
-856.925948944758
  0
LWPOLYLINE
  5
20054
100
AcDbEntity
  8
0
100
AcDbPolyline
 70
0
 90
47
 38
-1.79769313486232e+308
 10
19514.5078047304
 20
756.943984602229
 10
19700.6339669409
 20
751.331400325173
 10
20001.3747365209
 20
735.997087390278
 10
20146.4463394913
 20
727.468007655931
 10
20149.5075664311
 20
803.478394012083
 10
20365.3672143216
 20
807.418888082844
 10
20552.8626093618
 20
810.205783247598
 10
20566.9334612316
 20
807.691084492602
 10
20579.2007941003
 20
792.175315805827
 10
20677.3067205208
 20
659.442726670881
 10
20790.2736833706
 20
504.17083820526
 10
20918.5694063003
 20
326.658441012376
 10
21038.6608447707
 20
163.341563377646
 10
21135.5310878917
 20
31.0693490254926
 10
21193.4617393701
 20
-30.2121369478991
 10
21271.7304586801
 20
-115.342160137719
 10
21326.5553333513
 20
-177.01178014779
 10
21365.8734487104
 20
-224.631220675888
 10
21389.3172933306
 20
-265.743973782635
 10
21396.8981798901
 20
-284.861689946963
 10
21400.5049175299
 20
-381.175307519152
 10
21400.861116271
 20
-555.745942207868
 10
21398.3341874513
 20
-573.42452045891
 10
21384.2633355907
 20
-618.514980322565
 10
21371.6397038507
 20
-663.242546674213
 10
21364.0700298413
 20
-701.476612673025
 10
21353.2498169611
 20
-816.890853282879
 10
21351.4686229709
 20
-838.236874903901
 10
21346.1921160906
 20
-856.925948944758
 10
21351.7247096501
 20
-872.154546112637
 10
21357.3351904112
 20
-935.920058754622
 10
21360.8973781592
 20
-1060.13225458085
 10
21359.3723709616
 20
-1081.05010371457
 10
21362.4335979107
 20
-1105.27281909424
 10
21362.6896845899
 20
-1205.50701316481
 10
21364.21469178
 20
-1215.96593660477
 10
21371.7288035913
 20
-1221.33135451085
 10
21502.2398064411
 20
-1219.55589725717
 10
21633.1737827915
 20
-1216.80826797883
 10
21648.2241311702
 20
-1220.35941611731
 10
21664.5770377214
 20
-1230.1442995778
 10
21672.7255597315
 20
-1232.23083592986
 10
21749.1352979499
 20
-1235.98932783573
 10
21816.5725918314
 20
-1237.23341673089
 10
21978.4311872902
 20
-1243.71353972785
 10
22208.0165006216
 20
-1248.57357148582
 10
22219.5077782306
 20
-1249.02619146218
  0
LWPOLYLINE
  5
20055
100
AcDbEntity
  8
0
100
AcDbPolyline
 70
0
 90
2
 38
0
 10
15665.6586425207
 20
-2131.07369300106
 10
15684.0486295107
 20
-2347.671667043
  0
LWPOLYLINE
  5
20056
100
AcDbEntity
  8
0
100
AcDbPolyline
 70
0
 90
23
 38
-1.79769313486232e+308
 10
21336.9525727308
 20
1755.26733861037
 10
21235.1286841813
 20
1758.31372266554
 10
21194.3412239305
 20
1783.86427673895
 10
21119.1003942504
 20
1906.8862101842
 10
21082.0754460203
 20
1937.93360315741
 10
20788.269940251
 20
2023.93327617703
 10
20681.4255313906
 20
2056.01797602896
 10
20664.6051014713
 20
2061.06081927533
 10
20433.728542631
 20
2130.37712481909
 10
20312.367983391
 20
2179.7686920726
 10
20209.2305243514
 20
2221.74514372798
 10
20114.9095350499
 20
2271.8758793805
 10
19985.8902020804
 20
2319.673454526
 10
19766.7355655502
 20
2412.83177968219
 10
19639.5307638901
 20
2430.74789072538
 10
19394.1046172506
 20
2466.58030679089
 10
19179.1244538999
 20
2502.41282602784
 10
19024.4571088101
 20
2538.828740948
 10
18797.532373901
 20
2549.5889363453
 10
18631.5216302401
 20
2558.54702879267
 10
18578.3777373801
 20
2578.25252309267
 10
18460.7352404105
 20
2646.32711567602
 10
18389.9026456117
 20
2686.14006578701
  0
LWPOLYLINE
  5
20057
100
AcDbEntity
  8
0
100
AcDbPolyline
 70
0
 90
2
 38
0
 10
21390.2190027717
 20
1754.90442129702
 10
21336.9525727308
 20
1755.26733861037
  0
LWPOLYLINE
  5
20058
100
AcDbEntity
  8
0
100
AcDbPolyline
 70
0
 90
6
 38
-1.79769313486232e+308
 10
20207.7499669208
 20
-422.844937662943
 10
20176.9923347416
 20
-447.457779384567
 10
20130.7057183716
 20
-490.449096877943
 10
20090.3968939404
 20
-521.62004919711
 10
20043.2197806905
 20
-547.904627417098
 10
19982.3056893307
 20
-574.033659920911
  0
LWPOLYLINE
  5
20059
100
AcDbEntity
  8
0
100
AcDbPolyline
 70
0
 90
3
 38
-1.79769313486232e+308
 10
19944.5350062712
 20
-592.399095783825
 10
19909.4582389626
 20
-607.615078362054
 10
19846.5405046004
 20
-629.32430649444
  0
LWPOLYLINE
  5
2005A
100
AcDbEntity
  8
0
100
AcDbPolyline
 70
0
 90
2
 38
0
 10
19982.3056893307
 20
-574.033659920911
 10
19944.5350062712
 20
-592.399095783825
  0
LWPOLYLINE
  5
2005B
100
AcDbEntity
  8
0
100
AcDbPolyline
 70
0
 90
2
 38
0
 10
19723.5769508812
 20
2530.62254175788
 10
19734.4640386212
 20
2426.02901091904
  0
LWPOLYLINE
  5
2005C
100
AcDbEntity
  8
0
100
AcDbPolyline
 70
0
 90
2
 38
0
 10
19719.70301412
 20
2572.57417751302
 10
19723.5769508812
 20
2530.62254175788
  0
LWPOLYLINE
  5
2005D
100
AcDbEntity
  8
0
100
AcDbPolyline
 70
0
 90
7
 38
-1.79769313486232e+308
 10
19422.5356448605
 20
4042.80120211525
 10
19430.6397171016
 20
4018.99632824596
 10
19507.3833291004
 20
3774.18238824711
 10
19613.0032672114
 20
3318.34253590612
 10
19642.1801297716
 20
3182.54932927585
 10
19685.0937701906
 20
2931.67156016605
 10
19719.70301412
 20
2572.57417751302
  0
LWPOLYLINE
  5
2005E
100
AcDbEntity
  8
0
100
AcDbPolyline
 70
0
 90
2
 38
0
 10
19408.2088064305
 20
4083.03361102904
 10
19422.5356448605
 20
4042.80120211525
  0
LWPOLYLINE
  5
2005F
100
AcDbEntity
  8
0
100
AcDbPolyline
 70
0
 90
2
 38
0
 10
19442.6177261001
 20
4042.64565418719
 10
19427.2445163014
 20
4084.74499372078
  0
LWPOLYLINE
  5
20060
100
AcDbEntity
  8
0
100
AcDbPolyline
 70
0
 90
7
 38
-1.79769313486232e+308
 10
19730.9017507597
 20
2571.67970773915
 10
19696.9493421311
 20
2934.70529045269
 10
19654.0244891415
 20
3202.61877126771
 10
19625.2150379005
 20
3327.11975850549
 10
19507.5837534699
 20
3827.79419350589
 10
19447.9833327304
 20
4029.0576056001
 10
19442.6177261001
 20
4042.64565418719
  0
LWPOLYLINE
  5
20061
100
AcDbEntity
  8
0
100
AcDbPolyline
 70
0
 90
2
 38
0
 10
19736.5678938213
 20
2525.85174222721
 10
19730.9017507597
 20
2571.67970773915
  0
LWPOLYLINE
  5
20062
100
AcDbEntity
  8
0
100
AcDbPolyline
 70
0
 90
2
 38
0
 10
19746.5643845699
 20
2425.66607404605
 10
19736.5678938213
 20
2525.85174222721
  0
LWPOLYLINE
  5
20063
100
AcDbEntity
  8
0
100
AcDbPolyline
 70
0
 90
6
 38
-1.79769313486232e+308
 10
15021.0743512414
 20
-1527.84773216292
 10
15252.2069967701
 20
-1527.16090017592
 10
15507.1620106711
 20
-1526.05926494894
 10
15538.8101397208
 20
-1523.06554857024
 10
15582.7701515309
 20
-1504.39052771905
 10
15616.9564219597
 20
-1487.84078384598
  0
LWPOLYLINE
  5
20064
100
AcDbEntity
  8
0
100
AcDbPolyline
 70
0
 90
3
 38
-1.79769313486232e+308
 10
16270.8025816004
 20
-72.2069897189504
 10
16256.7651671595
 20
-73.8271140590077
 10
15104.4637029204
 20
-206.485546197626
  0
LWPOLYLINE
  5
20065
100
AcDbEntity
  8
0
100
AcDbPolyline
 70
0
 90
17
 38
-1.79769313486232e+308
 10
16468.0610067802
 20
-2600.85893939983
 10
16472.0459670606
 20
-2436.28479273606
 10
16477.5340107414
 20
-2220.50475003978
 10
16486.0165066305
 20
-1736.14908453904
 10
16486.6399045005
 20
-1704.07407214201
 10
16486.9849908217
 20
-1685.72321233794
 10
16490.9257023106
 20
-1481.93107145734
 10
16492.8737831204
 20
-1380.72705942101
 10
16495.2115001208
 20
-1259.38235084282
 10
16494.7328643012
 20
-1215.79740039294
 10
16490.8589275605
 20
-1171.71985758736
 10
16463.2517221808
 20
-1036.10374873446
 10
16437.58138507
 20
-893.215376017964
 10
16415.7850848301
 20
-800.223638584721
 10
16365.4129949003
 20
-538.184015156119
 10
16291.2630864712
 20
-172.980910227052
 10
16270.8025816004
 20
-72.2069897189504
  0
LWPOLYLINE
  5
20066
100
AcDbEntity
  8
0
100
AcDbPolyline
 70
0
 90
14
 38
-1.79769313486232e+308
 10
16256.7651671595
 20
-73.8271140590077
 10
16417.7220532014
 20
-887.409116750932
 10
16458.8879370703
 20
-1099.06489535968
 10
16473.4151998716
 20
-1170.74791532091
 10
16479.2372174314
 20
-1231.77721069788
 10
16477.1332621216
 20
-1382.43780742714
 10
16475.7417043108
 20
-1481.65892508614
 10
16474.873432321
 20
-1544.17714276898
 10
16472.0681919302
 20
-1686.6044393027
 10
16471.7119931909
 20
-1704.54061709705
 10
16471.0885953209
 20
-1736.08440009959
 10
16464.4428556315
 20
-2073.57360220735
 10
16461.4928531903
 20
-2223.49829881394
 10
16454.0611115913
 20
-2600.85893939983
  0
LWPOLYLINE
  5
20067
100
AcDbEntity
  8
0
100
AcDbPolyline
 70
0
 90
3
 38
-1.79769313486232e+308
 10
15923.1740226611
 20
-1813.42704647302
 10
16198.3113299809
 20
-1735.73440486228
 10
16245.1767943627
 20
-1727.91982326272
  0
LWPOLYLINE
  5
20068
100
AcDbEntity
  8
0
100
AcDbPolyline
 70
0
 90
7
 38
-1.79769313486232e+308
 10
16245.1767943627
 20
-1727.91982326272
 10
16275.5559027805
 20
-1732.70192820986
 10
16471.7119931909
 20
-1704.54061709705
 10
16486.6399045005
 20
-1704.07407214201
 10
17311.7510897904
 20
-1720.20884853729
 10
17897.9707437414
 20
-1742.60307421989
 10
17944.8696455616
 20
-1744.39139380481
  0
LWPOLYLINE
  5
20069
100
AcDbEntity
  8
0
100
AcDbPolyline
 70
0
 90
7
 38
-1.79769313486232e+308
 10
17944.0903731803
 20
-1723.73386281391
 10
17897.3473458807
 20
-1724.62802399264
 10
17418.6512610814
 20
-1705.65517345711
 10
16486.9849908217
 20
-1685.72321233794
 10
16472.0681919302
 20
-1686.6044393027
 10
16261.1066272906
 20
-1717.2410526321
 10
16245.1767943627
 20
-1727.91982326272
  0
LWPOLYLINE
  5
2006A
100
AcDbEntity
  8
0
100
AcDbPolyline
 70
0
 90
4
 38
-1.79769313486232e+308
 10
16252.6241314015
 20
-2107.48790978489
 10
16388.2668790701
 20
-2085.76832128724
 10
16439.3402540716
 20
-2077.59103708796
 10
16464.4428556315
 20
-2073.57360220735
  0
LWPOLYLINE
  5
2006B
100
AcDbEntity
  8
0
100
AcDbPolyline
 70
0
 90
2
 38
0
 10
16379.2723099398
 20
-2036.23800310574
 10
16388.2668790701
 20
-2085.76832128724
  0
LWPOLYLINE
  5
2006C
100
AcDbEntity
  8
0
100
AcDbPolyline
 70
0
 90
2
 38
0
 10
16439.3402540716
 20
-2077.59103708796
 10
16445.2959212414
 20
-2129.49264567427
  0
LWPOLYLINE
  5
2006D
100
AcDbEntity
  8
0
100
AcDbPolyline
 70
0
 90
2
 38
0
 10
21468.66582144
 20
-1341.51009575592
 10
21405.0244770213
 20
-1283.30657742906
  0
LWPOLYLINE
  5
2006E
100
AcDbEntity
  8
0
100
AcDbPolyline
 70
0
 90
2
 38
0
 10
21405.0133645809
 20
-1306.58284246724
 10
21476.6140191904
 20
-1371.77167787903
  0
LWPOLYLINE
  5
2006F
100
AcDbEntity
  8
0
100
AcDbPolyline
 70
0
 90
15
 38
-1.79769313486232e+308
 10
19736.1894701901
 20
2408.28149194096
 10
19743.1469588629
 20
2337.05791285739
 10
19819.0111864204
 20
976.771784442128
 10
19836.9335499215
 20
834.821111152065
 10
19864.00645717
 20
703.695469810744
 10
19932.5347724012
 20
440.826085330104
 10
19981.8603908415
 20
297.922287942958
 10
20031.1749969399
 20
187.424185596057
 10
20106.3490518606
 20
36.0984333428787
 10
20214.1953823413
 20
-132.99548651732
 10
20326.2049734625
 20
-282.087977652787
 10
20418.0435838099
 20
-391.42744446767
 10
20509.0472594905
 20
-487.429255204624
 10
20696.0529062706
 20
-661.104046417284
 10
21405.0133645809
 20
-1306.58284246724
  0
LWPOLYLINE
  5
20070
100
AcDbEntity
  8
0
100
AcDbPolyline
 70
0
 90
15
 38
-1.79769313486232e+308
 10
21405.0244770213
 20
-1283.30657742906
 10
20703.4779183208
 20
-641.636998413945
 10
20519.5001611705
 20
-474.740503754816
 10
20429.1644332516
 20
-382.134373115725
 10
20340.5095870099
 20
-276.203686470981
 10
20226.3402781705
 20
-124.855735821067
 10
20120.4976908113
 20
44.8214702369878
 10
20038.4219096298
 20
202.17452328431
 10
19996.8551770109
 20
299.568455222179
 10
19945.2475038911
 20
446.412651325227
 10
19877.0531625315
 20
714.12989368022
 10
19851.1601761705
 20
836.208091938053
 10
19835.2526682313
 20
974.9570783159
 10
19755.1137553002
 20
2338.01718795591
 10
19748.4012408606
 20
2406.93315954239
  0
LWPOLYLINE
  5
20071
100
AcDbEntity
  8
0
100
AcDbPolyline
 70
0
 90
6
 38
-1.79769313486232e+308
 10
14935.8481432605
 20
4519.41338762233
 10
14932.6309417109
 20
5014.71581248904
 10
14896.0291672009
 20
5325.81503295724
 10
14885.9658015813
 20
5411.35837111215
 10
14670.7964264299
 20
6559.82463391276
 10
14653.3209645315
 20
6753.4717490772
  0
LWPOLYLINE
  5
20072
100
AcDbEntity
  8
0
100
AcDbPolyline
 70
0
 90
2
 38
0
 10
14935.7144936412
 20
4449.68182940281
 10
14935.8481432605
 20
4519.41338762233
  0
LWPOLYLINE
  5
20073
100
AcDbEntity
  8
0
100
AcDbPolyline
 70
0
 90
8
 38
-1.79769313486232e+308
 10
14483.0170416101
 20
6753.4717490772
 10
14487.4420671514
 20
6666.55373575783
 10
14499.086102271
 20
6516.36813751387
 10
14521.1941515203
 20
6245.37462563778
 10
14527.4502550303
 20
6179.67937963607
 10
14529.8992966409
 20
6156.45399435202
 10
14535.5654397211
 20
6126.00565576053
 10
14550.7939875699
 20
6053.15281101048
  0
LWPOLYLINE
  5
20074
100
AcDbEntity
  8
0
100
AcDbPolyline
 70
0
 90
2
 38
0
 10
14577.0653975806
 20
6553.57393515913
 10
14378.8164643007
 20
6538.05099919729
  0
LWPOLYLINE
  5
20075
100
AcDbEntity
  8
0
100
AcDbPolyline
 70
0
 90
2
 38
0
 10
14378.8164643007
 20
6538.05099919729
 10
14272.2169295712
 20
6527.59851114929
  0
LWPOLYLINE
  5
20076
100
AcDbEntity
  8
0
100
AcDbPolyline
 70
0
 90
2
 38
0
 10
14670.7964264299
 20
6559.82463391276
 10
14577.0653975806
 20
6553.57393515913
  0
LWPOLYLINE
  5
20077
100
AcDbEntity
  8
0
100
AcDbPolyline
 70
0
 90
9
 38
-1.79769313486232e+308
 10
14559.7552193902
 20
6015.53357266414
 10
14563.8851427114
 20
5985.78565415239
 10
14565.1319384514
 20
5955.20805137802
 10
14563.6291561308
 20
5928.33916616777
 10
14559.1095966301
 20
5891.43355317239
 10
14536.4114868301
 20
5789.92397357535
 10
14464.7551699108
 20
5453.11237919529
 10
14443.5488300915
 20
5384.25731383602
 10
14402.9505816712
 20
4989.00306323089
  0
LWPOLYLINE
  5
20078
100
AcDbEntity
  8
0
100
AcDbPolyline
 70
0
 90
2
 38
0
 10
14550.7939875699
 20
6053.15281101048
 10
14559.7552193902
 20
6015.53357266414
  0
LWPOLYLINE
  5
20079
100
AcDbEntity
  8
0
100
AcDbPolyline
 70
0
 90
2
 38
0
 10
14256.4540835707
 20
5417.621440068
 10
14319.3941429309
 20
5405.8214695371
  0
LWPOLYLINE
  5
2007A
100
AcDbEntity
  8
0
100
AcDbPolyline
 70
0
 90
5
 38
-1.79769313486232e+308
 10
13479.5888080108
 20
5427.64501578605
 10
13878.0903175711
 20
5427.32082434429
 10
14175.1797996401
 20
5426.12784654892
 10
14203.3547405801
 20
5424.59773316106
 10
14256.4540835707
 20
5417.621440068
  0
LWPOLYLINE
  5
2007B
100
AcDbEntity
  8
0
100
AcDbPolyline
 70
0
 90
2
 38
0
 10
14372.7941224906
 20
4752.05363484018
 10
14362.0963466815
 20
4702.06834486604
  0
LWPOLYLINE
  5
2007C
100
AcDbEntity
  8
0
100
AcDbPolyline
 70
0
 90
2
 38
0
 10
14399.9560293607
 20
4962.42149654089
 10
14372.7941224906
 20
4752.05363484018
  0
LWPOLYLINE
  5
2007D
100
AcDbEntity
  8
0
100
AcDbPolyline
 70
0
 90
18
 38
-1.79769313486232e+308
 10
14362.0963466815
 20
4702.06834486604
 10
14356.0739047504
 20
4667.25389570056
 10
14356.0739047504
 20
4637.39259373222
 10
14368.9090733002
 20
4590.09184202517
 10
14373.6847194801
 20
4523.21244796424
 10
14359.6584174908
 20
4329.25382570235
 10
14358.1556351702
 20
4241.35820359609
 10
14347.4133094898
 20
4172.08202621771
 10
14316.35514087
 20
4027.56660929893
 10
14274.8551830011
 20
3802.5506488859
 10
14237.8303348902
 20
3623.40942446806
 10
14200.4715128909
 20
3463.09608478763
 10
14177.8180530905
 20
3365.91070492018
 10
14176.3151706601
 20
3360.19317334529
 10
14115.7129284008
 20
3129.4330308201
 10
14060.7767291008
 20
2910.87653652218
 10
14058.3833497907
 20
2870.25908448047
 10
14077.4969468503
 20
2843.99322683795
  0
LWPOLYLINE
  5
2007E
100
AcDbEntity
  8
0
100
AcDbPolyline
 70
0
 90
2
 38
0
 10
14402.9505816712
 20
4989.00306323089
 10
14399.9560293607
 20
4962.42149654089
  0
LWPOLYLINE
  5
2007F
100
AcDbEntity
  8
0
100
AcDbPolyline
 70
0
 90
2
 38
0
 10
13480.6797292712
 20
4981.53421447764
 10
13480.0785562708
 20
4950.47934243514
  0
LWPOLYLINE
  5
20080
100
AcDbEntity
  8
0
100
AcDbPolyline
 70
0
 90
5
 38
-1.79769313486232e+308
 10
13474.4124132111
 20
5252.05926909728
 10
13474.7018372114
 20
5164.57203551766
 10
13474.4124132111
 20
5130.53433264431
 10
13478.5868863906
 20
5012.88757349516
 10
13480.6797292712
 20
4981.53421447764
  0
LWPOLYLINE
  5
20081
100
AcDbEntity
  8
0
100
AcDbPolyline
 70
0
 90
10
 38
-1.79769313486232e+308
 10
13281.2285501207
 20
4172.67845496081
 10
13278.8351708013
 20
4072.94628757017
 10
13277.6441374901
 20
4018.30919018725
 10
13275.5512946113
 20
4006.96424662287
 10
13271.9667818616
 20
3989.64228586771
 10
13268.3823692403
 20
3963.97048383916
 10
13263.6067230511
 20
3923.36253663211
 10
13257.9294675416
 20
3878.87796768046
 10
13241.810322681
 20
3762.42292102764
 10
13227.3722597505
 20
3653.99435456388
  0
LWPOLYLINE
  5
20082
100
AcDbEntity
  8
0
100
AcDbPolyline
 70
0
 90
2
 38
0
 10
13282.1191471103
 20
4191.49180295889
 10
13281.2285501207
 20
4172.67845496081
  0
LWPOLYLINE
  5
20083
100
AcDbEntity
  8
0
100
AcDbPolyline
 70
0
 90
9
 38
-1.79769313486232e+308
 10
13154.9366704314
 20
3660.29548283911
 10
13227.3722597505
 20
3653.99435456388
 10
13464.27126052
 20
3634.62436039292
 10
13710.2650426007
 20
3614.32090770279
 10
13793.2759706504
 20
3608.34394674015
 10
13819.5473806406
 20
3603.57273399096
 10
13972.5782937999
 20
3546.92813120282
 10
14049.0102569102
 20
3522.45003778266
 10
14200.4715128909
 20
3463.09608478763
  0
LWPOLYLINE
  5
20084
100
AcDbEntity
  8
0
100
AcDbPolyline
 70
0
 90
2
 38
0
 10
13136.1124973907
 20
3661.50123379717
 10
13154.9366704314
 20
3660.29548283911
  0
LWPOLYLINE
  5
20085
100
AcDbEntity
  8
0
100
AcDbPolyline
 70
0
 90
13
 38
-1.79769313486232e+308
 10
13480.0785562708
 20
4950.47934243514
 10
13478.8875229503
 20
4932.27425548539
 10
13477.0952165215
 20
4920.92859494605
 10
13469.3362305812
 20
4898.23718831607
 10
13426.6341269608
 20
4768.9487005776
 10
13383.0414263415
 20
4634.28078717238
 10
13328.4057634803
 20
4465.29299546417
 10
13302.7244140408
 20
4377.500074688
 10
13293.7631822298
 20
4353.61678444093
 10
13289.588709041
 20
4337.50015746115
 10
13287.7964026104
 20
4325.26032695605
 10
13287.4958661716
 20
4315.40625069535
 10
13282.1191471103
 20
4191.49180295889
  0
LWPOLYLINE
  5
20086
100
AcDbEntity
  8
0
100
AcDbPolyline
 70
0
 90
2
 38
0
 10
14216.5349954399
 20
5533.01572929707
 10
14219.2177987597
 20
5548.5504717651
  0
LWPOLYLINE
  5
20087
100
AcDbEntity
  8
0
100
AcDbPolyline
 70
0
 90
5
 38
-1.79769313486232e+308
 10
14203.3547405801
 20
5424.59773316106
 10
14204.8909603204
 20
5454.94068290398
 10
14206.5272921505
 20
5469.8657758726
 10
14211.60347476
 20
5499.57351042389
 10
14216.5349954399
 20
5533.01572929707
  0
LWPOLYLINE
  5
20088
100
AcDbEntity
  8
0
100
AcDbPolyline
 70
0
 90
12
 38
-1.79769313486232e+308
 10
14219.2177987597
 20
5548.5504717651
 10
14223.7039208203
 20
5563.17748766032
 10
14226.98789712
 20
5573.92723812035
 10
14231.1623703199
 20
5587.06310061284
 10
14232.0639796401
 20
5592.88532849599
 10
14230.5611973214
 20
5597.81287172588
 10
14226.98789712
 20
5602.28654249583
 10
14222.2011385108
 20
5605.42459691095
 10
14215.1879875115
 20
5606.91589897929
 10
14195.3285555202
 20
5607.21408944263
 10
14130.8411639701
 20
5608.26446163014
 10
14118.4513940304
 20
5609.15926637233
  0
LWPOLYLINE
  5
20089
100
AcDbEntity
  8
0
100
AcDbPolyline
 70
0
 90
15
 38
-1.79769313486232e+308
 10
22219.5077782306
 20
263.748015125399
 10
22149.9634120702
 20
321.564544210327
 10
22070.1806979007
 20
387.90286611917
 10
21974.5238131206
 20
467.773814382614
 10
21939.0240723002
 20
508.202045214013
 10
21795.1213778905
 20
721.375744802062
 10
21433.1215307596
 20
1257.68360120535
 10
21425.2401077706
 20
1283.32394100924
 10
21423.2585895206
 20
1327.69547911046
 10
21421.28828383
 20
1360.2450441221
 10
21408.4753401498
 20
1422.3760010727
 10
21400.5828046999
 20
1464.77762500581
 10
21398.6124990205
 20
1571.28151011013
 10
21417.1360355201
 20
1688.29953929794
 10
21415.4996035914
 20
1755.48779368599
  0
LWPOLYLINE
  5
2008A
100
AcDbEntity
  8
0
100
AcDbPolyline
 70
0
 90
21
 38
-1.79769313486232e+308
 10
21616.7207641597
 20
584.34060245764
 10
21634.4205785408
 20
538.688513067667
 10
21633.61908129
 20
526.67273490096
 10
21462.2092935811
 20
403.327440672205
 10
21441.8266759007
 20
386.852934507304
 10
21433.3775173402
 20
366.47702816606
 10
21430.9730255804
 20
341.642196167842
 10
21435.7708966411
 20
326.425188772962
 10
21751.3728027805
 20
-99.7108419089345
 10
21797.0249088216
 20
-148.574892260949
 10
21810.6504622004
 20
-152.57989301614
 10
21909.1681495714
 20
-90.0936216794653
 10
21937.2095409907
 20
-77.2748461322626
 10
21940.4044175516
 20
-65.2596507676644
 10
21905.9621605608
 20
-15.6047321719816
 10
21901.9657867416
 20
6.83153171243612
 10
21911.5726413108
 20
42.8772794721881
 10
21907.5651550605
 20
57.2903390360297
 10
22026.9219711605
 20
153.413032177021
 10
22149.9634120702
 20
321.564544210327
 10
22219.5077782306
 20
393.481312153977
  0
LWPOLYLINE
  5
2008B
100
AcDbEntity
  8
0
100
AcDbPolyline
 70
0
 90
2
 38
0
 10
13782.2555226606
 20
2864.57693562435
 10
13788.7318909783
 20
2516.4365254009
  0
LWPOLYLINE
  5
2008C
100
AcDbEntity
  8
0
100
AcDbPolyline
 70
0
 90
2
 38
0
 10
13771.8939156284
 20
2578.5582129145
 10
13870.3320938151
 20
2310.65836364246
  0
LWPOLYLINE
  5
2008D
100
AcDbEntity
  8
0
100
AcDbPolyline
 70
0
 90
2
 38
0
 10
13857.380085025
 20
2367.60314803733
 10
13872.4210100966
 20
1993.33214108541
  0
LWPOLYLINE
  5
2008E
100
AcDbEntity
  8
0
100
AcDbPolyline
 70
0
 90
2
 38
0
 10
13665.4035838456
 20
1981.16434891493
 10
13901.6476419014
 20
2009.55567232741
  0
LWPOLYLINE
  5
2008F
100
AcDbEntity
  8
0
100
AcDbPolyline
 70
0
 90
2
 38
0
 10
13882.1632206981
 20
2020.1012263649
 10
13885.4108668471
 20
1908.96885869763
  0
LWPOLYLINE
  5
20090
100
AcDbEntity
  8
0
100
AcDbPolyline
 70
0
 90
2
 38
0
 10
13678.3927127508
 20
1949.5282617585
 10
13907.3299308941
 20
1977.91958517098
  0
LWPOLYLINE
  5
20091
100
AcDbEntity
  8
0
100
AcDbPolyline
 70
0
 90
2
 38
0
 10
13667.0266790746
 20
1851.37494906719
 10
13865.9264456439
 20
1851.37494906719
  0
LWPOLYLINE
  5
20092
100
AcDbEntity
  8
0
100
AcDbPolyline
 70
0
 90
2
 38
0
 10
13848.0665753606
 20
1870.03198124765
 10
13863.4910749549
 20
1818.92731162725
  0
LWPOLYLINE
  5
20093
100
AcDbEntity
  8
0
100
AcDbPolyline
 70
0
 90
2
 38
0
 10
13876.4802038601
 20
1994.95437921846
 10
13964.9701911985
 20
2007.93343419442
  0
LWPOLYLINE
  5
20094
100
AcDbEntity
  8
0
100
AcDbPolyline
 70
0
 90
2
 38
0
 10
13960.0994498205
 20
1969.80781954998
 10
13935.744287239
 20
2151.5131518236
  0
LWPOLYLINE
  5
20095
100
AcDbEntity
  8
0
100
AcDbPolyline
 70
0
 90
2
 38
0
 10
13672.7184300575
 20
2085.48780107976
 10
13949.5456916043
 20
2121.49930280016
  0
LWPOLYLINE
  5
20096
100
AcDbEntity
  8
0
100
AcDbPolyline
 70
0
 90
2
 38
0
 10
13820.2832609724
 20
2078.87839528214
 10
13958.475626746
 20
2095.54119284829
  0
LWPOLYLINE
  5
20097
100
AcDbEntity
  8
0
100
AcDbPolyline
 70
0
 90
2
 38
0
 10
13819.6522190156
 20
2054.17081445985
 10
13960.0994498205
 20
2071.2058959853
  0
LWPOLYLINE
  5
20098
100
AcDbEntity
  8
0
100
AcDbPolyline
 70
0
 90
2
 38
0
 10
13823.7114127792
 20
2029.83523011889
 10
13961.723272895
 20
2050.11507538834
  0
LWPOLYLINE
  5
20099
100
AcDbEntity
  8
0
100
AcDbPolyline
 70
0
 90
2
 38
0
 10
13827.7706065427
 20
2144.21236153017
 10
13842.4192229467
 20
1948.02417706739
  0
LWPOLYLINE
  5
2009A
100
AcDbEntity
  8
0
100
AcDbPolyline
 70
0
 90
2
 38
0
 10
13680.3018512198
 20
2067.68055375153
 10
13775.9640270729
 20
2080.89994030271
  0
LWPOLYLINE
  5
2009B
100
AcDbEntity
  8
0
100
AcDbPolyline
 70
0
 90
2
 38
0
 10
13604.4836521947
 20
2042.25887767452
 10
13703.7086312525
 20
2057.00333480799
  0
LWPOLYLINE
  5
2009C
100
AcDbEntity
  8
0
100
AcDbPolyline
 70
0
 90
2
 38
0
 10
13626.8729043663
 20
2016.32836560684
 10
13717.4474409139
 20
2032.59846827848
  0
LWPOLYLINE
  5
2009D
100
AcDbEntity
  8
0
100
AcDbPolyline
 70
0
 90
2
 38
0
 10
13673.6864644318
 20
1974.1283258234
 10
13655.36805155
 20
2115.47347726306
  0
LWPOLYLINE
  5
2009E
100
AcDbEntity
  8
0
100
AcDbPolyline
 70
0
 90
2
 38
0
 10
13259.1952528677
 20
1656.08628314384
 10
13911.9401036211
 20
1667.50030810101
  0
LWPOLYLINE
  5
2009F
100
AcDbEntity
  8
0
100
AcDbPolyline
 70
0
 90
2
 38
0
 10
13899.7013833172
 20
1653.64042065304
 10
13894.8051673503
 20
1764.51837032498
  0
LWPOLYLINE
  5
200A0
100
AcDbEntity
  8
0
100
AcDbPolyline
 70
0
 90
2
 38
0
 10
13674.5038348095
 20
1689.51278304041
 10
13825.4516911168
 20
1700.1112330227
  0
LWPOLYLINE
  5
200A1
100
AcDbEntity
  8
0
100
AcDbPolyline
 70
0
 90
2
 38
0
 10
13810.7644989068
 20
1687.06692054961
 10
13829.5312645513
 20
1765.33337034396
  0
LWPOLYLINE
  5
200A2
100
AcDbEntity
  8
0
100
AcDbPolyline
 70
0
 90
2
 38
0
 10
13812.3963282806
 20
1748.21262038621
 10
13993.5330280039
 20
1757.18078285252
  0
LWPOLYLINE
  5
200A3
100
AcDbEntity
  8
0
100
AcDbPolyline
 70
0
 90
2
 38
0
 10
13429.2541456909
 20
1608.65673177486
 10
13431.7455604754
 20
1201.8958281228
  0
LWPOLYLINE
  5
200A4
100
AcDbEntity
  8
0
100
AcDbPolyline
 70
0
 90
2
 38
0
 10
13398.9131825875
 20
1212.39394829673
 10
13631.3666218303
 20
1211.08161140548
  0
LWPOLYLINE
  5
200A5
100
AcDbEntity
  8
0
100
AcDbPolyline
 70
0
 90
2
 38
0
 10
13593.2806558869
 20
1196.64705551381
 10
13662.8852387816
 20
1251.76118025399
  0
LWPOLYLINE
  5
200A6
100
AcDbEntity
  8
0
100
AcDbPolyline
 70
0
 90
2
 38
0
 10
13622.1732066559
 20
1229.45289049292
 10
13678.8585338031
 20
1234.5674108942
  0
LWPOLYLINE
  5
200A7
100
AcDbEntity
  8
0
100
AcDbPolyline
 70
0
 90
2
 38
0
 10
13663.9340639947
 20
1226.85408972693
 10
13745.2474957461
 20
1290.61842630879
  0
LWPOLYLINE
  5
200A8
100
AcDbEntity
  8
0
100
AcDbPolyline
 70
0
 90
2
 38
0
 10
13728.7829050834
 20
1270.69016658544
 10
13695.668851028
 20
1568.15137457056
  0
LWPOLYLINE
  5
200A9
100
AcDbEntity
  8
0
100
AcDbPolyline
 70
0
 90
2
 38
0
 10
13110.7402670355
 20
1353.26619849075
 10
13245.9499223836
 20
1393.29635462572
  0
LWPOLYLINE
  5
200AA
100
AcDbEntity
  8
0
100
AcDbPolyline
 70
0
 90
2
 38
0
 10
13196.7068143922
 20
1384.1226454174
 10
13466.2912864212
 20
1384.1226454174
  0
LWPOLYLINE
  5
200AB
100
AcDbEntity
  8
0
100
AcDbPolyline
 70
0
 90
2
 38
0
 10
13120.7561475055
 20
1556.75201098941
 10
13151.6371718914
 20
1210.65959375899
  0
LWPOLYLINE
  5
200AC
100
AcDbEntity
  8
0
100
AcDbPolyline
 70
0
 90
2
 38
0
 10
13129.9371893081
 20
1226.50480400451
 10
13195.8727035705
 20
1226.50480400451
  0
LWPOLYLINE
  5
200AD
100
AcDbEntity
  8
0
100
AcDbPolyline
 70
0
 90
2
 38
0
 10
13178.9779562799
 20
1240.64526994224
 10
13194.0203370422
 20
1116.22883318254
  0
LWPOLYLINE
  5
200AE
100
AcDbEntity
  8
0
100
AcDbPolyline
 70
0
 90
2
 38
0
 10
12972.2029025452
 20
1454.62460296747
 10
13135.3654602582
 20
1461.31306520436
  0
LWPOLYLINE
  5
200AF
100
AcDbEntity
  8
0
100
AcDbPolyline
 70
0
 90
2
 38
0
 10
13060.896686594
 20
1473.01801785786
 10
13066.7536584813
 20
1309.98639148642
  0
LWPOLYLINE
  5
200B0
100
AcDbEntity
  8
0
100
AcDbPolyline
 70
0
 90
2
 38
0
 10
12984.7538685231
 20
1316.67485372332
 10
13090.1822738758
 20
1335.90425452386
  0
LWPOLYLINE
  5
200B1
100
AcDbEntity
  8
0
100
AcDbPolyline
 70
0
 90
2
 38
0
 10
12939.1769177824
 20
1563.64400762255
 10
12932.4858350734
 20
1146.42149349762
  0
LWPOLYLINE
  5
200B2
100
AcDbEntity
  8
0
100
AcDbPolyline
 70
0
 90
2
 38
0
 10
12925.7940245189
 20
1187.87639040657
 10
12963.2671446403
 20
1127.70006625389
  0
LWPOLYLINE
  5
200B3
100
AcDbEntity
  8
0
100
AcDbPolyline
 70
0
 90
2
 38
0
 10
12949.8835235314
 20
1179.85288051952
 10
12949.8798843045
 20
544.177876298723
  0
LWPOLYLINE
  5
200B4
100
AcDbEntity
  8
0
100
AcDbPolyline
 70
0
 90
2
 38
0
 10
12568.4576003813
 20
778.196723018074
 10
13221.5598232233
 20
792.906682796252
  0
LWPOLYLINE
  5
200B5
100
AcDbEntity
  8
0
100
AcDbPolyline
 70
0
 90
2
 38
0
 10
13170.703081993
 20
778.196723018074
 10
13251.0026251103
 20
822.326027396717
  0
LWPOLYLINE
  5
200B6
100
AcDbEntity
  8
0
100
AcDbPolyline
 70
0
 90
2
 38
0
 10
13206.8384222798
 20
819.651619927026
 10
13491.9012544622
 20
815.639864983503
  0
LWPOLYLINE
  5
200B7
100
AcDbEntity
  8
0
100
AcDbPolyline
 70
0
 90
2
 38
0
 10
13430.3386353283
 20
869.130026722967
 10
13430.3386353283
 20
1129.89381057309
  0
LWPOLYLINE
  5
200B8
100
AcDbEntity
  8
0
100
AcDbPolyline
 70
0
 90
2
 38
0
 10
13419.6320295794
 20
952.039533062838
 10
13588.2716238839
 20
388.760678676015
  0
LWPOLYLINE
  5
200B9
100
AcDbEntity
  8
0
100
AcDbPolyline
 70
0
 90
2
 38
0
 10
13413.9679367215
 20
1094.17582385067
 10
13907.0911976048
 20
1116.937753834
  0
LWPOLYLINE
  5
200BA
100
AcDbEntity
  8
0
100
AcDbPolyline
 70
0
 90
2
 38
0
 10
13821.3306304946
 20
1130.32703986007
 10
14165.7128623059
 20
1008.48381832783
  0
LWPOLYLINE
  5
200BB
100
AcDbEntity
  8
0
100
AcDbPolyline
 70
0
 90
2
 38
0
 10
14075.9324050835
 20
1005.80596112262
 10
14358.6741383037
 20
1095.51460871432
  0
LWPOLYLINE
  5
200BC
100
AcDbEntity
  8
0
100
AcDbPolyline
 70
0
 90
2
 38
0
 10
13163.3860522449
 20
1000.45024671219
 10
13834.7309920477
 20
1005.80596112262
  0
LWPOLYLINE
  5
200BD
100
AcDbEntity
  8
0
100
AcDbPolyline
 70
0
 90
2
 38
0
 10
13119.1658053191
 20
953.58760188194
 10
13208.9462625415
 20
1013.83953273826
  0
LWPOLYLINE
  5
200BE
100
AcDbEntity
  8
0
100
AcDbPolyline
 70
0
 90
2
 38
0
 10
12699.7427133637
 20
863.878954290238
 10
13099.0656269123
 20
975.010459523648
  0
LWPOLYLINE
  5
200BF
100
AcDbEntity
  8
0
100
AcDbPolyline
 70
0
 90
2
 38
0
 10
12599.0161892576
 20
1579.67377871898
 10
12605.8724928711
 20
593.158083788527
  0
LWPOLYLINE
  5
200C0
100
AcDbEntity
  8
0
100
AcDbPolyline
 70
0
 90
2
 38
0
 10
12596.6717992428
 20
631.395527359738
 10
12853.2722372842
 20
92.9173966544913
  0
LWPOLYLINE
  5
200C1
100
AcDbEntity
  8
0
100
AcDbPolyline
 70
0
 90
2
 38
0
 10
13554.7164955196
 20
2436.32044240652
 10
13707.8901030424
 20
2443.08537378098
  0
LWPOLYLINE
  5
200C2
100
AcDbEntity
  8
0
100
AcDbPolyline
 70
0
 90
2
 38
0
 10
13696.8887199087
 20
2344.15213338187
 10
13685.8873367751
 20
2497.202524953
  0
LWPOLYLINE
  5
200C3
100
AcDbEntity
  8
0
100
AcDbPolyline
 70
0
 90
2
 38
0
 10
13663.0380863143
 20
2481.13653163356
 10
13774.7448860377
 20
2506.50387437595
  0
LWPOLYLINE
  5
200C4
100
AcDbEntity
  8
0
100
AcDbPolyline
 70
0
 90
2
 38
0
 10
13763.743502904
 20
2487.05541536928
 10
13756.1266008535
 20
2585.14318308548
  0
LWPOLYLINE
  5
200C5
100
AcDbEntity
  8
0
100
AcDbPolyline
 70
0
 90
2
 38
0
 10
13718.0450019825
 20
2549.62873075937
 10
13793.3624433763
 20
2579.22401187185
  0
LWPOLYLINE
  5
200C6
100
AcDbEntity
  8
0
100
AcDbPolyline
 70
0
 90
2
 38
0
 10
13683.3486120401
 20
2458.3056069396
 10
13816.2116938371
 20
2476.06283310271
  0
LWPOLYLINE
  5
200C7
100
AcDbEntity
  8
0
100
AcDbPolyline
 70
0
 90
2
 38
0
 10
13711.2753119709
 20
2503.12169616669
 10
13720.5837267175
 20
2456.61466157396
  0
LWPOLYLINE
  5
200C8
100
AcDbEntity
  8
0
100
AcDbPolyline
 70
0
 90
2
 38
0
 10
13579.2579865219
 20
2387.27670228737
 10
13841.5989411875
 20
2441.39414093737
  0
LWPOLYLINE
  5
200C9
100
AcDbEntity
  8
0
100
AcDbPolyline
 70
0
 90
2
 38
0
 10
13798.4398928465
 20
2438.8574354109
 10
13887.297442109
 20
2470.98942204978
  0
LWPOLYLINE
  5
200CA
100
AcDbEntity
  8
0
100
AcDbPolyline
 70
0
 90
2
 38
0
 10
13921.9938320514
 20
2276.5054069389
 10
13842.445425381
 20
2613.89299151511
  0
LWPOLYLINE
  5
200CB
100
AcDbEntity
  8
0
100
AcDbPolyline
 70
0
 90
2
 38
0
 10
13844.1376659225
 20
2564.0034912352
 10
14021.3330828361
 20
3569.15293263132
  0
LWPOLYLINE
  5
200CC
100
AcDbEntity
  8
0
100
AcDbPolyline
 70
0
 90
2
 38
0
 10
13224.7863618559
 20
3559.66156027629
 10
13866.6375505941
 20
3512.20556093485
  0
LWPOLYLINE
  5
200CD
100
AcDbEntity
  8
0
100
AcDbPolyline
 70
0
 90
2
 38
0
 10
13827.3014449048
 20
3518.27335488358
 10
14021.3330828361
 20
3464.74927411543
  0
LWPOLYLINE
  5
200CE
100
AcDbEntity
  8
0
100
AcDbPolyline
 70
0
 90
2
 38
0
 10
13850.6271354573
 20
3607.14659489173
 10
13795.4120560065
 20
3428.0538623262
  0
LWPOLYLINE
  5
200CF
100
AcDbEntity
  8
0
100
AcDbPolyline
 70
0
 90
2
 38
0
 10
13799.2696365959
 20
3459.7319212649
 10
13805.6069864433
 20
2823.79703696747
  0
LWPOLYLINE
  5
200D0
100
AcDbEntity
  8
0
100
AcDbPolyline
 70
0
 90
2
 38
0
 10
14141.5709584251
 20
2597.28280241584
 10
14404.0356468077
 20
2735.96188324661
  0
LWPOLYLINE
  5
200D1
100
AcDbEntity
  8
0
100
AcDbPolyline
 70
0
 90
2
 38
0
 10
14382.0496209846
 20
2738.7081602065
 10
14446.6349820406
 20
2631.60939580778
  0
LWPOLYLINE
  5
200D2
100
AcDbEntity
  8
0
100
AcDbPolyline
 70
0
 90
2
 38
0
 10
14424.4029444743
 20
2644.17534495401
 10
14492.2526921234
 20
2669.46420621307
  0
LWPOLYLINE
  5
200D3
100
AcDbEntity
  8
0
100
AcDbPolyline
 70
0
 90
2
 38
0
 10
14291.3957492891
 20
2596.82628741401
 10
14428.1724557709
 20
2682.37771621399
  0
LWPOLYLINE
  5
200D4
100
AcDbEntity
  8
0
100
AcDbPolyline
 70
0
 90
2
 38
0
 10
14246.1623415744
 20
2666.77398745559
 10
14283.318121104
 20
2586.0651249059
  0
LWPOLYLINE
  5
200D5
100
AcDbEntity
  8
0
100
AcDbPolyline
 70
0
 90
2
 38
0
 10
14181.0048940385
 20
2543.55834613828
 10
14281.7023043288
 20
2615.65839367267
  0
LWPOLYLINE
  5
200D6
100
AcDbEntity
  8
0
100
AcDbPolyline
 70
0
 90
2
 38
0
 10
14297.857560699
 20
2610.2776686796
 10
14331.7824345236
 20
2529.03064738726
  0
LWPOLYLINE
  5
200D7
100
AcDbEntity
  8
0
100
AcDbPolyline
 70
0
 90
2
 38
0
 10
14206.3135340863
 20
2499.97524988529
 10
14385.0927425778
 20
2553.78134990367
  0
LWPOLYLINE
  5
200D8
100
AcDbEntity
  8
0
100
AcDbPolyline
 70
0
 90
2
 38
0
 10
14369.4768196448
 20
2556.47156866122
 10
14393.7089763546
 20
2517.1931673938
  0
LWPOLYLINE
  5
200D9
100
AcDbEntity
  8
0
100
AcDbPolyline
 70
0
 90
2
 38
0
 10
14374.8614198712
 20
2520.42154489405
 10
14542.8707000643
 20
2606.51113243669
  0
LWPOLYLINE
  5
200DA
100
AcDbEntity
  8
0
100
AcDbPolyline
 70
0
 90
2
 38
0
 10
14243.5057058856
 20
2534.17190323892
 10
14318.5334648125
 20
2372.17318518081
  0
LWPOLYLINE
  5
200DB
100
AcDbEntity
  8
0
100
AcDbPolyline
 70
0
 90
2
 38
0
 10
14243.5057058856
 20
2363.55632078258
 10
14428.0560005078
 20
2450.58739864704
  0
LWPOLYLINE
  5
200DC
100
AcDbEntity
  8
0
100
AcDbPolyline
 70
0
 90
2
 38
0
 10
14406.4964920856
 20
2454.89611832408
 10
14479.7992574283
 20
2341.1523008605
  0
LWPOLYLINE
  5
200DD
100
AcDbEntity
  8
0
100
AcDbPolyline
 70
0
 90
2
 38
0
 10
14255.5792052849
 20
2294.62083064119
 10
14961.0106005898
 20
2596.21395935741
  0
LWPOLYLINE
  5
200DE
100
AcDbEntity
  8
0
100
AcDbPolyline
 70
0
 90
2
 38
0
 10
14930.5160621081
 20
2566.66697454237
 10
15517.5510306714
 20
2513.97111440875
  0
LWPOLYLINE
  5
200DF
100
AcDbEntity
  8
0
100
AcDbPolyline
 70
0
 90
2
 38
0
 10
15085.272005518
 20
2228.89531941043
 10
15091.3240399709
 20
2290.22989226732
  0
LWPOLYLINE
  5
200E0
100
AcDbEntity
  8
0
100
AcDbPolyline
 70
0
 90
2
 38
0
 10
15071.4385759553
 20
2266.90536791465
 10
15301.4115180947
 20
2323.92058440985
  0
LWPOLYLINE
  5
200E1
100
AcDbEntity
  8
0
100
AcDbPolyline
 70
0
 90
2
 38
0
 10
15265.1000392224
 20
2305.77957516909
 10
15380.086510292
 20
2395.62161253457
  0
LWPOLYLINE
  5
200E2
100
AcDbEntity
  8
0
100
AcDbPolyline
 70
0
 90
2
 38
0
 10
15387.002497228
 20
2362.79450418637
 10
15330.8062821856
 20
2427.58456213254
  0
LWPOLYLINE
  5
200E3
100
AcDbEntity
  8
0
100
AcDbPolyline
 70
0
 90
2
 38
0
 10
15195.0703946176
 20
2319.60122804827
 10
15361.9304069333
 20
2418.94584940933
  0
LWPOLYLINE
  5
200E4
100
AcDbEntity
  8
0
100
AcDbPolyline
 70
0
 90
2
 38
0
 10
15226.1945193652
 20
2362.79450418637
 10
15273.7453868149
 20
2241.85338849528
  0
LWPOLYLINE
  5
200E5
100
AcDbEntity
  8
0
100
AcDbPolyline
 70
0
 90
2
 38
0
 10
15098.2400269067
 20
2334.28703967773
 10
15225.3305668823
 20
2320.46509932057
  0
LWPOLYLINE
  5
200E6
100
AcDbEntity
  8
0
100
AcDbPolyline
 70
0
 90
2
 38
0
 10
15133.6868254506
 20
2315.28187168669
 10
15106.0214220163
 20
2564.93923199771
  0
LWPOLYLINE
  5
200E7
100
AcDbEntity
  8
0
100
AcDbPolyline
 70
0
 90
2
 38
0
 10
14994.4929444146
 20
2462.13912554743
 10
15121.5834843902
 20
2520.01821331499
  0
LWPOLYLINE
  5
200E8
100
AcDbEntity
  8
0
100
AcDbPolyline
 70
0
 90
2
 38
0
 10
15047.2311659891
 20
2513.10724313639
 10
15029.9397429585
 20
2357.61156403041
  0
LWPOLYLINE
  5
200E9
100
AcDbEntity
  8
0
100
AcDbPolyline
 70
0
 90
2
 38
0
 10
15028.2111101473
 20
2386.98289981135
 10
15094.7820334388
 20
2262.58629903098
  0
LWPOLYLINE
  5
200EA
100
AcDbEntity
  8
0
100
AcDbPolyline
 70
0
 90
2
 38
0
 10
14987.7683808175
 20
2295.94150439324
 10
15092.1166636052
 20
2300.68086605566
  0
LWPOLYLINE
  5
200EB
100
AcDbEntity
  8
0
100
AcDbPolyline
 70
0
 90
2
 38
0
 10
14978.9592680111
 20
2342.31888642564
 10
15064.3355327531
 20
2344.68856725679
  0
LWPOLYLINE
  5
200EC
100
AcDbEntity
  8
0
100
AcDbPolyline
 70
0
 90
2
 38
0
 10
14962.0907231547
 20
2436.58089743904
 10
15074.3725207394
 20
2433.1915322807
  0
LWPOLYLINE
  5
200ED
100
AcDbEntity
  8
0
100
AcDbPolyline
 70
0
 90
2
 38
0
 10
14993.1937403859
 20
2517.22019032214
 10
15098.4532856073
 20
2494.99239439005
  0
LWPOLYLINE
  5
200EE
100
AcDbEntity
  8
0
100
AcDbPolyline
 70
0
 90
2
 38
0
 10
15105.0395585796
 20
2507.47526240564
 10
15522.2769308161
 20
2479.82620708802
  0
LWPOLYLINE
  5
200EF
100
AcDbEntity
  8
0
100
AcDbPolyline
 70
0
 90
2
 38
0
 10
15479.9585439053
 20
2488.44450887601
 10
15484.2986859911
 20
2312.24984163372
  0
LWPOLYLINE
  5
200F0
100
AcDbEntity
  8
0
100
AcDbPolyline
 70
0
 90
2
 38
0
 10
15241.7689551107
 20
2286.76923257473
 10
15492.4374531893
 20
2317.67110101919
  0
LWPOLYLINE
  5
200F1
100
AcDbEntity
  8
0
100
AcDbPolyline
 70
0
 90
2
 38
0
 10
15117.6138156101
 20
2350.41599067062
 10
15262.6632128425
 20
2464.4081890923
  0
LWPOLYLINE
  5
200F2
100
AcDbEntity
  8
0
100
AcDbPolyline
 70
0
 90
2
 38
0
 10
15213.2272258218
 20
2446.49514987448
 10
15344.6950279982
 20
2444.86658722634
  0
LWPOLYLINE
  5
200F3
100
AcDbEntity
  8
0
100
AcDbPolyline
 70
0
 90
2
 38
0
 10
15333.2867792891
 20
2456.26595080749
 10
15334.3727246174
 20
2417.18274707545
  0
LWPOLYLINE
  5
200F4
100
AcDbEntity
  8
0
100
AcDbPolyline
 70
0
 90
2
 38
0
 10
15025.2604249191
 20
2395.47011164925
 10
15135.5413755152
 20
2412.84010499902
  0
LWPOLYLINE
  5
200F5
100
AcDbEntity
  8
0
100
AcDbPolyline
 70
0
 90
2
 38
0
 10
15013.8521762101
 20
2454.09462976927
 10
15139.887340364
 20
2476.35031106352
  0
LWPOLYLINE
  5
200F6
100
AcDbEntity
  8
0
100
AcDbPolyline
 70
0
 90
2
 38
0
 10
14778.7908669198
 20
2538.10948886856
 10
14857.0917465846
 20
2317.30284175137
  0
LWPOLYLINE
  5
200F7
100
AcDbEntity
  8
0
100
AcDbPolyline
 70
0
 90
2
 38
0
 10
14683.9591626616
 20
2331.21188793064
 10
14866.6621856733
 20
2339.03588811285
  0
LWPOLYLINE
  5
200F8
100
AcDbEntity
  8
0
100
AcDbPolyline
 70
0
 90
2
 38
0
 10
14785.7505245793
 20
2352.94493429211
 10
14784.8807493333
 20
2211.24618496065
  0
LWPOLYLINE
  5
200F9
100
AcDbEntity
  8
0
100
AcDbPolyline
 70
0
 90
2
 38
0
 10
14767.4801494937
 20
2244.28027744067
 10
14951.923450843
 20
2320.78017516568
  0
LWPOLYLINE
  5
200FA
100
AcDbEntity
  8
0
100
AcDbPolyline
 70
0
 90
2
 38
0
 10
14688.3094945828
 20
2498.12072955992
 10
14708.3194201607
 20
2196.46780542779
  0
LWPOLYLINE
  5
200FB
100
AcDbEntity
  8
0
100
AcDbPolyline
 70
0
 90
2
 38
0
 10
14685.6994409991
 20
2260.79732368066
 10
14809.2410068324
 20
2279.92236998142
  0
LWPOLYLINE
  5
200FC
100
AcDbEntity
  8
0
100
AcDbPolyline
 70
0
 90
2
 38
0
 10
14690.049045075
 20
2303.3937955721
 10
14797.0612420055
 20
2306.00179563282
  0
LWPOLYLINE
  5
200FD
100
AcDbEntity
  8
0
100
AcDbPolyline
 70
0
 90
2
 38
0
 10
14672.6491730808
 20
2358.16093441355
 10
14863.1823568435
 20
2370.33131388569
  0
LWPOLYLINE
  5
200FE
100
AcDbEntity
  8
0
100
AcDbPolyline
 70
0
 90
2
 38
0
 10
14684.8289379076
 20
2385.97902677214
 10
14844.0414786662
 20
2399.88807295141
  0
LWPOLYLINE
  5
200FF
100
AcDbEntity
  8
0
100
AcDbPolyline
 70
0
 90
2
 38
0
 10
14676.9987771566
 20
2408.58111900924
 10
14833.6012643316
 20
2432.05283207784
  0
LWPOLYLINE
  5
20100
100
AcDbEntity
  8
0
100
AcDbPolyline
 70
0
 90
2
 38
0
 10
14730.9401271676
 20
2428.57549866353
 10
14743.990395086
 20
2208.63818489993
  0
LWPOLYLINE
  5
20101
100
AcDbEntity
  8
0
100
AcDbPolyline
 70
0
 90
2
 38
0
 10
14628.2607938689
 20
2231.87589090841
 10
14812.041028064
 20
1735.61907335575
  0
LWPOLYLINE
  5
20102
100
AcDbEntity
  8
0
100
AcDbPolyline
 70
0
 90
2
 38
0
 10
14788.3249137388
 20
1767.68005293829
 10
14965.5392546325
 20
1561.09839027934
  0
LWPOLYLINE
  5
20103
100
AcDbEntity
  8
0
100
AcDbPolyline
 70
0
 90
2
 38
0
 10
14891.6003524153
 20
1597.34102428029
 10
15152.4783378387
 20
1814.79711576388
  0
LWPOLYLINE
  5
20104
100
AcDbEntity
  8
0
100
AcDbPolyline
 70
0
 90
2
 38
0
 10
15141.3175565637
 20
1774.37253986666
 10
15135.7371659261
 20
1848.25178850064
  0
LWPOLYLINE
  5
20105
100
AcDbEntity
  8
0
100
AcDbPolyline
 70
0
 90
2
 38
0
 10
14927.8717997909
 20
1862.19130734377
 10
15156.6634488554
 20
1832.91857650335
  0
LWPOLYLINE
  5
20106
100
AcDbEntity
  8
0
100
AcDbPolyline
 70
0
 90
2
 38
0
 10
15053.4280416755
 20
1757.64505975926
 10
15181.7741149559
 20
1510.91594995733
  0
LWPOLYLINE
  5
20107
100
AcDbEntity
  8
0
100
AcDbPolyline
 70
0
 90
2
 38
0
 10
15156.6634488554
 20
1515.09789185366
 10
15265.4785188275
 20
1541.5829489078
  0
LWPOLYLINE
  5
20108
100
AcDbEntity
  8
0
100
AcDbPolyline
 70
0
 90
2
 38
0
 10
15231.9969028479
 20
1549.94654522248
 10
15304.5405254444
 20
1506.73429553898
  0
LWPOLYLINE
  5
20109
100
AcDbEntity
  8
0
100
AcDbPolyline
 70
0
 90
2
 38
0
 10
15291.9844645488
 20
1520.67381438206
 10
15308.7256364612
 20
1453.76418143068
  0
LWPOLYLINE
  5
2010A
100
AcDbEntity
  8
0
100
AcDbPolyline
 70
0
 90
2
 38
0
 10
15291.9844645488
 20
1455.15816206276
 10
15910.2694751129
 20
1611.24547081219
  0
LWPOLYLINE
  5
2010B
100
AcDbEntity
  8
0
100
AcDbPolyline
 70
0
 90
2
 38
0
 10
15440.131571779
 20
1672.57918123517
 10
15545.1749469183
 20
1204.82522854372
  0
LWPOLYLINE
  5
2010C
100
AcDbEntity
  8
0
100
AcDbPolyline
 70
0
 90
2
 38
0
 10
15458.4623580325
 20
1199.2352195952
 10
15557.7623051659
 20
1225.78697153629
  0
LWPOLYLINE
  5
2010D
100
AcDbEntity
  8
0
100
AcDbPolyline
 70
0
 90
2
 38
0
 10
15508.811791023
 20
1227.18468938186
 10
15364.7573584444
 20
985.423486221174
  0
LWPOLYLINE
  5
2010E
100
AcDbEntity
  8
0
100
AcDbPolyline
 70
0
 90
2
 38
0
 10
14325.5440716497
 20
976.833069795393
 10
15260.0174948346
 20
1011.77860323701
  0
LWPOLYLINE
  5
2010F
100
AcDbEntity
  8
0
100
AcDbPolyline
 70
0
 90
2
 38
0
 10
15187.2911830442
 20
1013.17603360466
 10
16338.3255412891
 20
983.829420928319
  0
LWPOLYLINE
  5
20110
100
AcDbEntity
  8
0
100
AcDbPolyline
 70
0
 90
2
 38
0
 10
15189.5584214472
 20
1012.0450953067
 10
15215.7273747509
 20
570.943511842634
  0
LWPOLYLINE
  5
20111
100
AcDbEntity
  8
0
100
AcDbPolyline
 70
0
 90
2
 38
0
 10
15202.9944474244
 20
589.197787399986
 10
15241.1939572493
 20
551.582733614021
  0
LWPOLYLINE
  5
20112
100
AcDbEntity
  8
0
100
AcDbPolyline
 70
0
 90
2
 38
0
 10
15230.121245267
 20
570.943511842634
 10
15235.6572373355
 20
491.841076138138
  0
LWPOLYLINE
  5
20113
100
AcDbEntity
  8
0
100
AcDbPolyline
 70
0
 90
2
 38
0
 10
14985.9189256708
 20
501.960875315592
 10
15610.5048938126
 20
504.791383318021
  0
LWPOLYLINE
  5
20114
100
AcDbEntity
  8
0
100
AcDbPolyline
 70
0
 90
2
 38
0
 10
15484.4544449054
 20
705.743940025801
 10
15805.5398013386
 20
-149.186480235541
  0
LWPOLYLINE
  5
20115
100
AcDbEntity
  8
0
100
AcDbPolyline
 70
0
 90
2
 38
0
 10
15184.5974272401
 20
670.150143782492
 10
15512.1729810535
 20
698.489146206062
  0
LWPOLYLINE
  5
20116
100
AcDbEntity
  8
0
100
AcDbPolyline
 70
0
 90
2
 38
0
 10
13281.8618141344
 20
332.390275246929
 10
15063.1455055337
 20
437.514353532693
  0
LWPOLYLINE
  5
20117
100
AcDbEntity
  8
0
100
AcDbPolyline
 70
0
 90
2
 38
0
 10
14514.3508061373
 20
1015.20361566247
 10
14699.206795825
 20
200.790914157697
  0
LWPOLYLINE
  5
20118
100
AcDbEntity
  8
0
100
AcDbPolyline
 70
0
 90
2
 38
0
 10
14362.2755173143
 20
530.349611426413
 10
15047.5113864659
 20
514.724034342973
  0
LWPOLYLINE
  5
20119
100
AcDbEntity
  8
0
100
AcDbPolyline
 70
0
 90
2
 38
0
 10
14312.0338054422
 20
2221.70118344046
 10
14297.7585737254
 20
1910.57672293257
  0
LWPOLYLINE
  5
2011A
100
AcDbEntity
  8
0
100
AcDbPolyline
 70
0
 90
2
 38
0
 10
14296.0030106344
 20
1932.49519257876
 10
14339.7006645673
 20
1718.68173433695
  0
LWPOLYLINE
  5
2011B
100
AcDbEntity
  8
0
100
AcDbPolyline
 70
0
 90
2
 38
0
 10
14336.1924497671
 20
1773.5704763559
 10
14347.3800811973
 20
880.832440619868
  0
LWPOLYLINE
  5
2011C
100
AcDbEntity
  8
0
100
AcDbPolyline
 70
0
 90
2
 38
0
 10
14341.6563851415
 20
959.987148768152
 10
14435.4683780025
 20
126.551168160804
  0
LWPOLYLINE
  5
2011D
100
AcDbEntity
  8
0
100
AcDbPolyline
 70
0
 90
2
 38
0
 10
13801.8651332717
 20
780.279788322339
 10
14370.5183664039
 20
927.376511324488
  0
LWPOLYLINE
  5
2011E
100
AcDbEntity
  8
0
100
AcDbPolyline
 70
0
 90
2
 38
0
 10
14289.6445532705
 20
1913.79331383639
 10
14522.4255229407
 20
2040.49865012028
  0
LWPOLYLINE
  5
2011F
100
AcDbEntity
  8
0
100
AcDbPolyline
 70
0
 90
2
 38
0
 10
14480.760741194
 20
2026.01809775486
 10
14701.7666280765
 20
2085.75055593596
  0
LWPOLYLINE
  5
20120
100
AcDbEntity
  8
0
100
AcDbPolyline
 70
0
 90
2
 38
0
 10
14522.4255229407
 20
1879.40203790326
 10
14729.8454476948
 20
1972.62079139677
  0
LWPOLYLINE
  5
20121
100
AcDbEntity
  8
0
100
AcDbPolyline
 70
0
 90
2
 38
0
 10
14719.8819720932
 20
1949.08985786821
 10
14968.0612389236
 20
1916.50854317652
  0
LWPOLYLINE
  5
20122
100
AcDbEntity
  8
0
100
AcDbPolyline
 70
0
 90
2
 38
0
 10
13891.756222994
 20
2699.17246616416
 10
14037.2547008347
 20
2706.01415415417
  0
LWPOLYLINE
  5
20123
100
AcDbEntity
  8
0
100
AcDbPolyline
 70
0
 90
2
 38
0
 10
14015.5721865409
 20
2711.71512959554
 10
14093.1714232457
 20
2582.29686379526
  0
LWPOLYLINE
  5
20124
100
AcDbEntity
  8
0
100
AcDbPolyline
 70
0
 90
2
 38
0
 10
14080.0483707879
 20
2609.66275332141
 10
14144.0332593938
 20
2341.58955483895
  0
LWPOLYLINE
  5
20125
100
AcDbEntity
  8
0
100
AcDbPolyline
 70
0
 90
2
 38
0
 10
13937.994785198
 20
2369.46428035578
 10
14065.8051642683
 20
2404.81199546467
  0
LWPOLYLINE
  5
20126
100
AcDbEntity
  8
0
100
AcDbPolyline
 70
0
 90
2
 38
0
 10
14030.4289667277
 20
2406.52220185369
 10
14084.6345246169
 20
2383.71715017624
  0
LWPOLYLINE
  5
20127
100
AcDbEntity
  8
0
100
AcDbPolyline
 70
0
 90
2
 38
0
 10
14046.9765317653
 20
2386.56778163591
 10
14260.9448815311
 20
2435.59858524683
  0
LWPOLYLINE
  5
20128
100
AcDbEntity
  8
0
100
AcDbPolyline
 70
0
 90
2
 38
0
 10
13900.9074231355
 20
2457.83356812794
 10
14215.8686884217
 20
2527.38886075292
  0
LWPOLYLINE
  5
20129
100
AcDbEntity
  8
0
100
AcDbPolyline
 70
0
 90
2
 38
0
 10
13981.9187990484
 20
2565.0714718597
 10
14007.5950010202
 20
2461.87867051491
  0
LWPOLYLINE
  5
2012A
100
AcDbEntity
  8
0
100
AcDbPolyline
 70
0
 90
2
 38
0
 10
13913.4489271233
 20
2608.97108134761
 10
13991.0474359826
 20
2364.95748836373
  0
LWPOLYLINE
  5
2012B
100
AcDbEntity
  8
0
100
AcDbPolyline
 70
0
 90
2
 38
0
 10
13894.6195667748
 20
2530.29382554721
 10
14071.4998266328
 20
2578.75427288382
  0
LWPOLYLINE
  5
2012C
100
AcDbEntity
  8
0
100
AcDbPolyline
 70
0
 90
2
 38
0
 10
14045.2529938718
 20
2581.03483554715
 10
14092.6117101374
 20
2484.68372219231
  0
LWPOLYLINE
  5
2012D
100
AcDbEntity
  8
0
100
AcDbPolyline
 70
0
 90
2
 38
0
 10
13979.065645103
 20
2646.02900284546
 10
14004.1712162858
 20
2551.38838335767
  0
LWPOLYLINE
  5
2012E
100
AcDbEntity
  8
0
100
AcDbPolyline
 70
0
 90
2
 38
0
 10
13867.2314724357
 20
2639.18760233343
 10
14012.7299502764
 20
2634.62676448474
  0
LWPOLYLINE
  5
2012F
100
AcDbEntity
  8
0
100
AcDbPolyline
 70
0
 90
2
 38
0
 10
13884.7303314036
 20
2666.04293100117
 10
13879.7838941044
 20
2596.42813043826
  0
LWPOLYLINE
  5
20130
100
AcDbEntity
  8
0
100
AcDbPolyline
 70
0
 90
2
 38
0
 10
13880.3545248936
 20
2623.22423864598
 10
13956.819778474
 20
2284.98255704809
  0
LWPOLYLINE
  5
20131
100
AcDbEntity
  8
0
100
AcDbPolyline
 70
0
 90
2
 38
0
 10
13829.0093994037
 20
2287.83318850776
 10
14263.2223097696
 20
2368.7910069715
  0
LWPOLYLINE
  5
20132
100
AcDbEntity
  8
0
100
AcDbPolyline
 70
0
 90
2
 38
0
 10
13387.7363887138
 20
2277.46299602644
 10
13852.6971277585
 20
2290.9359381391
  0
LWPOLYLINE
  5
20133
100
AcDbEntity
  8
0
100
AcDbPolyline
 70
0
 90
2
 38
0
 10
13570.8877644884
 20
2450.01129281352
 10
13576.0620173959
 20
2375.90809884801
  0
LWPOLYLINE
  5
20134
100
AcDbEntity
  8
0
100
AcDbPolyline
 70
0
 90
2
 38
0
 10
13571.4627623498
 20
2389.69467941596
 10
13600.7832862105
 20
2329.37806601846
  0
LWPOLYLINE
  5
20135
100
AcDbEntity
  8
0
100
AcDbPolyline
 70
0
 90
2
 38
0
 10
13594.4590375802
 20
2361.54684983636
 10
13591.009778257
 20
2279.97584088211
  0
LWPOLYLINE
  5
20136
100
AcDbEntity
  8
0
100
AcDbPolyline
 70
0
 90
2
 38
0
 10
13380.5940418603
 20
2321.91025102971
 10
13398.9910620446
 20
2274.23116879066
  0
LWPOLYLINE
  5
20137
100
AcDbEntity
  8
0
100
AcDbPolyline
 70
0
 90
2
 38
0
 10
13275.9611715234
 20
2321.91025102971
 10
13396.1168005828
 20
2310.42119432479
  0
LWPOLYLINE
  5
20138
100
AcDbEntity
  8
0
100
AcDbPolyline
 70
0
 90
2
 38
0
 10
13346.0999929375
 20
2445.41595760948
 10
13343.2257314757
 20
2304.67680971132
  0
LWPOLYLINE
  5
20139
100
AcDbEntity
  8
0
100
AcDbPolyline
 70
0
 90
2
 38
0
 10
12634.2752036898
 20
2314.86962829082
 10
13356.1049557264
 20
2438.144777546
  0
LWPOLYLINE
  5
2013A
100
AcDbEntity
  8
0
100
AcDbPolyline
 70
0
 90
2
 38
0
 10
13075.6290052184
 20
2928.96941155067
 10
13052.0373524555
 20
2690.29399682162
  0
LWPOLYLINE
  5
2013B
100
AcDbEntity
  8
0
100
AcDbPolyline
 70
0
 90
2
 38
0
 10
12674.5687247139
 20
2743.33281816251
 10
13087.4251955225
 20
2700.60698118876
  0
LWPOLYLINE
  5
2013C
100
AcDbEntity
  8
0
100
AcDbPolyline
 70
0
 90
2
 38
0
 10
11886.908995997
 20
2587.32456585235
 10
12730.3158591479
 20
2675.72288889851
  0
LWPOLYLINE
  5
2013D
100
AcDbEntity
  8
0
100
AcDbPolyline
 70
0
 90
2
 38
0
 10
11524.1850602514
 20
2675.72288889851
 10
11928.1945702933
 20
2585.85124130303
  0
LWPOLYLINE
  5
2013E
100
AcDbEntity
  8
0
100
AcDbPolyline
 70
0
 90
2
 38
0
 10
11687.8236288523
 20
2248.06549975101
 10
12705.2197499552
 20
2255.43212249753
  0
LWPOLYLINE
  5
2013F
100
AcDbEntity
  8
0
100
AcDbPolyline
 70
0
 90
2
 38
0
 10
12243.7053588521
 20
2231.85921718669
 10
12267.2991951511
 20
2974.6945060899
  0
LWPOLYLINE
  5
20140
100
AcDbEntity
  8
0
100
AcDbPolyline
 70
0
 90
2
 38
0
 10
12371.900768136
 20
1494.73410301964
 10
12407.3664906602
 20
2026.28458982456
  0
LWPOLYLINE
  5
20141
100
AcDbEntity
  8
0
100
AcDbPolyline
 70
0
 90
2
 38
0
 10
12274.9634071522
 20
2019.19710817805
 10
12426.2810089198
 20
1997.93523819436
  0
LWPOLYLINE
  5
20142
100
AcDbEntity
  8
0
100
AcDbPolyline
 70
0
 90
2
 38
0
 10
12286.7705151374
 20
1565.09663375869
 10
12267.8552690323
 20
828.013203896
  0
LWPOLYLINE
  5
20143
100
AcDbEntity
  8
0
100
AcDbPolyline
 70
0
 90
2
 38
0
 10
12003.0491020165
 20
863.450037172704
 10
12653.2428546632
 20
884.711907156336
  0
LWPOLYLINE
  5
20144
100
AcDbEntity
  8
0
100
AcDbPolyline
 70
0
 90
2
 38
0
 10
11452.1574800394
 20
1156.39324152528
 10
12069.2510076931
 20
844.550373593229
  0
LWPOLYLINE
  5
20145
100
AcDbEntity
  8
0
100
AcDbPolyline
 70
0
 90
2
 38
0
 10
11515.6241427245
 20
1555.44312383374
 10
11487.3968426459
 20
1221.43628007692
  0
LWPOLYLINE
  5
20146
100
AcDbEntity
  8
0
100
AcDbPolyline
 70
0
 90
2
 38
0
 10
11484.4257777467
 20
1295.65992730804
 10
11500.7680903831
 20
1132.36784590408
  0
LWPOLYLINE
  5
20147
100
AcDbEntity
  8
0
100
AcDbPolyline
 70
0
 90
2
 38
0
 10
11500.7680903831
 20
1178.3864554413
 10
11436.8843722871
 20
964.622443408764
  0
LWPOLYLINE
  5
20148
100
AcDbEntity
  8
0
100
AcDbPolyline
 70
0
 90
2
 38
0
 10
11447.3580675098
 20
1019.31541293632
 10
11433.4074548389
 20
774.916599484917
  0
LWPOLYLINE
  5
20149
100
AcDbEntity
  8
0
100
AcDbPolyline
 70
0
 90
2
 38
0
 10
11425.0372328053
 20
788.85583085008
 10
11466.888342973
 20
769.340964434436
  0
LWPOLYLINE
  5
2014A
100
AcDbEntity
  8
0
100
AcDbPolyline
 70
0
 90
2
 38
0
 10
11454.7981031296
 20
788.85583085008
 10
11471.6229772624
 20
168.223110930179
  0
LWPOLYLINE
  5
2014B
100
AcDbEntity
  8
0
100
AcDbPolyline
 70
0
 90
2
 38
0
 10
10931.6876120045
 20
905.677674840321
 10
11549.7921169108
 20
917.583287110552
  0
LWPOLYLINE
  5
2014C
100
AcDbEntity
  8
0
100
AcDbPolyline
 70
0
 90
2
 38
0
 10
11047.4754408532
 20
1236.25433156837
 10
11502.0046997078
 20
1251.52573580405
  0
LWPOLYLINE
  5
2014D
100
AcDbEntity
  8
0
100
AcDbPolyline
 70
0
 90
2
 38
0
 10
12135.4259830902
 20
1534.50524151191
 10
12127.8039861219
 20
1254.873704136
  0
LWPOLYLINE
  5
2014E
100
AcDbEntity
  8
0
100
AcDbPolyline
 70
0
 90
2
 38
0
 10
11874.795465101
 20
1258.61896700982
 10
12226.1963100488
 20
1263.30054560211
  0
LWPOLYLINE
  5
2014F
100
AcDbEntity
  8
0
100
AcDbPolyline
 70
0
 90
2
 38
0
 10
11901.9703007396
 20
1250.19212554378
 10
11933.8310050261
 20
1386.89450791583
  0
LWPOLYLINE
  5
20150
100
AcDbEntity
  8
0
100
AcDbPolyline
 70
0
 90
2
 38
0
 10
11919.7748547729
 20
1370.04082498368
 10
11967.5651833575
 20
1410.30240087712
  0
LWPOLYLINE
  5
20151
100
AcDbEntity
  8
0
100
AcDbPolyline
 70
0
 90
2
 38
0
 10
11958.1941739069
 20
1537.64162606466
 10
11950.6980941918
 20
1381.27661360509
  0
LWPOLYLINE
  5
20152
100
AcDbEntity
  8
0
100
AcDbPolyline
 70
0
 90
2
 38
0
 10
12264.6156291827
 20
1304.498437214
 10
12945.3970845215
 20
1339.98385426612
  0
LWPOLYLINE
  5
20153
100
AcDbEntity
  8
0
100
AcDbPolyline
 70
0
 90
2
 38
0
 10
12266.9134370922
 20
1168.08698253828
 10
12800.2414218613
 20
1176.54573405802
  0
LWPOLYLINE
  5
20154
100
AcDbEntity
  8
0
100
AcDbPolyline
 70
0
 90
2
 38
0
 10
13852.5442802258
 20
3594.60738119588
 10
13839.9904028663
 20
3620.29123717314
  0
LWPOLYLINE
  5
20155
100
AcDbEntity
  8
0
100
AcDbPolyline
 70
0
 90
2
 38
0
 10
13840.5886917803
 20
3601.77478171547
 10
14054.7681167105
 20
4437.58101810998
  0
LWPOLYLINE
  5
20156
100
AcDbEntity
  8
0
100
AcDbPolyline
 70
0
 90
2
 38
0
 10
14021.2814058132
 20
4586.2720938829
 10
14053.8306518426
 20
4411.22072649083
  0
LWPOLYLINE
  5
20157
100
AcDbEntity
  8
0
100
AcDbPolyline
 70
0
 90
2
 38
0
 10
12432.8323453132
 20
4687.89900277503
 10
14054.3983712501
 20
4568.55942680378
  0
LWPOLYLINE
  5
20158
100
AcDbEntity
  8
0
100
AcDbPolyline
 70
0
 90
2
 38
0
 10
12603.5994317051
 20
4225.0482741837
 10
13967.038727809
 20
4043.72873733344
  0
LWPOLYLINE
  5
20159
100
AcDbEntity
  8
0
100
AcDbPolyline
 70
0
 90
2
 38
0
 10
13000.0371661109
 20
4510.1761026929
 10
13771.4521134741
 20
4399.18143696885
  0
LWPOLYLINE
  5
2015A
100
AcDbEntity
  8
0
100
AcDbPolyline
 70
0
 90
2
 38
0
 10
13751.395605791
 20
4385.30717562285
 10
13765.2807123766
 20
4608.83796389692
  0
LWPOLYLINE
  5
2015B
100
AcDbEntity
  8
0
100
AcDbPolyline
 70
0
 90
2
 38
0
 10
14308.6041979446
 20
4102.37050413113
 10
15045.8075003979
 20
4061.53023510251
  0
LWPOLYLINE
  5
2015C
100
AcDbEntity
  8
0
100
AcDbPolyline
 70
0
 90
2
 38
0
 10
14921.561380223
 20
3937.38287771418
 10
15030.2767353761
 20
3971.32942524186
  0
LWPOLYLINE
  5
2015D
100
AcDbEntity
  8
0
100
AcDbPolyline
 70
0
 90
2
 38
0
 10
14957.4761833554
 20
3943.2022940754
 10
15211.7933703952
 20
4321.46320764581
  0
LWPOLYLINE
  5
2015E
100
AcDbEntity
  8
0
100
AcDbPolyline
 70
0
 90
2
 38
0
 10
15107.9312883308
 20
4190.52677073429
 10
15819.8448747166
 20
3442.09486088948
  0
LWPOLYLINE
  5
2015F
100
AcDbEntity
  8
0
100
AcDbPolyline
 70
0
 90
2
 38
0
 10
15003.1936082571
 20
3954.0315888602
 10
15150.6878381688
 20
4161.90891468868
  0
LWPOLYLINE
  5
20160
100
AcDbEntity
  8
0
100
AcDbPolyline
 70
0
 90
2
 38
0
 10
15585.8862511985
 20
3644.52131710248
 10
15965.6679716031
 20
3946.23662395211
  0
LWPOLYLINE
  5
20161
100
AcDbEntity
  8
0
100
AcDbPolyline
 70
0
 90
2
 38
0
 10
15671.4932429305
 20
3538.76536225877
 10
16046.6051072858
 20
3873.14075276139
  0
LWPOLYLINE
  5
20162
100
AcDbEntity
  8
0
100
AcDbPolyline
 70
0
 90
2
 38
0
 10
16006.1361755218
 20
3865.36447392067
 10
16200.6965278506
 20
3739.39076904714
  0
LWPOLYLINE
  5
20163
100
AcDbEntity
  8
0
100
AcDbPolyline
 70
0
 90
2
 38
0
 10
16259.8427002757
 20
3650.74234017503
 10
16253.6167107735
 20
3888.69302296481
  0
LWPOLYLINE
  5
20164
100
AcDbEntity
  8
0
100
AcDbPolyline
 70
0
 90
2
 38
0
 10
16238.7504685966
 20
3839.94193540979
 10
16314.9405966182
 20
4005.86530258931
  0
LWPOLYLINE
  5
20165
100
AcDbEntity
  8
0
100
AcDbPolyline
 70
0
 90
2
 38
0
 10
16269.0310205324
 20
3976.58480984398
 10
16828.9639379965
 20
3941.37422172242
  0
LWPOLYLINE
  5
20166
100
AcDbEntity
  8
0
100
AcDbPolyline
 70
0
 90
2
 38
0
 10
16782.0768655463
 20
3950.15839829383
 10
16978.4146163278
 20
3875.00504733744
  0
LWPOLYLINE
  5
20167
100
AcDbEntity
  8
0
100
AcDbPolyline
 70
0
 90
2
 38
0
 10
16107.2389956967
 20
4072.50384382368
 10
17548.2331299363
 20
3972.42299140489
  0
LWPOLYLINE
  5
20168
100
AcDbEntity
  8
0
100
AcDbPolyline
 70
0
 90
2
 38
0
 10
17472.4913546776
 20
3982.42348722863
 10
18001.05267996
 20
3900.9988045565
  0
LWPOLYLINE
  5
20169
100
AcDbEntity
  8
0
100
AcDbPolyline
 70
0
 90
2
 38
0
 10
17950.1748312132
 20
3898.82978334197
 10
18636.0046222063
 20
3970.14702838892
  0
LWPOLYLINE
  5
2016A
100
AcDbEntity
  8
0
100
AcDbPolyline
 70
0
 90
2
 38
0
 10
14981.6624858053
 20
4511.89780820033
 10
15225.6238885762
 20
4399.42435584578
  0
LWPOLYLINE
  5
2016B
100
AcDbEntity
  8
0
100
AcDbPolyline
 70
0
 90
2
 38
0
 10
15193.5259066911
 20
4401.58532767737
 10
15272.885073559
 20
4420.17020288971
  0
LWPOLYLINE
  5
2016C
100
AcDbEntity
  8
0
100
AcDbPolyline
 70
0
 90
2
 38
0
 10
15240.0250375462
 20
4420.17020288971
 10
15346.6645776349
 20
4384.23919499834
  0
LWPOLYLINE
  5
2016D
100
AcDbEntity
  8
0
100
AcDbPolyline
 70
0
 90
2
 38
0
 10
15329.3047371374
 20
4402.20484268299
 10
15341.0849148428
 20
4357.60062471306
  0
LWPOLYLINE
  5
2016E
100
AcDbEntity
  8
0
100
AcDbPolyline
 70
0
 90
2
 38
0
 10
15311.9448966398
 20
4366.89306231926
 10
15574.8237290517
 20
4373.70772738091
  0
LWPOLYLINE
  5
2016F
100
AcDbEntity
  8
0
100
AcDbPolyline
 70
0
 90
2
 38
0
 10
15562.4234270705
 20
4381.76113497588
 10
15560.5637820882
 20
4250.4271160445
  0
LWPOLYLINE
  5
20170
100
AcDbEntity
  8
0
100
AcDbPolyline
 70
0
 90
2
 38
0
 10
15544.5482720338
 20
4267.60794889613
 10
16189.2227730561
 20
4057.80624559778
  0
LWPOLYLINE
  5
20171
100
AcDbEntity
  8
0
100
AcDbPolyline
 70
0
 90
2
 38
0
 10
16071.7397922843
 20
4079.73333958286
 10
16102.5342030683
 20
4392.41334333684
  0
LWPOLYLINE
  5
20172
100
AcDbEntity
  8
0
100
AcDbPolyline
 70
0
 90
2
 38
0
 10
16320.2640578315
 20
4390.49184064654
 10
17370.7676823813
 20
4306.16161822423
  0
LWPOLYLINE
  5
20173
100
AcDbEntity
  8
0
100
AcDbPolyline
 70
0
 90
2
 38
0
 10
16790.9056301782
 20
4188.09930683294
 10
17327.0794904387
 20
4139.48563374323
  0
LWPOLYLINE
  5
20174
100
AcDbEntity
  8
0
100
AcDbPolyline
 70
0
 90
2
 38
0
 10
17315.1646613353
 20
4224.80794260843
 10
17292.3277842463
 20
3976.77799503366
  0
LWPOLYLINE
  5
20175
100
AcDbEntity
  8
0
100
AcDbPolyline
 70
0
 90
2
 38
0
 10
16650.9045685999
 20
4137.50117337954
 10
16814.7352883848
 20
4192.06794008234
  0
LWPOLYLINE
  5
20176
100
AcDbEntity
  8
0
100
AcDbPolyline
 70
0
 90
2
 38
0
 10
17172.774083328
 20
4020.60429764155
 10
17139.6680355718
 20
3727.98249364918
  0
LWPOLYLINE
  5
20177
100
AcDbEntity
  8
0
100
AcDbPolyline
 70
0
 90
2
 38
0
 10
16606.9288777266
 20
3868.65379674861
 10
16753.5897246619
 20
3849.53938713239
  0
LWPOLYLINE
  5
20178
100
AcDbEntity
  8
0
100
AcDbPolyline
 70
0
 90
2
 38
0
 10
16693.0126081917
 20
3867.06088136759
 10
16957.640453086
 20
3755.56025443249
  0
LWPOLYLINE
  5
20179
100
AcDbEntity
  8
0
100
AcDbPolyline
 70
0
 90
2
 38
0
 10
16885.9040110317
 20
3773.08174866764
 10
17156.9085094248
 20
3750.78179576743
  0
LWPOLYLINE
  5
2017A
100
AcDbEntity
  8
0
100
AcDbPolyline
 70
0
 90
2
 38
0
 10
17114.3674018234
 20
3574.02654650144
 10
18277.6943409313
 20
3330.99497823178
  0
LWPOLYLINE
  5
2017B
100
AcDbEntity
  8
0
100
AcDbPolyline
 70
0
 90
2
 38
0
 10
17367.3497204101
 20
3549.7567946135
 10
17333.7458264044
 20
3391.46654225018
  0
LWPOLYLINE
  5
2017C
100
AcDbEntity
  8
0
100
AcDbPolyline
 70
0
 90
2
 38
0
 10
17333.7458264044
 20
3452.22443431761
 10
17423.3559678045
 20
2836.65075155254
  0
LWPOLYLINE
  5
2017D
100
AcDbEntity
  8
0
100
AcDbPolyline
 70
0
 90
2
 38
0
 10
17427.298706305
 20
2869.59141369531
 10
17493.4110869982
 20
2620.36757014913
  0
LWPOLYLINE
  5
2017E
100
AcDbEntity
  8
0
100
AcDbPolyline
 70
0
 90
2
 38
0
 10
17416.6619737139
 20
2682.06350280281
 10
17405.4327749719
 20
2417.58119152923
  0
LWPOLYLINE
  5
2017F
100
AcDbEntity
  8
0
100
AcDbPolyline
 70
0
 90
2
 38
0
 10
17196.8854177023
 20
2486.50690742
 10
18549.233805689
 20
2222.02459614637
  0
LWPOLYLINE
  5
20180
100
AcDbEntity
  8
0
100
AcDbPolyline
 70
0
 90
2
 38
0
 10
16342.2435330461
 20
2446.53855904657
 10
16367.3811294263
 20
2305.88249227905
  0
LWPOLYLINE
  5
20181
100
AcDbEntity
  8
0
100
AcDbPolyline
 70
0
 90
2
 38
0
 10
16351.2935626779
 20
2335.01838361012
 10
16879.8643499505
 20
1771.95398778206
  0
LWPOLYLINE
  5
20182
100
AcDbEntity
  8
0
100
AcDbPolyline
 70
0
 90
2
 38
0
 10
15967.2917946776
 20
1632.0936600102
 10
16836.8421365435
 20
1847.69781847007
  0
LWPOLYLINE
  5
20183
100
AcDbEntity
  8
0
100
AcDbPolyline
 70
0
 90
2
 38
0
 10
15903.0048502331
 20
1597.79006485513
 10
15866.0914432199
 20
2200.5367684855
  0
LWPOLYLINE
  5
20184
100
AcDbEntity
  8
0
100
AcDbPolyline
 70
0
 90
2
 38
0
 10
15666.9937027034
 20
1967.53214401199
 10
15807.4409335082
 20
1548.14118362841
  0
LWPOLYLINE
  5
20185
100
AcDbEntity
  8
0
100
AcDbPolyline
 70
0
 90
2
 38
0
 10
15674.799116711
 20
2374.6345714815
 10
15873.8801167834
 20
2181.77135711379
  0
LWPOLYLINE
  5
20186
100
AcDbEntity
  8
0
100
AcDbPolyline
 70
0
 90
2
 38
0
 10
16380.2567144501
 20
1739.05242264201
 10
16451.3533804029
 20
1568.55729345127
  0
LWPOLYLINE
  5
20187
100
AcDbEntity
  8
0
100
AcDbPolyline
 70
0
 90
2
 38
0
 10
15945.5517805977
 20
1437.64126747497
 10
16482.8392443114
 20
1583.7801139116
  0
LWPOLYLINE
  5
20188
100
AcDbEntity
  8
0
100
AcDbPolyline
 70
0
 90
2
 38
0
 10
16861.6267279074
 20
1840.90787651303
 10
16791.7717661973
 20
1727.28221249138
  0
LWPOLYLINE
  5
20189
100
AcDbEntity
  8
0
100
AcDbPolyline
 70
0
 90
2
 38
0
 10
16790.1472152773
 20
1758.12342308613
 10
16814.5154790758
 20
1659.1068140784
  0
LWPOLYLINE
  5
2018A
100
AcDbEntity
  8
0
100
AcDbPolyline
 70
0
 90
2
 38
0
 10
16814.5154790758
 20
1686.70153606136
 10
16731.6648378518
 20
1568.20628286112
  0
LWPOLYLINE
  5
2018B
100
AcDbEntity
  8
0
100
AcDbPolyline
 70
0
 90
2
 38
0
 10
16846.0581149252
 20
1788.40893878258
 10
16970.1259129784
 20
1742.6832692874
  0
LWPOLYLINE
  5
2018C
100
AcDbEntity
  8
0
100
AcDbPolyline
 70
0
 90
2
 38
0
 10
16937.5832175575
 20
1775.19932648202
 10
16979.2778409654
 20
1661.39283882303
  0
LWPOLYLINE
  5
2018D
100
AcDbEntity
  8
0
100
AcDbPolyline
 70
0
 90
2
 38
0
 10
16980.2953688265
 20
1685.77988171892
 10
16798.2590521959
 20
1264.71292482369
  0
LWPOLYLINE
  5
2018E
100
AcDbEntity
  8
0
100
AcDbPolyline
 70
0
 90
2
 38
0
 10
16292.4283385749
 20
973.087231965619
 10
16823.0640232309
 20
1287.95063083217
  0
LWPOLYLINE
  5
2018F
100
AcDbEntity
  8
0
100
AcDbPolyline
 70
0
 90
2
 38
0
 10
16266.305239531
 20
999.189943331876
 10
16372.4323764621
 20
718.586155492405
  0
LWPOLYLINE
  5
20190
100
AcDbEntity
  8
0
100
AcDbPolyline
 70
0
 90
2
 38
0
 10
16298.9592952973
 20
744.688866858603
 10
16436.108658621
 20
803.420039302145
  0
LWPOLYLINE
  5
20191
100
AcDbEntity
  8
0
100
AcDbPolyline
 70
0
 90
2
 38
0
 10
16377.3300481199
 20
818.102688674
 10
16480.1920706127
 20
648.435496010468
  0
LWPOLYLINE
  5
20192
100
AcDbEntity
  8
0
100
AcDbPolyline
 70
0
 90
2
 38
0
 10
15705.8431784653
 20
1057.02849670697
 10
15862.9274992913
 20
732.647277512937
  0
LWPOLYLINE
  5
20193
100
AcDbEntity
  8
0
100
AcDbPolyline
 70
0
 90
2
 38
0
 10
15632.5367738956
 20
688.175586882979
 10
15891.7261580044
 20
795.430739292467
  0
LWPOLYLINE
  5
20194
100
AcDbEntity
  8
0
100
AcDbPolyline
 70
0
 90
2
 38
0
 10
15768.6766156575
 20
784.96682899585
 10
15729.4057174124
 20
423.962067502783
  0
LWPOLYLINE
  5
20195
100
AcDbEntity
  8
0
100
AcDbPolyline
 70
0
 90
2
 38
0
 10
15700.6070586992
 20
515.521210728388
 10
15807.948241748
 20
371.642516019871
  0
LWPOLYLINE
  5
20196
100
AcDbEntity
  8
0
100
AcDbPolyline
 70
0
 90
2
 38
0
 10
15779.1488551896
 20
434.425977799401
 10
15810.566301631
 20
188.523942090745
  0
LWPOLYLINE
  5
20197
100
AcDbEntity
  8
0
100
AcDbPolyline
 70
0
 90
2
 38
0
 10
16941.7930753176
 20
1683.54761535302
 10
17084.9384289989
 20
1911.98536494066
  0
LWPOLYLINE
  5
20198
100
AcDbEntity
  8
0
100
AcDbPolyline
 70
0
 90
2
 38
0
 10
17049.9246984646
 20
1889.34762543644
 10
17148.7879383614
 20
1923.30452217074
  0
LWPOLYLINE
  5
20199
100
AcDbEntity
  8
0
100
AcDbPolyline
 70
0
 90
2
 38
0
 10
17122.0126898442
 20
1918.15952910564
 10
17503.0477600177
 20
1795.70857916417
  0
LWPOLYLINE
  5
2019A
100
AcDbEntity
  8
0
100
AcDbPolyline
 70
0
 90
2
 38
0
 10
17558.8291031853
 20
2162.18634607573
 10
17310.8645507463
 20
1276.55557942047
  0
LWPOLYLINE
  5
2019B
100
AcDbEntity
  8
0
100
AcDbPolyline
 70
0
 90
2
 38
0
 10
16843.9531860451
 20
1693.01282721362
 10
17382.088589643
 20
1363.5372110756
  0
LWPOLYLINE
  5
2019C
100
AcDbEntity
  8
0
100
AcDbPolyline
 70
0
 90
2
 38
0
 10
17268.6575241808
 20
1389.89520287106
 10
18057.395919772
 20
1381.98783408024
  0
LWPOLYLINE
  5
2019D
100
AcDbEntity
  8
0
100
AcDbPolyline
 70
0
 90
2
 38
0
 10
17888.569269201
 20
1395.16668623895
 10
18669.3930739753
 20
1208.02457076992
  0
LWPOLYLINE
  5
2019E
100
AcDbEntity
  8
0
100
AcDbPolyline
 70
0
 90
2
 38
0
 10
17316.4172832588
 20
1344.15343461011
 10
17429.8483487209
 20
606.127651991788
  0
LWPOLYLINE
  5
2019F
100
AcDbEntity
  8
0
100
AcDbPolyline
 70
0
 90
2
 38
0
 10
17453.6743677008
 20
1836.14666652563
 10
18587.4318598231
 20
1594.61774555728
  0
LWPOLYLINE
  5
201A0
100
AcDbEntity
  8
0
100
AcDbPolyline
 70
0
 90
2
 38
0
 10
18233.951560584
 20
2703.83708355675
 10
18334.4007755949
 20
2112.63003275241
  0
LWPOLYLINE
  5
201A1
100
AcDbEntity
  8
0
100
AcDbPolyline
 70
0
 90
2
 38
0
 10
18327.7533636095
 20
2170.74456496991
 10
18302.8581397457
 20
1472.71357869735
  0
LWPOLYLINE
  5
201A2
100
AcDbEntity
  8
0
100
AcDbPolyline
 70
0
 90
2
 38
0
 10
18272.9466054247
 20
1534.14905631845
 10
18346.0637701919
 20
1441.16574727488
  0
LWPOLYLINE
  5
201A3
100
AcDbEntity
  8
0
100
AcDbPolyline
 70
0
 90
2
 38
0
 10
18332.7696740665
 20
1479.35518202663
 10
18297.8185382361
 20
1163.25304062682
  0
LWPOLYLINE
  5
201A4
100
AcDbEntity
  8
0
100
AcDbPolyline
 70
0
 90
2
 38
0
 10
12644.0610850151
 20
3508.76761200116
 10
13244.2125554276
 20
3458.18040271028
  0
LWPOLYLINE
  5
201A5
100
AcDbEntity
  8
0
100
AcDbPolyline
 70
0
 90
2
 38
0
 10
13233.66534782
 20
3568.84015660995
 10
13194.6331828642
 20
3268.31012139283
  0
LWPOLYLINE
  5
201A6
100
AcDbEntity
  8
0
100
AcDbPolyline
 70
0
 90
2
 38
0
 10
13480.4697147006
 20
3649.82298565627
 10
13465.7031873426
 20
3530.7320781211
  0
LWPOLYLINE
  5
201A7
100
AcDbEntity
  8
0
100
AcDbPolyline
 70
0
 90
2
 38
0
 10
14434.6102482828
 20
2738.58885685279
 10
14517.6646862172
 20
2766.47278166434
  0
LWPOLYLINE
  5
201A8
100
AcDbEntity
  8
0
100
AcDbPolyline
 70
0
 90
2
 38
0
 10
14486.4364795781
 20
2799.00378771289
 10
14569.5062022658
 20
2506.13590258604
  0
LWPOLYLINE
  5
201A9
100
AcDbEntity
  8
0
100
AcDbPolyline
 70
0
 90
2
 38
0
 10
14544.9224962307
 20
2514.10249183682
 10
14704.3868714957
 20
2575.18149678654
  0
LWPOLYLINE
  5
201AA
100
AcDbEntity
  8
0
100
AcDbPolyline
 70
0
 90
2
 38
0
 10
14475.1563316586
 20
2779.66370789747
 10
14570.8352479558
 20
2807.54734523105
  0
LWPOLYLINE
  5
201AB
100
AcDbEntity
  8
0
100
AcDbPolyline
 70
0
 90
2
 38
0
 10
14549.5734282997
 20
2816.84208266094
 10
14641.2652075274
 20
2534.68361400924
  0
LWPOLYLINE
  5
201AC
100
AcDbEntity
  8
0
100
AcDbPolyline
 70
0
 90
2
 38
0
 10
14491.7672192454
 20
2740.49339834333
 10
14574.1571343349
 20
2765.72160175268
  0
LWPOLYLINE
  5
201AD
100
AcDbEntity
  8
0
100
AcDbPolyline
 70
0
 90
2
 38
0
 10
14500.4052883841
 20
2705.3063834146
 10
14670.500573477
 20
2751.77978308586
  0
LWPOLYLINE
  5
201AE
100
AcDbEntity
  8
0
100
AcDbPolyline
 70
0
 90
2
 38
0
 10
14512.3645160565
 20
2648.87474717986
 10
14689.1043017533
 20
2698.66736738698
  0
LWPOLYLINE
  5
201AF
100
AcDbEntity
  8
0
100
AcDbPolyline
 70
0
 90
2
 38
0
 10
14585.4525670079
 20
2638.25243652682
 10
14720.3332362376
 20
2674.7670246787
  0
LWPOLYLINE
  5
201B0
100
AcDbEntity
  8
0
100
AcDbPolyline
 70
0
 90
2
 38
0
 10
14518.3444938153
 20
2565.22297274508
 10
14628.6407291647
 20
2607.712790313
  0
LWPOLYLINE
  5
201B1
100
AcDbEntity
  8
0
100
AcDbPolyline
 70
0
 90
2
 38
0
 10
14689.1043017533
 20
2547.96164606448
 10
14697.0778480469
 20
2691.36456474778
  0
LWPOLYLINE
  5
201B2
100
AcDbEntity
  8
0
100
AcDbPolyline
 70
0
 90
2
 38
0
 10
14600.0706139053
 20
2618.33538844396
 10
14715.0177813236
 20
2645.55523916602
  0
LWPOLYLINE
  5
201B3
100
AcDbEntity
  8
0
100
AcDbPolyline
 70
0
 90
2
 38
0
 10
14608.7079551986
 20
2576.50935748761
 10
14705.0506664952
 20
2609.70443762571
  0
LWPOLYLINE
  5
201B4
100
AcDbEntity
  8
0
100
AcDbPolyline
 70
0
 90
2
 38
0
 10
14404.7263720869
 20
2814.18636125867
 10
14563.5262245069
 20
2811.53092733445
  0
LWPOLYLINE
  5
201B5
100
AcDbEntity
  8
0
100
AcDbPolyline
 70
0
 90
2
 38
0
 10
14549.5734282997
 20
2790.28601855045
 10
14699.7352115812
 20
2796.2612479665
  0
LWPOLYLINE
  5
201B6
100
AcDbEntity
  8
0
100
AcDbPolyline
 70
0
 90
2
 38
0
 10
14633.2916612338
 20
2852.69288420124
 10
14647.2451852863
 20
2785.63864983554
  0
LWPOLYLINE
  5
201B7
100
AcDbEntity
  8
0
100
AcDbPolyline
 70
0
 90
2
 38
0
 10
14681.131483305
 20
2805.5556979184
 10
14676.480551236
 20
2684.06176210858
  0
LWPOLYLINE
  5
201B8
100
AcDbEntity
  8
0
100
AcDbPolyline
 70
0
 90
2
 38
0
 10
14815.3469018445
 20
2839.414852146
 10
14824.6494938281
 20
2780.32749450905
  0
LWPOLYLINE
  5
201B9
100
AcDbEntity
  8
0
100
AcDbPolyline
 70
0
 90
2
 38
0
 10
14796.7431735683
 20
2797.58882118965
 10
14922.3212508146
 20
2799.58075598028
  0
LWPOLYLINE
  5
201BA
100
AcDbEntity
  8
0
100
AcDbPolyline
 70
0
 90
2
 38
0
 10
14901.7239540035
 20
2808.87520593219
 10
14911.0258181416
 20
2699.99522808805
  0
LWPOLYLINE
  5
201BB
100
AcDbEntity
  8
0
100
AcDbPolyline
 70
0
 90
2
 38
0
 10
14737.6515895477
 20
2847.58296344732
 10
14729.138709817
 20
2621.11558780324
  0
LWPOLYLINE
  5
201BC
100
AcDbEntity
  8
0
100
AcDbPolyline
 70
0
 90
2
 38
0
 10
14852.4167956175
 20
2564.08944714547
 10
14900.4371233466
 20
2470.1252632995
  0
LWPOLYLINE
  5
201BD
100
AcDbEntity
  8
0
100
AcDbPolyline
 70
0
 90
2
 38
0
 10
14873.7594061123
 20
2470.79163721274
 10
14931.7839687848
 20
2510.10999791668
  0
LWPOLYLINE
  5
201BE
100
AcDbEntity
  8
0
100
AcDbPolyline
 70
0
 90
2
 38
0
 10
14909.774651909
 20
2512.77578104759
 10
14929.7831217961
 20
2451.46564381738
  0
LWPOLYLINE
  5
201BF
100
AcDbEntity
  8
0
100
AcDbPolyline
 70
0
 90
2
 38
0
 10
14766.3811029483
 20
2473.45713286568
 10
14887.7653350332
 20
2534.10089618259
  0
LWPOLYLINE
  5
201C0
100
AcDbEntity
  8
0
100
AcDbPolyline
 70
0
 90
2
 38
0
 10
14297.7563901892
 20
2166.63995464501
 10
14671.7168031308
 20
2187.99209270836
  0
LWPOLYLINE
  5
201C1
100
AcDbEntity
  8
0
100
AcDbPolyline
 70
0
 90
2
 38
0
 10
14483.4006364389
 20
2235.36702326487
 10
14527.4745864405
 20
2073.22485370428
  0
LWPOLYLINE
  5
201C2
100
AcDbEntity
  8
0
100
AcDbPolyline
 70
0
 90
2
 38
0
 10
14289.0746503269
 20
2137.2809804164
 10
14685.0727661147
 20
2163.30377290951
  0
LWPOLYLINE
  5
201C3
100
AcDbEntity
  8
0
100
AcDbPolyline
 70
0
 90
2
 38
0
 10
14651.6835865002
 20
2124.60320234339
 10
14778.5630513114
 20
2190.66103809682
  0
LWPOLYLINE
  5
201C4
100
AcDbEntity
  8
0
100
AcDbPolyline
 70
0
 90
2
 38
0
 10
14750.5155290451
 20
2240.70491404174
 10
14756.5260763107
 20
2155.29693674418
  0
LWPOLYLINE
  5
201C5
100
AcDbEntity
  8
0
100
AcDbPolyline
 70
0
 90
2
 38
0
 10
14183.4912139052
 20
2189.73880879843
 10
14241.0652402787
 20
2029.19501670008
  0
LWPOLYLINE
  5
201C6
100
AcDbEntity
  8
0
100
AcDbPolyline
 70
0
 90
2
 38
0
 10
14195.5414222518
 20
2127.52800311695
 10
14320.7322857485
 20
2155.62322422973
  0
LWPOLYLINE
  5
201C7
100
AcDbEntity
  8
0
100
AcDbPolyline
 70
0
 90
2
 38
0
 10
14204.9138873933
 20
2094.08137976314
 10
14322.7404111911
 20
2122.17660087592
  0
LWPOLYLINE
  5
201C8
100
AcDbEntity
  8
0
100
AcDbPolyline
 70
0
 90
2
 38
0
 10
14208.930866124
 20
2067.32408108009
 10
14317.3849247805
 20
2083.37857528107
  0
LWPOLYLINE
  5
201C9
100
AcDbEntity
  8
0
100
AcDbPolyline
 70
0
 90
2
 38
0
 10
14212.9478448547
 20
2045.24922342313
 10
14321.4019035111
 20
2059.96579519444
  0
LWPOLYLINE
  5
201CA
100
AcDbEntity
  8
0
100
AcDbPolyline
 70
0
 90
2
 38
0
 10
14200.8969086625
 20
1977.01805428578
 10
14322.7404111911
 20
1988.38981998269
  0
LWPOLYLINE
  5
201CB
100
AcDbEntity
  8
0
100
AcDbPolyline
 70
0
 90
2
 38
0
 10
14165.4151735398
 20
2191.74569244304
 10
14218.972949028
 20
2008.45808147296
  0
LWPOLYLINE
  5
201CC
100
AcDbEntity
  8
0
100
AcDbPolyline
 70
0
 90
2
 38
0
 10
14213.6174626173
 20
2037.89093753754
 10
14220.9832580069
 20
1822.28534168785
  0
LWPOLYLINE
  5
201CD
100
AcDbEntity
  8
0
100
AcDbPolyline
 70
0
 90
2
 38
0
 10
14002.0662874058
 20
1807.56876991654
 10
14325.4203379326
 20
1847.03575672628
  0
LWPOLYLINE
  5
201CE
100
AcDbEntity
  8
0
100
AcDbPolyline
 70
0
 90
2
 38
0
 10
14072.3419437539
 20
1972.87377200229
 10
14229.6671814052
 20
1995.61759087408
  0
LWPOLYLINE
  5
201CF
100
AcDbEntity
  8
0
100
AcDbPolyline
 70
0
 90
2
 38
0
 10
14052.2577779457
 20
2164.18863007292
 10
14066.9864573432
 20
2041.77390235459
  0
LWPOLYLINE
  5
201D0
100
AcDbEntity
  8
0
100
AcDbPolyline
 70
0
 90
2
 38
0
 10
13988.6586473988
 20
2042.44286356942
 10
14135.2721843835
 20
2059.16631898534
  0
LWPOLYLINE
  5
201D1
100
AcDbEntity
  8
0
100
AcDbPolyline
 70
0
 90
2
 38
0
 10
14040.8771873617
 20
2098.63330579503
 10
14178.7878769677
 20
2114.68779999606
  0
LWPOLYLINE
  5
201D2
100
AcDbEntity
  8
0
100
AcDbPolyline
 70
0
 90
2
 38
0
 10
14139.9587808769
 20
2189.60829380422
 10
14192.1773208398
 20
1978.2254617213
  0
LWPOLYLINE
  5
201D3
100
AcDbEntity
  8
0
100
AcDbPolyline
 70
0
 90
2
 38
0
 10
14109.8325321648
 20
1835.07379877573
 10
14131.9044437444
 20
1669.47211943445
  0
LWPOLYLINE
  5
201D4
100
AcDbEntity
  8
0
100
AcDbPolyline
 70
0
 90
2
 38
0
 10
14027.4673638187
 20
1724.32463923027
 10
14147.9716308218
 20
1740.3791334313
  0
LWPOLYLINE
  5
201D5
100
AcDbEntity
  8
0
100
AcDbPolyline
 70
0
 90
2
 38
0
 10
14061.6105912615
 20
1652.7489514965
 10
14146.6331231419
 20
1690.87801587646
  0
LWPOLYLINE
  5
201D6
100
AcDbEntity
  8
0
100
AcDbPolyline
 70
0
 90
2
 38
0
 10
14103.1174305576
 20
1678.16832774982
 10
14125.8793395711
 20
1636.69445729547
  0
LWPOLYLINE
  5
201D7
100
AcDbEntity
  8
0
100
AcDbPolyline
 70
0
 90
2
 38
0
 10
14041.5264254534
 20
1624.65373038367
 10
14202.1990240729
 20
1689.54009344673
  0
LWPOLYLINE
  5
201D8
100
AcDbEntity
  8
0
100
AcDbPolyline
 70
0
 90
2
 38
0
 10
14128.0890781879
 20
1516.16213526466
 10
14342.8595135781
 20
1589.93041740579
  0
LWPOLYLINE
  5
201D9
100
AcDbEntity
  8
0
100
AcDbPolyline
 70
0
 90
2
 38
0
 10
14132.1162467542
 20
1528.23333484033
 10
14257.3835340171
 20
1217.82066976349
  0
LWPOLYLINE
  5
201DA
100
AcDbEntity
  8
0
100
AcDbPolyline
 70
0
 90
2
 38
0
 10
14092.0658260918
 20
1212.45748092607
 10
14388.3498507169
 20
1268.23452984396
  0
LWPOLYLINE
  5
201DB
100
AcDbEntity
  8
0
100
AcDbPolyline
 70
0
 90
2
 38
0
 10
14322.8663284443
 20
1370.13454279891
 10
14626.6653567647
 20
1452.72724842594
  0
LWPOLYLINE
  5
201DC
100
AcDbEntity
  8
0
100
AcDbPolyline
 70
0
 90
2
 38
0
 10
14574.0639701245
 20
1559.99073769624
 10
14617.209189403
 20
967.326748586376
  0
LWPOLYLINE
  5
201DD
100
AcDbEntity
  8
0
100
AcDbPolyline
 70
0
 90
2
 38
0
 10
14309.4754288815
 20
1166.59209714195
 10
14627.5242143299
 20
1245.61116423778
  0
LWPOLYLINE
  5
201DE
100
AcDbEntity
  8
0
100
AcDbPolyline
 70
0
 90
2
 38
0
 10
14130.6809356367
 20
1250.7644941638
 10
14237.2702543933
 20
776.650379066763
  0
LWPOLYLINE
  5
201DF
100
AcDbEntity
  8
0
100
AcDbPolyline
 70
0
 90
2
 38
0
 10
13898.5906912457
 20
955.302120440348
 10
14012.0574211322
 20
601.434286803123
  0
LWPOLYLINE
  5
201E0
100
AcDbEntity
  8
0
100
AcDbPolyline
 70
0
 90
2
 38
0
 10
13759.3371268874
 20
565.360402365157
 10
14402.3113810688
 20
707.938259300892
  0
LWPOLYLINE
  5
201E1
100
AcDbEntity
  8
0
100
AcDbPolyline
 70
0
 90
2
 38
0
 10
14272.1267703224
 20
718.295227796014
 10
14308.3203382408
 20
146.546697726997
  0
LWPOLYLINE
  5
201E2
100
AcDbEntity
  8
0
100
AcDbPolyline
 70
0
 90
2
 38
0
 10
14747.888007172
 20
1025.12735487061
 10
14789.2521887709
 20
558.429021251388
  0
LWPOLYLINE
  5
201E3
100
AcDbEntity
  8
0
100
AcDbPolyline
 70
0
 90
2
 38
0
 10
14685.510929042
 20
1469.48031407176
 10
14699.0532204469
 20
1304.40126966324
  0
LWPOLYLINE
  5
201E4
100
AcDbEntity
  8
0
100
AcDbPolyline
 70
0
 90
2
 38
0
 10
14554.154487211
 20
1313.19665787515
 10
14821.6071000802
 20
1327.40410617774
  0
LWPOLYLINE
  5
201E5
100
AcDbEntity
  8
0
100
AcDbPolyline
 70
0
 90
2
 38
0
 10
14668.5834287086
 20
1441.74156563042
 10
14785.7214107636
 20
1481.65816797089
  0
LWPOLYLINE
  5
201E6
100
AcDbEntity
  8
0
100
AcDbPolyline
 70
0
 90
2
 38
0
 10
14747.1266808898
 20
1484.36448549421
 10
14855.4621007469
 20
1439.03553558502
  0
LWPOLYLINE
  5
201E7
100
AcDbEntity
  8
0
100
AcDbPolyline
 70
0
 90
2
 38
0
 10
14827.701349566
 20
1464.06796650309
 10
14828.3782457827
 20
1383.55803870235
  0
LWPOLYLINE
  5
201E8
100
AcDbEntity
  8
0
100
AcDbPolyline
 70
0
 90
2
 38
0
 10
14811.4507454493
 20
1405.88443957496
 10
14974.6307714517
 20
1347.02418952703
  0
LWPOLYLINE
  5
201E9
100
AcDbEntity
  8
0
100
AcDbPolyline
 70
0
 90
2
 38
0
 10
14041.9311074925
 20
1377.07196094986
 10
14343.0028991208
 20
1486.36648201349
  0
LWPOLYLINE
  5
201EA
100
AcDbEntity
  8
0
100
AcDbPolyline
 70
0
 90
2
 38
0
 10
13951.1549577708
 20
2254.8936762769
 10
14273.2017979698
 20
2297.0908412807
  0
LWPOLYLINE
  5
201EB
100
AcDbEntity
  8
0
100
AcDbPolyline
 70
0
 90
2
 38
0
 10
14055.9763400648
 20
2338.96315618872
 10
14095.3163836225
 20
2145.41114462685
  0
LWPOLYLINE
  5
201EC
100
AcDbEntity
  8
0
100
AcDbPolyline
 70
0
 90
2
 38
0
 10
14020.4844151065
 20
2268.46407341829
 10
14042.7200918999
 20
2186.42878755735
  0
LWPOLYLINE
  5
201ED
100
AcDbEntity
  8
0
100
AcDbPolyline
 70
0
 90
2
 38
0
 10
13958.481449509
 20
2192.83782121626
 10
14049.1345933592
 20
2211.63744246535
  0
LWPOLYLINE
  5
201EE
100
AcDbEntity
  8
0
100
AcDbPolyline
 70
0
 90
2
 38
0
 10
13975.5858162732
 20
2219.3283403517
 10
14038.8719733007
 20
2240.26449780574
  0
LWPOLYLINE
  5
201EF
100
AcDbEntity
  8
0
100
AcDbPolyline
 70
0
 90
2
 38
0
 10
14019.2019515219
 20
2189.84690051171
 10
14172.2860340612
 20
2221.46458907868
  0
LWPOLYLINE
  5
201F0
100
AcDbEntity
  8
0
100
AcDbPolyline
 70
0
 90
2
 38
0
 10
14168.0099423701
 20
2296.6636490309
 10
14155.181667297
 20
2203.94654457906
  0
LWPOLYLINE
  5
201F1
100
AcDbEntity
  8
0
100
AcDbPolyline
 70
0
 90
2
 38
0
 10
14099.5924753135
 20
2349.21749505185
 10
14132.9459905035
 20
2268.46407341829
  0
LWPOLYLINE
  5
201F2
100
AcDbEntity
  8
0
100
AcDbPolyline
 70
0
 90
2
 38
0
 10
14217.7472573841
 20
2294.93906874378
 10
14223.9630570508
 20
2259.18600971019
  0
LWPOLYLINE
  5
201F3
100
AcDbEntity
  8
0
100
AcDbPolyline
 70
0
 90
2
 38
0
 10
14187.0052514685
 20
2260.8645935235
 10
14282.7591358413
 20
2274.79635046172
  0
LWPOLYLINE
  5
201F4
100
AcDbEntity
  8
0
100
AcDbPolyline
 70
0
 90
2
 38
0
 10
14273.6879986931
 20
2279.8321019017
 10
14273.0161973942
 20
2233.83994033688
  0
LWPOLYLINE
  5
201F5
100
AcDbEntity
  8
0
100
AcDbPolyline
 70
0
 90
2
 38
0
 10
14184.1491861416
 20
2222.42562790174
 10
14281.0792686713
 20
2242.90412044211
  0
LWPOLYLINE
  5
201F6
100
AcDbEntity
  8
0
100
AcDbPolyline
 70
0
 90
2
 38
0
 10
14261.9282006586
 20
2243.40749435156
 10
14282.712553736
 20
2199.92846512038
  0
LWPOLYLINE
  5
201F7
100
AcDbEntity
  8
0
100
AcDbPolyline
 70
0
 90
2
 38
0
 10
14290.3833163457
 20
2211.29821847158
 10
14284.8953620733
 20
2006.25715020474
  0
LWPOLYLINE
  5
201F8
100
AcDbEntity
  8
0
100
AcDbPolyline
 70
0
 90
2
 38
0
 10
13614.3772546383
 20
2353.52966446447
 10
13745.1499644632
 20
2366.94281116128
  0
LWPOLYLINE
  5
201F9
100
AcDbEntity
  8
0
100
AcDbPolyline
 70
0
 90
2
 38
0
 10
13713.5396389923
 20
2372.56760494306
 10
13740.8200122131
 20
2313.72345366096
  0
LWPOLYLINE
  5
201FA
100
AcDbEntity
  8
0
100
AcDbPolyline
 70
0
 90
2
 38
0
 10
13720.4679992999
 20
2315.45435846318
 10
13855.5000603717
 20
2357.99678449793
  0
LWPOLYLINE
  5
201FB
100
AcDbEntity
  8
0
100
AcDbPolyline
 70
0
 90
2
 38
0
 10
13623.8712699605
 20
2367.77132264443
 10
13636.3698310701
 20
2263.70228847495
  0
LWPOLYLINE
  5
201FC
100
AcDbEntity
  8
0
100
AcDbPolyline
 70
0
 90
2
 38
0
 10
13649.5620288403
 20
2300.47330696794
 10
13667.420443433
 20
2173.84041513014
  0
LWPOLYLINE
  5
201FD
100
AcDbEntity
  8
0
100
AcDbPolyline
 70
0
 90
2
 38
0
 10
13533.6053398602
 20
2217.21796464117
 10
13876.614855258
 20
2262.31463235797
  0
LWPOLYLINE
  5
201FE
100
AcDbEntity
  8
0
100
AcDbPolyline
 70
0
 90
2
 38
0
 10
13514.8582260413
 20
2291.45397342456
 10
13594.7086885504
 20
2167.95861605142
  0
LWPOLYLINE
  5
201FF
100
AcDbEntity
  8
0
100
AcDbPolyline
 70
0
 90
2
 38
0
 10
13574.0924677592
 20
2181.45311901113
 10
13672.5903292681
 20
2205.65013897495
  0
LWPOLYLINE
  5
20200
100
AcDbEntity
  8
0
100
AcDbPolyline
 70
0
 90
2
 38
0
 10
13651.9115137729
 20
2181.72478568414
 10
13728.376039508
 20
2198.53218466457
  0
LWPOLYLINE
  5
20201
100
AcDbEntity
  8
0
100
AcDbPolyline
 70
0
 90
2
 38
0
 10
13711.7782531383
 20
2201.25086374022
 10
13732.4577964789
 20
2140.62233675522
  0
LWPOLYLINE
  5
20202
100
AcDbEntity
  8
0
100
AcDbPolyline
 70
0
 90
2
 38
0
 10
13667.9714223964
 20
2144.4288324347
 10
13877.4839026587
 20
2209.67914259614
  0
LWPOLYLINE
  5
20203
100
AcDbEntity
  8
0
100
AcDbPolyline
 70
0
 90
2
 38
0
 10
13680.7684001175
 20
2197.41619522061
 10
13695.4621429361
 20
2104.16236941586
  0
LWPOLYLINE
  5
20204
100
AcDbEntity
  8
0
100
AcDbPolyline
 70
0
 90
2
 38
0
 10
13620.6359971833
 20
2142.22531386482
 10
13661.7221418415
 20
2186.54119144002
  0
LWPOLYLINE
  5
20205
100
AcDbEntity
  8
0
100
AcDbPolyline
 70
0
 90
2
 38
0
 10
13626.6217977053
 20
2159.89715907356
 10
13629.342483789
 20
2095.46242388699
  0
LWPOLYLINE
  5
20206
100
AcDbEntity
  8
0
100
AcDbPolyline
 70
0
 90
2
 38
0
 10
13493.2950783921
 20
2120.74697297666
 10
13661.7221418415
 20
2131.62197675725
  0
LWPOLYLINE
  5
20207
100
AcDbEntity
  8
0
100
AcDbPolyline
 70
0
 90
2
 38
0
 10
13645.9402701587
 20
2128.35938937968
 10
13679.6802712532
 20
2150.38163856976
  0
LWPOLYLINE
  5
20208
100
AcDbEntity
  8
0
100
AcDbPolyline
 70
0
 90
2
 38
0
 10
13766.6789033789
 20
2256.30318071885
 10
13787.7092681995
 20
2170.33778365527
  0
LWPOLYLINE
  5
20209
100
AcDbEntity
  8
0
100
AcDbPolyline
 70
0
 90
2
 38
0
 10
13738.8206209152
 20
2188.07661122887
 10
13845.338610823
 20
2223.28144979116
  0
LWPOLYLINE
  5
2020A
100
AcDbEntity
  8
0
100
AcDbPolyline
 70
0
 90
2
 38
0
 10
13813.9291706808
 20
2261.76123728335
 10
13823.2157500658
 20
2202.81359393534
  0
LWPOLYLINE
  5
2020B
100
AcDbEntity
  8
0
100
AcDbPolyline
 70
0
 90
2
 38
0
 10
13814.8360660421
 20
2196.67593947146
 10
13826.2086503267
 20
2149.91132462583
  0
LWPOLYLINE
  5
2020C
100
AcDbEntity
  8
0
100
AcDbPolyline
 70
0
 90
2
 38
0
 10
13792.9657676365
 20
2157.77815902419
 10
13884.8205842324
 20
2170.01580833917
  0
LWPOLYLINE
  5
2020D
100
AcDbEntity
  8
0
100
AcDbPolyline
 70
0
 90
2
 38
0
 10
13856.8269225254
 20
2232.95134595991
 10
13939.4963302462
 20
2243.00358781661
  0
LWPOLYLINE
  5
2020E
100
AcDbEntity
  8
0
100
AcDbPolyline
 70
0
 90
2
 38
0
 10
13923.3119600604
 20
2251.30767619336
 10
13944.307388302
 20
2158.65237950312
  0
LWPOLYLINE
  5
2020F
100
AcDbEntity
  8
0
100
AcDbPolyline
 70
0
 90
2
 38
0
 10
13855.0771821977
 20
2144.66657670826
 10
13949.9940443671
 20
2170.45277483965
  0
LWPOLYLINE
  5
20210
100
AcDbEntity
  8
0
100
AcDbPolyline
 70
0
 90
2
 38
0
 10
13461.4685828391
 20
2269.51595527702
 10
13470.6882004477
 20
2326.54755801603
  0
LWPOLYLINE
  5
20211
100
AcDbEntity
  8
0
100
AcDbPolyline
 70
0
 90
2
 38
0
 10
13491.3240730646
 20
2246.70342917257
 10
13487.3726004193
 20
2340.58625675563
  0
LWPOLYLINE
  5
20212
100
AcDbEntity
  8
0
100
AcDbPolyline
 70
0
 90
2
 38
0
 10
13478.5918735835
 20
2334.0055987541
 10
13566.8423997873
 20
2336.19934307324
  0
LWPOLYLINE
  5
20213
100
AcDbEntity
  8
0
100
AcDbPolyline
 70
0
 90
2
 38
0
 10
13539.6202541981
 20
2347.16691475723
 10
13554.1094724608
 20
2306.80587148928
  0
LWPOLYLINE
  5
20214
100
AcDbEntity
  8
0
100
AcDbPolyline
 70
0
 90
2
 38
0
 10
13538.3035818799
 20
2315.14129496383
 10
13593.624198913
 20
2310.31568991317
  0
LWPOLYLINE
  5
20215
100
AcDbEntity
  8
0
100
AcDbPolyline
 70
0
 90
2
 38
0
 10
13288.9204587676
 20
2250.14511531976
 10
13383.3176393255
 20
2244.44184005464
  0
LWPOLYLINE
  5
20216
100
AcDbEntity
  8
0
100
AcDbPolyline
 70
0
 90
2
 38
0
 10
13371.0236027718
 20
2240.05492637225
 10
13429.8575295227
 20
2285.68026605906
  0
LWPOLYLINE
  5
20217
100
AcDbEntity
  8
0
100
AcDbPolyline
 70
0
 90
2
 38
0
 10
13091.2820482665
 20
2220.19681127137
 10
13331.0073908429
 20
2250.90635696007
  0
LWPOLYLINE
  5
20218
100
AcDbEntity
  8
0
100
AcDbPolyline
 70
0
 90
2
 38
0
 10
12981.943657456
 20
2159.6778133894
 10
13137.3699464739
 20
2233.38055055548
  0
LWPOLYLINE
  5
20219
100
AcDbEntity
  8
0
100
AcDbPolyline
 70
0
 90
2
 38
0
 10
13114.1000013753
 20
2207.49689739541
 10
13119.8077649567
 20
2408.86255993287
  0
LWPOLYLINE
  5
2021A
100
AcDbEntity
  8
0
100
AcDbPolyline
 70
0
 90
2
 38
0
 10
12938.4767305131
 20
2383.85628950928
 10
12950.770767067
 20
2162.31024907681
  0
LWPOLYLINE
  5
2021B
100
AcDbEntity
  8
0
100
AcDbPolyline
 70
0
 90
2
 38
0
 10
12941.1115308403
 20
2169.76828981488
 10
12996.4328757188
 20
2157.48435654823
  0
LWPOLYLINE
  5
2021C
100
AcDbEntity
  8
0
100
AcDbPolyline
 70
0
 90
2
 38
0
 10
13126.308880018
 20
2152.9111571472
 10
13484.6016930035
 20
2177.54054396413
  0
LWPOLYLINE
  5
2021D
100
AcDbEntity
  8
0
100
AcDbPolyline
 70
0
 90
2
 38
0
 10
13384.6845329759
 20
2184.5777169675
 10
13379.40255895
 20
2062.75001924514
  0
LWPOLYLINE
  5
2021E
100
AcDbEntity
  8
0
100
AcDbPolyline
 70
0
 90
2
 38
0
 10
13281.2467847763
 20
2174.46194248152
 10
13283.4470614031
 20
2053.95376859943
  0
LWPOLYLINE
  5
2021F
100
AcDbEntity
  8
0
100
AcDbPolyline
 70
0
 90
2
 38
0
 10
13264.0798233083
 20
2097.49518054811
 10
13390.4068534652
 20
2104.97190735361
  0
LWPOLYLINE
  5
20220
100
AcDbEntity
  8
0
100
AcDbPolyline
 70
0
 90
2
 38
0
 10
13337.5871132067
 20
2211.84586398694
 10
13342.4294686144
 20
2157.74912375014
  0
LWPOLYLINE
  5
20221
100
AcDbEntity
  8
0
100
AcDbPolyline
 70
0
 90
2
 38
0
 10
13448.0682212861
 20
2212.28570526704
 10
13474.9184378788
 20
2078.14331413625
  0
LWPOLYLINE
  5
20222
100
AcDbEntity
  8
0
100
AcDbPolyline
 70
0
 90
2
 38
0
 10
13584.032652308
 20
2165.03324032191
 10
13580.9436764548
 20
2121.82329046208
  0
LWPOLYLINE
  5
20223
100
AcDbEntity
  8
0
100
AcDbPolyline
 70
0
 90
2
 38
0
 10
13536.8165937395
 20
2137.25539487787
 10
13538.5816188205
 20
2079.05404431617
  0
LWPOLYLINE
  5
20224
100
AcDbEntity
  8
0
100
AcDbPolyline
 70
0
 90
2
 38
0
 10
13576.0896755208
 20
2143.42812165298
 10
13600.3596801911
 20
2178.70166744792
  0
LWPOLYLINE
  5
20225
100
AcDbEntity
  8
0
100
AcDbPolyline
 70
0
 90
2
 38
0
 10
13761.6378461785
 20
2435.71846355649
 10
13797.4711306267
 20
2329.18919299816
  0
LWPOLYLINE
  5
20226
100
AcDbEntity
  8
0
100
AcDbPolyline
 70
0
 90
2
 38
0
 10
13760.3109840249
 20
2383.55903729779
 10
13857.1930287586
 20
2417.59527794929
  0
LWPOLYLINE
  5
20227
100
AcDbEntity
  8
0
100
AcDbPolyline
 70
0
 90
2
 38
0
 10
13837.728259381
 20
2374.27637394227
 10
13904.0859239721
 20
2397.26196177915
  0
LWPOLYLINE
  5
20228
100
AcDbEntity
  8
0
100
AcDbPolyline
 70
0
 90
2
 38
0
 10
13875.7734659823
 20
2398.58809761249
 10
13904.5284539717
 20
2281.00788676157
  0
LWPOLYLINE
  5
20229
100
AcDbEntity
  8
0
100
AcDbPolyline
 70
0
 90
2
 38
0
 10
13859.8474809114
 20
2324.76893187233
 10
13905.4127861258
 20
2344.21825331286
  0
LWPOLYLINE
  5
2022A
100
AcDbEntity
  8
0
100
AcDbPolyline
 70
0
 90
2
 38
0
 10
12706.0858859743
 20
2079.78165103507
 10
12978.2243674915
 20
2097.64179430809
  0
LWPOLYLINE
  5
2022B
100
AcDbEntity
  8
0
100
AcDbPolyline
 70
0
 90
2
 38
0
 10
12945.1568955413
 20
2067.72597526933
 10
12966.1588743916
 20
2124.87831875187
  0
LWPOLYLINE
  5
2022C
100
AcDbEntity
  8
0
100
AcDbPolyline
 70
0
 90
2
 38
0
 10
12946.9444838295
 20
2121.30640508846
 10
13031.4007519933
 20
2102.1069019959
  0
LWPOLYLINE
  5
2022D
100
AcDbEntity
  8
0
100
AcDbPolyline
 70
0
 90
2
 38
0
 10
12357.3212970444
 20
1696.6793211262
 10
12650.7186868361
 20
1685.22763655614
  0
LWPOLYLINE
  5
2022E
100
AcDbEntity
  8
0
100
AcDbPolyline
 70
0
 90
2
 38
0
 10
12356.1749405485
 20
1781.42149946641
 10
12805.4404215124
 20
1729.88906264026
  0
LWPOLYLINE
  5
2022F
100
AcDbEntity
  8
0
100
AcDbPolyline
 70
0
 90
2
 38
0
 10
12727.5063759262
 20
1753.93745649833
 10
12706.8770539178
 20
1537.50104934181
  0
LWPOLYLINE
  5
20230
100
AcDbEntity
  8
0
100
AcDbPolyline
 70
0
 90
2
 38
0
 10
12554.4291082531
 20
1628.66893506271
 10
12904.2905601921
 20
1650.65783680935
  0
LWPOLYLINE
  5
20231
100
AcDbEntity
  8
0
100
AcDbPolyline
 70
0
 90
2
 38
0
 10
12875.9962983372
 20
1525.90361344564
 10
12886.143190978
 20
1814.55937149026
  0
LWPOLYLINE
  5
20232
100
AcDbEntity
  8
0
100
AcDbPolyline
 70
0
 90
2
 38
0
 10
12866.0291835087
 20
1795.17961971625
 10
12957.2595087564
 20
1813.84153902205
  0
LWPOLYLINE
  5
20233
100
AcDbEntity
  8
0
100
AcDbPolyline
 70
0
 90
2
 38
0
 10
13042.7427667713
 20
1824.60816361144
 10
13284.359051682
 20
1826.19015482993
  0
LWPOLYLINE
  5
20234
100
AcDbEntity
  8
0
100
AcDbPolyline
 70
0
 90
2
 38
0
 10
13231.9192467192
 20
1867.82070077292
 10
13473.2836971234
 20
1905.86265933071
  0
LWPOLYLINE
  5
20235
100
AcDbEntity
  8
0
100
AcDbPolyline
 70
0
 90
2
 38
0
 10
13226.1729073318
 20
1960.41332726768
 10
13486.9322539559
 20
1999.17283081578
  0
LWPOLYLINE
  5
20236
100
AcDbEntity
  8
0
100
AcDbPolyline
 70
0
 90
2
 38
0
 10
13248.441337168
 20
1804.65690565121
 10
13460.3535236951
 20
1770.20382195653
  0
LWPOLYLINE
  5
20237
100
AcDbEntity
  8
0
100
AcDbPolyline
 70
0
 90
2
 38
0
 10
13433.0564100303
 20
1823.31882495707
 10
13433.7747934344
 20
1740.05744559312
  0
LWPOLYLINE
  5
20238
100
AcDbEntity
  8
0
100
AcDbPolyline
 70
0
 90
2
 38
0
 10
13412.2247470024
 20
1797.47915592499
 10
13673.7024770305
 20
1837.67432440951
  0
LWPOLYLINE
  5
20239
100
AcDbEntity
  8
0
100
AcDbPolyline
 70
0
 90
2
 38
0
 10
13411.5063635983
 20
1754.41294504557
 10
13496.2712382091
 20
1740.05744559312
  0
LWPOLYLINE
  5
2023A
100
AcDbEntity
  8
0
100
AcDbPolyline
 70
0
 90
2
 38
0
 10
13649.2374097946
 20
1730.82882809424
 10
13717.3106059798
 20
1731.72978402354
  0
LWPOLYLINE
  5
2023B
100
AcDbEntity
  8
0
100
AcDbPolyline
 70
0
 90
2
 38
0
 10
15160.9133381122
 20
2752.8638624762
 10
15229.1211856954
 20
2845.66836022813
  0
LWPOLYLINE
  5
2023C
100
AcDbEntity
  8
0
100
AcDbPolyline
 70
0
 90
2
 38
0
 10
15203.7252042002
 20
2826.0925484848
 10
15386.5803468993
 20
2657.15899957734
  0
LWPOLYLINE
  5
2023D
100
AcDbEntity
  8
0
100
AcDbPolyline
 70
0
 90
2
 38
0
 10
15250.8903135911
 20
2631.78274501814
 10
15402.5441799307
 20
2681.08521530207
  0
LWPOLYLINE
  5
2023E
100
AcDbEntity
  8
0
100
AcDbPolyline
 70
0
 90
2
 38
0
 10
15380.0501180224
 20
2667.30955889658
 10
15518.6427987628
 20
2773.16498111474
  0
LWPOLYLINE
  5
2023F
100
AcDbEntity
  8
0
100
AcDbPolyline
 70
0
 90
2
 38
0
 10
15376.4218087322
 20
2752.13884305896
 10
15442.4533985866
 20
2690.51075520407
  0
LWPOLYLINE
  5
20240
100
AcDbEntity
  8
0
100
AcDbPolyline
 70
0
 90
2
 38
0
 10
15425.038241839
 20
2778.2401170354
 10
15470.0263656558
 20
2710.81187384261
  0
LWPOLYLINE
  5
20241
100
AcDbEntity
  8
0
100
AcDbPolyline
 70
0
 90
2
 38
0
 10
15484.3751097575
 20
2792.39495687117
 10
15728.2477153902
 20
2800.55789356918
  0
LWPOLYLINE
  5
20242
100
AcDbEntity
  8
0
100
AcDbPolyline
 70
0
 90
2
 38
0
 10
15638.6506752071
 20
2851.00078892376
 10
15646.8374802013
 20
2706.03427761141
  0
LWPOLYLINE
  5
20243
100
AcDbEntity
  8
0
100
AcDbPolyline
 70
0
 90
2
 38
0
 10
15489.4751224348
 20
2742.84410562908
 10
15755.9909982816
 20
2765.56607617583
  0
LWPOLYLINE
  5
20244
100
AcDbEntity
  8
0
100
AcDbPolyline
 70
0
 90
2
 38
0
 10
15720.0609103959
 20
2814.64575104014
 10
15730.9764077731
 20
2700.12660551618
  0
LWPOLYLINE
  5
20245
100
AcDbEntity
  8
0
100
AcDbPolyline
 70
0
 90
2
 38
0
 10
15486.7464300519
 20
2712.39645236277
 10
15765.5417855446
 20
2714.66867816524
  0
LWPOLYLINE
  5
20246
100
AcDbEntity
  8
0
100
AcDbPolyline
 70
0
 90
2
 38
0
 10
15796.4686641904
 20
2815.10025369621
 10
15799.6522599447
 20
2676.49562965723
  0
LWPOLYLINE
  5
20247
100
AcDbEntity
  8
0
100
AcDbPolyline
 70
0
 90
2
 38
0
 10
15774.6376694362
 20
2799.19467307889
 10
15962.472002477
 20
2812.82802789373
  0
LWPOLYLINE
  5
20248
100
AcDbEntity
  8
0
100
AcDbPolyline
 70
0
 90
2
 38
0
 10
15833.7620064994
 20
2845.5476194846
 10
15835.5816199849
 20
2692.85571293067
  0
LWPOLYLINE
  5
20249
100
AcDbEntity
  8
0
100
AcDbPolyline
 70
0
 90
2
 38
0
 10
15952.9212152142
 20
2821.91664362565
 10
15958.37859998
 20
2673.76918867667
  0
LWPOLYLINE
  5
2024A
100
AcDbEntity
  8
0
100
AcDbPolyline
 70
0
 90
2
 38
0
 10
15766.4508644419
 20
2685.58453286713
 10
15977.4809023513
 20
2684.22131237685
  0
LWPOLYLINE
  5
2024B
100
AcDbEntity
  8
0
100
AcDbPolyline
 70
0
 90
2
 38
0
 10
15929.4671252308
 20
2852.4611769648
 10
16051.2065458679
 20
2709.86290909391
  0
LWPOLYLINE
  5
2024C
100
AcDbEntity
  8
0
100
AcDbPolyline
 70
0
 90
2
 38
0
 10
15832.4926441319
 20
2496.29409459676
 10
16056.6632027884
 20
2727.58132573223
  0
LWPOLYLINE
  5
2024D
100
AcDbEntity
  8
0
100
AcDbPolyline
 70
0
 90
2
 38
0
 10
15330.8535921363
 20
2265.35586170573
 10
15451.7916549945
 20
2129.86692380632
  0
LWPOLYLINE
  5
2024E
100
AcDbEntity
  8
0
100
AcDbPolyline
 70
0
 90
2
 38
0
 10
15268.5522099272
 20
2124.74032933067
 10
15410.7462696782
 20
2207.49862226314
  0
LWPOLYLINE
  5
2024F
100
AcDbEntity
  8
0
100
AcDbPolyline
 70
0
 90
2
 38
0
 10
15438.5987293788
 20
2161.35898450442
 10
15419.541553422
 20
2099.83985079668
  0
LWPOLYLINE
  5
20250
100
AcDbEntity
  8
0
100
AcDbPolyline
 70
0
 90
2
 38
0
 10
15415.8768518621
 20
2131.33191149478
 10
15555.1617135723
 20
1865.9449070784
  0
LWPOLYLINE
  5
20251
100
AcDbEntity
  8
0
100
AcDbPolyline
 70
0
 90
2
 38
0
 10
15448.8831847991
 20
1843.97382896539
 10
15710.5494267843
 20
1958.95610148419
  0
LWPOLYLINE
  5
20252
100
AcDbEntity
  8
0
100
AcDbPolyline
 70
0
 90
2
 38
0
 10
15688.5604895796
 20
1962.6179957494
 10
15697.3565011687
 20
1906.22545651731
  0
LWPOLYLINE
  5
20253
100
AcDbEntity
  8
0
100
AcDbPolyline
 70
0
 90
2
 38
0
 10
15690.0263702035
 20
1919.40804588952
 10
15821.2263252748
 20
1885.71907861473
  0
LWPOLYLINE
  5
20254
100
AcDbEntity
  8
0
100
AcDbPolyline
 70
0
 90
2
 38
0
 10
15790.4421043262
 20
1889.38068540196
 10
15909.1813462485
 20
1920.87274610001
  0
LWPOLYLINE
  5
20255
100
AcDbEntity
  8
0
100
AcDbPolyline
 70
0
 90
2
 38
0
 10
15695.2435659893
 20
1950.53989670268
 10
15880.3732255453
 20
2089.54411510722
  0
LWPOLYLINE
  5
20256
100
AcDbEntity
  8
0
100
AcDbPolyline
 70
0
 90
2
 38
0
 10
13882.5031244973
 20
2648.23999584228
 10
14175.435421082
 20
4079.90611383732
  0
LWPOLYLINE
  5
20257
100
AcDbEntity
  8
0
100
AcDbPolyline
 70
0
 90
2
 38
0
 10
13940.3202512325
 20
2977.33729098388
 10
14101.5707590949
 20
2934.71523355396
  0
LWPOLYLINE
  5
20258
100
AcDbEntity
  8
0
100
AcDbPolyline
 70
0
 90
2
 38
0
 10
13793.6011766656
 20
2959.07065387419
 10
13924.3826206353
 20
2945.95619677869
  0
LWPOLYLINE
  5
20259
100
AcDbEntity
  8
0
100
AcDbPolyline
 70
0
 90
2
 38
0
 10
13953.4687782791
 20
3048.20549545606
 10
14127.3757897016
 20
3070.68742190552
  0
LWPOLYLINE
  5
2025A
100
AcDbEntity
  8
0
100
AcDbPolyline
 70
0
 90
2
 38
0
 10
14019.5629628374
 20
3166.70448586985
 10
14144.2508851666
 20
3183.56593070692
  0
LWPOLYLINE
  5
2025B
100
AcDbEntity
  8
0
100
AcDbPolyline
 70
0
 90
2
 38
0
 10
14057.6278212643
 20
3158.11148214235
 10
14052.380055972
 20
3303.44682767848
  0
LWPOLYLINE
  5
2025C
100
AcDbEntity
  8
0
100
AcDbPolyline
 70
0
 90
2
 38
0
 10
14016.3917404548
 20
3229.28096351749
 10
14185.0859231639
 20
3254.00291823782
  0
LWPOLYLINE
  5
2025D
100
AcDbEntity
  8
0
100
AcDbPolyline
 70
0
 90
2
 38
0
 10
14047.1315628343
 20
3271.98265234259
 10
14124.355959161
 20
3283.21987835382
  0
LWPOLYLINE
  5
2025E
100
AcDbEntity
  8
0
100
AcDbPolyline
 70
0
 90
2
 38
0
 10
14093.6161367815
 20
3294.45710436505
 10
14112.3603392189
 20
3225.53512568778
  0
LWPOLYLINE
  5
2025F
100
AcDbEntity
  8
0
100
AcDbPolyline
 70
0
 90
2
 38
0
 10
14020.8905528365
 20
3379.86048201518
 10
14065.8750374262
 20
3331.91462022852
  0
LWPOLYLINE
  5
20260
100
AcDbEntity
  8
0
100
AcDbPolyline
 70
0
 90
2
 38
0
 10
14032.8861727785
 20
3338.657128322
 10
14126.6050014291
 20
3379.11131444923
  0
LWPOLYLINE
  5
20261
100
AcDbEntity
  8
0
100
AcDbPolyline
 70
0
 90
2
 38
0
 10
14092.1167752694
 20
3379.86048201518
 10
14148.3479268907
 20
3369.37213609193
  0
LWPOLYLINE
  5
20262
100
AcDbEntity
  8
0
100
AcDbPolyline
 70
0
 90
2
 38
0
 10
14134.852217591
 20
3375.36547661951
 10
14174.5896647339
 20
3323.67406448105
  0
LWPOLYLINE
  5
20263
100
AcDbEntity
  8
0
100
AcDbPolyline
 70
0
 90
2
 38
0
 10
13740.1161857168
 20
3376.81752779969
 10
14026.6070505626
 20
3374.41191222344
  0
LWPOLYLINE
  5
20264
100
AcDbEntity
  8
0
100
AcDbPolyline
 70
0
 90
2
 38
0
 10
13610.1120806283
 20
3370.80348885898
 10
13832.8043852892
 20
3340.73415658908
  0
LWPOLYLINE
  5
20265
100
AcDbEntity
  8
0
100
AcDbPolyline
 70
0
 90
2
 38
0
 10
14083.0019673976
 20
2929.14074841532
 10
14620.3578485785
 20
3235.58535519871
  0
LWPOLYLINE
  5
20266
100
AcDbEntity
  8
0
100
AcDbPolyline
 70
0
 90
2
 38
0
 10
14460.662018478
 20
3230.74997589737
 10
14519.9428423011
 20
3157.01044155238
  0
LWPOLYLINE
  5
20267
100
AcDbEntity
  8
0
100
AcDbPolyline
 70
0
 90
2
 38
0
 10
14449.7741792259
 20
3212.61730351747
 10
14540.5102974509
 20
3265.80647583189
  0
LWPOLYLINE
  5
20268
100
AcDbEntity
  8
0
100
AcDbPolyline
 70
0
 90
2
 38
0
 10
14535.6708534248
 20
3239.21188967471
 10
14524.7822863272
 20
3377.02019976213
  0
LWPOLYLINE
  5
20269
100
AcDbEntity
  8
0
100
AcDbPolyline
 70
0
 90
2
 38
0
 10
14805.8390574598
 20
3370.84459820739
 10
14805.7910196638
 20
2977.52903878374
  0
LWPOLYLINE
  5
2026A
100
AcDbEntity
  8
0
100
AcDbPolyline
 70
0
 90
2
 38
0
 10
14601.0750405494
 20
3035.62660980155
 10
14930.5590049864
 20
3013.84009253938
  0
LWPOLYLINE
  5
2026B
100
AcDbEntity
  8
0
100
AcDbPolyline
 70
0
 90
2
 38
0
 10
14908.7549405118
 20
2990.84300558409
 10
14896.2934995173
 20
3349.76556420681
  0
LWPOLYLINE
  5
2026C
100
AcDbEntity
  8
0
100
AcDbPolyline
 70
0
 90
2
 38
0
 10
14595.0179111786
 20
3340.63900138403
 10
14905.3129596425
 20
3331.74213345197
  0
LWPOLYLINE
  5
2026D
100
AcDbEntity
  8
0
100
AcDbPolyline
 70
0
 90
2
 38
0
 10
14606.1437558747
 20
3347.73395745753
 10
14612.9935088797
 20
3014.61369573197
  0
LWPOLYLINE
  5
2026E
100
AcDbEntity
  8
0
100
AcDbPolyline
 70
0
 90
2
 38
0
 10
14593.2033926109
 20
3145.42824198812
 10
14915.1738090434
 20
3158.35756327684
  0
LWPOLYLINE
  5
2026F
100
AcDbEntity
  8
0
100
AcDbPolyline
 70
0
 90
2
 38
0
 10
14573.4132763421
 20
3294.49562641181
 10
14908.3233281929
 20
3294.49562641181
  0
LWPOLYLINE
  5
20270
100
AcDbEntity
  8
0
100
AcDbPolyline
 70
0
 90
2
 38
0
 10
14687.5874719517
 20
3347.73395745753
 10
14705.8549356558
 20
3010.81093726604
  0
LWPOLYLINE
  5
20271
100
AcDbEntity
  8
0
100
AcDbPolyline
 70
0
 90
2
 38
0
 10
14598.531948742
 20
3248.862812298
 10
14909.0846544753
 20
3249.62319150445
  0
LWPOLYLINE
  5
20272
100
AcDbEntity
  8
0
100
AcDbPolyline
 70
0
 90
2
 38
0
 10
14599.2932750243
 20
3194.86381456792
 10
14913.6511564787
 20
3203.99037739064
  0
LWPOLYLINE
  5
20273
100
AcDbEntity
  8
0
100
AcDbPolyline
 70
0
 90
2
 38
0
 10
14686.064819387
 20
3107.40065732831
 10
14915.1738090434
 20
3108.92170321912
  0
LWPOLYLINE
  5
20274
100
AcDbEntity
  8
0
100
AcDbPolyline
 70
0
 90
2
 38
0
 10
14602.3378523083
 20
3060.24679732375
 10
14921.2629636114
 20
3062.52822242095
  0
LWPOLYLINE
  5
20275
100
AcDbEntity
  8
0
100
AcDbPolyline
 70
0
 90
2
 38
0
 10
14571.1300253404
 20
3214.63798610418
 10
14597.7706224596
 20
3184.97658506077
  0
LWPOLYLINE
  5
20276
100
AcDbEntity
  8
0
100
AcDbPolyline
 70
0
 90
2
 38
0
 10
14593.9647188932
 20
3209.31418174744
 10
14529.266541801
 20
3137.06205837178
  0
LWPOLYLINE
  5
20277
100
AcDbEntity
  8
0
100
AcDbPolyline
 70
0
 90
2
 38
0
 10
14534.5943700867
 20
3160.63898837409
 10
14581.0250834748
 20
3099.7951403964
  0
LWPOLYLINE
  5
20278
100
AcDbEntity
  8
0
100
AcDbPolyline
 70
0
 90
2
 38
0
 10
14583.3083344764
 20
3131.73825401499
 10
14521.6547346683
 20
3040.47233830945
  0
LWPOLYLINE
  5
20279
100
AcDbEntity
  8
0
100
AcDbPolyline
 70
0
 90
2
 38
0
 10
14526.8995885791
 20
3052.07092411746
 10
14555.9653665518
 20
3000.65232856385
  0
LWPOLYLINE
  5
2027A
100
AcDbEntity
  8
0
100
AcDbPolyline
 70
0
 90
2
 38
0
 10
14409.6851827577
 20
2930.66553151963
 10
14563.1120804776
 20
3026.83754610486
  0
LWPOLYLINE
  5
2027B
100
AcDbEntity
  8
0
100
AcDbPolyline
 70
0
 90
2
 38
0
 10
14417.5204384264
 20
2988.08810428536
 10
14457.1508922963
 20
2825.12576010247
  0
LWPOLYLINE
  5
2027C
100
AcDbEntity
  8
0
100
AcDbPolyline
 70
0
 90
2
 38
0
 10
15161.8486194438
 20
3624.19806266093
 10
15128.0169098297
 20
3038.52927477215
  0
LWPOLYLINE
  5
2027D
100
AcDbEntity
  8
0
100
AcDbPolyline
 70
0
 90
2
 38
0
 10
14929.2954653821
 20
3045.88353596634
 10
15159.9103671589
 20
3043.43221139425
  0
LWPOLYLINE
  5
2027E
100
AcDbEntity
  8
0
100
AcDbPolyline
 70
0
 90
2
 38
0
 10
14924.3883317342
 20
3336.37282844517
 10
15168.49748712
 20
3321.66459353478
  0
LWPOLYLINE
  5
2027F
100
AcDbEntity
  8
0
100
AcDbPolyline
 70
0
 90
2
 38
0
 10
14897.4012802073
 20
3472.42493566987
 10
15206.5237697411
 20
3450.36243956525
  0
LWPOLYLINE
  5
20280
100
AcDbEntity
  8
0
100
AcDbPolyline
 70
0
 90
2
 38
0
 10
14827.4808124115
 20
3626.86240840203
 10
14849.5614581361
 20
3348.62973878352
  0
LWPOLYLINE
  5
20281
100
AcDbEntity
  8
0
100
AcDbPolyline
 70
0
 90
2
 38
0
 10
14599.3194774585
 20
3455.26508870942
 10
14623.8529621614
 20
3347.40422023647
  0
LWPOLYLINE
  5
20282
100
AcDbEntity
  8
0
100
AcDbPolyline
 70
0
 90
2
 38
0
 10
15166.0693948849
 20
3221.02430900425
 10
15304.6839109871
 20
3103.35756728711
  0
LWPOLYLINE
  5
20283
100
AcDbEntity
  8
0
100
AcDbPolyline
 70
0
 90
2
 38
0
 10
15233.5370237021
 20
3118.06608967547
 10
15530.3924069616
 20
3121.74293279462
  0
LWPOLYLINE
  5
20284
100
AcDbEntity
  8
0
100
AcDbPolyline
 70
0
 90
2
 38
0
 10
15259.2969278943
 20
3130.32300001377
 10
15261.7504947182
 20
2864.3475282116
  0
LWPOLYLINE
  5
20285
100
AcDbEntity
  8
0
100
AcDbPolyline
 70
0
 90
2
 38
0
 10
15077.7489955233
 20
2939.11479626666
 10
15182.4699351528
 20
2823.07690467557
  0
LWPOLYLINE
  5
20286
100
AcDbEntity
  8
0
100
AcDbPolyline
 70
0
 90
2
 38
0
 10
15124.1098357535
 20
2853.00077309727
 10
15200.1318314889
 20
2935.09930410964
  0
LWPOLYLINE
  5
20287
100
AcDbEntity
  8
0
100
AcDbPolyline
 70
0
 90
2
 38
0
 10
15163.2730128802
 20
2917.45189452759
 10
15429.7313889411
 20
2926.65923865739
  0
LWPOLYLINE
  5
20288
100
AcDbEntity
  8
0
100
AcDbPolyline
 70
0
 90
2
 38
0
 10
15375.9792787324
 20
3134.59176025429
 10
15377.5150325143
 20
2827.68057674047
  0
LWPOLYLINE
  5
20289
100
AcDbEntity
  8
0
100
AcDbPolyline
 70
0
 90
2
 38
0
 10
15242.3657883339
 20
3027.94002408464
 10
15395.176201005
 20
3024.87090937473
  0
LWPOLYLINE
  5
2028A
100
AcDbEntity
  8
0
100
AcDbPolyline
 70
0
 90
2
 38
0
 10
15245.4372958976
 20
3070.140351346
 10
15385.9616783143
 20
3072.44218737847
  0
LWPOLYLINE
  5
2028B
100
AcDbEntity
  8
0
100
AcDbPolyline
 70
0
 90
2
 38
0
 10
15243.9015421158
 20
2979.60146740347
 10
15399.0155854595
 20
2984.20513946831
  0
LWPOLYLINE
  5
2028C
100
AcDbEntity
  8
0
100
AcDbPolyline
 70
0
 90
2
 38
0
 10
15467.6070075654
 20
2971.49315151799
 10
15773.8188433676
 20
2977.63713049702
  0
LWPOLYLINE
  5
2028D
100
AcDbEntity
  8
0
100
AcDbPolyline
 70
0
 90
2
 38
0
 10
15757.8317192836
 20
3051.36401581176
 10
15760.2911088706
 20
2814.20907201758
  0
LWPOLYLINE
  5
2028E
100
AcDbEntity
  8
0
100
AcDbPolyline
 70
0
 90
2
 38
0
 10
15749.2234918062
 20
2868.27533959056
 10
16253.5177237999
 20
3368.62095618027
  0
LWPOLYLINE
  5
2028F
100
AcDbEntity
  8
0
100
AcDbPolyline
 70
0
 90
2
 38
0
 10
16259.6425427924
 20
3385.17594951112
 10
16269.6977269135
 20
2816.86335603002
  0
LWPOLYLINE
  5
20290
100
AcDbEntity
  8
0
100
AcDbPolyline
 70
0
 90
2
 38
0
 10
16238.252622347
 20
3296.09256648429
 10
16413.7550708736
 20
3296.09256648429
  0
LWPOLYLINE
  5
20291
100
AcDbEntity
  8
0
100
AcDbPolyline
 70
0
 90
2
 38
0
 10
16490.6599430724
 20
2799.56379478064
 10
16528.1265125852
 20
3169.99007148424
  0
LWPOLYLINE
  5
20292
100
AcDbEntity
  8
0
100
AcDbPolyline
 70
0
 90
2
 38
0
 10
16772.4103508656
 20
2557.1902635633
 10
16926.6087647034
 20
3313.73710128671
  0
LWPOLYLINE
  5
20293
100
AcDbEntity
  8
0
100
AcDbPolyline
 70
0
 90
2
 38
0
 10
16584.6044037951
 20
3406.57724630577
 10
16938.470461093
 20
3288.05813243473
  0
LWPOLYLINE
  5
20294
100
AcDbEntity
  8
0
100
AcDbPolyline
 70
0
 90
2
 38
0
 10
16867.3017384462
 20
3220.89724374557
 10
17047.1996453085
 20
3214.97117306083
  0
LWPOLYLINE
  5
20295
100
AcDbEntity
  8
0
100
AcDbPolyline
 70
0
 90
2
 38
0
 10
16991.8470030782
 20
3207.0701287851
 10
17408.9730149694
 20
3295.95946418837
  0
LWPOLYLINE
  5
20296
100
AcDbEntity
  8
0
100
AcDbPolyline
 70
0
 90
2
 38
0
 10
17171.7449099405
 20
3610.0348859643
 10
17098.599359203
 20
3280.15680068109
  0
LWPOLYLINE
  5
20297
100
AcDbEntity
  8
0
100
AcDbPolyline
 70
0
 90
2
 38
0
 10
17011.6160118305
 20
3325.58924265613
 10
17266.6362975212
 20
3327.5645037251
  0
LWPOLYLINE
  5
20298
100
AcDbEntity
  8
0
100
AcDbPolyline
 70
0
 90
2
 38
0
 10
17207.3292712639
 20
3355.21902112389
 10
17185.5834344208
 20
2930.52552975266
  0
LWPOLYLINE
  5
20299
100
AcDbEntity
  8
0
100
AcDbPolyline
 70
0
 90
2
 38
0
 10
17149.9990730974
 20
2948.30316685099
 10
17478.1649095254
 20
2979.90849386563
  0
LWPOLYLINE
  5
2029A
100
AcDbEntity
  8
0
100
AcDbPolyline
 70
0
 90
2
 38
0
 10
15721.9598590295
 20
4628.41923772154
 10
17306.1808656345
 20
4499.19243224309
  0
LWPOLYLINE
  5
2029B
100
AcDbEntity
  8
0
100
AcDbPolyline
 70
0
 90
2
 38
0
 10
15711.1200575734
 20
4447.5694398593
 10
16137.4700541455
 20
4370.94995130261
  0
LWPOLYLINE
  5
2029C
100
AcDbEntity
  8
0
100
AcDbPolyline
 70
0
 90
2
 38
0
 10
16042.3559458742
 20
4370.54748215742
 10
16091.5932311024
 20
4613.41260068776
  0
LWPOLYLINE
  5
2029D
100
AcDbEntity
  8
0
100
AcDbPolyline
 70
0
 90
2
 38
0
 10
15765.3037801007
 20
4165.45380542381
 10
15809.1106108426
 20
4531.88672577339
  0
LWPOLYLINE
  5
2029E
100
AcDbEntity
  8
0
100
AcDbPolyline
 70
0
 90
2
 38
0
 10
15762.0524947247
 20
5044.33085234504
 10
15783.2145995616
 20
4552.45433648163
  0
LWPOLYLINE
  5
2029F
100
AcDbEntity
  8
0
100
AcDbPolyline
 70
0
 90
2
 38
0
 10
15773.0160298978
 20
4607.32525486697
 10
15810.6718392132
 20
4495.23184837663
  0
LWPOLYLINE
  5
202A0
100
AcDbEntity
  8
0
100
AcDbPolyline
 70
0
 90
2
 38
0
 10
14885.4362297717
 20
4752.6493887626
 10
16104.3829303697
 20
4761.44793923205
  0
LWPOLYLINE
  5
202A1
100
AcDbEntity
  8
0
100
AcDbPolyline
 70
0
 90
2
 38
0
 10
12140.0419785803
 20
4349.06396666594
 10
12773.4516164364
 20
4274.53070567106
  0
LWPOLYLINE
  5
202A2
100
AcDbEntity
  8
0
100
AcDbPolyline
 70
0
 90
2
 38
0
 10
12643.2298855749
 20
4187.36451316508
 10
12708.9732486532
 20
4381.90918612573
  0
LWPOLYLINE
  5
202A3
100
AcDbEntity
  8
0
100
AcDbPolyline
 70
0
 90
2
 38
0
 10
12477.3451860874
 20
4088.33094295766
 10
12384.089994953
 20
3912.09804114653
  0
LWPOLYLINE
  5
202A4
100
AcDbEntity
  8
0
100
AcDbPolyline
 70
0
 90
2
 38
0
 10
12390.1718710671
 20
4001.2274206471
 10
12465.1814338593
 20
3626.47891280224
  0
LWPOLYLINE
  5
202A5
100
AcDbEntity
  8
0
100
AcDbPolyline
 70
0
 90
2
 38
0
 10
12065.4734900971
 20
3622.15610670508
 10
12167.1614979689
 20
3634.06286888715
  0
LWPOLYLINE
  5
202A6
100
AcDbEntity
  8
0
100
AcDbPolyline
 70
0
 90
2
 38
0
 10
12085.3349352146
 20
3545.15772219602
 10
12101.223072325
 20
3672.95892446663
  0
LWPOLYLINE
  5
202A7
100
AcDbEntity
  8
0
100
AcDbPolyline
 70
0
 90
2
 38
0
 10
12091.690481197
 20
3634.85688301496
 10
12198.974892305
 20
3899.30268458754
  0
LWPOLYLINE
  5
202A8
100
AcDbEntity
  8
0
100
AcDbPolyline
 70
0
 90
2
 38
0
 10
12509.9031662617
 20
3690.35565326677
 10
12505.838149735
 20
3367.46270747605
  0
LWPOLYLINE
  5
202A9
100
AcDbEntity
  8
0
100
AcDbPolyline
 70
0
 90
2
 38
0
 10
12297.7682590439
 20
3405.91633447382
 10
12793.1514798762
 20
3343.04835417384
  0
LWPOLYLINE
  5
202AA
100
AcDbEntity
  8
0
100
AcDbPolyline
 70
0
 90
2
 38
0
 10
12729.7779814015
 20
3187.0245780538
 10
13964.4548766594
 20
3098.1375424742
  0
LWPOLYLINE
  5
202AB
100
AcDbEntity
  8
0
100
AcDbPolyline
 70
0
 90
2
 38
0
 10
13376.601809873
 20
3013.40255108295
 10
13518.8184328312
 20
2992.52877634647
  0
LWPOLYLINE
  5
202AC
100
AcDbEntity
  8
0
100
AcDbPolyline
 70
0
 90
2
 38
0
 10
13452.9324120557
 20
2997.3457570583
 10
13820.9274041463
 20
2997.3457570583
  0
LWPOLYLINE
  5
202AD
100
AcDbEntity
  8
0
100
AcDbPolyline
 70
0
 90
2
 38
0
 10
13378.2088925035
 20
3039.09330653132
 10
13826.5521933528
 20
3026.24792880716
  0
LWPOLYLINE
  5
202AE
100
AcDbEntity
  8
0
100
AcDbPolyline
 70
0
 90
2
 38
0
 10
13695.5844209623
 20
3045.5158516544
 10
13691.5667143862
 20
2988.51443410129
  0
LWPOLYLINE
  5
202AF
100
AcDbEntity
  8
0
100
AcDbPolyline
 70
0
 90
2
 38
0
 10
13610.4155921576
 20
3045.5158516544
 10
13615.2361122036
 20
2987.71150815667
  0
LWPOLYLINE
  5
202B0
100
AcDbEntity
  8
0
100
AcDbPolyline
 70
0
 90
2
 38
0
 10
13464.1812626234
 20
3049.53019389958
 10
13459.3607425775
 20
2999.75424741418
  0
LWPOLYLINE
  5
202B1
100
AcDbEntity
  8
0
100
AcDbPolyline
 70
0
 90
2
 38
0
 10
13535.69134476
 20
3049.53019389958
 10
13527.6566594533
 20
2956.40084605187
  0
LWPOLYLINE
  5
202B2
100
AcDbEntity
  8
0
100
AcDbPolyline
 70
0
 90
2
 38
0
 10
13237.5993521757
 20
2966.03509495349
 10
13516.4078088856
 20
2967.64065936475
  0
LWPOLYLINE
  5
202B3
100
AcDbEntity
  8
0
100
AcDbPolyline
 70
0
 90
2
 38
0
 10
13496.9139256922
 20
2970.73737195891
 10
13570.9059606232
 20
2945.88317737664
  0
LWPOLYLINE
  5
202B4
100
AcDbEntity
  8
0
100
AcDbPolyline
 70
0
 90
2
 38
0
 10
13556.2668062092
 20
2964.92255524505
 10
13553.7317207012
 20
2733.79803663539
  0
LWPOLYLINE
  5
202B5
100
AcDbEntity
  8
0
100
AcDbPolyline
 70
0
 90
2
 38
0
 10
13439.3500891541
 20
2799.79665192892
 10
13761.5526882674
 20
2764.38281688903
  0
LWPOLYLINE
  5
202B6
100
AcDbEntity
  8
0
100
AcDbPolyline
 70
0
 90
2
 38
0
 10
13536.8165937395
 20
2747.48055018153
 10
13782.496439486
 20
2725.74951616576
  0
LWPOLYLINE
  5
202B7
100
AcDbEntity
  8
0
100
AcDbPolyline
 70
0
 90
2
 38
0
 10
13736.5824963279
 20
2798.18706282618
 10
13759.1362415586
 20
2679.06740749494
  0
LWPOLYLINE
  5
202B8
100
AcDbEntity
  8
0
100
AcDbPolyline
 70
0
 90
2
 38
0
 10
13576.2861937772
 20
2700.79872898862
 10
13776.0520963656
 20
2688.72580454522
  0
LWPOLYLINE
  5
202B9
100
AcDbEntity
  8
0
100
AcDbPolyline
 70
0
 90
2
 38
0
 10
13548.0588936986
 20
2754.296652633
 10
13592.8817966109
 20
2690.2704236288
  0
LWPOLYLINE
  5
202BA
100
AcDbEntity
  8
0
100
AcDbPolyline
 70
0
 90
2
 38
0
 10
13489.2897451877
 20
2887.12641939463
 10
13473.13885589
 20
2785.45840115409
  0
LWPOLYLINE
  5
202BB
100
AcDbEntity
  8
0
100
AcDbPolyline
 70
0
 90
2
 38
0
 10
13524.0137932552
 20
2806.43739282427
 10
13515.9383486063
 20
2643.44601336733
  0
LWPOLYLINE
  5
202BC
100
AcDbEntity
  8
0
100
AcDbPolyline
 70
0
 90
2
 38
0
 10
13379.4644258085
 20
2658.77692554094
 10
13534.511507376
 20
2658.77692554094
  0
LWPOLYLINE
  5
202BD
100
AcDbEntity
  8
0
100
AcDbPolyline
 70
0
 90
2
 38
0
 10
13731.5501732723
 20
2699.12129508716
 10
13737.2033484492
 20
2621.65978358313
  0
LWPOLYLINE
  5
202BE
100
AcDbEntity
  8
0
100
AcDbPolyline
 70
0
 90
2
 38
0
 10
13566.0053775839
 20
2646.67352843372
 10
13805.0363556542
 20
2631.34261626011
  0
LWPOLYLINE
  5
202BF
100
AcDbEntity
  8
0
100
AcDbPolyline
 70
0
 90
2
 38
0
 10
12880.3611871663
 20
2932.68420176063
 10
12863.2961240534
 20
2781.65535521012
  0
LWPOLYLINE
  5
202C0
100
AcDbEntity
  8
0
100
AcDbPolyline
 70
0
 90
2
 38
0
 10
12970.5637947174
 20
3040.67759757349
 10
12977.0649097785
 20
2888.8372007396
  0
LWPOLYLINE
  5
202C1
100
AcDbEntity
  8
0
100
AcDbPolyline
 70
0
 90
2
 38
0
 10
12938.8712227169
 20
3000.07852255402
 10
13159.9069512605
 20
2983.02705478482
  0
LWPOLYLINE
  5
202C2
100
AcDbEntity
  8
0
100
AcDbPolyline
 70
0
 90
2
 38
0
 10
13446.0469946264
 20
2902.6321181684
 10
13414.3544226258
 20
2633.05397256097
  0
LWPOLYLINE
  5
202C3
100
AcDbEntity
  8
0
100
AcDbPolyline
 70
0
 90
2
 38
0
 10
13174.6276243586
 20
2917.24778517539
 10
13157.5625612457
 20
2729.67991484638
  0
LWPOLYLINE
  5
202C4
100
AcDbEntity
  8
0
100
AcDbPolyline
 70
0
 90
2
 38
0
 10
12608.4374200404
 20
2485.6942072247
 10
12840.0982356488
 20
2526.44708295324
  0
LWPOLYLINE
  5
202C5
100
AcDbEntity
  8
0
100
AcDbPolyline
 70
0
 90
2
 38
0
 10
15325.2833913343
 20
3285.83017823822
 10
15463.5347125848
 20
3175.64648784173
  0
LWPOLYLINE
  5
202C6
100
AcDbEntity
  8
0
100
AcDbPolyline
 70
0
 90
2
 38
0
 10
15449.3191641903
 20
3197.38930845389
 10
15454.4708538905
 20
3156.21067786531
  0
LWPOLYLINE
  5
202C7
100
AcDbEntity
  8
0
100
AcDbPolyline
 70
0
 90
2
 38
0
 10
15438.501198096
 20
3176.28526387073
 10
15501.349192196
 20
3123.78230144881
  0
LWPOLYLINE
  5
202C8
100
AcDbEntity
  8
0
100
AcDbPolyline
 70
0
 90
2
 38
0
 10
15411.198261668
 20
3204.08093294833
 10
15487.4400667126
 20
3292.61523306998
  0
LWPOLYLINE
  5
202C9
100
AcDbEntity
  8
0
100
AcDbPolyline
 70
0
 90
2
 38
0
 10
15396.2592349517
 20
3375.48765475286
 10
15484.3489073233
 20
3278.20281298127
  0
LWPOLYLINE
  5
202CA
100
AcDbEntity
  8
0
100
AcDbPolyline
 70
0
 90
2
 38
0
 10
15488.4699679454
 20
3304.45415045321
 10
15574.4998378514
 20
3190.1830984095
  0
LWPOLYLINE
  5
202CB
100
AcDbEntity
  8
0
100
AcDbPolyline
 70
0
 90
2
 38
0
 10
15476.1067860791
 20
3161.87284378201
 10
15536.378935329
 20
3225.69985055935
  0
LWPOLYLINE
  5
202CC
100
AcDbEntity
  8
0
100
AcDbPolyline
 70
0
 90
2
 38
0
 10
15482.2883770122
 20
3200.47768418718
 10
15528.1368140849
 20
3140.76851172087
  0
LWPOLYLINE
  5
202CD
100
AcDbEntity
  8
0
100
AcDbPolyline
 70
0
 90
2
 38
0
 10
15507.5307831292
 20
3209.74309886497
 10
15544.6210565732
 20
3154.66634625971
  0
LWPOLYLINE
  5
202CE
100
AcDbEntity
  8
0
100
AcDbPolyline
 70
0
 90
2
 38
0
 10
15485.214315497
 20
3074.75638496323
 10
15664.8378246457
 20
3077.22639560275
  0
LWPOLYLINE
  5
202CF
100
AcDbEntity
  8
0
100
AcDbPolyline
 70
0
 90
2
 38
0
 10
15631.8795295047
 20
3145.56019437214
 10
15635.9991344359
 20
2949.61464130832
  0
LWPOLYLINE
  5
202D0
100
AcDbEntity
  8
0
100
AcDbPolyline
 70
0
 90
2
 38
0
 10
15087.0945303851
 20
3345.10669637343
 10
15097.6511999829
 20
3221.16718555079
  0
LWPOLYLINE
  5
202D1
100
AcDbEntity
  8
0
100
AcDbPolyline
 70
0
 90
2
 38
0
 10
15199.3937962592
 20
3475.85914739006
 10
15215.4238632215
 20
3353.40532266896
  0
LWPOLYLINE
  5
202D2
100
AcDbEntity
  8
0
100
AcDbPolyline
 70
0
 90
2
 38
0
 10
15194.2231825787
 20
3457.25846088986
 10
15375.3023825159
 20
3641.96190081711
  0
LWPOLYLINE
  5
202D3
100
AcDbEntity
  8
0
100
AcDbPolyline
 70
0
 90
2
 38
0
 10
15338.5884051407
 20
3629.56153897633
 10
15417.7037438016
 20
3626.46137664665
  0
LWPOLYLINE
  5
202D4
100
AcDbEntity
  8
0
100
AcDbPolyline
 70
0
 90
2
 38
0
 10
15388.2296445626
 20
3617.16117713554
 10
15546.9778199597
 20
3752.53167411505
  0
LWPOLYLINE
  5
202D5
100
AcDbEntity
  8
0
100
AcDbPolyline
 70
0
 90
2
 38
0
 10
15168.1233745874
 20
3816.43313768425
 10
15353.0274020712
 20
3601.85182580899
  0
LWPOLYLINE
  5
202D6
100
AcDbEntity
  8
0
100
AcDbPolyline
 70
0
 90
2
 38
0
 10
15004.7781276804
 20
3603.5088487753
 10
15518.2752368386
 20
4189.68992239027
  0
LWPOLYLINE
  5
202D7
100
AcDbEntity
  8
0
100
AcDbPolyline
 70
0
 90
2
 38
0
 10
15541.40252424
 20
3705.95736967947
 10
15837.6341439966
 20
3943.27243869787
  0
LWPOLYLINE
  5
202D8
100
AcDbEntity
  8
0
100
AcDbPolyline
 70
0
 90
2
 38
0
 10
15787.742525759
 20
3961.96684301324
 10
15883.3683093425
 20
3850.31960231811
  0
LWPOLYLINE
  5
202D9
100
AcDbEntity
  8
0
100
AcDbPolyline
 70
0
 90
2
 38
0
 10
15787.8764493116
 20
3697.21401497856
 10
15930.8573099338
 20
3563.69372615498
  0
LWPOLYLINE
  5
202DA
100
AcDbEntity
  8
0
100
AcDbPolyline
 70
0
 90
2
 38
0
 10
15929.5209857899
 20
3589.06250628718
 10
15835.9819349518
 20
3456.87784006971
  0
LWPOLYLINE
  5
202DB
100
AcDbEntity
  8
0
100
AcDbPolyline
 70
0
 90
2
 38
0
 10
14337.9050699797
 20
2707.70049987245
 10
14376.5179959885
 20
2631.06491254992
  0
LWPOLYLINE
  5
202DC
100
AcDbEntity
  8
0
100
AcDbPolyline
 70
0
 90
2
 38
0
 10
14310.4005203776
 20
2543.33066359331
 10
14377.04713959
 20
2579.27000834554
  0
LWPOLYLINE
  5
202DD
100
AcDbEntity
  8
0
100
AcDbPolyline
 70
0
 90
2
 38
0
 10
14270.7293071656
 20
2534.34582740523
 10
14309.3422331744
 20
2450.83980429662
  0
LWPOLYLINE
  5
202DE
100
AcDbEntity
  8
0
100
AcDbPolyline
 70
0
 90
2
 38
0
 10
14296.1187380522
 20
2451.89686075866
 10
14362.2369415085
 20
2489.95031843492
  0
LWPOLYLINE
  5
202DF
100
AcDbEntity
  8
0
100
AcDbPolyline
 70
0
 90
2
 38
0
 10
14389.2130753545
 20
2411.72929015837
 10
14343.7234660611
 20
2489.95031843492
  0
LWPOLYLINE
  5
202E0
100
AcDbEntity
  8
0
100
AcDbPolyline
 70
0
 90
2
 38
0
 10
14726.3627074833
 20
2656.2675304208
 10
14781.9715512926
 20
2495.92439793912
  0
LWPOLYLINE
  5
202E1
100
AcDbEntity
  8
0
100
AcDbPolyline
 70
0
 90
2
 38
0
 10
14479.2970441063
 20
2408.85364811611
 10
14505.8444770151
 20
2333.51976100024
  0
LWPOLYLINE
  5
202E2
100
AcDbEntity
  8
0
100
AcDbPolyline
 70
0
 90
2
 38
0
 10
14492.5707605607
 20
2348.90471903049
 10
14592.3882057693
 20
2396.65164606826
  0
LWPOLYLINE
  5
202E3
100
AcDbEntity
  8
0
100
AcDbPolyline
 70
0
 90
2
 38
0
 10
14357.1798717094
 20
2349.4354033462
 10
14377.8863453296
 20
2252.35035875737
  0
LWPOLYLINE
  5
202E4
100
AcDbEntity
  8
0
100
AcDbPolyline
 70
0
 90
2
 38
0
 10
14337.534596674
 20
2308.58536006685
 10
14526.0203513428
 20
2308.05496322911
  0
LWPOLYLINE
  5
202E5
100
AcDbEntity
  8
0
100
AcDbPolyline
 70
0
 90
2
 38
0
 10
14502.1273705867
 20
2316.01264066313
 10
14524.9584249126
 20
2257.65547704668
  0
LWPOLYLINE
  5
202E6
100
AcDbEntity
  8
0
100
AcDbPolyline
 70
0
 90
2
 38
0
 10
14352.4015666963
 20
2260.83872050705
 10
14528.1442042032
 20
2265.0827576429
  0
LWPOLYLINE
  5
202E7
100
AcDbEntity
  8
0
100
AcDbPolyline
 70
0
 90
2
 38
0
 10
14428.326031149
 20
2266.67452311207
 10
14440.0072218808
 20
2207.25627834216
  0
LWPOLYLINE
  5
202E8
100
AcDbEntity
  8
0
100
AcDbPolyline
 70
0
 90
2
 38
0
 10
14570.619805719
 20
2205.13411603525
 10
14535.5769613689
 20
2279.40692199761
  0
LWPOLYLINE
  5
202E9
100
AcDbEntity
  8
0
100
AcDbPolyline
 70
0
 90
2
 38
0
 10
14533.4531085086
 20
2272.51003823913
 10
14609.9096279443
 20
2295.85296118131
  0
LWPOLYLINE
  5
202EA
100
AcDbEntity
  8
0
100
AcDbPolyline
 70
0
 90
2
 38
0
 10
14522.3032449145
 20
2297.44443917251
 10
14598.2284372125
 20
2329.27572386438
  0
LWPOLYLINE
  5
202EB
100
AcDbEntity
  8
0
100
AcDbPolyline
 70
0
 90
2
 38
0
 10
14512.2153077506
 20
2332.45867984678
 10
14597.6978379202
 20
2369.59508282796
  0
LWPOLYLINE
  5
202EC
100
AcDbEntity
  8
0
100
AcDbPolyline
 70
0
 90
2
 38
0
 10
14558.4080156948
 20
2337.76408561407
 10
14644.4211451567
 20
2364.28996453865
  0
LWPOLYLINE
  5
202ED
100
AcDbEntity
  8
0
100
AcDbPolyline
 70
0
 90
2
 38
0
 10
14605.6619222237
 20
2396.12096175255
 10
14626.8997229817
 20
2333.51976100024
  0
LWPOLYLINE
  5
202EE
100
AcDbEntity
  8
0
100
AcDbPolyline
 70
0
 90
2
 38
0
 10
14595.5739850599
 20
2384.44964402047
 10
14679.4632616615
 20
2424.76900298405
  0
LWPOLYLINE
  5
202EF
100
AcDbEntity
  8
0
100
AcDbPolyline
 70
0
 90
2
 38
0
 10
14666.1895452071
 20
2401.95676435757
 10
14672.5611037881
 20
2454.478125369
  0
LWPOLYLINE
  5
202F0
100
AcDbEntity
  8
0
100
AcDbPolyline
 70
0
 90
2
 38
0
 10
14663.0037659166
 20
2439.09316733881
 10
14702.2935881419
 20
2463.49688395648
  0
LWPOLYLINE
  5
202F1
100
AcDbEntity
  8
0
100
AcDbPolyline
 70
0
 90
2
 38
0
 10
14579.114489315
 20
2302.74955746182
 10
14710.7889995832
 20
2311.76860352722
  0
LWPOLYLINE
  5
202F2
100
AcDbEntity
  8
0
100
AcDbPolyline
 70
0
 90
2
 38
0
 10
14359.1079341588
 20
2115.90584411612
 10
14565.6333369232
 20
2122.81997655227
  0
LWPOLYLINE
  5
202F3
100
AcDbEntity
  8
0
100
AcDbPolyline
 70
0
 90
2
 38
0
 10
14244.6673471348
 20
2020.70349269285
 10
14439.4824453517
 20
2085.0580215283
  0
LWPOLYLINE
  5
202F4
100
AcDbEntity
  8
0
100
AcDbPolyline
 70
0
 90
2
 38
0
 10
14361.7696647653
 20
2076.54838640953
 10
14392.1099000234
 20
2007.93889627565
  0
LWPOLYLINE
  5
202F5
100
AcDbEntity
  8
0
100
AcDbPolyline
 70
0
 90
2
 38
0
 10
14598.0566656996
 20
2086.20304624631
 10
14606.6052098547
 20
2014.1308840742
  0
LWPOLYLINE
  5
202F6
100
AcDbEntity
  8
0
100
AcDbPolyline
 70
0
 90
2
 38
0
 10
14492.2657933405
 20
1986.90355892514
 10
14618.8941514906
 20
2039.22253545211
  0
LWPOLYLINE
  5
202F7
100
AcDbEntity
  8
0
100
AcDbPolyline
 70
0
 90
2
 38
0
 10
14558.2122252837
 20
1909.98595572304
 10
14574.8172901075
 20
1860.21115914948
  0
LWPOLYLINE
  5
202F8
100
AcDbEntity
  8
0
100
AcDbPolyline
 70
0
 90
2
 38
0
 10
14550.177539977
 20
1859.14059122332
 10
14647.6644242334
 20
1901.95784618863
  0
LWPOLYLINE
  5
202F9
100
AcDbEntity
  8
0
100
AcDbPolyline
 70
0
 90
2
 38
0
 10
14623.0254019483
 20
1949.59150690987
 10
14636.9519957212
 20
1891.78860080196
  0
LWPOLYLINE
  5
202FA
100
AcDbEntity
  8
0
100
AcDbPolyline
 70
0
 90
2
 38
0
 10
14625.1674509434
 20
1782.60533370916
 10
14798.7156345866
 20
1854.85889447457
  0
LWPOLYLINE
  5
202FB
100
AcDbEntity
  8
0
100
AcDbPolyline
 70
0
 90
2
 38
0
 10
14666.9479601078
 20
1696.43611477129
 10
14800.0592371844
 20
1758.11019909993
  0
LWPOLYLINE
  5
202FC
100
AcDbEntity
  8
0
100
AcDbPolyline
 70
0
 90
2
 38
0
 10
14328.0857077662
 20
1556.68042897718
 10
14464.0908981302
 20
1575.01577331946
  0
LWPOLYLINE
  5
202FD
100
AcDbEntity
  8
0
100
AcDbPolyline
 70
0
 90
2
 38
0
 10
14210.171842521
 20
3650.45227491256
 10
14383.3015150626
 20
3553.60411216342
  0
LWPOLYLINE
  5
202FE
100
AcDbEntity
  8
0
100
AcDbPolyline
 70
0
 90
2
 38
0
 10
14345.1995365206
 20
3556.9437436345
 10
14594.5331661461
 20
3568.96635943477
  0
LWPOLYLINE
  5
202FF
100
AcDbEntity
  8
0
100
AcDbPolyline
 70
0
 90
2
 38
0
 10
14571.8054658662
 20
3411.33730638138
 10
14712.8495298943
 20
3434.71472667879
  0
LWPOLYLINE
  5
20300
100
AcDbEntity
  8
0
100
AcDbPolyline
 70
0
 90
2
 38
0
 10
16721.6664256714
 20
3304.72581712622
 10
16930.9438118715
 20
3237.16763389518
  0
LWPOLYLINE
  5
20301
100
AcDbEntity
  8
0
100
AcDbPolyline
 70
0
 90
2
 38
0
 10
16698.0558489283
 20
3386.22495659022
 10
16708.7879292661
 20
3313.30473443359
  0
LWPOLYLINE
  5
20302
100
AcDbEntity
  8
0
100
AcDbPolyline
 70
0
 90
2
 38
0
 10
16679.8109484314
 20
3334.75202770199
 10
16756.0098105976
 20
3314.37702722749
  0
LWPOLYLINE
  5
20303
100
AcDbEntity
  8
0
100
AcDbPolyline
 70
0
 90
2
 38
0
 10
16737.7649101007
 20
3335.82432049588
 10
16752.7898225736
 20
3276.84476709424
  0
LWPOLYLINE
  5
20304
100
AcDbEntity
  8
0
100
AcDbPolyline
 70
0
 90
2
 38
0
 10
16748.1912953729
 20
3166.4072336583
 10
16747.1162677257
 20
2821.74731910671
  0
LWPOLYLINE
  5
20305
100
AcDbEntity
  8
0
100
AcDbPolyline
 70
0
 90
2
 38
0
 10
16470.9528011784
 20
3138.49082383717
 10
16758.9364769278
 20
3140.63828420465
  0
LWPOLYLINE
  5
20306
100
AcDbEntity
  8
0
100
AcDbPolyline
 70
0
 90
2
 38
0
 10
16240.9951437924
 20
2891.5383436596
 10
16772.9060135791
 20
2895.83297691657
  0
LWPOLYLINE
  5
20307
100
AcDbEntity
  8
0
100
AcDbPolyline
 70
0
 90
2
 38
0
 10
16721.3265218723
 20
2972.06638257188
 10
16896.4817881458
 20
2932.3392282076
  0
ENDSEC
  0
SECTION
  2
OBJECTS
  0
DICTIONARY
  5
C
330
0
100
AcDbDictionary
281
     1
  3
ACAD_GROUP
350
D
  3
ACAD_LAYOUT
350
1A
  3
ACAD_MLEADERSTYLE
350
43
  3
ACAD_PLOTSETTINGS
350
19
  3
ACAD_PLOTSTYLENAME
350
E
  3
ACAD_TABLESTYLE
350
42
  0
DICTIONARY
  5
D
102
{ACAD_REACTORS
330
C
102
}
330
C
100
AcDbDictionary
281
     1
  0
DICTIONARY
  5
1A
102
{ACAD_REACTORS
330
C
102
}
330
C
100
AcDbDictionary
281
     1
  3
Layout1
350
1E
  3
Model
350
22
  0
DICTIONARY
  5
43
102
{ACAD_REACTORS
330
C
102
}
330
C
100
AcDbDictionary
281
     1
  0
DICTIONARY
  5
19
102
{ACAD_REACTORS
330
C
102
}
330
C
100
AcDbDictionary
281
     1
  0
ACDBDICTIONARYWDFLT
  5
E
102
{ACAD_REACTORS
330
C
102
}
330
C
100
AcDbDictionary
281
     1
  3
Normal
350
F
100
AcDbDictionaryWithDefault
340
F
  0
DICTIONARY
  5
42
102
{ACAD_REACTORS
330
C
102
}
330
C
100
AcDbDictionary
281
     1
  0
LAYOUT
  5
1E
102
{ACAD_REACTORS
330
1A
102
}
330
1A
100
AcDbPlotSettings
  1

  2
none_device
  4

  6

 40
0.0
 41
0.0
 42
0.0
 43
0.0
 44
0.0
 45
0.0
 46
0.0
 47
0.0
 48
0.0
 49
0.0
140
0.0
141
0.0
142
1.0
143
1.0
 70
   688
 72
     0
 73
     0
 74
     5
  7

 75
    16
 76
     0
 77
     2
 78
   300
147
1.0
148
0.0
149
0.0
100
AcDbLayout
  1
Layout1
 70
     1
 71
     1
 10
0.0
 20
0.0
 11
12.0
 21
9.0
 12
0.0
 22
0.0
 32
0.0
 14
1.000000000000000E+20
 24
1.000000000000000E+20
 34
1.000000000000000E+20
 15
-1.000000000000000E+20
 25
-1.000000000000000E+20
 35
-1.000000000000000E+20
146
0.0
 13
0.0
 23
0.0
 33
0.0
 16
1.0
 26
0.0
 36
0.0
 17
0.0
 27
1.0
 37
0.0
 76
     0
330
1B
  0
LAYOUT
  5
22
102
{ACAD_REACTORS
330
1A
102
}
330
1A
100
AcDbPlotSettings
  1

  2
none_device
  4

  6

 40
0.0
 41
0.0
 42
0.0
 43
0.0
 44
0.0
 45
0.0
 46
0.0
 47
0.0
 48
0.0
 49
0.0
140
0.0
141
0.0
142
1.0
143
1.0
 70
  1712
 72
     0
 73
     0
 74
     0
  7

 75
     0
 76
     0
 77
     2
 78
   300
147
1.0
148
0.0
149
0.0
100
AcDbLayout
  1
Model
 70
     1
 71
     0
 10
0.0
 20
0.0
 11
12.0
 21
9.0
 12
0.0
 22
0.0
 32
0.0
 14
30.0
 24
49.75
 34
0.0
 15
130.5
 25
163.1318914119703
 35
0.0
146
0.0
 13
0.0
 23
0.0
 33
0.0
 16
1.0
 26
0.0
 36
0.0
 17
0.0
 27
1.0
 37
0.0
 76
     0
330
1F
331
29
  0
ACDBPLACEHOLDER
  5
F
102
{ACAD_REACTORS
330
E
102
}
330
E
  0
ENDSEC
  0
EOF
