  0
SECTION
  2
HEADER
  9
$ACADVER
  1
AC1018
  9
$ACADMAINTVER
 70
     0
  9
$DWGCODEPAGE
  3
ANSI_1252
  9
$EXTMIN
 10
-189.847529418112
 20
-11.2431277293144
 30
0.0
  9
$EXTMAX
 10
7869.83213082349
 20
4457.00705602249
 30
0.0
  9
$LIMMIN
 10
0.0
 20
0.0
  9
$LIMMAX
 10
12.0
 20
9.0
  9
$ORTHOMODE
 70
     0
  9
$REGENMODE
 70
     1
  9
$FILLMODE
 70
     1
  9
$QTEXTMODE
 70
     0
  9
$MIRRTEXT
 70
     1
  9
$LTSCALE
 40
1.0
  9
$ATTMODE
 70
     1
  9
$TEXTSIZE
 40
0.2
  9
$TRACEWID
 40
0.05
  9
$TEXTSTYLE
  7
Standard
  9
$CLAYER
  8
0
  9
$CELTYPE
  6
ByLayer
  9
$CECOLOR
 62
   256
  9
$CELTSCALE
 40
1.0
  9
$DISPSILH
 70
     0
  9
$LUNITS
 70
     2
  9
$LUPREC
 70
     4
  9
$SKETCHINC
 40
0.1
  9
$FILLETRAD
 40
0.5
  9
$AUNITS
 70
     0
  9
$AUPREC
 70
     0
  9
$MENU
  1
.
  9
$ELEVATION
 40
0.0
  9
$PELEVATION
 40
0.0
  9
$THICKNESS
 40
0.0
  9
$LIMCHECK
 70
     0
  9
$CHAMFERA
 40
0.5
  9
$CHAMFERB
 40
0.5
  9
$CHAMFERC
 40
1.0
  9
$CHAMFERD
 40
0.0
  9
$SKPOLY
 70
     0
  9
$ANGBASE
 50
0.0
  9
$ANGDIR
 70
     0
  9
$PDMODE
 70
     0
  9
$PDSIZE
 40
0.0
  9
$PLINEWID
 40
0.0
  9
$SPLFRAME
 70
     0
  9
$SPLINETYPE
 70
     6
  9
$SPLINESEGS
 70
     8
  9
$HANDSEED
  5
0002028D
  9
$SURFTAB1
 70
     6
  9
$SURFTAB2
 70
     6
  9
$SURFTYPE
 70
     6
  9
$SURFU
 70
     6
  9
$SURFV
 70
     6
  9
$UCSBASE
  2

  9
$UCSNAME
  2

  9
$UCSORG
 10
0.0
 20
0.0
 30
0.0
  9
$UCSXDIR
 10
1.0
 20
0.0
 30
0.0
  9
$UCSYDIR
 10
0.0
 20
1.0
 30
0.0
  9
$UCSORTHOREF
  2

  9
$UCSORTHOVIEW
 70
     0
  9
$UCSORGTOP
 10
0.0
 20
0.0
 30
0.0
  9
$UCSORGBOTTOM
 10
0.0
 20
0.0
 30
0.0
  9
$UCSORGLEFT
 10
0.0
 20
0.0
 30
0.0
  9
$UCSORGRIGHT
 10
0.0
 20
0.0
 30
0.0
  9
$UCSORGFRONT
 10
0.0
 20
0.0
 30
0.0
  9
$UCSORGBACK
 10
0.0
 20
0.0
 30
0.0
  9
$PUCSBASE
  2

  9
$PUCSNAME
  2

  9
$PUCSORG
 10
0.0
 20
0.0
 30
0.0
  9
$PUCSXDIR
 10
1.0
 20
0.0
 30
0.0
  9
$PUCSYDIR
 10
0.0
 20
1.0
 30
0.0
  9
$PUCSORTHOREF
  2

  9
$PUCSORTHOVIEW
 70
     0
  9
$PUCSORGTOP
 10
0.0
 20
0.0
 30
0.0
  9
$PUCSORGBOTTOM
 10
0.0
 20
0.0
 30
0.0
  9
$PUCSORGLEFT
 10
0.0
 20
0.0
 30
0.0
  9
$PUCSORGRIGHT
 10
0.0
 20
0.0
 30
0.0
  9
$PUCSORGFRONT
 10
0.0
 20
0.0
 30
0.0
  9
$PUCSORGBACK
 10
0.0
 20
0.0
 30
0.0
  9
$WORLDVIEW
 70
     1
  9
$SHADEDGE
 70
     3
  9
$SHADEDIF
 70
    70
  9
$TILEMODE
 70
     1
  9
$MAXACTVP
 70
    64
  9
$PINSBASE
 10
0.0
 20
0.0
 30
0.0
  9
$PLIMCHECK
 70
     0
  9
$PEXTMIN
 10
1.000000000000000E+20
 20
1.000000000000000E+20
 30
1.000000000000000E+20
  9
$PEXTMAX
 10
-1.000000000000000E+20
 20
-1.000000000000000E+20
 30
-1.000000000000000E+20
  9
$PLIMMIN
 10
0.0
 20
0.0
  9
$PLIMMAX
 10
12.0
 20
9.0
  9
$UNITMODE
 70
     0
  9
$VISRETAIN
 70
     1
  9
$PLINEGEN
 70
     0
  9
$PSLTSCALE
 70
     1
  9
$TREEDEPTH
 70
  3020
  9
$CMLSTYLE
  2
Standard
  9
$CMLJUST
 70
     0
  9
$CMLSCALE
 40
1.0
  9
$PROXYGRAPHICS
 70
     1
  9
$MEASUREMENT
 70
     0
  9
$CELWEIGHT
370
    -1
  9
$ENDCAPS
280
     0
  9
$JOINSTYLE
280
     0
  9
$LWDISPLAY
290
     0
  9
$INSUNITS
 70
     1
  9
$HYPERLINKBASE
  1

  9
$STYLESHEET
  1

  9
$XEDIT
290
     1
  9
$CEPSNTYPE
380
     0
  9
$PSTYLEMODE
290
     1
  9
$EXTNAMES
290
     1
  9
$PSVPSCALE
 40
0.0
  9
$OLESTARTUP
290
     0
  9
$SORTENTS
280
   127
  9
$INDEXCTL
280
     0
  9
$HIDETEXT
280
     1
  9
$XCLIPFRAME
290
     0
  9
$HALOGAP
280
     0
  9
$OBSCOLOR
 70
   257
  9
$OBSLTYPE
280
     0
  9
$INTERSECTIONDISPLAY
280
     0
  9
$INTERSECTIONCOLOR
 70
   257
  9
$DIMASSOC
280
     2
  9
$PROJECTNAME
  1

  0
ENDSEC
  0
SECTION
  2
CLASSES
  0
CLASS
  1
ACDBDICTIONARYWDFLT
  2
AcDbDictionaryWithDefault
  3
ObjectDBX Classes
 90
        0
 91
        4
280
     0
281
     0
  0
ENDSEC
  0
SECTION
  2
TABLES
  0
TABLE
  2
VPORT
  5
8
330
0
100
AcDbSymbolTable
 70
     1
  0
VPORT
  5
29
330
8
100
AcDbSymbolTableRecord
100
AcDbViewportTableRecord
  2
*Active
 70
     0
 10
0.0
 20
0.0
 11
1.0
 21
1.0
 12
80.25
 22
106.4409457059851
 13
0.0
 23
0.0
 14
0.5
 24
0.5
 15
0.5
 25
0.5
 16
0.0
 26
0.0
 36
1.0
 17
0.0
 27
0.0
 37
0.0
 40
113.3818914119703
 41
0.8863849310366128
 42
50.0
 43
0.0
 44
0.0
 50
0.0
 51
0.0
 71
     0
 72
  1000
 73
     1
 74
     3
 75
     0
 76
     0
 77
     0
 78
     0
281
     0
 65
     1
110
0.0
120
0.0
130
0.0
111
1.0
121
0.0
131
0.0
112
0.0
122
1.0
132
0.0
 79
     0
146
0.0
  0
ENDTAB
  0
TABLE
  2
LTYPE
  5
5
330
0
100
AcDbSymbolTable
 70
     1
  0
LTYPE
  5
14
330
5
100
AcDbSymbolTableRecord
100
AcDbLinetypeTableRecord
  2
ByBlock
 70
     0
  3

 72
    65
 73
     0
 40
0.0
  0
LTYPE
  5
15
330
5
100
AcDbSymbolTableRecord
100
AcDbLinetypeTableRecord
  2
ByLayer
 70
     0
  3

 72
    65
 73
     0
 40
0.0
  0
LTYPE
  5
16
330
5
100
AcDbSymbolTableRecord
100
AcDbLinetypeTableRecord
  2
Continuous
 70
     0
  3
Solid line
 72
    65
 73
     0
 40
0.0
  0
ENDTAB
  0
TABLE
  2
LAYER
  5
2
330
0
100
AcDbSymbolTable
 70
     1
  0
LAYER
  5
10
330
2
100
AcDbSymbolTableRecord
100
AcDbLayerTableRecord
  2
0
 70
     0
 62
     7
  6
Continuous
370
    -3
390
F
  0
ENDTAB
  0
TABLE
  2
STYLE
  5
3
330
0
100
AcDbSymbolTable
 70
     1
  0
STYLE
  5
11
330
3
100
AcDbSymbolTableRecord
100
AcDbTextStyleTableRecord
  2
Standard
 70
     0
 40
0.0
 41
1.0
 50
0.0
 71
     0
 42
0.2
  3
txt
  4

  0
ENDTAB
  0
TABLE
  2
VIEW
  5
6
330
0
100
AcDbSymbolTable
 70
     0
  0
ENDTAB
  0
TABLE
  2
UCS
  5
7
330
0
100
AcDbSymbolTable
 70
     0
  0
ENDTAB
  0
TABLE
  2
APPID
  5
9
330
0
100
AcDbSymbolTable
 70
     1
  0
APPID
  5
12
330
9
100
AcDbSymbolTableRecord
100
AcDbRegAppTableRecord
  2
ACAD
 70
     0
  0
ENDTAB
  0
TABLE
  2
DIMSTYLE
  5
A
330
0
100
AcDbSymbolTable
 70
     1
100
AcDbDimStyleTable
  0
DIMSTYLE
105
27
330
A
100
AcDbSymbolTableRecord
100
AcDbDimStyleTableRecord
  2
Standard
 70
     0
340
11
  0
ENDTAB
  0
TABLE
  2
BLOCK_RECORD
  5
1
330
0
100
AcDbSymbolTable
 70
     1
  0
BLOCK_RECORD
  5
1F
330
1
100
AcDbSymbolTableRecord
100
AcDbBlockTableRecord
  2
*Model_Space
340
22
  0
BLOCK_RECORD
  5
1B
330
1
100
AcDbSymbolTableRecord
100
AcDbBlockTableRecord
  2
*Paper_Space
340
1E
  0
ENDTAB
  0
ENDSEC
  0
SECTION
  2
BLOCKS
  0
BLOCK
  5
20
330
1F
100
AcDbEntity
  8
0
100
AcDbBlockBegin
  2
*Model_Space
 70
     0
 10
0.0
 20
0.0
 30
0.0
  3
*Model_Space
  1

  0
ENDBLK
  5
21
330
1F
100
AcDbEntity
  8
0
100
AcDbBlockEnd
  0
BLOCK
  5
1C
330
1B
100
AcDbEntity
 67
     1
  8
0
100
AcDbBlockBegin
  2
*Paper_Space
 70
     0
 10
0.0
 20
0.0
 30
0.0
  3
*Paper_Space
  1

  0
ENDBLK
  5
1D
330
1B
100
AcDbEntity
 67
     1
  8
0
100
AcDbBlockEnd
  0
ENDSEC
  0
SECTION
  2
ENTITIES
  0
LWPOLYLINE
  5
20000
100
AcDbEntity
  8
0
100
AcDbPolyline
 70
0
 90
4
 38
-1.79769313486232e+308
 10
1957.82737508864
 20
1628.14482895282
 10
2002.04904279934
 20
1458.96426285288
 10
2364.14574286976
 20
73.9627301478467
 10
2376.00493120794
 20
30.1645418290386
  0
LWPOLYLINE
  5
20001
100
AcDbEntity
  8
0
100
AcDbPolyline
 70
0
 90
2
 38
0
 10
1253.73270900996
 20
1560.39691950844
 10
748.552614648652
 20
1492.9411999853
  0
LWPOLYLINE
  5
20002
100
AcDbEntity
  8
0
100
AcDbPolyline
 70
0
 90
12
 38
-1.79769313486232e+308
 10
1630.37552693934
 20
3484.94830926319
 10
1620.18422755861
 20
3576.15330624158
 10
1611.94435884879
 20
3634.67151201001
 10
1597.57078619936
 20
3736.67705004566
 10
1591.34913985879
 20
3784.36420924679
 10
1580.63686525897
 20
3866.440427558
 10
1560.49471659848
 20
3978.05156372485
 10
1556.5684781585
 20
4004.19706658876
 10
1551.64593026863
 20
4063.80601998043
 10
1531.08076754847
 20
4160.67988957182
 10
1504.96855458879
 20
4256.47218974677
 10
1444.40334872764
 20
4457.00705602249
  0
LWPOLYLINE
  5
20003
100
AcDbEntity
  8
0
100
AcDbPolyline
 70
0
 90
9
 38
-1.79769313486232e+308
 10
1430.33419885829
 20
4457.00705602249
 10
1494.58355928847
 20
4253.0792992287
 10
1520.95069388003
 20
4155.23219180011
 10
1540.6497909695
 20
4065.2202411168
 10
1542.83165298851
 20
4003.4492765567
 10
1555.34285055922
 20
3932.0503855678
 10
1584.1556743689
 20
3737.87942961507
 10
1608.5658123091
 20
3567.26149703001
 10
1617.92555509025
 20
3484.81657966549
  0
LWPOLYLINE
  5
20004
100
AcDbEntity
  8
0
100
AcDbPolyline
 70
0
 90
17
 38
-1.79769313486232e+308
 10
7284.13838402396
 20
4457.00705602249
 10
7315.47639328876
 20
4216.68101626818
 10
7356.70690628962
 20
4019.47963154034
 10
7374.54251509981
 20
3782.853157395
 10
7400.98868652881
 20
3386.00556377784
 10
7435.4264842
 20
2894.8703706199
 10
7459.36462749989
 20
2569.00892752872
 10
7459.85220686981
 20
2554.45129217856
 10
7468.31471455918
 20
2189.84309673493
 10
7469.84535755852
 20
2123.9942880836
 10
7473.60127718077
 20
1899.02647877994
 10
7475.88332673983
 20
1762.23036196825
 10
7488.3856187489
 20
1267.04335672871
 10
7488.78525571973
 20
1251.45423729063
 10
7500.16544726939
 20
941.63337046557
 10
7495.59912175947
 20
847.251754379802
 10
7492.60462745914
 20
826.11102014684
  0
LWPOLYLINE
  5
20005
100
AcDbEntity
  8
0
100
AcDbPolyline
 70
0
 90
7
 38
-1.79769313486232e+308
 10
1815.11022191012
 20
1614.47022250059
 10
1875.48546093964
 20
1598.76058435856
 10
1901.14126397745
 20
1583.74437862539
 10
1931.75523714983
 20
1558.74280383854
 10
1958.23146483937
 20
1527.95511524842
 10
1983.04235294909
 20
1493.83862726574
 10
2002.04904279934
 20
1458.96426285288
  0
LWPOLYLINE
  5
20006
100
AcDbEntity
  8
0
100
AcDbPolyline
 70
0
 90
7
 38
-1.79769313486232e+308
 10
2002.04904279934
 20
1458.96426285288
 10
2007.04728793987
 20
1517.020681038
 10
2013.66300527827
 20
1541.07696534551
 10
2026.90334550926
 20
1565.11521785983
 10
2046.76942183898
 20
1589.13543847154
 10
2070.76322487817
 20
1609.82550827783
 10
2103.03585845867
 20
1627.27580016848
  0
LWPOLYLINE
  5
20007
100
AcDbEntity
  8
0
100
AcDbPolyline
 70
0
 90
11
 38
-1.79769313486232e+308
 10
4150.87255068013
 20
2111.88035557323
 10
4138.16765719914
 20
2121.47749206467
 10
4106.61748712027
 20
2146.7539465781
 10
4091.55818639958
 20
2155.5285322936
 10
4076.45435788931
 20
2160.77779068841
 10
4043.20322598965
 20
2172.3158362135
 10
3721.26391903014
 20
2275.7080434188
 10
3677.08121312858
 20
2289.8960319203
 10
3481.36039761902
 20
2353.10877070387
 10
3443.47726169863
 20
2362.94757389041
 10
3313.30024916941
 20
2407.50057064553
  0
LWPOLYLINE
  5
20008
100
AcDbEntity
  8
0
100
AcDbPolyline
 70
0
 90
2
 38
0
 10
3443.47726169863
 20
2362.94757389041
 10
3394.38313987927
 20
2095.74912488178
  0
LWPOLYLINE
  5
20009
100
AcDbEntity
  8
0
100
AcDbPolyline
 70
0
 90
8
 38
-1.79769313486232e+308
 10
3364.06193696969
 20
1930.70865961161
 10
3359.47446075903
 20
1906.42436094346
 10
3355.57716537901
 20
1892.52218276492
 10
3334.92962622904
 20
1781.36083571004
 10
3317.5994079102
 20
1639.18266188164
 10
3320.49594105856
 20
1622.29534958673
 10
3319.77236436942
 20
1591.53074843992
 10
3293.44307839946
 20
1358.79784704369
  0
LWPOLYLINE
  5
2000A
100
AcDbEntity
  8
0
100
AcDbPolyline
 70
0
 90
10
 38
-1.79769313486232e+308
 10
3293.44307839946
 20
1358.79784704369
 10
3310.4972243894
 20
1370.38164236161
 10
3326.84894440026
 20
1488.57415188846
 10
3339.13416339905
 20
1577.48429574163
 10
3342.59953915031
 20
1602.5078594051
 10
3348.96367443987
 20
1629.30697749366
 10
3345.93355789856
 20
1647.66764742552
 10
3381.50124839955
 20
1880.95340250383
 10
3382.15692019911
 20
1898.31109644563
 10
3364.06193696969
 20
1930.70865961161
  0
LWPOLYLINE
  5
2000B
100
AcDbEntity
  8
0
100
AcDbPolyline
 70
0
 90
6
 38
-1.79769313486232e+308
 10
2909.30511915946
 20
1992.92140883344
 10
3052.23043977917
 20
1977.3933732798
 10
3116.07439413929
 20
1959.0386788719
 10
3178.93205780984
 20
1949.75674566996
 10
3352.05946947896
 20
1924.22629943487
 10
3364.06193696969
 20
1930.70865961161
  0
LWPOLYLINE
  5
2000C
100
AcDbEntity
  8
0
100
AcDbPolyline
 70
0
 90
4
 38
-1.79769313486232e+308
 10
3086.24967616872
 20
2201.74790802781
 10
3101.75091525988
 20
2252.29215089694
 10
3112.73369621934
 20
2308.14273583281
 10
3138.21138808021
 20
2459.0671067205
  0
LWPOLYLINE
  5
2000D
100
AcDbEntity
  8
0
100
AcDbPolyline
 70
0
 90
7
 38
-1.79769313486232e+308
 10
3138.21138808021
 20
2459.0671067205
 10
3128.43085762003
 20
2460.89825725972
 10
2965.2876910817
 20
2491.96070621299
 10
2832.62491430977
 20
2522.5299293054
 10
2707.71554008947
 20
2546.34148399483
 10
2681.69794869871
 20
2548.15198530487
 10
2626.56585768872
 20
2547.09306153978
  0
LWPOLYLINE
  5
2000E
100
AcDbEntity
  8
0
100
AcDbPolyline
 70
0
 90
3
 38
-1.79769313486232e+308
 10
2707.71554008947
 20
2546.34148399483
 10
2679.96693061927
 20
2562.08200659553
 10
2626.84638279938
 20
2602.30055823034
  0
LWPOLYLINE
  5
2000F
100
AcDbEntity
  8
0
100
AcDbPolyline
 70
0
 90
16
 38
-1.79769313486232e+308
 10
2410.40344406926
 20
3432.34310813804
 10
2365.63074487896
 20
3431.94533807875
 10
2024.64578623959
 20
3428.96206303683
 10
1881.11600077973
 20
3428.57720769287
 10
1657.67885844858
 20
3427.99088447305
 10
1636.75079418049
 20
3427.93535165998
 10
1624.29080358037
 20
3428.78513289194
 10
1384.70454271027
 20
3431.90530277972
 10
1301.43756359891
 20
3435.44778136813
 10
1279.52543502935
 20
3438.82107943992
 10
1261.9959548086
 20
3444.36403520682
 10
1202.82964545937
 20
3480.82982278985
 10
1022.06682991871
 20
3580.345438085
 10
668.22780967952
 20
3758.49296015824
 10
639.741151978087
 20
3762.97573917356
 10
494.699238596267
 20
3765.17781622589
  0
LWPOLYLINE
  5
20010
100
AcDbEntity
  8
0
100
AcDbPolyline
 70
0
 90
13
 38
-1.79769313486232e+308
 10
2936.90189263724
 20
2247.18485035263
 10
2969.39760667906
 20
2362.58728682852
 10
2972.81845462957
 20
2392.37880020306
 10
2965.2876910817
 20
2491.96070621299
 10
2989.47964281851
 20
2688.93798475011
 10
2995.73357180954
 20
2749.42660110301
 10
3000.4880272586
 20
2795.45186607304
 10
3010.00918330887
 20
2902.6304321666
 10
3030.21033129917
 20
3016.43617811005
 10
3054.30988787004
 20
3328.97239133294
 10
3089.4501115203
 20
3547.35729851571
 10
3088.30908673891
 20
3584.03518682529
 10
3088.22114434914
 20
3585.81742496693
  0
LWPOLYLINE
  5
20011
100
AcDbEntity
  8
0
100
AcDbPolyline
 70
0
 90
5
 38
-1.79769313486232e+308
 10
4076.45435788931
 20
2160.77779068841
 10
4096.24362376967
 20
2137.71980997312
 10
4100.81774164998
 20
2119.37004703979
 10
4099.67337727995
 20
2106.76541539325
 10
4095.42987828964
 20
2090.95185685667
  0
LWPOLYLINE
  5
20012
100
AcDbEntity
  8
0
100
AcDbPolyline
 70
0
 90
5
 38
-1.79769313486232e+308
 10
4091.55818639958
 20
2155.5285322936
 10
4116.82437122875
 20
2158.3061838797
 10
4177.41000408941
 20
2167.35583123981
 10
4213.76249699929
 20
2176.09298268284
 10
4229.95614332967
 20
2179.97472823501
  0
LWPOLYLINE
  5
20013
100
AcDbEntity
  8
0
100
AcDbPolyline
 70
0
 90
10
 38
-1.79769313486232e+308
 10
4464.4985180691
 20
2036.46199357553
 10
4465.85661584959
 20
2082.5840828181
 10
4472.5380116895
 20
2151.97220939861
 10
4478.75186566898
 20
2229.47419132988
 10
4479.71923204028
 20
2241.4591031335
 10
4482.54229432979
 20
2266.97727952289
 10
4481.45470289962
 20
2282.46564075301
 10
4493.66867742949
 20
2367.00887499374
 10
4496.39266537019
 20
2403.97258637191
 10
4531.85905513988
 20
2703.03991628482
  0
LWPOLYLINE
  5
20014
100
AcDbEntity
  8
0
100
AcDbPolyline
 70
0
 90
9
 38
-1.79769313486232e+308
 10
4230.00735030026
 20
2276.12643840673
 10
4070.86834583879
 20
2325.36026209543
 10
4100.40585952887
 20
2590.09706041354
 10
4117.81956746877
 20
2746.23040839887
 10
4131.72559825965
 20
2750.80193275816
 10
4393.04587650934
 20
2719.6006663148
 10
4531.85905513988
 20
2703.03991628482
 10
4586.57815083937
 20
2696.62301892179
 10
4691.38767780998
 20
2684.34452932884
  0
LWPOLYLINE
  5
20015
100
AcDbEntity
  8
0
100
AcDbPolyline
 70
0
 90
11
 38
-1.79769313486232e+308
 10
4213.76249699929
 20
2176.09298268284
 10
4207.13453451992
 20
2210.83890937545
 10
4205.99239654915
 20
2240.64039421824
 10
4215.14508508035
 20
2262.39947422032
 10
4230.00735030026
 20
2276.12643840673
 10
4493.66867742949
 20
2367.00887499374
 10
4674.7609986689
 20
2403.64845609289
 10
4697.63381443993
 20
2403.60842406561
 10
4823.64636482002
 20
2386.88150523786
 10
4846.27650410013
 20
2383.87135954059
 10
4951.48678124027
 20
2369.93895282035
  0
LWPOLYLINE
  5
20016
100
AcDbEntity
  8
0
100
AcDbPolyline
 70
0
 90
7
 38
-1.79769313486232e+308
 10
4817.97574995906
 20
2331.98229451847
 10
4823.64636482002
 20
2386.88150523786
 10
4841.71685776004
 20
2490.47047139888
 10
4848.21791602002
 20
2505.27468365474
 10
4854.29596021847
 20
2519.09876534386
 10
4877.16766280012
 20
2632.52266837793
 10
4884.91215977893
 20
2655.36072951692
  0
LWPOLYLINE
  5
20017
100
AcDbEntity
  8
0
100
AcDbPolyline
 70
0
 90
11
 38
-1.79769313486232e+308
 10
5200.80681837798
 20
2571.25075063293
 10
5213.18331937009
 20
2373.58960605177
 10
5215.63791413867
 20
2359.45575993552
 10
5220.20201325865
 20
2319.03136891869
 10
5243.0893005699
 20
2116.19209292807
 10
5249.94769439922
 20
1995.8526908755
 10
5243.4243722398
 20
1816.32519283189
 10
5242.91007618868
 20
1781.11678155974
 10
5234.37409763859
 20
1749.31747004294
 10
5200.27137162984
 20
1555.5391659131
 10
5190.16801465006
 20
1511.27842823553
  0
LWPOLYLINE
  5
20018
100
AcDbEntity
  8
0
100
AcDbPolyline
 70
0
 90
8
 38
-1.79769313486232e+308
 10
4674.7609986689
 20
2403.64845609289
 10
4691.37431947031
 20
2490.30517673303
 10
4694.87531745882
 20
2514.89278203805
 10
4694.6983194694
 20
2523.35382203382
 10
4691.38767780998
 20
2684.34452932884
 10
4691.38879099936
 20
2702.26121031164
 10
4704.2428526085
 20
2875.53674500293
 10
4710.24297315889
 20
2897.55003852674
  0
LWPOLYLINE
  5
20019
100
AcDbEntity
  8
0
100
AcDbPolyline
 70
0
 90
4
 38
-1.79769313486232e+308
 10
4712.18995104992
 20
3089.61720648545
 10
4705.43953712919
 20
3158.91919462846
 10
4670.41619893984
 20
3526.68987214655
 10
4655.22999399976
 20
3688.31074915358
  0
LWPOLYLINE
  5
2001A
100
AcDbEntity
  8
0
100
AcDbPolyline
 70
0
 90
6
 38
-1.79769313486232e+308
 10
5235.97264552937
 20
3349.33341860303
 10
5234.99526039959
 20
3356.65983207381
 10
5257.55749479012
 20
3752.90337219552
 10
5274.62277272978
 20
4216.23026819804
 10
5285.11463473999
 20
4398.65669404852
 10
5287.72618998849
 20
4409.15579340976
  0
LWPOLYLINE
  5
2001B
100
AcDbEntity
  8
0
100
AcDbPolyline
 70
0
 90
6
 38
-1.79769313486232e+308
 10
4891.40653886908
 20
3714.78497984304
 10
5058.46369869897
 20
3733.52580875807
 10
5257.55749479012
 20
3752.90337219552
 10
5733.09877473005
 20
3798.18323889884
 10
5827.42868483887
 20
3809.87001703537
 10
5927.9076764347
 20
3826.11385507014
  0
LWPOLYLINE
  5
2001C
100
AcDbEntity
  8
0
100
AcDbPolyline
 70
0
 90
5
 38
-1.79769313486232e+308
 10
5337.55390725919
 20
2792.34089378497
 10
5365.40159108007
 20
2799.00449664003
 10
5382.24868282007
 20
2809.7140502501
 10
5394.49493999855
 20
2815.83140095181
 10
5817.0848777488
 20
2890.42406026131
  0
LWPOLYLINE
  5
2001D
100
AcDbEntity
  8
0
100
AcDbPolyline
 70
0
 90
4
 38
-1.79769313486232e+308
 10
5817.0848777488
 20
2890.42406026131
 10
5820.13948458136
 20
2872.01250371008
 10
5792.9931135595
 20
2473.17782018796
 10
5790.07765608915
 20
2430.40149995821
  0
LWPOLYLINE
  5
2001E
100
AcDbEntity
  8
0
100
AcDbPolyline
 70
0
 90
3
 38
-1.79769313486232e+308
 10
5363.56481947826
 20
2420.47224901474
 10
5377.6333767295
 20
2429.28576633378
 10
5792.9931135595
 20
2473.17782018796
  0
LWPOLYLINE
  5
2001F
100
AcDbEntity
  8
0
100
AcDbPolyline
 70
0
 90
7
 38
-1.79769313486232e+308
 10
4155.81290968024
 20
2068.34209254567
 10
4233.0385800291
 20
2107.36459030301
 10
4405.35113301949
 20
2054.57919804795
 10
4464.4985180691
 20
2036.46199357553
 10
4776.57714452856
 20
1934.77886037852
 10
4897.83635266015
 20
1894.81553749877
 10
4902.86910682992
 20
1893.15363005825
  0
LWPOLYLINE
  5
20020
100
AcDbEntity
  8
0
100
AcDbPolyline
 70
0
 90
19
 38
-1.79769313486232e+308
 10
4012.8185709797
 20
1856.26114919034
 10
3993.09164400847
 20
1802.3378887749
 10
3961.89101712854
 20
1719.01612986668
 10
3958.56924352871
 20
1710.13725444159
 10
3954.13761459925
 20
1694.16924031355
 10
3951.48153155
 20
1673.76698746995
 10
3955.01258579904
 20
1497.18557964309
 10
3956.84601780848
 20
1350.18780521533
 10
3957.65197091998
 20
1285.10393032475
 10
3964.7107398294
 20
1056.16254349562
 10
3957.63082021923
 20
982.533667820477
 10
3955.64265411982
 20
973.239542617899
 10
3952.32088050881
 20
957.695979290613
 10
3950.54310823866
 20
934.633746456791
 10
3957.61523548962
 20
757.152420453232
 10
3962.01569495985
 20
473.209452982963
 10
3968.89857908041
 20
264.496843395726
 10
3971.73611289897
 20
178.596552261122
 10
3981.59476444972
 20
30.1645418290385
  0
LWPOLYLINE
  5
20021
100
AcDbEntity
  8
0
100
AcDbPolyline
 70
0
 90
9
 38
-1.79769313486232e+308
 10
4074.52296471858
 20
2024.88662441677
 10
4086.87497541943
 20
2041.82096438386
 10
4098.69153937028
 20
2049.6889707199
 10
4116.41694188939
 20
2053.60554291491
 10
4143.00671545864
 20
2059.48104915672
 10
4155.81290968024
 20
2068.34209254567
 10
4158.76732896903
 20
2082.15665500282
 10
4156.80253994913
 20
2095.98156321977
 10
4150.87255068013
 20
2111.88035557323
  0
LWPOLYLINE
  5
20022
100
AcDbEntity
  8
0
100
AcDbPolyline
 70
0
 90
9
 38
-1.79769313486232e+308
 10
3326.84894440026
 20
1488.57415188846
 10
3485.79759251961
 20
1478.35381905499
 10
3536.17300168873
 20
1475.14116276565
 10
3615.91894530953
 20
1460.41951153983
 10
3669.17307650932
 20
1450.83450044037
 10
3775.5833777588
 20
1421.25827281314
 10
3834.11516601854
 20
1403.80051902865
 10
3897.95578079001
 20
1376.99413357858
 10
3956.84601780848
 20
1350.18780521533
  0
LWPOLYLINE
  5
20023
100
AcDbEntity
  8
0
100
AcDbPolyline
 70
0
 90
14
 38
-1.79769313486232e+308
 10
3339.13416339905
 20
1577.48429574163
 10
3354.41165031941
 20
1579.10225828362
 10
3371.15410173015
 20
1577.70768560885
 10
3377.91564759874
 20
1567.04953991665
 10
3385.75365294964
 20
1561.49062452369
 10
3393.7475055799
 20
1564.90732345075
 10
3398.58879023866
 20
1570.92851508499
 10
3474.63558717893
 20
1591.25183361812
 10
3490.36837080942
 20
1597.71207065877
 10
3532.52951474936
 20
1615.01514043284
 10
3598.36497479939
 20
1644.4717345298
 10
3649.44392315002
 20
1665.97927550037
 10
3682.36888894887
 20
1673.8767463355
 10
3719.97817890981
 20
1673.80701717359
  0
LWPOLYLINE
  5
20024
100
AcDbEntity
  8
0
100
AcDbPolyline
 70
0
 90
10
 38
-1.79769313486232e+308
 10
3490.36837080942
 20
1597.71207065877
 10
3498.78189792001
 20
1553.48217512059
 10
3496.5154330887
 20
1523.89666743154
 10
3491.97248466947
 20
1498.86422121662
 10
3485.79759251961
 20
1478.35381905499
 10
3482.47693210916
 20
1467.17667113055
 10
3472.67079817021
 20
1443.13731440573
 10
3464.7303788893
 20
1416.97518112508
 10
3461.32066287921
 20
1396.49848496352
 10
3459.05308485852
 20
1369.17432399324
  0
LWPOLYLINE
  5
20025
100
AcDbEntity
  8
0
100
AcDbPolyline
 70
0
 90
29
 38
-1.79769313486232e+308
 10
3717.71505365969
 20
1699.9929274148
 10
3719.97817890981
 20
1673.80701717359
 10
3714.30199807027
 20
1631.71391659507
 10
3699.54103360028
 20
1595.32321587854
 10
3674.564279449
 20
1541.88013355012
 10
3643.91357084998
 20
1490.72281167374
 10
3615.91894530953
 20
1460.41951153983
 10
3580.33900966012
 20
1421.42871845557
 10
3558.77419789956
 20
1394.16002720545
 10
3549.6905274585
 20
1370.27317739182
 10
3545.14757902996
 20
1346.3889554003
 10
3541.74565539957
 20
1291.76415268003
 10
3546.28415103891
 20
1249.63617508809
 10
3559.89407197834
 20
1198.38190733499
 10
3579.18796612026
 20
1138.0117907128
 10
3604.1569279086
 20
1098.11168497472
 10
3640.47491177992
 20
1057.06381329006
 10
3655.23031028995
 20
1020.61021322661
 10
3656.12865858042
 20
1010.27534241878
 10
3658.36951992923
 20
977.439845920046
 10
3646.14107385912
 20
935.259980875038
 10
3621.16543291026
 20
895.471561074693
 10
3587.11947983951
 20
868.232415546634
 10
3551.93027560861
 20
852.373929924768
 10
3504.25213769899
 20
847.934797077876
 10
3459.99484774919
 20
848.035510373738
 10
3416.85965825879
 20
854.952449635574
 10
3391.8895832792
 20
860.706023811799
 10
3364.65526986011
 20
871.009783062123
  0
LWPOLYLINE
  5
20026
100
AcDbEntity
  8
0
100
AcDbPolyline
 70
0
 90
4
 38
-1.79769313486232e+308
 10
3178.93205780984
 20
1949.75674566996
 10
3178.53130764031
 20
1932.92712547813
 10
3164.34586493002
 20
1810.59313383323
 10
3141.12907192932
 20
1610.44919373977
  0
LWPOLYLINE
  5
20027
100
AcDbEntity
  8
0
100
AcDbPolyline
 70
0
 90
2
 38
0
 10
3164.34586493002
 20
1810.59313383323
 10
3334.92962622904
 20
1781.36083571004
  0
LWPOLYLINE
  5
20028
100
AcDbEntity
  8
0
100
AcDbPolyline
 70
0
 90
10
 38
-1.79769313486232e+308
 10
3141.12907192932
 20
1610.44919373977
 10
3137.28632310854
 20
1597.53000117184
 10
3110.60526754969
 20
1367.29168231689
 10
3103.53981946857
 20
1306.33323996325
 10
3045.41546055005
 20
858.246293058124
 10
3004.17270241008
 20
518.193465153657
 10
2988.82285782026
 20
398.615624253143
 10
2971.37352763937
 20
262.681505993445
 10
2946.9934459597
 20
71.0409334255091
 10
2942.11833856138
 20
30.1645418290384
  0
LWPOLYLINE
  5
20029
100
AcDbEntity
  8
0
100
AcDbPolyline
 70
0
 90
2
 38
0
 10
747.253516188648
 20
1482.45744632694
 10
1271.25105727912
 20
1549.468913455
  0
LWPOLYLINE
  5
2002A
100
AcDbEntity
  8
0
100
AcDbPolyline
 70
0
 90
3
 38
-1.79769313486232e+308
 10
5623.12402337865
 20
1664.38970994574
 10
5670.92461272963
 20
1650.50587701189
 10
5810.1069335099
 20
1623.10186606359
  0
LWPOLYLINE
  5
2002B
100
AcDbEntity
  8
0
100
AcDbPolyline
 70
0
 90
2
 38
0
 10
5567.31288347842
 20
1680.61077745861
 10
5623.12402337865
 20
1664.38970994574
  0
LWPOLYLINE
  5
2002C
100
AcDbEntity
  8
0
100
AcDbPolyline
 70
0
 90
3
 38
-1.79769313486232e+308
 10
4710.24297315889
 20
2897.55003852674
 10
4712.43930671999
 20
3011.3621956119
 10
4715.94141788856
 20
3051.16763680798
  0
LWPOLYLINE
  5
2002D
100
AcDbEntity
  8
0
100
AcDbPolyline
 70
0
 90
2
 38
0
 10
4715.94141788856
 20
3051.16763680798
 10
4712.18995104992
 20
3089.61720648545
  0
LWPOLYLINE
  5
2002E
100
AcDbEntity
  8
0
100
AcDbPolyline
 70
0
 90
13
 38
-1.79769313486232e+308
 10
5385.93224476912
 20
2390.62643224883
 10
5363.56481947826
 20
2420.47224901474
 10
5341.29869492986
 20
2465.13263247997
 10
5333.44621804991
 20
2522.90830009847
 10
5330.82687043847
 20
2578.02916865281
 10
5343.93362727837
 20
2659.40146288366
 10
5349.1834544696
 20
2714.51130686046
 10
5345.25165004918
 20
2746.02120308575
 10
5337.55390725919
 20
2792.34089378497
 10
5333.46625555941
 20
2816.91617529371
 10
5324.30577465968
 20
2928.49733855479
 10
5258.6773688689
 20
3231.6438817498
 10
5242.09187792876
 20
3303.31129328298
  0
LWPOLYLINE
  5
2002F
100
AcDbEntity
  8
0
100
AcDbPolyline
 70
0
 90
2
 38
0
 10
5242.09187792876
 20
3303.31129328298
 10
5235.97264552937
 20
3349.33341860303
  0
LWPOLYLINE
  5
20030
100
AcDbEntity
  8
0
100
AcDbPolyline
 70
0
 90
2
 38
0
 10
3110.60526754969
 20
1367.29168231689
 10
3293.44307839946
 20
1358.79784704369
  0
LWPOLYLINE
  5
20031
100
AcDbEntity
  8
0
100
AcDbPolyline
 70
0
 90
2
 38
0
 10
4655.22999399976
 20
3688.31074915358
 10
4833.69072247
 20
3708.31978133318
  0
LWPOLYLINE
  5
20032
100
AcDbEntity
  8
0
100
AcDbPolyline
 70
0
 90
2
 38
0
 10
4833.69072247
 20
3708.31978133318
 10
4891.40653886908
 20
3714.78497984304
  0
LWPOLYLINE
  5
20033
100
AcDbEntity
  8
0
100
AcDbPolyline
 70
0
 90
7
 38
-1.79769313486232e+308
 10
4930.93388673497
 20
4457.00705602249
 10
5010.26903835946
 20
4445.24724081156
 10
5176.18739979976
 20
4417.67235307532
 10
5255.85764615872
 20
4404.43642843372
 10
5287.72618998849
 20
4409.15579340976
 10
5748.8694069896
 20
4438.89661611008
 10
5978.7427544827
 20
4457.00705602249
  0
LWPOLYLINE
  5
20034
100
AcDbEntity
  8
0
100
AcDbPolyline
 70
0
 90
2
 38
0
 10
5331.26880880894
 20
2370.93200270875
 10
5389.07590719015
 20
2376.65915152195
  0
LWPOLYLINE
  5
20035
100
AcDbEntity
  8
0
100
AcDbPolyline
 70
0
 90
2
 38
0
 10
5963.69598670938
 20
2447.50813651874
 10
5905.86217166
 20
2441.80419993491
  0
LWPOLYLINE
  5
20036
100
AcDbEntity
  8
0
100
AcDbPolyline
 70
0
 90
4
 38
-1.79769313486232e+308
 10
5389.07590719015
 20
2376.65915152195
 10
5472.3217355989
 20
2384.9225214468
 10
5681.52334144973
 20
2405.6771760131
 10
5904.36158492864
 20
2427.81749203007
  0
LWPOLYLINE
  5
20037
100
AcDbEntity
  8
0
100
AcDbPolyline
 70
0
 90
2
 38
0
 10
5904.36158492864
 20
2427.81749203007
 10
5962.1720228892
 20
2433.56016303782
  0
LWPOLYLINE
  5
20038
100
AcDbEntity
  8
0
100
AcDbPolyline
 70
0
 90
3
 38
-1.79769313486232e+308
 10
3258.34404295014
 20
2426.30789444313
 10
3208.00870880002
 20
2443.54107869879
 10
3138.21138808021
 20
2459.0671067205
  0
LWPOLYLINE
  5
20039
100
AcDbEntity
  8
0
100
AcDbPolyline
 70
0
 90
2
 38
0
 10
3313.30024916941
 20
2407.50057064553
 10
3258.34404295014
 20
2426.30789444313
  0
LWPOLYLINE
  5
2003A
100
AcDbEntity
  8
0
100
AcDbPolyline
 70
0
 90
2
 38
0
 10
3383.91020217986
 20
2038.72180026348
 10
3364.06193696969
 20
1930.70865961161
  0
LWPOLYLINE
  5
2003B
100
AcDbEntity
  8
0
100
AcDbPolyline
 70
0
 90
2
 38
0
 10
3394.38313987927
 20
2095.74912488178
 10
3383.91020217986
 20
2038.72180026348
  0
LWPOLYLINE
  5
2003C
100
AcDbEntity
  8
0
100
AcDbPolyline
 70
0
 90
14
 38
-1.79769313486232e+308
 10
4960.27322864981
 20
2346.95806985346
 10
4817.97574995906
 20
2331.98229451847
 10
4755.89620952943
 20
2325.4493650831
 10
4615.33420169988
 20
2312.1097509707
 10
4512.74661175982
 20
2290.14526131281
 10
4481.45470289962
 20
2282.46564075301
 10
4425.01572106854
 20
2264.7071011136
 10
4300.82101797016
 20
2215.61556172042
 10
4229.95614332967
 20
2179.97472823501
 10
4196.50240994879
 20
2163.15900481489
 10
4138.16765719914
 20
2121.47749206467
 10
4095.42987828964
 20
2090.95185685667
 10
4070.58448113949
 20
2073.1897135032
 10
3905.99193482922
 20
1954.62110797313
  0
LWPOLYLINE
  5
2003D
100
AcDbEntity
  8
0
100
AcDbPolyline
 70
0
 90
2
 38
0
 10
3905.99193482922
 20
1954.62110797313
 10
3858.94831802027
 20
1920.72427675684
  0
LWPOLYLINE
  5
2003E
100
AcDbEntity
  8
0
100
AcDbPolyline
 70
0
 90
13
 38
-1.79769313486232e+308
 10
2419.19100467936
 20
1621.31656279691
 10
2900.19807162025
 20
1600.16290700665
 10
2977.53728783951
 20
1595.73513188676
 10
3113.05206995906
 20
1595.76612243472
 10
3137.28632310854
 20
1597.53000117184
 10
3214.75578313955
 20
1603.18190417482
 10
3320.49594105856
 20
1622.29534958673
 10
3348.96367443987
 20
1629.30697749366
 10
3405.03307555878
 20
1642.76466542992
 10
3501.68844982871
 20
1678.64415591673
 10
3593.37340882869
 20
1718.69847365699
 10
3673.01359894016
 20
1765.1370557686
 10
3876.06035014876
 20
1913.97203888369
  0
LWPOLYLINE
  5
2003F
100
AcDbEntity
  8
0
100
AcDbPolyline
 70
0
 90
2
 38
0
 10
2384.32907973864
 20
1622.85705444074
 10
2419.19100467936
 20
1621.31656279691
  0
LWPOLYLINE
  5
20040
100
AcDbEntity
  8
0
100
AcDbPolyline
 70
0
 90
4
 38
-1.79769313486232e+308
 10
4076.62467670889
 20
2061.00997254855
 10
4077.17904776969
 20
2044.41134964532
 10
4074.52296471858
 20
2024.88662441677
 10
4032.74587301985
 20
1910.71407572037
  0
LWPOLYLINE
  5
20041
100
AcDbEntity
  8
0
100
AcDbPolyline
 70
0
 90
2
 38
0
 10
4032.74587301985
 20
1910.71407572037
 10
4012.8185709797
 20
1856.26114919034
  0
LWPOLYLINE
  5
20042
100
AcDbEntity
  8
0
100
AcDbPolyline
 70
0
 90
12
 38
-1.79769313486232e+308
 10
3922.81564947852
 20
1948.25753589856
 10
4076.62467670889
 20
2061.00997254855
 10
4150.87255068013
 20
2111.88035557323
 10
4229.18915203848
 20
2165.52343208386
 10
4341.91683438868
 20
2220.21272005697
 10
4428.93528033868
 20
2252.46777315575
 10
4482.54229432979
 20
2266.97727952289
 10
4517.35635187925
 20
2275.97922535471
 10
4620.69868796022
 20
2299.46747726991
 10
4757.80645199009
 20
2313.36881365484
 10
4905.72111218871
 20
2328.2554638297
 10
4957.49469415919
 20
2333.46476247159
  0
LWPOLYLINE
  5
20043
100
AcDbEntity
  8
0
100
AcDbPolyline
 70
0
 90
2
 38
0
 10
3876.06035014876
 20
1913.97203888369
 10
3922.81564947852
 20
1948.25753589856
  0
LWPOLYLINE
  5
20044
100
AcDbEntity
  8
0
100
AcDbPolyline
 70
0
 90
4
 38
-1.79769313486232e+308
 10
5905.86217166
 20
2441.80419993491
 10
5790.07765608915
 20
2430.40149995821
 10
5385.93224476912
 20
2390.62643224883
 10
5383.46429165901
 20
2390.38494899074
  0
LWPOLYLINE
  5
20045
100
AcDbEntity
  8
0
100
AcDbPolyline
 70
0
 90
2
 38
0
 10
5383.46429165901
 20
2390.38494899074
 10
5325.65830647835
 20
2384.70944808188
  0
LWPOLYLINE
  5
20046
100
AcDbEntity
  8
0
100
AcDbPolyline
 70
0
 90
2
 38
-1.79769313486232e+308
 10
5188.5599724095
 20
4457.00705602249
 10
5176.18739979976
 20
4417.67235307532
  0
LWPOLYLINE
  5
20047
100
AcDbEntity
  8
0
100
AcDbPolyline
 70
0
 90
15
 38
-1.79769313486232e+308
 10
3858.94831802027
 20
1920.72427675684
 10
3671.61653933005
 20
1785.77963708804
 10
3578.61801032984
 20
1732.55139093005
 10
3498.2152817201
 20
1699.39506318324
 10
3397.60695232899
 20
1661.83297616799
 10
3345.93355789856
 20
1647.66764742552
 10
3317.5994079102
 20
1639.18266188164
 10
3231.14423858077
 20
1618.68106998547
 10
3183.83790776954
 20
1613.57536916665
 10
3141.12907192932
 20
1610.44919373977
 10
3111.59823740908
 20
1608.28501822983
 10
2996.89908687846
 20
1607.60839063811
 10
2903.26269720012
 20
1612.57979648697
 10
2522.87843117939
 20
1631.79010190532
 10
2415.20688009897
 20
1637.24058107563
  0
LWPOLYLINE
  5
20048
100
AcDbEntity
  8
0
100
AcDbPolyline
 70
0
 90
2
 38
0
 10
2415.20688009897
 20
1637.24058107563
 10
2380.30154056923
 20
1638.99930051572
  0
LWPOLYLINE
  5
20049
100
AcDbEntity
  8
0
100
AcDbPolyline
 70
0
 90
11
 38
-1.79769313486232e+308
 10
3906.38377943897
 20
4278.37940970992
 10
3690.37387352885
 20
4252.93981231467
 10
3478.71322012023
 20
4228.65878039036
 10
3234.28567461
 20
4201.0107496753
 10
3050.85007808992
 20
4180.50885779035
 10
2949.97235553974
 20
4169.10458188361
 10
2775.78072953859
 20
4147.16397233165
 10
2623.88862392941
 20
4132.78661696982
 10
2621.06890122854
 20
4132.51022887506
 10
2475.66783513949
 20
4125.26860468692
 10
2421.11683186964
 20
4125.87820798854
  0
LWPOLYLINE
  5
2004A
100
AcDbEntity
  8
0
100
AcDbPolyline
 70
0
 90
11
 38
-1.79769313486232e+308
 10
1957.82737508864
 20
1628.14482895282
 10
1960.26972470881
 20
1642.57743017978
 10
1904.75024186896
 20
1787.679128163
 10
1879.04434505926
 20
1860.71484196509
 10
1845.60619641916
 20
1980.78952411559
 10
1823.76419912913
 20
2076.05903078194
 10
1801.57822460943
 20
2179.66093438814
 10
1786.92524003872
 20
2266.82619255033
 10
1772.55166738929
 20
2379.97922026875
 10
1763.40231843927
 20
2453.24435970883
 10
1749.76902039983
 20
2509.85903414289
  0
LWPOLYLINE
  5
2004B
100
AcDbEntity
  8
0
100
AcDbPolyline
 70
0
 90
2
 38
0
 10
1749.76902039983
 20
2509.85903414289
 10
1735.03254620993
 20
2660.56628942859
  0
LWPOLYLINE
  5
2004C
100
AcDbEntity
  8
0
100
AcDbPolyline
 70
0
 90
12
 38
-1.79769313486232e+308
 10
1734.94460380898
 20
2515.24919936058
 10
1742.95070158952
 20
2429.10885024813
 10
1750.25771297031
 20
2361.61102516574
 10
1773.97544367873
 20
2269.58837260163
 10
1791.40139676892
 20
2174.10949639507
 10
1810.09305245877
 20
2084.04069493475
 10
1812.23483946995
 20
2074.78707862177
 10
1833.99891311006
 20
1980.5118919797
 10
1870.23229416908
 20
1854.68188999823
 10
1896.89331220911
 20
1777.78137530058
 10
1948.41753853002
 20
1641.57798137187
 10
1957.82737508864
 20
1628.14482895282
  0
LWPOLYLINE
  5
2004D
100
AcDbEntity
  8
0
100
AcDbPolyline
 70
0
 90
2
 38
0
 10
1722.49351876864
 20
2661.98422698348
 10
1734.94460380898
 20
2515.24919936058
  0
LWPOLYLINE
  5
2004E
100
AcDbEntity
  8
0
100
AcDbPolyline
 70
0
 90
4
 38
-1.79769313486232e+308
 10
2623.88862392941
 20
4132.78661696982
 10
2630.55888781958
 20
3646.14116906977
 10
2637.71784427838
 20
3628.78752129801
 10
2637.81691861973
 20
3627.28811146176
  0
LWPOLYLINE
  5
2004F
100
AcDbEntity
  8
0
100
AcDbPolyline
 70
0
 90
4
 38
-1.79769313486232e+308
 10
2647.59744907991
 20
3001.52030257971
 10
3030.21033129917
 20
3016.43617811005
 10
3243.25913875998
 20
2950.38029214551
 10
3487.05884234869
 20
2874.95948738369
  0
LWPOLYLINE
  5
20050
100
AcDbEntity
  8
0
100
AcDbPolyline
 70
0
 90
3
 38
-1.79769313486232e+308
 10
3243.25913875998
 20
2950.38029214551
 10
3323.75871532859
 20
3211.23138740004
 10
3454.97656509915
 20
3606.2318185656
  0
LWPOLYLINE
  5
20051
100
AcDbEntity
  8
0
100
AcDbPolyline
 70
0
 90
3
 38
-1.79769313486232e+308
 10
3052.23043977917
 20
1977.3933732798
 10
3072.91248796956
 20
2139.49538662375
 10
3074.96633257979
 20
2149.11320544683
  0
LWPOLYLINE
  5
20052
100
AcDbEntity
  8
0
100
AcDbPolyline
 70
0
 90
2
 38
0
 10
3074.96633257979
 20
2149.11320544683
 10
3086.24967616872
 20
2201.74790802781
  0
LWPOLYLINE
  5
20053
100
AcDbEntity
  8
0
100
AcDbPolyline
 70
0
 90
7
 38
-1.79769313486232e+308
 10
3138.21138808021
 20
2459.0671067205
 10
3143.99888840021
 20
2497.0667634038
 10
3170.09662981966
 20
2620.00017091163
 10
3195.3950972993
 20
2746.69660049534
 10
3221.97151254007
 20
2876.14241353885
 10
3225.05840201007
 20
2894.23241603046
 10
3243.25913875998
 20
2950.38029214551
  0
LWPOLYLINE
  5
20054
100
AcDbEntity
  8
0
100
AcDbPolyline
 70
0
 90
3
 38
-1.79769313486232e+308
 10
3225.05840201007
 20
2894.23241603046
 10
3113.75115635881
 20
2898.58058084358
 10
3010.00918330887
 20
2902.6304321666
  0
LWPOLYLINE
  5
20055
100
AcDbEntity
  8
0
100
AcDbPolyline
 70
0
 90
10
 38
-1.79769313486232e+308
 10
2522.87843117939
 20
1631.79010190532
 10
2556.27093883866
 20
1715.87572411491
 10
2578.83985239902
 20
1776.47071454671
 10
2596.8914210301
 20
1836.17500145498
 10
2606.81889321917
 20
1887.74952695655
 10
2615.84801711032
 20
1962.85966588507
 10
2619.00392467977
 20
2025.36699427801
 10
2620.37092802936
 20
2052.47563818467
 10
2617.67810953857
 20
2271.5473384368
 10
2619.06848997885
 20
2314.51811200657
  0
LWPOLYLINE
  5
20056
100
AcDbEntity
  8
0
100
AcDbPolyline
 70
0
 90
2
 38
0
 10
2619.06848997885
 20
2314.51811200657
 10
2620.93754422927
 20
2372.49712181042
  0
LWPOLYLINE
  5
20057
100
AcDbEntity
  8
0
100
AcDbPolyline
 70
0
 90
5
 38
-1.79769313486232e+308
 10
7484.9480728794
 20
771.897781786945
 10
7478.86000992992
 20
717.851339468238
 10
7509.24355173932
 20
301.466001198598
 10
7513.28890203947
 20
245.712116473791
 10
7528.93878639619
 20
30.1645418290386
  0
LWPOLYLINE
  5
20058
100
AcDbEntity
  8
0
100
AcDbPolyline
 70
0
 90
2
 38
0
 10
7492.60462745914
 20
826.11102014684
 10
7484.9480728794
 20
771.897781786945
  0
LWPOLYLINE
  5
20059
100
AcDbEntity
  8
0
100
AcDbPolyline
 70
0
 90
4
 38
-1.79769313486232e+308
 10
7468.31471455918
 20
2189.84309673493
 10
7620.31257367955
 20
2188.32836236057
 10
7689.12916969956
 20
2186.94405284381
 10
7697.09407925868
 20
2186.29580347563
  0
LWPOLYLINE
  5
2005A
100
AcDbEntity
  8
0
100
AcDbPolyline
 70
0
 90
3
 38
-1.79769313486232e+308
 10
7608.30120062904
 20
1905.77225211167
 10
7620.31257367955
 20
2188.32836236057
 10
7639.62650534028
 20
2547.22736406044
  0
LWPOLYLINE
  5
2005B
100
AcDbEntity
  8
0
100
AcDbPolyline
 70
0
 90
6
 38
-1.79769313486232e+308
 10
7534.25926770904
 20
2552.06483852674
 10
7548.8398946196
 20
2515.56816704382
 10
7545.95560660848
 20
2464.01689577845
 10
7596.54697558918
 20
2460.76524702038
 10
7598.67540425883
 20
2513.42708048175
 10
7615.08612359018
 20
2548.77442590191
  0
LWPOLYLINE
  5
2005C
100
AcDbEntity
  8
0
100
AcDbPolyline
 70
0
 90
3
 38
-1.79769313486232e+308
 10
7473.60127718077
 20
1899.02647877994
 10
7608.30120062904
 20
1905.77225211167
 10
7691.5013880402
 20
1909.9367100801
  0
LWPOLYLINE
  5
2005D
100
AcDbEntity
  8
0
100
AcDbPolyline
 70
0
 90
2
 38
0
 10
7691.5013880402
 20
1909.9367100801
 10
7736.66815823951
 20
1906.94992194788
  0
LWPOLYLINE
  5
2005E
100
AcDbEntity
  8
0
100
AcDbPolyline
 70
0
 90
2
 38
0
 10
7697.09407925868
 20
2186.29580347563
 10
7755.06593047903
 20
2181.64958688055
  0
LWPOLYLINE
  5
2005F
100
AcDbEntity
  8
0
100
AcDbPolyline
 70
0
 90
6
 38
-1.79769313486232e+308
 10
7718.90156751015
 20
2554.93297362557
 10
7582.43723013886
 20
2563.64327535543
 10
7459.36462749989
 20
2569.00892752872
 10
7040.17216060945
 20
2556.15848494877
 10
6747.63567075023
 20
2524.88925862822
 10
5963.69598670938
 20
2447.50813651874
  0
LWPOLYLINE
  5
20060
100
AcDbEntity
  8
0
100
AcDbPolyline
 70
0
 90
9
 38
-1.79769313486232e+308
 10
5962.1720228892
 20
2433.56016303782
 10
6767.43940815964
 20
2513.73829991787
 10
7032.96533676871
 20
2542.30336967154
 10
7459.85220686981
 20
2554.45129217856
 10
7534.25926770904
 20
2552.06483852674
 10
7592.6485670291
 20
2550.19235085973
 10
7615.08612359018
 20
2548.77442590191
 10
7639.62650534028
 20
2547.22736406044
 10
7718.32270614879
 20
2542.26204583512
  0
LWPOLYLINE
  5
20061
100
AcDbEntity
  8
0
100
AcDbPolyline
 70
0
 90
16
 38
-1.79769313486232e+308
 10
563.937031528738
 20
943.735453478497
 10
569.123406610277
 20
1025.34380381365
 10
579.708776988846
 20
1235.3279830557
 10
591.727942409751
 20
1463.18667964681
 10
591.783602149051
 20
1473.05448612987
 10
603.422054919239
 20
1667.95751658545
 10
611.232230390247
 20
1829.48737377996
 10
617.670949739229
 20
1909.61259252808
 10
652.431573930022
 20
2003.01690201877
 10
670.728045440104
 20
2054.14660590279
 10
681.969087620091
 20
2109.32998751287
 10
709.33921082021
 20
2313.58446850485
 10
714.15711839014
 20
2359.20394646699
 10
721.299376909446
 20
2497.45675571679
 10
721.889370209363
 20
2529.74738640289
 10
494.699238596266
 20
2559.68452690315
  0
LWPOLYLINE
  5
20062
100
AcDbEntity
  8
0
100
AcDbPolyline
 70
0
 90
11
 38
-1.79769313486232e+308
 10
1229.79122612887
 20
3974.22867317355
 10
1140.96829122939
 20
3973.16704634062
 10
1088.80286464916
 20
3970.25209332534
 10
1069.83068383002
 20
3964.7024482628
 10
1047.26510984899
 20
3953.05427172312
 10
984.871648459521
 20
3947.70481894163
 10
841.562275598582
 20
3943.45832110473
 10
787.8706587989
 20
3944.22031422469
 10
768.700329289597
 20
3942.36828357071
 10
729.407888619986
 20
3934.43064342529
 10
637.923304700118
 20
3932.80721194574
  0
LWPOLYLINE
  5
20063
100
AcDbEntity
  8
0
100
AcDbPolyline
 70
0
 90
2
 38
0
 10
1274.28117381857
 20
3979.1196485548
 10
1229.79122612887
 20
3974.22867317355
  0
LWPOLYLINE
  5
20064
100
AcDbEntity
  8
0
100
AcDbPolyline
 70
0
 90
16
 38
-1.79769313486232e+308
 10
634.253101088863
 20
3956.66663887861
 10
637.923304700118
 20
3932.80721194574
 10
640.268806368869
 20
3851.85287783059
 10
638.777125189838
 20
3769.99243451512
 10
639.741151978087
 20
3762.97573917356
 10
665.714215581131
 20
3664.52027989781
 10
694.961185389024
 20
3585.57462729185
 10
700.484858528536
 20
3569.83540716997
 10
713.33892013022
 20
3533.19888735001
 10
708.120262400073
 20
3458.72898063061
 10
682.144972420123
 20
3363.73441623987
 10
680.53529258148
 20
3355.74290013497
 10
660.250654970121
 20
3254.91824666687
 10
650.571425239381
 20
3169.20158984556
 10
640.560463438567
 20
3087.99388401999
 10
621.29773875029
 20
3020.44345054074
  0
LWPOLYLINE
  5
20065
100
AcDbEntity
  8
0
100
AcDbPolyline
 70
0
 90
4
 38
-1.79769313486232e+308
 10
700.484858528536
 20
3569.83540716997
 10
626.161287299183
 20
3560.73050913864
 10
597.939569999289
 20
3553.45692724871
 10
494.699238596267
 20
3542.92953641655
  0
LWPOLYLINE
  5
20066
100
AcDbEntity
  8
0
100
AcDbPolyline
 70
0
 90
13
 38
-1.79769313486232e+308
 10
425.416623170313
 20
3080.81226661193
 10
441.397649259132
 20
3198.14395589658
 10
465.303509908554
 20
3370.069000727
 10
469.064995500084
 20
3385.76535286984
 10
470.93961572909
 20
3393.61224482997
 10
472.981215189036
 20
3402.14490593967
 10
475.382376610127
 20
3478.935241973
 10
485.943256699305
 20
3489.3005526303
 10
492.422051059839
 20
3495.64811501975
 10
492.045791179698
 20
3506.66821415487
 10
490.816824008536
 20
3542.5336475698
 10
485.477941228833
 20
3649.11287226199
 10
477.265902389597
 20
3765.44249523288
  0
LWPOLYLINE
  5
20067
100
AcDbEntity
  8
0
100
AcDbPolyline
 70
0
 90
2
 38
0
 10
492.045791179698
 20
3506.66821415487
 10
537.835950518784
 20
3509.89430383171
  0
LWPOLYLINE
  5
20068
100
AcDbEntity
  8
0
100
AcDbPolyline
 70
0
 90
2
 38
0
 10
485.943256699305
 20
3489.3005526303
 10
358.579287699249
 20
3482.30726023854
  0
LWPOLYLINE
  5
20069
100
AcDbEntity
  8
0
100
AcDbPolyline
 70
0
 90
3
 38
-1.79769313486232e+308
 10
339.417863749724
 20
3404.51214895534
 10
359.052395528939
 20
3415.64839961982
 10
470.93961572909
 20
3393.61224482997
  0
LWPOLYLINE
  5
2006A
100
AcDbEntity
  8
0
100
AcDbPolyline
 70
0
 90
13
 38
-1.79769313486232e+308
 10
469.064995500084
 20
3385.76535286984
 10
478.425851489243
 20
3379.44367503884
 10
588.608770268795
 20
3369.19726872814
 10
656.109569909808
 20
3359.91558672485
 10
680.53529258148
 20
3355.74290013497
 10
726.792993780982
 20
3341.89207017046
 10
774.149418358516
 20
3328.81225145559
 10
830.037368709978
 20
3314.23436525973
 10
875.265364629042
 20
3305.94197314556
 10
890.296835469839
 20
3303.62253225685
 10
911.58668808901
 20
3314.17495860063
 10
931.488386648532
 20
3310.27607430794
 10
936.247294879344
 20
3307.17401486213
  0
LWPOLYLINE
  5
2006B
100
AcDbEntity
  8
0
100
AcDbPolyline
 70
0
 90
4
 38
-1.79769313486232e+308
 10
3872.93783842848
 20
1724.08442616553
 10
3717.71505365969
 20
1699.9929274148
 10
3586.47605319024
 20
1687.8445383948
 10
3501.68844982871
 20
1678.64415591673
  0
LWPOLYLINE
  5
2006C
100
AcDbEntity
  8
0
100
AcDbPolyline
 70
0
 90
2
 38
0
 10
3656.12865858042
 20
1010.27534241878
 10
3955.64265411982
 20
973.239542617899
  0
LWPOLYLINE
  5
2006D
100
AcDbEntity
  8
0
100
AcDbPolyline
 70
0
 90
6
 38
-1.79769313486232e+308
 10
1621.71709694975
 20
3446.21857547198
 10
1624.29080358037
 20
3428.78513289194
 10
1640.32748941966
 20
3319.37562528669
 10
1669.92511562892
 20
3063.22048527372
 10
1706.06832789892
 20
2775.62637215012
 10
1722.49351876864
 20
2661.98422698348
  0
LWPOLYLINE
  5
2006E
100
AcDbEntity
  8
0
100
AcDbPolyline
 70
0
 90
2
 38
0
 10
1617.92555509025
 20
3484.81657966549
 10
1621.71709694975
 20
3446.21857547198
  0
LWPOLYLINE
  5
2006F
100
AcDbEntity
  8
0
100
AcDbPolyline
 70
0
 90
7
 38
-1.79769313486232e+308
 10
1735.03254620993
 20
2660.56628942859
 10
1719.67156967969
 20
2775.0697814156
 10
1692.93262798974
 20
2975.89603197572
 10
1680.83331254014
 20
3066.79385422354
 10
1651.76779348851
 20
3322.22198064809
 10
1636.75079418049
 20
3427.93535165998
 10
1634.76596765855
 20
3446.64604962568
  0
LWPOLYLINE
  5
20070
100
AcDbEntity
  8
0
100
AcDbPolyline
 70
0
 90
2
 38
0
 10
1634.76596765855
 20
3446.64604962568
 10
1630.37552693934
 20
3484.94830926319
  0
LWPOLYLINE
  5
20071
100
AcDbEntity
  8
0
100
AcDbPolyline
 70
0
 90
5
 38
-1.79769313486232e+308
 10
2641.49825418071
 20
3569.36660162031
 10
2642.91757769027
 20
3546.97502249663
 10
2645.51911418961
 20
3442.44879648692
 10
2646.2237665698
 20
3371.29459144545
 10
2640.38283287996
 20
3327.71193557183
  0
LWPOLYLINE
  5
20072
100
AcDbEntity
  8
0
100
AcDbPolyline
 70
0
 90
2
 38
0
 10
2637.81691861973
 20
3627.28811146176
 10
2641.49825418071
 20
3569.36660162031
  0
LWPOLYLINE
  5
20073
100
AcDbEntity
  8
0
100
AcDbPolyline
 70
0
 90
5
 38
-1.79769313486232e+308
 10
3085.1832354393
 20
3643.77646355654
 10
3075.75892734976
 20
3823.5960866031
 10
3050.85007808992
 20
4180.50885779035
 10
3041.51148600952
 20
4314.20442219867
 10
3038.59431849699
 20
4457.00705602249
  0
LWPOLYLINE
  5
20074
100
AcDbEntity
  8
0
100
AcDbPolyline
 70
0
 90
2
 38
0
 10
3088.22114434914
 20
3585.81742496693
 10
3085.1832354393
 20
3643.77646355654
  0
LWPOLYLINE
  5
20075
100
AcDbEntity
  8
0
100
AcDbPolyline
 70
0
 90
8
 38
-1.79769313486232e+308
 10
4369.95376133994
 20
1590.69658653482
 10
4521.47183344961
 20
1552.30970343386
 10
4650.3274836287
 20
1511.6619336805
 10
4726.29858332017
 20
1480.00017659503
 10
4822.27045590879
 20
1440.44116983187
 10
4905.6031135291
 20
1406.09894972478
 10
5117.70904489869
 20
1321.90564118695
 10
5149.19687605911
 20
1308.87569785162
  0
LWPOLYLINE
  5
20076
100
AcDbEntity
  8
0
100
AcDbPolyline
 70
0
 90
3
 38
-1.79769313486232e+308
 10
5181.06319349894
 20
1453.53322975567
 10
5149.19687605911
 20
1308.87569785162
 10
5144.88435898983
 20
1292.5311502055
  0
LWPOLYLINE
  5
20077
100
AcDbEntity
  8
0
100
AcDbPolyline
 70
0
 90
2
 38
0
 10
5190.16801465006
 20
1511.27842823553
 10
5181.06319349894
 20
1453.53322975567
  0
LWPOLYLINE
  5
20078
100
AcDbEntity
  8
0
100
AcDbPolyline
 70
0
 90
6
 38
-1.79769313486232e+308
 10
4396.26523617917
 20
2204.27375944794
 10
4478.75186566898
 20
2229.47419132988
 10
4557.19871082978
 20
2247.46383104377
 10
4668.40799532906
 20
2264.51985661031
 10
4806.7291418098
 20
2278.1125234598
 10
4905.64096216002
 20
2288.29089143311
  0
LWPOLYLINE
  5
20079
100
AcDbEntity
  8
0
100
AcDbPolyline
 70
0
 90
7
 38
-1.79769313486232e+308
 10
4905.72111218871
 20
2328.2554638297
 10
4905.64096216002
 20
2288.29089143311
 10
4910.33307868877
 20
2183.23146976993
 10
4910.6692635499
 20
2059.23182433003
 10
4907.27624546998
 20
1993.48054760179
 10
4902.91586101876
 20
1926.14130708386
 10
4897.83635266015
 20
1894.81553749877
  0
LWPOLYLINE
  5
2007A
100
AcDbEntity
  8
0
100
AcDbPolyline
 70
0
 90
14
 38
-1.79769313486232e+308
 10
3000.61493147799
 20
2700.93624802071
 10
3083.29748326988
 20
2697.19510281549
 10
3088.59295144008
 20
2697.49341293887
 10
3092.83422403858
 20
2701.78468877074
 10
3093.61123409012
 20
2707.95622525315
 10
3097.34377661982
 20
2743.46941511004
 10
3097.79907332995
 20
2748.45547499179
 10
3099.11041694024
 20
2762.49290360321
 10
3106.96400700958
 20
2835.25016722825
 10
3107.71986634919
 20
2842.39161105824
 10
3109.83048389928
 20
2862.48582194556
 10
3111.27429768891
 20
2875.83893356469
 10
3113.00754216948
 20
2893.1050186278
 10
3113.75115635881
 20
2898.58058084358
  0
LWPOLYLINE
  5
2007B
100
AcDbEntity
  8
0
100
AcDbPolyline
 70
0
 90
5
 38
-1.79769313486232e+308
 10
3111.27429768891
 20
2875.83893356469
 10
3019.4769059986
 20
2884.72896273478
 10
3015.3335945502
 20
2844.3597058728
 10
3005.45844252856
 20
2748.16232922531
 10
3000.61493147799
 20
2700.93624802071
  0
LWPOLYLINE
  5
2007C
100
AcDbEntity
  8
0
100
AcDbPolyline
 70
0
 90
2
 38
0
 10
3005.45844252856
 20
2748.16232922531
 10
2995.73357180954
 20
2749.42660110301
  0
LWPOLYLINE
  5
2007D
100
AcDbEntity
  8
0
100
AcDbPolyline
 70
0
 90
5
 38
-1.79769313486232e+308
 10
3106.96400700958
 20
2835.25016722825
 10
3094.40828163998
 20
2836.49507685375
 10
3046.98283897788
 20
2841.22160207803
 10
3020.90624825918
 20
2843.80311209799
 10
3015.3335945502
 20
2844.3597058728
  0
LWPOLYLINE
  5
2007E
100
AcDbEntity
  8
0
100
AcDbPolyline
 70
0
 90
2
 38
0
 10
3005.45844252856
 20
2748.16232922531
 10
3012.68530386948
 20
2747.42236218692
  0
LWPOLYLINE
  5
2007F
100
AcDbEntity
  8
0
100
AcDbPolyline
 70
0
 90
5
 38
-1.79769313486232e+308
 10
3012.68530386948
 20
2747.42236218692
 10
3013.38439026923
 20
2755.11905460476
 10
3034.63305468002
 20
2753.43895406366
 10
3041.21537615993
 20
2752.91981466344
 10
3097.79907332995
 20
2748.45547499179
  0
LWPOLYLINE
  5
20080
100
AcDbEntity
  8
0
100
AcDbPolyline
 70
0
 90
2
 38
0
 10
3041.21537615993
 20
2752.91981466344
 10
3042.54898365849
 20
2775.17309291798
  0
LWPOLYLINE
  5
20081
100
AcDbEntity
  8
0
100
AcDbPolyline
 70
0
 90
2
 38
0
 10
3034.63305468002
 20
2753.43895406366
 10
3031.66639023909
 20
2724.8346633529
  0
LWPOLYLINE
  5
20082
100
AcDbEntity
  8
0
100
AcDbPolyline
 70
0
 90
4
 38
-1.79769313486232e+308
 10
1591.34913985879
 20
3784.36420924679
 10
1812.92947308981
 20
3787.41989244192
 10
1900.85962566995
 20
3788.64294082343
 10
1880.06514478923
 20
3472.21832892156
  0
LWPOLYLINE
  5
20083
100
AcDbEntity
  8
0
100
AcDbPolyline
 70
0
 90
13
 38
-1.79769313486232e+308
 10
1692.93262798974
 20
2975.89603197572
 10
1708.27913298906
 20
2976.04583604678
 10
1776.94322129973
 20
2976.7393256067
 10
1918.14865578973
 20
2978.14696747574
 10
2054.44378754013
 20
2976.36998106862
 10
2065.72824432031
 20
2948.27012547289
 10
2104.98060996906
 20
2951.79051388797
 10
2132.79601113015
 20
2849.84686948822
 10
2140.9167679798
 20
2813.60503104512
 10
2151.73479610012
 20
2785.51845288879
 10
2169.69508273975
 20
2520.75817271366
 10
2177.80693403893
 20
2500.81818003484
 10
2261.82120599072
 20
2458.06992050563
  0
LWPOLYLINE
  5
20084
100
AcDbEntity
  8
0
100
AcDbPolyline
 70
0
 90
8
 38
-1.79769313486232e+308
 10
1776.94322129973
 20
2976.7393256067
 10
1798.68725743966
 20
2906.9876397317
 10
1823.04507521988
 20
2910.56096431284
 10
1840.14152260945
 20
2869.95142351367
 10
1912.16189356969
 20
2741.82805783485
 10
1912.26987347828
 20
2692.32916207981
 10
1887.89535776974
 20
2610.46464031001
 10
1891.51212802978
 20
2602.30314098296
  0
LWPOLYLINE
  5
20085
100
AcDbEntity
  8
0
100
AcDbPolyline
 70
0
 90
3
 38
-1.79769313486232e+308
 10
2140.74037083833
 20
4457.00705602249
 10
2212.71116036997
 20
4134.17759826031
 10
2227.24169350864
 20
4022.62319533198
  0
LWPOLYLINE
  5
20086
100
AcDbEntity
  8
0
100
AcDbPolyline
 70
0
 90
4
 38
-1.79769313486232e+308
 10
2354.93739458994
 20
3515.97970823009
 10
2365.6329712689
 20
3469.47267389993
 10
2365.63074487896
 20
3431.94533807875
 10
2365.41589825862
 20
2731.68160774183
  0
LWPOLYLINE
  5
20087
100
AcDbEntity
  8
0
100
AcDbPolyline
 70
0
 90
2
 38
0
 10
2341.9230329197
 20
3572.55783753467
 10
2354.93739458994
 20
3515.97970823009
  0
LWPOLYLINE
  5
20088
100
AcDbEntity
  8
0
100
AcDbPolyline
 70
0
 90
5
 38
-1.79769313486232e+308
 10
3827.15658464917
 20
3089.85612031163
 10
3813.65686999896
 20
2817.40303238059
 10
3797.25394302869
 20
2624.35211509696
 10
3721.26391903014
 20
2275.7080434188
 10
3657.75726271869
 20
2085.99834056568
  0
LWPOLYLINE
  5
20089
100
AcDbEntity
  8
0
100
AcDbPolyline
 70
0
 90
6
 38
-1.79769313486232e+308
 10
3443.47726169863
 20
2362.94757389041
 10
3499.66688788013
 20
2477.02995602551
 10
3570.09093733953
 20
2553.36654046175
 10
3595.99053006881
 20
2641.02898576806
 10
3797.25394302869
 20
2624.35211509696
 10
4100.40585952887
 20
2590.09706041354
  0
LWPOLYLINE
  5
2008A
100
AcDbEntity
  8
0
100
AcDbPolyline
 70
0
 90
6
 38
-1.79769313486232e+308
 10
494.699238596267
 20
2402.18243166556
 10
570.883367759001
 20
2409.63259969323
 10
714.15711839014
 20
2359.20394646699
 10
846.077394139778
 20
2346.24911880304
 10
1480.06415810884
 20
2074.27829779356
 10
1486.29916278907
 20
2074.28604572496
  0
LWPOLYLINE
  5
2008B
100
AcDbEntity
  8
0
100
AcDbPolyline
 70
0
 90
8
 38
-1.79769313486232e+308
 10
2337.81423051917
 20
2094.30800729568
 10
2458.02592223027
 20
2101.38833838372
 10
2482.63977483922
 20
2056.03838956307
 10
2619.00392467977
 20
2025.36699427801
 10
2757.68240671867
 20
1974.6635401528
 10
2828.68977031001
 20
1948.71595058075
 10
2902.56472398975
 20
1952.63894790036
 10
2909.30511915946
 20
1992.92140883344
  0
LWPOLYLINE
  5
2008C
100
AcDbEntity
  8
0
100
AcDbPolyline
 70
0
 90
2
 38
0
 10
2224.93292727024
 20
2088.36146201377
 10
2337.81423051917
 20
2094.30800729568
  0
LWPOLYLINE
  5
2008D
100
AcDbEntity
  8
0
100
AcDbPolyline
 70
0
 90
3
 38
-1.79769313486232e+308
 10
2458.02592223027
 20
2101.38833838372
 10
2477.81630130933
 20
2122.7778581348
 10
2538.98858788871
 20
2347.25120627179
  0
LWPOLYLINE
  5
2008E
100
AcDbEntity
  8
0
100
AcDbPolyline
 70
0
 90
3
 38
-1.79769313486232e+308
 10
2891.4717367299
 20
2233.88411068075
 10
2858.17607703881
 20
2169.38451306985
 10
2757.68240671867
 20
1974.6635401528
  0
LWPOLYLINE
  5
2008F
100
AcDbEntity
  8
0
100
AcDbPolyline
 70
0
 90
2
 38
0
 10
2617.67810953857
 20
2271.5473384368
 10
2858.17607703881
 20
2169.38451306985
  0
LWPOLYLINE
  5
20090
100
AcDbEntity
  8
0
100
AcDbPolyline
 70
0
 90
3
 38
-1.79769313486232e+308
 10
4822.27045590879
 20
1440.44116983187
 10
4847.22717255988
 20
1345.61033336862
 10
5193.51921058735
 20
30.1645418290384
  0
LWPOLYLINE
  5
20091
100
AcDbEntity
  8
0
100
AcDbPolyline
 70
0
 90
4
 38
-1.79769313486232e+308
 10
2499.15513449983
 20
282.35197890873
 10
2988.82285782026
 20
398.615624253143
 10
3246.53861096018
 20
421.848598413606
 10
3347.63674610929
 20
413.462566617847
  0
LWPOLYLINE
  5
20092
100
AcDbEntity
  8
0
100
AcDbPolyline
 70
0
 90
11
 38
-1.79769313486232e+308
 10
4490.52390181908
 20
78.1110887429386
 10
4682.24055524991
 20
9.65366337678279
 10
4816.75234875904
 20
21.4686173647351
 10
4897.68718453945
 20
25.4904297166213
 10
5199.48768241965
 20
7.49234526787768
 10
5344.96333256998
 20
-1.21231446464662
 10
5685.65552095027
 20
96.9627037956088
 10
5897.55996403919
 20
158.048276208778
 10
6088.18568645866
 20
213.006436040596
 10
7513.28890203947
 20
245.712116473791
 10
7746.15066745871
 20
250.117537601881
  0
LWPOLYLINE
  5
20093
100
AcDbEntity
  8
0
100
AcDbPolyline
 70
0
 90
7
 38
-1.79769313486232e+308
 10
4847.22717255988
 20
1345.61033336862
 10
5072.26286277809
 20
1290.69629593004
 10
5144.88435898983
 20
1292.5311502055
 10
5276.44618599006
 20
1301.24057827049
 10
5554.73712060862
 20
1259.19779068508
 10
5767.99854828866
 20
1199.15406410067
 10
5856.56099558139
 20
1209.91648816314
  0
LWPOLYLINE
  5
20094
100
AcDbEntity
  8
0
100
AcDbPolyline
 70
0
 90
6
 38
-1.79769313486232e+308
 10
5558.35500405991
 20
1335.24033207536
 10
5554.73712060862
 20
1259.19779068508
 10
5594.45368852915
 20
723.172304581821
 10
5663.8513722893
 20
277.896262268041
 10
5665.42320349888
 20
197.501254076575
 10
5685.65552095027
 20
96.9627037956088
  0
LWPOLYLINE
  5
20095
100
AcDbEntity
  8
0
100
AcDbPolyline
 70
0
 90
3
 38
-1.79769313486232e+308
 10
1881.10486883932
 20
3429.21131499295
 10
1881.11600077973
 20
3428.57720769287
 10
1918.14865578973
 20
2978.14696747574
  0
LWPOLYLINE
  5
20096
100
AcDbEntity
  8
0
100
AcDbPolyline
 70
0
 90
2
 38
0
 10
1880.06514478923
 20
3472.21832892156
 10
1881.10486883932
 20
3429.21131499295
  0
LWPOLYLINE
  5
20097
100
AcDbEntity
  8
0
100
AcDbPolyline
 70
0
 90
9
 38
-1.79769313486232e+308
 10
1849.06934577861
 20
4083.87635125357
 10
1821.01683409029
 20
4079.27980344553
 10
1713.51337544882
 20
4058.91759472477
 10
1618.53892549017
 20
4021.13407072795
 10
1556.5684781585
 20
4004.19706658876
 10
1542.83165298851
 20
4003.4492765567
 10
1452.85767455847
 20
3992.74645585005
 10
1359.60199754016
 20
3984.94955937655
 10
1274.28117381857
 20
3979.1196485548
  0
LWPOLYLINE
  5
20098
100
AcDbEntity
  8
0
100
AcDbPolyline
 70
0
 90
2
 38
0
 10
2421.11683186964
 20
4125.87820798854
 10
2363.0815285396
 20
4126.52397423188
  0
LWPOLYLINE
  5
20099
100
AcDbEntity
  8
0
100
AcDbPolyline
 70
0
 90
14
 38
-1.79769313486232e+308
 10
2620.93754422927
 20
2372.49712181042
 10
2626.56585768872
 20
2547.09306153978
 10
2626.84638279938
 20
2602.30055823034
 10
2635.06398760976
 20
2815.18053639072
 10
2647.59744907991
 20
3001.52030257971
 10
2652.0190592602
 20
3067.2084012469
 10
2640.38283287996
 20
3327.71193557183
 10
2636.68925217987
 20
3368.10211513049
 10
2630.70805594028
 20
3386.35813140494
 10
2609.90912227967
 20
3414.18517604886
 10
2579.21945185849
 20
3427.46784285779
 10
2549.62961801031
 20
3434.14598817282
 10
2504.6888263885
 20
3433.16576898188
 10
2468.4276154589
 20
3432.84806949689
  0
LWPOLYLINE
  5
2009A
100
AcDbEntity
  8
0
100
AcDbPolyline
 70
0
 90
2
 38
0
 10
2468.4276154589
 20
3432.84806949689
 10
2410.40344406926
 20
3432.34310813804
  0
LWPOLYLINE
  5
2009B
100
AcDbEntity
  8
0
100
AcDbPolyline
 70
0
 90
4
 38
-1.79769313486232e+308
 10
1544.30774943979
 20
2074.37385561175
 10
1812.23483946995
 20
2074.78707862177
 10
1823.76419912913
 20
2076.05903078194
 10
2224.93292727024
 20
2088.36146201377
  0
LWPOLYLINE
  5
2009C
100
AcDbEntity
  8
0
100
AcDbPolyline
 70
0
 90
2
 38
0
 10
1486.29916278907
 20
2074.28604572496
 10
1544.30774943979
 20
2074.37385561175
  0
LWPOLYLINE
  5
2009D
100
AcDbEntity
  8
0
100
AcDbPolyline
 70
0
 90
6
 38
-1.79769313486232e+308
 10
2380.30154056923
 20
1638.99930051572
 10
2324.07629215979
 20
1641.84914964574
 10
1960.26972470881
 20
1642.57743017978
 10
1948.41753853002
 20
1641.57798137187
 10
1651.30581759923
 20
1611.18263755317
 10
1501.25604956859
 20
1592.55730999305
  0
LWPOLYLINE
  5
2009E
100
AcDbEntity
  8
0
100
AcDbPolyline
 70
0
 90
2
 38
0
 10
1501.25604956859
 20
1592.55730999305
 10
1443.71500477829
 20
1585.41657538476
  0
LWPOLYLINE
  5
2009F
100
AcDbEntity
  8
0
100
AcDbPolyline
 70
0
 90
7
 38
-1.79769313486232e+308
 10
1499.64636973926
 20
1578.90985889823
 10
1654.87806005852
 20
1599.13505355825
 10
1815.11022191012
 20
1614.47022250059
 10
1957.82737508864
 20
1628.14482895282
 10
2103.03585845867
 20
1627.27580016848
 10
2328.21515083016
 20
1625.33113864853
 10
2384.32907973864
 20
1622.85705444074
  0
LWPOLYLINE
  5
200A0
100
AcDbEntity
  8
0
100
AcDbPolyline
 70
0
 90
2
 38
0
 10
1442.14985273854
 20
1571.42048905182
 10
1499.64636973926
 20
1578.90985889823
  0
LWPOLYLINE
  5
200A1
100
AcDbEntity
  8
0
100
AcDbPolyline
 70
0
 90
7
 38
-1.79769313486232e+308
 10
575.798472175247
 20
30.1645418290386
 10
559.380724779156
 20
180.808253718045
 10
550.649937108916
 20
326.253331628133
 10
544.959284738463
 20
487.85893596799
 10
547.942647100252
 20
646.933328312793
 10
556.741339648899
 20
830.350010183611
 10
560.261261950072
 20
885.861156159983
  0
LWPOLYLINE
  5
200A2
100
AcDbEntity
  8
0
100
AcDbPolyline
 70
0
 90
2
 38
0
 10
560.261261950072
 20
885.861156159983
 10
563.937031528738
 20
943.735453478497
  0
LWPOLYLINE
  5
200A3
100
AcDbEntity
  8
0
100
AcDbPolyline
 70
0
 90
4
 38
-1.79769313486232e+308
 10
691.099512259301
 20
1485.26852216662
 10
607.923815130081
 20
1474.16496993971
 10
591.783602149051
 20
1473.05448612987
 10
494.699238596267
 20
1466.39469182837
  0
LWPOLYLINE
  5
200A4
100
AcDbEntity
  8
0
100
AcDbPolyline
 70
0
 90
2
 38
0
 10
748.552614648652
 20
1492.9411999853
 10
691.099512259301
 20
1485.26852216662
  0
LWPOLYLINE
  5
200A5
100
AcDbEntity
  8
0
100
AcDbPolyline
 70
0
 90
4
 38
-1.79769313486232e+308
 10
494.699238596267
 20
1455.28765676758
 10
591.727942409751
 20
1463.18667964681
 10
605.105205618602
 20
1464.28037621683
 10
689.756999199104
 20
1475.0946773919
  0
LWPOLYLINE
  5
200A6
100
AcDbEntity
  8
0
100
AcDbPolyline
 70
0
 90
2
 38
0
 10
689.756999199104
 20
1475.0946773919
 10
747.253516188648
 20
1482.45744632694
  0
LWPOLYLINE
  5
200A7
100
AcDbEntity
  8
0
100
AcDbPolyline
 70
0
 90
3
 38
-1.79769313486232e+308
 10
1443.71500477829
 20
1585.41657538476
 10
1405.50236316846
 20
1580.67244400174
 10
1311.20473571942
 20
1568.07739074386
  0
LWPOLYLINE
  5
200A8
100
AcDbEntity
  8
0
100
AcDbPolyline
 70
0
 90
2
 38
0
 10
1311.20473571942
 20
1568.07739074386
 10
1253.73270900996
 20
1560.39691950844
  0
LWPOLYLINE
  5
200A9
100
AcDbEntity
  8
0
100
AcDbPolyline
 70
0
 90
3
 38
-1.79769313486232e+308
 10
1328.75647983031
 20
1556.82656082182
 10
1405.73502091022
 20
1566.68411056043
 10
1442.14985273854
 20
1571.42048905182
  0
LWPOLYLINE
  5
200AA
100
AcDbEntity
  8
0
100
AcDbPolyline
 70
0
 90
2
 38
0
 10
1271.25105727912
 20
1549.468913455
 10
1328.75647983031
 20
1556.82656082182
  0
LWPOLYLINE
  5
200AB
100
AcDbEntity
  8
0
100
AcDbPolyline
 70
0
 90
6
 38
-1.79769313486232e+308
 10
3836.08218141907
 20
1752.25515179007
 10
3961.89101712854
 20
1719.01612986668
 10
4069.36998548993
 20
1692.69201279568
 10
4148.76638590992
 20
1674.24217880561
 10
4248.2114266202
 20
1634.47079214823
 10
4324.47084378899
 20
1607.0441039167
  0
LWPOLYLINE
  5
200AC
100
AcDbEntity
  8
0
100
AcDbPolyline
 70
0
 90
2
 38
0
 10
4324.47084378899
 20
1607.0441039167
 10
4369.95376133994
 20
1590.69658653482
  0
LWPOLYLINE
  5
200AD
100
AcDbEntity
  8
0
100
AcDbPolyline
 70
0
 90
2
 38
0
 10
3968.89857908041
 20
264.496843395726
 10
4435.81927764864
 20
97.6495791482448
  0
LWPOLYLINE
  5
200AE
100
AcDbEntity
  8
0
100
AcDbPolyline
 70
0
 90
2
 38
0
 10
4435.81927764864
 20
97.6495791482448
 10
4490.52390181908
 20
78.1110887429386
  0
LWPOLYLINE
  5
200AF
100
AcDbEntity
  8
0
100
AcDbPolyline
 70
0
 90
10
 38
-1.79769313486232e+308
 10
3657.75726271869
 20
2085.99834056568
 10
3705.94747028948
 20
2063.01797610379
 10
3747.45182923862
 20
2019.41273367169
 10
3886.42419473903
 20
1959.13165319568
 10
4032.74587301985
 20
1910.71407572037
 10
4152.38872213924
 20
1864.1161265182
 10
4376.37689595931
 20
1796.97901993987
 10
4391.4718189098
 20
1792.45561990046
 10
4631.10038117954
 20
1715.14873062304
 10
4819.29599911981
 20
1650.96298957194
  0
LWPOLYLINE
  5
200B0
100
AcDbEntity
  8
0
100
AcDbPolyline
 70
0
 90
14
 38
-1.79769313486232e+308
 10
5779.34423078859
 20
1339.69900547058
 10
5806.18558640854
 20
1329.52656960345
 10
5858.83525277936
 20
1309.57038678878
 10
6158.29804135003
 20
1212.11933218499
 10
6267.58483824023
 20
1175.68336029814
 10
6297.50083819853
 20
1173.97377231668
 10
6344.40641884023
 20
1195.77749264005
 10
6435.80973952898
 20
1256.45520094313
 10
6512.49328395986
 20
1276.69795483068
 10
6722.88934794889
 20
1303.80111252979
 10
6981.13609505893
 20
1329.05655626344
 10
7096.54101115914
 20
1324.34092889304
 10
7246.78558829875
 20
1304.05936109784
 10
7488.3856187489
 20
1267.04335672871
  0
LWPOLYLINE
  5
200B1
100
AcDbEntity
  8
0
100
AcDbPolyline
 70
0
 90
2
 38
0
 10
5696.2219670199
 20
1362.42238200779
 10
5720.11780890898
 20
1356.46327003321
  0
LWPOLYLINE
  5
200B2
100
AcDbEntity
  8
0
100
AcDbPolyline
 70
0
 90
2
 38
0
 10
5756.43801917025
 20
1346.12166723699
 10
5779.34423078859
 20
1339.69900547058
  0
LWPOLYLINE
  5
200B3
100
AcDbEntity
  8
0
100
AcDbPolyline
 70
0
 90
2
 38
0
 10
5720.11780890898
 20
1356.46327003321
 10
5756.43801917025
 20
1346.12166723699
  0
LWPOLYLINE
  5
200B4
100
AcDbEntity
  8
0
100
AcDbPolyline
 70
0
 90
14
 38
-1.79769313486232e+308
 10
5787.78670097032
 20
1268.85883896842
 10
5772.05614372977
 20
1216.97178830855
 10
5767.99854828866
 20
1199.15406410067
 10
5750.30654161872
 20
1072.46288277532
 10
5749.52507878916
 20
1024.21270017323
 10
5755.75674389006
 20
960.816827773553
 10
5786.57331851945
 20
741.943540896726
 10
5813.48369222955
 20
609.956700177834
 10
5827.91515101009
 20
520.99528753382
 10
5855.8262869388
 20
381.791951264691
 10
5873.92683613935
 20
285.400356228434
 10
5897.55996403919
 20
158.048276208778
 10
5906.59354071953
 20
118.080264595308
 10
5924.54653011834
 20
30.1645418290385
  0
LWPOLYLINE
  5
200B5
100
AcDbEntity
  8
0
100
AcDbPolyline
 70
0
 90
2
 38
0
 10
5804.61820797884
 20
1324.3628800553
 10
5787.78670097032
 20
1268.85883896842
  0
LWPOLYLINE
  5
200B6
100
AcDbEntity
  8
0
100
AcDbPolyline
 70
0
 90
2
 38
0
 10
5806.18558640854
 20
1329.52656960345
 10
5804.61820797884
 20
1324.3628800553
  0
LWPOLYLINE
  5
200B7
100
AcDbEntity
  8
0
100
AcDbPolyline
 70
0
 90
2
 38
0
 10
1812.92947308981
 20
3787.41989244192
 10
1611.94435884879
 20
3634.67151201001
  0
LWPOLYLINE
  5
200B8
100
AcDbEntity
  8
0
100
AcDbPolyline
 70
0
 90
3
 38
-1.79769313486232e+308
 10
4586.57815083937
 20
2696.62301892179
 10
4599.1171782788
 20
2832.14176789808
 10
4616.12679646985
 20
3015.96481034483
  0
LWPOLYLINE
  5
200B9
100
AcDbEntity
  8
0
100
AcDbPolyline
 70
0
 90
3
 38
-1.79769313486232e+308
 10
4418.95269604577
 20
2992.60463838703
 10
4406.47212028952
 20
2852.26049905314
 10
4393.04587650934
 20
2719.6006663148
  0
LWPOLYLINE
  5
200BA
100
AcDbEntity
  8
0
100
AcDbPolyline
 70
0
 90
2
 38
0
 10
4599.1171782788
 20
2832.14176789808
 10
4406.47212028952
 20
2852.26049905314
  0
LWPOLYLINE
  5
200BB
100
AcDbEntity
  8
0
100
AcDbPolyline
 70
0
 90
3
 38
-1.79769313486232e+308
 10
4405.35113301949
 20
2054.57919804795
 10
4402.76629444846
 20
1938.93041486802
 10
4376.37689595931
 20
1796.97901993987
  0
LWPOLYLINE
  5
200BC
100
AcDbEntity
  8
0
100
AcDbPolyline
 70
0
 90
2
 38
0
 10
5657.82588425436
 20
1600.7741875382
 10
5752.76113638916
 20
2022.65652049283
  0
LWPOLYLINE
  5
200BD
100
AcDbEntity
  8
0
100
AcDbPolyline
 70
0
 90
2
 38
0
 10
5472.3217355989
 20
2384.9225214468
 10
5473.96369808057
 20
2341.11987851976
  0
LWPOLYLINE
  5
200BE
100
AcDbEntity
  8
0
100
AcDbPolyline
 70
0
 90
4
 38
-1.79769313486232e+308
 10
5346.3336754989
 20
2330.01427984002
 10
5220.20201325865
 20
2319.03136891869
 10
4984.89042083995
 20
2294.61847780363
 10
4990.31947240868
 20
2242.73494615869
  0
LWPOLYLINE
  5
200BF
100
AcDbEntity
  8
0
100
AcDbPolyline
 70
0
 90
4
 38
-1.79769313486232e+308
 10
5681.52334144973
 20
2405.6771760131
 10
5678.38524499984
 20
2359.4260588586
 10
5473.96369808057
 20
2341.11987851976
 10
5404.20756556914
 20
2335.04537309796
  0
LWPOLYLINE
  5
200C0
100
AcDbEntity
  8
0
100
AcDbPolyline
 70
0
 90
2
 38
0
 10
5404.20756556914
 20
2335.04537309796
 10
5346.3336754989
 20
2330.01427984002
  0
LWPOLYLINE
  5
200C1
100
AcDbEntity
  8
0
100
AcDbPolyline
 70
0
 90
4
 38
-1.79769313486232e+308
 10
4897.75842901022
 20
2693.22538350799
 10
4905.77009276004
 20
2719.57612994031
 10
4917.20260446967
 20
2724.14247906345
 10
5193.95176413917
 20
2739.73987977064
  0
LWPOLYLINE
  5
200C2
100
AcDbEntity
  8
0
100
AcDbPolyline
 70
0
 90
2
 38
0
 10
4884.91215977893
 20
2655.36072951692
 10
4897.75842901022
 20
2693.22538350799
  0
LWPOLYLINE
  5
200C3
100
AcDbEntity
  8
0
100
AcDbPolyline
 70
0
 90
8
 38
-1.79769313486232e+308
 10
4710.24297315889
 20
2897.55003852674
 10
5113.90748429002
 20
2922.09065748469
 10
5133.35165974015
 20
2918.62322512685
 10
5142.50657466875
 20
2909.43743967029
 10
5193.95399052912
 20
2774.12577259165
 10
5197.38597042934
 20
2760.36339755493
 10
5193.95176413917
 20
2739.73987977064
 10
5197.37706486957
 20
2620.54771514281
  0
LWPOLYLINE
  5
200C4
100
AcDbEntity
  8
0
100
AcDbPolyline
 70
0
 90
2
 38
0
 10
5197.37706486957
 20
2620.54771514281
 10
5200.80681837798
 20
2571.25075063293
  0
LWPOLYLINE
  5
200C5
100
AcDbEntity
  8
0
100
AcDbPolyline
 70
0
 90
4
 38
-1.79769313486232e+308
 10
5325.65830647835
 20
2384.70944808188
 10
5223.39465625846
 20
2374.66013738976
 10
5213.18331937009
 20
2373.58960605177
 10
5018.02578046994
 20
2353.03774642848
  0
LWPOLYLINE
  5
200C6
100
AcDbEntity
  8
0
100
AcDbPolyline
 70
0
 90
2
 38
0
 10
5018.02578046994
 20
2353.03774642848
 10
4960.27322864981
 20
2346.95806985346
  0
LWPOLYLINE
  5
200C7
100
AcDbEntity
  8
0
100
AcDbPolyline
 70
0
 90
4
 38
-1.79769313486232e+308
 10
5015.28064182849
 20
2339.28616271491
 10
5215.63791413867
 20
2359.45575993552
 10
5226.24888799974
 20
2360.52370736978
 10
5331.26880880894
 20
2370.93200270875
  0
LWPOLYLINE
  5
200C8
100
AcDbEntity
  8
0
100
AcDbPolyline
 70
0
 90
2
 38
0
 10
4957.49469415919
 20
2333.46476247159
 10
5015.28064182849
 20
2339.28616271491
  0
LWPOLYLINE
  5
200C9
100
AcDbEntity
  8
0
100
AcDbPolyline
 70
0
 90
6
 38
-1.79769313486232e+308
 10
4958.05240480864
 20
1874.96563638697
 10
5242.91007618868
 20
1781.11678155974
 10
5285.73468429857
 20
1768.27747381383
 10
5394.42146912852
 20
1731.29367764198
 10
5541.39770602883
 20
1688.13765946307
 10
5567.31288347842
 20
1680.61077745861
  0
LWPOLYLINE
  5
200CA
100
AcDbEntity
  8
0
100
AcDbPolyline
 70
0
 90
2
 38
0
 10
4902.86910682992
 20
1893.15363005825
 10
4958.05240480864
 20
1874.96563638697
  0
LWPOLYLINE
  5
200CB
100
AcDbEntity
  8
0
100
AcDbPolyline
 70
0
 90
5
 38
-1.79769313486232e+308
 10
4866.86727031023
 20
1632.6436356832
 10
5169.93347080873
 20
1517.43259448322
 10
5190.16801465006
 20
1511.27842823553
 10
5455.84311136865
 20
1433.95777090031
 10
5696.2219670199
 20
1362.42238200779
  0
LWPOLYLINE
  5
200CC
100
AcDbEntity
  8
0
100
AcDbPolyline
 70
0
 90
2
 38
0
 10
4819.29599911981
 20
1650.96298957194
 10
4866.86727031023
 20
1632.6436356832
  0
LWPOLYLINE
  5
200CD
100
AcDbEntity
  8
0
100
AcDbPolyline
 70
0
 90
3
 38
-1.79769313486232e+308
 10
4694.6983194694
 20
2523.35382203382
 10
4848.21791602002
 20
2505.27468365474
 10
4982.33786491939
 20
2489.48516026136
  0
LWPOLYLINE
  5
200CE
100
AcDbEntity
  8
0
100
AcDbPolyline
 70
0
 90
2
 38
0
 10
5040.04477574938
 20
2482.68741948062
 10
5059.0447864391
 20
2480.44819488374
  0
LWPOLYLINE
  5
200CF
100
AcDbEntity
  8
0
100
AcDbPolyline
 70
0
 90
2
 38
0
 10
4982.33786491939
 20
2489.48516026136
 10
5040.04477574938
 20
2482.68741948062
  0
LWPOLYLINE
  5
200D0
100
AcDbEntity
  8
0
100
AcDbPolyline
 70
0
 90
4
 38
-1.79769313486232e+308
 10
2234.72904246004
 20
3965.06278120537
 10
2259.98632172012
 20
3771.11345301845
 10
2309.61366392003
 20
3713.04017664163
 10
2341.9230329197
 20
3572.55783753467
  0
LWPOLYLINE
  5
200D1
100
AcDbEntity
  8
0
100
AcDbPolyline
 70
0
 90
2
 38
0
 10
2227.24169350864
 20
4022.62319533198
 10
2234.72904246004
 20
3965.06278120537
  0
LWPOLYLINE
  5
200D2
100
AcDbEntity
  8
0
100
AcDbPolyline
 70
0
 90
9
 38
-1.79769313486232e+308
 10
2363.0815285396
 20
4126.52397423188
 10
2347.02146560029
 20
4126.70866338161
 10
2259.86720986926
 20
4132.39528242682
 10
2212.71116036997
 20
4134.17759826031
 10
2178.0518369198
 20
4135.48592156541
 10
2064.99910164886
 20
4126.2759999898
 10
2053.02557721996
 20
4121.50378833382
 10
1914.69663837814
 20
4094.61928690175
 10
1906.30760154949
 20
4093.2476829197
  0
LWPOLYLINE
  5
200D3
100
AcDbEntity
  8
0
100
AcDbPolyline
 70
0
 90
2
 38
0
 10
1906.30760154949
 20
4093.2476829197
 10
1849.06934577861
 20
4083.87635125357
  0
LWPOLYLINE
  5
200D4
100
AcDbEntity
  8
0
100
AcDbPolyline
 70
0
 90
2
 38
0
 10
3626.4614357205
 20
2295.22537750351
 10
3677.77113656444
 20
2381.10013823354
  0
LWPOLYLINE
  5
200D5
100
AcDbEntity
  8
0
100
AcDbPolyline
 70
0
 90
2
 38
0
 10
3662.37823917964
 20
2370.84639388711
 10
3769.48703218877
 20
2399.04409136228
  0
LWPOLYLINE
  5
200D6
100
AcDbEntity
  8
0
100
AcDbPolyline
 70
0
 90
2
 38
0
 10
3507.80790533086
 20
2333.67671984759
 10
3562.96576617911
 20
2432.36861127189
  0
LWPOLYLINE
  5
200D7
100
AcDbEntity
  8
0
100
AcDbPolyline
 70
0
 90
2
 38
0
 10
3487.28412794031
 20
2415.70637618646
 10
3638.00617310099
 20
2349.05728662847
  0
LWPOLYLINE
  5
200D8
100
AcDbEntity
  8
0
100
AcDbPolyline
 70
0
 90
2
 38
0
 10
3599.52392963898
 20
2306.11990626346
 10
3646.34398179411
 20
2406.73434988335
  0
LWPOLYLINE
  5
200D9
100
AcDbEntity
  8
0
100
AcDbPolyline
 70
0
 90
2
 38
0
 10
3539.23506010119
 20
2425.96007079414
 10
3651.47486179986
 20
2380.45925434252
  0
LWPOLYLINE
  5
200DA
100
AcDbEntity
  8
0
100
AcDbPolyline
 70
0
 90
2
 38
0
 10
3783.25156491686
 20
2586.37139377691
 10
4006.36802094511
 20
2512.48715532944
  0
LWPOLYLINE
  5
200DB
100
AcDbEntity
  8
0
100
AcDbPolyline
 70
0
 90
2
 38
0
 10
3759.46114956119
 20
2514.41458192325
 10
4005.08208384897
 20
2446.95509878849
  0
LWPOLYLINE
  5
200DC
100
AcDbEntity
  8
0
100
AcDbPolyline
 70
0
 90
2
 38
0
 10
3753.67423960287
 20
2464.30178891657
 10
3990.93638974003
 20
2394.914879188
  0
LWPOLYLINE
  5
200DD
100
AcDbEntity
  8
0
100
AcDbPolyline
 70
0
 90
2
 38
0
 10
3747.88732964455
 20
2427.03845679657
 10
3973.57578854886
 20
2344.15961065005
  0
LWPOLYLINE
  5
200DE
100
AcDbEntity
  8
0
100
AcDbPolyline
 70
0
 90
2
 38
0
 10
3726.02575559117
 20
2369.21600715339
 10
3972.9327556589
 20
2313.32098410402
  0
LWPOLYLINE
  5
200DF
100
AcDbEntity
  8
0
100
AcDbPolyline
 70
0
 90
2
 38
0
 10
3723.45388139889
 20
2334.52252741972
 10
3943.99833455106
 20
2276.05765198402
  0
LWPOLYLINE
  5
200E0
100
AcDbEntity
  8
0
100
AcDbPolyline
 70
0
 90
2
 38
0
 10
3895.15357167134
 20
2198.21550164327
 10
3983.88567629715
 20
2431.43267707108
  0
LWPOLYLINE
  5
200E1
100
AcDbEntity
  8
0
100
AcDbPolyline
 70
0
 90
2
 38
0
 10
3982.59973920102
 20
2406.37628056774
 10
3964.59610511985
 20
2464.8412057422
  0
LWPOLYLINE
  5
200E2
100
AcDbEntity
  8
0
100
AcDbPolyline
 70
0
 90
2
 38
0
 10
3981.95734972999
 20
2441.12258286192
 10
4017.96461789228
 20
2606.23774988495
  0
LWPOLYLINE
  5
200E3
100
AcDbEntity
  8
0
100
AcDbPolyline
 70
0
 90
2
 38
0
 10
3996.10304383893
 20
2561.90723665972
 10
4116.9846053386
 20
2525.28633033224
  0
LWPOLYLINE
  5
200E4
100
AcDbEntity
  8
0
100
AcDbPolyline
 70
0
 90
2
 38
0
 10
3963.95371564885
 20
2276.00736610014
 10
4064.2596401913
 20
2245.81121508538
  0
LWPOLYLINE
  5
200E5
100
AcDbEntity
  8
0
100
AcDbPolyline
 70
0
 90
2
 38
0
 10
4007.6885739803
 20
2161.4932277279
 10
4082.27511318095
 20
2358.08949682823
  0
LWPOLYLINE
  5
200E6
100
AcDbEntity
  8
0
100
AcDbPolyline
 70
0
 90
2
 38
0
 10
3992.25694277522
 20
2332.39067453238
 10
4077.77414031877
 20
2288.70258709966
  0
LWPOLYLINE
  5
200E7
100
AcDbEntity
  8
0
100
AcDbPolyline
 70
0
 90
2
 38
0
 10
4010.90360974634
 20
2384.43084439412
 10
4093.84893309761
 20
2361.94435001587
  0
LWPOLYLINE
  5
200E8
100
AcDbEntity
  8
0
100
AcDbPolyline
 70
0
 90
2
 38
0
 10
4025.69220806143
 20
2440.96834297476
 10
4095.13487019375
 20
2420.40927519032
  0
LWPOLYLINE
  5
200E9
100
AcDbEntity
  8
0
100
AcDbPolyline
 70
0
 90
2
 38
0
 10
4009.6811137578
 20
2493.3270895786
 10
4113.33243074382
 20
2473.38542899163
  0
LWPOLYLINE
  5
200EA
100
AcDbEntity
  8
0
100
AcDbPolyline
 70
0
 90
2
 38
0
 10
3928.56284283233
 20
2517.12847775145
 10
3943.37010029674
 20
2625.84292777709
  0
LWPOLYLINE
  5
200EB
100
AcDbEntity
  8
0
100
AcDbPolyline
 70
0
 90
2
 38
0
 10
3858.3889994151
 20
2542.21645836583
 10
3868.68975061443
 20
2637.42201105719
  0
LWPOLYLINE
  5
200EC
100
AcDbEntity
  8
0
100
AcDbPolyline
 70
0
 90
2
 38
0
 10
3799.96746032883
 20
2285.50045562736
 10
3847.66848169843
 20
2497.4063640403
  0
LWPOLYLINE
  5
200ED
100
AcDbEntity
  8
0
100
AcDbPolyline
 70
0
 90
2
 38
0
 10
3856.69294708574
 20
2266.82181131085
 10
3921.79832213456
 20
2480.6599709771
  0
LWPOLYLINE
  5
200EE
100
AcDbEntity
  8
0
100
AcDbPolyline
 70
0
 90
2
 38
0
 10
4086.96628068219
 20
2603.7580241273
 10
4547.38477882199
 20
2540.83645653761
  0
LWPOLYLINE
  5
200EF
100
AcDbEntity
  8
0
100
AcDbPolyline
 70
0
 90
2
 38
0
 10
4341.9514055583
 20
2737.8531673555
 10
4297.56128937699
 20
2292.24473271858
  0
LWPOLYLINE
  5
200F0
100
AcDbEntity
  8
0
100
AcDbPolyline
 70
0
 90
2
 38
0
 10
4281.5947196641
 20
2710.08760020594
 10
4316.53519922166
 20
2888.5291730618
  0
LWPOLYLINE
  5
200F1
100
AcDbEntity
  8
0
100
AcDbPolyline
 70
0
 90
2
 38
0
 10
4205.24328230738
 20
2721.72512652617
 10
4218.83126087795
 20
2849.73751813857
  0
LWPOLYLINE
  5
200F2
100
AcDbEntity
  8
0
100
AcDbPolyline
 70
0
 90
2
 38
0
 10
5398.15113608248
 20
3269.04728106359
 10
5476.16272299163
 20
2804.47117019003
  0
LWPOLYLINE
  5
200F3
100
AcDbEntity
  8
0
100
AcDbPolyline
 70
0
 90
2
 38
0
 10
5611.38261823126
 20
2829.41485866877
 10
5518.80891647434
 20
3286.71573121425
  0
LWPOLYLINE
  5
200F4
100
AcDbEntity
  8
0
100
AcDbPolyline
 70
0
 90
2
 38
0
 10
5223.40537185798
 20
3193.17692428839
 10
5720.59873695706
 20
3272.16525455812
  0
LWPOLYLINE
  5
200F5
100
AcDbEntity
  8
0
100
AcDbPolyline
 70
0
 90
2
 38
0
 10
5686.27375195877
 20
3283.59775771973
 10
5691.47450726153
 20
3137.05360034186
  0
LWPOLYLINE
  5
200F6
100
AcDbEntity
  8
0
100
AcDbPolyline
 70
0
 90
2
 38
0
 10
5697.71541362486
 20
3178.62639789349
 10
5662.35014888222
 20
3070.5371143115
  0
LWPOLYLINE
  5
200F7
100
AcDbEntity
  8
0
100
AcDbPolyline
 70
0
 90
2
 38
0
 10
5670.67135736666
 20
3119.3851501912
 10
5675.87211266943
 20
2842.92599424714
  0
LWPOLYLINE
  5
200F8
100
AcDbEntity
  8
0
100
AcDbPolyline
 70
0
 90
2
 38
0
 10
5733.08067836749
 20
2898.0099771159
 10
5729.96022518585
 20
2746.2692635655
  0
LWPOLYLINE
  5
200F9
100
AcDbEntity
  8
0
100
AcDbPolyline
 70
0
 90
2
 38
0
 10
5535.46317235174
 20
2775.81682118181
 10
5831.076471543
 20
2760.20218380789
  0
LWPOLYLINE
  5
200FA
100
AcDbEntity
  8
0
100
AcDbPolyline
 70
0
 90
2
 38
0
 10
5549.78799429393
 20
2853.88990857386
 10
5602.52955964993
 20
2617.71884781268
  0
LWPOLYLINE
  5
200FB
100
AcDbEntity
  8
0
100
AcDbPolyline
 70
0
 90
2
 38
0
 10
5578.43776686213
 20
2645.69505860047
 10
5820.00722076013
 20
2686.03279306338
  0
LWPOLYLINE
  5
200FC
100
AcDbEntity
  8
0
100
AcDbPolyline
 70
0
 90
2
 38
0
 10
5687.17659741724
 20
2790.13024291946
 10
5686.52545744862
 20
2646.99627423674
  0
LWPOLYLINE
  5
200FD
100
AcDbEntity
  8
0
100
AcDbPolyline
 70
0
 90
2
 38
0
 10
5557.60154523366
 20
2691.88828829594
 10
5706.71053910843
 20
2702.29801338605
  0
LWPOLYLINE
  5
200FE
100
AcDbEntity
  8
0
100
AcDbPolyline
 70
0
 90
2
 38
0
 10
5561.50838504542
 20
2740.03331657644
 10
5721.03536105063
 20
2736.78030235515
  0
LWPOLYLINE
  5
200FF
100
AcDbEntity
  8
0
100
AcDbPolyline
 70
0
 90
2
 38
0
 10
5616.85451027591
 20
2747.19002744526
 10
5647.50994836801
 20
2438.4651902623
  0
LWPOLYLINE
  5
20100
100
AcDbEntity
  8
0
100
AcDbPolyline
 70
0
 90
2
 38
0
 10
5446.50754398573
 20
2532.12182830481
 10
5824.55876635111
 20
2573.74695102938
  0
LWPOLYLINE
  5
20101
100
AcDbEntity
  8
0
100
AcDbPolyline
 70
0
 90
2
 38
0
 10
5503.78804392144
 20
2553.97499908318
 10
5520.45143634779
 20
2428.05889714647
  0
LWPOLYLINE
  5
20102
100
AcDbEntity
  8
0
100
AcDbPolyline
 70
0
 90
2
 38
0
 10
5638.13687859831
 20
2874.48876736434
 10
5630.84655594165
 20
2752.73515283071
  0
LWPOLYLINE
  5
20103
100
AcDbEntity
  8
0
100
AcDbPolyline
 70
0
 90
2
 38
0
 10
5845.2840625541
 20
3189.32023076672
 10
5833.79903445134
 20
2928.50724656886
  0
LWPOLYLINE
  5
20104
100
AcDbEntity
  8
0
100
AcDbPolyline
 70
0
 90
2
 38
0
 10
5650.03948559397
 20
2955.63178061113
 10
5839.01947837373
 20
2946.24254560968
  0
LWPOLYLINE
  5
20105
100
AcDbEntity
  8
0
100
AcDbPolyline
 70
0
 90
2
 38
0
 10
5769.06555555062
 20
2966.06433579095
 10
5771.15370738282
 20
2869.04187602505
  0
LWPOLYLINE
  5
20106
100
AcDbEntity
  8
0
100
AcDbPolyline
 70
0
 90
2
 38
0
 10
5079.08804752308
 20
3089.40188105875
 10
5092.81358906333
 20
2907.19533295016
  0
LWPOLYLINE
  5
20107
100
AcDbEntity
  8
0
100
AcDbPolyline
 70
0
 90
2
 38
0
 10
4910.46081137928
 20
2983.60450968589
 10
5111.11422532779
 20
3002.54353639817
  0
LWPOLYLINE
  5
20108
100
AcDbEntity
  8
0
100
AcDbPolyline
 70
0
 90
2
 38
0
 10
4930.72233120934
 20
3073.075133893
 10
4960.78762544846
 20
2892.1746758189
  0
LWPOLYLINE
  5
20109
100
AcDbEntity
  8
0
100
AcDbPolyline
 70
0
 90
2
 38
0
 10
4894.12105868041
 20
2960.74706365384
 10
4902.61779185204
 20
2894.78695536542
  0
LWPOLYLINE
  5
2010A
100
AcDbEntity
  8
0
100
AcDbPolyline
 70
0
 90
2
 38
0
 10
4786.27799597543
 20
2931.35891875548
 10
5104.57824703798
 20
2950.29794546776
  0
LWPOLYLINE
  5
2010B
100
AcDbEntity
  8
0
100
AcDbPolyline
 70
0
 90
2
 38
0
 10
5583.63363218095
 20
2366.97900653258
 10
5618.34968721177
 20
2048.47756890437
  0
LWPOLYLINE
  5
2010C
100
AcDbEntity
  8
0
100
AcDbPolyline
 70
0
 90
2
 38
0
 10
5537.3455588065
 20
2189.33300510373
 10
5954.99059519696
 20
2215.61198026765
  0
LWPOLYLINE
  5
2010D
100
AcDbEntity
  8
0
100
AcDbPolyline
 70
0
 90
2
 38
0
 10
5869.7783782316
 20
2052.68223477385
 10
5938.15862700797
 20
2382.74639163093
  0
LWPOLYLINE
  5
2010E
100
AcDbEntity
  8
0
100
AcDbPolyline
 70
0
 90
2
 38
0
 10
5602.92680650431
 20
1659.33122889163
 10
5548.0206511459
 20
1905.4088077328
  0
LWPOLYLINE
  5
2010F
100
AcDbEntity
  8
0
100
AcDbPolyline
 70
0
 90
2
 38
0
 10
5564.91631781007
 20
1845.2660450499
 10
5417.07884844716
 20
2237.77671462331
  0
LWPOLYLINE
  5
20110
100
AcDbEntity
  8
0
100
AcDbPolyline
 70
0
 90
2
 38
0
 10
5188.98657637803
 20
2170.24799513805
 10
5452.98226879232
 20
2207.17772941115
  0
LWPOLYLINE
  5
20111
100
AcDbEntity
  8
0
100
AcDbPolyline
 70
0
 90
2
 38
0
 10
5366.39171977085
 20
2213.50857794962
 10
5371.67161560341
 20
2104.82954191935
  0
LWPOLYLINE
  5
20112
100
AcDbEntity
  8
0
100
AcDbPolyline
 70
0
 90
2
 38
0
 10
5251.28960456976
 20
2154.42092353064
 10
5499.44548080259
 20
2105.88469992202
  0
LWPOLYLINE
  5
20113
100
AcDbEntity
  8
0
100
AcDbPolyline
 70
0
 90
2
 38
0
 10
5432.91853594483
 20
2140.70416792855
 10
5397.01511559967
 20
1950.77965681094
  0
LWPOLYLINE
  5
20114
100
AcDbEntity
  8
0
100
AcDbPolyline
 70
0
 90
2
 38
0
 10
5207.99433005904
 20
2023.58406683201
 10
5564.91631781007
 20
1925.45636213459
  0
LWPOLYLINE
  5
20115
100
AcDbEntity
  8
0
100
AcDbPolyline
 70
0
 90
2
 38
0
 10
5459.3181437914
 20
1754.52434689362
 10
5483.60566462114
 20
1965.55157041569
  0
LWPOLYLINE
  5
20116
100
AcDbEntity
  8
0
100
AcDbPolyline
 70
0
 90
2
 38
0
 10
5435.03049427786
 20
1825.21844090935
 10
5601.87571732176
 20
1767.18594449303
  0
LWPOLYLINE
  5
20117
100
AcDbEntity
  8
0
100
AcDbPolyline
 70
0
 90
2
 38
0
 10
5215.3861842246
 20
1825.21844090935
 10
5495.22156413656
 20
1781.95785809778
  0
LWPOLYLINE
  5
20118
100
AcDbEntity
  8
0
100
AcDbPolyline
 70
0
 90
2
 38
0
 10
5210.10628839204
 20
1887.47146985881
 10
5444.53430677645
 20
1898.02285093042
  0
LWPOLYLINE
  5
20119
100
AcDbEntity
  8
0
100
AcDbPolyline
 70
0
 90
2
 38
0
 10
5395.95913643314
 20
1902.24338346356
 10
5506.83733496818
 20
1857.92769238808
  0
LWPOLYLINE
  5
2011A
100
AcDbEntity
  8
0
100
AcDbPolyline
 70
0
 90
2
 38
0
 10
5591.32480483802
 20
1817.80592361045
 10
5729.65846170235
 20
1782.98640586515
  0
LWPOLYLINE
  5
2011B
100
AcDbEntity
  8
0
100
AcDbPolyline
 70
0
 90
2
 38
0
 10
5659.96357934503
 20
1740.78098105624
 10
5838.42457322057
 20
1696.465240242
  0
LWPOLYLINE
  5
2011C
100
AcDbEntity
  8
0
100
AcDbPolyline
 70
0
 90
2
 38
0
 10
5790.24845130468
 20
1643.60721598987
 10
5817.45349098201
 20
1533.54782996008
  0
LWPOLYLINE
  5
2011D
100
AcDbEntity
  8
0
100
AcDbPolyline
 70
0
 90
2
 38
0
 10
5818.78060689039
 20
1566.69826421827
 10
5771.00572102633
 20
1331.33028543649
  0
LWPOLYLINE
  5
2011E
100
AcDbEntity
  8
0
100
AcDbPolyline
 70
0
 90
2
 38
0
 10
5605.12073641046
 20
1680.07268870001
 10
5706.64233670067
 20
1346.57949215869
  0
LWPOLYLINE
  5
2011F
100
AcDbEntity
  8
0
100
AcDbPolyline
 70
0
 90
2
 38
0
 10
5548.71979016755
 20
1702.61494022547
 10
5500.28141069118
 20
1412.21729329817
  0
LWPOLYLINE
  5
20120
100
AcDbEntity
  8
0
100
AcDbPolyline
 70
0
 90
2
 38
0
 10
5213.4175796317
 20
1733.99034744298
 10
5574.17357217037
 20
1623.7923394959
  0
LWPOLYLINE
  5
20121
100
AcDbEntity
  8
0
100
AcDbPolyline
 70
0
 90
2
 38
0
 10
5474.51724339108
 20
1687.5213163369
 10
5564.8723079545
 20
1660.96758427627
  0
LWPOLYLINE
  5
20122
100
AcDbEntity
  8
0
100
AcDbPolyline
 70
0
 90
2
 38
0
 10
5475.84603218871
 20
1635.74152887093
 10
5501.09224724103
 20
1714.07504839752
  0
LWPOLYLINE
  5
20123
100
AcDbEntity
  8
0
100
AcDbPolyline
 70
0
 90
2
 38
0
 10
5333.00522564037
 20
1449.86535470781
 10
5370.21028250386
 20
1700.13431917019
  0
LWPOLYLINE
  5
20124
100
AcDbEntity
  8
0
100
AcDbPolyline
 70
0
 90
2
 38
0
 10
5198.13689451027
 20
1662.29526093155
 10
5380.84020683356
 20
1619.14544633304
  0
LWPOLYLINE
  5
20125
100
AcDbEntity
  8
0
100
AcDbPolyline
 70
0
 90
2
 38
0
 10
5350.27896527448
 20
1656.98450457168
 10
5660.54239902465
 20
1567.36565886708
  0
LWPOLYLINE
  5
20126
100
AcDbEntity
  8
0
100
AcDbPolyline
 70
0
 90
2
 38
0
 10
5186.84244709794
 20
1589.27249776484
 10
5381.50460123239
 20
1544.13114331403
  0
LWPOLYLINE
  5
20127
100
AcDbEntity
  8
0
100
AcDbPolyline
 70
0
 90
2
 38
0
 10
5430.6683712232
 20
1585.28941806024
 10
5390.14147104943
 20
1437.91621507154
  0
LWPOLYLINE
  5
20128
100
AcDbEntity
  8
0
100
AcDbPolyline
 70
0
 90
2
 38
0
 10
5332.34083124154
 20
1597.90242089354
 10
5544.2767250101
 20
1544.13114331403
  0
LWPOLYLINE
  5
20129
100
AcDbEntity
  8
0
100
AcDbPolyline
 70
0
 90
2
 38
0
 10
5654.84762665874
 20
2372.2986163913
 10
5686.19139433428
 20
2180.38843459478
  0
LWPOLYLINE
  5
2012A
100
AcDbEntity
  8
0
100
AcDbPolyline
 70
0
 90
2
 38
0
 10
5092.34402191994
 20
1795.61801099377
 10
5095.55210876142
 20
2200.57958478962
  0
LWPOLYLINE
  5
2012B
100
AcDbEntity
  8
0
100
AcDbPolyline
 70
0
 90
2
 38
0
 10
4971.50659895965
 20
2164.25059523019
 10
5224.72759778242
 20
2174.02709619793
  0
LWPOLYLINE
  5
2012C
100
AcDbEntity
  8
0
100
AcDbPolyline
 70
0
 90
2
 38
0
 10
5211.31552995037
 20
2169.55995890486
 10
5188.06764544602
 20
2325.47579350276
  0
LWPOLYLINE
  5
2012D
100
AcDbEntity
  8
0
100
AcDbPolyline
 70
0
 90
2
 38
0
 10
5058.2191402124
 20
2312.03081047193
 10
5099.25936001758
 20
2179.59728991719
  0
LWPOLYLINE
  5
2012E
100
AcDbEntity
  8
0
100
AcDbPolyline
 70
0
 90
2
 38
0
 10
6746.81746112343
 20
2518.32429696046
 10
6760.97615229495
 20
1902.80717228039
  0
LWPOLYLINE
  5
2012F
100
AcDbEntity
  8
0
100
AcDbPolyline
 70
0
 90
2
 38
0
 10
6741.48390415116
 20
1999.10812162927
 10
7536.69682659829
 20
2037.86898826158
  0
LWPOLYLINE
  5
20130
100
AcDbEntity
  8
0
100
AcDbPolyline
 70
0
 90
2
 38
0
 10
6496.29907922182
 20
2215.38139138765
 10
6782.90554270474
 20
2244.66995929339
  0
LWPOLYLINE
  5
20131
100
AcDbEntity
  8
0
100
AcDbPolyline
 70
0
 90
2
 38
0
 10
6025.13561344563
 20
2053.75211544875
 10
6552.75188503141
 20
2225.14426393582
  0
LWPOLYLINE
  5
20132
100
AcDbEntity
  8
0
100
AcDbPolyline
 70
0
 90
2
 38
0
 10
6710.16818954147
 20
2467.04577669308
 10
7176.98922088262
 20
2513.69048509084
  0
LWPOLYLINE
  5
20133
100
AcDbEntity
  8
0
100
AcDbPolyline
 70
0
 90
2
 38
0
 10
7137.90653886457
 20
2555.99613349621
 10
7172.64678644759
 20
2185.00812065726
  0
LWPOLYLINE
  5
20134
100
AcDbEntity
  8
0
100
AcDbPolyline
 70
0
 90
2
 38
0
 10
7034.77175860465
 20
2225.14426393582
 10
7332.23437251709
 20
2188.26242808623
  0
LWPOLYLINE
  5
20135
100
AcDbEntity
  8
0
100
AcDbPolyline
 70
0
 90
2
 38
0
 10
7283.38098782356
 20
2171.99099041887
 10
7251.89772692154
 20
2558.16563862302
  0
LWPOLYLINE
  5
20136
100
AcDbEntity
  8
0
100
AcDbPolyline
 70
0
 90
2
 38
0
 10
6333.41371371044
 20
2169.63924248439
 10
6465.27187366542
 20
1963.84393939148
  0
LWPOLYLINE
  5
20137
100
AcDbEntity
  8
0
100
AcDbPolyline
 70
0
 90
2
 38
0
 10
6447.83612114188
 20
2012.84283292283
 10
6483.79744919177
 20
1742.80460240716
  0
LWPOLYLINE
  5
20138
100
AcDbEntity
  8
0
100
AcDbPolyline
 70
0
 90
2
 38
0
 10
6234.24754148064
 20
1712.31638540807
 10
6491.4255667926
 20
1796.15891998213
  0
LWPOLYLINE
  5
20139
100
AcDbEntity
  8
0
100
AcDbPolyline
 70
0
 90
2
 38
0
 10
6269.1191752115
 20
1891.97894528426
 10
6246.23803950369
 20
1377.79692908221
  0
LWPOLYLINE
  5
2013A
100
AcDbEntity
  8
0
100
AcDbPolyline
 70
0
 90
2
 38
0
 10
5875.72742976312
 20
1482.32785221034
 10
6785.65796025196
 20
1503.0162407644
  0
LWPOLYLINE
  5
2013B
100
AcDbEntity
  8
0
100
AcDbPolyline
 70
0
 90
2
 38
0
 10
5858.2915485558
 20
1651.10175249998
 10
6976.36192974312
 20
1726.23333950929
  0
LWPOLYLINE
  5
2013C
100
AcDbEntity
  8
0
100
AcDbPolyline
 70
0
 90
2
 38
0
 10
5910.59893481017
 20
1933.11747374372
 10
5908.41954617211
 20
1396.30760561447
  0
LWPOLYLINE
  5
2013D
100
AcDbEntity
  8
0
100
AcDbPolyline
 70
0
 90
2
 38
0
 10
5913.86814645108
 20
1422.44034883119
 10
5856.11215991774
 20
1296.13210652996
  0
LWPOLYLINE
  5
2013E
100
AcDbEntity
  8
0
100
AcDbPolyline
 70
0
 90
2
 38
0
 10
5820.47382817638
 20
1696.98028507643
 10
5920.18471888191
 20
1705.26064421706
  0
LWPOLYLINE
  5
2013F
100
AcDbEntity
  8
0
100
AcDbPolyline
 70
0
 90
2
 38
0
 10
3696.67568584724
 20
2229.57832495512
 10
3905.7149075419
 20
2156.2142544341
  0
LWPOLYLINE
  5
20140
100
AcDbEntity
  8
0
100
AcDbPolyline
 70
0
 90
2
 38
0
 10
3811.58760640927
 20
2204.01991517183
 10
3752.86880777212
 20
2003.15536433111
  0
LWPOLYLINE
  5
20141
100
AcDbEntity
  8
0
100
AcDbPolyline
 70
0
 90
2
 38
0
 10
3656.15547723047
 20
2119.11844244953
 10
3860.63517493929
 20
2042.49996502203
  0
LWPOLYLINE
  5
20142
100
AcDbEntity
  8
0
100
AcDbPolyline
 70
0
 90
2
 38
0
 10
3667.89915974761
 20
2153.63122127702
 10
3875.14208444188
 20
2064.58820116857
  0
LWPOLYLINE
  5
20143
100
AcDbEntity
  8
0
100
AcDbPolyline
 70
0
 90
2
 38
0
 10
3660.30025336673
 20
2179.86095507096
 10
3893.79402744831
 20
2095.64970708719
  0
LWPOLYLINE
  5
20144
100
AcDbEntity
  8
0
100
AcDbPolyline
 70
0
 90
2
 38
0
 10
3681.71542335861
 20
2201.25891674023
 10
3895.86647985835
 20
2128.09176196036
  0
LWPOLYLINE
  5
20145
100
AcDbEntity
  8
0
100
AcDbPolyline
 70
0
 90
2
 38
0
 10
3889.64912262827
 20
2169.50713634434
 10
3850.96381614837
 20
2064.58820116857
  0
LWPOLYLINE
  5
20146
100
AcDbEntity
  8
0
100
AcDbPolyline
 70
0
 90
2
 38
0
 10
3866.16162891017
 20
2077.01279358827
 10
3834.38432555195
 20
1970.02308471943
  0
LWPOLYLINE
  5
20147
100
AcDbEntity
  8
0
100
AcDbPolyline
 70
0
 90
2
 38
0
 10
3944.60096073151
 20
2213.52698128991
 10
3899.19437130669
 20
2115.87313773567
  0
LWPOLYLINE
  5
20148
100
AcDbEntity
  8
0
100
AcDbPolyline
 70
0
 90
2
 38
0
 10
3904.38367375231
 20
2136.61375198517
 10
3887.51953461624
 20
2001.24828088913
  0
LWPOLYLINE
  5
20149
100
AcDbEntity
  8
0
100
AcDbPolyline
 70
0
 90
2
 38
0
 10
3918.09634691372
 20
2170.92633231352
 10
3998.40107892978
 20
2140.56509836244
  0
LWPOLYLINE
  5
2014A
100
AcDbEntity
  8
0
100
AcDbPolyline
 70
0
 90
2
 38
0
 10
3905.50811269417
 20
2144.46869553248
 10
3985.81271602644
 20
2113.67378935433
  0
LWPOLYLINE
  5
2014B
100
AcDbEntity
  8
0
100
AcDbPolyline
 70
0
 90
2
 38
0
 10
3886.84265788997
 20
2108.90274825263
 10
3979.73562412558
 20
2075.07168883613
  0
LWPOLYLINE
  5
2014C
100
AcDbEntity
  8
0
100
AcDbPolyline
 70
0
 90
2
 38
0
 10
3891.18354811956
 20
2076.80662643822
 10
3958.89978854847
 20
2052.08392725929
  0
LWPOLYLINE
  5
2014D
100
AcDbEntity
  8
0
100
AcDbPolyline
 70
0
 90
2
 38
0
 10
3883.36999717984
 20
2044.71050462381
 10
3947.17965516457
 20
2017.81914587694
  0
LWPOLYLINE
  5
2014E
100
AcDbEntity
  8
0
100
AcDbPolyline
 70
0
 90
2
 38
0
 10
4084.55834963615
 20
2152.92378692839
 10
4145.0462929944
 20
2315.0169265202
  0
LWPOLYLINE
  5
2014F
100
AcDbEntity
  8
0
100
AcDbPolyline
 70
0
 90
2
 38
0
 10
4503.31598605996
 20
2041.25570026316
 10
4445.95222771325
 20
1757.46241530208
  0
LWPOLYLINE
  5
20150
100
AcDbEntity
  8
0
100
AcDbPolyline
 70
0
 90
2
 38
0
 10
4178.0211276862
 20
2023.08175511951
 10
4494.92129913243
 20
1921.0280210724
  0
LWPOLYLINE
  5
20151
100
AcDbEntity
  8
0
100
AcDbPolyline
 70
0
 90
2
 38
0
 10
4206.70307120145
 20
2029.37276291318
 10
4129.05205626704
 20
1860.91415660765
  0
LWPOLYLINE
  5
20152
100
AcDbEntity
  8
0
100
AcDbPolyline
 70
0
 90
2
 38
0
 10
4297.64570594209
 20
2003.50980271741
 10
4264.06682954819
 20
1816.17827250838
  0
LWPOLYLINE
  5
20153
100
AcDbEntity
  8
0
100
AcDbPolyline
 70
0
 90
2
 38
0
 10
4737.20211701197
 20
1962.77385976155
 10
4689.57225777727
 20
1682.12252237616
  0
LWPOLYLINE
  5
20154
100
AcDbEntity
  8
0
100
AcDbPolyline
 70
0
 90
2
 38
0
 10
4683.96872221722
 20
1822.09827890949
 10
4891.99944906327
 20
1771.00712454181
  0
LWPOLYLINE
  5
20155
100
AcDbEntity
  8
0
100
AcDbPolyline
 70
0
 90
2
 38
0
 10
4913.71303676011
 20
1901.88441885032
 10
4825.45757688605
 20
1636.63045994586
  0
LWPOLYLINE
  5
20156
100
AcDbEntity
  8
0
100
AcDbPolyline
 70
0
 90
2
 38
0
 10
4758.21540753308
 20
1652.72766274553
 10
4817.05233788787
 20
1929.17970604726
  0
LWPOLYLINE
  5
20157
100
AcDbEntity
  8
0
100
AcDbPolyline
 70
0
 90
2
 38
0
 10
5057.24847839752
 20
1851.2324577118
 10
5005.28519259294
 20
1572.6803445888
  0
LWPOLYLINE
  5
20158
100
AcDbEntity
  8
0
100
AcDbPolyline
 70
0
 90
2
 38
0
 10
4919.61614817925
 20
1633.72327930583
 10
5123.95789686704
 20
1566.36556166902
  0
LWPOLYLINE
  5
20159
100
AcDbEntity
  8
0
100
AcDbPolyline
 70
0
 90
2
 38
0
 10
5095.86970035086
 20
1562.15572296875
 10
5145.02407642515
 20
1826.67499068545
  0
LWPOLYLINE
  5
2015A
100
AcDbEntity
  8
0
100
AcDbPolyline
 70
0
 90
2
 38
0
 10
5104.99839960664
 20
1769.14027975468
 10
5248.2482919179
 20
1741.77620385606
  0
LWPOLYLINE
  5
2015B
100
AcDbEntity
  8
0
100
AcDbPolyline
 70
0
 90
2
 38
0
 10
5062.16394174169
 20
1608.46414762671
 10
5223.67110388074
 20
1551.63105160995
  0
LWPOLYLINE
  5
2015C
100
AcDbEntity
  8
0
100
AcDbPolyline
 70
0
 90
2
 38
0
 10
4951.91758060706
 20
1851.93412236456
 10
5152.74832081579
 20
1799.31091478682
  0
LWPOLYLINE
  5
2015D
100
AcDbEntity
  8
0
100
AcDbPolyline
 70
0
 90
2
 38
0
 10
4965.96174320704
 20
1861.75707933184
 10
4928.74484743504
 20
1619.69038416076
  0
LWPOLYLINE
  5
2015E
100
AcDbEntity
  8
0
100
AcDbPolyline
 70
0
 90
2
 38
0
 10
5604.80378823995
 20
1801.09902312074
 10
5623.85902623882
 20
1899.82478663894
  0
LWPOLYLINE
  5
2015F
100
AcDbEntity
  8
0
100
AcDbPolyline
 70
0
 90
2
 38
0
 10
5630.91655992248
 20
1868.7967051654
 10
5581.51408150443
 20
1920.27512549937
  0
LWPOLYLINE
  5
20160
100
AcDbEntity
  8
0
100
AcDbPolyline
 70
0
 90
2
 38
0
 10
5601.27502139812
 20
1881.48998635338
 10
5582.21798182622
 20
1991.00204709509
  0
LWPOLYLINE
  5
20161
100
AcDbEntity
  8
0
100
AcDbPolyline
 70
0
 90
2
 38
0
 10
5563.16274382739
 20
1983.95018552718
 10
5757.24389065779
 20
1948.69102690391
  0
LWPOLYLINE
  5
20162
100
AcDbEntity
  8
0
100
AcDbPolyline
 70
0
 90
2
 38
0
 10
5691.65865376254
 20
1880.16191178804
 10
5889.26856743477
 20
1834.3249608129
  0
LWPOLYLINE
  5
20163
100
AcDbEntity
  8
0
100
AcDbPolyline
 70
0
 90
2
 38
0
 10
4980.73515683515
 20
1854.61414609887
 10
4989.22545581736
 20
2174.86763146177
  0
LWPOLYLINE
  5
20164
100
AcDbEntity
  8
0
100
AcDbPolyline
 70
0
 90
2
 38
0
 10
4442.88685119298
 20
2108.51543254759
 10
4645.94742408479
 20
2086.59959093471
  0
LWPOLYLINE
  5
20165
100
AcDbEntity
  8
0
100
AcDbPolyline
 70
0
 90
2
 38
0
 10
4618.35388805068
 20
2075.99518834755
 10
4643.82491368113
 20
2201.12735772652
  0
LWPOLYLINE
  5
20166
100
AcDbEntity
  8
0
100
AcDbPolyline
 70
0
 90
2
 38
0
 10
4587.22257730959
 20
2150.22610593515
 10
4940.98679358038
 20
2119.8267720958
  0
LWPOLYLINE
  5
20167
100
AcDbEntity
  8
0
100
AcDbPolyline
 70
0
 90
2
 38
0
 10
4759.85947161197
 20
2153.76093995671
 10
4706.08740647955
 20
1932.48206111603
  0
LWPOLYLINE
  5
20168
100
AcDbEntity
  8
0
100
AcDbPolyline
 70
0
 90
2
 38
0
 10
3594.75722475404
 20
2331.22688708323
 10
3547.94270600179
 20
2168.2159679371
  0
LWPOLYLINE
  5
20169
100
AcDbEntity
  8
0
100
AcDbPolyline
 70
0
 90
2
 38
0
 10
3255.706455466
 20
2149.7886535625
 10
3555.74519013573
 20
2036.38975761205
  0
LWPOLYLINE
  5
2016A
100
AcDbEntity
  8
0
100
AcDbPolyline
 70
0
 90
2
 38
0
 10
3503.96540741324
 20
2049.85587961484
 10
3723.85190035601
 20
2011.58374601421
  0
LWPOLYLINE
  5
2016B
100
AcDbEntity
  8
0
100
AcDbPolyline
 70
0
 90
2
 38
0
 10
3684.83986573768
 20
2010.87501845788
 10
3700.44470532177
 20
2078.91435602816
  0
LWPOLYLINE
  5
2016C
100
AcDbEntity
  8
0
100
AcDbPolyline
 70
0
 90
2
 38
0
 10
4082.67441897595
 20
1676.04618706007
 10
4148.26042797393
 20
1835.60588303608
  0
LWPOLYLINE
  5
2016D
100
AcDbEntity
  8
0
100
AcDbPolyline
 70
0
 90
2
 38
0
 10
4042.7524612908
 20
1843.44142846794
 10
4397.77237396751
 20
1738.01804281311
  0
LWPOLYLINE
  5
2016E
100
AcDbEntity
  8
0
100
AcDbPolyline
 70
0
 90
2
 38
0
 10
4387.07900853019
 20
1750.83979921183
 10
4397.77237396751
 20
1710.23755403627
  0
LWPOLYLINE
  5
2016F
100
AcDbEntity
  8
0
100
AcDbPolyline
 70
0
 90
2
 38
0
 10
4398.48528215449
 20
1723.77161918187
 10
4351.434499967
 20
1584.15691628959
  0
LWPOLYLINE
  5
20170
100
AcDbEntity
  8
0
100
AcDbPolyline
 70
0
 90
2
 38
0
 10
4236.65898422056
 20
1619.06059201266
 10
4305.09649728271
 20
1785.03116618803
  0
LWPOLYLINE
  5
20171
100
AcDbEntity
  8
0
100
AcDbPolyline
 70
0
 90
2
 38
0
 10
4023.50445497714
 20
1824.20879386985
 10
4406.32714352765
 20
1697.41579763754
  0
LWPOLYLINE
  5
20172
100
AcDbEntity
  8
0
100
AcDbPolyline
 70
0
 90
2
 38
0
 10
4013.52399772679
 20
1787.88045091428
 10
4293.69022365837
 20
1705.25129333065
  0
LWPOLYLINE
  5
20173
100
AcDbEntity
  8
0
100
AcDbPolyline
 70
0
 90
2
 38
0
 10
4007.10795272765
 20
1752.97677519121
 10
4382.088779905
 20
1637.58091786388
  0
LWPOLYLINE
  5
20174
100
AcDbEntity
  8
0
100
AcDbPolyline
 70
0
 90
2
 38
0
 10
4305.09649728271
 20
1706.67596056315
 10
4405.61423534064
 20
1666.78602413446
  0
LWPOLYLINE
  5
20175
100
AcDbEntity
  8
0
100
AcDbPolyline
 70
0
 90
2
 38
0
 10
4318.51409851763
 20
1772.31142398104
 10
4317.08480768136
 20
1688.75996061616
  0
LWPOLYLINE
  5
20176
100
AcDbEntity
  8
0
100
AcDbPolyline
 70
0
 90
2
 38
0
 10
4324.23164791407
 20
1705.18459365678
 10
4267.05654000095
 20
1660.9094396687
  0
LWPOLYLINE
  5
20177
100
AcDbEntity
  8
0
100
AcDbPolyline
 70
0
 90
2
 38
0
 10
6634.5057251871
 20
1313.69212618917
 10
6644.87184775088
 20
1096.17881946632
  0
LWPOLYLINE
  5
20178
100
AcDbEntity
  8
0
100
AcDbPolyline
 70
0
 90
2
 38
0
 10
6769.26480378097
 20
1075.46327355063
 10
6764.69202536493
 20
1732.10136890876
  0
LWPOLYLINE
  5
20179
100
AcDbEntity
  8
0
100
AcDbPolyline
 70
0
 90
2
 38
0
 10
5719.61855254183
 20
1064.78893827036
 10
6030.23007593927
 20
1075.17279920654
  0
LWPOLYLINE
  5
2017A
100
AcDbEntity
  8
0
100
AcDbPolyline
 70
0
 90
2
 38
0
 10
5977.11442681079
 20
1079.78785956457
 10
6071.79892874663
 20
1054.40502759543
  0
LWPOLYLINE
  5
2017B
100
AcDbEntity
  8
0
100
AcDbPolyline
 70
0
 90
2
 38
0
 10
6002.51763608482
 20
1057.86634773333
 10
6287.72607889204
 20
1055.55881755431
  0
LWPOLYLINE
  5
2017C
100
AcDbEntity
  8
0
100
AcDbPolyline
 70
0
 90
2
 38
0
 10
6271.56030667492
 20
1109.78575189173
 10
6240.38369924034
 20
822.498319212784
  0
LWPOLYLINE
  5
2017D
100
AcDbEntity
  8
0
100
AcDbPolyline
 70
0
 90
2
 38
0
 10
6233.45562144765
 20
874.417773109948
 10
6438.98627965525
 20
202.337584127854
  0
LWPOLYLINE
  5
2017E
100
AcDbEntity
  8
0
100
AcDbPolyline
 70
0
 90
2
 38
0
 10
6281.17993458293
 20
582.841417106225
 10
7348.86996924516
 20
655.294671498996
  0
LWPOLYLINE
  5
2017F
100
AcDbEntity
  8
0
100
AcDbPolyline
 70
0
 90
2
 38
0
 10
7295.17820279664
 20
645.86987328589
 10
7509.21962070878
 20
728.517931597387
  0
LWPOLYLINE
  5
20180
100
AcDbEntity
  8
0
100
AcDbPolyline
 70
0
 90
2
 38
0
 10
2688.93788393271
 20
1613.54401667404
 10
2570.53940481141
 20
1296.11559326246
  0
LWPOLYLINE
  5
20181
100
AcDbEntity
  8
0
100
AcDbPolyline
 70
0
 90
2
 38
0
 10
2541.23283018792
 20
1352.33909106669
 10
2652.59771081017
 20
1260.97590713482
  0
LWPOLYLINE
  5
20182
100
AcDbEntity
  8
0
100
AcDbPolyline
 70
0
 90
2
 38
0
 10
2638.53051381207
 20
1304.31482848953
 10
2598.6736701238
 20
1161.41348797586
  0
LWPOLYLINE
  5
20183
100
AcDbEntity
  8
0
100
AcDbPolyline
 70
0
 90
2
 38
0
 10
2500.20367718853
 20
1177.81200816877
 10
2674.87068693462
 20
1161.41348797586
  0
LWPOLYLINE
  5
20184
100
AcDbEntity
  8
0
100
AcDbPolyline
 70
0
 90
2
 38
0
 10
2007.63160429367
 20
1247.52570153444
 10
2350.79497877089
 20
1287.45105195851
  0
LWPOLYLINE
  5
20185
100
AcDbEntity
  8
0
100
AcDbPolyline
 70
0
 90
2
 38
0
 10
2313.18804243667
 20
1258.09419273865
 10
2371.94892067258
 20
1529.3517191569
  0
LWPOLYLINE
  5
20186
100
AcDbEntity
  8
0
100
AcDbPolyline
 70
0
 90
2
 38
0
 10
2374.29933006526
 20
1490.60065105982
 10
2333.16671530012
 20
1630.33935267468
  0
LWPOLYLINE
  5
20187
100
AcDbEntity
  8
0
100
AcDbPolyline
 70
0
 90
2
 38
0
 10
1454.10459457296
 20
1537.57164570711
 10
1962.93830910721
 20
1534.50420679025
  0
LWPOLYLINE
  5
20188
100
AcDbEntity
  8
0
100
AcDbPolyline
 70
0
 90
2
 38
0
 10
1740.46218360939
 20
1614.029616164
 10
1595.78415861598
 20
729.87689393117
  0
LWPOLYLINE
  5
20189
100
AcDbEntity
  8
0
100
AcDbPolyline
 70
0
 90
2
 38
0
 10
1569.22279524755
 20
1344.75965049745
 10
1715.80688451276
 20
1322.56775878016
  0
LWPOLYLINE
  5
2018A
100
AcDbEntity
  8
0
100
AcDbPolyline
 70
0
 90
2
 38
0
 10
1537.38887102251
 20
1456.45897310242
 10
1649.91808256099
 20
1424.65054026168
  0
LWPOLYLINE
  5
2018B
100
AcDbEntity
  8
0
100
AcDbPolyline
 70
0
 90
2
 38
0
 10
1598.09544813701
 20
1430.56840789621
 10
1965.29605347582
 20
1400.97916920108
  0
LWPOLYLINE
  5
2018C
100
AcDbEntity
  8
0
100
AcDbPolyline
 70
0
 90
2
 38
0
 10
1967.5170069775
 20
1526.73337148195
 10
1917.98661687391
 20
1231.42561388684
  0
LWPOLYLINE
  5
2018D
100
AcDbEntity
  8
0
100
AcDbPolyline
 70
0
 90
2
 38
0
 10
2001.46057322738
 20
1531.01145175758
 10
2375.67161398333
 20
1535.46103126924
  0
LWPOLYLINE
  5
2018E
100
AcDbEntity
  8
0
100
AcDbPolyline
 70
0
 90
2
 38
0
 10
1569.16823332134
 20
971.127774000924
 10
2211.75240291702
 20
860.950208683192
  0
LWPOLYLINE
  5
2018F
100
AcDbEntity
  8
0
100
AcDbPolyline
 70
0
 90
2
 38
0
 10
1532.77735878622
 20
1424.89813979677
 10
1735.41662095526
 20
1360.87968338683
  0
LWPOLYLINE
  5
20190
100
AcDbEntity
  8
0
100
AcDbPolyline
 70
0
 90
2
 38
0
 10
1214.66357053287
 20
1496.36054840038
 10
1555.12728781605
 20
1386.18929990485
  0
LWPOLYLINE
  5
20191
100
AcDbEntity
  8
0
100
AcDbPolyline
 70
0
 90
2
 38
0
 10
1533.52230923649
 20
1385.44490965936
 10
1555.87223826632
 20
1433.08653197469
  0
LWPOLYLINE
  5
20192
100
AcDbEntity
  8
0
100
AcDbPolyline
 70
0
 90
2
 38
0
 10
1412.08779349863
 20
1441.27492415262
 10
1384.52295394932
 20
1333.33689613232
  0
LWPOLYLINE
  5
20193
100
AcDbEntity
  8
0
100
AcDbPolyline
 70
0
 90
2
 38
0
 10
994.889418537248
 20
1442.01931439811
 10
1407.61783342942
 20
1349.71368048817
  0
LWPOLYLINE
  5
20194
100
AcDbEntity
  8
0
100
AcDbPolyline
 70
0
 90
2
 38
0
 10
1235.52346997836
 20
1498.59371913685
 10
1144.63385295849
 20
1162.12485168634
  0
LWPOLYLINE
  5
20195
100
AcDbEntity
  8
0
100
AcDbPolyline
 70
0
 90
2
 38
0
 10
970.304509472815
 20
1334.08128637781
 10
1330.13809661717
 20
1261.87448752871
  0
LWPOLYLINE
  5
20196
100
AcDbEntity
  8
0
100
AcDbPolyline
 70
0
 90
2
 38
0
 10
1360.68299533516
 20
1467.32893091613
 10
1251.91340935464
 20
1143.51484685526
  0
LWPOLYLINE
  5
20197
100
AcDbEntity
  8
0
100
AcDbPolyline
 70
0
 90
2
 38
0
 10
1260.85332949307
 20
1179.99046627193
 10
1102.37152321615
 20
228.711361363661
  0
LWPOLYLINE
  5
20198
100
AcDbEntity
  8
0
100
AcDbPolyline
 70
0
 90
2
 38
0
 10
258.045532190794
 20
173.48373296309
 10
1174.79681819289
 20
261.086169436618
  0
LWPOLYLINE
  5
20199
100
AcDbEntity
  8
0
100
AcDbPolyline
 70
0
 90
2
 38
0
 10
-189.847529418112
 20
866.685584816267
 10
1407.32005914337
 20
647.679518501827
  0
LWPOLYLINE
  5
2019A
100
AcDbEntity
  8
0
100
AcDbPolyline
 70
0
 90
2
 38
0
 10
1106.18339439217
 20
542.937454347906
 10
1841.87170032
 20
405.82063185978
  0
LWPOLYLINE
  5
2019B
100
AcDbEntity
  8
0
100
AcDbPolyline
 70
0
 90
2
 38
0
 10
1723.70407991485
 20
-11.2431277293144
 10
1860.9309275163
 20
963.810009035151
  0
LWPOLYLINE
  5
2019C
100
AcDbEntity
  8
0
100
AcDbPolyline
 70
0
 90
2
 38
0
 10
1778.97595459952
 20
621.017903076085
 10
2253.55211444054
 20
645.775120952756
  0
LWPOLYLINE
  5
2019D
100
AcDbEntity
  8
0
100
AcDbPolyline
 70
0
 90
2
 38
0
 10
3922.30559362791
 20
747.263225849012
 10
4488.06464084226
 20
744.872930377431
  0
LWPOLYLINE
  5
2019E
100
AcDbEntity
  8
0
100
AcDbPolyline
 70
0
 90
2
 38
0
 10
3566.1145297942
 20
1642.43840492621
 10
3648.86605536035
 20
1604.16696766819
  0
LWPOLYLINE
  5
2019F
100
AcDbEntity
  8
0
100
AcDbPolyline
 70
0
 90
2
 38
0
 10
3611.50966636188
 20
1611.7267614282
 10
3872.05869219123
 20
1614.08920319554
  0
LWPOLYLINE
  5
201A0
100
AcDbEntity
  8
0
100
AcDbPolyline
 70
0
 90
2
 38
0
 10
3505.58772393191
 20
1614.08920319554
 10
3613.87397360368
 20
1578.18015796612
  0
LWPOLYLINE
  5
201A1
100
AcDbEntity
  8
0
100
AcDbPolyline
 70
0
 90
2
 38
0
 10
3577.46328176517
 20
1583.85002815551
 10
3874.89591235493
 20
1586.21246992286
  0
LWPOLYLINE
  5
201A2
100
AcDbEntity
  8
0
100
AcDbPolyline
 70
0
 90
2
 38
0
 10
3474.37186794191
 20
1573.42582908695
 10
3699.45602777653
 20
1536.09937848363
  0
LWPOLYLINE
  5
201A3
100
AcDbEntity
  8
0
100
AcDbPolyline
 70
0
 90
2
 38
0
 10
3679.12283107638
 20
1537.51683359629
 10
3863.06755590509
 20
1562.08613844694
  0
LWPOLYLINE
  5
201A4
100
AcDbEntity
  8
0
100
AcDbPolyline
 70
0
 90
2
 38
0
 10
3485.72061991289
 20
1537.51683359629
 10
3665.40964317982
 20
1515.30992077423
  0
LWPOLYLINE
  5
201A5
100
AcDbEntity
  8
0
100
AcDbPolyline
 70
0
 90
2
 38
0
 10
3625.68894693954
 20
1501.60783810562
 10
3838.00574472133
 20
1528.53958472362
  0
LWPOLYLINE
  5
201A6
100
AcDbEntity
  8
0
100
AcDbPolyline
 70
0
 90
2
 38
0
 10
3386.89159920835
 20
1515.30992077423
 10
3730.19227928764
 20
1472.78611817824
  0
LWPOLYLINE
  5
201A7
100
AcDbEntity
  8
0
100
AcDbPolyline
 70
0
 90
2
 38
0
 10
3692.83589028919
 20
1470.89614486886
 10
3751.94408606962
 20
1498.30040968358
  0
LWPOLYLINE
  5
201A8
100
AcDbEntity
  8
0
100
AcDbPolyline
 70
0
 90
2
 38
0
 10
3722.15353171847
 20
1493.57552614888
 10
3830.91269431211
 20
1493.10305769092
  0
LWPOLYLINE
  5
201A9
100
AcDbEntity
  8
0
100
AcDbPolyline
 70
0
 90
2
 38
0
 10
3717.42491723483
 20
1476.56601505824
 10
3772.27741145354
 20
1447.74429513086
  0
LWPOLYLINE
  5
201AA
100
AcDbEntity
  8
0
100
AcDbPolyline
 70
0
 90
2
 38
0
 10
3355.60651134027
 20
1455.03196814831
 10
3614.16660053818
 20
1433.818238837
  0
LWPOLYLINE
  5
201AB
100
AcDbEntity
  8
0
100
AcDbPolyline
 70
0
 90
2
 38
0
 10
3555.02378881871
 20
1426.24188207073
 10
3752.92465653623
 20
1402.75529049442
  0
LWPOLYLINE
  5
201AC
100
AcDbEntity
  8
0
100
AcDbPolyline
 70
0
 90
2
 38
0
 10
3399.58445334776
 20
1589.89065104367
 10
3397.30971002259
 20
1495.94413552217
  0
LWPOLYLINE
  5
201AD
100
AcDbEntity
  8
0
100
AcDbPolyline
 70
0
 90
2
 38
0
 10
3409.44163152894
 20
1492.91360276341
 10
3403.37560643387
 20
1437.60639235076
  0
LWPOLYLINE
  5
201AE
100
AcDbEntity
  8
0
100
AcDbPolyline
 70
0
 90
2
 38
0
 10
3385.17791720001
 20
1461.85065442083
 10
3377.59664049811
 20
1342.85908283271
  0
LWPOLYLINE
  5
201AF
100
AcDbEntity
  8
0
100
AcDbPolyline
 70
0
 90
2
 38
0
 10
3293.43190956923
 20
1373.16441042029
 10
3495.92550168996
 20
1374.70770458955
  0
LWPOLYLINE
  5
201B0
100
AcDbEntity
  8
0
100
AcDbPolyline
 70
0
 90
2
 38
0
 10
3453.43565900996
 20
1389.25549535277
 10
3570.80260888452
 20
1383.91141402534
  0
LWPOLYLINE
  5
201B1
100
AcDbEntity
  8
0
100
AcDbPolyline
 70
0
 90
2
 38
0
 10
3533.36399094535
 20
1369.66051390593
 10
3667.39677823824
 20
1355.9065537132
  0
LWPOLYLINE
  5
201B2
100
AcDbEntity
  8
0
100
AcDbPolyline
 70
0
 90
2
 38
0
 10
3534.05502288834
 20
1252.65988530502
 10
3695.16558159195
 20
1283.05165885322
  0
LWPOLYLINE
  5
201B3
100
AcDbEntity
  8
0
100
AcDbPolyline
 70
0
 90
2
 38
0
 10
3519.32214465355
 20
1279.7275679474
 10
3697.0664985122
 20
1305.84548901437
  0
LWPOLYLINE
  5
201B4
100
AcDbEntity
  8
0
100
AcDbPolyline
 70
0
 90
2
 38
0
 10
3500.31207466437
 20
1321.99108762513
 10
3639.56093063083
 20
1323.89061077596
  0
LWPOLYLINE
  5
201B5
100
AcDbEntity
  8
0
100
AcDbPolyline
 70
0
 90
2
 38
0
 10
3610.09530284503
 20
1315.81776173182
 10
3660.9474041379
 20
1362.83003954787
  0
LWPOLYLINE
  5
201B6
100
AcDbEntity
  8
0
100
AcDbPolyline
 70
0
 90
2
 38
0
 10
3528.35188607617
 20
1189.02710322112
 10
3602.01601988255
 20
1181.42915983407
  0
LWPOLYLINE
  5
201B7
100
AcDbEntity
  8
0
100
AcDbPolyline
 70
0
 90
2
 38
0
 10
3580.62967505925
 20
1179.52968642199
 10
3710.373560373
 20
1216.56964178183
  0
LWPOLYLINE
  5
201B8
100
AcDbEntity
  8
0
100
AcDbPolyline
 70
0
 90
2
 38
0
 10
3517.42109904949
 20
1154.83633311001
 10
3603.9170654866
 20
1152.46200377961
  0
LWPOLYLINE
  5
201B9
100
AcDbEntity
  8
0
100
AcDbPolyline
 70
0
 90
2
 38
0
 10
3581.58026220316
 20
1149.13791287379
 10
3727.48271344192
 20
1187.60248572737
  0
LWPOLYLINE
  5
201BA
100
AcDbEntity
  8
0
100
AcDbPolyline
 70
0
 90
2
 38
0
 10
3514.5695949853
 20
1121.12046865599
 10
3631.48164766832
 20
1115.8969043381
  0
LWPOLYLINE
  5
201BB
100
AcDbEntity
  8
0
100
AcDbPolyline
 70
0
 90
2
 38
0
 10
3607.71902801091
 20
1113.04766935061
 10
3623.87772261968
 20
1142.96458698049
  0
LWPOLYLINE
  5
201BC
100
AcDbEntity
  8
0
100
AcDbPolyline
 70
0
 90
2
 38
0
 10
3606.29334032073
 20
1130.14302953679
 10
3730.80944673618
 20
1150.56253036753
  0
LWPOLYLINE
  5
201BD
100
AcDbEntity
  8
0
100
AcDbPolyline
 70
0
 90
2
 38
0
 10
3512.21146456532
 20
1095.88048639853
 10
3686.15385589967
 20
1075.46103530654
  0
LWPOLYLINE
  5
201BE
100
AcDbEntity
  8
0
100
AcDbPolyline
 70
0
 90
2
 38
0
 10
3598.70743100243
 20
1095.88048639853
 10
3772.6498223368
 20
1135.29482082753
  0
LWPOLYLINE
  5
201BF
100
AcDbEntity
  8
0
100
AcDbPolyline
 70
0
 90
2
 38
0
 10
3627.2226003281
 20
1047.91849674583
 10
3819.69970373777
 20
1081.15950528152
  0
LWPOLYLINE
  5
201C0
100
AcDbEntity
  8
0
100
AcDbPolyline
 70
0
 90
2
 38
0
 10
3521.71656390181
 20
1067.86309191949
 10
3864.84879690228
 20
1025.599522503
  0
LWPOLYLINE
  5
201C1
100
AcDbEntity
  8
0
100
AcDbPolyline
 70
0
 90
2
 38
0
 10
3545.00395432916
 20
1200.35222040517
 10
3527.89480126025
 20
1055.04153447579
  0
LWPOLYLINE
  5
201C2
100
AcDbEntity
  8
0
100
AcDbPolyline
 70
0
 90
2
 38
0
 10
3512.85205246331
 20
994.012825043421
 10
3840.54107271775
 20
952.894192086976
  0
LWPOLYLINE
  5
201C3
100
AcDbEntity
  8
0
100
AcDbPolyline
 70
0
 90
2
 38
0
 10
3489.22802524586
 20
964.316001415704
 10
3807.01006669307
 20
929.289023312667
  0
LWPOLYLINE
  5
201C4
100
AcDbEntity
  8
0
100
AcDbPolyline
 70
0
 90
2
 38
0
 10
3495.32454839876
 20
939.949431740824
 10
3806.24800129896
 20
891.216192913547
  0
LWPOLYLINE
  5
201C5
100
AcDbEntity
  8
0
100
AcDbPolyline
 70
0
 90
2
 38
0
 10
3787.95843184026
 20
948.325438512227
 10
3733.08714978848
 20
790.526196120947
  0
LWPOLYLINE
  5
201C6
100
AcDbEntity
  8
0
100
AcDbPolyline
 70
0
 90
2
 38
0
 10
3496.84623419499
 20
903.983236678978
 10
3775.76294054251
 20
868.194807936605
  0
LWPOLYLINE
  5
201C7
100
AcDbEntity
  8
0
100
AcDbPolyline
 70
0
 90
2
 38
0
 10
3477.03253394809
 20
872.002061133266
 10
3772.71467896606
 20
832.40632945548
  0
LWPOLYLINE
  5
201C8
100
AcDbEntity
  8
0
100
AcDbPolyline
 70
0
 90
2
 38
0
 10
3513.61167286545
 20
913.882194467798
 10
3480.84286091865
 20
665.64729649543
  0
LWPOLYLINE
  5
201C9
100
AcDbEntity
  8
0
100
AcDbPolyline
 70
0
 90
2
 38
0
 10
3583.470498369
 20
862.948910916573
 10
3592.42946370809
 20
836.392095052986
  0
LWPOLYLINE
  5
201CA
100
AcDbEntity
  8
0
100
AcDbPolyline
 70
0
 90
2
 38
0
 10
3574.51153302993
 20
845.343827943026
 10
3755.18331438786
 20
819.383727953762
  0
LWPOLYLINE
  5
201CB
100
AcDbEntity
  8
0
100
AcDbPolyline
 70
0
 90
2
 38
0
 10
3330.05338545292
 20
834.264619176305
 10
3722.74316083631
 20
786.171965807509
  0
LWPOLYLINE
  5
201CC
100
AcDbEntity
  8
0
100
AcDbPolyline
 70
0
 90
2
 38
0
 10
3306.36977764149
 20
804.492988457234
 10
3696.00357042113
 20
756.400335088445
  0
LWPOLYLINE
  5
201CD
100
AcDbEntity
  8
0
100
AcDbPolyline
 70
0
 90
2
 38
0
 10
3302.54979938682
 20
777.011479352033
 10
3657.80417392572
 20
727.392045081491
  0
LWPOLYLINE
  5
201CE
100
AcDbEntity
  8
0
100
AcDbPolyline
 70
0
 90
2
 38
0
 10
3617.3127904775
 20
757.927066251439
 10
3767.0545225392
 20
813.653474912709
  0
LWPOLYLINE
  5
201CF
100
AcDbEntity
  8
0
100
AcDbPolyline
 70
0
 90
2
 38
0
 10
3642.59104779313
 20
765.076216829111
 10
3627.01310312079
 20
661.434473469708
  0
LWPOLYLINE
  5
201D0
100
AcDbEntity
  8
0
100
AcDbPolyline
 70
0
 90
2
 38
0
 10
3294.09862027623
 20
749.981001300293
 10
3684.79405430908
 20
693.741985003704
  0
LWPOLYLINE
  5
201D1
100
AcDbEntity
  8
0
100
AcDbPolyline
 70
0
 90
2
 38
0
 10
3427.32430284911
 20
701.818862887209
 10
3678.20763197425
 20
669.212222465307
  0
LWPOLYLINE
  5
201D2
100
AcDbEntity
  8
0
100
AcDbPolyline
 70
0
 90
2
 38
0
 10
3403.37354749325
 20
872.548093213649
 10
3366.98138612026
 20
571.982700251719
  0
LWPOLYLINE
  5
201D3
100
AcDbEntity
  8
0
100
AcDbPolyline
 70
0
 90
2
 38
0
 10
2970.23820009029
 20
575.04392182389
 10
4753.17383407641
 20
586.758841650859
  0
LWPOLYLINE
  5
201D4
100
AcDbEntity
  8
0
100
AcDbPolyline
 70
0
 90
2
 38
0
 10
2523.75281044122
 20
907.431425784882
 10
2771.79274258083
 20
839.737722840822
  0
LWPOLYLINE
  5
201D5
100
AcDbEntity
  8
0
100
AcDbPolyline
 70
0
 90
2
 38
0
 10
2721.05130934586
 20
844.34691402546
 10
3063.94097340544
 20
824.373818543718
  0
LWPOLYLINE
  5
201D6
100
AcDbEntity
  8
0
100
AcDbPolyline
 70
0
 90
2
 38
0
 10
2093.18998064948
 20
948.799797042986
 10
2295.64187922281
 20
895.727597700839
  0
LWPOLYLINE
  5
201D7
100
AcDbEntity
  8
0
100
AcDbPolyline
 70
0
 90
2
 38
0
 10
2241.75734445943
 20
904.957569200618
 10
2463.45377488415
 20
882.651825467306
  0
LWPOLYLINE
  5
201D8
100
AcDbEntity
  8
0
100
AcDbPolyline
 70
0
 90
2
 38
0
 10
2409.56924012079
 20
882.651825467306
 10
2569.68327156808
 20
905.72672934737
  0
LWPOLYLINE
  5
201D9
100
AcDbEntity
  8
0
100
AcDbPolyline
 70
0
 90
2
 38
0
 10
2686.68964946791
 20
1126.47623859145
 10
2999.9897632536
 20
948.799797042986
  0
LWPOLYLINE
  5
201DA
100
AcDbEntity
  8
0
100
AcDbPolyline
 70
0
 90
2
 38
0
 10
2993.06168546094
 20
967.259690303785
 10
2997.68040398938
 20
805.735611837103
  0
LWPOLYLINE
  5
201DB
100
AcDbEntity
  8
0
100
AcDbPolyline
 70
0
 90
2
 38
0
 10
3041.0043749849
 20
991.253617207097
 10
3355.074275192
 20
1116.62706929893
  0
LWPOLYLINE
  5
201DC
100
AcDbEntity
  8
0
100
AcDbPolyline
 70
0
 90
2
 38
0
 10
3298.110594743
 20
1168.16094834757
 10
3390.48406452537
 20
935.104777277949
  0
LWPOLYLINE
  5
201DD
100
AcDbEntity
  8
0
100
AcDbPolyline
 70
0
 90
2
 38
0
 10
3380.47696973087
 20
980.485375152573
 10
3383.55611541649
 20
848.189432001214
  0
LWPOLYLINE
  5
201DE
100
AcDbEntity
  8
0
100
AcDbPolyline
 70
0
 90
2
 38
0
 10
3368.88603487038
 20
1911.76104393701
 10
3703.52989914545
 20
1878.47825484497
  0
LWPOLYLINE
  5
201DF
100
AcDbEntity
  8
0
100
AcDbPolyline
 70
0
 90
2
 38
0
 10
3467.26517705113
 20
1919.5011904319
 10
3440.15278970136
 20
1756.18343289045
  0
LWPOLYLINE
  5
201E0
100
AcDbEntity
  8
0
100
AcDbPolyline
 70
0
 90
2
 38
0
 10
3347.19612499056
 20
1785.59609899628
 10
3494.37743571711
 20
1763.1495945791
  0
LWPOLYLINE
  5
201E1
100
AcDbEntity
  8
0
100
AcDbPolyline
 70
0
 90
2
 38
0
 10
3464.94114783504
 20
1757.73145224168
 10
3486.63105771486
 20
1869.9640738051
  0
LWPOLYLINE
  5
201E2
100
AcDbEntity
  8
0
100
AcDbPolyline
 70
0
 90
2
 38
0
 10
3418.46287982154
 20
1869.9640738051
 10
3596.62983124088
 20
1842.09942705049
  0
LWPOLYLINE
  5
201E3
100
AcDbEntity
  8
0
100
AcDbPolyline
 70
0
 90
2
 38
0
 10
3592.75657789786
 20
1908.6649554958
 10
3571.06666801804
 20
1750.76529055302
  0
LWPOLYLINE
  5
201E4
100
AcDbEntity
  8
0
100
AcDbPolyline
 70
0
 90
2
 38
0
 10
3457.1947698328
 20
1795.65834912614
 10
3613.6718113723
 20
1772.43781016397
  0
LWPOLYLINE
  5
201E5
100
AcDbEntity
  8
0
100
AcDbPolyline
 70
0
 90
2
 38
0
 10
3568.74276748575
 20
1771.66377561898
 10
3599.72827949475
 20
1725.99673223963
  0
LWPOLYLINE
  5
201E6
100
AcDbEntity
  8
0
100
AcDbPolyline
 70
0
 90
2
 38
0
 10
3505.22084645156
 20
1887.90190906665
 10
3519.9389260507
 20
2011.74480011116
  0
LWPOLYLINE
  5
201E7
100
AcDbEntity
  8
0
100
AcDbPolyline
 70
0
 90
2
 38
0
 10
3254.93267984716
 20
1925.113264185
 10
3318.45305667589
 20
2075.27273289414
  0
LWPOLYLINE
  5
201E8
100
AcDbEntity
  8
0
100
AcDbPolyline
 70
0
 90
2
 38
0
 10
3265.77763478707
 20
1782.69399170952
 10
3298.31249960679
 20
1955.29996483583
  0
LWPOLYLINE
  5
201E9
100
AcDbEntity
  8
0
100
AcDbPolyline
 70
0
 90
2
 38
0
 10
3064.37154936098
 20
2117.06970302605
 10
3247.96097825027
 20
2095.39723315386
  0
LWPOLYLINE
  5
201EA
100
AcDbEntity
  8
0
100
AcDbPolyline
 70
0
 90
2
 38
0
 10
3222.39781502743
 20
2110.87757588239
 10
3201.48258155298
 20
2023.41356237113
  0
LWPOLYLINE
  5
201EB
100
AcDbEntity
  8
0
100
AcDbPolyline
 70
0
 90
2
 38
0
 10
3038.80851482193
 20
2052.05219393197
 10
3264.22828197635
 20
2020.31747392991
  0
LWPOLYLINE
  5
201EC
100
AcDbEntity
  8
0
100
AcDbPolyline
 70
0
 90
2
 38
0
 10
3230.91886943505
 20
2014.12534678626
 10
3245.63694903419
 20
2075.27273289414
  0
LWPOLYLINE
  5
201ED
100
AcDbEntity
  8
0
100
AcDbPolyline
 70
0
 90
2
 38
0
 10
3221.62326730586
 20
2057.47033626939
 10
3403.66334338442
 20
2010.25527353882
  0
LWPOLYLINE
  5
201EE
100
AcDbEntity
  8
0
100
AcDbPolyline
 70
0
 90
2
 38
0
 10
2919.28572544256
 20
1969.84283146206
 10
2938.67605602606
 20
2166.69097763063
  0
LWPOLYLINE
  5
201EF
100
AcDbEntity
  8
0
100
AcDbPolyline
 70
0
 90
2
 38
0
 10
2846.37799494361
 20
2182.9657975335
 10
2960.39324686899
 20
2138.79121531318
  0
LWPOLYLINE
  5
201F0
100
AcDbEntity
  8
0
100
AcDbPolyline
 70
0
 90
2
 38
0
 10
2888.26122224571
 20
2076.01682470709
 10
3087.59408315904
 20
2059.74195506545
  0
LWPOLYLINE
  5
201F1
100
AcDbEntity
  8
0
100
AcDbPolyline
 70
0
 90
2
 38
0
 10
2795.96303247947
 20
2069.0419089971
 10
2950.31035732319
 20
2043.46713516258
  0
LWPOLYLINE
  5
201F2
100
AcDbEntity
  8
0
100
AcDbPolyline
 70
0
 90
2
 38
0
 10
2906.87597563733
 20
2029.51725400386
 10
2999.94961391167
 20
2031.06726290539
  0
LWPOLYLINE
  5
201F3
100
AcDbEntity
  8
0
100
AcDbPolyline
 70
0
 90
2
 38
0
 10
2982.1105663957
 20
2018.66734090944
 10
2993.74473900905
 20
2076.01682470709
  0
LWPOLYLINE
  5
201F4
100
AcDbEntity
  8
0
100
AcDbPolyline
 70
0
 90
2
 38
0
 10
2842.3851943613
 20
2047.12109350847
 10
2883.6552434123
 20
2150.94134926872
  0
LWPOLYLINE
  5
201F5
100
AcDbEntity
  8
0
100
AcDbPolyline
 70
0
 90
2
 38
0
 10
2829.7613147324
 20
2150.94134926872
 10
2957.45591071802
 20
2104.36776729426
  0
LWPOLYLINE
  5
201F6
100
AcDbEntity
  8
0
100
AcDbPolyline
 70
0
 90
2
 38
0
 10
2870.06044460094
 20
2070.89303633684
 10
2821.99293180235
 20
1938.93457065546
  0
LWPOLYLINE
  5
201F7
100
AcDbEntity
  8
0
100
AcDbPolyline
 70
0
 90
2
 38
0
 10
2763.72928772429
 20
2003.94352468324
 10
2849.66805335821
 20
1969.49849004354
  0
LWPOLYLINE
  5
201F8
100
AcDbEntity
  8
0
100
AcDbPolyline
 70
0
 90
2
 38
0
 10
4450.97797306397
 20
1897.83732536476
 10
4718.35637622041
 20
1791.90640542788
  0
LWPOLYLINE
  5
201F9
100
AcDbEntity
  8
0
100
AcDbPolyline
 70
0
 90
2
 38
0
 10
4587.39552832101
 20
1707.78473694645
 10
4666.90743951755
 20
2002.98938609716
  0
LWPOLYLINE
  5
201FA
100
AcDbEntity
  8
0
100
AcDbPolyline
 70
0
 90
2
 38
0
 10
4462.67095416857
 20
1978.06444913003
 10
4678.60042062216
 20
1900.17405219445
  0
LWPOLYLINE
  5
201FB
100
AcDbEntity
  8
0
100
AcDbPolyline
 70
0
 90
2
 38
0
 10
4633.38775766623
 20
1942.23488643517
 10
4823.13007320769
 20
1879.70680215646
  0
LWPOLYLINE
  5
201FC
100
AcDbEntity
  8
0
100
AcDbPolyline
 70
0
 90
2
 38
0
 10
3941.91224165948
 20
1346.27141029442
 10
4444.62678469412
 20
1321.20287753423
  0
LWPOLYLINE
  5
201FD
100
AcDbEntity
  8
0
100
AcDbPolyline
 70
0
 90
2
 38
0
 10
4200.04806040748
 20
1348.70572456643
 10
4159.94028333211
 20
1207.26237625282
  0
LWPOLYLINE
  5
201FE
100
AcDbEntity
  8
0
100
AcDbPolyline
 70
0
 90
2
 38
0
 10
4072.64686345912
 20
1214.33453123381
 10
4182.74665375892
 20
1217.47772227843
  0
LWPOLYLINE
  5
201FF
100
AcDbEntity
  8
0
100
AcDbPolyline
 70
0
 90
2
 38
0
 10
4108.03606338636
 20
1237.62599766425
 10
4087.58898153363
 20
1032.53310530546
  0
LWPOLYLINE
  5
20200
100
AcDbEntity
  8
0
100
AcDbPolyline
 70
0
 90
2
 38
0
 10
3930.30367712001
 20
1096.18264935065
 10
4236.22364696485
 20
1019.17456823526
  0
LWPOLYLINE
  5
20201
100
AcDbEntity
  8
0
100
AcDbPolyline
 70
0
 90
2
 38
0
 10
3744.61052566013
 20
1387.01073548579
 10
3981.32499759443
 20
1313.93166804553
  0
LWPOLYLINE
  5
20202
100
AcDbEntity
  8
0
100
AcDbPolyline
 70
0
 90
2
 38
0
 10
3836.63307475191
 20
1343.111357811
 10
3912.91656706843
 20
1429.54896232147
  0
LWPOLYLINE
  5
20203
100
AcDbEntity
  8
0
100
AcDbPolyline
 70
0
 90
2
 38
0
 10
3886.17800612358
 20
1415.40465235949
 10
3982.90858029286
 20
1397.33132872236
  0
LWPOLYLINE
  5
20204
100
AcDbEntity
  8
0
100
AcDbPolyline
 70
0
 90
2
 38
0
 10
3906.22874190845
 20
1416.14018910613
 10
3899.75762024792
 20
1536.02526773488
  0
LWPOLYLINE
  5
20205
100
AcDbEntity
  8
0
100
AcDbPolyline
 70
0
 90
2
 38
0
 10
3891.43679781485
 20
1520.32085190359
 10
3934.5839572853
 20
1562.60804722991
  0
LWPOLYLINE
  5
20206
100
AcDbEntity
  8
0
100
AcDbPolyline
 70
0
 90
2
 38
0
 10
3921.33235813724
 20
1545.05603551067
 10
3921.33235813724
 20
1599.55956707882
  0
LWPOLYLINE
  5
20207
100
AcDbEntity
  8
0
100
AcDbPolyline
 70
0
 90
2
 38
0
 10
3886.81653508096
 20
1594.01682915374
 10
3974.33875472949
 20
1591.55341770856
  0
LWPOLYLINE
  5
20208
100
AcDbEntity
  8
0
100
AcDbPolyline
 70
0
 90
2
 38
0
 10
3853.96201973117
 20
1500.03564571822
 10
3962.8970930634
 20
1491.66272274979
  0
LWPOLYLINE
  5
20209
100
AcDbEntity
  8
0
100
AcDbPolyline
 70
0
 90
2
 38
0
 10
3836.7098989735
 20
1466.54400358324
 10
3976.69881540627
 20
1459.64866988534
  0
LWPOLYLINE
  5
2020A
100
AcDbEntity
  8
0
100
AcDbPolyline
 70
0
 90
2
 38
0
 10
3884.52300392269
 20
1436.50005316658
 10
3979.16336731915
 20
1433.05236144825
  0
LWPOLYLINE
  5
2020B
100
AcDbEntity
  8
0
100
AcDbPolyline
 70
0
 90
2
 38
0
 10
3807.21364444611
 20
1379.38414257439
 10
3829.47889954326
 20
1274.07968228885
  0
LWPOLYLINE
  5
2020C
100
AcDbEntity
  8
0
100
AcDbPolyline
 70
0
 90
2
 38
0
 10
3744.37619248169
 20
1273.58532877756
 10
3867.57727926486
 20
1297.31588895965
  0
LWPOLYLINE
  5
2020D
100
AcDbEntity
  8
0
100
AcDbPolyline
 70
0
 90
2
 38
0
 10
3760.70410627205
 20
1396.68770919967
 10
3782.47457220333
 20
1227.11291543596
  0
LWPOLYLINE
  5
2020E
100
AcDbEntity
  8
0
100
AcDbPolyline
 70
0
 90
2
 38
0
 10
3740.91266832052
 20
1333.40613248284
 10
3857.18683546511
 20
1326.48473567598
  0
LWPOLYLINE
  5
2020F
100
AcDbEntity
  8
0
100
AcDbPolyline
 70
0
 90
2
 38
0
 10
3781.94671130384
 20
1253.45331796545
 10
3773.01824402259
 20
1207.35946630756
  0
LWPOLYLINE
  5
20210
100
AcDbEntity
  8
0
100
AcDbPolyline
 70
0
 90
2
 38
0
 10
3765.57774738505
 20
1230.654215496
 10
3798.81175122643
 20
1174.6476781522
  0
LWPOLYLINE
  5
20211
100
AcDbEntity
  8
0
100
AcDbPolyline
 70
0
 90
2
 38
0
 10
3746.72853213121
 20
1171.67384757705
 10
3915.87500736068
 20
1215.78521183651
  0
LWPOLYLINE
  5
20212
100
AcDbEntity
  8
0
100
AcDbPolyline
 70
0
 90
2
 38
0
 10
3911.9067853819
 20
1192.98610936706
 10
3894.54566945558
 20
1220.74152981009
  0
LWPOLYLINE
  5
20213
100
AcDbEntity
  8
0
100
AcDbPolyline
 70
0
 90
2
 38
0
 10
3814.69815093922
 20
1169.11553458247
 10
3970.94780822488
 20
1212.73125212295
  0
LWPOLYLINE
  5
20214
100
AcDbEntity
  8
0
100
AcDbPolyline
 70
0
 90
2
 38
0
 10
4682.34885069056
 20
1649.8149611034
 10
4671.14370982727
 20
1494.41133623075
  0
LWPOLYLINE
  5
20215
100
AcDbEntity
  8
0
100
AcDbPolyline
 70
0
 90
2
 38
0
 10
4398.62850721084
 20
1566.08946182586
 10
4417.01471819449
 20
1680.31203160134
  0
LWPOLYLINE
  5
20216
100
AcDbEntity
  8
0
100
AcDbPolyline
 70
0
 90
2
 38
0
 10
4256.00929414589
 20
1402.57260003794
 10
4294.47712502364
 20
1318.49151838267
  0
LWPOLYLINE
  5
20217
100
AcDbEntity
  8
0
100
AcDbPolyline
 70
0
 90
2
 38
0
 10
4242.38515543082
 20
1371.34247973123
 10
4425.90908427187
 20
1445.01353786385
  0
LWPOLYLINE
  5
20218
100
AcDbEntity
  8
0
100
AcDbPolyline
 70
0
 90
2
 38
0
 10
4384.23561154466
 20
1415.3849558115
 10
4374.61855731238
 20
1473.04058166186
  0
LWPOLYLINE
  5
20219
100
AcDbEntity
  8
0
100
AcDbPolyline
 70
0
 90
2
 38
0
 10
3799.79541010392
 20
2987.90014774293
 10
3923.98813415947
 20
2975.28903498243
  0
LWPOLYLINE
  5
2021A
100
AcDbEntity
  8
0
100
AcDbPolyline
 70
0
 90
2
 38
0
 10
3951.34090282573
 20
3527.32826406961
 10
3883.09113941065
 20
2799.56936589473
  0
LWPOLYLINE
  5
2021B
100
AcDbEntity
  8
0
100
AcDbPolyline
 70
0
 90
2
 38
0
 10
3600.37607368488
 20
2876.2448439384
 10
3767.98567843109
 20
2860.60707804222
  0
LWPOLYLINE
  5
2021C
100
AcDbEntity
  8
0
100
AcDbPolyline
 70
0
 90
2
 38
0
 10
3727.59788543242
 20
2873.72259154304
 10
3783.63594339241
 20
2808.6493750405
  0
LWPOLYLINE
  5
2021D
100
AcDbEntity
  8
0
100
AcDbPolyline
 70
0
 90
2
 38
0
 10
3747.2868910885
 20
2826.80934359327
 10
3905.30440625735
 20
2804.10937046762
  0
LWPOLYLINE
  5
2021E
100
AcDbEntity
  8
0
100
AcDbPolyline
 70
0
 90
2
 38
0
 10
3635.71547298608
 20
2755.17832060156
 10
3621.57968752884
 20
2942.32696139908
  0
LWPOLYLINE
  5
2021F
100
AcDbEntity
  8
0
100
AcDbPolyline
 70
0
 90
2
 38
0
 10
3586.22394538653
 20
2983.84449919107
 10
3765.44507439935
 20
2957.61342245067
  0
LWPOLYLINE
  5
20220
100
AcDbEntity
  8
0
100
AcDbPolyline
 70
0
 90
2
 38
0
 10
3713.95058363545
 20
2846.63580921776
 10
3736.16385048215
 20
2992.92445859808
  0
LWPOLYLINE
  5
20221
100
AcDbEntity
  8
0
100
AcDbPolyline
 70
0
 90
2
 38
0
 10
3723.5426732128
 20
2982.83559823293
 10
3792.7068636273
 20
3014.11113002528
  0
LWPOLYLINE
  5
20222
100
AcDbEntity
  8
0
100
AcDbPolyline
 70
0
 90
2
 38
0
 10
3763.4256397101
 20
3012.093328109
 10
3843.19170138845
 20
2997.46446317096
  0
LWPOLYLINE
  5
20223
100
AcDbEntity
  8
0
100
AcDbPolyline
 70
0
 90
2
 38
0
 10
4334.97172556654
 20
2971.41891199622
 10
4437.71414895603
 20
2987.60181467515
  0
LWPOLYLINE
  5
20224
100
AcDbEntity
  8
0
100
AcDbPolyline
 70
0
 90
2
 38
0
 10
4437.20803561679
 20
2971.41891199622
 10
4419.99992471471
 20
3083.18199968838
  0
LWPOLYLINE
  5
20225
100
AcDbEntity
  8
0
100
AcDbPolyline
 70
0
 90
2
 38
0
 10
4174.9943563024
 20
2948.60070984388
 10
4329.92371792043
 20
2938.78690480798
  0
LWPOLYLINE
  5
20226
100
AcDbEntity
  8
0
100
AcDbPolyline
 70
0
 90
2
 38
0
 10
4315.98327445381
 20
2933.08853431052
 10
4354.31959049991
 20
2981.52453432267
  0
LWPOLYLINE
  5
20227
100
AcDbEntity
  8
0
100
AcDbPolyline
 70
0
 90
2
 38
0
 10
3112.18684193457
 20
2962.08652839466
 10
3354.15084032741
 20
3633.81516383839
  0
LWPOLYLINE
  5
20228
100
AcDbEntity
  8
0
100
AcDbPolyline
 70
0
 90
2
 38
0
 10
3356.78165169471
 20
2880.76624621595
 10
3600.05359211148
 20
3593.00769654918
  0
LWPOLYLINE
  5
20229
100
AcDbEntity
  8
0
100
AcDbPolyline
 70
0
 90
2
 38
0
 10
3200.97672558131
 20
2825.17567410154
 10
3453.65442145002
 20
2729.92132768902
  0
LWPOLYLINE
  5
2022A
100
AcDbEntity
  8
0
100
AcDbPolyline
 70
0
 90
2
 38
0
 10
3184.60467325158
 20
2744.11129783044
 10
3416.78124007648
 20
2679.07200316055
  0
LWPOLYLINE
  5
2022B
100
AcDbEntity
  8
0
100
AcDbPolyline
 70
0
 90
2
 38
0
 10
3168.2036670695
 20
2677.02351243085
 10
3402.94284285392
 20
2624.78727238685
  0
LWPOLYLINE
  5
2022C
100
AcDbEntity
  8
0
100
AcDbPolyline
 70
0
 90
2
 38
0
 10
3145.65221922724
 20
2617.10546945458
 10
3346.0518687453
 20
2562.30857869438
  0
LWPOLYLINE
  5
2022D
100
AcDbEntity
  8
0
100
AcDbPolyline
 70
0
 90
2
 38
0
 10
3282.5246716758
 20
2505.35397089293
 10
3436.01624932754
 20
2746.4787632123
  0
LWPOLYLINE
  5
2022E
100
AcDbEntity
  8
0
100
AcDbPolyline
 70
0
 90
2
 38
0
 10
3260.36287834442
 20
2411.03645397886
 10
3295.8887404548
 20
2538.19965578362
  0
LWPOLYLINE
  5
2022F
100
AcDbEntity
  8
0
100
AcDbPolyline
 70
0
 90
2
 38
0
 10
2881.42090679664
 20
2526.02206603392
 10
2809.37844608999
 20
2306.75835295537
  0
LWPOLYLINE
  5
20230
100
AcDbEntity
  8
0
100
AcDbPolyline
 70
0
 90
2
 38
0
 10
2599.04775389629
 20
2394.46384813454
 10
3109.96923421137
 20
2199.19505673445
  0
LWPOLYLINE
  5
20231
100
AcDbEntity
  8
0
100
AcDbPolyline
 70
0
 90
2
 38
0
 10
2843.70253030177
 20
2439.2910028539
 10
2988.84613324112
 20
2395.782870246
  0
LWPOLYLINE
  5
20232
100
AcDbEntity
  8
0
100
AcDbPolyline
 70
0
 90
2
 38
0
 10
2919.90289289108
 20
2432.55761855059
 10
2905.38851972876
 20
2354.86448552745
  0
LWPOLYLINE
  5
20233
100
AcDbEntity
  8
0
100
AcDbPolyline
 70
0
 90
2
 38
0
 10
2902.7966995493
 20
2380.76216337599
 10
2920.93969817314
 20
2329.48468762253
  0
LWPOLYLINE
  5
20234
100
AcDbEntity
  8
0
100
AcDbPolyline
 70
0
 90
2
 38
0
 10
2920.42123119021
 20
2347.61312180301
 10
2893.98443372884
 20
2271.47382756574
  0
LWPOLYLINE
  5
20235
100
AcDbEntity
  8
0
100
AcDbPolyline
 70
0
 90
2
 38
0
 10
2822.44937319933
 20
2404.58807275631
 10
2984.69916948046
 20
2367.29539476935
  0
LWPOLYLINE
  5
20236
100
AcDbEntity
  8
0
100
AcDbPolyline
 70
0
 90
2
 38
0
 10
2951.00512109604
 20
2348.6490309065
 10
3126.73248525742
 20
2313.94605107015
  0
LWPOLYLINE
  5
20237
100
AcDbEntity
  8
0
100
AcDbPolyline
 70
0
 90
2
 38
0
 10
3023.57685822382
 20
2318.60766690523
 10
3006.47066488204
 20
2447.57827568184
  0
LWPOLYLINE
  5
20238
100
AcDbEntity
  8
0
100
AcDbPolyline
 70
0
 90
2
 38
0
 10
3000.76855754019
 20
2426.860093612
 10
3038.60956968527
 20
2483.31711488293
  0
LWPOLYLINE
  5
20239
100
AcDbEntity
  8
0
100
AcDbPolyline
 70
0
 90
2
 38
0
 10
2999.73188094191
 20
2345.54130359603
 10
2986.77265136079
 20
2290.63812111096
  0
LWPOLYLINE
  5
2023A
100
AcDbEntity
  8
0
100
AcDbPolyline
 70
0
 90
2
 38
0
 10
2977.96025685655
 20
2304.10493945635
 10
3057.78924490739
 20
2263.1865547378
  0
LWPOLYLINE
  5
2023B
100
AcDbEntity
  8
0
100
AcDbPolyline
 70
0
 90
2
 38
0
 10
3022.54005294177
 20
2216.0527153983
 10
3042.2381951468
 20
2298.92539393889
  0
LWPOLYLINE
  5
2023C
100
AcDbEntity
  8
0
100
AcDbPolyline
 70
0
 90
2
 38
0
 10
2767.94072206288
 20
2414.41132815614
 10
2859.69226309656
 20
2408.19592327395
  0
LWPOLYLINE
  5
2023D
100
AcDbEntity
  8
0
100
AcDbPolyline
 70
0
 90
2
 38
0
 10
2795.41432480631
 20
2418.03703488774
 10
2761.20193812274
 20
2350.1850134784
  0
LWPOLYLINE
  5
2023E
100
AcDbEntity
  8
0
100
AcDbPolyline
 70
0
 90
2
 38
0
 10
2692.25882645648
 20
2380.74430716203
 10
2784.01023880638
 20
2351.73890200302
  0
LWPOLYLINE
  5
2023F
100
AcDbEntity
  8
0
100
AcDbPolyline
 70
0
 90
2
 38
0
 10
2717.14048033666
 20
2381.26228658316
 10
2705.21805603762
 20
2340.34390186461
  0
LWPOLYLINE
  5
20240
100
AcDbEntity
  8
0
100
AcDbPolyline
 70
0
 90
2
 38
0
 10
2348.95209823914
 20
2434.13687384155
 10
2631.98192451101
 20
2384.93121629507
  0
LWPOLYLINE
  5
20241
100
AcDbEntity
  8
0
100
AcDbPolyline
 70
0
 90
2
 38
0
 10
2468.13233137414
 20
2399.54108102772
 10
2489.38548847659
 20
2597.91754999952
  0
LWPOLYLINE
  5
20242
100
AcDbEntity
  8
0
100
AcDbPolyline
 70
0
 90
2
 38
0
 10
2489.90382677573
 20
2561.14280169494
 10
2354.60929493888
 20
2574.60962004033
  0
LWPOLYLINE
  5
20243
100
AcDbEntity
  8
0
100
AcDbPolyline
 70
0
 90
2
 38
0
 10
2236.93942342675
 20
2468.42901154055
 10
2383.11970296438
 20
2426.47466797975
  0
LWPOLYLINE
  5
20244
100
AcDbEntity
  8
0
100
AcDbPolyline
 70
0
 90
2
 38
0
 10
2410.9399798334
 20
2490.96022106183
 10
2524.65681405379
 20
2468.88432012716
  0
LWPOLYLINE
  5
20245
100
AcDbEntity
  8
0
100
AcDbPolyline
 70
0
 90
2
 38
0
 10
2364.38527364968
 20
2671.00149183801
 10
2492.39488754897
 20
2652.45007926332
  0
LWPOLYLINE
  5
20246
100
AcDbEntity
  8
0
100
AcDbPolyline
 70
0
 90
2
 38
0
 10
2347.11964109424
 20
2747.26428741028
 10
2447.44268058053
 20
2727.08557190483
  0
LWPOLYLINE
  5
20247
100
AcDbEntity
  8
0
100
AcDbPolyline
 70
0
 90
2
 38
0
 10
2429.20213964518
 20
2740.75502594849
 10
2408.68157934933
 20
2660.04016392668
  0
LWPOLYLINE
  5
20248
100
AcDbEntity
  8
0
100
AcDbPolyline
 70
0
 90
2
 38
0
 10
2501.66912816931
 20
2395.56839672345
 10
2517.5218127296
 20
2776.56101247227
  0
LWPOLYLINE
  5
20249
100
AcDbEntity
  8
0
100
AcDbPolyline
 70
0
 90
2
 38
0
 10
2494.99430007195
 20
2748.21578984222
 10
2892.97941334249
 20
2720.70428826621
  0
LWPOLYLINE
  5
2024A
100
AcDbEntity
  8
0
100
AcDbPolyline
 70
0
 90
2
 38
0
 10
2848.75890239411
 20
2741.5463695811
 10
2881.298528514
 20
2594.81832801658
  0
LWPOLYLINE
  5
2024B
100
AcDbEntity
  8
0
100
AcDbPolyline
 70
0
 90
2
 38
0
 10
2880.46427151468
 20
2626.49823590781
 10
2857.10237317391
 20
2503.94701065811
  0
LWPOLYLINE
  5
2024C
100
AcDbEntity
  8
0
100
AcDbPolyline
 70
0
 90
2
 38
0
 10
2853.91809283326
 20
2575.91267601062
 10
2943.50414307801
 20
2577.54614654731
  0
LWPOLYLINE
  5
2024D
100
AcDbEntity
  8
0
100
AcDbPolyline
 70
0
 90
2
 38
0
 10
2911.78938004091
 20
2564.47833251498
 10
2923.55982878602
 20
2627.20368070614
  0
LWPOLYLINE
  5
2024E
100
AcDbEntity
  8
0
100
AcDbPolyline
 70
0
 90
2
 38
0
 10
2900.99975912995
 20
2617.72954164555
 10
3017.72329006318
 20
2622.62995325564
  0
LWPOLYLINE
  5
2024F
100
AcDbEntity
  8
0
100
AcDbPolyline
 70
0
 90
2
 38
0
 10
2726.67002959292
 20
2753.22358742985
 10
2720.39463597434
 20
2536.89296888402
  0
LWPOLYLINE
  5
20250
100
AcDbEntity
  8
0
100
AcDbPolyline
 70
0
 90
2
 38
0
 10
2610.57370344371
 20
2679.02325917815
 10
2751.2490192031
 20
2664.39220573478
  0
LWPOLYLINE
  5
20251
100
AcDbEntity
  8
0
100
AcDbPolyline
 70
0
 90
2
 38
0
 10
3385.22861861259
 20
2529.650956046
 10
3513.99965448707
 20
2479.23415975317
  0
LWPOLYLINE
  5
20252
100
AcDbEntity
  8
0
100
AcDbPolyline
 70
0
 90
2
 38
0
 10
3406.91814244105
 20
2574.54093081615
 10
3568.32776226859
 20
2525.82082302087
  0
LWPOLYLINE
  5
20253
100
AcDbEntity
  8
0
100
AcDbPolyline
 70
0
 90
2
 38
0
 10
6747.20595748021
 20
1397.05120003985
 10
7026.08856262383
 20
1428.48529899126
  0
LWPOLYLINE
  5
20254
100
AcDbEntity
  8
0
100
AcDbPolyline
 70
0
 90
2
 38
0
 10
6743.6143929497
 20
1580.76886134157
 10
7010.16497329623
 20
1575.33340991651
  0
LWPOLYLINE
  5
20255
100
AcDbEntity
  8
0
100
AcDbPolyline
 70
0
 90
2
 38
0
 10
6980.24599252437
 20
1461.18897972914
 10
6972.7915980377
 20
1619.98762297587
  0
LWPOLYLINE
  5
20256
100
AcDbEntity
  8
0
100
AcDbPolyline
 70
0
 90
2
 38
0
 10
6968.80394480689
 20
1599.74623663591
 10
7000.16302585323
 20
1709.08172478832
  0
LWPOLYLINE
  5
20257
100
AcDbEntity
  8
0
100
AcDbPolyline
 70
0
 90
2
 38
0
 10
6943.11621567703
 20
1728.41547828052
 10
7197.07946259051
 20
1601.35369380241
  0
LWPOLYLINE
  5
20258
100
AcDbEntity
  8
0
100
AcDbPolyline
 70
0
 90
2
 38
0
 10
6970.2264154024
 20
1601.02034464931
 10
7215.42784054042
 20
1555.01945472928
  0
LWPOLYLINE
  5
20259
100
AcDbEntity
  8
0
100
AcDbPolyline
 70
0
 90
2
 38
0
 10
7189.40643434756
 20
1616.68735693493
 10
7184.28430483944
 20
1291.79319575385
  0
LWPOLYLINE
  5
2025A
100
AcDbEntity
  8
0
100
AcDbPolyline
 70
0
 90
2
 38
0
 10
3950.18905423695
 20
3436.75433474254
 10
3941.42543088846
 20
3894.414022685
  0
LWPOLYLINE
  5
2025B
100
AcDbEntity
  8
0
100
AcDbPolyline
 70
0
 90
2
 38
0
 10
3923.920961222
 20
3886.54331195155
 10
4470.93618520509
 20
3847.18975828427
  0
LWPOLYLINE
  5
2025C
100
AcDbEntity
  8
0
100
AcDbPolyline
 70
0
 90
2
 38
0
 10
4253.83955679194
 20
3893.36055580009
 10
4234.19160126432
 20
3426.39514423011
  0
LWPOLYLINE
  5
2025D
100
AcDbEntity
  8
0
100
AcDbPolyline
 70
0
 90
2
 38
0
 10
6345.93850682236
 20
2481.23375728419
 10
6212.0073797222
 20
3058.15450140317
  0
LWPOLYLINE
  5
2025E
100
AcDbEntity
  8
0
100
AcDbPolyline
 70
0
 90
2
 38
0
 10
6217.54168340415
 20
3004.51478283739
 10
6167.41304236892
 20
4309.14662618525
  0
LWPOLYLINE
  5
2025F
100
AcDbEntity
  8
0
100
AcDbPolyline
 70
0
 90
2
 38
0
 10
6271.7063627746
 20
2679.97819358435
 10
6652.07080491783
 20
2822.3893089036
  0
LWPOLYLINE
  5
20260
100
AcDbEntity
  8
0
100
AcDbPolyline
 70
0
 90
2
 38
0
 10
6578.13579173718
 20
3009.30382936932
 10
6693.95197327933
 20
2508.91372403202
  0
LWPOLYLINE
  5
20261
100
AcDbEntity
  8
0
100
AcDbPolyline
 70
0
 90
2
 38
0
 10
6628.01800331788
 20
2815.88502131755
 10
7069.36762297724
 20
2895.78834577117
  0
LWPOLYLINE
  5
20262
100
AcDbEntity
  8
0
100
AcDbPolyline
 70
0
 90
2
 38
0
 10
6420.62336043725
 20
3334.09408628587
 10
6587.65414550385
 20
2979.4646534175
  0
LWPOLYLINE
  5
20263
100
AcDbEntity
  8
0
100
AcDbPolyline
 70
0
 90
2
 38
0
 10
6571.40138304586
 20
2990.10447000003
 10
7180.86131607156
 20
3139.02862692666
  0
LWPOLYLINE
  5
20264
100
AcDbEntity
  8
0
100
AcDbPolyline
 70
0
 90
2
 38
0
 10
7156.76244567538
 20
3141.82857080541
 10
7196.55366063165
 20
2924.55212004601
  0
LWPOLYLINE
  5
20265
100
AcDbEntity
  8
0
100
AcDbPolyline
 70
0
 90
2
 38
0
 10
7323.34438168851
 20
3462.07041729905
 10
7869.83213082349
 20
3400.12358014107
  0
LWPOLYLINE
  5
20266
100
AcDbEntity
  8
0
100
AcDbPolyline
 70
0
 90
2
 38
0
 10
5502.63465112721
 20
3745.31239787144
 10
5475.11716721195
 20
4261.93559229403
  0
LWPOLYLINE
  5
20267
100
AcDbEntity
  8
0
100
AcDbPolyline
 70
0
 90
2
 38
0
 10
4845.11351080853
 20
4101.30482191295
 10
5541.73830860274
 20
4118.67031329138
  0
LWPOLYLINE
  5
20268
100
AcDbEntity
  8
0
100
AcDbPolyline
 70
0
 90
2
 38
0
 10
5484.33941958184
 20
4113.35896006641
 10
5873.29389064322
 20
4173.79547985139
  0
LWPOLYLINE
  5
20269
100
AcDbEntity
  8
0
100
AcDbPolyline
 70
0
 90
2
 38
0
 10
5805.04039539827
 20
4452.04697192376
 10
5923.3574176816
 20
3596.05623473817
  0
LWPOLYLINE
  5
2026A
100
AcDbEntity
  8
0
100
AcDbPolyline
 70
0
 90
2
 38
0
 10
5218.77249811281
 20
3562.59891234589
 10
6211.73675771549
 20
3660.2640465981
  0
LWPOLYLINE
  5
2026B
100
AcDbEntity
  8
0
100
AcDbPolyline
 70
0
 90
2
 38
0
 10
4939.15909773563
 20
3292.27155043258
 10
5254.58854216576
 20
3404.04936079696
  0
LWPOLYLINE
  5
2026C
100
AcDbEntity
  8
0
100
AcDbPolyline
 70
0
 90
2
 38
0
 10
3127.70301838854
 20
3595.72820763212
 10
3589.05756240415
 20
3631.56090386871
  0
LWPOLYLINE
  5
2026D
100
AcDbEntity
  8
0
100
AcDbPolyline
 70
0
 90
2
 38
0
 10
3571.25017110011
 20
3634.1028030733
 10
3617.76755898524
 20
3599.96903357835
  0
LWPOLYLINE
  5
2026E
100
AcDbEntity
  8
0
100
AcDbPolyline
 70
0
 90
2
 38
0
 10
3600.68697371733
 20
3603.23716838192
 10
3711.52901210784
 20
3646.44905694985
  0
LWPOLYLINE
  5
2026F
100
AcDbEntity
  8
0
100
AcDbPolyline
 70
0
 90
2
 38
0
 10
3147.95205589113
 20
3608.66237362292
 10
3120.63223027467
 20
3541.86948931684
  0
LWPOLYLINE
  5
20270
100
AcDbEntity
  8
0
100
AcDbPolyline
 70
0
 90
2
 38
0
 10
3124.11981830426
 20
3573.81390792072
 10
3074.4848082808
 20
3043.12603528699
  0
LWPOLYLINE
  5
20271
100
AcDbEntity
  8
0
100
AcDbPolyline
 70
0
 90
2
 38
0
 10
3063.32805252193
 20
3054.27383380038
 10
3530.05218497053
 20
2907.49431262179
  0
LWPOLYLINE
  5
20272
100
AcDbEntity
  8
0
100
AcDbPolyline
 70
0
 90
2
 38
0
 10
3509.59815419321
 20
2896.3465141084
 10
3601.64129269111
 20
3171.3258922766
  0
LWPOLYLINE
  5
20273
100
AcDbEntity
  8
0
100
AcDbPolyline
 70
0
 90
2
 38
0
 10
3585.83596376491
 20
3098.86507759268
 10
3583.97648302447
 20
3253.07651418562
  0
LWPOLYLINE
  5
20274
100
AcDbEntity
  8
0
100
AcDbPolyline
 70
0
 90
2
 38
0
 10
3576.53868874649
 20
3200.1243842042
 10
3716.9613982295
 20
3546.01944255302
  0
LWPOLYLINE
  5
20275
100
AcDbEntity
  8
0
100
AcDbPolyline
 70
0
 90
2
 38
0
 10
3105.6009343349
 20
3457.61561521785
 10
3628.24216198252
 20
3277.33843351461
  0
LWPOLYLINE
  5
20276
100
AcDbEntity
  8
0
100
AcDbPolyline
 70
0
 90
2
 38
0
 10
3105.01902624435
 20
3424.46791659133
 10
3627.66025389197
 20
3244.19073488809
  0
LWPOLYLINE
  5
20277
100
AcDbEntity
  8
0
100
AcDbPolyline
 70
0
 90
2
 38
0
 10
3094.5430077254
 20
3398.29866512657
 10
3617.18423537302
 20
3218.02148342333
  0
LWPOLYLINE
  5
20278
100
AcDbEntity
  8
0
100
AcDbPolyline
 70
0
 90
2
 38
0
 10
3088.7228973497
 20
3364.56942094677
 10
3611.36412499732
 20
3184.29223924353
  0
LWPOLYLINE
  5
20279
100
AcDbEntity
  8
0
100
AcDbPolyline
 70
0
 90
2
 38
0
 10
3070.10080898214
 20
3343.44890206711
 10
3592.74203662976
 20
3163.17172036387
  0
LWPOLYLINE
  5
2027A
100
AcDbEntity
  8
0
100
AcDbPolyline
 70
0
 90
2
 38
0
 10
3062.53471696725
 20
3316.1165594958
 10
3585.17594461487
 20
3135.83937779256
  0
LWPOLYLINE
  5
2027B
100
AcDbEntity
  8
0
100
AcDbPolyline
 70
0
 90
2
 38
0
 10
3068.89581398881
 20
3274.19564038007
 10
3591.53704163643
 20
3093.91845867683
  0
LWPOLYLINE
  5
2027C
100
AcDbEntity
  8
0
100
AcDbPolyline
 70
0
 90
2
 38
0
 10
3056.14260715271
 20
3252.253785397
 10
3578.78383480033
 20
3071.97660369376
  0
LWPOLYLINE
  5
2027D
100
AcDbEntity
  8
0
100
AcDbPolyline
 70
0
 90
2
 38
0
 10
3057.23551856646
 20
3220.21819565052
 10
3579.87674621408
 20
3039.94101394728
  0
LWPOLYLINE
  5
2027E
100
AcDbEntity
  8
0
100
AcDbPolyline
 70
0
 90
2
 38
0
 10
3056.50884121412
 20
3192.86446541347
 10
3579.15006886174
 20
3012.58728371023
  0
LWPOLYLINE
  5
2027F
100
AcDbEntity
  8
0
100
AcDbPolyline
 70
0
 90
2
 38
0
 10
3055.85409809941
 20
3158.30229599974
 10
3578.49532574703
 20
2978.0251142965
  0
LWPOLYLINE
  5
20280
100
AcDbEntity
  8
0
100
AcDbPolyline
 70
0
 90
2
 38
0
 10
3042.45116681636
 20
3134.42913479975
 10
3565.09239446398
 20
2954.15195309651
  0
LWPOLYLINE
  5
20281
100
AcDbEntity
  8
0
100
AcDbPolyline
 70
0
 90
2
 38
0
 10
3047.11299441388
 20
3101.23965561688
 10
3569.7542220615
 20
2920.96247391364
  0
LWPOLYLINE
  5
20282
100
AcDbEntity
  8
0
100
AcDbPolyline
 70
0
 90
2
 38
0
 10
3142.19937582048
 20
3472.30068495192
 10
3664.8406034681
 20
3292.02350324868
  0
LWPOLYLINE
  5
20283
100
AcDbEntity
  8
0
100
AcDbPolyline
 70
0
 90
2
 38
0
 10
3143.29511827756
 20
3505.87683323599
 10
3665.93634592518
 20
3325.59965153275
  0
LWPOLYLINE
  5
20284
100
AcDbEntity
  8
0
100
AcDbPolyline
 70
0
 90
2
 38
0
 10
3167.40852994179
 20
3526.00998803952
 10
3690.04975758941
 20
3345.73280633628
  0
LWPOLYLINE
  5
20285
100
AcDbEntity
  8
0
100
AcDbPolyline
 70
0
 90
2
 38
0
 10
3202.83787921099
 20
3546.81257678093
 10
3725.47910685861
 20
3366.53539507768
  0
LWPOLYLINE
  5
20286
100
AcDbEntity
  8
0
100
AcDbPolyline
 70
0
 90
2
 38
0
 10
3213.81820949614
 20
3564.7937345003
 10
3736.45943714376
 20
3384.51655279706
  0
LWPOLYLINE
  5
20287
100
AcDbEntity
  8
0
100
AcDbPolyline
 70
0
 90
2
 38
0
 10
3215.27928522811
 20
3594.355368185
 10
3737.92051287573
 20
3414.07818648175
  0
LWPOLYLINE
  5
20288
100
AcDbEntity
  8
0
100
AcDbPolyline
 70
0
 90
2
 38
0
 10
3222.21907324552
 20
3615.88787319345
 10
3744.86030089314
 20
3435.61069149021
  0
LWPOLYLINE
  5
20289
100
AcDbEntity
  8
0
100
AcDbPolyline
 70
0
 90
2
 38
0
 10
3252.16958154549
 20
3644.71959061109
 10
3774.81080919311
 20
3464.44240890785
  0
LWPOLYLINE
  5
2028A
100
AcDbEntity
  8
0
100
AcDbPolyline
 70
0
 90
2
 38
0
 10
2545.32394518447
 20
3427.72098055136
 10
2611.99591667161
 20
3438.57457431384
  0
LWPOLYLINE
  5
2028B
100
AcDbEntity
  8
0
100
AcDbPolyline
 70
0
 90
2
 38
0
 10
2577.16160123936
 20
3435.2062159138
 10
3077.95039138261
 20
3411.25347270173
  0
LWPOLYLINE
  5
2028C
100
AcDbEntity
  8
0
100
AcDbPolyline
 70
0
 90
2
 38
0
 10
2826.50226911077
 20
3456.92772820093
 10
2803.4541018458
 20
2982.51692201331
  0
ENDSEC
  0
SECTION
  2
OBJECTS
  0
DICTIONARY
  5
C
330
0
100
AcDbDictionary
281
     1
  3
ACAD_GROUP
350
D
  3
ACAD_LAYOUT
350
1A
  3
ACAD_MLEADERSTYLE
350
43
  3
ACAD_PLOTSETTINGS
350
19
  3
ACAD_PLOTSTYLENAME
350
E
  3
ACAD_TABLESTYLE
350
42
  0
DICTIONARY
  5
D
102
{ACAD_REACTORS
330
C
102
}
330
C
100
AcDbDictionary
281
     1
  0
DICTIONARY
  5
1A
102
{ACAD_REACTORS
330
C
102
}
330
C
100
AcDbDictionary
281
     1
  3
Layout1
350
1E
  3
Model
350
22
  0
DICTIONARY
  5
43
102
{ACAD_REACTORS
330
C
102
}
330
C
100
AcDbDictionary
281
     1
  0
DICTIONARY
  5
19
102
{ACAD_REACTORS
330
C
102
}
330
C
100
AcDbDictionary
281
     1
  0
ACDBDICTIONARYWDFLT
  5
E
102
{ACAD_REACTORS
330
C
102
}
330
C
100
AcDbDictionary
281
     1
  3
Normal
350
F
100
AcDbDictionaryWithDefault
340
F
  0
DICTIONARY
  5
42
102
{ACAD_REACTORS
330
C
102
}
330
C
100
AcDbDictionary
281
     1
  0
LAYOUT
  5
1E
102
{ACAD_REACTORS
330
1A
102
}
330
1A
100
AcDbPlotSettings
  1

  2
none_device
  4

  6

 40
0.0
 41
0.0
 42
0.0
 43
0.0
 44
0.0
 45
0.0
 46
0.0
 47
0.0
 48
0.0
 49
0.0
140
0.0
141
0.0
142
1.0
143
1.0
 70
   688
 72
     0
 73
     0
 74
     5
  7

 75
    16
 76
     0
 77
     2
 78
   300
147
1.0
148
0.0
149
0.0
100
AcDbLayout
  1
Layout1
 70
     1
 71
     1
 10
0.0
 20
0.0
 11
12.0
 21
9.0
 12
0.0
 22
0.0
 32
0.0
 14
1.000000000000000E+20
 24
1.000000000000000E+20
 34
1.000000000000000E+20
 15
-1.000000000000000E+20
 25
-1.000000000000000E+20
 35
-1.000000000000000E+20
146
0.0
 13
0.0
 23
0.0
 33
0.0
 16
1.0
 26
0.0
 36
0.0
 17
0.0
 27
1.0
 37
0.0
 76
     0
330
1B
  0
LAYOUT
  5
22
102
{ACAD_REACTORS
330
1A
102
}
330
1A
100
AcDbPlotSettings
  1

  2
none_device
  4

  6

 40
0.0
 41
0.0
 42
0.0
 43
0.0
 44
0.0
 45
0.0
 46
0.0
 47
0.0
 48
0.0
 49
0.0
140
0.0
141
0.0
142
1.0
143
1.0
 70
  1712
 72
     0
 73
     0
 74
     0
  7

 75
     0
 76
     0
 77
     2
 78
   300
147
1.0
148
0.0
149
0.0
100
AcDbLayout
  1
Model
 70
     1
 71
     0
 10
0.0
 20
0.0
 11
12.0
 21
9.0
 12
0.0
 22
0.0
 32
0.0
 14
30.0
 24
49.75
 34
0.0
 15
130.5
 25
163.1318914119703
 35
0.0
146
0.0
 13
0.0
 23
0.0
 33
0.0
 16
1.0
 26
0.0
 36
0.0
 17
0.0
 27
1.0
 37
0.0
 76
     0
330
1F
331
29
  0
ACDBPLACEHOLDER
  5
F
102
{ACAD_REACTORS
330
E
102
}
330
E
  0
ENDSEC
  0
EOF
