  0
SECTION
  2
HEADER
  9
$ACADVER
  1
AC1018
  9
$ACADMAINTVER
 70
     0
  9
$DWGCODEPAGE
  3
ANSI_1252
  9
$EXTMIN
 10
7739.25874981057
 20
-44.3891694331105
 30
0.0
  9
$EXTMAX
 10
15625.943611975
 20
5019.83008252811
 30
0.0
  9
$LIMMIN
 10
0.0
 20
0.0
  9
$LIMMAX
 10
12.0
 20
9.0
  9
$ORTHOMODE
 70
     0
  9
$REGENMODE
 70
     1
  9
$FILLMODE
 70
     1
  9
$QTEXTMODE
 70
     0
  9
$MIRRTEXT
 70
     1
  9
$LTSCALE
 40
1.0
  9
$ATTMODE
 70
     1
  9
$TEXTSIZE
 40
0.2
  9
$TRACEWID
 40
0.05
  9
$TEXTSTYLE
  7
Standard
  9
$CLAYER
  8
0
  9
$CELTYPE
  6
ByLayer
  9
$CECOLOR
 62
   256
  9
$CELTSCALE
 40
1.0
  9
$DISPSILH
 70
     0
  9
$LUNITS
 70
     2
  9
$LUPREC
 70
     4
  9
$SKETCHINC
 40
0.1
  9
$FILLETRAD
 40
0.5
  9
$AUNITS
 70
     0
  9
$AUPREC
 70
     0
  9
$MENU
  1
.
  9
$ELEVATION
 40
0.0
  9
$PELEVATION
 40
0.0
  9
$THICKNESS
 40
0.0
  9
$LIMCHECK
 70
     0
  9
$CHAMFERA
 40
0.5
  9
$CHAMFERB
 40
0.5
  9
$CHAMFERC
 40
1.0
  9
$CHAMFERD
 40
0.0
  9
$SKPOLY
 70
     0
  9
$ANGBASE
 50
0.0
  9
$ANGDIR
 70
     0
  9
$PDMODE
 70
     0
  9
$PDSIZE
 40
0.0
  9
$PLINEWID
 40
0.0
  9
$SPLFRAME
 70
     0
  9
$SPLINETYPE
 70
     6
  9
$SPLINESEGS
 70
     8
  9
$HANDSEED
  5
000203BC
  9
$SURFTAB1
 70
     6
  9
$SURFTAB2
 70
     6
  9
$SURFTYPE
 70
     6
  9
$SURFU
 70
     6
  9
$SURFV
 70
     6
  9
$UCSBASE
  2

  9
$UCSNAME
  2

  9
$UCSORG
 10
0.0
 20
0.0
 30
0.0
  9
$UCSXDIR
 10
1.0
 20
0.0
 30
0.0
  9
$UCSYDIR
 10
0.0
 20
1.0
 30
0.0
  9
$UCSORTHOREF
  2

  9
$UCSORTHOVIEW
 70
     0
  9
$UCSORGTOP
 10
0.0
 20
0.0
 30
0.0
  9
$UCSORGBOTTOM
 10
0.0
 20
0.0
 30
0.0
  9
$UCSORGLEFT
 10
0.0
 20
0.0
 30
0.0
  9
$UCSORGRIGHT
 10
0.0
 20
0.0
 30
0.0
  9
$UCSORGFRONT
 10
0.0
 20
0.0
 30
0.0
  9
$UCSORGBACK
 10
0.0
 20
0.0
 30
0.0
  9
$PUCSBASE
  2

  9
$PUCSNAME
  2

  9
$PUCSORG
 10
0.0
 20
0.0
 30
0.0
  9
$PUCSXDIR
 10
1.0
 20
0.0
 30
0.0
  9
$PUCSYDIR
 10
0.0
 20
1.0
 30
0.0
  9
$PUCSORTHOREF
  2

  9
$PUCSORTHOVIEW
 70
     0
  9
$PUCSORGTOP
 10
0.0
 20
0.0
 30
0.0
  9
$PUCSORGBOTTOM
 10
0.0
 20
0.0
 30
0.0
  9
$PUCSORGLEFT
 10
0.0
 20
0.0
 30
0.0
  9
$PUCSORGRIGHT
 10
0.0
 20
0.0
 30
0.0
  9
$PUCSORGFRONT
 10
0.0
 20
0.0
 30
0.0
  9
$PUCSORGBACK
 10
0.0
 20
0.0
 30
0.0
  9
$WORLDVIEW
 70
     1
  9
$SHADEDGE
 70
     3
  9
$SHADEDIF
 70
    70
  9
$TILEMODE
 70
     1
  9
$MAXACTVP
 70
    64
  9
$PINSBASE
 10
0.0
 20
0.0
 30
0.0
  9
$PLIMCHECK
 70
     0
  9
$PEXTMIN
 10
1.000000000000000E+20
 20
1.000000000000000E+20
 30
1.000000000000000E+20
  9
$PEXTMAX
 10
-1.000000000000000E+20
 20
-1.000000000000000E+20
 30
-1.000000000000000E+20
  9
$PLIMMIN
 10
0.0
 20
0.0
  9
$PLIMMAX
 10
12.0
 20
9.0
  9
$UNITMODE
 70
     0
  9
$VISRETAIN
 70
     1
  9
$PLINEGEN
 70
     0
  9
$PSLTSCALE
 70
     1
  9
$TREEDEPTH
 70
  3020
  9
$CMLSTYLE
  2
Standard
  9
$CMLJUST
 70
     0
  9
$CMLSCALE
 40
1.0
  9
$PROXYGRAPHICS
 70
     1
  9
$MEASUREMENT
 70
     0
  9
$CELWEIGHT
370
    -1
  9
$ENDCAPS
280
     0
  9
$JOINSTYLE
280
     0
  9
$LWDISPLAY
290
     0
  9
$INSUNITS
 70
     1
  9
$HYPERLINKBASE
  1

  9
$STYLESHEET
  1

  9
$XEDIT
290
     1
  9
$CEPSNTYPE
380
     0
  9
$PSTYLEMODE
290
     1
  9
$EXTNAMES
290
     1
  9
$PSVPSCALE
 40
0.0
  9
$OLESTARTUP
290
     0
  9
$SORTENTS
280
   127
  9
$INDEXCTL
280
     0
  9
$HIDETEXT
280
     1
  9
$XCLIPFRAME
290
     0
  9
$HALOGAP
280
     0
  9
$OBSCOLOR
 70
   257
  9
$OBSLTYPE
280
     0
  9
$INTERSECTIONDISPLAY
280
     0
  9
$INTERSECTIONCOLOR
 70
   257
  9
$DIMASSOC
280
     2
  9
$PROJECTNAME
  1

  0
ENDSEC
  0
SECTION
  2
CLASSES
  0
CLASS
  1
ACDBDICTIONARYWDFLT
  2
AcDbDictionaryWithDefault
  3
ObjectDBX Classes
 90
        0
 91
        4
280
     0
281
     0
  0
ENDSEC
  0
SECTION
  2
TABLES
  0
TABLE
  2
VPORT
  5
8
330
0
100
AcDbSymbolTable
 70
     1
  0
VPORT
  5
29
330
8
100
AcDbSymbolTableRecord
100
AcDbViewportTableRecord
  2
*Active
 70
     0
 10
0.0
 20
0.0
 11
1.0
 21
1.0
 12
80.25
 22
106.4409457059851
 13
0.0
 23
0.0
 14
0.5
 24
0.5
 15
0.5
 25
0.5
 16
0.0
 26
0.0
 36
1.0
 17
0.0
 27
0.0
 37
0.0
 40
113.3818914119703
 41
0.8863849310366128
 42
50.0
 43
0.0
 44
0.0
 50
0.0
 51
0.0
 71
     0
 72
  1000
 73
     1
 74
     3
 75
     0
 76
     0
 77
     0
 78
     0
281
     0
 65
     1
110
0.0
120
0.0
130
0.0
111
1.0
121
0.0
131
0.0
112
0.0
122
1.0
132
0.0
 79
     0
146
0.0
  0
ENDTAB
  0
TABLE
  2
LTYPE
  5
5
330
0
100
AcDbSymbolTable
 70
     1
  0
LTYPE
  5
14
330
5
100
AcDbSymbolTableRecord
100
AcDbLinetypeTableRecord
  2
ByBlock
 70
     0
  3

 72
    65
 73
     0
 40
0.0
  0
LTYPE
  5
15
330
5
100
AcDbSymbolTableRecord
100
AcDbLinetypeTableRecord
  2
ByLayer
 70
     0
  3

 72
    65
 73
     0
 40
0.0
  0
LTYPE
  5
16
330
5
100
AcDbSymbolTableRecord
100
AcDbLinetypeTableRecord
  2
Continuous
 70
     0
  3
Solid line
 72
    65
 73
     0
 40
0.0
  0
ENDTAB
  0
TABLE
  2
LAYER
  5
2
330
0
100
AcDbSymbolTable
 70
     1
  0
LAYER
  5
10
330
2
100
AcDbSymbolTableRecord
100
AcDbLayerTableRecord
  2
0
 70
     0
 62
     7
  6
Continuous
370
    -3
390
F
  0
ENDTAB
  0
TABLE
  2
STYLE
  5
3
330
0
100
AcDbSymbolTable
 70
     1
  0
STYLE
  5
11
330
3
100
AcDbSymbolTableRecord
100
AcDbTextStyleTableRecord
  2
Standard
 70
     0
 40
0.0
 41
1.0
 50
0.0
 71
     0
 42
0.2
  3
txt
  4

  0
ENDTAB
  0
TABLE
  2
VIEW
  5
6
330
0
100
AcDbSymbolTable
 70
     0
  0
ENDTAB
  0
TABLE
  2
UCS
  5
7
330
0
100
AcDbSymbolTable
 70
     0
  0
ENDTAB
  0
TABLE
  2
APPID
  5
9
330
0
100
AcDbSymbolTable
 70
     1
  0
APPID
  5
12
330
9
100
AcDbSymbolTableRecord
100
AcDbRegAppTableRecord
  2
ACAD
 70
     0
  0
ENDTAB
  0
TABLE
  2
DIMSTYLE
  5
A
330
0
100
AcDbSymbolTable
 70
     1
100
AcDbDimStyleTable
  0
DIMSTYLE
105
27
330
A
100
AcDbSymbolTableRecord
100
AcDbDimStyleTableRecord
  2
Standard
 70
     0
340
11
  0
ENDTAB
  0
TABLE
  2
BLOCK_RECORD
  5
1
330
0
100
AcDbSymbolTable
 70
     1
  0
BLOCK_RECORD
  5
1F
330
1
100
AcDbSymbolTableRecord
100
AcDbBlockTableRecord
  2
*Model_Space
340
22
  0
BLOCK_RECORD
  5
1B
330
1
100
AcDbSymbolTableRecord
100
AcDbBlockTableRecord
  2
*Paper_Space
340
1E
  0
ENDTAB
  0
ENDSEC
  0
SECTION
  2
BLOCKS
  0
BLOCK
  5
20
330
1F
100
AcDbEntity
  8
0
100
AcDbBlockBegin
  2
*Model_Space
 70
     0
 10
0.0
 20
0.0
 30
0.0
  3
*Model_Space
  1

  0
ENDBLK
  5
21
330
1F
100
AcDbEntity
  8
0
100
AcDbBlockEnd
  0
BLOCK
  5
1C
330
1B
100
AcDbEntity
 67
     1
  8
0
100
AcDbBlockBegin
  2
*Paper_Space
 70
     0
 10
0.0
 20
0.0
 30
0.0
  3
*Paper_Space
  1

  0
ENDBLK
  5
1D
330
1B
100
AcDbEntity
 67
     1
  8
0
100
AcDbBlockEnd
  0
ENDSEC
  0
SECTION
  2
ENTITIES
  0
LWPOLYLINE
  5
20000
100
AcDbEntity
  8
0
100
AcDbPolyline
 70
0
 90
6
 38
-1.79769313486232e+308
 10
15028.4821195759
 20
4821.58930574092
 10
15038.6264313247
 20
4632.97730120597
 10
15039.238688526
 20
4619.10990571976
 10
15043.1014748544
 20
4530.87736338098
 10
15052.8742129553
 20
4308.93439242244
 10
15076.9136569847
 20
4034.06616522232
  0
LWPOLYLINE
  5
20001
100
AcDbEntity
  8
0
100
AcDbPolyline
 70
0
 90
3
 38
-1.79769313486232e+308
 10
12725.699069706
 20
2128.88906941796
 10
12748.4193777845
 20
2119.18290476734
 10
12761.7643583354
 20
2100.77738994732
  0
LWPOLYLINE
  5
20002
100
AcDbEntity
  8
0
100
AcDbPolyline
 70
0
 90
3
 38
-1.79769313486232e+308
 10
13214.7011024759
 20
509.540224449243
 10
13215.6150354959
 20
494.711861162912
 10
13196.2133090007
 20
145.340200994899
  0
LWPOLYLINE
  5
20003
100
AcDbEntity
  8
0
100
AcDbPolyline
 70
0
 90
5
 38
-1.79769313486232e+308
 10
12366.8707098954
 20
2177.47922741436
 10
12725.699069706
 20
2128.88906941796
 10
12741.0878761161
 20
2134.15221101278
 10
12752.6161225859
 20
2141.50490587251
 10
12763.4530750152
 20
2150.59439270804
  0
LWPOLYLINE
  5
20004
100
AcDbEntity
  8
0
100
AcDbPolyline
 70
0
 90
16
 38
-1.79769313486232e+308
 10
11950.8497352854
 20
2307.88989436906
 10
11951.1091097046
 20
2336.83374584978
 10
11932.3974164959
 20
2459.20306920819
 10
11937.3489074458
 20
2548.80398897314
 10
11951.5744251751
 20
2604.3727646973
 10
12036.172785395
 20
2869.74148596125
 10
12090.5234135848
 20
3037.39653426129
 10
12129.1078622855
 20
3153.16096395254
 10
12133.0151764147
 20
3164.8881102209
 10
12135.4274697744
 20
3174.70580523461
 10
12139.4794992462
 20
3183.87071085721
 10
12317.6830796853
 20
3586.73137610406
 10
12393.2111278057
 20
3740.34275473468
 10
12398.806045416
 20
3791.95471018087
 10
12393.9191197653
 20
3969.07584661711
 10
12364.5719624061
 20
4224.94946605433
  0
LWPOLYLINE
  5
20005
100
AcDbEntity
  8
0
100
AcDbPolyline
 70
0
 90
7
 38
-1.79769313486232e+308
 10
8677.19731949571
 20
3126.07449064963
 10
9589.25905826617
 20
3400.78528044978
 10
9988.30603691492
 20
3520.94117209222
 10
10801.0763558757
 20
3765.60725905281
 10
10985.3590937156
 20
3821.069338236
 10
10996.7159081653
 20
3824.48929097131
 10
11011.544777536
 20
3828.94836476119
  0
LWPOLYLINE
  5
20006
100
AcDbEntity
  8
0
100
AcDbPolyline
 70
0
 90
7
 38
-1.79769313486232e+308
 10
14834.5243713457
 20
417.747282607946
 10
14911.6576465156
 20
417.164141383022
 10
14926.0968976647
 20
418.45915261982
 10
14942.0066792958
 20
418.223578994628
 10
15123.389544395
 20
422.848804016132
 10
15330.3736659952
 20
427.82417319715
 10
15532.0145180359
 20
432.341582954532
  0
LWPOLYLINE
  5
20007
100
AcDbEntity
  8
0
100
AcDbPolyline
 70
0
 90
3
 38
-1.79769313486232e+308
 10
9288.76656440574
 20
2072.13920352422
 10
9281.22244251448
 20
2005.42216137471
 10
9283.13157178576
 20
1989.65736472001
  0
LWPOLYLINE
  5
20008
100
AcDbEntity
  8
0
100
AcDbPolyline
 70
0
 90
12
 38
-1.79769313486232e+308
 10
7739.25874981057
 20
4641.83380616048
 10
8677.19731949571
 20
3126.07449064963
 10
8821.8603373647
 20
2889.23479781998
 10
8931.3363773946
 20
2709.98758425098
 10
8980.50508328456
 20
2629.48694411898
 10
9032.70167932588
 20
2543.96297646966
 10
9197.0381907944
 20
2274.64336414309
 10
9235.97329589467
 20
2211.25980295474
 10
9288.76656440574
 20
2072.13920352422
 10
9294.38485910486
 20
2057.35150136985
 10
9323.8722790249
 20
2028.73787446599
 10
9338.39279340509
 20
2014.50768843619
  0
LWPOLYLINE
  5
20009
100
AcDbEntity
  8
0
100
AcDbPolyline
 70
0
 90
7
 38
-1.79769313486232e+308
 10
15120.6544245046
 20
2236.37835458107
 10
15129.6223226853
 20
2301.86063099978
 10
15135.325220206
 20
2380.22711578617
 10
15147.1150674645
 20
2621.74642581725
 10
15156.5204512451
 20
2730.55830665724
 10
15154.5200399954
 20
3282.59794535907
 10
15131.7696756657
 20
3637.37828393234
  0
LWPOLYLINE
  5
2000A
100
AcDbEntity
  8
0
100
AcDbPolyline
 70
0
 90
2
 38
0
 10
11598.7651102256
 20
2455.504098095
 10
11951.1091097046
 20
2336.83374584978
  0
LWPOLYLINE
  5
2000B
100
AcDbEntity
  8
0
100
AcDbPolyline
 70
0
 90
9
 38
-1.79769313486232e+308
 10
9435.07094618616
 20
4821.58930574092
 10
9445.80051728453
 20
4791.40329390811
 10
9765.7204886854
 20
4075.81198448967
 10
9902.31173027608
 20
3787.2136585922
 10
9981.38307778466
 20
3543.81287026312
 10
9988.30603691492
 20
3520.94117209222
 10
10064.7725083355
 20
3268.11012594588
 10
10137.0054995261
 20
3029.3313040249
 10
10141.5272972353
 20
3014.39699356304
  0
LWPOLYLINE
  5
2000C
100
AcDbEntity
  8
0
100
AcDbPolyline
 70
0
 90
2
 38
0
 10
12796.783243756
 20
3198.60307231406
 10
12761.451550565
 20
3195.46912858402
  0
LWPOLYLINE
  5
2000D
100
AcDbEntity
  8
0
100
AcDbPolyline
 70
0
 90
8
 38
-1.79769313486232e+308
 10
11690.1495066055
 20
3186.11622962728
 10
11692.9503049955
 20
3168.80488678487
 10
11701.1411931247
 20
3124.28864210984
 10
11658.9065783259
 20
2948.30203311006
 10
11635.580692216
 20
2878.54179840814
 10
11645.153055235
 20
2788.97717701411
 10
11650.9528007053
 20
2710.46525415126
 10
11562.3035242047
 20
2467.77778535988
  0
LWPOLYLINE
  5
2000E
100
AcDbEntity
  8
0
100
AcDbPolyline
 70
0
 90
2
 38
-1.79769313486232e+308
 10
8515.89537733536
 20
1594.59241633629
 10
8090.26475776365
 20
1300.22590470887
  0
LWPOLYLINE
  5
2000F
100
AcDbEntity
  8
0
100
AcDbPolyline
 70
0
 90
2
 38
0
 10
12761.9536014658
 20
3180.03247126797
 10
12799.9736603547
 20
3183.93122655293
  0
LWPOLYLINE
  5
20010
100
AcDbEntity
  8
0
100
AcDbPolyline
 70
0
 90
7
 38
-1.79769313486232e+308
 10
11320.3161019247
 20
3023.52701953752
 10
11322.1350624051
 20
3005.76268086629
 10
11321.7309726544
 20
2672.24013140611
 10
11320.5220429853
 20
2462.01881995425
 10
11214.8965441447
 20
2116.84487762302
 10
11123.6646554649
 20
1828.03231400717
 10
10984.0933911048
 20
1389.84488865407
  0
LWPOLYLINE
  5
20011
100
AcDbEntity
  8
0
100
AcDbPolyline
 70
0
 90
6
 38
-1.79769313486232e+308
 10
15102.1987661246
 20
4044.2463637623
 10
15080.2443361555
 20
4312.64162983419
 10
15070.560653656
 20
4533.60600984748
 10
15067.8355525148
 20
4621.55656182114
 10
15066.6655846659
 20
4635.38532852288
 10
15059.5365944904
 20
4821.58930574092
  0
LWPOLYLINE
  5
20012
100
AcDbEntity
  8
0
100
AcDbPolyline
 70
0
 90
16
 38
-1.79769313486232e+308
 10
10616.8522502088
 20
4821.58930574092
 10
10618.2574693349
 20
4818.1018508994
 10
10904.3006932952
 20
4100.06891812757
 10
10973.393361646
 20
3883.0612751022
 10
10985.3590937156
 20
3821.069338236
 10
11001.9245471351
 20
3743.53477612604
 10
11046.8107922144
 20
3567.52541692927
 10
11093.8065416452
 20
3392.29749005986
 10
11119.6616065756
 20
3327.41088925814
 10
11132.7683634248
 20
3294.52349841781
 10
11191.9947853044
 20
3202.6164270225
 10
11213.9781583447
 20
3171.788178619
 10
11295.3760832057
 20
3057.61628469499
 10
11303.1228065744
 20
3040.46091107745
 10
11307.3985882152
 20
3030.99610927422
 10
11320.3161019247
 20
3023.52701953752
  0
LWPOLYLINE
  5
20013
100
AcDbEntity
  8
0
100
AcDbPolyline
 70
0
 90
15
 38
-1.79769313486232e+308
 10
11320.3161019247
 20
3023.52701953752
 10
11323.4987261661
 20
3038.93516034307
 10
11317.1690999244
 20
3048.83129874477
 10
11307.2115714655
 20
3064.39655208308
 10
11226.8066164658
 20
3177.16892125504
 10
11203.5631067857
 20
3209.76887976797
 10
11143.6665415645
 20
3298.97208537301
 10
11129.8785094444
 20
3329.77102828911
 10
11100.6404451851
 20
3395.14950030483
 10
11056.2796281048
 20
3570.41223194497
 10
11016.4406087336
 20
3744.13094640803
 10
10996.7159081653
 20
3824.48929097131
 10
10981.1768204451
 20
3885.87862937944
 10
10917.0868500054
 20
4104.67745747277
 10
10631.4871640364
 20
4821.58930574092
  0
LWPOLYLINE
  5
20014
100
AcDbEntity
  8
0
100
AcDbPolyline
 70
0
 90
3
 38
-1.79769313486232e+308
 10
15127.1254265059
 20
2619.33878053306
 10
15147.1150674645
 20
2621.74642581725
 10
15625.943611975
 20
2662.59921458503
  0
LWPOLYLINE
  5
20015
100
AcDbEntity
  8
0
100
AcDbPolyline
 70
0
 90
12
 38
-1.79769313486232e+308
 10
9589.25905826617
 20
3400.78528044978
 10
9666.44687999528
 20
3146.62657391233
 10
9734.82265082489
 20
2921.44002916245
 10
9812.96782016496
 20
2664.13908275217
 10
9825.66492128487
 20
2622.32065572217
 10
9871.18902704607
 20
2450.48930953816
 10
9888.4257369947
 20
2318.79098490486
 10
9890.90370886515
 20
2299.7955156141
 10
9899.93505915556
 20
2230.81390231429
 10
9919.0875775453
 20
2037.38825952914
 10
9932.40138864446
 20
1736.08436233783
 10
9940.62010664608
 20
1550.15121115604
  0
LWPOLYLINE
  5
20016
100
AcDbEntity
  8
0
100
AcDbPolyline
 70
0
 90
4
 38
-1.79769313486232e+308
 10
9427.4500438993
 20
1603.60178616615
 10
9932.40138864446
 20
1736.08436233783
 10
10193.5880834956
 20
1803.67544019129
 10
10714.9495790445
 20
1928.14458995778
  0
LWPOLYLINE
  5
20017
100
AcDbEntity
  8
0
100
AcDbPolyline
 70
0
 90
10
 38
-1.79769313486232e+308
 10
10838.0244080659
 20
2797.60490460601
 10
10848.9114542652
 20
2785.73904468212
 10
10882.4753939353
 20
2754.5757648591
 10
10930.389529166
 20
2585.11936662626
 10
10947.1453389146
 20
2355.84600785095
 10
10944.7252531845
 20
2081.13465639809
 10
10930.3427749753
 20
1921.04564432241
 10
10927.2236028455
 20
1874.57043615123
 10
10925.5359993644
 20
1849.370204648
 10
10848.851341746
 20
1617.44004548434
  0
LWPOLYLINE
  5
20018
100
AcDbEntity
  8
0
100
AcDbPolyline
 70
0
 90
7
 38
-1.79769313486232e+308
 10
11056.2796281048
 20
3570.41223194497
 10
11046.8107922144
 20
3567.52541692927
 10
10867.9682378948
 20
3513.01212033443
 10
10064.7725083355
 20
3268.11012594588
 10
9666.44687999528
 20
3146.62657391233
 10
9550.06569195467
 20
3111.12332807249
 10
8821.8603373647
 20
2889.23479781998
  0
LWPOLYLINE
  5
20019
100
AcDbEntity
  8
0
100
AcDbPolyline
 70
0
 90
4
 38
-1.79769313486232e+308
 10
10801.0763558757
 20
3765.60725905281
 10
10867.9682378948
 20
3513.01212033443
 10
10928.9434889753
 20
3282.76790565625
 10
10931.7231366646
 20
3272.28316217288
  0
LWPOLYLINE
  5
2001A
100
AcDbEntity
  8
0
100
AcDbPolyline
 70
0
 90
10
 38
-1.79769313486232e+308
 10
8931.3363773946
 20
2709.98758425098
 10
9461.36854807589
 20
2848.07484658482
 10
9734.82265082489
 20
2921.44002916245
 10
10137.0054995261
 20
3029.3313040249
 10
10721.9660465449
 20
3234.23016986623
 10
10928.9434889753
 20
3282.76790565625
 10
11093.365716466
 20
3321.32191284746
 10
11119.6616065756
 20
3327.41088925814
 10
11129.8785094444
 20
3329.77102828911
 10
11149.1846487347
 20
3334.24280409794
  0
LWPOLYLINE
  5
2001B
100
AcDbEntity
  8
0
100
AcDbPolyline
 70
0
 90
3
 38
-1.79769313486232e+308
 10
10729.5123948261
 20
3205.82247644989
 10
10784.6289011158
 20
2998.50218894472
 10
10838.0244080659
 20
2797.60490460601
  0
LWPOLYLINE
  5
2001C
100
AcDbEntity
  8
0
100
AcDbPolyline
 70
0
 90
7
 38
-1.79769313486232e+308
 10
9032.70167932588
 20
2543.96297646966
 10
9144.95848022516
 20
2577.10592400748
 10
9430.19797745462
 20
2597.15499013802
 10
9684.25911171477
 20
2626.65570608992
 10
9812.96782016496
 20
2664.13908275217
 10
10098.8785739255
 20
2747.41198088974
 10
10212.3854927153
 20
2777.98555583228
  0
LWPOLYLINE
  5
2001D
100
AcDbEntity
  8
0
100
AcDbPolyline
 70
0
 90
4
 38
-1.79769313486232e+308
 10
11862.3874755346
 20
3617.26448165253
 10
11740.0562607154
 20
4043.00635178993
 10
11716.3051341653
 20
4125.67794477753
 10
11509.3267545852
 20
4821.58930574092
  0
LWPOLYLINE
  5
2001E
100
AcDbEntity
  8
0
100
AcDbPolyline
 70
0
 90
7
 38
-1.79769313486232e+308
 10
11350.9645841357
 20
1773.87151682098
 10
11736.1033055961
 20
1682.05269894097
 10
11906.5913321462
 20
1710.8676692592
 10
12301.3692083147
 20
1762.27053558966
 10
12754.0454648447
 20
1835.91010353435
 10
12765.7963502959
 20
1837.81678939611
 10
12772.0458265051
 20
1838.87505810754
  0
LWPOLYLINE
  5
2001F
100
AcDbEntity
  8
0
100
AcDbPolyline
 70
0
 90
3
 38
-1.79769313486232e+308
 10
10983.8996951852
 20
3075.27640382294
 10
11213.9781583447
 20
3171.788178619
 10
11226.8066164658
 20
3177.16892125504
  0
LWPOLYLINE
  5
20020
100
AcDbEntity
  8
0
100
AcDbPolyline
 70
0
 90
3
 38
-1.79769313486232e+308
 10
10212.3854927153
 20
2777.98555583228
 10
10784.6289011158
 20
2998.50218894472
 10
10983.8996951852
 20
3075.27640382294
  0
LWPOLYLINE
  5
20021
100
AcDbEntity
  8
0
100
AcDbPolyline
 70
0
 90
7
 38
-1.79769313486232e+308
 10
15040.9867503096
 20
4821.58930574092
 10
15048.1587193247
 20
4634.22638483811
 10
15049.3175552257
 20
4620.46200508624
 10
15052.0426563558
 20
4532.88489510491
 10
15061.7486027658
 20
4311.45824965928
 10
15083.6807688374
 20
4043.30766309937
 10
15114.9103387848
 20
3601.52086005127
  0
LWPOLYLINE
  5
20022
100
AcDbEntity
  8
0
100
AcDbPolyline
 70
0
 90
7
 38
-1.79769313486232e+308
 10
15127.0508424446
 20
3601.85821396718
 10
15095.8335176457
 20
4043.92960056616
 10
15073.8891064257
 20
4312.23472216586
 10
15064.1954051659
 20
4533.35233197594
 10
15061.4691908371
 20
4621.17411080981
 10
15060.3114681349
 20
4634.97712279111
 10
15053.1631146022
 20
4821.58930574092
  0
LWPOLYLINE
  5
20023
100
AcDbEntity
  8
0
100
AcDbPolyline
 70
0
 90
3
 38
-1.79769313486232e+308
 10
14809.1891684357
 20
4599.41562899109
 10
15039.238688526
 20
4619.10990571976
 10
15067.8355525148
 20
4621.55656182114
  0
LWPOLYLINE
  5
20024
100
AcDbEntity
  8
0
100
AcDbPolyline
 70
0
 90
2
 38
0
 10
14784.8157659259
 20
4597.33211176936
 10
14809.1891684357
 20
4599.41562899109
  0
LWPOLYLINE
  5
20025
100
AcDbEntity
  8
0
100
AcDbPolyline
 70
0
 90
2
 38
0
 10
14806.3583137851
 20
4613.10014770599
 10
14784.1022079952
 20
4611.20077116741
  0
LWPOLYLINE
  5
20026
100
AcDbEntity
  8
0
100
AcDbPolyline
 70
0
 90
3
 38
-1.79769313486232e+308
 10
15066.6655846659
 20
4635.38532852288
 10
15038.6264313247
 20
4632.97730120597
 10
14806.3583137851
 20
4613.10014770599
  0
LWPOLYLINE
  5
20027
100
AcDbEntity
  8
0
100
AcDbPolyline
 70
0
 90
3
 38
-1.79769313486232e+308
 10
14059.0338366546
 20
3983.49107024586
 10
14060.6257053756
 20
3932.70757850399
 10
14062.4246283446
 20
3819.40700461902
  0
LWPOLYLINE
  5
20028
100
AcDbEntity
  8
0
100
AcDbPolyline
 70
0
 90
2
 38
0
 10
14058.3881836154
 20
4004.35100301308
 10
14059.0338366546
 20
3983.49107024586
  0
LWPOLYLINE
  5
20029
100
AcDbEntity
  8
0
100
AcDbPolyline
 70
0
 90
3
 38
-1.79769313486232e+308
 10
14068.8177067053
 20
4004.64072454441
 10
14052.3591199957
 20
4532.35951153003
 10
14051.9472378746
 20
4545.64863212965
  0
LWPOLYLINE
  5
2002A
100
AcDbEntity
  8
0
100
AcDbPolyline
 70
0
 90
2
 38
0
 10
14069.4065868158
 20
3985.50624126615
 10
14068.8177067053
 20
4004.64072454441
  0
LWPOLYLINE
  5
2002B
100
AcDbEntity
  8
0
100
AcDbPolyline
 70
0
 90
3
 38
-1.79769313486232e+308
 10
14072.8753021445
 20
3818.21594464406
 10
14071.0429833245
 20
3932.97154551977
 10
14069.4065868158
 20
3985.50624126615
  0
LWPOLYLINE
  5
2002C
100
AcDbEntity
  8
0
100
AcDbPolyline
 70
0
 90
2
 38
0
 10
14073.1302237746
 20
3801.64412721246
 10
14072.8753021445
 20
3818.21594464406
  0
LWPOLYLINE
  5
2002D
100
AcDbEntity
  8
0
100
AcDbPolyline
 70
0
 90
2
 38
0
 10
14062.4246283446
 20
3819.40700461902
 10
14062.6906819355
 20
3802.80943301274
  0
LWPOLYLINE
  5
2002E
100
AcDbEntity
  8
0
100
AcDbPolyline
 70
0
 90
3
 38
-1.79769313486232e+308
 10
14041.5288467344
 20
4545.29580064584
 10
14041.9629927457
 20
4531.40145918773
 10
14058.3881836154
 20
4004.35100301308
  0
LWPOLYLINE
  5
2002F
100
AcDbEntity
  8
0
100
AcDbPolyline
 70
0
 90
2
 38
0
 10
13985.1065628261
 20
3064.25878360588
 10
13987.1938032761
 20
3080.65453043114
  0
LWPOLYLINE
  5
20030
100
AcDbEntity
  8
0
100
AcDbPolyline
 70
0
 90
4
 38
-1.79769313486232e+308
 10
13904.6337029256
 20
2036.71363485418
 10
13914.1581985645
 20
2331.02977799252
 10
13923.1327759151
 20
2575.99995602248
 10
13985.1065628261
 20
3064.25878360588
  0
LWPOLYLINE
  5
20031
100
AcDbEntity
  8
0
100
AcDbPolyline
 70
0
 90
7
 38
-1.79769313486232e+308
 10
13975.0466204446
 20
3067.74291022308
 10
13944.4660431251
 20
2825.60739948461
 10
13931.3002869461
 20
2765.26093469234
 10
13925.3046191756
 20
2680.45062416466
 10
13912.736648665
 20
2576.81752256816
 10
13903.739807415
 20
2331.35808577482
 10
13894.1373881448
 20
2034.5816151211
  0
LWPOLYLINE
  5
20032
100
AcDbEntity
  8
0
100
AcDbPolyline
 70
0
 90
2
 38
0
 10
13977.1449928444
 20
3084.31891965214
 10
13975.0466204446
 20
3067.74291022308
  0
LWPOLYLINE
  5
20033
100
AcDbEntity
  8
0
100
AcDbPolyline
 70
0
 90
6
 38
-1.79769313486232e+308
 10
13987.1938032761
 20
3080.65453043114
 10
14018.2641863555
 20
3325.43445019983
 10
14019.6590195757
 20
3335.2239425662
 10
14062.6005131446
 20
3638.96591208503
 10
14073.4408051644
 20
3782.52282629442
 10
14073.1302237746
 20
3801.64412721246
  0
LWPOLYLINE
  5
20034
100
AcDbEntity
  8
0
100
AcDbPolyline
 70
0
 90
6
 38
-1.79769313486232e+308
 10
14062.6906819355
 20
3802.80943301274
 10
14063.001263316
 20
3782.81254275935
 10
14052.2277629946
 20
3640.06810985273
 10
14008.7953504652
 20
3333.6324896575
 10
14007.5897603754
 20
3324.19193329616
 10
13977.1449928444
 20
3084.31891965214
  0
LWPOLYLINE
  5
20035
100
AcDbEntity
  8
0
100
AcDbPolyline
 70
0
 90
15
 38
-1.79769313486232e+308
 10
12364.5719624061
 20
4224.94946605433
 10
12382.1504231945
 20
4220.38208856899
 10
12488.1488423359
 20
4252.2932447046
 10
12698.8476953369
 20
4316.6810905193
 10
12854.0804988548
 20
4362.30506616598
 10
12984.686091426
 20
4393.5444046394
 10
13143.1248962853
 20
4427.68499469617
 10
13166.0990127951
 20
4432.64133059001
 10
13400.7627257754
 20
4468.88612479903
 10
13528.382729606
 20
4485.81035574246
 10
13911.7047169853
 20
4519.37945368746
 10
14041.9629927457
 20
4531.40145918773
 10
14052.3591199957
 20
4532.35951153003
 10
14386.7495119956
 20
4563.20007920917
 10
14784.8157659259
 20
4597.33211176936
  0
LWPOLYLINE
  5
20036
100
AcDbEntity
  8
0
100
AcDbPolyline
 70
0
 90
14
 38
-1.79769313486232e+308
 10
14784.1022079952
 20
4611.20077116741
 10
14385.5350163553
 20
4577.02878230996
 10
14051.9472378746
 20
4545.64863212965
 10
14041.5288467344
 20
4545.29580064584
 10
13910.4790893954
 20
4533.19523197971
 10
13526.8888220445
 20
4499.61193276756
 10
13398.8112951044
 20
4482.62201072974
 10
13163.5898714748
 20
4446.29862782406
 10
12981.618126265
 20
4407.0716028898
 10
12850.5216147352
 20
4375.7279283097
 10
12694.8758159049
 20
4329.97384828934
 10
12484.1313219045
 20
4265.57305824943
 10
12378.1562798649
 20
4233.66186871799
 10
12364.5719624061
 20
4224.94946605433
  0
LWPOLYLINE
  5
20037
100
AcDbEntity
  8
0
100
AcDbPolyline
 70
0
 90
2
 38
0
 10
15102.5104607057
 20
4026.30933842249
 10
15102.1987661246
 20
4044.2463637623
  0
LWPOLYLINE
  5
20038
100
AcDbEntity
  8
0
100
AcDbPolyline
 70
0
 90
3
 38
-1.79769313486232e+308
 10
15131.7696756657
 20
3637.37828393234
 10
15131.1574184645
 20
3649.08270054404
 10
15102.5104607057
 20
4026.30933842249
  0
LWPOLYLINE
  5
20039
100
AcDbEntity
  8
0
100
AcDbPolyline
 70
0
 90
9
 38
-1.79769313486232e+308
 10
15077.9155324057
 20
4010.45060835313
 10
15099.8733019654
 20
3639.07407167601
 10
15099.9623575557
 20
3627.93621401815
 10
15121.6329228368
 20
3284.93747480307
 10
15127.7020614662
 20
2729.68279172294
 10
15127.1254265059
 20
2619.33878053306
 10
15104.3450059045
 20
2402.64098758809
 10
15094.649078266
 20
2296.56137049617
 10
15086.1821177949
 20
2232.05759966979
  0
LWPOLYLINE
  5
2003A
100
AcDbEntity
  8
0
100
AcDbPolyline
 70
0
 90
2
 38
0
 10
15076.9136569847
 20
4034.06616522232
 10
15077.9155324057
 20
4010.45060835313
  0
LWPOLYLINE
  5
2003B
100
AcDbEntity
  8
0
100
AcDbPolyline
 70
0
 90
2
 38
0
 10
15114.6531907648
 20
2192.50525096478
 10
15120.6544245046
 20
2236.37835458107
  0
LWPOLYLINE
  5
2003C
100
AcDbEntity
  8
0
100
AcDbPolyline
 70
0
 90
6
 38
-1.79769313486232e+308
 10
14947.4212593262
 20
820.126261349302
 10
14960.5914682851
 20
1023.78194260411
 10
14969.9846069154
 20
1098.16775666736
 10
14996.489777676
 20
1308.08970091911
 10
15087.0904848364
 20
1991.15466551436
 10
15114.6531907648
 20
2192.50525096478
  0
LWPOLYLINE
  5
2003D
100
AcDbEntity
  8
0
100
AcDbPolyline
 70
0
 90
9
 38
-1.79769313486232e+308
 10
15080.0918284554
 20
2185.63532658806
 10
15055.8965371244
 20
2001.18130684318
 10
14975.2166229852
 20
1443.20200286899
 10
14940.5116585356
 20
1174.41810969775
 10
14931.6973812461
 20
1094.89529692289
 10
14928.6628119342
 20
1067.48236476723
 10
14924.8356478356
 20
1032.97490468109
 10
14917.1657349255
 20
881.775275504682
 10
14914.2847865049
 20
816.140693587251
  0
LWPOLYLINE
  5
2003E
100
AcDbEntity
  8
0
100
AcDbPolyline
 70
0
 90
2
 38
0
 10
15086.1821177949
 20
2232.05759966979
 10
15080.0918284554
 20
2185.63532658806
  0
LWPOLYLINE
  5
2003F
100
AcDbEntity
  8
0
100
AcDbPolyline
 70
0
 90
13
 38
-1.79769313486232e+308
 10
15114.9103387848
 20
3601.52086005127
 10
15134.8543387551
 20
3282.07003838755
 10
15136.8324861054
 20
2730.47976781614
 10
15131.8642972254
 20
2622.38374376251
 10
15110.977421175
 20
2391.28019197099
 10
15067.5917628363
 20
1993.74243428232
 10
14976.9788105145
 20
1310.58592663985
 10
14940.9914455351
 20
1025.62156436732
 10
14927.7644636456
 20
820.974610722158
 10
14926.8249271337
 20
785.081371643115
 10
14921.1342747651
 20
566.455605792813
 10
14922.3276197158
 20
417.487250537146
 10
14923.7742082258
 20
394.746791547465
  0
LWPOLYLINE
  5
20040
100
AcDbEntity
  8
0
100
AcDbPolyline
 70
0
 90
13
 38
-1.79769313486232e+308
 10
14935.9564603074
 20
394.746791547465
 10
14934.4814817153
 20
417.942950311117
 10
14933.2870235753
 20
566.370643822476
 10
14938.9776759457
 20
784.789148929063
 10
14939.906080506
 20
820.450668083038
 10
14953.0996665556
 20
1024.47968574567
 10
14989.0313717846
 20
1309.04493525298
 10
15079.6320789561
 20
1992.14986209711
 10
15123.0622650955
 20
2389.98369202903
 10
15143.9714050547
 20
2621.42068554461
 10
15148.9952536647
 20
2730.16174988588
 10
15146.9948424261
 20
3282.39579561306
 10
15127.0508424446
 20
3601.85821396718
  0
LWPOLYLINE
  5
20041
100
AcDbEntity
  8
0
100
AcDbPolyline
 70
0
 90
2
 38
0
 10
14943.4995499539
 20
394.746791547464
 10
14942.0066792958
 20
418.223578994628
  0
LWPOLYLINE
  5
20042
100
AcDbEntity
  8
0
100
AcDbPolyline
 70
0
 90
2
 38
0
 10
14911.6576465156
 20
417.164141383022
 10
14912.7425874714
 20
394.746791547465
  0
LWPOLYLINE
  5
20043
100
AcDbEntity
  8
0
100
AcDbPolyline
 70
0
 90
3
 38
-1.79769313486232e+308
 10
14913.6458126262
 20
779.127496120986
 10
14909.9622506753
 20
565.84799898928
 10
14911.6576465156
 20
417.164141383022
  0
LWPOLYLINE
  5
20044
100
AcDbEntity
  8
0
100
AcDbPolyline
 70
0
 90
2
 38
0
 10
14914.2847865049
 20
816.140693587251
 10
14913.6458126262
 20
779.127496120986
  0
LWPOLYLINE
  5
20045
100
AcDbEntity
  8
0
100
AcDbPolyline
 70
0
 90
2
 38
0
 10
14946.4928547751
 20
784.607636145782
 10
14947.4212593262
 20
820.126261349302
  0
LWPOLYLINE
  5
20046
100
AcDbEntity
  8
0
100
AcDbPolyline
 70
0
 90
3
 38
-1.79769313486232e+308
 10
14942.0066792958
 20
418.223578994628
 10
14940.8133343544
 20
566.31657711463
 10
14946.4928547751
 20
784.607636145782
  0
LWPOLYLINE
  5
20047
100
AcDbEntity
  8
0
100
AcDbPolyline
 70
0
 90
7
 38
-1.79769313486232e+308
 10
14535.4356162653
 20
3465.5602354724
 10
15024.4721580755
 20
3605.22274036473
 10
15099.9623575557
 20
3627.93621401815
 10
15131.7696756657
 20
3637.37828393234
 10
15391.7418748748
 20
3711.1291650231
 10
15524.0896174845
 20
3748.91061066231
 10
15532.0145180359
 20
3750.93071758659
  0
LWPOLYLINE
  5
20048
100
AcDbEntity
  8
0
100
AcDbPolyline
 70
0
 90
9
 38
-1.79769313486232e+308
 10
15532.0145180359
 20
3765.23013633188
 10
15520.4127347052
 20
3762.64571728744
 10
15463.0731781844
 20
3745.06704969006
 10
15388.0082191557
 20
3722.16022301465
 10
15263.1867873252
 20
3686.41458244249
 10
15131.1574184645
 20
3649.08270054404
 10
15099.8733019654
 20
3639.07407167601
 10
15019.9904353761
 20
3616.52152957628
 10
14536.9417689752
 20
3477.69326368999
  0
LWPOLYLINE
  5
20049
100
AcDbEntity
  8
0
100
AcDbPolyline
 70
0
 90
2
 38
0
 10
14521.0164026257
 20
3461.58413790725
 10
14535.4356162653
 20
3465.5602354724
  0
LWPOLYLINE
  5
2004A
100
AcDbEntity
  8
0
100
AcDbPolyline
 70
0
 90
6
 38
-1.79769313486232e+308
 10
13700.4648512557
 20
3287.38001095923
 10
14007.5897603754
 20
3324.19193329616
 10
14018.2641863555
 20
3325.43445019983
 10
14077.8490569957
 20
3337.71026624087
 10
14291.1004659247
 20
3394.73875928717
 10
14521.0164026257
 20
3461.58413790725
  0
LWPOLYLINE
  5
2004B
100
AcDbEntity
  8
0
100
AcDbPolyline
 70
0
 90
6
 38
-1.79769313486232e+308
 10
14521.6754140046
 20
3472.94331631623
 10
14289.7301229846
 20
3405.62919492274
 10
14076.0200777661
 20
3347.32594415732
 10
14019.6590195757
 20
3335.2239425662
 10
14008.7953504652
 20
3333.6324896575
 10
13699.4284667962
 20
3297.58922489127
  0
LWPOLYLINE
  5
2004C
100
AcDbEntity
  8
0
100
AcDbPolyline
 70
0
 90
2
 38
0
 10
14536.9417689752
 20
3477.69326368999
 10
14521.6754140046
 20
3472.94331631623
  0
LWPOLYLINE
  5
2004D
100
AcDbEntity
  8
0
100
AcDbPolyline
 70
0
 90
2
 38
0
 10
13684.5795599159
 20
3285.48212040961
 10
13700.4648512557
 20
3287.38001095923
  0
LWPOLYLINE
  5
2004E
100
AcDbEntity
  8
0
100
AcDbPolyline
 70
0
 90
2
 38
0
 10
13280.3684700944
 20
3240.37575773755
 10
13684.5795599159
 20
3285.48212040961
  0
LWPOLYLINE
  5
2004F
100
AcDbEntity
  8
0
100
AcDbPolyline
 70
0
 90
2
 38
0
 10
13683.3973469261
 20
3295.90893372428
 10
13277.8248197261
 20
3252.01156676933
  0
LWPOLYLINE
  5
20050
100
AcDbEntity
  8
0
100
AcDbPolyline
 70
0
 90
2
 38
0
 10
13699.4284667962
 20
3297.58922489127
 10
13683.3973469261
 20
3295.90893372428
  0
LWPOLYLINE
  5
20051
100
AcDbEntity
  8
0
100
AcDbPolyline
 70
0
 90
2
 38
0
 10
13262.561804346
 20
3250.34286980983
 10
12796.783243756
 20
3198.60307231406
  0
LWPOLYLINE
  5
20052
100
AcDbEntity
  8
0
100
AcDbPolyline
 70
0
 90
2
 38
0
 10
13277.8248197261
 20
3252.01156676933
 10
13262.561804346
 20
3250.34286980983
  0
LWPOLYLINE
  5
20053
100
AcDbEntity
  8
0
100
AcDbPolyline
 70
0
 90
2
 38
0
 10
13263.9109965761
 20
3238.39675708627
 10
13280.3684700944
 20
3240.37575773755
  0
LWPOLYLINE
  5
20054
100
AcDbEntity
  8
0
100
AcDbPolyline
 70
0
 90
2
 38
0
 10
12799.9736603547
 20
3183.93122655293
 10
13263.9109965761
 20
3238.39675708627
  0
LWPOLYLINE
  5
20055
100
AcDbEntity
  8
0
100
AcDbPolyline
 70
0
 90
2
 38
0
 10
13213.5311346252
 20
528.370816131122
 10
13214.7011024759
 20
509.540224449243
  0
LWPOLYLINE
  5
20056
100
AcDbEntity
  8
0
100
AcDbPolyline
 70
0
 90
11
 38
-1.79769313486232e+308
 10
12871.8248256959
 20
948.837858112529
 10
12926.9057097353
 20
940.891102517489
 10
12961.9190291755
 20
905.733881232329
 10
12990.0494644951
 20
905.835580852814
 10
13098.8653799456
 20
896.755996386055
 10
13123.5794200946
 20
881.516521264799
 10
13154.2178835452
 20
857.418929363135
 10
13170.5295285259
 20
839.212204931304
 10
13184.3632016454
 20
821.97872689506
 10
13200.1683429547
 20
744.604084396269
 10
13213.5311346252
 20
528.370816131122
  0
LWPOLYLINE
  5
20057
100
AcDbEntity
  8
0
100
AcDbPolyline
 70
0
 90
2
 38
0
 10
12831.4180769261
 20
949.929523612373
 10
12871.8248256959
 20
948.837858112529
  0
LWPOLYLINE
  5
20058
100
AcDbEntity
  8
0
100
AcDbPolyline
 70
0
 90
10
 38
-1.79769313486232e+308
 10
12278.7980683551
 20
1576.21598488232
 10
12270.695122625
 20
1420.18475187477
 10
12286.0516463753
 20
1079.89631933998
 10
12288.8502183847
 20
1038.75768160308
 10
12322.4085920744
 20
990.023836334236
 10
12364.3515498147
 20
961.534912079107
 10
12511.1819581662
 20
927.031601904426
 10
12785.025679135
 20
910.71201426629
 10
12799.3680823252
 20
944.460898314603
 10
12831.4180769261
 20
949.929523612373
  0
LWPOLYLINE
  5
20059
100
AcDbEntity
  8
0
100
AcDbPolyline
 70
0
 90
2
 38
0
 10
12754.5452893556
 20
1652.34561701212
 10
12753.3563971959
 20
1721.60731972754
  0
LWPOLYLINE
  5
2005A
100
AcDbEntity
  8
0
100
AcDbPolyline
 70
0
 90
4
 38
-1.79769313486232e+308
 10
12799.3680823252
 20
944.460898314603
 10
12798.1958880846
 20
949.556194597855
 10
12776.0700260952
 20
1306.02474716399
 10
12754.5452893556
 20
1652.34561701212
  0
LWPOLYLINE
  5
2005B
100
AcDbEntity
  8
0
100
AcDbPolyline
 70
0
 90
2
 38
0
 10
12762.1940515761
 20
2333.44380600611
 10
12762.1383918256
 20
2342.10856099473
  0
LWPOLYLINE
  5
2005C
100
AcDbEntity
  8
0
100
AcDbPolyline
 70
0
 90
7
 38
-1.79769313486232e+308
 10
12762.1383918256
 20
2342.10856099473
 10
12761.1888365645
 20
2480.05277198786
 10
12759.4077247151
 20
2697.42525862297
 10
12749.8476068445
 20
2908.81054218253
 10
12747.4664829459
 20
3156.62837662501
 10
12747.4342002862
 20
3178.49254051503
 10
12747.9151004844
 20
3193.63563022623
  0
LWPOLYLINE
  5
2005D
100
AcDbEntity
  8
0
100
AcDbPolyline
 70
0
 90
6
 38
-1.79769313486232e+308
 10
12753.3563971959
 20
1721.60731972754
 10
12754.0454648447
 20
1835.91010353435
 10
12757.5620475553
 20
2003.49742606795
 10
12761.7643583354
 20
2100.77738994732
 10
12763.4530750152
 20
2150.59439270804
 10
12762.1940515761
 20
2333.44380600611
  0
LWPOLYLINE
  5
2005E
100
AcDbEntity
  8
0
100
AcDbPolyline
 70
0
 90
2
 38
0
 10
12838.0549449653
 20
1850.02164558088
 10
13293.2169657249
 20
1926.89706005296
  0
LWPOLYLINE
  5
2005F
100
AcDbEntity
  8
0
100
AcDbPolyline
 70
0
 90
2
 38
0
 10
12772.0458265051
 20
1838.87505810754
 10
12838.0549449653
 20
1850.02164558088
  0
LWPOLYLINE
  5
20060
100
AcDbEntity
  8
0
100
AcDbPolyline
 70
0
 90
2
 38
0
 10
13293.2169657249
 20
1926.89706005296
 10
13308.1682865352
 20
1929.42559344741
  0
LWPOLYLINE
  5
20061
100
AcDbEntity
  8
0
100
AcDbPolyline
 70
0
 90
7
 38
-1.79769313486232e+308
 10
13308.1682865352
 20
1929.42559344741
 10
13710.055025385
 20
1997.24171646964
 10
13894.1373881448
 20
2034.5816151211
 10
13904.6337029256
 20
2036.71363485418
 10
14399.3441991855
 20
2137.02840037132
 10
15094.649078266
 20
2296.56137049617
 10
15129.6223226853
 20
2301.86063099978
  0
LWPOLYLINE
  5
20062
100
AcDbEntity
  8
0
100
AcDbPolyline
 70
0
 90
5
 38
-1.79769313486232e+308
 10
13143.1248962853
 20
4427.68499469617
 10
13187.5202224061
 20
4244.49765424291
 10
13224.6185559046
 20
4083.93453678442
 10
13242.5610314358
 20
3940.04715119721
 10
13247.3433167555
 20
3886.9138913448
  0
LWPOLYLINE
  5
20063
100
AcDbEntity
  8
0
100
AcDbPolyline
 70
0
 90
4
 38
-1.79769313486232e+308
 10
15390.7210751448
 20
1135.09691824904
 10
15157.196160556
 20
1115.99379430991
 10
14969.9846069154
 20
1098.16775666736
 10
14931.6973812461
 20
1094.89529692289
  0
LWPOLYLINE
  5
20064
100
AcDbEntity
  8
0
100
AcDbPolyline
 70
0
 90
2
 38
0
 10
15416.7375533462
 20
1136.62115284288
 10
15390.7210751448
 20
1135.09691824904
  0
LWPOLYLINE
  5
20065
100
AcDbEntity
  8
0
100
AcDbPolyline
 70
0
 90
2
 38
0
 10
15391.8787978545
 20
1114.33181487303
 10
15416.1342016954
 20
1115.54579363624
  0
LWPOLYLINE
  5
20066
100
AcDbEntity
  8
0
100
AcDbPolyline
 70
0
 90
2
 38
-1.79769313486232e+308
 10
15416.1342016954
 20
1115.54579363624
 10
15532.0145180359
 20
1121.3599023901
  0
LWPOLYLINE
  5
20067
100
AcDbEntity
  8
0
100
AcDbPolyline
 70
0
 90
3
 38
-1.79769313486232e+308
 10
15532.0145180359
 20
1142.92009747704
 10
15497.4631084755
 20
1141.80149204796
 10
15416.7375533462
 20
1136.62115284288
  0
LWPOLYLINE
  5
20068
100
AcDbEntity
  8
0
100
AcDbPolyline
 70
0
 90
4
 38
-1.79769313486232e+308
 10
14928.6628119342
 20
1067.48236476723
 10
15195.1104659245
 20
1100.59442385752
 10
15378.0339927852
 20
1113.63277943712
 10
15391.8787978545
 20
1114.33181487303
  0
LWPOLYLINE
  5
20069
100
AcDbEntity
  8
0
100
AcDbPolyline
 70
0
 90
2
 38
-1.79769313486232e+308
 10
8086.62673838559
 20
1267.51038614669
 10
8528.46334784593
 20
1588.18628168479
  0
LWPOLYLINE
  5
2006A
100
AcDbEntity
  8
0
100
AcDbPolyline
 70
0
 90
5
 38
-1.79769313486232e+308
 10
11043.3131338146
 20
3838.50518369116
 10
11130.8770452749
 20
3864.85922435112
 10
11740.0562607154
 20
4043.00635178993
 10
12133.7665829744
 20
4158.09105280973
 10
12364.5719624061
 20
4224.94946605433
  0
LWPOLYLINE
  5
2006B
100
AcDbEntity
  8
0
100
AcDbPolyline
 70
0
 90
2
 38
0
 10
11011.544777536
 20
3828.94836476119
 10
11043.3131338146
 20
3838.50518369116
  0
LWPOLYLINE
  5
2006C
100
AcDbEntity
  8
0
100
AcDbPolyline
 70
0
 90
5
 38
-1.79769313486232e+308
 10
10145.6706086856
 20
3000.68329744786
 10
10150.3037258957
 20
2985.3756318097
 10
10212.3854927153
 20
2777.98555583228
 10
10288.3343285054
 20
2524.23844461935
 10
10297.4469420158
 20
2509.70514075924
  0
LWPOLYLINE
  5
2006D
100
AcDbEntity
  8
0
100
AcDbPolyline
 70
0
 90
2
 38
0
 10
10141.5272972353
 20
3014.39699356304
 10
10145.6706086856
 20
3000.68329744786
  0
LWPOLYLINE
  5
2006E
100
AcDbEntity
  8
0
100
AcDbPolyline
 70
0
 90
9
 38
-1.79769313486232e+308
 10
11179.4880405154
 20
3341.27043537609
 10
11354.517902286
 20
3381.7856167471
 10
11445.5583214362
 20
3420.2575188349
 10
11529.4086146757
 20
3489.76449875254
 10
11632.4236714647
 20
3535.42284209607
 10
11862.3874755346
 20
3617.26448165253
 10
12243.2392834157
 20
3792.62299000286
 10
12305.510293375
 20
3809.50640246505
 10
12398.806045416
 20
3791.95471018087
  0
LWPOLYLINE
  5
2006F
100
AcDbEntity
  8
0
100
AcDbPolyline
 70
0
 90
2
 38
0
 10
11149.1846487347
 20
3334.24280409794
 10
11179.4880405154
 20
3341.27043537609
  0
LWPOLYLINE
  5
20070
100
AcDbEntity
  8
0
100
AcDbPolyline
 70
0
 90
11
 38
-1.79769313486232e+308
 10
12761.451550565
 20
3195.46912858402
 10
12747.9151004844
 20
3193.63563022623
 10
12728.1625700362
 20
3190.96263731225
 10
12632.6326358255
 20
3179.29083235608
 10
12418.9515336559
 20
3154.67127763806
 10
12311.4914896146
 20
3155.23008086998
 10
12135.4274697744
 20
3174.70580523461
 10
12119.2193519149
 20
3176.01654856745
 10
11916.9663086862
 20
3195.34680951294
 10
11801.7851447549
 20
3199.93570679752
 10
11722.1449546453
 20
3190.07807763899
  0
LWPOLYLINE
  5
20071
100
AcDbEntity
  8
0
100
AcDbPolyline
 70
0
 90
2
 38
0
 10
11722.1449546453
 20
3190.07807763899
 10
11700.0291114144
 20
3187.33941948786
  0
LWPOLYLINE
  5
20072
100
AcDbEntity
  8
0
100
AcDbPolyline
 70
0
 90
9
 38
-1.79769313486232e+308
 10
11725.2463156648
 20
3174.2873459491
 10
11794.8632988159
 20
3186.10077880602
 10
11936.0431298159
 20
3184.16942663398
 10
12133.0151764147
 20
3164.8881102209
 10
12315.3297856555
 20
3144.86132350285
 10
12419.8543347262
 20
3142.4291152847
 10
12646.4262339261
 20
3167.79929741984
 10
12747.4342002862
 20
3178.49254051503
 10
12761.9536014658
 20
3180.03247126797
  0
LWPOLYLINE
  5
20073
100
AcDbEntity
  8
0
100
AcDbPolyline
 70
0
 90
2
 38
0
 10
11704.326043756
 20
3170.72851121938
 10
11725.2463156648
 20
3174.2873459491
  0
LWPOLYLINE
  5
20074
100
AcDbEntity
  8
0
100
AcDbPolyline
 70
0
 90
10
 38
-1.79769313486232e+308
 10
10297.4469420158
 20
2509.70514075924
 10
10482.1426751644
 20
2052.40510510281
 10
10583.9721793749
 20
1961.94638863439
 10
10714.9495790445
 20
1928.14458995778
 10
10785.2556298461
 20
1909.99555240106
 10
10927.2236028455
 20
1874.57043615123
 10
10969.7443087448
 20
1863.95811227243
 10
11112.0417874355
 20
1830.80672698468
 10
11123.6646554649
 20
1828.03231400717
 10
11327.2501930047
 20
1779.52073891088
  0
LWPOLYLINE
  5
20075
100
AcDbEntity
  8
0
100
AcDbPolyline
 70
0
 90
2
 38
0
 10
11327.2501930047
 20
1779.52073891088
 10
11350.9645841357
 20
1773.87151682098
  0
LWPOLYLINE
  5
20076
100
AcDbEntity
  8
0
100
AcDbPolyline
 70
0
 90
3
 38
-1.79769313486232e+308
 10
11320.5220429853
 20
2462.01881995425
 10
11562.3035242047
 20
2467.77778535988
 10
11573.8362234544
 20
2463.89469997119
  0
LWPOLYLINE
  5
20077
100
AcDbEntity
  8
0
100
AcDbPolyline
 70
0
 90
2
 38
0
 10
11573.8362234544
 20
2463.89469997119
 10
11598.7651102256
 20
2455.504098095
  0
LWPOLYLINE
  5
20078
100
AcDbEntity
  8
0
100
AcDbPolyline
 70
0
 90
4
 38
-1.79769313486232e+308
 10
11906.5913321462
 20
1710.8676692592
 10
11925.1761211261
 20
2010.1136244447
 10
11950.5013052851
 20
2269.94536594441
 10
11950.7373026062
 20
2295.63309889985
  0
LWPOLYLINE
  5
20079
100
AcDbEntity
  8
0
100
AcDbPolyline
 70
0
 90
2
 38
0
 10
11950.7373026062
 20
2295.63309889985
 10
11950.8497352854
 20
2307.88989436906
  0
LWPOLYLINE
  5
2007A
100
AcDbEntity
  8
0
100
AcDbPolyline
 70
0
 90
8
 38
-1.79769313486232e+308
 10
12418.9515336559
 20
3154.67127763806
 10
12419.8543347262
 20
3142.4291152847
 10
12420.869568485
 20
3135.32305275602
 10
12428.1320520651
 20
3084.50690310588
 10
12444.8834090356
 20
2755.38948033098
 10
12439.9864646338
 20
2644.49290247587
 10
12390.3179342348
 20
2306.14664773596
 10
12386.5330715545
 20
2285.34486721503
  0
LWPOLYLINE
  5
2007B
100
AcDbEntity
  8
0
100
AcDbPolyline
 70
0
 90
2
 38
0
 10
12386.5330715545
 20
2285.34486721503
 10
12384.6462061845
 20
2275.03990668291
  0
LWPOLYLINE
  5
2007C
100
AcDbEntity
  8
0
100
AcDbPolyline
 70
0
 90
6
 38
-1.79769313486232e+308
 10
12384.6462061845
 20
2275.03990668291
 10
12366.8707098954
 20
2177.47922741436
 10
12339.9614493858
 20
2029.85280693416
 10
12301.3692083147
 20
1762.27053558966
 10
12281.2014561661
 20
1622.44163091108
 10
12279.7598687552
 20
1594.67996000126
  0
LWPOLYLINE
  5
2007D
100
AcDbEntity
  8
0
100
AcDbPolyline
 70
0
 90
2
 38
0
 10
12279.7598687552
 20
1594.67996000126
 10
12278.7980683551
 20
1576.21598488232
  0
LWPOLYLINE
  5
2007E
100
AcDbEntity
  8
0
100
AcDbPolyline
 70
0
 90
3
 38
-1.79769313486232e+308
 10
10721.9660465449
 20
3234.23016986623
 10
10725.6496084959
 20
3220.38619149244
 10
10726.5768998556
 20
3216.87369640404
  0
LWPOLYLINE
  5
2007F
100
AcDbEntity
  8
0
100
AcDbPolyline
 70
0
 90
2
 38
0
 10
10726.5768998556
 20
3216.87369640404
 10
10729.5123948261
 20
3205.82247644989
  0
LWPOLYLINE
  5
20080
100
AcDbEntity
  8
0
100
AcDbPolyline
 70
0
 90
4
 38
-1.79769313486232e+308
 10
10935.3621708147
 20
3258.55373652
 10
10983.8996951852
 20
3075.27640382294
 10
11031.9006596256
 20
2894.00641491497
 10
11035.8079737455
 20
2879.27569452813
  0
LWPOLYLINE
  5
20081
100
AcDbEntity
  8
0
100
AcDbPolyline
 70
0
 90
2
 38
0
 10
10931.7231366646
 20
3272.28316217288
 10
10935.3621708147
 20
3258.55373652
  0
LWPOLYLINE
  5
20082
100
AcDbEntity
  8
0
100
AcDbPolyline
 70
0
 90
14
 38
-1.79769313486232e+308
 10
8549.96916027482
 20
1604.67410303792
 10
8571.66644222591
 20
1621.29197416408
 10
8607.96327539462
 20
1640.68810070911
 10
9283.13157178576
 20
1989.65736472001
 10
9338.39279340509
 20
2014.50768843619
 10
9890.90370886515
 20
2299.7955156141
 10
10297.4469420158
 20
2509.70514075924
 10
10848.9114542652
 20
2785.73904468212
 10
11035.8079737455
 20
2879.27569452813
 10
11265.7495139364
 20
2994.3498435081
 10
11320.3161019247
 20
3023.52701953752
 10
11600.2656969551
 20
3153.06310902303
 10
11692.9503049955
 20
3168.80488678487
 10
11704.326043756
 20
3170.72851121938
  0
LWPOLYLINE
  5
20083
100
AcDbEntity
  8
0
100
AcDbPolyline
 70
0
 90
2
 38
0
 10
8528.46334784593
 20
1588.18628168479
 10
8549.96916027482
 20
1604.67410303792
  0
LWPOLYLINE
  5
20084
100
AcDbEntity
  8
0
100
AcDbPolyline
 70
0
 90
15
 38
-1.79769313486232e+308
 10
11700.0291114144
 20
3187.33941948786
 10
11690.1495066055
 20
3186.11622962728
 10
11583.2861350246
 20
3162.35160533478
 10
11323.4987261661
 20
3038.93516034307
 10
11313.2829364959
 20
3033.922716395
 10
11307.3985882152
 20
3030.99610927422
 10
11031.9006596256
 20
2894.00641491497
 10
10838.0244080659
 20
2797.60490460601
 10
10288.3343285054
 20
2524.23844461935
 10
9888.4257369947
 20
2318.79098490486
 10
9323.8722790249
 20
2028.73787446599
 10
9281.22244251448
 20
2005.42216137471
 10
8625.739884875
 20
1667.69544745935
 10
8558.04872891608
 20
1625.97042119782
 10
8536.57519914511
 20
1609.98466144223
  0
LWPOLYLINE
  5
20085
100
AcDbEntity
  8
0
100
AcDbPolyline
 70
0
 90
2
 38
0
 10
8536.57519914511
 20
1609.98466144223
 10
8515.89537733536
 20
1594.59241633629
  0
LWPOLYLINE
  5
20086
100
AcDbEntity
  8
0
100
AcDbPolyline
 70
0
 90
2
 38
0
 10
9294.41236834109
 20
2007.04264718867
 10
9457.22065226329
 20
1578.50291276386
  0
LWPOLYLINE
  5
20087
100
AcDbEntity
  8
0
100
AcDbPolyline
 70
0
 90
2
 38
0
 10
10928.8640428714
 20
2424.54862482513
 10
11341.3608549923
 20
2464.0298767029
  0
LWPOLYLINE
  5
20088
100
AcDbEntity
  8
0
100
AcDbPolyline
 70
0
 90
2
 38
0
 10
11096.9703385131
 20
2462.28132525308
 10
11121.8865324717
 20
2242.48935566538
  0
LWPOLYLINE
  5
20089
100
AcDbEntity
  8
0
100
AcDbPolyline
 70
0
 90
2
 38
0
 10
10957.4777276752
 20
2256.80073831687
 10
11162.9887027253
 20
2284.80132972474
  0
LWPOLYLINE
  5
2008A
100
AcDbEntity
  8
0
100
AcDbPolyline
 70
0
 90
2
 38
0
 10
10953.7411217315
 20
2296.00153555313
 10
11164.8570675882
 20
2314.66859649171
  0
LWPOLYLINE
  5
2008B
100
AcDbEntity
  8
0
100
AcDbPolyline
 70
0
 90
2
 38
0
 10
10951.2501336236
 20
2327.1132525595
 10
11172.3301556938
 20
2347.64698885719
  0
LWPOLYLINE
  5
2008C
100
AcDbEntity
  8
0
100
AcDbPolyline
 70
0
 90
2
 38
0
 10
10952.4956276775
 20
2356.98051932648
 10
11189.1446967678
 20
2386.84778609345
  0
LWPOLYLINE
  5
2008D
100
AcDbEntity
  8
0
100
AcDbPolyline
 70
0
 90
2
 38
0
 10
10950.0046395696
 20
2391.82568950024
 10
11336.0647411582
 20
2427.77219635478
  0
LWPOLYLINE
  5
2008E
100
AcDbEntity
  8
0
100
AcDbPolyline
 70
0
 90
2
 38
0
 10
10956.8549806483
 20
2401.15916874494
 10
10959.9883971143
 20
2248.99820845493
  0
LWPOLYLINE
  5
2008F
100
AcDbEntity
  8
0
100
AcDbPolyline
 70
0
 90
2
 38
0
 10
11034.6640714172
 20
2403.50023505107
 10
11036.2330077254
 20
2247.13788494525
  0
LWPOLYLINE
  5
20090
100
AcDbEntity
  8
0
100
AcDbPolyline
 70
0
 90
2
 38
0
 10
11167.2512582055
 20
2354.14037181994
 10
11137.8349711908
 20
2245.97990181723
  0
LWPOLYLINE
  5
20091
100
AcDbEntity
  8
0
100
AcDbPolyline
 70
0
 90
2
 38
0
 10
11211.9640243704
 20
2423.50410416853
 10
11125.751747869
 20
2154.08503265295
  0
LWPOLYLINE
  5
20092
100
AcDbEntity
  8
0
100
AcDbPolyline
 70
0
 90
2
 38
0
 10
11288.861708588
 20
2435.46893948253
 10
11263.4294676496
 20
2375.8471512757
  0
LWPOLYLINE
  5
20093
100
AcDbEntity
  8
0
100
AcDbPolyline
 70
0
 90
2
 38
0
 10
11196.474197803
 20
2399.98694518033
 10
11276.1280110809
 20
2388.44691540825
  0
LWPOLYLINE
  5
20094
100
AcDbEntity
  8
0
100
AcDbPolyline
 70
0
 90
2
 38
0
 10
11183.7296074836
 20
2364.17301552161
 10
11250.6388304422
 20
2349.84744365812
  0
LWPOLYLINE
  5
20095
100
AcDbEntity
  8
0
100
AcDbPolyline
 70
0
 90
2
 38
0
 10
11252.6301107886
 20
2401.97661078497
 10
11183.1384248557
 20
2138.36097820175
  0
LWPOLYLINE
  5
20096
100
AcDbEntity
  8
0
100
AcDbPolyline
 70
0
 90
2
 38
0
 10
11171.5102240089
 20
2324.93446576101
 10
11250.6698997134
 20
2306.55933377255
  0
LWPOLYLINE
  5
20097
100
AcDbEntity
  8
0
100
AcDbPolyline
 70
0
 90
2
 38
0
 10
11155.1185221009
 20
2276.59991396447
 10
11230.2802881499
 20
2264.21672740714
  0
LWPOLYLINE
  5
20098
100
AcDbEntity
  8
0
100
AcDbPolyline
 70
0
 90
2
 38
0
 10
11142.4118090604
 20
2236.94260316381
 10
11217.6979759765
 20
2228.64042863096
  0
LWPOLYLINE
  5
20099
100
AcDbEntity
  8
0
100
AcDbPolyline
 70
0
 90
2
 38
0
 10
11130.5775112547
 20
2200.46341972805
 10
11212.4103821083
 20
2192.91598833456
  0
LWPOLYLINE
  5
2009A
100
AcDbEntity
  8
0
100
AcDbPolyline
 70
0
 90
2
 38
0
 10
11120.9499981831
 20
2165.71578117757
 10
11232.3369253697
 20
2130.73076786749
  0
LWPOLYLINE
  5
2009B
100
AcDbEntity
  8
0
100
AcDbPolyline
 70
0
 90
2
 38
0
 10
11001.982540152
 20
2270.35189679766
 10
11003.2239494013
 20
2227.35182279321
  0
LWPOLYLINE
  5
2009C
100
AcDbEntity
  8
0
100
AcDbPolyline
 70
0
 90
2
 38
0
 10
10956.4633345355
 20
2229.83262978647
 10
11167.5071155111
 20
2256.70761200851
  0
LWPOLYLINE
  5
2009D
100
AcDbEntity
  8
0
100
AcDbPolyline
 70
0
 90
2
 38
0
 10
11052.4675065477
 20
2276.55381183162
 10
11059.9162096077
 20
2166.57297350102
  0
LWPOLYLINE
  5
2009E
100
AcDbEntity
  8
0
100
AcDbPolyline
 70
0
 90
2
 38
0
 10
10947.7732222261
 20
2164.50565141484
 10
11128.1950799234
 20
2183.11144774132
  0
LWPOLYLINE
  5
2009F
100
AcDbEntity
  8
0
100
AcDbPolyline
 70
0
 90
2
 38
0
 10
10964.3257168967
 20
2201.71719284321
 10
11162.1275516487
 20
2222.80374493836
  0
LWPOLYLINE
  5
200A0
100
AcDbEntity
  8
0
100
AcDbPolyline
 70
0
 90
2
 38
0
 10
11034.6737264098
 20
2219.08258567307
 10
11027.059403091
 20
2057.35271791328
  0
LWPOLYLINE
  5
200A1
100
AcDbEntity
  8
0
100
AcDbPolyline
 70
0
 90
2
 38
0
 10
10959.5717470462
 20
2094.72802436245
 10
11115.8269105361
 20
2122.51265289021
  0
LWPOLYLINE
  5
200A2
100
AcDbEntity
  8
0
100
AcDbPolyline
 70
0
 90
2
 38
0
 10
10953.6128836237
 20
2135.08188716588
 10
11133.1769323572
 20
2157.41837053179
  0
LWPOLYLINE
  5
200A3
100
AcDbEntity
  8
0
100
AcDbPolyline
 70
0
 90
2
 38
0
 10
10959.2475621001
 20
2055.67977396133
 10
11133.800174512
 20
2084.11992359363
  0
LWPOLYLINE
  5
200A4
100
AcDbEntity
  8
0
100
AcDbPolyline
 70
0
 90
2
 38
0
 10
11140.9162754528
 20
2098.75827281621
 10
11222.541563964
 20
2092.06644578383
  0
LWPOLYLINE
  5
200A5
100
AcDbEntity
  8
0
100
AcDbPolyline
 70
0
 90
2
 38
0
 10
11002.6707678343
 20
2073.07687481366
 10
11017.797913267
 20
1976.09335467455
  0
LWPOLYLINE
  5
200A6
100
AcDbEntity
  8
0
100
AcDbPolyline
 70
0
 90
2
 38
0
 10
10953.0875529971
 20
2023.53552285289
 10
11029.5633883044
 20
2027.31410488587
  0
LWPOLYLINE
  5
200A7
100
AcDbEntity
  8
0
100
AcDbPolyline
 70
0
 90
2
 38
0
 10
10931.6574303008
 20
1978.19258968159
 10
11031.2440997201
 20
1990.78784605003
  0
LWPOLYLINE
  5
200A8
100
AcDbEntity
  8
0
100
AcDbPolyline
 70
0
 90
2
 38
0
 10
10973.6771962036
 20
1995.82593835249
 10
10952.2457119058
 20
1856.34178398148
  0
LWPOLYLINE
  5
200A9
100
AcDbEntity
  8
0
100
AcDbPolyline
 70
0
 90
2
 38
0
 10
11023.2590494393
 20
1845.0060891071
 10
11035.0245244767
 20
1890.76885903488
  0
LWPOLYLINE
  5
200AA
100
AcDbEntity
  8
0
100
AcDbPolyline
 70
0
 90
2
 38
0
 10
10802.0897805779
 20
1885.85560106327
 10
10835.5791128962
 20
2054.46462418859
  0
LWPOLYLINE
  5
200AB
100
AcDbEntity
  8
0
100
AcDbPolyline
 70
0
 90
2
 38
0
 10
10731.6316051228
 20
2019.26528718534
 10
10932.5678465965
 20
2060.98300475226
  0
LWPOLYLINE
  5
200AC
100
AcDbEntity
  8
0
100
AcDbPolyline
 70
0
 90
2
 38
0
 10
10919.085144466
 20
2065.32859179472
 10
10903.8626869262
 20
1892.37398162694
  0
LWPOLYLINE
  5
200AD
100
AcDbEntity
  8
0
100
AcDbPolyline
 70
0
 90
2
 38
0
 10
10685.0945404718
 20
1957.12335149856
 10
10938.7008712328
 20
1888.79988816544
  0
LWPOLYLINE
  5
200AE
100
AcDbEntity
  8
0
100
AcDbPolyline
 70
0
 90
2
 38
0
 10
10684.9774427402
 20
1928.75845079199
 10
10588.8893465609
 20
2342.48775039452
  0
LWPOLYLINE
  5
200AF
100
AcDbEntity
  8
0
100
AcDbPolyline
 70
0
 90
2
 38
0
 10
10369.5773021863
 20
2257.11366934973
 10
10930.6743539963
 20
2360.2740044727
  0
LWPOLYLINE
  5
200B0
100
AcDbEntity
  8
0
100
AcDbPolyline
 70
0
 90
2
 38
0
 10
10869.437810575
 20
2388.02057312857
 10
10918.5760292758
 20
2086.17167340383
  0
LWPOLYLINE
  5
200B1
100
AcDbEntity
  8
0
100
AcDbPolyline
 70
0
 90
2
 38
0
 10
10541.1884839478
 20
2015.73806422557
 10
10926.4085801853
 20
2096.13198798151
  0
LWPOLYLINE
  5
200B2
100
AcDbEntity
  8
0
100
AcDbPolyline
 70
0
 90
2
 38
0
 10
10720.6256561751
 20
2366.48314217414
 10
10787.5585214875
 20
2049.8877068884
  0
LWPOLYLINE
  5
200B3
100
AcDbEntity
  8
0
100
AcDbPolyline
 70
0
 90
2
 38
0
 10
10603.1370211873
 20
2211.38696153476
 10
10934.9532486948
 20
2263.32280705118
  0
LWPOLYLINE
  5
200B4
100
AcDbEntity
  8
0
100
AcDbPolyline
 70
0
 90
2
 38
0
 10
10396.641979577
 20
2308.14422265076
 10
10459.3025106346
 20
2169.41137937143
  0
LWPOLYLINE
  5
200B5
100
AcDbEntity
  8
0
100
AcDbPolyline
 70
0
 90
2
 38
0
 10
10475.6797300536
 20
2147.35637513887
 10
10567.5344832947
 20
1992.97165285855
  0
LWPOLYLINE
  5
200B6
100
AcDbEntity
  8
0
100
AcDbPolyline
 70
0
 90
2
 38
0
 10
10465.7109501258
 20
2133.127412856
 10
10641.5877819164
 20
2186.48617509055
  0
LWPOLYLINE
  5
200B7
100
AcDbEntity
  8
0
100
AcDbPolyline
 70
0
 90
2
 38
0
 10
10911.20790827
 20
2595.65151721469
 10
11337.8283654961
 20
2636.85196885103
  0
LWPOLYLINE
  5
200B8
100
AcDbEntity
  8
0
100
AcDbPolyline
 70
0
 90
2
 38
0
 10
11178.2607968299
 20
2436.07036741787
 10
11171.9343009944
 20
2590.03807029426
  0
LWPOLYLINE
  5
200B9
100
AcDbEntity
  8
0
100
AcDbPolyline
 70
0
 90
2
 38
0
 10
11094.6593293711
 20
2512.3769272999
 10
11284.4572989848
 20
2509.66781229985
  0
LWPOLYLINE
  5
200BA
100
AcDbEntity
  8
0
100
AcDbPolyline
 70
0
 90
2
 38
0
 10
11277.6788752234
 20
2480.31914330285
 10
11272.7079156018
 20
2598.16536406982
  0
LWPOLYLINE
  5
200BB
100
AcDbEntity
  8
0
100
AcDbPolyline
 70
0
 90
2
 38
0
 10
11253.2762526055
 20
2577.39553362736
 10
11333.2625442206
 20
2580.55614218178
  0
LWPOLYLINE
  5
200BC
100
AcDbEntity
  8
0
100
AcDbPolyline
 70
0
 90
2
 38
0
 10
11157.9254017637
 20
2528.18007252124
 10
11288.0724748285
 20
2536.3073662968
  0
LWPOLYLINE
  5
200BD
100
AcDbEntity
  8
0
100
AcDbPolyline
 70
0
 90
2
 38
0
 10
11098.2745052148
 20
2480.77063685723
 10
11293.0434344501
 20
2488.89798185738
  0
LWPOLYLINE
  5
200BE
100
AcDbEntity
  8
0
100
AcDbPolyline
 70
0
 90
2
 38
0
 10
11112.2834044456
 20
2435.61882263889
 10
11105.9569086101
 20
2538.56498774247
  0
LWPOLYLINE
  5
200BF
100
AcDbEntity
  8
0
100
AcDbPolyline
 70
0
 90
2
 38
0
 10
11019.9536998346
 20
2423.16069450339
 10
11009.138622665
 20
2480.88737770252
  0
LWPOLYLINE
  5
200C0
100
AcDbEntity
  8
0
100
AcDbPolyline
 70
0
 90
2
 38
0
 10
10963.6013448828
 20
2444.77265723925
 10
11041.299403236
 20
2466.66901891021
  0
LWPOLYLINE
  5
200C1
100
AcDbEntity
  8
0
100
AcDbPolyline
 70
0
 90
2
 38
0
 10
11394.2364223286
 20
2455.66408122673
 10
11391.0242805378
 20
2511.14082666901
  0
LWPOLYLINE
  5
200C2
100
AcDbEntity
  8
0
100
AcDbPolyline
 70
0
 90
2
 38
0
 10
11306.5917410179
 20
2621.63575500547
 10
11622.4290794449
 20
2585.02979070438
  0
LWPOLYLINE
  5
200C3
100
AcDbEntity
  8
0
100
AcDbPolyline
 70
0
 90
2
 38
0
 10
11495.7800844921
 20
2462.15572255336
 10
11503.122087505
 20
2507.54578234935
  0
LWPOLYLINE
  5
200C4
100
AcDbEntity
  8
0
100
AcDbPolyline
 70
0
 90
2
 38
0
 10
11354.9061907932
 20
2629.04436775449
 10
11353.9883475801
 20
2476.82726531159
  0
LWPOLYLINE
  5
200C5
100
AcDbEntity
  8
0
100
AcDbPolyline
 70
0
 90
2
 38
0
 10
11312.6898591423
 20
2497.45909670306
 10
11438.8798705975
 20
2502.50241391391
  0
LWPOLYLINE
  5
200C6
100
AcDbEntity
  8
0
100
AcDbPolyline
 70
0
 90
2
 38
0
 10
11460.9057558541
 20
2480.95361110005
 10
11476.0483740314
 20
2825.3985252471
  0
LWPOLYLINE
  5
200C7
100
AcDbEntity
  8
0
100
AcDbPolyline
 70
0
 90
2
 38
0
 10
11459.8250155852
 20
2792.69899956077
 10
11655.4200656033
 20
2765.44044759342
  0
LWPOLYLINE
  5
200C8
100
AcDbEntity
  8
0
100
AcDbPolyline
 70
0
 90
2
 38
0
 10
11342.8378213063
 20
2809.79331184946
 10
11485.7193345701
 20
2799.6291233954
  0
LWPOLYLINE
  5
200C9
100
AcDbEntity
  8
0
100
AcDbPolyline
 70
0
 90
2
 38
0
 10
11391.8521342679
 20
2840.28592843625
 10
11388.6153598676
 20
2764.05441258157
  0
LWPOLYLINE
  5
200CA
100
AcDbEntity
  8
0
100
AcDbPolyline
 70
0
 90
2
 38
0
 10
11338.213822511
 20
2775.14264145173
 10
11482.4825601697
 20
2772.37057142804
  0
LWPOLYLINE
  5
200CB
100
AcDbEntity
  8
0
100
AcDbPolyline
 70
0
 90
2
 38
0
 10
11350.698594502
 20
2834.27984501771
 10
11350.698594502
 20
2695.21501515728
  0
LWPOLYLINE
  5
200CC
100
AcDbEntity
  8
0
100
AcDbPolyline
 70
0
 90
2
 38
0
 10
11310.4698297388
 20
2710.46134906296
 10
11488.0313339677
 20
2713.23341908665
  0
LWPOLYLINE
  5
200CD
100
AcDbEntity
  8
0
100
AcDbPolyline
 70
0
 90
2
 38
0
 10
11460.7497905879
 20
2721.54957793312
 10
11560.6280902984
 20
2717.85346749335
  0
LWPOLYLINE
  5
200CE
100
AcDbEntity
  8
0
100
AcDbPolyline
 70
0
 90
2
 38
0
 10
11546.7560939124
 20
2706.76528984777
 10
11556.9289902877
 20
2843.05799845994
  0
LWPOLYLINE
  5
200CF
100
AcDbEntity
  8
0
100
AcDbPolyline
 70
0
 90
2
 38
0
 10
11508.3750224252
 20
2727.90506429407
 10
11506.9879218121
 20
2584.68218062269
  0
LWPOLYLINE
  5
200D0
100
AcDbEntity
  8
0
100
AcDbPolyline
 70
0
 90
2
 38
0
 10
11458.4359344609
 20
2692.33035348025
 10
11654.0309844789
 20
2684.93818382528
  0
LWPOLYLINE
  5
200D1
100
AcDbEntity
  8
0
100
AcDbPolyline
 70
0
 90
2
 38
0
 10
11535.1942401946
 20
2759.32167007237
 10
11661.8918814566
 20
2739.91728235573
  0
LWPOLYLINE
  5
200D2
100
AcDbEntity
  8
0
100
AcDbPolyline
 70
0
 90
2
 38
0
 10
11623.5126666987
 20
2755.16361626142
 10
11611.9526697103
 20
2675.69798456271
  0
LWPOLYLINE
  5
200D3
100
AcDbEntity
  8
0
100
AcDbPolyline
 70
0
 90
2
 38
0
 10
11463.0599332562
 20
2672.00192534753
 10
11523.1719175959
 20
2673.84995495512
  0
LWPOLYLINE
  5
200D4
100
AcDbEntity
  8
0
100
AcDbPolyline
 70
0
 90
2
 38
0
 10
11446.8759374725
 20
2629.49709069908
 10
11606.4038959123
 20
2611.47873799429
  0
LWPOLYLINE
  5
200D5
100
AcDbEntity
  8
0
100
AcDbPolyline
 70
0
 90
2
 38
0
 10
11334.9750675993
 20
2725.13299427038
 10
11482.9430290507
 20
2733.44915311685
  0
LWPOLYLINE
  5
200D6
100
AcDbEntity
  8
0
100
AcDbPolyline
 70
0
 90
2
 38
0
 10
11452.8183378946
 20
2492.65218098455
 10
11556.1891455292
 20
2496.39096150952
  0
LWPOLYLINE
  5
200D7
100
AcDbEntity
  8
0
100
AcDbPolyline
 70
0
 90
2
 38
0
 10
11543.5601675579
 20
2487.0440614217
 10
11587.0599943236
 20
2601.54377958967
  0
LWPOLYLINE
  5
200D8
100
AcDbEntity
  8
0
100
AcDbPolyline
 70
0
 90
2
 38
0
 10
11305.6547116015
 20
2866.2581284479
 10
12036.6855758702
 20
2699.30012514913
  0
LWPOLYLINE
  5
200D9
100
AcDbEntity
  8
0
100
AcDbPolyline
 70
0
 90
2
 38
0
 10
11997.4396398476
 20
2710.7770462238
 10
12215.6853026605
 20
2626.61304371715
  0
LWPOLYLINE
  5
200DA
100
AcDbEntity
  8
0
100
AcDbPolyline
 70
0
 90
2
 38
0
 10
12169.4255095937
 20
2516.32557497852
 10
12201.2564112487
 20
2646.91503996037
  0
LWPOLYLINE
  5
200DB
100
AcDbEntity
  8
0
100
AcDbPolyline
 70
0
 90
2
 38
0
 10
12046.9244480288
 20
2702.81310767231
 10
12010.2706299732
 20
2533.67324409952
  0
LWPOLYLINE
  5
200DC
100
AcDbEntity
  8
0
100
AcDbPolyline
 70
0
 90
2
 38
0
 10
11948.5378446852
 20
2621.37538040405
 10
12122.1613497258
 20
2570.77798225345
  0
LWPOLYLINE
  5
200DD
100
AcDbEntity
  8
0
100
AcDbPolyline
 70
0
 90
2
 38
0
 10
12111.5510079135
 20
2602.10018110858
 10
12096.1177497006
 20
2537.52830444845
  0
LWPOLYLINE
  5
200DE
100
AcDbEntity
  8
0
100
AcDbPolyline
 70
0
 90
2
 38
0
 10
12051.2651099239
 20
2564.03170347971
 10
12289.9973055729
 20
2501.38730576945
  0
LWPOLYLINE
  5
200DF
100
AcDbEntity
  8
0
100
AcDbPolyline
 70
0
 90
2
 38
0
 10
12284.6921346668
 20
2590.53510251098
 10
12272.1526510506
 20
2477.29330665012
  0
LWPOLYLINE
  5
200E0
100
AcDbEntity
  8
0
100
AcDbPolyline
 70
0
 90
2
 38
0
 10
12087.9189279796
 20
2635.83177987565
 10
12296.267109272
 20
2578.00618198925
  0
LWPOLYLINE
  5
200E1
100
AcDbEntity
  8
0
100
AcDbPolyline
 70
0
 90
2
 38
0
 10
12064.2868480456
 20
2603.06397180812
 10
12303.0190436946
 20
2551.02091322052
  0
LWPOLYLINE
  5
200E2
100
AcDbEntity
  8
0
100
AcDbPolyline
 70
0
 90
2
 38
0
 10
12139.0413714553
 20
2562.10417330525
 10
12298.1962510759
 20
2527.40878383865
  0
LWPOLYLINE
  5
200E3
100
AcDbEntity
  8
0
100
AcDbPolyline
 70
0
 90
2
 38
0
 10
11956.7366664062
 20
2562.10417330525
 10
12286.1390219652
 20
2479.70270656205
  0
LWPOLYLINE
  5
200E4
100
AcDbEntity
  8
0
100
AcDbPolyline
 70
0
 90
2
 38
0
 10
12275.3803893681
 20
2566.28758328925
 10
12381.1833886808
 20
2557.28988124548
  0
LWPOLYLINE
  5
200E5
100
AcDbEntity
  8
0
100
AcDbPolyline
 70
0
 90
2
 38
0
 10
11710.9464235543
 20
2783.64279903287
 10
11457.2088839186
 20
2050.39493279894
  0
LWPOLYLINE
  5
200E6
100
AcDbEntity
  8
0
100
AcDbPolyline
 70
0
 90
2
 38
0
 10
11315.7461634296
 20
1638.24511761389
 10
11427.1908928096
 20
2013.62320571796
  0
LWPOLYLINE
  5
200E7
100
AcDbEntity
  8
0
100
AcDbPolyline
 70
0
 90
2
 38
0
 10
11416.4003244676
 20
1984.60165696582
 10
11467.8920095217
 20
2073.77219742623
  0
LWPOLYLINE
  5
200E8
100
AcDbEntity
  8
0
100
AcDbPolyline
 70
0
 90
2
 38
0
 10
11459.3691266366
 20
2092.30433278933
 10
11818.0299472149
 20
1933.98356408004
  0
LWPOLYLINE
  5
200E9
100
AcDbEntity
  8
0
100
AcDbPolyline
 70
0
 90
2
 38
0
 10
11778.3403766575
 20
1941.20034073181
 10
12088.3069844156
 20
1967.78431604638
  0
LWPOLYLINE
  5
200EA
100
AcDbEntity
  8
0
100
AcDbPolyline
 70
0
 90
2
 38
0
 10
12029.3511235567
 20
1968.6559024802
 10
12339.3466962929
 20
1948.4505158176
  0
LWPOLYLINE
  5
200EB
100
AcDbEntity
  8
0
100
AcDbPolyline
 70
0
 90
2
 38
0
 10
12164.5650872601
 20
1944.19989916882
 10
12223.6647827532
 20
2294.83120729843
  0
LWPOLYLINE
  5
200EC
100
AcDbEntity
  8
0
100
AcDbPolyline
 70
0
 90
2
 38
0
 10
12214.8449469527
 20
2374.14331889475
 10
12222.3581404124
 20
2269.0465917429
  0
LWPOLYLINE
  5
200ED
100
AcDbEntity
  8
0
100
AcDbPolyline
 70
0
 90
2
 38
0
 10
12126.5598177951
 20
2372.87894228903
 10
12274.5155248327
 20
2364.49137636124
  0
LWPOLYLINE
  5
200EE
100
AcDbEntity
  8
0
100
AcDbPolyline
 70
0
 90
2
 38
0
 10
12260.2256405589
 20
2272.24915323822
 10
12268.2196031407
 20
2489.2563491034
  0
LWPOLYLINE
  5
200EF
100
AcDbEntity
  8
0
100
AcDbPolyline
 70
0
 90
2
 38
0
 10
11913.3983750946
 20
2316.74954431938
 10
12310.4228139041
 20
2270.79965095682
  0
LWPOLYLINE
  5
200F0
100
AcDbEntity
  8
0
100
AcDbPolyline
 70
0
 90
2
 38
0
 10
12267.6760765663
 20
2271.02662712421
 10
12776.0990780664
 20
2348.69355849748
  0
LWPOLYLINE
  5
200F1
100
AcDbEntity
  8
0
100
AcDbPolyline
 70
0
 90
2
 38
0
 10
11819.6023494179
 20
2257.91395115142
 10
11927.5350173053
 20
2318.95635096973
  0
LWPOLYLINE
  5
200F2
100
AcDbEntity
  8
0
100
AcDbPolyline
 70
0
 90
2
 38
0
 10
11844.4077585248
 20
2280.80883379532
 10
11773.0712263009
 20
2100.16623195345
  0
LWPOLYLINE
  5
200F3
100
AcDbEntity
  8
0
100
AcDbPolyline
 70
0
 90
2
 38
0
 10
11778.900613796
 20
2133.11501650472
 10
11770.6921370824
 20
2021.02731070288
  0
LWPOLYLINE
  5
200F4
100
AcDbEntity
  8
0
100
AcDbPolyline
 70
0
 90
2
 38
0
 10
11777.2538186367
 20
2049.36342318871
 10
11645.9134875038
 20
1688.28521808148
  0
LWPOLYLINE
  5
200F5
100
AcDbEntity
  8
0
100
AcDbPolyline
 70
0
 90
2
 38
0
 10
11453.471659065
 20
1720.82686957509
 10
11522.2909614061
 20
1902.42716639003
  0
LWPOLYLINE
  5
200F6
100
AcDbEntity
  8
0
100
AcDbPolyline
 70
0
 90
2
 38
0
 10
11509.3266581126
 20
1896.75137914107
 10
11643.2864630249
 20
1824.85033907419
  0
LWPOLYLINE
  5
200F7
100
AcDbEntity
  8
0
100
AcDbPolyline
 70
0
 90
2
 38
0
 10
11626.3706683099
 20
1830.29899648198
 10
11708.0520300477
 20
1820.97873318203
  0
LWPOLYLINE
  5
200F8
100
AcDbEntity
  8
0
100
AcDbPolyline
 70
0
 90
2
 38
0
 10
11582.8078365279
 20
1696.93059738109
 10
11666.2398464872
 20
2013.03309841748
  0
LWPOLYLINE
  5
200F9
100
AcDbEntity
  8
0
100
AcDbPolyline
 70
0
 90
2
 38
0
 10
11439.4799655263
 20
2046.17689499071
 10
11739.0513645138
 20
1910.78430491014
  0
LWPOLYLINE
  5
200FA
100
AcDbEntity
  8
0
100
AcDbPolyline
 70
0
 90
2
 38
0
 10
11372.7908268877
 20
1852.38550383865
 10
11484.0980384939
 20
1768.70034881853
  0
LWPOLYLINE
  5
200FB
100
AcDbEntity
  8
0
100
AcDbPolyline
 70
0
 90
2
 38
0
 10
11482.5550963967
 20
1817.59012396836
 10
11611.9978501247
 20
1746.96032460253
  0
LWPOLYLINE
  5
200FC
100
AcDbEntity
  8
0
100
AcDbPolyline
 70
0
 90
2
 38
0
 10
11394.7444234812
 20
1915.36537140228
 10
11620.0471432413
 20
1806.71493817656
  0
LWPOLYLINE
  5
200FD
100
AcDbEntity
  8
0
100
AcDbPolyline
 70
0
 90
2
 38
0
 10
11387.2817330601
 20
1897.96709238433
 10
11616.8488650297
 20
1775.46906396359
  0
LWPOLYLINE
  5
200FE
100
AcDbEntity
  8
0
100
AcDbPolyline
 70
0
 90
2
 38
0
 10
11381.2404308541
 20
1876.30800302378
 10
11492.1150245197
 20
1794.64263366842
  0
LWPOLYLINE
  5
200FF
100
AcDbEntity
  8
0
100
AcDbPolyline
 70
0
 90
2
 38
0
 10
11428.2520755292
 20
2026.2390543724
 10
11652.4216952526
 20
1923.19382090779
  0
LWPOLYLINE
  5
20100
100
AcDbEntity
  8
0
100
AcDbPolyline
 70
0
 90
2
 38
0
 10
11406.0500485475
 20
1979.36778427253
 10
11546.0665046285
 20
1937.5056645806
  0
LWPOLYLINE
  5
20101
100
AcDbEntity
  8
0
100
AcDbPolyline
 70
0
 90
2
 38
0
 10
11529.5939731024
 20
1933.21212172368
 10
11556.0932145123
 20
1974.00083008908
  0
LWPOLYLINE
  5
20102
100
AcDbEntity
  8
0
100
AcDbPolyline
 70
0
 90
2
 38
0
 10
11531.2831016911
 20
2001.05161511105
 10
11578.8530029935
 20
2105.28782034096
  0
LWPOLYLINE
  5
20103
100
AcDbEntity
  8
0
100
AcDbPolyline
 70
0
 90
2
 38
0
 10
11477.9110449242
 20
2139.53064053675
 10
11730.8690057931
 20
2036.68236562859
  0
LWPOLYLINE
  5
20104
100
AcDbEntity
  8
0
100
AcDbPolyline
 70
0
 90
2
 38
0
 10
11695.0533153701
 20
2046.2762194747
 10
11779.9423627483
 20
2032.11021221546
  0
LWPOLYLINE
  5
20105
100
AcDbEntity
  8
0
100
AcDbPolyline
 70
0
 90
2
 38
0
 10
11513.6311756762
 20
2236.73837071528
 10
11633.2347491857
 20
2188.03833145442
  0
LWPOLYLINE
  5
20106
100
AcDbEntity
  8
0
100
AcDbPolyline
 70
0
 90
2
 38
0
 10
11607.7392556672
 20
2201.8990913696
 10
11660.2298611165
 20
2147.20516014312
  0
LWPOLYLINE
  5
20107
100
AcDbEntity
  8
0
100
AcDbPolyline
 70
0
 90
2
 38
0
 10
11639.9834652774
 20
2161.44057672459
 10
11884.0647744274
 20
2071.15810404444
  0
LWPOLYLINE
  5
20108
100
AcDbEntity
  8
0
100
AcDbPolyline
 70
0
 90
2
 38
0
 10
11830.259728374
 20
1934.12965661658
 10
11955.1626550376
 20
2301.59951264675
  0
LWPOLYLINE
  5
20109
100
AcDbEntity
  8
0
100
AcDbPolyline
 70
0
 90
2
 38
0
 10
11975.3956824253
 20
2262.56703941998
 10
11953.8292757941
 20
1947.34688198176
  0
LWPOLYLINE
  5
2010A
100
AcDbEntity
  8
0
100
AcDbPolyline
 70
0
 90
2
 38
0
 10
11964.3043239271
 20
2253.94773343773
 10
12236.6581748067
 20
2210.85120352644
  0
LWPOLYLINE
  5
2010B
100
AcDbEntity
  8
0
100
AcDbPolyline
 70
0
 90
2
 38
0
 10
12148.5436171862
 20
2269.95500865841
 10
12131.9067032208
 20
2163.44504623632
  0
LWPOLYLINE
  5
2010C
100
AcDbEntity
  8
0
100
AcDbPolyline
 70
0
 90
2
 38
0
 10
11963.0719507606
 20
2225.62714200329
 10
12223.7182565587
 20
2178.22098471317
  0
LWPOLYLINE
  5
2010D
100
AcDbEntity
  8
0
100
AcDbPolyline
 70
0
 90
2
 38
0
 10
12080.1471540111
 20
2243.48142233972
 10
12063.5101162638
 20
1950.42517261676
  0
LWPOLYLINE
  5
2010E
100
AcDbEntity
  8
0
100
AcDbPolyline
 70
0
 90
2
 38
0
 10
11937.1922380467
 20
2005.2192991453
 10
12082.6119003441
 20
1992.29036578421
  0
LWPOLYLINE
  5
2010F
100
AcDbEntity
  8
0
100
AcDbPolyline
 70
0
 90
2
 38
0
 10
11947.0512233785
 20
2034.15555895166
 10
12085.6928332602
 20
2019.37962047481
  0
LWPOLYLINE
  5
20110
100
AcDbEntity
  8
0
100
AcDbPolyline
 70
0
 90
2
 38
0
 10
11946.4350367953
 20
2056.31946666692
 10
12081.9957137608
 20
2050.77850254425
  0
LWPOLYLINE
  5
20111
100
AcDbEntity
  8
0
100
AcDbPolyline
 70
0
 90
2
 38
0
 10
11948.8997831282
 20
2087.10268036444
 10
12089.3899527596
 20
2073.55807863143
  0
LWPOLYLINE
  5
20112
100
AcDbEntity
  8
0
100
AcDbPolyline
 70
0
 90
2
 38
0
 10
11954.4454623773
 20
2108.65091970779
 10
12073.9852881788
 20
2104.34129232896
  0
LWPOLYLINE
  5
20113
100
AcDbEntity
  8
0
100
AcDbPolyline
 70
0
 90
2
 38
0
 10
11952.5969026276
 20
2139.43413340531
 10
12087.5413930099
 20
2128.35220515997
  0
LWPOLYLINE
  5
20114
100
AcDbEntity
  8
0
100
AcDbPolyline
 70
0
 90
2
 38
0
 10
11942.7379172958
 20
2170.83301547475
 10
12106.6430533082
 20
2145.59081712449
  0
LWPOLYLINE
  5
20115
100
AcDbEntity
  8
0
100
AcDbPolyline
 70
0
 90
2
 38
0
 10
12021.6095523859
 20
2257.64169244465
 10
11999.4269591714
 20
1988.5963555527
  0
LWPOLYLINE
  5
20116
100
AcDbEntity
  8
0
100
AcDbPolyline
 70
0
 90
2
 38
0
 10
12123.2184476408
 20
2240.41475968712
 10
12108.9918159472
 20
2159.45336990039
  0
LWPOLYLINE
  5
20117
100
AcDbEntity
  8
0
100
AcDbPolyline
 70
0
 90
2
 38
0
 10
11956.2104693058
 20
2199.00700212673
 10
12146.1047412823
 20
2166.25164163506
  0
LWPOLYLINE
  5
20118
100
AcDbEntity
  8
0
100
AcDbPolyline
 70
0
 90
2
 38
0
 10
12184.4547434983
 20
2153.27312286886
 10
12335.3805986003
 20
2126.07998470557
  0
LWPOLYLINE
  5
20119
100
AcDbEntity
  8
0
100
AcDbPolyline
 70
0
 90
2
 38
0
 10
12238.2684542886
 20
2155.12719697832
 10
12202.3927296164
 20
1949.32456103185
  0
LWPOLYLINE
  5
2011A
100
AcDbEntity
  8
0
100
AcDbPolyline
 70
0
 90
2
 38
0
 10
12153.5273263493
 20
2004.32886206159
 10
12313.1128433992
 20
1993.20441740485
  0
LWPOLYLINE
  5
2011B
100
AcDbEntity
  8
0
100
AcDbPolyline
 70
0
 90
2
 38
0
 10
12241.3612702727
 20
1949.32456103185
 10
12249.4023937801
 20
2012.36323442716
  0
LWPOLYLINE
  5
2011C
100
AcDbEntity
  8
0
100
AcDbPolyline
 70
0
 90
2
 38
0
 10
12194.3516061089
 20
1979.6078227109
 10
12302.5975661301
 20
1970.33745216362
  0
LWPOLYLINE
  5
2011D
100
AcDbEntity
  8
0
100
AcDbPolyline
 70
0
 90
2
 38
0
 10
12292.082165079
 20
2145.85677520644
 10
12279.0927340482
 20
2066.13143482601
  0
LWPOLYLINE
  5
2011E
100
AcDbEntity
  8
0
100
AcDbPolyline
 70
0
 90
2
 38
0
 10
12174.5580046695
 20
2088.99840006724
 10
12307.5458736535
 20
2073.54778248843
  0
LWPOLYLINE
  5
2011F
100
AcDbEntity
  8
0
100
AcDbPolyline
 70
0
 90
2
 38
0
 10
12297.6491348248
 20
2087.76235066094
 10
12292.082165079
 20
2022.2516296776
  0
LWPOLYLINE
  5
20120
100
AcDbEntity
  8
0
100
AcDbPolyline
 70
0
 90
2
 38
0
 10
12118.3156918777
 20
2267.75260732298
 10
12361.4052599861
 20
2256.01008673848
  0
LWPOLYLINE
  5
20121
100
AcDbEntity
  8
0
100
AcDbPolyline
 70
0
 90
2
 38
0
 10
12354.6012133595
 20
2268.37063202613
 10
12324.292334651
 20
2115.10019829679
  0
LWPOLYLINE
  5
20122
100
AcDbEntity
  8
0
100
AcDbPolyline
 70
0
 90
2
 38
0
 10
12289.6536868596
 20
2267.13458261982
 10
12286.5608708755
 20
2206.56805926171
  0
LWPOLYLINE
  5
20123
100
AcDbEntity
  8
0
100
AcDbPolyline
 70
0
 90
2
 38
0
 10
12264.9116541149
 20
2223.25472624682
 10
12297.0762719266
 20
2222.63670154367
  0
LWPOLYLINE
  5
20124
100
AcDbEntity
  8
0
100
AcDbPolyline
 70
0
 90
2
 38
0
 10
12276.6641320468
 20
2231.90712331554
 10
12264.2931156745
 20
2187.40924223939
  0
LWPOLYLINE
  5
20125
100
AcDbEntity
  8
0
100
AcDbPolyline
 70
0
 90
2
 38
0
 10
12188.211649683
 20
2205.95003455856
 10
12293.3649175021
 20
2194.82553867722
  0
LWPOLYLINE
  5
20126
100
AcDbEntity
  8
0
100
AcDbPolyline
 70
0
 90
2
 38
0
 10
12198.1085122937
 20
2194.20751397406
 10
12348.4157051733
 20
2158.98005466979
  0
LWPOLYLINE
  5
20127
100
AcDbEntity
  8
0
100
AcDbPolyline
 70
0
 90
2
 38
0
 10
12074.7362733135
 20
1722.41462703045
 10
12066.8549523129
 20
1799.97962146552
  0
LWPOLYLINE
  5
20128
100
AcDbEntity
  8
0
100
AcDbPolyline
 70
0
 90
2
 38
0
 10
11937.2079583553
 20
1772.02472239376
 10
12166.5531492756
 20
1796.43605786088
  0
LWPOLYLINE
  5
20129
100
AcDbEntity
  8
0
100
AcDbPolyline
 70
0
 90
2
 38
0
 10
12005.7749930675
 20
1770.84353452555
 10
12017.9910344293
 20
1930.304562654
  0
LWPOLYLINE
  5
2012A
100
AcDbEntity
  8
0
100
AcDbPolyline
 70
0
 90
2
 38
0
 10
12155.5193493875
 20
1785.41155238324
 10
12155.1252276356
 20
1965.74035237417
  0
LWPOLYLINE
  5
2012B
100
AcDbEntity
  8
0
100
AcDbPolyline
 70
0
 90
2
 38
0
 10
12138.9687114463
 20
1884.63179433446
 10
12253.6413069065
 20
1876.36342803237
  0
LWPOLYLINE
  5
2012C
100
AcDbEntity
  8
0
100
AcDbPolyline
 70
0
 90
2
 38
0
 10
11927.0070872576
 20
1839.73881797978
 10
11733.3335045621
 20
1838.47403157733
  0
LWPOLYLINE
  5
2012D
100
AcDbEntity
  8
0
100
AcDbPolyline
 70
0
 90
2
 38
0
 10
11794.0938587939
 20
1752.46958070271
 10
11809.2838854609
 20
1922.58132846057
  0
LWPOLYLINE
  5
2012E
100
AcDbEntity
  8
0
100
AcDbPolyline
 70
0
 90
2
 38
0
 10
11747.8906340816
 20
1901.08021574192
 10
11889.6647939557
 20
1897.28590775917
  0
LWPOLYLINE
  5
2012F
100
AcDbEntity
  8
0
100
AcDbPolyline
 70
0
 90
2
 38
0
 10
11704.8520188886
 20
1732.86562197543
 10
11768.7769826397
 20
1916.88986648645
  0
LWPOLYLINE
  5
20130
100
AcDbEntity
  8
0
100
AcDbPolyline
 70
0
 90
2
 38
0
 10
11699.1558207795
 20
1742.35144315691
 10
11817.5119197238
 20
1760.69061548173
  0
LWPOLYLINE
  5
20131
100
AcDbEntity
  8
0
100
AcDbPolyline
 70
0
 90
2
 38
0
 10
11898.3128203996
 20
1715.79384850724
 10
11876.6504827515
 20
1489.41004229085
  0
LWPOLYLINE
  5
20132
100
AcDbEntity
  8
0
100
AcDbPolyline
 70
0
 90
2
 38
0
 10
11598.5762962811
 20
1442.25380978537
 10
12779.5356365458
 20
1720.95411146175
  0
LWPOLYLINE
  5
20133
100
AcDbEntity
  8
0
100
AcDbPolyline
 70
0
 90
2
 38
0
 10
12367.6616952338
 20
1787.08664776805
 10
12384.307769064
 20
1604.13525111305
  0
LWPOLYLINE
  5
20134
100
AcDbEntity
  8
0
100
AcDbPolyline
 70
0
 90
2
 38
0
 10
12541.8045893671
 20
1820.99025871524
 10
12562.9323127419
 20
1730.79389457433
  0
LWPOLYLINE
  5
20135
100
AcDbEntity
  8
0
100
AcDbPolyline
 70
0
 90
2
 38
0
 10
12423.3618430528
 20
1723.75732603741
 10
12728.1119077862
 20
1770.45468864725
  0
LWPOLYLINE
  5
20136
100
AcDbEntity
  8
0
100
AcDbPolyline
 70
0
 90
2
 38
0
 10
12714.6670829346
 20
1773.65315217521
 10
12725.5509828724
 20
1694.33156402937
  0
LWPOLYLINE
  5
20137
100
AcDbEntity
  8
0
100
AcDbPolyline
 70
0
 90
2
 38
0
 10
12440.007916883
 20
1743.58769746158
 10
12460.4953161928
 20
1635.48004001328
  0
LWPOLYLINE
  5
20138
100
AcDbEntity
  8
0
100
AcDbPolyline
 70
0
 90
2
 38
0
 10
12496.9884652679
 20
1752.54339533987
 10
12522.5977144052
 20
1646.99445748934
  0
LWPOLYLINE
  5
20139
100
AcDbEntity
  8
0
100
AcDbPolyline
 70
0
 90
2
 38
0
 10
12584.0599123346
 20
1764.69750552152
 10
12612.8702866685
 20
1660.42795308218
  0
LWPOLYLINE
  5
2013A
100
AcDbEntity
  8
0
100
AcDbPolyline
 70
0
 90
2
 38
0
 10
12631.4370851295
 20
1827.38713454657
 10
12667.2900339216
 20
1682.81714655331
  0
LWPOLYLINE
  5
2013B
100
AcDbEntity
  8
0
100
AcDbPolyline
 70
0
 90
2
 38
0
 10
12050.3228816653
 20
1746.02624416639
 10
12047.0971238591
 20
1532.0167626529
  0
LWPOLYLINE
  5
2013C
100
AcDbEntity
  8
0
100
AcDbPolyline
 70
0
 90
2
 38
0
 10
12152.256952122
 20
1755.05073667181
 10
12161.2890739792
 20
1555.867188837
  0
LWPOLYLINE
  5
2013D
100
AcDbEntity
  8
0
100
AcDbPolyline
 70
0
 90
2
 38
0
 10
11878.7124425955
 20
1677.0533042306
 10
12070.9677316247
 20
1702.837561214
  0
LWPOLYLINE
  5
2013E
100
AcDbEntity
  8
0
100
AcDbPolyline
 70
0
 90
2
 38
0
 10
11965.1628755826
 20
1707.99444334543
 10
11986.4528771033
 20
1517.19077774962
  0
LWPOLYLINE
  5
2013F
100
AcDbEntity
  8
0
100
AcDbPolyline
 70
0
 90
2
 38
0
 10
11870.9706238607
 20
1628.70779037137
 10
12067.7419738186
 20
1662.22731932732
  0
LWPOLYLINE
  5
20140
100
AcDbEntity
  8
0
100
AcDbPolyline
 70
0
 90
2
 38
0
 10
11861.586466117
 20
1567.12584192494
 10
12063.1206982263
 20
1607.39861619914
  0
LWPOLYLINE
  5
20141
100
AcDbEntity
  8
0
100
AcDbPolyline
 70
0
 90
2
 38
0
 10
11784.8734645797
 20
1697.68764562708
 10
11818.6791835807
 20
1472.93944063503
  0
LWPOLYLINE
  5
20142
100
AcDbEntity
  8
0
100
AcDbPolyline
 70
0
 90
2
 38
0
 10
11675.0047230988
 20
1628.18458238811
 10
11756.9186711343
 20
1602.85171650991
  0
LWPOLYLINE
  5
20143
100
AcDbEntity
  8
0
100
AcDbPolyline
 70
0
 90
2
 38
0
 10
11699.7090023465
 20
1611.94556711297
 10
11907.744262851
 20
1647.67144169795
  0
LWPOLYLINE
  5
20144
100
AcDbEntity
  8
0
100
AcDbPolyline
 70
0
 90
2
 38
0
 10
11663.9528510449
 20
1551.53635447706
 10
11901.8933372953
 20
1597.65523776882
  0
LWPOLYLINE
  5
20145
100
AcDbEntity
  8
0
100
AcDbPolyline
 70
0
 90
2
 38
0
 10
11677.5864433813
 20
1712.93792382636
 10
11607.3588737125
 20
1430.1707481129
  0
LWPOLYLINE
  5
20146
100
AcDbEntity
  8
0
100
AcDbPolyline
 70
0
 90
2
 38
0
 10
11602.1180694242
 20
1484.62960968643
 10
11901.8950702427
 20
1555.84505981323
  0
LWPOLYLINE
  5
20147
100
AcDbEntity
  8
0
100
AcDbPolyline
 70
0
 90
2
 38
0
 10
11849.9545518115
 20
1416.90316897373
 10
12035.1365684571
 20
1403.99441810191
  0
LWPOLYLINE
  5
20148
100
AcDbEntity
  8
0
100
AcDbPolyline
 70
0
 90
2
 38
0
 10
11978.0746953262
 20
1398.61573348687
 10
12296.7601328078
 20
1477.14405760015
  0
LWPOLYLINE
  5
20149
100
AcDbEntity
  8
0
100
AcDbPolyline
 70
0
 90
2
 38
0
 10
12101.888340766
 20
1450.25078819874
 10
12114.8140240888
 20
999.142596425598
  0
LWPOLYLINE
  5
2014A
100
AcDbEntity
  8
0
100
AcDbPolyline
 70
0
 90
2
 38
0
 10
11477.4432729078
 20
1113.17002385482
 10
12282.7699246525
 20
1005.5969974738
  0
LWPOLYLINE
  5
2014B
100
AcDbEntity
  8
0
100
AcDbPolyline
 70
0
 90
2
 38
0
 10
12299.9961645164
 20
1090.57967141068
 10
12015.7377076794
 20
497.255568996792
  0
LWPOLYLINE
  5
2014C
100
AcDbEntity
  8
0
100
AcDbPolyline
 70
0
 90
2
 38
0
 10
12126.0830096957
 20
1047.33172160528
 10
12022.8375931838
 20
468.45157108712
  0
LWPOLYLINE
  5
2014D
100
AcDbEntity
  8
0
100
AcDbPolyline
 70
0
 90
2
 38
0
 10
11330.6617615167
 20
724.275226074373
 10
12044.5386745846
 20
563.14596665644
  0
LWPOLYLINE
  5
2014E
100
AcDbEntity
  8
0
100
AcDbPolyline
 70
0
 90
2
 38
0
 10
12465.9495205755
 20
956.974563469914
 10
12420.2120873684
 20
-44.3891694331105
  0
LWPOLYLINE
  5
2014F
100
AcDbEntity
  8
0
100
AcDbPolyline
 70
0
 90
2
 38
0
 10
11788.8828859572
 20
2088.13357527956
 10
11855.0793724059
 20
2268.77796998215
  0
LWPOLYLINE
  5
20150
100
AcDbEntity
  8
0
100
AcDbPolyline
 70
0
 90
2
 38
0
 10
11843.4540185441
 20
2254.03517381637
 10
11903.3691895717
 20
2286.64797626835
  0
LWPOLYLINE
  5
20151
100
AcDbEntity
  8
0
100
AcDbPolyline
 70
0
 90
2
 38
0
 10
11873.8587044875
 20
2275.47922233948
 10
11964.6257856701
 20
2289.32845672144
  0
LWPOLYLINE
  5
20152
100
AcDbEntity
  8
0
100
AcDbPolyline
 70
0
 90
2
 38
0
 10
11790.9662600798
 20
2102.72039256254
 10
11787.8122958089
 20
2023.48798643146
  0
LWPOLYLINE
  5
20153
100
AcDbEntity
  8
0
100
AcDbPolyline
 70
0
 90
2
 38
0
 10
11763.9324043965
 20
1944.25558030038
 10
11791.8673927287
 20
2049.59864651543
  0
LWPOLYLINE
  5
20154
100
AcDbEntity
  8
0
100
AcDbPolyline
 70
0
 90
2
 38
0
 10
11767.9875013163
 20
2012.23338008631
 10
11863.0566244234
 20
2001.87914839571
  0
LWPOLYLINE
  5
20155
100
AcDbEntity
  8
0
100
AcDbPolyline
 70
0
 90
2
 38
0
 10
11766.635802343
 20
1987.47325637188
 10
11830.615972847
 20
1979.82014864498
  0
LWPOLYLINE
  5
20156
100
AcDbEntity
  8
0
100
AcDbPolyline
 70
0
 90
2
 38
0
 10
11812.5934436521
 20
1972.16698969348
 10
11822.055212683
 20
1997.37732634749
  0
LWPOLYLINE
  5
20157
100
AcDbEntity
  8
0
100
AcDbPolyline
 70
0
 90
2
 38
0
 10
11783.7573226711
 20
2064.90491319383
 10
11883.7826753468
 20
2029.34039607383
  0
LWPOLYLINE
  5
20158
100
AcDbEntity
  8
0
100
AcDbPolyline
 70
0
 90
2
 38
0
 10
11469.3910090241
 20
1863.86078572638
 10
11461.5273888434
 20
1833.86161563486
  0
LWPOLYLINE
  5
20159
100
AcDbEntity
  8
0
100
AcDbPolyline
 70
0
 90
2
 38
0
 10
11447.4086950165
 20
1857.61097569884
 10
11429.179573735
 20
1826.7189097432
  0
LWPOLYLINE
  5
2015A
100
AcDbEntity
  8
0
100
AcDbPolyline
 70
0
 90
2
 38
0
 10
11552.7311727712
 20
1846.17272919117
 10
11525.3572880513
 20
1782.83413580936
  0
LWPOLYLINE
  5
2015B
100
AcDbEntity
  8
0
100
AcDbPolyline
 70
0
 90
2
 38
0
 10
11565.4095397434
 20
1779.37929319817
 10
11580.6813862841
 20
1809.60907640312
  0
LWPOLYLINE
  5
2015C
100
AcDbEntity
  8
0
100
AcDbPolyline
 70
0
 90
2
 38
0
 10
11509.8387440697
 20
2224.76119027458
 10
11631.5579987927
 20
2150.95582477345
  0
LWPOLYLINE
  5
2015D
100
AcDbEntity
  8
0
100
AcDbPolyline
 70
0
 90
2
 38
0
 10
11621.8018762674
 20
2168.59485937406
 10
11614.3686459521
 20
2122.64056069658
  0
LWPOLYLINE
  5
2015E
100
AcDbEntity
  8
0
100
AcDbPolyline
 70
0
 90
2
 38
0
 10
11597.6438467971
 20
2150.02748149162
 10
11711.0521333458
 20
2117.48367856514
  0
LWPOLYLINE
  5
2015F
100
AcDbEntity
  8
0
100
AcDbPolyline
 70
0
 90
2
 38
0
 10
11699.9023497637
 20
2153.69009104819
 10
11678.9963198745
 20
2095.66702235943
  0
LWPOLYLINE
  5
20160
100
AcDbEntity
  8
0
100
AcDbPolyline
 70
0
 90
2
 38
0
 10
11579.1123261939
 20
2133.26597537751
 10
11708.7292411359
 20
2091.95354678293
  0
LWPOLYLINE
  5
20161
100
AcDbEntity
  8
0
100
AcDbPolyline
 70
0
 90
2
 38
0
 10
11701.2960108205
 20
2104.95071130064
 10
11684.1066579799
 20
2044.14251031721
  0
LWPOLYLINE
  5
20162
100
AcDbEntity
  8
0
100
AcDbPolyline
 70
0
 90
2
 38
0
 10
11491.1942105396
 20
2181.63781867706
 10
11545.9676028446
 20
2152.16938658384
  0
LWPOLYLINE
  5
20163
100
AcDbEntity
  8
0
100
AcDbPolyline
 70
0
 90
2
 38
0
 10
11703.7077784758
 20
2491.18710642717
 10
11662.1941569962
 20
2365.9972256939
  0
LWPOLYLINE
  5
20164
100
AcDbEntity
  8
0
100
AcDbPolyline
 70
0
 90
2
 38
0
 10
11607.8490502633
 20
2516.82839557413
 10
11821.455612882
 20
2436.13368101364
  0
LWPOLYLINE
  5
20165
100
AcDbEntity
  8
0
100
AcDbPolyline
 70
0
 90
2
 38
0
 10
11567.5210123704
 20
2396.35665834135
 10
11719.5323114556
 20
2355.19216636863
  0
LWPOLYLINE
  5
20166
100
AcDbEntity
  8
0
100
AcDbPolyline
 70
0
 90
2
 38
0
 10
11704.3785529021
 20
2378.37677530519
 10
11679.753741671
 20
2272.8631311986
  0
LWPOLYLINE
  5
20167
100
AcDbEntity
  8
0
100
AcDbPolyline
 70
0
 90
2
 38
0
 10
11657.4966317182
 20
2292.73566046202
 10
11719.5323114556
 20
2272.38996964178
  0
LWPOLYLINE
  5
20168
100
AcDbEntity
  8
0
100
AcDbPolyline
 70
0
 90
2
 38
0
 10
11704.3785529021
 20
2289.42358078888
 10
11689.6983841171
 20
2249.67852226203
  0
LWPOLYLINE
  5
20169
100
AcDbEntity
  8
0
100
AcDbPolyline
 70
0
 90
2
 38
0
 10
11677.3859166106
 20
2259.14159972463
 10
11774.9685561418
 20
2250.03822134744
  0
LWPOLYLINE
  5
2016A
100
AcDbEntity
  8
0
100
AcDbPolyline
 70
0
 90
2
 38
0
 10
11761.2354431117
 20
2262.81342970778
 10
11731.4013919913
 20
2184.26963576771
  0
LWPOLYLINE
  5
2016B
100
AcDbEntity
  8
0
100
AcDbPolyline
 70
0
 90
2
 38
0
 10
11716.2476334378
 20
2206.50797281523
 10
11811.432245111
 20
2156.35346248754
  0
LWPOLYLINE
  5
2016C
100
AcDbEntity
  8
0
100
AcDbPolyline
 70
0
 90
2
 38
0
 10
11566.1305696445
 20
2203.19584191749
 10
11607.3299087345
 20
2312.02156569723
  0
LWPOLYLINE
  5
2016D
100
AcDbEntity
  8
0
100
AcDbPolyline
 70
0
 90
2
 38
0
 10
11564.709924121
 20
2263.75975282141
 10
11713.4063423909
 20
2185.21595888134
  0
LWPOLYLINE
  5
2016E
100
AcDbEntity
  8
0
100
AcDbPolyline
 70
0
 90
2
 38
0
 10
11667.9449429485
 20
2141.21249756771
 10
11690.6756426697
 20
2214.55161683196
  0
LWPOLYLINE
  5
2016F
100
AcDbEntity
  8
0
100
AcDbPolyline
 70
0
 90
2
 38
0
 10
11780.3968900954
 20
2404.59331662094
 10
11771.3806123287
 20
2369.45990566768
  0
LWPOLYLINE
  5
20170
100
AcDbEntity
  8
0
100
AcDbPolyline
 70
0
 90
2
 38
0
 10
11758.457404645
 20
2384.17391361273
 10
11867.5532515847
 20
2331.02337934489
  0
LWPOLYLINE
  5
20171
100
AcDbEntity
  8
0
100
AcDbPolyline
 70
0
 90
2
 38
0
 10
11798.1286554727
 20
2370.06051400954
 10
11792.4183462204
 20
2313.60686437217
  0
LWPOLYLINE
  5
20172
100
AcDbEntity
  8
0
100
AcDbPolyline
 70
0
 90
2
 38
0
 10
11767.4736824117
 20
2335.52766017354
 10
11884.3833891854
 20
2285.68029249982
  0
LWPOLYLINE
  5
20173
100
AcDbEntity
  8
0
100
AcDbPolyline
 70
0
 90
2
 38
0
 10
11860.9413145558
 20
2326.51909851625
 10
11885.2850169621
 20
2363.45423204589
  0
LWPOLYLINE
  5
20174
100
AcDbEntity
  8
0
100
AcDbPolyline
 70
0
 90
2
 38
0
 10
11677.4240414534
 20
2337.73011273357
 10
11785.48061508
 20
2331.92032195179
  0
LWPOLYLINE
  5
20175
100
AcDbEntity
  8
0
100
AcDbPolyline
 70
0
 90
2
 38
0
 10
11551.4388891374
 20
2347.89722098938
 10
11703.5903093983
 20
2302.38724442338
  0
LWPOLYLINE
  5
20176
100
AcDbEntity
  8
0
100
AcDbPolyline
 70
0
 90
2
 38
0
 10
11642.0513666554
 20
2329.0154265609
 10
11608.1322633815
 20
2223.95506886941
  0
LWPOLYLINE
  5
20177
100
AcDbEntity
  8
0
100
AcDbPolyline
 70
0
 90
2
 38
0
 10
11552.8979070676
 20
2471.79665179957
 10
11550.4377406671
 20
2408.37763580825
  0
LWPOLYLINE
  5
20178
100
AcDbEntity
  8
0
100
AcDbPolyline
 70
0
 90
2
 38
0
 10
11555.3580734682
 20
2444.75754598459
 10
11492.0390223979
 20
2229.50243606608
  0
LWPOLYLINE
  5
20179
100
AcDbEntity
  8
0
100
AcDbPolyline
 70
0
 90
2
 38
0
 10
11510.2682674614
 20
2282.69681858472
 10
11301.1936098619
 20
1776.62376871771
  0
LWPOLYLINE
  5
2017A
100
AcDbEntity
  8
0
100
AcDbPolyline
 70
0
 90
2
 38
0
 10
11271.5187423385
 20
2340.32945343284
 10
11492.5457857309
 20
2234.40027543549
  0
LWPOLYLINE
  5
2017B
100
AcDbEntity
  8
0
100
AcDbPolyline
 70
0
 90
2
 38
0
 10
11442.0865659822
 20
2277.55310117344
 10
11403.0836139418
 20
2216.53416221829
  0
LWPOLYLINE
  5
2017C
100
AcDbEntity
  8
0
100
AcDbPolyline
 70
0
 90
2
 38
0
 10
11326.6170622813
 20
2208.32992910546
 10
11426.6906899204
 20
2233.9681447769
  0
LWPOLYLINE
  5
2017D
100
AcDbEntity
  8
0
100
AcDbPolyline
 70
0
 90
2
 38
0
 10
11357.9221381818
 20
2221.66179510766
 10
11293.2591864016
 20
2133.46631475704
  0
LWPOLYLINE
  5
2017E
100
AcDbEntity
  8
0
100
AcDbPolyline
 70
0
 90
2
 38
0
 10
11298.9043863443
 20
2155.51517203855
 10
11290.8352881145
 20
2023.52804406245
  0
LWPOLYLINE
  5
2017F
100
AcDbEntity
  8
0
100
AcDbPolyline
 70
0
 90
2
 38
0
 10
11286.6981237571
 20
2045.229701059
 10
11325.4838384626
 20
1967.20716856768
  0
LWPOLYLINE
  5
20180
100
AcDbEntity
  8
0
100
AcDbPolyline
 70
0
 90
2
 38
0
 10
11308.9353048147
 20
1979.0913763738
 10
11387.0237714611
 20
1952.73944846125
  0
LWPOLYLINE
  5
20181
100
AcDbEntity
  8
0
100
AcDbPolyline
 70
0
 90
2
 38
0
 10
11196.7154488376
 20
1973.40764931307
 10
11338.4123687704
 20
1928.45427916436
  0
LWPOLYLINE
  5
20182
100
AcDbEntity
  8
0
100
AcDbPolyline
 70
0
 90
2
 38
0
 10
11333.7581671775
 20
1940.33848697048
 10
11318.7609927999
 20
1895.90181928183
  0
LWPOLYLINE
  5
20183
100
AcDbEntity
  8
0
100
AcDbPolyline
 70
0
 90
2
 38
0
 10
11268.0810698215
 20
1926.90417178416
 10
11360.649549828
 20
1890.2180922211
  0
LWPOLYLINE
  5
20184
100
AcDbEntity
  8
0
100
AcDbPolyline
 70
0
 90
2
 38
0
 10
11209.1268181281
 20
1980.12483251852
 10
11174.9954287975
 20
1879.8839405706
  0
LWPOLYLINE
  5
20185
100
AcDbEntity
  8
0
100
AcDbPolyline
 70
0
 90
2
 38
0
 10
11167.2382611
 20
1906.23591970774
 10
11265.4435238762
 20
1873.71368233452
  0
LWPOLYLINE
  5
20186
100
AcDbEntity
  8
0
100
AcDbPolyline
 70
0
 90
2
 38
0
 10
11238.1384619245
 20
1859.65929346137
 10
11288.6115452524
 20
1956.38653696643
  0
LWPOLYLINE
  5
20187
100
AcDbEntity
  8
0
100
AcDbPolyline
 70
0
 90
2
 38
0
 10
11225.6018252933
 20
2214.62881229218
 10
11346.8696472182
 20
2170.64415040384
  0
LWPOLYLINE
  5
20188
100
AcDbEntity
  8
0
100
AcDbPolyline
 70
0
 90
2
 38
0
 10
11261.3177474588
 20
2291.80946861306
 10
11420.4483658158
 20
2226.82610480495
  0
LWPOLYLINE
  5
20189
100
AcDbEntity
  8
0
100
AcDbPolyline
 70
0
 90
2
 38
0
 10
11293.8195473221
 20
2415.22103640853
 10
11510.2452440174
 20
2348.07471420085
  0
LWPOLYLINE
  5
2018A
100
AcDbEntity
  8
0
100
AcDbPolyline
 70
0
 90
2
 38
0
 10
11347.7936795291
 20
2431.61106178104
 10
11331.9188910746
 20
2362.87862130495
  0
LWPOLYLINE
  5
2018B
100
AcDbEntity
  8
0
100
AcDbPolyline
 70
0
 90
2
 38
0
 10
11325.0398325819
 20
2385.08448196112
 10
11522.4158574009
 20
2293.61744058967
  0
LWPOLYLINE
  5
2018C
100
AcDbEntity
  8
0
100
AcDbPolyline
 70
0
 90
2
 38
0
 10
11402.471883509
 20
2332.0898241269
 10
11414.4618990169
 20
2399.69081581366
  0
LWPOLYLINE
  5
2018D
100
AcDbEntity
  8
0
100
AcDbPolyline
 70
0
 90
2
 38
0
 10
10882.0229697334
 20
1813.06632657014
 10
11118.5673192878
 20
1749.63563137182
  0
LWPOLYLINE
  5
2018E
100
AcDbEntity
  8
0
100
AcDbPolyline
 70
0
 90
2
 38
0
 10
10892.458778986
 20
1767.01388157428
 10
11042.9079497706
 20
1729.65061290424
  0
LWPOLYLINE
  5
2018F
100
AcDbEntity
  8
0
100
AcDbPolyline
 70
0
 90
2
 38
0
 10
11018.5578107026
 20
1745.29106882121
 10
11002.9040968237
 20
1646.23489923834
  0
LWPOLYLINE
  5
20190
100
AcDbEntity
  8
0
100
AcDbPolyline
 70
0
 90
2
 38
0
 10
10884.6319220465
 20
1542.83416710485
 10
11022.0363312655
 20
1684.46709066342
  0
LWPOLYLINE
  5
20191
100
AcDbEntity
  8
0
100
AcDbPolyline
 70
0
 90
2
 38
0
 10
10985.5111226634
 20
1820.88652891633
 10
10962.9002438769
 20
1733.12625269981
  0
LWPOLYLINE
  5
20192
100
AcDbEntity
  8
0
100
AcDbPolyline
 70
0
 90
2
 38
0
 10
10841.1495485368
 20
1635.80792862703
 10
11023.7322678619
 20
1468.73374795348
  0
LWPOLYLINE
  5
20193
100
AcDbEntity
  8
0
100
AcDbPolyline
 70
0
 90
2
 38
0
 10
10857.2290723486
 20
1667.93097275436
 10
10989.7744208353
 20
1629.07655620958
  0
LWPOLYLINE
  5
20194
100
AcDbEntity
  8
0
100
AcDbPolyline
 70
0
 90
2
 38
0
 10
10878.5896295849
 20
1707.33262161607
 10
10994.1560545584
 20
1670.11995324668
  0
LWPOLYLINE
  5
20195
100
AcDbEntity
  8
0
100
AcDbPolyline
 70
0
 90
2
 38
0
 10
10906.5227611877
 20
1644.3994196558
 10
10920.7631326786
 20
1699.12393196373
  0
LWPOLYLINE
  5
20196
100
AcDbEntity
  8
0
100
AcDbPolyline
 70
0
 90
2
 38
0
 10
10647.7289761619
 20
1737.16326279972
 10
10896.8582373108
 20
1682.31678473811
  0
LWPOLYLINE
  5
20197
100
AcDbEntity
  8
0
100
AcDbPolyline
 70
0
 90
2
 38
0
 10
10748.8927514986
 20
1929.97150035646
 10
10695.1514531532
 20
1706.88435521099
  0
LWPOLYLINE
  5
20198
100
AcDbEntity
  8
0
100
AcDbPolyline
 70
0
 90
2
 38
0
 10
10507.2932705917
 20
2046.49259215154
 10
10549.8430708354
 20
1865.80860083929
  0
LWPOLYLINE
  5
20199
100
AcDbEntity
  8
0
100
AcDbPolyline
 70
0
 90
2
 38
0
 10
10180.9522903995
 20
1806.13989090614
 10
10230.0820919273
 20
1625.40595561664
  0
LWPOLYLINE
  5
2019A
100
AcDbEntity
  8
0
100
AcDbPolyline
 70
0
 90
2
 38
0
 10
10328.899827828
 20
1856.34373051598
 10
10360.1641794646
 20
1730.8340546545
  0
LWPOLYLINE
  5
2019B
100
AcDbEntity
  8
0
100
AcDbPolyline
 70
0
 90
2
 38
0
 10
9994.79809026166
 20
1759.49001349314
 10
10000.157725229
 20
1576.52483742287
  0
LWPOLYLINE
  5
2019C
100
AcDbEntity
  8
0
100
AcDbPolyline
 70
0
 90
2
 38
0
 10
9813.39476542531
 20
1879.73339149454
 10
9790.43940145169
 20
1461.15189363412
  0
LWPOLYLINE
  5
2019D
100
AcDbEntity
  8
0
100
AcDbPolyline
 70
0
 90
2
 38
0
 10
11046.579363428
 20
1128.32267210195
 10
11329.1381294048
 20
1669.084857915
  0
LWPOLYLINE
  5
2019E
100
AcDbEntity
  8
0
100
AcDbPolyline
 70
0
 90
2
 38
0
 10
10921.3711496527
 20
1358.56194434369
 10
11038.4142933762
 20
1370.19822512426
  0
LWPOLYLINE
  5
2019F
100
AcDbEntity
  8
0
100
AcDbPolyline
 70
0
 90
2
 38
0
 10
11002.8938229213
 20
1374.85269645682
 10
11112.9493513757
 20
1330.63496267461
  0
LWPOLYLINE
  5
201A0
100
AcDbEntity
  8
0
100
AcDbPolyline
 70
0
 90
2
 38
0
 10
11072.1879528504
 20
1339.9439565643
 10
11283.5645835091
 20
1331.21677159118
  0
LWPOLYLINE
  5
201A1
100
AcDbEntity
  8
0
100
AcDbPolyline
 70
0
 90
2
 38
0
 10
11264.9308190092
 20
1345.18028803802
 10
11264.3484249003
 20
1245.10853969306
  0
LWPOLYLINE
  5
201A2
100
AcDbEntity
  8
0
100
AcDbPolyline
 70
0
 90
2
 38
0
 10
11216.6955896866
 20
1250.95731238939
 10
11378.8091056496
 20
1263.05896858878
  0
LWPOLYLINE
  5
201A3
100
AcDbEntity
  8
0
100
AcDbPolyline
 70
0
 90
2
 38
0
 10
11225.0807032533
 20
1262.12811530194
 10
11235.3293541865
 20
1176.48531004723
  0
LWPOLYLINE
  5
201A4
100
AcDbEntity
  8
0
100
AcDbPolyline
 70
0
 90
2
 38
0
 10
11080.6692449978
 20
1226.75389754142
 10
11218.5590032712
 20
1174.62350102438
  0
LWPOLYLINE
  5
201A5
100
AcDbEntity
  8
0
100
AcDbPolyline
 70
0
 90
2
 38
0
 10
11192.471708215
 20
1173.69259651295
 10
11210.1737659226
 20
1215.58309462887
  0
LWPOLYLINE
  5
201A6
100
AcDbEntity
  8
0
100
AcDbPolyline
 70
0
 90
2
 38
0
 10
11096.5078891208
 20
1241.64831849969
 10
11273.5284661965
 20
1182.07068589121
  0
LWPOLYLINE
  5
201A7
100
AcDbEntity
  8
0
100
AcDbPolyline
 70
0
 90
2
 38
0
 10
10872.3792412253
 20
954.083908515619
 10
11075.3307767452
 20
1163.40531536417
  0
LWPOLYLINE
  5
201A8
100
AcDbEntity
  8
0
100
AcDbPolyline
 70
0
 90
2
 38
0
 10
10659.5683490278
 20
803.089946881831
 10
10937.5907946401
 20
1009.31190733887
  0
LWPOLYLINE
  5
201A9
100
AcDbEntity
  8
0
100
AcDbPolyline
 70
0
 90
2
 38
0
 10
10636.8804778638
 20
638.887621737289
 10
10709.4490119083
 20
859.23440488155
  0
LWPOLYLINE
  5
201AA
100
AcDbEntity
  8
0
100
AcDbPolyline
 70
0
 90
2
 38
0
 10
10637.8229536864
 20
679.37871522284
 10
11148.6327188864
 20
475.975592842042
  0
LWPOLYLINE
  5
201AB
100
AcDbEntity
  8
0
100
AcDbPolyline
 70
0
 90
2
 38
0
 10
10538.4214620752
 20
566.720982160601
 10
10650.7648524456
 20
664.212650252906
  0
LWPOLYLINE
  5
201AC
100
AcDbEntity
  8
0
100
AcDbPolyline
 70
0
 90
2
 38
0
 10
10550.3055202277
 20
592.551494950625
 10
10547.9129387759
 20
449.721657574082
  0
LWPOLYLINE
  5
201AD
100
AcDbEntity
  8
0
100
AcDbPolyline
 70
0
 90
2
 38
0
 10
10533.5580689745
 20
505.897413799554
 10
10631.649823696
 20
496.335575323472
  0
LWPOLYLINE
  5
201AE
100
AcDbEntity
  8
0
100
AcDbPolyline
 70
0
 90
2
 38
0
 10
10604.7344273457
 20
504.702190393116
 10
10861.3596762623
 20
209.241611992831
  0
LWPOLYLINE
  5
201AF
100
AcDbEntity
  8
0
100
AcDbPolyline
 70
0
 90
2
 38
0
 10
10399.4430414878
 20
327.435033044763
 10
10556.3896509909
 20
472.774875432027
  0
LWPOLYLINE
  5
201B0
100
AcDbEntity
  8
0
100
AcDbPolyline
 70
0
 90
2
 38
0
 10
10224.3136051551
 20
280.582050124256
 10
10457.8194790047
 20
358.032864943634
  0
LWPOLYLINE
  5
201B1
100
AcDbEntity
  8
0
100
AcDbPolyline
 70
0
 90
2
 38
0
 10
10567.5815204384
 20
563.906856746835
 10
10294.5317673951
 20
756.739733332346
  0
LWPOLYLINE
  5
201B2
100
AcDbEntity
  8
0
100
AcDbPolyline
 70
0
 90
2
 38
0
 10
10323.9085679655
 20
727.999202692234
 10
10296.3678251671
 20
777.530719531336
  0
LWPOLYLINE
  5
201B3
100
AcDbEntity
  8
0
100
AcDbPolyline
 70
0
 90
2
 38
0
 10
10317.176438656
 20
760.40874596293
 10
8930.06579927636
 20
1433.04962141102
  0
LWPOLYLINE
  5
201B4
100
AcDbEntity
  8
0
100
AcDbPolyline
 70
0
 90
2
 38
0
 10
8849.10868577044
 20
1429.85269462082
 10
8957.65778780497
 20
1429.22939378469
  0
LWPOLYLINE
  5
201B5
100
AcDbEntity
  8
0
100
AcDbPolyline
 70
0
 90
2
 38
0
 10
8522.8123908649
 20
1591.04127211636
 10
8890.09066374357
 20
1422.89813665579
  0
LWPOLYLINE
  5
201B6
100
AcDbEntity
  8
0
100
AcDbPolyline
 70
0
 90
2
 38
0
 10
8804.59570368455
 20
1483.19660172367
 10
8752.7433180069
 20
1020.17956311563
  0
LWPOLYLINE
  5
201B7
100
AcDbEntity
  8
0
100
AcDbPolyline
 70
0
 90
2
 38
0
 10
8754.26447447967
 20
1072.80545511164
 10
8753.1789067145
 20
857.856617029029
  0
LWPOLYLINE
  5
201B8
100
AcDbEntity
  8
0
100
AcDbPolyline
 70
0
 90
2
 38
0
 10
8755.07215175078
 20
1055.7688217136
 10
8885.81981487228
 20
1048.43095012621
  0
LWPOLYLINE
  5
201B9
100
AcDbEntity
  8
0
100
AcDbPolyline
 70
0
 90
2
 38
0
 10
8856.87377551319
 20
1053.57256732921
 10
8985.52308689523
 20
1006.65524632108
  0
LWPOLYLINE
  5
201BA
100
AcDbEntity
  8
0
100
AcDbPolyline
 70
0
 90
2
 38
0
 10
8943.06872254051
 20
1014.36767212558
 10
9077.19142450862
 20
1000.54251330189
  0
LWPOLYLINE
  5
201BB
100
AcDbEntity
  8
0
100
AcDbPolyline
 70
0
 90
2
 38
0
 10
9044.09856579942
 20
1006.59095945805
 10
9230.14482807058
 20
933.606314370823
  0
LWPOLYLINE
  5
201BC
100
AcDbEntity
  8
0
100
AcDbPolyline
 70
0
 90
2
 38
0
 10
9167.00922186098
 20
1152.38895459667
 10
9038.6858283724
 20
776.432669176029
  0
LWPOLYLINE
  5
201BD
100
AcDbEntity
  8
0
100
AcDbPolyline
 70
0
 90
2
 38
0
 10
9042.83450445189
 20
803.962250459946
 10
9069.52956891821
 20
392.8870506456
  0
LWPOLYLINE
  5
201BE
100
AcDbEntity
  8
0
100
AcDbPolyline
 70
0
 90
2
 38
0
 10
8851.35953688122
 20
521.77509080233
 10
9448.09774655453
 20
583.382497871018
  0
LWPOLYLINE
  5
201BF
100
AcDbEntity
  8
0
100
AcDbPolyline
 70
0
 90
2
 38
0
 10
9366.58188129355
 20
580.249909168437
 10
9684.28486138031
 20
569.807980976249
  0
LWPOLYLINE
  5
201C0
100
AcDbEntity
  8
0
100
AcDbPolyline
 70
0
 90
2
 38
0
 10
9741.63155679479
 20
1066.57162715682
 10
9674.49024266635
 20
731.148285713454
  0
LWPOLYLINE
  5
201C1
100
AcDbEntity
  8
0
100
AcDbPolyline
 70
0
 90
2
 38
0
 10
9676.31961621267
 20
756.376960771406
 10
9683.14148744111
 20
624.439059628275
  0
LWPOLYLINE
  5
201C2
100
AcDbEntity
  8
0
100
AcDbPolyline
 70
0
 90
2
 38
0
 10
9688.87680064874
 20
651.67507277512
 10
9464.31850557959
 20
266.294538132665
  0
LWPOLYLINE
  5
201C3
100
AcDbEntity
  8
0
100
AcDbPolyline
 70
0
 90
2
 38
0
 10
8760.52894721948
 20
464.76311578452
 10
8901.62045793439
 20
540.313475565665
  0
LWPOLYLINE
  5
201C4
100
AcDbEntity
  8
0
100
AcDbPolyline
 70
0
 90
2
 38
0
 10
8367.50886306242
 20
415.066684310623
 10
8801.33825769732
 20
472.789115868618
  0
LWPOLYLINE
  5
201C5
100
AcDbEntity
  8
0
100
AcDbPolyline
 70
0
 90
2
 38
0
 10
8751.62395776743
 20
476.549154599285
 10
8779.4700706543
 20
169.427246592924
  0
LWPOLYLINE
  5
201C6
100
AcDbEntity
  8
0
100
AcDbPolyline
 70
0
 90
2
 38
0
 10
8135.34614723104
 20
872.043165349678
 10
8475.14680610959
 20
324.618858647314
  0
LWPOLYLINE
  5
201C7
100
AcDbEntity
  8
0
100
AcDbPolyline
 70
0
 90
2
 38
0
 10
11876.21464648
 20
1428.98320839527
 10
11863.3754867453
 20
1322.79263130466
  0
LWPOLYLINE
  5
201C8
100
AcDbEntity
  8
0
100
AcDbPolyline
 70
0
 90
2
 38
0
 10
11853.3893773435
 20
1339.89718851176
 10
12080.9292084171
 20
1280.74405409765
  0
LWPOLYLINE
  5
201C9
100
AcDbEntity
  8
0
100
AcDbPolyline
 70
0
 90
2
 38
0
 10
12050.9710039935
 20
1285.02018059327
 10
12121.5867538802
 20
1293.57243358453
  0
LWPOLYLINE
  5
201CA
100
AcDbEntity
  8
0
100
AcDbPolyline
 70
0
 90
2
 38
0
 10
11937.5577661665
 20
1351.3001925001
 10
11914.732373248
 20
1290.72168258745
  0
LWPOLYLINE
  5
201CB
100
AcDbEntity
  8
0
100
AcDbPolyline
 70
0
 90
2
 38
0
 10
11914.732373248
 20
1307.82618856996
 10
11931.8514179369
 20
1219.45285643572
  0
LWPOLYLINE
  5
201CC
100
AcDbEntity
  8
0
100
AcDbPolyline
 70
0
 90
2
 38
0
 10
11914.0191416103
 20
1231.56854817333
 10
12124.4399279951
 20
1228.00510942697
  0
LWPOLYLINE
  5
201CD
100
AcDbEntity
  8
0
100
AcDbPolyline
 70
0
 90
2
 38
0
 10
12090.9153178189
 20
1200.92297495467
 10
12300.622748784
 20
1237.98273791678
  0
LWPOLYLINE
  5
201CE
100
AcDbEntity
  8
0
100
AcDbPolyline
 70
0
 90
2
 38
0
 10
12163.6708864008
 20
1205.19910145029
 10
12130.8595078624
 20
1439.67352463434
  0
LWPOLYLINE
  5
201CF
100
AcDbEntity
  8
0
100
AcDbPolyline
 70
0
 90
2
 38
0
 10
12092.3419048764
 20
1327.06880902487
 10
12218.594302438
 20
1363.41588423772
  0
LWPOLYLINE
  5
201D0
100
AcDbEntity
  8
0
100
AcDbPolyline
 70
0
 90
2
 38
0
 10
12189.3494534341
 20
1470.3191490776
 10
12205.7551427033
 20
1128.94140982908
  0
LWPOLYLINE
  5
201D1
100
AcDbEntity
  8
0
100
AcDbPolyline
 70
0
 90
2
 38
0
 10
11859.0957255731
 20
1367.69201073334
 10
11953.9634554357
 20
1329.20687227269
  0
LWPOLYLINE
  5
201D2
100
AcDbEntity
  8
0
100
AcDbPolyline
 70
0
 90
2
 38
0
 10
11931.6906251744
 20
1346.6286633784
 10
12118.7526421868
 20
1330.08450320838
  0
LWPOLYLINE
  5
201D3
100
AcDbEntity
  8
0
100
AcDbPolyline
 70
0
 90
2
 38
0
 10
12039.5422158798
 20
1345.28724498623
 10
12035.0670029971
 20
1221.42981834152
  0
LWPOLYLINE
  5
201D4
100
AcDbEntity
  8
0
100
AcDbPolyline
 70
0
 90
2
 38
0
 10
12020.2989490224
 20
1268.37935961806
 10
12125.0178659535
 20
1256.75378477723
  0
LWPOLYLINE
  5
201D5
100
AcDbEntity
  8
0
100
AcDbPolyline
 70
0
 90
2
 38
0
 10
12018.061342581
 20
1330.97878213649
 10
12030.5919138963
 20
1408.78094643278
  0
LWPOLYLINE
  5
201D6
100
AcDbEntity
  8
0
100
AcDbPolyline
 70
0
 90
2
 38
0
 10
12055.2053371874
 20
1497.76154610584
 10
12072.2108738215
 20
1408.33380696872
  0
LWPOLYLINE
  5
201D7
100
AcDbEntity
  8
0
100
AcDbPolyline
 70
0
 90
2
 38
0
 10
11998.3706039482
 20
1469.591811095
 10
12164.4510840774
 20
1498.34156216169
  0
LWPOLYLINE
  5
201D8
100
AcDbEntity
  8
0
100
AcDbPolyline
 70
0
 90
2
 38
0
 10
12134.9149761281
 20
1534.5598075255
 10
12156.3957256449
 20
1431.71788446676
  0
LWPOLYLINE
  5
201D9
100
AcDbEntity
  8
0
100
AcDbPolyline
 70
0
 90
2
 38
0
 10
12588.9622967518
 20
2144.65422668334
 10
12573.9088015837
 20
2239.91224643905
  0
LWPOLYLINE
  5
201DA
100
AcDbEntity
  8
0
100
AcDbPolyline
 70
0
 90
2
 38
0
 10
12415.0183202238
 20
1768.66485017623
 10
12429.0459105302
 20
2006.93265930038
  0
LWPOLYLINE
  5
201DB
100
AcDbEntity
  8
0
100
AcDbPolyline
 70
0
 90
2
 38
0
 10
11927.8725707028
 20
2522.05176722606
 10
12162.6184922002
 20
2452.76425707046
  0
LWPOLYLINE
  5
201DC
100
AcDbEntity
  8
0
100
AcDbPolyline
 70
0
 90
2
 38
0
 10
12136.3794404644
 20
2523.92438463784
 10
12097.489377569
 20
2379.7314608667
  0
LWPOLYLINE
  5
201DD
100
AcDbEntity
  8
0
100
AcDbPolyline
 70
0
 90
2
 38
0
 10
12084.8383664093
 20
2417.65230922127
 10
12256.3294796723
 20
2381.60407827848
  0
LWPOLYLINE
  5
201DE
100
AcDbEntity
  8
0
100
AcDbPolyline
 70
0
 90
2
 38
0
 10
12189.7946971344
 20
2402.20307470644
 10
12187.9203907376
 20
2354.91903684378
  0
LWPOLYLINE
  5
201DF
100
AcDbEntity
  8
0
100
AcDbPolyline
 70
0
 90
2
 38
0
 10
12112.9695491437
 20
2336.59031433574
 10
12146.7054551209
 20
2377.32011442027
  0
LWPOLYLINE
  5
201E0
100
AcDbEntity
  8
0
100
AcDbPolyline
 70
0
 90
2
 38
0
 10
11933.0445522229
 20
2388.55597256473
 10
12146.2369404126
 20
2352.03954885056
  0
LWPOLYLINE
  5
201E1
100
AcDbEntity
  8
0
100
AcDbPolyline
 70
0
 90
2
 38
0
 10
12025.8183864966
 20
2292.11522820304
 10
12062.8342667772
 20
2377.78830719166
  0
LWPOLYLINE
  5
201E2
100
AcDbEntity
  8
0
100
AcDbPolyline
 70
0
 90
2
 38
0
 10
11633.132505289
 20
2594.50639145928
 10
11752.5721914871
 20
2550.46471659998
  0
LWPOLYLINE
  5
201E3
100
AcDbEntity
  8
0
100
AcDbPolyline
 70
0
 90
2
 38
0
 10
11738.3531104929
 20
2562.30389798967
 10
11724.1341532806
 20
2528.20711910584
  0
LWPOLYLINE
  5
201E4
100
AcDbEntity
  8
0
100
AcDbPolyline
 70
0
 90
2
 38
0
 10
11716.5506516692
 20
2541.94053468516
 10
11906.6114103781
 20
2483.21825031484
  0
LWPOLYLINE
  5
201E5
100
AcDbEntity
  8
0
100
AcDbPolyline
 70
0
 90
2
 38
0
 10
11720.0649452177
 20
2556.0981411113
 10
11748.3145872852
 20
2650.87767195262
  0
LWPOLYLINE
  5
201E6
100
AcDbEntity
  8
0
100
AcDbPolyline
 70
0
 90
2
 38
0
 10
11712.036076124
 20
2642.55843963063
 10
11797.9746707179
 20
2617.89794774776
  0
LWPOLYLINE
  5
201E7
100
AcDbEntity
  8
0
100
AcDbPolyline
 70
0
 90
2
 38
0
 10
11789.6484773629
 20
2627.40559060544
 10
11786.972187665
 20
2588.78071145766
  0
LWPOLYLINE
  5
201E8
100
AcDbEntity
  8
0
100
AcDbPolyline
 70
0
 90
2
 38
0
 10
11758.4250975541
 20
2611.06433104456
 10
11838.7137884909
 20
2592.64319937244
  0
LWPOLYLINE
  5
201E9
100
AcDbEntity
  8
0
100
AcDbPolyline
 70
0
 90
2
 38
0
 10
11781.9169325305
 20
2516.28480020324
 10
11817.3034709077
 20
2619.9777686344
  0
LWPOLYLINE
  5
201EA
100
AcDbEntity
  8
0
100
AcDbPolyline
 70
0
 90
2
 38
0
 10
11810.4641464233
 20
2608.09315103155
 10
11931.7417471228
 20
2729.93391671162
  0
LWPOLYLINE
  5
201EB
100
AcDbEntity
  8
0
100
AcDbPolyline
 70
0
 90
2
 38
0
 10
11814.2227855555
 20
2754.178464907
 10
11783.7725478518
 20
2676.6910245043
  0
LWPOLYLINE
  5
201EC
100
AcDbEntity
  8
0
100
AcDbPolyline
 70
0
 90
2
 38
0
 10
11678.1482896853
 20
2718.04935033337
 10
11817.5532628975
 20
2679.54331223916
  0
LWPOLYLINE
  5
201ED
100
AcDbEntity
  8
0
100
AcDbPolyline
 70
0
 90
2
 38
0
 10
11811.3681260572
 20
2690.95251440314
 10
11800.9008761875
 20
2654.34798439062
  0
LWPOLYLINE
  5
201EE
100
AcDbEntity
  8
0
100
AcDbPolyline
 70
0
 90
2
 38
0
 10
11744.2823900275
 20
2677.16638871859
 10
11872.2686014645
 20
2647.21726505351
  0
LWPOLYLINE
  5
201EF
100
AcDbEntity
  8
0
100
AcDbPolyline
 70
0
 90
2
 38
0
 10
11825.1658532689
 20
2493.19316390126
 10
11854.6645790671
 20
2564.50061339539
  0
LWPOLYLINE
  5
201F0
100
AcDbEntity
  8
0
100
AcDbPolyline
 70
0
 90
2
 38
0
 10
11790.4336263178
 20
2568.77904499766
 10
11910.8071236014
 20
2532.17456620975
  0
LWPOLYLINE
  5
201F1
100
AcDbEntity
  8
0
100
AcDbPolyline
 70
0
 90
2
 38
0
 10
11877.5022263994
 20
2529.79764268917
 10
11883.6874870217
 20
2603.0066514896
  0
LWPOLYLINE
  5
201F2
100
AcDbEntity
  8
0
100
AcDbPolyline
 70
0
 90
2
 38
0
 10
11851.3341017251
 20
2604.43279535703
 10
11952.2004290185
 20
2577.3359594268
  0
LWPOLYLINE
  5
201F3
100
AcDbEntity
  8
0
100
AcDbPolyline
 70
0
 90
2
 38
0
 10
11647.386987923
 20
2635.32639805043
 10
11732.4015502059
 20
2610.98887722046
  0
LWPOLYLINE
  5
201F4
100
AcDbEntity
  8
0
100
AcDbPolyline
 70
0
 90
2
 38
0
 10
11682.2525280421
 20
2563.26820093512
 10
11702.3121369077
 20
2630.07710675492
  0
LWPOLYLINE
  5
201F5
100
AcDbEntity
  8
0
100
AcDbPolyline
 70
0
 90
2
 38
0
 10
11759.1477366206
 20
2705.95291904236
 10
11743.3865800029
 20
2660.61833547957
  0
LWPOLYLINE
  5
201F6
100
AcDbEntity
  8
0
100
AcDbPolyline
 70
0
 90
2
 38
0
 10
11752.462396891
 20
2754.27425489415
 10
11730.0146627241
 20
2691.76022377067
  0
LWPOLYLINE
  5
201F7
100
AcDbEntity
  8
0
100
AcDbPolyline
 70
0
 90
2
 38
0
 10
11695.149246387
 20
2754.75146319375
 10
11792.5816146221
 20
2727.55069256623
  0
LWPOLYLINE
  5
201F8
100
AcDbEntity
  8
0
100
AcDbPolyline
 70
0
 90
2
 38
0
 10
11768.2235535088
 20
2724.21028569368
 10
11778.7309087326
 20
2768.1132443577
  0
LWPOLYLINE
  5
201F9
100
AcDbEntity
  8
0
100
AcDbPolyline
 70
0
 90
2
 38
0
 10
10877.323711508
 20
2699.76416872856
 10
11070.6060194366
 20
2764.39367305476
  0
LWPOLYLINE
  5
201FA
100
AcDbEntity
  8
0
100
AcDbPolyline
 70
0
 90
2
 38
0
 10
11019.3939578239
 20
2754.7459309378
 10
11335.6007853932
 20
2781.39726659092
  0
LWPOLYLINE
  5
201FB
100
AcDbEntity
  8
0
100
AcDbPolyline
 70
0
 90
2
 38
0
 10
11029.5784897032
 20
2811.92517692164
 10
11050.9176326609
 20
2745.53907888466
  0
LWPOLYLINE
  5
201FC
100
AcDbEntity
  8
0
100
AcDbPolyline
 70
0
 90
2
 38
0
 10
11019.3939578239
 20
2774.61328651743
 10
11169.7376663809
 20
2856.99021668103
  0
LWPOLYLINE
  5
201FD
100
AcDbEntity
  8
0
100
AcDbPolyline
 70
0
 90
2
 38
0
 10
11008.1617354583
 20
2585.14084561996
 10
11002.7299356099
 20
2671.20046538022
  0
LWPOLYLINE
  5
201FE
100
AcDbEntity
  8
0
100
AcDbPolyline
 70
0
 90
2
 38
0
 10
10355.4900489765
 20
2309.64745952922
 10
10960.7293559105
 20
2414.71601315545
  0
LWPOLYLINE
  5
201FF
100
AcDbEntity
  8
0
100
AcDbPolyline
 70
0
 90
2
 38
0
 10
10643.6992545434
 20
2348.56175762212
 10
10613.320439029
 20
2522.11948613675
  0
LWPOLYLINE
  5
20200
100
AcDbEntity
  8
0
100
AcDbPolyline
 70
0
 90
2
 38
0
 10
10797.9300879042
 20
2374.24515338375
 10
10760.5408812405
 20
2619.4051801444
  0
LWPOLYLINE
  5
20201
100
AcDbEntity
  8
0
100
AcDbPolyline
 70
0
 90
2
 38
0
 10
10915.5506744584
 20
2467.6394688067
 10
10467.6579165316
 20
2402.26346850047
  0
LWPOLYLINE
  5
20202
100
AcDbEntity
  8
0
100
AcDbPolyline
 70
0
 90
2
 38
0
 10
10906.9822398131
 20
2450.51718789075
 10
10877.3823841557
 20
2627.18803976298
  0
LWPOLYLINE
  5
20203
100
AcDbEntity
  8
0
100
AcDbPolyline
 70
0
 90
2
 38
0
 10
10808.8354021207
 20
2543.133196862
 10
10944.3715702587
 20
2558.69891609916
  0
LWPOLYLINE
  5
20204
100
AcDbEntity
  8
0
100
AcDbPolyline
 70
0
 90
2
 38
0
 10
10621.8949389903
 20
2586.85999415394
 10
10896.8620745515
 20
2602.42571339109
  0
LWPOLYLINE
  5
20205
100
AcDbEntity
  8
0
100
AcDbPolyline
 70
0
 90
2
 38
0
 10
10632.0211695677
 20
2660.01885407874
 10
10654.6105102938
 20
2504.36171293176
  0
LWPOLYLINE
  5
20206
100
AcDbEntity
  8
0
100
AcDbPolyline
 70
0
 90
2
 38
0
 10
10596.9687186932
 20
2488.7959936946
 10
10674.8630952306
 20
2526.9319853358
  0
LWPOLYLINE
  5
20207
100
AcDbEntity
  8
0
100
AcDbPolyline
 70
0
 90
2
 38
0
 10
9873.20236993205
 20
2030.0150239512
 10
10463.4703729175
 20
2142.94957470891
  0
LWPOLYLINE
  5
20208
100
AcDbEntity
  8
0
100
AcDbPolyline
 70
0
 90
2
 38
0
 10
10308.9959366647
 20
2083.97265289147
 10
10207.2689534225
 20
2447.87282077505
  0
LWPOLYLINE
  5
20209
100
AcDbEntity
  8
0
100
AcDbPolyline
 70
0
 90
2
 38
0
 10
10081.6800271518
 20
2380.11205958567
 10
10198.4777112541
 20
2068.91467181077
  0
LWPOLYLINE
  5
2020A
100
AcDbEntity
  8
0
100
AcDbPolyline
 70
0
 90
2
 38
0
 10
10272.5752000346
 20
2127.89159362821
 10
10291.0283666588
 20
1947.18690758077
  0
LWPOLYLINE
  5
2020B
100
AcDbEntity
  8
0
100
AcDbPolyline
 70
0
 90
2
 38
0
 10
9894.91384901719
 20
1882.69878312865
 10
10523.8880986915
 20
2006.61711581331
  0
LWPOLYLINE
  5
2020C
100
AcDbEntity
  8
0
100
AcDbPolyline
 70
0
 90
2
 38
0
 10
10044.2477443669
 20
1749.9291482843
 10
10021.4680269907
 20
1882.69878312865
  0
LWPOLYLINE
  5
2020D
100
AcDbEntity
  8
0
100
AcDbPolyline
 70
0
 90
2
 38
0
 10
9946.06921849349
 20
2337.10558250722
 10
9984.42689519077
 20
2188.28400459793
  0
LWPOLYLINE
  5
2020E
100
AcDbEntity
  8
0
100
AcDbPolyline
 70
0
 90
2
 38
0
 10
9886.29095031062
 20
2179.32482344738
 10
10035.2383983898
 20
2214.16599810297
  0
LWPOLYLINE
  5
2020F
100
AcDbEntity
  8
0
100
AcDbPolyline
 70
0
 90
2
 38
0
 10
10017.8030908001
 20
2217.15239181981
 10
10052.6737059795
 20
2079.77858819231
  0
LWPOLYLINE
  5
20210
100
AcDbEntity
  8
0
100
AcDbPolyline
 70
0
 90
2
 38
0
 10
9891.77065377652
 20
2072.8103532612
 10
10054.1681255495
 20
2110.63792163363
  0
LWPOLYLINE
  5
20211
100
AcDbEntity
  8
0
100
AcDbPolyline
 70
0
 90
2
 38
0
 10
9963.00642748716
 20
2102.6742392051
 10
9984.42689519077
 20
2036.47603297178
  0
LWPOLYLINE
  5
20212
100
AcDbEntity
  8
0
100
AcDbPolyline
 70
0
 90
2
 38
0
 10
9357.81811871963
 20
1782.87752303883
 10
9661.21611313384
 20
1837.87787977499
  0
LWPOLYLINE
  5
20213
100
AcDbEntity
  8
0
100
AcDbPolyline
 70
0
 90
2
 38
0
 10
9241.32357663062
 20
1819.97078688415
 10
9405.18415113838
 20
1817.41263075689
  0
LWPOLYLINE
  5
20214
100
AcDbEntity
  8
0
100
AcDbPolyline
 70
0
 90
2
 38
0
 10
9313.01251608678
 20
1984.9719595418
 10
9266.92676045196
 20
1709.97002218725
  0
LWPOLYLINE
  5
20215
100
AcDbEntity
  8
0
100
AcDbPolyline
 70
0
 90
2
 38
0
 10
11661.7421052883
 20
3019.48778740196
 10
12458.3282654671
 20
2818.25996854739
  0
LWPOLYLINE
  5
20216
100
AcDbEntity
  8
0
100
AcDbPolyline
 70
0
 90
2
 38
0
 10
12435.1963884224
 20
2831.20216907783
 10
13256.874760503
 20
2847.77404175214
  0
LWPOLYLINE
  5
20217
100
AcDbEntity
  8
0
100
AcDbPolyline
 70
0
 90
2
 38
0
 10
12419.2735725685
 20
2907.25475743245
 10
12929.9381415326
 20
2939.40187711805
  0
LWPOLYLINE
  5
20218
100
AcDbEntity
  8
0
100
AcDbPolyline
 70
0
 90
2
 38
0
 10
12888.6889183137
 20
2940.22618325341
 10
13354.3129464901
 20
2890.72724525486
  0
LWPOLYLINE
  5
20219
100
AcDbEntity
  8
0
100
AcDbPolyline
 70
0
 90
2
 38
0
 10
13289.9642770994
 20
2890.72724525486
 10
13541.5841550103
 20
2906.38870325457
  0
LWPOLYLINE
  5
2021A
100
AcDbEntity
  8
0
100
AcDbPolyline
 70
0
 90
2
 38
0
 10
13479.710382073
 20
2903.91583607307
 10
13717.3055166626
 20
2898.14579557473
  0
LWPOLYLINE
  5
2021B
100
AcDbEntity
  8
0
100
AcDbPolyline
 70
0
 90
2
 38
0
 10
13665.3315771029
 20
2905.5643971192
 10
14106.2271885499
 20
2818.68687429759
  0
LWPOLYLINE
  5
2021C
100
AcDbEntity
  8
0
100
AcDbPolyline
 70
0
 90
2
 38
0
 10
12425.041192867
 20
2651.62872692134
 10
12904.1084367294
 20
2684.06270432245
  0
LWPOLYLINE
  5
2021D
100
AcDbEntity
  8
0
100
AcDbPolyline
 70
0
 90
2
 38
0
 10
12845.9920651048
 20
2685.1089666152
 10
14353.4020563757
 20
2540.30273080337
  0
LWPOLYLINE
  5
2021E
100
AcDbEntity
  8
0
100
AcDbPolyline
 70
0
 90
2
 38
0
 10
14294.3620237859
 20
2540.68537850602
 10
15129.1383836738
 20
2626.29524634804
  0
LWPOLYLINE
  5
2021F
100
AcDbEntity
  8
0
100
AcDbPolyline
 70
0
 90
2
 38
0
 10
14575.03761187
 20
2152.85804999944
 10
14603.8945282199
 20
2764.01307433579
  0
LWPOLYLINE
  5
20220
100
AcDbEntity
  8
0
100
AcDbPolyline
 70
0
 90
2
 38
0
 10
14484.6096932503
 20
2545.80107606545
 10
14495.7197428241
 20
3057.09918799592
  0
LWPOLYLINE
  5
20221
100
AcDbEntity
  8
0
100
AcDbPolyline
 70
0
 90
2
 38
0
 10
13133.3073173762
 20
2906.38696161843
 10
13175.8499382665
 20
3234.20939319421
  0
LWPOLYLINE
  5
20222
100
AcDbEntity
  8
0
100
AcDbPolyline
 70
0
 90
2
 38
0
 10
12991.3796678751
 20
3017.93527246593
 10
13261.3514587692
 20
3023.49698254839
  0
LWPOLYLINE
  5
20223
100
AcDbEntity
  8
0
100
AcDbPolyline
 70
0
 90
2
 38
0
 10
13228.5095060874
 20
3017.37907584539
 10
13316.4590623589
 20
3054.64266145929
  0
LWPOLYLINE
  5
20224
100
AcDbEntity
  8
0
100
AcDbPolyline
 70
0
 90
2
 38
0
 10
13003.7336023374
 20
3215.02977898752
 10
13023.1213227389
 20
2785.59583905418
  0
LWPOLYLINE
  5
20225
100
AcDbEntity
  8
0
100
AcDbPolyline
 70
0
 90
2
 38
0
 10
12801.8337183264
 20
2779.40724241415
 10
13046.2072766774
 20
2791.78438446961
  0
LWPOLYLINE
  5
20226
100
AcDbEntity
  8
0
100
AcDbPolyline
 70
0
 90
2
 38
0
 10
13026.1594270979
 20
2793.60690423036
 10
13257.1741890576
 20
2733.70891302317
  0
LWPOLYLINE
  5
20227
100
AcDbEntity
  8
0
100
AcDbPolyline
 70
0
 90
2
 38
0
 10
13159.5813994059
 20
2854.46305143197
 10
13165.2554405447
 20
2712.16594981281
  0
LWPOLYLINE
  5
20228
100
AcDbEntity
  8
0
100
AcDbPolyline
 70
0
 90
2
 38
0
 10
13168.0923992231
 20
2738.81118973947
 10
13130.3381595675
 20
2635.29863432153
  0
LWPOLYLINE
  5
20229
100
AcDbEntity
  8
0
100
AcDbPolyline
 70
0
 90
2
 38
0
 10
13158.4577067979
 20
2668.60870592057
 10
13113.4288015142
 20
2350.77020345942
  0
LWPOLYLINE
  5
2022A
100
AcDbEntity
  8
0
100
AcDbPolyline
 70
0
 90
2
 38
0
 10
13125.0490803158
 20
2405.92028967815
 10
13088.7911169595
 20
2323.50765597389
  0
LWPOLYLINE
  5
2022B
100
AcDbEntity
  8
0
100
AcDbPolyline
 70
0
 90
2
 38
0
 10
13094.5087293472
 20
2352.07156422059
 10
13086.374274244
 20
1749.01110114548
  0
LWPOLYLINE
  5
2022C
100
AcDbEntity
  8
0
100
AcDbPolyline
 70
0
 90
2
 38
0
 10
13084.0588089515
 20
1771.46079085982
 10
13170.7300689503
 20
1417.34703006389
  0
LWPOLYLINE
  5
2022D
100
AcDbEntity
  8
0
100
AcDbPolyline
 70
0
 90
2
 38
0
 10
12845.2315487593
 20
1571.79107042182
 10
13640.399167708
 20
1616.34222507371
  0
LWPOLYLINE
  5
2022E
100
AcDbEntity
  8
0
100
AcDbPolyline
 70
0
 90
2
 38
0
 10
12870.9172951462
 20
1870.4711144328
 10
12906.1325192945
 20
1074.00754261341
  0
LWPOLYLINE
  5
2022F
100
AcDbEntity
  8
0
100
AcDbPolyline
 70
0
 90
2
 38
0
 10
13154.4912377595
 20
1509.48526726504
 10
13212.1192895629
 20
858.368965398768
  0
LWPOLYLINE
  5
20230
100
AcDbEntity
  8
0
100
AcDbPolyline
 70
0
 90
2
 38
0
 10
13100.1961389374
 20
887.889749025075
 10
13571.5530046822
 20
894.563288878097
  0
LWPOLYLINE
  5
20231
100
AcDbEntity
  8
0
100
AcDbPolyline
 70
0
 90
2
 38
0
 10
13507.1664580126
 20
890.452566590218
 10
14885.0517518997
 20
1052.45136345829
  0
LWPOLYLINE
  5
20232
100
AcDbEntity
  8
0
100
AcDbPolyline
 70
0
 90
2
 38
0
 10
12953.8809141793
 20
1196.08342917102
 10
13702.7856455122
 20
1224.2650995118
  0
LWPOLYLINE
  5
20233
100
AcDbEntity
  8
0
100
AcDbPolyline
 70
0
 90
2
 38
0
 10
13666.7992597702
 20
1220.37797256825
 10
13846.7309409167
 20
1275.76953151393
  0
LWPOLYLINE
  5
20234
100
AcDbEntity
  8
0
100
AcDbPolyline
 70
0
 90
2
 38
0
 10
13797.7925062948
 20
1266.86106270952
 10
14631.0556317553
 20
1392.40521272144
  0
LWPOLYLINE
  5
20235
100
AcDbEntity
  8
0
100
AcDbPolyline
 70
0
 90
2
 38
0
 10
14591.794470552
 20
511.028786084142
 10
14457.9965724397
 20
1680.20028704355
  0
LWPOLYLINE
  5
20236
100
AcDbEntity
  8
0
100
AcDbPolyline
 70
0
 90
2
 38
0
 10
13658.6331164859
 20
567.78568530648
 10
13641.143344835
 20
1378.28013391126
  0
LWPOLYLINE
  5
20237
100
AcDbEntity
  8
0
100
AcDbPolyline
 70
0
 90
2
 38
0
 10
13607.7046393372
 20
1510.33134385203
 10
13646.918144487
 20
1299.91388440725
  0
LWPOLYLINE
  5
20238
100
AcDbEntity
  8
0
100
AcDbPolyline
 70
0
 90
2
 38
0
 10
13613.1082168994
 20
1448.77915689357
 10
13676.9049425427
 20
2625.10094498426
  0
LWPOLYLINE
  5
20239
100
AcDbEntity
  8
0
100
AcDbPolyline
 70
0
 90
2
 38
0
 10
13405.2322637739
 20
2411.67383585785
 10
13704.6104391261
 20
2312.59651051846
  0
LWPOLYLINE
  5
2023A
100
AcDbEntity
  8
0
100
AcDbPolyline
 70
0
 90
2
 38
0
 10
13675.0831196958
 20
2320.83414206531
 10
14218.1773236421
 20
2204.64186092663
  0
LWPOLYLINE
  5
2023B
100
AcDbEntity
  8
0
100
AcDbPolyline
 70
0
 90
2
 38
0
 10
13497.2360504915
 20
1949.06495479931
 10
13462.0635311184
 20
2340.7011390728
  0
LWPOLYLINE
  5
2023C
100
AcDbEntity
  8
0
100
AcDbPolyline
 70
0
 90
2
 38
0
 10
13461.4727198364
 20
2300.06093079977
 10
13522.4425131398
 20
2941.41766726463
  0
LWPOLYLINE
  5
2023D
100
AcDbEntity
  8
0
100
AcDbPolyline
 70
0
 90
2
 38
0
 10
10421.9963616643
 20
1475.09988902957
 10
10970.0224101336
 20
1360.04771363627
  0
LWPOLYLINE
  5
2023E
100
AcDbEntity
  8
0
100
AcDbPolyline
 70
0
 90
2
 38
0
 10
10308.9792261005
 20
1382.41897850018
 10
10477.4386716663
 20
1486.81818038201
  0
LWPOLYLINE
  5
2023F
100
AcDbEntity
  8
0
100
AcDbPolyline
 70
0
 90
2
 38
0
 10
10323.9060923263
 20
1423.96560592963
 10
10387.8779694392
 20
1235.4078825725
  0
LWPOLYLINE
  5
20240
100
AcDbEntity
  8
0
100
AcDbPolyline
 70
0
 90
2
 38
0
 10
10286.5874413783
 20
1063.53738967099
 10
10380.4129271608
 20
1219.07087465276
  0
LWPOLYLINE
  5
20241
100
AcDbEntity
  8
0
100
AcDbPolyline
 70
0
 90
2
 38
0
 10
10371.88336005
 20
1179.65488290527
 10
10377.2142776033
 20
1285.1193514035
  0
LWPOLYLINE
  5
20242
100
AcDbEntity
  8
0
100
AcDbPolyline
 70
0
 90
2
 38
0
 10
10316.440926266
 20
1182.85073397904
 10
10565.9315069482
 20
923.983364956424
  0
LWPOLYLINE
  5
20243
100
AcDbEntity
  8
0
100
AcDbPolyline
 70
0
 90
2
 38
0
 10
10537.1441560583
 20
928.24453387117
 10
10697.0739107313
 20
1029.44783345464
  0
LWPOLYLINE
  5
20244
100
AcDbEntity
  8
0
100
AcDbPolyline
 70
0
 90
2
 38
0
 10
10662.9555185063
 20
1033.70905359399
 10
10782.3698294031
 20
865.39195941879
  0
LWPOLYLINE
  5
20245
100
AcDbEntity
  8
0
100
AcDbPolyline
 70
0
 90
2
 38
0
 10
9762.43831355432
 20
1148.48978987397
 10
10259.237817922
 20
904.593832371487
  0
LWPOLYLINE
  5
20246
100
AcDbEntity
  8
0
100
AcDbPolyline
 70
0
 90
2
 38
0
 10
9831.19943837545
 20
961.273894705744
 10
9906.83677470425
 20
1115.85583166548
  0
LWPOLYLINE
  5
20247
100
AcDbEntity
  8
0
100
AcDbPolyline
 70
0
 90
2
 38
0
 10
10065.9602137077
 20
1198.50353502269
 10
10131.59596789
 20
1257.32294121956
  0
LWPOLYLINE
  5
20248
100
AcDbEntity
  8
0
100
AcDbPolyline
 70
0
 90
2
 38
0
 10
10123.4759952758
 20
1263.40770561149
 10
10176.2552602494
 20
1164.02318639355
  0
LWPOLYLINE
  5
20249
100
AcDbEntity
  8
0
100
AcDbPolyline
 70
0
 90
2
 38
0
 10
10157.3088225255
 20
1182.95354173529
 10
10317.6766415453
 20
1077.48425812541
  0
LWPOLYLINE
  5
2024A
100
AcDbEntity
  8
0
100
AcDbPolyline
 70
0
 90
2
 38
0
 10
9887.32267292438
 20
1346.56622060068
 10
10085.58324361
 20
1200.53177274513
  0
LWPOLYLINE
  5
2024B
100
AcDbEntity
  8
0
100
AcDbPolyline
 70
0
 90
2
 38
0
 10
9744.54810727172
 20
1031.51044287836
 10
9977.30819482883
 20
1425.27823610106
  0
LWPOLYLINE
  5
2024C
100
AcDbEntity
  8
0
100
AcDbPolyline
 70
0
 90
2
 38
0
 10
9936.70870310364
 20
1579.42573729558
 10
9979.33809514591
 20
1398.23482742035
  0
LWPOLYLINE
  5
2024D
100
AcDbEntity
  8
0
100
AcDbPolyline
 70
0
 90
2
 38
0
 10
10918.8105960848
 20
2830.0926444139
 10
10973.9892505179
 20
2713.62605558476
  0
LWPOLYLINE
  5
2024E
100
AcDbEntity
  8
0
100
AcDbPolyline
 70
0
 90
2
 38
0
 10
10782.0189075543
 20
2692.84833655512
 10
10898.7847796936
 20
2747.70972097303
  0
LWPOLYLINE
  5
2024F
100
AcDbEntity
  8
0
100
AcDbPolyline
 70
0
 90
2
 38
0
 10
10790.3593358344
 20
2761.59865441383
 10
10824.4159608628
 20
2572.0143902319
  0
LWPOLYLINE
  5
20250
100
AcDbEntity
  8
0
100
AcDbPolyline
 70
0
 90
2
 38
0
 10
10681.2387325032
 20
2710.20952896842
 10
10706.9550530335
 20
2565.06987228691
  0
LWPOLYLINE
  5
20251
100
AcDbEntity
  8
0
100
AcDbPolyline
 70
0
 90
2
 38
0
 10
10622.1351997693
 20
2632.98502439674
 10
10880.6883526702
 20
2782.98579241516
  0
LWPOLYLINE
  5
20252
100
AcDbEntity
  8
0
100
AcDbPolyline
 70
0
 90
2
 38
0
 10
10804.9294624594
 20
2610.76266942194
 10
10838.2911755797
 20
2432.98403452191
  0
LWPOLYLINE
  5
20253
100
AcDbEntity
  8
0
100
AcDbPolyline
 70
0
 90
2
 38
0
 10
11304.7961599459
 20
2977.04406369183
 10
11673.1945357558
 20
2930.85822985826
  0
LWPOLYLINE
  5
20254
100
AcDbEntity
  8
0
100
AcDbPolyline
 70
0
 90
2
 38
0
 10
11358.0247534243
 20
2982.64234813301
 10
11358.0247534243
 20
2867.17776354907
  0
LWPOLYLINE
  5
20255
100
AcDbEntity
  8
0
100
AcDbPolyline
 70
0
 90
2
 38
0
 10
11340.5154242242
 20
2883.97261687261
 10
11629.7710824577
 20
2823.09131839631
  0
LWPOLYLINE
  5
20256
100
AcDbEntity
  8
0
100
AcDbPolyline
 70
0
 90
2
 38
0
 10
11597.5537335322
 20
2818.89259225928
 10
11601.5572133758
 20
2947.01656640091
  0
LWPOLYLINE
  5
20257
100
AcDbEntity
  8
0
100
AcDbPolyline
 70
0
 90
2
 38
0
 10
11459.4044044945
 20
2966.22138310689
 10
11450.141305505
 20
2849.86938369018
  0
LWPOLYLINE
  5
20258
100
AcDbEntity
  8
0
100
AcDbPolyline
 70
0
 90
2
 38
0
 10
11476.1662144547
 20
2846.34354379439
 10
11487.193701463
 20
2942.42213029024
  0
LWPOLYLINE
  5
20259
100
AcDbEntity
  8
0
100
AcDbPolyline
 70
0
 90
2
 38
0
 10
11343.3950876779
 20
2938.01486883895
 10
11575.8548802067
 20
2908.92683056633
  0
LWPOLYLINE
  5
2025A
100
AcDbEntity
  8
0
100
AcDbPolyline
 70
0
 90
2
 38
0
 10
11549.829971257
 20
2833.56244460597
 10
11565.7095872078
 20
2954.32175669857
  0
LWPOLYLINE
  5
2025B
100
AcDbEntity
  8
0
100
AcDbPolyline
 70
0
 90
2
 38
0
 10
11410.4423275188
 20
2909.36756695638
 10
11569.6793983591
 20
2889.53483920098
  0
LWPOLYLINE
  5
2025C
100
AcDbEntity
  8
0
100
AcDbPolyline
 70
0
 90
2
 38
0
 10
11419.2643913946
 20
2857.36174864721
 10
11438.2316244873
 20
2965.78064671684
  0
LWPOLYLINE
  5
2025D
100
AcDbEntity
  8
0
100
AcDbPolyline
 70
0
 90
2
 38
0
 10
11396.3270995867
 20
2940.65923595465
 10
11389.2695475117
 20
2864.41337721419
  0
LWPOLYLINE
  5
2025E
100
AcDbEntity
  8
0
100
AcDbPolyline
 70
0
 90
2
 38
0
 10
11410.0012924051
 20
2892.17920631667
 10
11568.356169236
 20
2863.09121926865
  0
LWPOLYLINE
  5
2025F
100
AcDbEntity
  8
0
100
AcDbPolyline
 70
0
 90
2
 38
0
 10
11383.094189446
 20
2954.76249308862
 10
11387.5051594929
 20
3061.41849682265
  0
LWPOLYLINE
  5
20260
100
AcDbEntity
  8
0
100
AcDbPolyline
 70
0
 90
2
 38
0
 10
11362.3725946731
 20
3020.95065930189
 10
11694.5209291719
 20
3141.70992016989
  0
LWPOLYLINE
  5
20261
100
AcDbEntity
  8
0
100
AcDbPolyline
 70
0
 90
2
 38
0
 10
11678.2001543254
 20
3151.84665224261
 10
11687.4632533149
 20
3106.89246250042
  0
LWPOLYLINE
  5
20262
100
AcDbEntity
  8
0
100
AcDbPolyline
 70
0
 90
2
 38
0
 10
11688.78660622
 20
3126.28445386577
 10
11642.9121463862
 20
2925.75354558613
  0
LWPOLYLINE
  5
20263
100
AcDbEntity
  8
0
100
AcDbPolyline
 70
0
 90
2
 38
0
 10
11496.0259154592
 20
3038.13901994159
 10
11601.0077452676
 20
3028.00228786887
  0
LWPOLYLINE
  5
20264
100
AcDbEntity
  8
0
100
AcDbPolyline
 70
0
 90
2
 38
0
 10
11573.6594834128
 20
2932.36443776306
 10
11582.9225824023
 20
3111.29972395171
  0
LWPOLYLINE
  5
20265
100
AcDbEntity
  8
0
100
AcDbPolyline
 70
0
 90
2
 38
0
 10
11497.790303478
 20
2939.8568027201
 10
11511.0233374007
 20
3047.83501562427
  0
LWPOLYLINE
  5
20266
100
AcDbEntity
  8
0
100
AcDbPolyline
 70
0
 90
2
 38
0
 10
11434.7129985703
 20
3063.26048192838
 10
11432.0664165421
 20
2982.60736173664
  0
LWPOLYLINE
  5
20267
100
AcDbEntity
  8
0
100
AcDbPolyline
 70
0
 90
2
 38
0
 10
11364.1369826918
 20
2998.91424959625
 10
11446.622679588
 20
2991.86262102927
  0
LWPOLYLINE
  5
20268
100
AcDbEntity
  8
0
100
AcDbPolyline
 70
0
 90
2
 38
0
 10
11492.055980526
 20
3009.49171805902
 10
11585.1281293167
 20
3001.99935310199
  0
LWPOLYLINE
  5
20269
100
AcDbEntity
  8
0
100
AcDbPolyline
 70
0
 90
2
 38
0
 10
12275.397966406
 20
2876.22264344213
 10
12233.5127514908
 20
2695.11394903715
  0
LWPOLYLINE
  5
2026A
100
AcDbEntity
  8
0
100
AcDbPolyline
 70
0
 90
2
 38
0
 10
11986.5345731951
 20
2791.80144225877
 10
12453.7712327106
 20
2663.36581769907
  0
LWPOLYLINE
  5
2026B
100
AcDbEntity
  8
0
100
AcDbPolyline
 70
0
 90
2
 38
0
 10
12279.7309538199
 20
2729.02672918631
 10
12245.7894460117
 20
2576.77996770462
  0
LWPOLYLINE
  5
2026C
100
AcDbEntity
  8
0
100
AcDbPolyline
 70
0
 90
2
 38
0
 10
12110.7458062816
 20
2767.99035656136
 10
12106.4129426497
 20
2688.62000260388
  0
LWPOLYLINE
  5
2026D
100
AcDbEntity
  8
0
100
AcDbPolyline
 70
0
 90
2
 38
0
 10
12042.1407705085
 20
2722.53278275304
 10
12194.5162361121
 20
2669.13816330406
  0
LWPOLYLINE
  5
2026E
100
AcDbEntity
  8
0
100
AcDbPolyline
 70
0
 90
2
 38
0
 10
12171.4071349475
 20
2638.11158156968
 10
12194.5162361121
 20
2698.00014745194
  0
LWPOLYLINE
  5
2026F
100
AcDbEntity
  8
0
100
AcDbPolyline
 70
0
 90
2
 38
0
 10
12072.4714348415
 20
2778.81354939222
 10
12067.416303489
 20
2708.8233402828
  0
LWPOLYLINE
  5
20270
100
AcDbEntity
  8
0
100
AcDbPolyline
 70
0
 90
2
 38
0
 10
12198.8492235259
 20
2739.84992201718
 10
12190.1832486982
 20
2700.88634586673
  0
LWPOLYLINE
  5
20271
100
AcDbEntity
  8
0
100
AcDbPolyline
 70
0
 90
2
 38
0
 10
12149.7424454422
 20
2711.70953869758
 10
12211.8480619855
 20
2702.32944507412
  0
LWPOLYLINE
  5
20272
100
AcDbEntity
  8
0
100
AcDbPolyline
 70
0
 90
2
 38
0
 10
12169.9628470702
 20
2718.92503473456
 10
12150.4645893809
 20
2674.18901052994
  0
LWPOLYLINE
  5
20273
100
AcDbEntity
  8
0
100
AcDbPolyline
 70
0
 90
2
 38
0
 10
12224.846900445
 20
2707.38024107541
 10
12281.1752416972
 20
2681.40450656691
  0
LWPOLYLINE
  5
20274
100
AcDbEntity
  8
0
100
AcDbPolyline
 70
0
 90
2
 38
0
 10
12166.352003595
 20
2667.69511532126
 10
12349.0581335315
 20
2625.84528953143
  0
LWPOLYLINE
  5
20275
100
AcDbEntity
  8
0
100
AcDbPolyline
 70
0
 90
2
 38
0
 10
12321.6161687351
 20
2598.42640459094
 10
12343.2809820223
 20
2706.65869147171
  0
LWPOLYLINE
  5
20276
100
AcDbEntity
  8
0
100
AcDbPolyline
 70
0
 90
2
 38
0
 10
12256.6032853617
 20
2840.12047300391
 10
12392.0743441903
 20
2805.71547574968
  0
LWPOLYLINE
  5
20277
100
AcDbEntity
  8
0
100
AcDbPolyline
 70
0
 90
2
 38
0
 10
12349.0316441927
 20
2737.81082468122
 10
12360.8117255011
 20
2856.41757696644
  0
LWPOLYLINE
  5
20278
100
AcDbEntity
  8
0
100
AcDbPolyline
 70
0
 90
2
 38
0
 10
12243.9169963442
 20
2776.74284648296
 10
12379.8410971363
 20
2736.90543001663
  0
LWPOLYLINE
  5
20279
100
AcDbEntity
  8
0
100
AcDbPolyline
 70
0
 90
2
 38
0
 10
12308.2544015768
 20
2690.27757917821
 10
12339.0638545205
 20
2756.3714409175
  0
LWPOLYLINE
  5
2027A
100
AcDbEntity
  8
0
100
AcDbPolyline
 70
0
 90
2
 38
0
 10
12304.1767763408
 20
2729.20960097996
 10
12328.6430228848
 20
2837.40428901016
  0
LWPOLYLINE
  5
2027B
100
AcDbEntity
  8
0
100
AcDbPolyline
 70
0
 90
2
 38
0
 10
12234.4023724176
 20
2756.3714409175
 10
12318.222191249
 20
2733.28385135829
  0
LWPOLYLINE
  5
2027C
100
AcDbEntity
  8
0
100
AcDbPolyline
 70
0
 90
2
 38
0
 10
12302.7568735091
 20
2796.07608324123
 10
12406.2279445291
 20
2772.21828071586
  0
LWPOLYLINE
  5
2027D
100
AcDbEntity
  8
0
100
AcDbPolyline
 70
0
 90
2
 38
0
 10
12385.1926862764
 20
2771.93429157751
 10
12432.9485080786
 20
2786.13533645771
  0
LWPOLYLINE
  5
2027E
100
AcDbEntity
  8
0
100
AcDbPolyline
 70
0
 90
2
 38
0
 10
12418.7354924003
 20
2833.28286078254
 10
12427.3576484151
 20
2741.38256181149
  0
LWPOLYLINE
  5
2027F
100
AcDbEntity
  8
0
100
AcDbPolyline
 70
0
 90
2
 38
0
 10
12428.0711276167
 20
2750.8268398488
 10
12418.3525110245
 20
2703.36274754507
  0
LWPOLYLINE
  5
20280
100
AcDbEntity
  8
0
100
AcDbPolyline
 70
0
 90
2
 38
0
 10
12392.1000908373
 20
2710.49049585585
 10
12427.1983410361
 20
2709.6351476177
  0
LWPOLYLINE
  5
20281
100
AcDbEntity
  8
0
100
AcDbPolyline
 70
0
 90
2
 38
0
 10
12402.3727554703
 20
2716.76294715307
 10
12385.0071371225
 20
2670.21961689154
  0
LWPOLYLINE
  5
20282
100
AcDbEntity
  8
0
100
AcDbPolyline
 70
0
 90
2
 38
0
 10
12316.0662808994
 20
2729.06642824516
 10
12361.7225131426
 20
2707.16991290043
  0
LWPOLYLINE
  5
20283
100
AcDbEntity
  8
0
100
AcDbPolyline
 70
0
 90
2
 38
0
 10
12161.7921238535
 20
2904.92116991676
 10
12111.3775893914
 20
2779.44929780422
  0
LWPOLYLINE
  5
20284
100
AcDbEntity
  8
0
100
AcDbPolyline
 70
0
 90
2
 38
0
 10
12093.0451101755
 20
2820.66270926236
 10
12267.662584333
 20
2788.60784506705
  0
LWPOLYLINE
  5
20285
100
AcDbEntity
  8
0
100
AcDbPolyline
 70
0
 90
2
 38
0
 10
12204.8735676037
 20
2810.13036966519
 10
12193.8740553178
 20
2775.32797202579
  0
LWPOLYLINE
  5
20286
100
AcDbEntity
  8
0
100
AcDbPolyline
 70
0
 90
2
 38
0
 10
12148.5010361929
 20
2790.43953402979
 10
12211.7482937279
 20
2780.36519351018
  0
LWPOLYLINE
  5
20287
100
AcDbEntity
  8
0
100
AcDbPolyline
 70
0
 90
2
 38
0
 10
12165.9169100153
 20
2818.37307244665
 10
12151.7092169611
 20
2759.75846216882
  0
LWPOLYLINE
  5
20288
100
AcDbEntity
  8
0
100
AcDbPolyline
 70
0
 90
2
 38
0
 10
12137.0431593192
 20
2773.95417969145
 10
12234.6640474752
 20
2745.10484801781
  0
LWPOLYLINE
  5
20289
100
AcDbEntity
  8
0
100
AcDbPolyline
 70
0
 90
2
 38
0
 10
12213.5816282969
 20
2720.83473875099
 10
12234.6640474752
 20
2788.14989721408
  0
LWPOLYLINE
  5
2028A
100
AcDbEntity
  8
0
100
AcDbPolyline
 70
0
 90
2
 38
0
 10
12194.3324199055
 20
2796.85049662393
 10
12236.0388936745
 20
2774.41212754443
  0
LWPOLYLINE
  5
2028B
100
AcDbEntity
  8
0
100
AcDbPolyline
 70
0
 90
2
 38
0
 10
12202.582116011
 20
2827.0736718565
 10
12269.49579512
 20
2798.22428895827
  0
LWPOLYLINE
  5
2028C
100
AcDbEntity
  8
0
100
AcDbPolyline
 70
0
 90
2
 38
0
 10
12203.4987214045
 20
2813.33585096226
 10
12226.8727159575
 20
2866.45534312732
  0
LWPOLYLINE
  5
2028D
100
AcDbEntity
  8
0
100
AcDbPolyline
 70
0
 90
2
 38
0
 10
12171.4167899402
 20
2869.20287657141
 10
12279.5787020124
 20
2841.72728600752
  0
LWPOLYLINE
  5
2028E
100
AcDbEntity
  8
0
100
AcDbPolyline
 70
0
 90
2
 38
0
 10
12184.2495130131
 20
2879.73521616858
 10
12166.375274603
 20
2830.27915315357
  0
LWPOLYLINE
  5
2028F
100
AcDbEntity
  8
0
100
AcDbPolyline
 70
0
 90
2
 38
0
 10
12130.6267977828
 20
2856.38095138312
 10
12229.1642913323
 20
2830.27915315357
  0
LWPOLYLINE
  5
20290
100
AcDbEntity
  8
0
100
AcDbPolyline
 70
0
 90
2
 38
0
 10
12103.1698553695
 20
2917.47980070188
 10
12081.6584079273
 20
2853.00017953203
  0
LWPOLYLINE
  5
20291
100
AcDbEntity
  8
0
100
AcDbPolyline
 70
0
 90
2
 38
0
 10
12027.5091242508
 20
2878.94026172446
 10
12104.6533821272
 20
2860.41160963362
  0
LWPOLYLINE
  5
20292
100
AcDbEntity
  8
0
100
AcDbPolyline
 70
0
 90
2
 38
0
 10
11994.1293389646
 20
2829.28350075779
 10
12104.6533821272
 20
2793.708533821
  0
LWPOLYLINE
  5
20293
100
AcDbEntity
  8
0
100
AcDbPolyline
 70
0
 90
2
 38
0
 10
12087.5926387402
 20
2787.77938973974
 10
12106.8787341548
 20
2833.73041004333
  0
LWPOLYLINE
  5
20294
100
AcDbEntity
  8
0
100
AcDbPolyline
 70
0
 90
2
 38
0
 10
11632.8848175926
 20
2910.83284641214
 10
11700.3860896527
 20
2872.29330743472
  0
LWPOLYLINE
  5
20295
100
AcDbEntity
  8
0
100
AcDbPolyline
 70
0
 90
2
 38
0
 10
11683.3253462657
 20
2878.96356891385
 10
11759.7626853843
 20
2868.47712655116
  0
LWPOLYLINE
  5
20296
100
AcDbEntity
  8
0
100
AcDbPolyline
 70
0
 90
2
 38
0
 10
11700.7823156979
 20
2767.82848685046
 10
11729.3964956296
 20
2885.9812355763
  0
LWPOLYLINE
  5
20297
100
AcDbEntity
  8
0
100
AcDbPolyline
 70
0
 90
2
 38
0
 10
11736.4041635759
 20
2825.59205175589
 10
11753.0470190752
 20
2881.02172179805
  0
LWPOLYLINE
  5
20298
100
AcDbEntity
  8
0
100
AcDbPolyline
 70
0
 90
2
 38
0
 10
11744.8715921441
 20
2876.93743139967
 10
11790.7127546314
 20
2878.39610288305
  0
LWPOLYLINE
  5
20299
100
AcDbEntity
  8
0
100
AcDbPolyline
 70
0
 90
2
 38
0
 10
11773.7777737129
 20
2868.18535127481
 10
11792.1726390353
 20
2906.11091229185
  0
LWPOLYLINE
  5
2029A
100
AcDbEntity
  8
0
100
AcDbPolyline
 70
0
 90
2
 38
0
 10
11700.7823156979
 20
2911.07042607009
 10
11805.3118462344
 20
2887.43990705968
  0
LWPOLYLINE
  5
2029B
100
AcDbEntity
  8
0
100
AcDbPolyline
 70
0
 90
2
 38
0
 10
11710.4177508148
 20
2864.39283615278
 10
11718.3011761087
 20
2921.28117767834
  0
LWPOLYLINE
  5
2029C
100
AcDbEntity
  8
0
100
AcDbPolyline
 70
0
 90
2
 38
0
 10
11703.1182050133
 20
2823.84160499615
 10
11792.4646406724
 20
2812.46395718088
  0
LWPOLYLINE
  5
2029D
100
AcDbEntity
  8
0
100
AcDbPolyline
 70
0
 90
2
 38
0
 10
11759.1913078696
 20
2754.37434774703
 10
11788.6814927128
 20
2855.02293622313
  0
LWPOLYLINE
  5
2029E
100
AcDbEntity
  8
0
100
AcDbPolyline
 70
0
 90
2
 38
0
 10
11779.0460575958
 20
2850.06347366948
 10
11928.2488678528
 20
2826.43290343448
  0
LWPOLYLINE
  5
2029F
100
AcDbEntity
  8
0
100
AcDbPolyline
 70
0
 90
2
 38
0
 10
11883.5755881323
 20
2860.85767338124
 10
11873.6482751602
 20
2784.71477607082
  0
LWPOLYLINE
  5
202A0
100
AcDbEntity
  8
0
100
AcDbPolyline
 70
0
 90
2
 38
0
 10
11831.6028863922
 20
2803.38583252758
 10
11924.4530941335
 20
2784.13132796731
  0
LWPOLYLINE
  5
202A1
100
AcDbEntity
  8
0
100
AcDbPolyline
 70
0
 90
2
 38
0
 10
11900.2185674136
 20
2799.00981807744
 10
11879.4941256556
 20
2721.95333016771
  0
LWPOLYLINE
  5
202A2
100
AcDbEntity
  8
0
100
AcDbPolyline
 70
0
 90
2
 38
0
 10
11847.668051497
 20
2803.93091341164
 10
11835.4048492094
 20
2738.29054298582
  0
LWPOLYLINE
  5
202A3
100
AcDbEntity
  8
0
100
AcDbPolyline
 70
0
 90
2
 38
0
 10
11798.3231169275
 20
2742.08305810785
 10
11808.834556956
 20
2853.5258975203
  0
LWPOLYLINE
  5
202A4
100
AcDbEntity
  8
0
100
AcDbPolyline
 70
0
 90
2
 38
0
 10
11912.4240873091
 20
2776.07615841736
 10
11931.8430007638
 20
2850.15849528775
  0
LWPOLYLINE
  5
202A5
100
AcDbEntity
  8
0
100
AcDbPolyline
 70
0
 90
2
 38
0
 10
11920.6623954744
 20
2839.28131173686
 10
11966.5616116996
 20
2837.2234662002
  0
LWPOLYLINE
  5
202A6
100
AcDbEntity
  8
0
100
AcDbPolyline
 70
0
 90
2
 38
0
 10
11946.2600091077
 20
2830.46197372262
 10
11970.0923682485
 20
2872.50076703254
  0
LWPOLYLINE
  5
202A7
100
AcDbEntity
  8
0
100
AcDbPolyline
 70
0
 90
2
 38
0
 10
11948.9080765193
 20
2867.209164224
 10
12033.9393493665
 20
2843.69098074397
  0
LWPOLYLINE
  5
202A8
100
AcDbEntity
  8
0
100
AcDbPolyline
 70
0
 90
2
 38
0
 10
11795.032002248
 20
2877.26757389548
 10
11831.2217617458
 20
2957.22941821743
  0
LWPOLYLINE
  5
202A9
100
AcDbEntity
  8
0
100
AcDbPolyline
 70
0
 90
2
 38
0
 10
11800.9164727141
 20
2934.88714647263
 10
11977.7463017936
 20
2891.08453678444
  0
LWPOLYLINE
  5
202AA
100
AcDbEntity
  8
0
100
AcDbPolyline
 70
0
 90
2
 38
0
 10
11864.4693479016
 20
2884.32304430686
 10
11883.8964309655
 20
2971.40756570498
  0
LWPOLYLINE
  5
202AB
100
AcDbEntity
  8
0
100
AcDbPolyline
 70
0
 90
2
 38
0
 10
11948.0377655778
 20
2905.85058891502
 10
11930.678336328
 20
2859.69615575638
  0
LWPOLYLINE
  5
202AC
100
AcDbEntity
  8
0
100
AcDbPolyline
 70
0
 90
2
 38
0
 10
11898.3135630914
 20
2873.80704535456
 10
11948.3319952902
 20
2863.81184682968
  0
LWPOLYLINE
  5
202AD
100
AcDbEntity
  8
0
100
AcDbPolyline
 70
0
 90
2
 38
0
 10
11907.4345603939
 20
2877.92273642787
 10
11895.9597253921
 20
2848.81897220549
  0
LWPOLYLINE
  5
202AE
100
AcDbEntity
  8
0
100
AcDbPolyline
 70
0
 90
2
 38
0
 10
11873.3042851009
 20
2854.11057501403
 10
11911.5536525856
 20
2852.34670741118
  0
LWPOLYLINE
  5
202AF
100
AcDbEntity
  8
0
100
AcDbPolyline
 70
0
 90
2
 38
0
 10
11979.8140793896
 20
2847.93703840406
 10
12003.0579791056
 20
2919.66755180399
  0
LWPOLYLINE
  5
202B0
100
AcDbEntity
  8
0
100
AcDbPolyline
 70
0
 90
2
 38
0
 10
11986.8755924873
 20
2916.13981659829
 10
12070.4357167724
 20
2884.97820683925
  0
LWPOLYLINE
  5
202B1
100
AcDbEntity
  8
0
100
AcDbPolyline
 70
0
 90
2
 38
0
 10
11874.7408984969
 20
2953.17709196449
 10
11886.2135054234
 20
3043.44762931469
  0
LWPOLYLINE
  5
202B2
100
AcDbEntity
  8
0
100
AcDbPolyline
 70
0
 90
2
 38
0
 10
11839.3669858793
 20
3048.7014283743
 10
11930.6699191549
 20
3014.79028741208
  0
LWPOLYLINE
  5
202B3
100
AcDbEntity
  8
0
100
AcDbPolyline
 70
0
 90
2
 38
0
 10
11905.334599489
 20
3009.05881903155
 10
11945.0106778131
 20
3112.70276552812
  0
LWPOLYLINE
  5
202B4
100
AcDbEntity
  8
0
100
AcDbPolyline
 70
0
 90
2
 38
0
 10
11926.3676296664
 20
3101.71749808799
 10
12104.6713305111
 20
3049.65671579155
  0
LWPOLYLINE
  5
202B5
100
AcDbEntity
  8
0
100
AcDbPolyline
 70
0
 90
2
 38
0
 10
11736.5914456772
 20
3120.82232439028
 10
11935.642116596
 20
3100.2408467728
  0
LWPOLYLINE
  5
202B6
100
AcDbEntity
  8
0
100
AcDbPolyline
 70
0
 90
2
 38
0
 10
11710.6569410383
 20
3327.78189949769
 10
11766.0344695946
 20
3031.0648525541
  0
LWPOLYLINE
  5
202B7
100
AcDbEntity
  8
0
100
AcDbPolyline
 70
0
 90
2
 38
0
 10
11746.3150135477
 20
3052.28325674921
 10
11783.9337119601
 20
3058.04254008322
  0
LWPOLYLINE
  5
202B8
100
AcDbEntity
  8
0
100
AcDbPolyline
 70
0
 90
2
 38
0
 10
11774.5290064115
 20
3050.46452760827
 10
11779.989771238
 20
3129.27571391887
  0
LWPOLYLINE
  5
202B9
100
AcDbEntity
  8
0
100
AcDbPolyline
 70
0
 90
2
 38
0
 10
11770.2817998941
 20
3078.65470123133
 10
11822.1590657451
 20
3069.86420266243
  0
LWPOLYLINE
  5
202BA
100
AcDbEntity
  8
0
100
AcDbPolyline
 70
0
 90
2
 38
0
 10
11806.0801608431
 20
3078.35155409555
 10
11803.0463888526
 20
3047.73645950916
  0
LWPOLYLINE
  5
202BB
100
AcDbEntity
  8
0
100
AcDbPolyline
 70
0
 90
2
 38
0
 10
11794.855241613
 20
3054.10198589014
 10
11832.7773296027
 20
3047.73645950916
  0
LWPOLYLINE
  5
202BC
100
AcDbEntity
  8
0
100
AcDbPolyline
 70
0
 90
2
 38
0
 10
11827.013175199
 20
3055.01132484832
 10
11826.7097856218
 20
3014.39324559906
  0
LWPOLYLINE
  5
202BD
100
AcDbEntity
  8
0
100
AcDbPolyline
 70
0
 90
2
 38
0
 10
11769.6750207396
 20
3025.91181226708
 10
11896.1829042611
 20
3018.63694692791
  0
LWPOLYLINE
  5
202BE
100
AcDbEntity
  8
0
100
AcDbPolyline
 70
0
 90
2
 38
0
 10
11805.7767712658
 20
3030.15551359593
 10
11792.1248591998
 20
2973.4720704386
  0
LWPOLYLINE
  5
202BF
100
AcDbEntity
  8
0
100
AcDbPolyline
 70
0
 90
2
 38
0
 10
11754.5062845693
 20
2987.71870520574
 10
11780.5965503925
 20
3031.67109560109
  0
LWPOLYLINE
  5
202C0
100
AcDbEntity
  8
0
100
AcDbPolyline
 70
0
 90
2
 38
0
 10
11894.5577709442
 20
3095.49606648445
 10
11901.3793946087
 20
3170.47129921897
  0
LWPOLYLINE
  5
202C1
100
AcDbEntity
  8
0
100
AcDbPolyline
 70
0
 90
2
 38
0
 10
11886.2742823645
 20
3155.8657337353
 10
11924.280789649
 20
3161.70794968385
  0
LWPOLYLINE
  5
202C2
100
AcDbEntity
  8
0
100
AcDbPolyline
 70
0
 90
2
 38
0
 10
11912.586489237
 20
3153.43148989622
 10
11919.8954424672
 20
3189.45851385789
  0
LWPOLYLINE
  5
202C3
100
AcDbEntity
  8
0
100
AcDbPolyline
 70
0
 90
2
 38
0
 10
11970.5709092953
 20
3187.02427001882
 10
11960.3383500165
 20
3083.32479606447
  0
LWPOLYLINE
  5
202C4
100
AcDbEntity
  8
0
100
AcDbPolyline
 70
0
 90
2
 38
0
 10
11952.5421910025
 20
3136.87851909638
 10
12084.1033491471
 20
3095.98295623194
  0
LWPOLYLINE
  5
202C5
100
AcDbEntity
  8
0
100
AcDbPolyline
 70
0
 90
2
 38
0
 10
12039.275094416
 20
3043.88979999332
 10
12074.3579956521
 20
3134.4442240327
  0
LWPOLYLINE
  5
202C6
100
AcDbEntity
  8
0
100
AcDbPolyline
 70
0
 90
2
 38
0
 10
11973.9817211275
 20
2993.74404907088
 10
12012.9627637616
 20
3094.03555091576
  0
LWPOLYLINE
  5
202C7
100
AcDbEntity
  8
0
100
AcDbPolyline
 70
0
 90
2
 38
0
 10
11958.8959188686
 20
3072.03182249986
 10
12032.4727807368
 20
3044.7681480733
  0
LWPOLYLINE
  5
202C8
100
AcDbEntity
  8
0
100
AcDbPolyline
 70
0
 90
2
 38
0
 10
12022.2402214581
 20
3063.75536271223
 10
12011.5204563956
 20
2982.45107550627
  0
LWPOLYLINE
  5
202C9
100
AcDbEntity
  8
0
100
AcDbPolyline
 70
0
 90
2
 38
0
 10
12004.2115031653
 20
3000.95145162231
 10
12036.8581279186
 20
2983.42480377666
  0
LWPOLYLINE
  5
202CA
100
AcDbEntity
  8
0
100
AcDbPolyline
 70
0
 90
2
 38
0
 10
12012.4948679631
 20
2922.56829800292
 10
12028.0873097731
 20
2996.56980246704
  0
LWPOLYLINE
  5
202CB
100
AcDbEntity
  8
0
100
AcDbPolyline
 70
0
 90
2
 38
0
 10
11945.7397535413
 20
2956.64791664841
 10
11927.7052174966
 20
2892.8303221063
  0
LWPOLYLINE
  5
202CC
100
AcDbEntity
  8
0
100
AcDbPolyline
 70
0
 90
2
 38
0
 10
11819.0454543922
 20
2945.89715539072
 10
11892.1349866948
 20
2929.83102311377
  0
LWPOLYLINE
  5
202CD
100
AcDbEntity
  8
0
100
AcDbPolyline
 70
0
 90
2
 38
0
 10
11835.953327062
 20
3098.73130926951
 10
11864.9956687838
 20
3189.75530914427
  0
LWPOLYLINE
  5
202CE
100
AcDbEntity
  8
0
100
AcDbPolyline
 70
0
 90
2
 38
0
 10
11729.8726848191
 20
3147.90865927914
 10
11866.2183869576
 20
3148.21411152157
  0
LWPOLYLINE
  5
202CF
100
AcDbEntity
  8
0
100
AcDbPolyline
 70
0
 90
2
 38
0
 10
11806.6053676877
 20
3102.09123271163
 10
11816.0823618994
 20
3155.85036635768
  0
LWPOLYLINE
  5
202D0
100
AcDbEntity
  8
0
100
AcDbPolyline
 70
0
 90
2
 38
0
 10
11854.3120480529
 20
3178.16840887044
 10
12019.1068049921
 20
3164.06387112168
  0
LWPOLYLINE
  5
202D1
100
AcDbEntity
  8
0
100
AcDbPolyline
 70
0
 90
2
 38
0
 10
12002.5352479001
 20
3169.58301356812
 10
11993.3288410471
 20
3133.70833154323
  0
LWPOLYLINE
  5
202D2
100
AcDbEntity
  8
0
100
AcDbPolyline
 70
0
 90
2
 38
0
 10
11958.0376147769
 20
3153.94537500372
 10
12083.2447974915
 20
3124.81635705746
  0
LWPOLYLINE
  5
202D3
100
AcDbEntity
  8
0
100
AcDbPolyline
 70
0
 90
2
 38
0
 10
11941.0204426389
 20
3021.14382723853
 10
11996.4360157382
 20
2997.41434231626
  0
LWPOLYLINE
  5
202D4
100
AcDbEntity
  8
0
100
AcDbPolyline
 70
0
 90
2
 38
0
 10
11961.3064487042
 20
3025.59309285531
 10
11930.6299375827
 20
2970.71864616643
  0
LWPOLYLINE
  5
202D5
100
AcDbEntity
  8
0
100
AcDbPolyline
 70
0
 90
2
 38
0
 10
11901.9325761757
 20
2988.51575985812
 10
11968.7281672975
 20
2966.76374908757
  0
LWPOLYLINE
  5
202D6
100
AcDbEntity
  8
0
100
AcDbPolyline
 70
0
 90
2
 38
0
 10
11913.8073506814
 20
2992.47070816156
 10
11899.9534264611
 20
2948.96663539588
  0
LWPOLYLINE
  5
202D7
100
AcDbEntity
  8
0
100
AcDbPolyline
 70
0
 90
2
 38
0
 10
12272.7792353183
 20
3156.0430220484
 10
12243.1007781181
 20
2967.40236607673
  0
LWPOLYLINE
  5
202D8
100
AcDbEntity
  8
0
100
AcDbPolyline
 70
0
 90
2
 38
0
 10
12073.2836920451
 20
3010.07178533946
 10
12446.0773175933
 20
2948.82868756947
  0
LWPOLYLINE
  5
202D9
100
AcDbEntity
  8
0
100
AcDbPolyline
 70
0
 90
2
 38
0
 10
12195.3710743089
 20
2872.52576463347
 10
12228.0282205285
 20
2999.02791696602
  0
LWPOLYLINE
  5
202DA
100
AcDbEntity
  8
0
100
AcDbPolyline
 70
0
 90
2
 38
0
 10
12184.8203954
 20
2927.74495282688
 10
12274.7530624087
 20
2903.14731351847
  0
LWPOLYLINE
  5
202DB
100
AcDbEntity
  8
0
100
AcDbPolyline
 70
0
 90
2
 38
0
 10
12246.1152401232
 20
2861.98394848677
 10
12283.796572206
 20
2982.46219124275
  0
LWPOLYLINE
  5
202DC
100
AcDbEntity
  8
0
100
AcDbPolyline
 70
0
 90
2
 38
0
 10
12253.1490260625
 20
3069.80888010301
 10
12439.0434078721
 20
3067.80092731901
  0
LWPOLYLINE
  5
202DD
100
AcDbEntity
  8
0
100
AcDbPolyline
 70
0
 90
2
 38
0
 10
12350.1156027924
 20
3105.45038778487
 10
12345.5938478937
 20
3001.0359209746
  0
LWPOLYLINE
  5
202DE
100
AcDbEntity
  8
0
100
AcDbPolyline
 70
0
 90
2
 38
0
 10
12335.0430452029
 20
3027.13951206487
 10
12762.8593599181
 20
3066.34579033249
  0
LWPOLYLINE
  5
202DF
100
AcDbEntity
  8
0
100
AcDbPolyline
 70
0
 90
2
 38
0
 10
12586.5109188703
 20
3061.82788376236
 10
12606.1052313584
 20
2904.20218154266
  0
LWPOLYLINE
  5
202E0
100
AcDbEntity
  8
0
100
AcDbPolyline
 70
0
 90
2
 38
0
 10
12556.3659274732
 20
3055.80397418579
 10
12569.6591194271
 20
2814.56109197964
  0
LWPOLYLINE
  5
202E1
100
AcDbEntity
  8
0
100
AcDbPolyline
 70
0
 90
2
 38
0
 10
12488.4499858562
 20
2878.4783695779
 10
12574.692836501
 20
2882.50969374809
  0
LWPOLYLINE
  5
202E2
100
AcDbEntity
  8
0
100
AcDbPolyline
 70
0
 90
2
 38
0
 10
12504.0846373137
 20
2925.34272435784
 10
12500.0499644168
 20
2863.36081429663
  0
LWPOLYLINE
  5
202E3
100
AcDbEntity
  8
0
100
AcDbPolyline
 70
0
 90
2
 38
0
 10
12525.7714837893
 20
2955.07388738372
 10
12536.3049570061
 20
2709.66875095008
  0
LWPOLYLINE
  5
202E4
100
AcDbEntity
  8
0
100
AcDbPolyline
 70
0
 90
2
 38
0
 10
12519.0382404422
 20
2940.90147705048
 10
12693.3577714286
 20
2956.64299908757
  0
LWPOLYLINE
  5
202E5
100
AcDbEntity
  8
0
100
AcDbPolyline
 70
0
 90
2
 38
0
 10
12519.8357675929
 20
3016.44642969783
 10
12754.5138565777
 20
3038.36522774011
  0
LWPOLYLINE
  5
202E6
100
AcDbEntity
  8
0
100
AcDbPolyline
 70
0
 90
2
 38
0
 10
12521.3662077124
 20
2988.410800669
 10
12759.1053007183
 20
3013.38801420455
  0
LWPOLYLINE
  5
202E7
100
AcDbEntity
  8
0
100
AcDbPolyline
 70
0
 90
2
 38
0
 10
12545.3442582169
 20
2960.88490755571
 10
12757.0646313709
 20
2983.82317742908
  0
LWPOLYLINE
  5
202E8
100
AcDbEntity
  8
0
100
AcDbPolyline
 70
0
 90
2
 38
0
 10
12672.3764821093
 20
2980.25497479566
 10
12679.5188248251
 20
2918.06688575143
  0
LWPOLYLINE
  5
202E9
100
AcDbEntity
  8
0
100
AcDbPolyline
 70
0
 90
2
 38
0
 10
12510.5739064229
 20
2743.02897142475
 10
12763.7554175066
 20
2753.46060347393
  0
LWPOLYLINE
  5
202EA
100
AcDbEntity
  8
0
100
AcDbPolyline
 70
0
 90
2
 38
0
 10
12665.6148926941
 20
2846.30235922238
 10
12701.72926898
 20
2390.27727253158
  0
LWPOLYLINE
  5
202EB
100
AcDbEntity
  8
0
100
AcDbPolyline
 70
0
 90
2
 38
0
 10
12664.9067361166
 20
2389.75170821709
 10
12771.1659957238
 20
2426.01754122692
  0
LWPOLYLINE
  5
202EC
100
AcDbEntity
  8
0
100
AcDbPolyline
 70
0
 90
2
 38
0
 10
12709.6197498454
 20
2416.55687132015
 10
12717.5103544928
 20
2320.37363298273
  0
LWPOLYLINE
  5
202ED
100
AcDbEntity
  8
0
100
AcDbPolyline
 70
0
 90
2
 38
0
 10
12623.3499147339
 20
2313.01532278311
 10
12623.3499147339
 20
2390.27727253158
  0
LWPOLYLINE
  5
202EE
100
AcDbEntity
  8
0
100
AcDbPolyline
 70
0
 90
2
 38
0
 10
12629.6622994263
 20
2357.69059462156
 10
12573.9024887039
 20
2476.47432787233
  0
LWPOLYLINE
  5
202EF
100
AcDbEntity
  8
0
100
AcDbPolyline
 70
0
 90
2
 38
0
 10
12583.3710657424
 20
2424.44074583427
 10
12608.6208520758
 20
2572.65756620975
  0
LWPOLYLINE
  5
202F0
100
AcDbEntity
  8
0
100
AcDbPolyline
 70
0
 90
2
 38
0
 10
12584.4232123791
 20
2486.535349998
 10
12778.0044537345
 20
2514.39174417923
  0
LWPOLYLINE
  5
202F1
100
AcDbEntity
  8
0
100
AcDbPolyline
 70
0
 90
2
 38
0
 10
12615.4593100865
 20
2535.41539247533
 10
12588.1054780437
 20
2577.46268906754
  0
LWPOLYLINE
  5
202F2
100
AcDbEntity
  8
0
100
AcDbPolyline
 70
0
 90
2
 38
0
 10
12540.7622215051
 20
2570.10443009251
 10
12597.5740550822
 20
2574.30914950682
  0
LWPOLYLINE
  5
202F3
100
AcDbEntity
  8
0
100
AcDbPolyline
 70
0
 90
2
 38
0
 10
12559.6994993641
 20
2546.97842208925
 10
12559.6994993641
 20
2667.33884828351
  0
LWPOLYLINE
  5
202F4
100
AcDbEntity
  8
0
100
AcDbPolyline
 70
0
 90
2
 38
0
 10
12417.6697297483
 20
2559.06701601767
 10
12567.5901040115
 20
2563.27173543198
  0
LWPOLYLINE
  5
202F5
100
AcDbEntity
  8
0
100
AcDbPolyline
 70
0
 90
2
 38
0
 10
12497.101230631
 20
2571.68122548517
 10
12488.6846764472
 20
2521.22438761518
  0
LWPOLYLINE
  5
202F6
100
AcDbEntity
  8
0
100
AcDbPolyline
 70
0
 90
2
 38
0
 10
12438.1852275624
 20
2530.68505752194
 10
12614.4072872318
 20
2528.5826978148
  0
LWPOLYLINE
  5
202F7
100
AcDbEntity
  8
0
100
AcDbPolyline
 70
0
 90
2
 38
0
 10
12544.970436706
 20
2564.84853082463
 10
12541.8142443598
 20
2499.14955946549
  0
LWPOLYLINE
  5
202F8
100
AcDbEntity
  8
0
100
AcDbPolyline
 70
0
 90
2
 38
0
 10
12439.2372504171
 20
2503.87989441888
 10
12612.3031177404
 20
2508.61022937227
  0
LWPOLYLINE
  5
202F9
100
AcDbEntity
  8
0
100
AcDbPolyline
 70
0
 90
2
 38
0
 10
12437.1330809257
 20
2445.01361772028
 10
12468.1853940695
 20
2664.83038001054
  0
LWPOLYLINE
  5
202FA
100
AcDbEntity
  8
0
100
AcDbPolyline
 70
0
 90
2
 38
0
 10
12452.4043085566
 20
2619.62954385761
 10
12574.970726995
 20
2621.73190356476
  0
LWPOLYLINE
  5
202FB
100
AcDbEntity
  8
0
100
AcDbPolyline
 70
0
 90
2
 38
0
 10
12552.3511834715
 20
2633.29493317868
 10
12766.9738721773
 20
2651.69060622855
  0
LWPOLYLINE
  5
202FC
100
AcDbEntity
  8
0
100
AcDbPolyline
 70
0
 90
2
 38
0
 10
12598.116343837
 20
2677.97020501713
 10
12611.7932598584
 20
2574.42865648008
  0
LWPOLYLINE
  5
202FD
100
AcDbEntity
  8
0
100
AcDbPolyline
 70
0
 90
2
 38
0
 10
12600.2205133284
 20
2582.31253099419
 10
12773.812330188
 20
2598.08028002242
  0
LWPOLYLINE
  5
202FE
100
AcDbEntity
  8
0
100
AcDbPolyline
 70
0
 90
2
 38
0
 10
12598.6424171553
 20
2607.01533439011
 10
12763.2916065128
 20
2627.51341837172
  0
LWPOLYLINE
  5
202FF
100
AcDbEntity
  8
0
100
AcDbPolyline
 70
0
 90
2
 38
0
 10
12601.2725361832
 20
2562.86562686616
 10
12769.0780416688
 20
2576.00545187274
  0
LWPOLYLINE
  5
20300
100
AcDbEntity
  8
0
100
AcDbPolyline
 70
0
 90
2
 38
0
 10
12591.2778858263
 20
2515.56237978148
 10
12775.9164996795
 20
2544.46995381629
  0
LWPOLYLINE
  5
20301
100
AcDbEntity
  8
0
100
AcDbPolyline
 70
0
 90
2
 38
0
 10
12505.5295441007
 20
2513.31029059175
 10
12510.7618074341
 20
2335.53580488367
  0
LWPOLYLINE
  5
20302
100
AcDbEntity
  8
0
100
AcDbPolyline
 70
0
 90
2
 38
0
 10
12379.2528852754
 20
2320.81923570902
 10
12525.4908700922
 20
2344.99647479045
  0
LWPOLYLINE
  5
20303
100
AcDbEntity
  8
0
100
AcDbPolyline
 70
0
 90
2
 38
0
 10
12500.2410837588
 20
2360.23860827959
 10
12605.4483205113
 20
2353.93152915814
  0
LWPOLYLINE
  5
20304
100
AcDbEntity
  8
0
100
AcDbPolyline
 70
0
 90
2
 38
0
 10
12581.2506808146
 20
2306.62828207346
 10
12613.3388013767
 20
2419.63044929268
  0
LWPOLYLINE
  5
20305
100
AcDbEntity
  8
0
100
AcDbPolyline
 70
0
 90
2
 38
0
 10
12481.8298792181
 20
2403.33713594997
 10
12612.286778522
 20
2388.09495123623
  0
LWPOLYLINE
  5
20306
100
AcDbEntity
  8
0
100
AcDbPolyline
 70
0
 90
2
 38
0
 10
12427.6481646688
 20
2456.42184661701
 10
12597.0317663275
 20
2449.06358764198
  0
LWPOLYLINE
  5
20307
100
AcDbEntity
  8
0
100
AcDbPolyline
 70
0
 90
2
 38
0
 10
12466.0487937052
 20
2465.88251652378
 10
12473.4133250343
 20
2391.24849079696
  0
LWPOLYLINE
  5
20308
100
AcDbEntity
  8
0
100
AcDbPolyline
 70
0
 90
2
 38
0
 10
12396.6120669614
 20
2407.01623982519
 10
12476.5695173805
 20
2424.36078424607
  0
LWPOLYLINE
  5
20309
100
AcDbEntity
  8
0
100
AcDbPolyline
 70
0
 90
2
 38
0
 10
12448.6896120193
 20
2426.98875949231
 10
12466.5748670236
 20
2324.49839080883
  0
LWPOLYLINE
  5
2030A
100
AcDbEntity
  8
0
100
AcDbPolyline
 70
0
 90
2
 38
0
 10
12386.3844589609
 20
2378.70502249108
 10
12462.7158407241
 20
2394.06430662226
  0
LWPOLYLINE
  5
2030B
100
AcDbEntity
  8
0
100
AcDbPolyline
 70
0
 90
2
 38
0
 10
12382.6739710102
 20
2355.4012139288
 10
12470.1369404076
 20
2373.40870702008
  0
LWPOLYLINE
  5
2030C
100
AcDbEntity
  8
0
100
AcDbPolyline
 70
0
 90
2
 38
0
 10
12304.1398893176
 20
2382.97469468811
 10
12324.7592401938
 20
2269.66410420012
  0
LWPOLYLINE
  5
2030D
100
AcDbEntity
  8
0
100
AcDbPolyline
 70
0
 90
2
 38
0
 10
12107.5909755369
 20
2349.08122621015
 10
12232.3047633699
 20
2319.50747635566
  0
LWPOLYLINE
  5
2030E
100
AcDbEntity
  8
0
100
AcDbPolyline
 70
0
 90
2
 38
0
 10
12243.9447235026
 20
2302.89303604535
 10
12335.4015177511
 20
2313.52628808886
  0
LWPOLYLINE
  5
2030F
100
AcDbEntity
  8
0
100
AcDbPolyline
 70
0
 90
2
 38
0
 10
12248.9332601621
 20
2344.7614563621
 10
12376.9726978408
 20
2357.38842075301
  0
LWPOLYLINE
  5
20310
100
AcDbEntity
  8
0
100
AcDbPolyline
 70
0
 90
2
 38
0
 10
12347.3739562211
 20
2277.97134996758
 10
12395.6179740626
 20
2464.78426127011
  0
LWPOLYLINE
  5
20311
100
AcDbEntity
  8
0
100
AcDbPolyline
 70
0
 90
2
 38
0
 10
12251.9475983853
 20
2451.16041509319
 10
12398.27841967
 20
2430.89074156756
  0
LWPOLYLINE
  5
20312
100
AcDbEntity
  8
0
100
AcDbPolyline
 70
0
 90
2
 38
0
 10
12988.0866964662
 20
3049.95981170274
 10
13312.1588771637
 20
3074.33175545857
  0
LWPOLYLINE
  5
20313
100
AcDbEntity
  8
0
100
AcDbPolyline
 70
0
 90
2
 38
0
 10
12800.3589800876
 20
3193.03865182126
 10
12824.901971445
 20
2343.41030529744
  0
LWPOLYLINE
  5
20314
100
AcDbEntity
  8
0
100
AcDbPolyline
 70
0
 90
2
 38
0
 10
12751.7937480669
 20
2359.33049871163
 10
13108.6896854986
 20
2409.95811937153
  0
LWPOLYLINE
  5
20315
100
AcDbEntity
  8
0
100
AcDbPolyline
 70
0
 90
2
 38
0
 10
13135.1292640051
 20
2655.02599309108
 10
13104.0036719426
 20
2389.73654573784
  0
LWPOLYLINE
  5
20316
100
AcDbEntity
  8
0
100
AcDbPolyline
 70
0
 90
2
 38
0
 10
12801.0457223865
 20
2657.5450648546
 10
13143.0604691345
 20
2615.68156209869
  0
LWPOLYLINE
  5
20317
100
AcDbEntity
  8
0
100
AcDbPolyline
 70
0
 90
2
 38
0
 10
12927.8287731989
 20
2690.01279926187
 10
12907.9524854121
 20
2529.43466522986
  0
LWPOLYLINE
  5
20318
100
AcDbEntity
  8
0
100
AcDbPolyline
 70
0
 90
2
 38
0
 10
12866.4961749788
 20
2506.73807298181
 10
12918.1745232245
 20
2549.29413222232
  0
LWPOLYLINE
  5
20319
100
AcDbEntity
  8
0
100
AcDbPolyline
 70
0
 90
2
 38
0
 10
12872.7430790158
 20
2522.05827274925
 10
12871.0393441561
 20
2362.61496832965
  0
LWPOLYLINE
  5
2031A
100
AcDbEntity
  8
0
100
AcDbPolyline
 70
0
 90
2
 38
0
 10
12810.8425691757
 20
2511.84480623763
 10
12882.9651168281
 20
2512.41222104383
  0
LWPOLYLINE
  5
2031B
100
AcDbEntity
  8
0
100
AcDbPolyline
 70
0
 90
2
 38
0
 10
12860.8173063436
 20
2450.56410961707
 10
13119.2089237903
 20
2461.9124057411
  0
LWPOLYLINE
  5
2031C
100
AcDbEntity
  8
0
100
AcDbPolyline
 70
0
 90
2
 38
0
 10
13020.9633080961
 20
2536.24364290428
 10
13023.2348307937
 20
2390.98565741512
  0
LWPOLYLINE
  5
2031D
100
AcDbEntity
  8
0
100
AcDbPolyline
 70
0
 90
2
 38
0
 10
12946.0013261261
 20
2603.19848758685
 10
13029.4817348307
 20
2521.49085794305
  0
LWPOLYLINE
  5
2031E
100
AcDbEntity
  8
0
100
AcDbPolyline
 70
0
 90
2
 38
0
 10
12983.4822552201
 20
2550.99637664092
 10
13131.7026080823
 20
2544.18739896651
  0
LWPOLYLINE
  5
2031F
100
AcDbEntity
  8
0
100
AcDbPolyline
 70
0
 90
2
 38
0
 10
13006.1981011064
 20
2512.41222104383
 10
13122.6162697278
 20
2504.4684649816
  0
LWPOLYLINE
  5
20320
100
AcDbEntity
  8
0
100
AcDbPolyline
 70
0
 90
2
 38
0
 10
12808.571046478
 20
2603.19848758685
 10
13140.7888226549
 20
2577.09740650159
  0
LWPOLYLINE
  5
20321
100
AcDbEntity
  8
0
100
AcDbPolyline
 70
0
 90
2
 38
0
 10
13039.1358610232
 20
2578.232236114
 10
13051.6295453152
 20
2633.83883589713
  0
LWPOLYLINE
  5
20322
100
AcDbEntity
  8
0
100
AcDbPolyline
 70
0
 90
2
 38
0
 10
12799.4847081235
 20
2578.232236114
 10
12935.2113766937
 20
2563.47950237735
  0
LWPOLYLINE
  5
20323
100
AcDbEntity
  8
0
100
AcDbPolyline
 70
0
 90
2
 38
0
 10
12805.1637005406
 20
2544.75481377271
 10
12924.1514588127
 20
2542.76494326971
  0
LWPOLYLINE
  5
20324
100
AcDbEntity
  8
0
100
AcDbPolyline
 70
0
 90
2
 38
0
 10
12855.6268813119
 20
2409.73544606987
 10
13041.6982713204
 20
2428.87367080618
  0
LWPOLYLINE
  5
20325
100
AcDbEntity
  8
0
100
AcDbPolyline
 70
0
 90
2
 38
0
 10
12955.0473115625
 20
2363.25686369269
 10
12949.5746636682
 20
2492.66775326054
  0
LWPOLYLINE
  5
20326
100
AcDbEntity
  8
0
100
AcDbPolyline
 70
0
 90
2
 38
0
 10
12845.5936109843
 20
2488.11101844963
 10
13036.2254996441
 20
2476.26353867602
  0
LWPOLYLINE
  5
20327
100
AcDbEntity
  8
0
100
AcDbPolyline
 70
0
 90
2
 38
0
 10
12971.6454817752
 20
2801.43361209975
 10
12977.9402894297
 20
2663.63587374839
  0
LWPOLYLINE
  5
20328
100
AcDbEntity
  8
0
100
AcDbPolyline
 70
0
 90
2
 38
0
 10
12901.2577382538
 20
2800.29007430669
 10
12908.697033885
 20
2671.64068952435
  0
LWPOLYLINE
  5
20329
100
AcDbEntity
  8
0
100
AcDbPolyline
 70
0
 90
2
 38
0
 10
12806.262884321
 20
2752.83274364911
 10
12993.9636162329
 20
2760.83761064966
  0
LWPOLYLINE
  5
2032A
100
AcDbEntity
  8
0
100
AcDbPolyline
 70
0
 90
2
 38
0
 10
12889.8126109217
 20
2728.24642497553
 10
13105.5539171753
 20
2729.96173166511
  0
LWPOLYLINE
  5
2032B
100
AcDbEntity
  8
0
100
AcDbPolyline
 70
0
 90
2
 38
0
 10
13081.5190507525
 20
2794.00051399572
 10
13084.3803944764
 20
2643.62375747161
  0
LWPOLYLINE
  5
2032C
100
AcDbEntity
  8
0
100
AcDbPolyline
 70
0
 90
2
 38
0
 10
12853.7416821028
 20
2826.95723835876
 10
12847.4227369667
 20
2910.75657299456
  0
LWPOLYLINE
  5
2032D
100
AcDbEntity
  8
0
100
AcDbPolyline
 70
0
 90
2
 38
0
 10
12762.9780668151
 20
2903.29499401736
 10
13037.5668009329
 20
2899.27719313947
  0
LWPOLYLINE
  5
2032E
100
AcDbEntity
  8
0
100
AcDbPolyline
 70
0
 90
2
 38
0
 10
12952.5476587176
 20
2946.91652477262
 10
12947.3775339268
 20
2871.1527918926
  0
LWPOLYLINE
  5
2032F
100
AcDbEntity
  8
0
100
AcDbPolyline
 70
0
 90
2
 38
0
 10
13243.5928327072
 20
3027.21245588396
 10
13237.0805401538
 20
2886.95542486801
  0
LWPOLYLINE
  5
20330
100
AcDbEntity
  8
0
100
AcDbPolyline
 70
0
 90
2
 38
0
 10
13234.1861466473
 20
2894.54665328771
 10
13275.4305423698
 20
2851.52967516789
  0
LWPOLYLINE
  5
20331
100
AcDbEntity
  8
0
100
AcDbPolyline
 70
0
 90
2
 38
0
 10
13256.2554793708
 20
2863.82024766278
 10
13311.9715950624
 20
2854.78305145854
  0
LWPOLYLINE
  5
20332
100
AcDbEntity
  8
0
100
AcDbPolyline
 70
0
 90
2
 38
0
 10
13297.8616897544
 20
2865.62765616888
 10
13306.9170826197
 20
2804.78001224956
  0
LWPOLYLINE
  5
20333
100
AcDbEntity
  8
0
100
AcDbPolyline
 70
0
 90
2
 38
0
 10
13201.2735144679
 20
2815.26312501376
 10
13311.6203018676
 20
2821.04694492737
  0
LWPOLYLINE
  5
20334
100
AcDbEntity
  8
0
100
AcDbPolyline
 70
0
 90
2
 38
0
 10
13227.6843755603
 20
2856.83413534904
 10
13233.8348534526
 20
2731.03662850481
  0
LWPOLYLINE
  5
20335
100
AcDbEntity
  8
0
100
AcDbPolyline
 70
0
 90
2
 38
0
 10
13186.8017944988
 20
2856.83413534904
 10
13189.3343733444
 20
2742.60421710742
  0
LWPOLYLINE
  5
20336
100
AcDbEntity
  8
0
100
AcDbPolyline
 70
0
 90
2
 38
0
 10
13149.1754216051
 20
2810.20228899243
 10
13195.4848512366
 20
2820.32396103509
  0
LWPOLYLINE
  5
20337
100
AcDbEntity
  8
0
100
AcDbPolyline
 70
0
 90
2
 38
0
 10
13221.172083007
 20
2781.28334309819
 10
13313.7910660521
 20
2777.30698291527
  0
LWPOLYLINE
  5
20338
100
AcDbEntity
  8
0
100
AcDbPolyline
 70
0
 90
2
 38
0
 10
13262.7782933906
 20
2745.13460950579
 10
13263.1401080516
 20
2801.16514401278
  0
LWPOLYLINE
  5
20339
100
AcDbEntity
  8
0
100
AcDbPolyline
 70
0
 90
2
 38
0
 10
13254.0952366528
 20
2790.32048807784
 10
13309.4495376832
 20
2812.00974872312
  0
LWPOLYLINE
  5
2033A
100
AcDbEntity
  8
0
100
AcDbPolyline
 70
0
 90
2
 38
0
 10
13242.1560955293
 20
2731.03662850481
 10
13271.4613501283
 20
2754.53329765618
  0
LWPOLYLINE
  5
2033B
100
AcDbEntity
  8
0
100
AcDbPolyline
 70
0
 90
2
 38
0
 10
13170.1570822702
 20
2920.19788000554
 10
13172.3278464546
 20
2835.24834837971
  0
LWPOLYLINE
  5
2033C
100
AcDbEntity
  8
0
100
AcDbPolyline
 70
0
 90
2
 38
0
 10
13149.89669907
 20
2876.81940993958
 10
13257.3492167452
 20
2875.73493410116
  0
LWPOLYLINE
  5
2033D
100
AcDbEntity
  8
0
100
AcDbPolyline
 70
0
 90
2
 38
0
 10
12884.8113247206
 20
2391.29730783319
 10
12885.7737294383
 20
1844.19192544096
  0
LWPOLYLINE
  5
2033E
100
AcDbEntity
  8
0
100
AcDbPolyline
 70
0
 90
2
 38
0
 10
13007.9900925016
 20
1862.46081762549
 10
12976.2330886752
 20
2309.56801018694
  0
LWPOLYLINE
  5
2033F
100
AcDbEntity
  8
0
100
AcDbPolyline
 70
0
 90
2
 38
0
 10
12902.1333718194
 20
1907.65227967808
 10
13075.3534714614
 20
1941.3055048193
  0
LWPOLYLINE
  5
20340
100
AcDbEntity
  8
0
100
AcDbPolyline
 70
0
 90
2
 38
0
 10
13064.7678860405
 20
1912.45991254088
 10
13061.8807956695
 20
2411.48922242808
  0
LWPOLYLINE
  5
20341
100
AcDbEntity
  8
0
100
AcDbPolyline
 70
0
 90
2
 38
0
 10
12994.5174167097
 20
2399.95098551671
 10
13012.8017447442
 20
2277.83780745609
  0
LWPOLYLINE
  5
20342
100
AcDbEntity
  8
0
100
AcDbPolyline
 70
0
 90
2
 38
0
 10
12898.2840005126
 20
2279.76088109105
 10
13079.2028427682
 20
2314.37564304975
  0
LWPOLYLINE
  5
20343
100
AcDbEntity
  8
0
100
AcDbPolyline
 70
0
 90
2
 38
0
 10
12908.8697097154
 20
2303.79889173126
 10
12908.8697097154
 20
1890.34492431103
  0
LWPOLYLINE
  5
20344
100
AcDbEntity
  8
0
100
AcDbPolyline
 70
0
 90
2
 38
0
 10
12895.9915586642
 20
2238.4372855354
 10
13112.0975265639
 20
2234.54677776877
  0
LWPOLYLINE
  5
20345
100
AcDbEntity
  8
0
100
AcDbPolyline
 70
0
 90
2
 38
0
 10
12865.8146315221
 20
2171.32600094869
 10
13330.1502133054
 20
2143.11979402831
  0
LWPOLYLINE
  5
20346
100
AcDbEntity
  8
0
100
AcDbPolyline
 70
0
 90
2
 38
0
 10
12877.4960586106
 20
2129.5030168451
 10
13082.8940207337
 20
2135.33877849505
  0
LWPOLYLINE
  5
20347
100
AcDbEntity
  8
0
100
AcDbPolyline
 70
0
 90
2
 38
0
 10
12855.1067495275
 20
2066.28224002502
 10
13070.2391723333
 20
2086.70743141214
  0
LWPOLYLINE
  5
20348
100
AcDbEntity
  8
0
100
AcDbPolyline
 70
0
 90
2
 38
0
 10
12841.4784798153
 20
2031.26767012533
 10
13074.1329813628
 20
2005.97931841763
  0
LWPOLYLINE
  5
20349
100
AcDbEntity
  8
0
100
AcDbPolyline
 70
0
 90
2
 38
0
 10
12856.0801708394
 20
1956.37531878077
 10
13019.619778732
 20
1974.85525628457
  0
LWPOLYLINE
  5
2034A
100
AcDbEntity
  8
0
100
AcDbPolyline
 70
0
 90
2
 38
0
 10
13287.2023302871
 20
2185.51946458927
 10
13282.5118605807
 20
1901.20397435633
  0
LWPOLYLINE
  5
2034B
100
AcDbEntity
  8
0
100
AcDbPolyline
 70
0
 90
2
 38
0
 10
13310.654802601
 20
2412.03450821051
 10
13305.9643328946
 20
2124.59472765891
  0
LWPOLYLINE
  5
2034C
100
AcDbEntity
  8
0
100
AcDbPolyline
 70
0
 90
2
 38
0
 10
13111.6166336599
 20
2396.34011279811
 10
13358.518438488
 20
2372.9346234206
  0
LWPOLYLINE
  5
2034D
100
AcDbEntity
  8
0
100
AcDbPolyline
 70
0
 90
2
 38
0
 10
13321.5924239083
 20
2369.24517217778
 10
13467.4502743344
 20
2405.52509195044
  0
LWPOLYLINE
  5
2034E
100
AcDbEntity
  8
0
100
AcDbPolyline
 70
0
 90
2
 38
0
 10
13447.9224327572
 20
2424.2658138524
 10
13665.2279716047
 20
2375.68604993369
  0
LWPOLYLINE
  5
2034F
100
AcDbEntity
  8
0
100
AcDbPolyline
 70
0
 90
2
 38
0
 10
13640.4213246783
 20
2313.22631687779
 10
13651.3362938875
 20
2622.55067744418
  0
LWPOLYLINE
  5
20350
100
AcDbEntity
  8
0
100
AcDbPolyline
 70
0
 90
2
 38
0
 10
13576.9166006722
 20
2637.42204733602
 10
13548.1410090682
 20
2371.72034446592
  0
LWPOLYLINE
  5
20351
100
AcDbEntity
  8
0
100
AcDbPolyline
 70
0
 90
2
 38
0
 10
12259.9259644404
 20
1551.22214282939
 10
12368.4076053082
 20
1562.12529724845
  0
LWPOLYLINE
  5
20352
100
AcDbEntity
  8
0
100
AcDbPolyline
 70
0
 90
2
 38
0
 10
12339.5219715443
 20
1574.31116667718
 10
12358.1371687506
 20
1408.1985740457
  0
LWPOLYLINE
  5
20353
100
AcDbEntity
  8
0
100
AcDbPolyline
 70
0
 90
2
 38
0
 10
12517.4601442691
 20
1110.87132028631
 10
12814.276404452
 20
1107.79277352836
  0
LWPOLYLINE
  5
20354
100
AcDbEntity
  8
0
100
AcDbPolyline
 70
0
 90
2
 38
0
 10
12674.5981206782
 20
1136.52577415344
 10
12660.2194847411
 20
897.426231328092
  0
LWPOLYLINE
  5
20355
100
AcDbEntity
  8
0
100
AcDbPolyline
 70
0
 90
2
 38
0
 10
12068.4461693734
 20
899.502876290026
 10
12444.5496006768
 20
955.541094485823
  0
LWPOLYLINE
  5
20356
100
AcDbEntity
  8
0
100
AcDbPolyline
 70
0
 90
2
 38
0
 10
11943.5834718459
 20
963.149022122532
 10
12117.6008510746
 20
922.276510324533
  0
LWPOLYLINE
  5
20357
100
AcDbEntity
  8
0
100
AcDbPolyline
 70
0
 90
2
 38
0
 10
11961.7644419461
 20
1064.35708559307
 10
11955.9205719619
 20
845.072905386412
  0
LWPOLYLINE
  5
20358
100
AcDbEntity
  8
0
100
AcDbPolyline
 70
0
 90
2
 38
0
 10
11857.8735025271
 20
844.424145928031
 10
12015.657868317
 20
867.779845002064
  0
LWPOLYLINE
  5
20359
100
AcDbEntity
  8
0
100
AcDbPolyline
 70
0
 90
2
 38
0
 10
11992.9037738058
 20
853.367396230446
 10
12024.7204405357
 20
955.873029842347
  0
LWPOLYLINE
  5
2035A
100
AcDbEntity
  8
0
100
AcDbPolyline
 70
0
 90
2
 38
0
 10
11907.193804487
 20
879.318235587205
 10
11898.7526176937
 20
711.935580420293
  0
LWPOLYLINE
  5
2035B
100
AcDbEntity
  8
0
100
AcDbPolyline
 70
0
 90
2
 38
0
 10
11421.846606805
 20
766.781187663844
 10
12323.6200748412
 20
677.510451901384
  0
LWPOLYLINE
  5
2035C
100
AcDbEntity
  8
0
100
AcDbPolyline
 70
0
 90
2
 38
0
 10
12245.7018083859
 20
631.837068886736
 10
12258.1687557752
 20
801.03625053713
  0
LWPOLYLINE
  5
2035D
100
AcDbEntity
  8
0
100
AcDbPolyline
 70
0
 90
2
 38
0
 10
11945.4570355509
 20
791.693960662596
 10
12282.0636248044
 20
774.047396046953
  0
LWPOLYLINE
  5
2035E
100
AcDbEntity
  8
0
100
AcDbPolyline
 70
0
 90
2
 38
0
 10
12381.863570536
 20
3815.15573885754
 10
13761.3924412516
 20
3943.61687326407
  0
LWPOLYLINE
  5
2035F
100
AcDbEntity
  8
0
100
AcDbPolyline
 70
0
 90
2
 38
0
 10
13680.909412642
 20
3922.45502101861
 10
13812.2237495638
 20
3970.06920137706
  0
LWPOLYLINE
  5
20360
100
AcDbEntity
  8
0
100
AcDbPolyline
 70
0
 90
2
 38
0
 10
13743.3895933879
 20
3952.0816346521
 10
14627.8255415806
 20
3994.57489254275
  0
LWPOLYLINE
  5
20361
100
AcDbEntity
  8
0
100
AcDbPolyline
 70
0
 90
2
 38
0
 10
13530.0975607226
 20
3768.11358351857
 10
13365.5922059994
 20
4842.67408254451
  0
LWPOLYLINE
  5
20362
100
AcDbEntity
  8
0
100
AcDbPolyline
 70
0
 90
2
 38
0
 10
13524.7207200631
 20
3829.77467395973
 10
13503.0488512044
 20
3598.08164367513
  0
LWPOLYLINE
  5
20363
100
AcDbEntity
  8
0
100
AcDbPolyline
 70
0
 90
2
 38
0
 10
13498.714502189
 20
3632.72734528742
 10
13553.9930486616
 20
3449.44631838254
  0
LWPOLYLINE
  5
20364
100
AcDbEntity
  8
0
100
AcDbPolyline
 70
0
 90
2
 38
0
 10
13551.8258741539
 20
3501.41484518869
 10
13543.1571761231
 20
3271.88718085947
  0
LWPOLYLINE
  5
20365
100
AcDbEntity
  8
0
100
AcDbPolyline
 70
0
 90
2
 38
0
 10
13821.719434851
 20
3985.6705217057
 10
13857.7528577369
 20
3721.64872933207
  0
LWPOLYLINE
  5
20366
100
AcDbEntity
  8
0
100
AcDbPolyline
 70
0
 90
2
 38
0
 10
13823.9033199229
 20
3732.55874784647
 10
13937.4631155873
 20
3751.10573834126
  0
LWPOLYLINE
  5
20367
100
AcDbEntity
  8
0
100
AcDbPolyline
 70
0
 90
2
 38
0
 10
13881.7750984001
 20
3748.92372439347
 10
14043.0191698953
 20
3690.83385883665
  0
LWPOLYLINE
  5
20368
100
AcDbEntity
  8
0
100
AcDbPolyline
 70
0
 90
2
 38
0
 10
14007.3449622494
 20
3695.98725769583
 10
14107.9205257252
 20
3699.42283986042
  0
LWPOLYLINE
  5
20369
100
AcDbEntity
  8
0
100
AcDbPolyline
 70
0
 90
2
 38
0
 10
14074.5510143415
 20
3701.98360844187
 10
14312.6660331516
 20
3648.30269474789
  0
LWPOLYLINE
  5
2036A
100
AcDbEntity
  8
0
100
AcDbPolyline
 70
0
 90
2
 38
0
 10
11496.7348147285
 20
3403.96349085034
 10
11822.6935562366
 20
3272.2893451317
  0
LWPOLYLINE
  5
2036B
100
AcDbEntity
  8
0
100
AcDbPolyline
 70
0
 90
2
 38
0
 10
11704.9278972285
 20
3249.17629695024
 10
11919.429774744
 20
3317.81499642287
  0
LWPOLYLINE
  5
2036C
100
AcDbEntity
  8
0
100
AcDbPolyline
 70
0
 90
2
 38
0
 10
11869.6596491514
 20
3315.71376365674
 10
11958.6849944134
 20
3308.00943133778
  0
LWPOLYLINE
  5
2036D
100
AcDbEntity
  8
0
100
AcDbPolyline
 70
0
 90
2
 38
0
 10
11923.6356380878
 20
3301.70588671318
 10
12012.6609833498
 20
3344.42996261563
  0
LWPOLYLINE
  5
2036E
100
AcDbEntity
  8
0
100
AcDbPolyline
 70
0
 90
2
 38
0
 10
11997.2392368588
 20
3324.81893489464
 10
12031.5876159605
 20
3401.86230930881
  0
LWPOLYLINE
  5
2036F
100
AcDbEntity
  8
0
100
AcDbPolyline
 70
0
 90
2
 38
0
 10
12005.6510873282
 20
3373.14611034992
 10
12164.0740442356
 20
3483.80844065322
  0
LWPOLYLINE
  5
20370
100
AcDbEntity
  8
0
100
AcDbPolyline
 70
0
 90
2
 38
0
 10
12131.1277433638
 20
3474.00292679273
 10
12293.7565636149
 20
3487.31040988911
  0
LWPOLYLINE
  5
20371
100
AcDbEntity
  8
0
100
AcDbPolyline
 70
0
 90
2
 38
0
 10
12241.6704776019
 20
3456.31415311324
 10
12765.2049042261
 20
3314.57309444084
  0
LWPOLYLINE
  5
20372
100
AcDbEntity
  8
0
100
AcDbPolyline
 70
0
 90
2
 38
0
 10
12751.1573850247
 20
3188.4777165938
 10
12745.6045264221
 20
3755.73265084329
  0
LWPOLYLINE
  5
20373
100
AcDbEntity
  8
0
100
AcDbPolyline
 70
0
 90
2
 38
0
 10
12752.7498399048
 20
3727.88937015762
 10
12439.5580932503
 20
4245.63245781136
  0
LWPOLYLINE
  5
20374
100
AcDbEntity
  8
0
100
AcDbPolyline
 70
0
 90
2
 38
0
 10
12489.0957563272
 20
4258.29420370029
 10
12791.0887017446
 20
3740.11596313704
  0
LWPOLYLINE
  5
20375
100
AcDbEntity
  8
0
100
AcDbPolyline
 70
0
 90
2
 38
0
 10
12780.2052969346
 20
3777.81316492268
 10
12797.9371860938
 20
3193.00453624295
  0
LWPOLYLINE
  5
20376
100
AcDbEntity
  8
0
100
AcDbPolyline
 70
0
 90
2
 38
0
 10
12390.6178018992
 20
3401.94933989071
 10
12454.4657732728
 20
3539.92236879608
  0
LWPOLYLINE
  5
20377
100
AcDbEntity
  8
0
100
AcDbPolyline
 70
0
 90
2
 38
0
 10
12444.8143702834
 20
3499.86571107575
 10
12458.1784892988
 20
3836.27579183589
  0
LWPOLYLINE
  5
20378
100
AcDbEntity
  8
0
100
AcDbPolyline
 70
0
 90
2
 38
0
 10
12442.9372169015
 20
3511.24243684836
 10
13064.5625317735
 20
3526.64992332066
  0
LWPOLYLINE
  5
20379
100
AcDbEntity
  8
0
100
AcDbPolyline
 70
0
 90
2
 38
0
 10
13071.3230071511
 20
3508.38359236573
 10
13547.6853676836
 20
3476.09703934056
  0
LWPOLYLINE
  5
2037A
100
AcDbEntity
  8
0
100
AcDbPolyline
 70
0
 90
2
 38
0
 10
13168.7412642431
 20
3692.01689079018
 10
13161.851684284
 20
3487.79924617111
  0
LWPOLYLINE
  5
2037B
100
AcDbEntity
  8
0
100
AcDbPolyline
 70
0
 90
2
 38
0
 10
13155.7275719486
 20
3499.272120503
 10
13172.5687261435
 20
3475.56143500603
  0
LWPOLYLINE
  5
2037C
100
AcDbEntity
  8
0
100
AcDbPolyline
 70
0
 90
2
 38
0
 10
13168.7412642431
 20
3487.03436056252
 10
13168.7448539198
 20
3231.92206148515
  0
LWPOLYLINE
  5
2037D
100
AcDbEntity
  8
0
100
AcDbPolyline
 70
0
 90
2
 38
0
 10
12928.2722839518
 20
3702.47034451559
 10
13345.8056601316
 20
3648.28742981946
  0
LWPOLYLINE
  5
2037E
100
AcDbEntity
  8
0
100
AcDbPolyline
 70
0
 90
2
 38
0
 10
13323.4576942223
 20
3657.51026394532
 10
13450.743794909
 20
3580.32945395066
  0
LWPOLYLINE
  5
2037F
100
AcDbEntity
  8
0
100
AcDbPolyline
 70
0
 90
2
 38
0
 10
13430.8249261289
 20
3583.24193058117
 10
13527.5039573721
 20
3589.55228807652
  0
LWPOLYLINE
  5
20380
100
AcDbEntity
  8
0
100
AcDbPolyline
 70
0
 90
2
 38
0
 10
13505.641959427
 20
3595.86269679646
 10
13726.9795717502
 20
3694.24936096116
  0
LWPOLYLINE
  5
20381
100
AcDbEntity
  8
0
100
AcDbPolyline
 70
0
 90
2
 38
0
 10
11698.3487624182
 20
3312.64443732535
 10
11753.3187204713
 20
3554.31171527668
  0
LWPOLYLINE
  5
20382
100
AcDbEntity
  8
0
100
AcDbPolyline
 70
0
 90
2
 38
0
 10
11752.3014803466
 20
3528.39176434893
 10
11566.766066213
 20
4012.36985480157
  0
LWPOLYLINE
  5
20383
100
AcDbEntity
  8
0
100
AcDbPolyline
 70
0
 90
2
 38
0
 10
11144.8498184906
 20
3885.76258960613
 10
11259.8874469427
 20
3601.71423562076
  0
LWPOLYLINE
  5
20384
100
AcDbEntity
  8
0
100
AcDbPolyline
 70
0
 90
2
 38
0
 10
11308.3222127804
 20
3758.34013625271
 10
11478.1905445837
 20
3426.90903461578
  0
LWPOLYLINE
  5
20385
100
AcDbEntity
  8
0
100
AcDbPolyline
 70
0
 90
2
 38
0
 10
10491.1542076584
 20
3418.25320549939
 10
10648.9830111709
 20
2692.86554801805
  0
LWPOLYLINE
  5
20386
100
AcDbEntity
  8
0
100
AcDbPolyline
 70
0
 90
2
 38
0
 10
9672.45724780032
 20
2189.9599708008
 10
9669.9797519258
 20
2495.2413792146
  0
LWPOLYLINE
  5
20387
100
AcDbEntity
  8
0
100
AcDbPolyline
 70
0
 90
2
 38
0
 10
9574.39173485385
 20
3735.68831429811
 10
10050.1358045098
 20
3907.49872075314
  0
LWPOLYLINE
  5
20388
100
AcDbEntity
  8
0
100
AcDbPolyline
 70
0
 90
2
 38
0
 10
9982.78653669318
 20
3887.45417930959
 10
10929.6603322024
 20
4036.51933015411
  0
LWPOLYLINE
  5
20389
100
AcDbEntity
  8
0
100
AcDbPolyline
 70
0
 90
2
 38
0
 10
10242.8422787733
 20
3941.2361078991
 10
10281.9474747104
 20
3810.38985403727
  0
LWPOLYLINE
  5
2038A
100
AcDbEntity
  8
0
100
AcDbPolyline
 70
0
 90
2
 38
0
 10
9893.62404102254
 20
3729.5195927998
 10
10619.3432977233
 20
3933.96682604047
  0
LWPOLYLINE
  5
2038B
100
AcDbEntity
  8
0
100
AcDbPolyline
 70
0
 90
2
 38
0
 10
10584.4719398522
 20
3993.16616503662
 10
10664.0852764302
 20
3714.46878316198
  0
LWPOLYLINE
  5
2038C
100
AcDbEntity
  8
0
100
AcDbPolyline
 70
0
 90
2
 38
0
 10
10055.2965218719
 20
3907.70428504105
 10
10155.9532863116
 20
3552.47413548586
  0
LWPOLYLINE
  5
2038D
100
AcDbEntity
  8
0
100
AcDbPolyline
 70
0
 90
2
 38
0
 10
9424.57620390841
 20
3525.71656002881
 10
9928.78306816232
 20
3733.31856222043
  0
LWPOLYLINE
  5
2038E
100
AcDbEntity
  8
0
100
AcDbPolyline
 70
0
 90
2
 38
0
 10
9730.24002705023
 20
3677.95804537753
 10
9807.81034242359
 20
3450.05717164281
  0
LWPOLYLINE
  5
2038F
100
AcDbEntity
  8
0
100
AcDbPolyline
 70
0
 90
2
 38
0
 10
9164.85677740621
 20
2976.01403959478
 10
8920.11942388279
 20
3735.73246989646
  0
LWPOLYLINE
  5
20390
100
AcDbEntity
  8
0
100
AcDbPolyline
 70
0
 90
2
 38
0
 10
8913.50501121472
 20
3699.85614868462
 10
8939.96253810506
 20
3770.66472187672
  0
LWPOLYLINE
  5
20391
100
AcDbEntity
  8
0
100
AcDbPolyline
 70
0
 90
2
 38
0
 10
8938.07275896359
 20
3721.57076550296
 10
8837.22004768552
 20
4120.22108194204
  0
LWPOLYLINE
  5
20392
100
AcDbEntity
  8
0
100
AcDbPolyline
 70
0
 90
2
 38
0
 10
9389.57450363631
 20
3570.97041363452
 10
9603.21238309023
 20
3751.81007648204
  0
LWPOLYLINE
  5
20393
100
AcDbEntity
  8
0
100
AcDbPolyline
 70
0
 90
2
 38
0
 10
9439.47286733666
 20
3589.17122833621
 10
9366.27168370866
 20
3593.02065398002
  0
LWPOLYLINE
  5
20394
100
AcDbEntity
  8
0
100
AcDbPolyline
 70
0
 90
2
 38
0
 10
9384.57197961566
 20
3584.35939505687
 10
9084.53540803279
 20
4315.98369784559
  0
LWPOLYLINE
  5
20395
100
AcDbEntity
  8
0
100
AcDbPolyline
 70
0
 90
2
 38
0
 10
9072.19917439043
 20
4270.17426231444
 10
10142.7155486745
 20
5019.83008252811
  0
LWPOLYLINE
  5
20396
100
AcDbEntity
  8
0
100
AcDbPolyline
 70
0
 90
2
 38
0
 10
9163.48849165067
 20
4017.91896363438
 10
9723.49849031205
 20
4418.25062485851
  0
LWPOLYLINE
  5
20397
100
AcDbEntity
  8
0
100
AcDbPolyline
 70
0
 90
2
 38
0
 10
9657.6395572608
 20
4379.70427301035
 10
10019.3482609726
 20
4543.97841503296
  0
LWPOLYLINE
  5
20398
100
AcDbEntity
  8
0
100
AcDbPolyline
 70
0
 90
2
 38
0
 10
9893.36805993493
 20
4505.87715366517
 10
10011.6451859904
 20
4146.29752399853
  0
LWPOLYLINE
  5
20399
100
AcDbEntity
  8
0
100
AcDbPolyline
 70
0
 90
2
 38
0
 10
9938.71421837514
 20
4134.48088142933
 10
10170.319420271
 20
4203.41135617831
  0
LWPOLYLINE
  5
2039A
100
AcDbEntity
  8
0
100
AcDbPolyline
 70
0
 90
2
 38
0
 10
9940.68532226252
 20
4281.20430004803
 10
10783.6051733365
 20
4419.10566574911
  0
LWPOLYLINE
  5
2039B
100
AcDbEntity
  8
0
100
AcDbPolyline
 70
0
 90
2
 38
0
 10
10552.9585389177
 20
3663.95631538502
 10
10445.730314149
 20
3979.06705709461
  0
LWPOLYLINE
  5
2039C
100
AcDbEntity
  8
0
100
AcDbPolyline
 70
0
 90
2
 38
0
 10
10489.8830907393
 20
3952.28263995133
 10
10259.6305780723
 20
4800.56280643684
  0
LWPOLYLINE
  5
2039D
100
AcDbEntity
  8
0
100
AcDbPolyline
 70
0
 90
2
 38
0
 10
10462.6167725402
 20
3704.27263056248
 10
10556.7276995162
 20
3391.89712839488
  0
LWPOLYLINE
  5
2039E
100
AcDbEntity
  8
0
100
AcDbPolyline
 70
0
 90
2
 38
0
 10
10896.8089720919
 20
4293.91967808484
 10
12290.2282827052
 20
4704.93161552799
  0
LWPOLYLINE
  5
2039F
100
AcDbEntity
  8
0
100
AcDbPolyline
 70
0
 90
2
 38
0
 10
12249.5801446708
 20
4704.93161552799
 10
12353.6394275516
 20
4198.07103878272
  0
LWPOLYLINE
  5
203A0
100
AcDbEntity
  8
0
100
AcDbPolyline
 70
0
 90
2
 38
0
 10
11968.5087018873
 20
4133.89195229447
 10
12118.5883835296
 20
3706.62911547082
  0
LWPOLYLINE
  5
203A1
100
AcDbEntity
  8
0
100
AcDbPolyline
 70
0
 90
2
 38
0
 10
13058.5915377192
 20
4414.35437993757
 10
12956.9122105306
 20
4918.23850053686
  0
LWPOLYLINE
  5
203A2
100
AcDbEntity
  8
0
100
AcDbPolyline
 70
0
 90
2
 38
0
 10
12000.2722661575
 20
3963.11899750235
 10
12387.5881147133
 20
4118.45004289631
  0
LWPOLYLINE
  5
203A3
100
AcDbEntity
  8
0
100
AcDbPolyline
 70
0
 90
2
 38
0
 10
12091.6540485399
 20
4009.28869558942
 10
12206.9024776651
 20
3708.38786061446
  0
LWPOLYLINE
  5
203A4
100
AcDbEntity
  8
0
100
AcDbPolyline
 70
0
 90
2
 38
0
 10
10487.109508423
 20
2900.29021067196
 10
10547.7275134039
 20
2687.1845358607
  0
LWPOLYLINE
  5
203A5
100
AcDbEntity
  8
0
100
AcDbPolyline
 70
0
 90
2
 38
0
 10
10454.5553487918
 20
2666.99559229214
 10
10675.69911857
 20
2758.96750324289
  0
LWPOLYLINE
  5
203A6
100
AcDbEntity
  8
0
100
AcDbPolyline
 70
0
 90
2
 38
0
 10
10452.310191651
 20
2773.54842969777
 10
10501.7026584921
 20
2618.76640948147
  0
LWPOLYLINE
  5
203A7
100
AcDbEntity
  8
0
100
AcDbPolyline
 70
0
 90
2
 38
0
 10
11027.0732666702
 20
3109.5259700026
 10
11085.2688587476
 20
2995.3603898486
  0
LWPOLYLINE
  5
203A8
100
AcDbEntity
  8
0
100
AcDbPolyline
 70
0
 90
2
 38
0
 10
11017.137412743
 20
2966.99630873551
 10
11188.1757316064
 20
3062.01608291357
  0
LWPOLYLINE
  5
203A9
100
AcDbEntity
  8
0
100
AcDbPolyline
 70
0
 90
2
 38
0
 10
11123.5927429705
 20
3144.27202059074
 10
11205.918266014
 20
2998.19679795991
  0
LWPOLYLINE
  5
203AA
100
AcDbEntity
  8
0
100
AcDbPolyline
 70
0
 90
2
 38
0
 10
11178.9496434221
 20
2993.94218579295
 10
11301.0184583923
 20
3062.01608291357
  0
LWPOLYLINE
  5
203AB
100
AcDbEntity
  8
0
100
AcDbPolyline
 70
0
 90
2
 38
0
 10
10918.4808409506
 20
3057.89501325809
 10
10961.3740123439
 20
2849.31067706463
  0
LWPOLYLINE
  5
203AC
100
AcDbEntity
  8
0
100
AcDbPolyline
 70
0
 90
2
 38
0
 10
10713.6032581758
 20
2983.93346397577
 10
10748.8698518365
 20
2796.90715102274
  0
LWPOLYLINE
  5
203AD
100
AcDbEntity
  8
0
100
AcDbPolyline
 70
0
 90
2
 38
0
 10
10665.2246893467
 20
2784.70980728539
 10
10775.9980293713
 20
2806.84574637339
  0
LWPOLYLINE
  5
203AE
100
AcDbEntity
  8
0
100
AcDbPolyline
 70
0
 90
2
 38
0
 10
10685.1186779534
 20
2802.77999927734
 10
10667.937494722
 20
2745.85892523746
  0
LWPOLYLINE
  5
203AF
100
AcDbEntity
  8
0
100
AcDbPolyline
 70
0
 90
2
 38
0
 10
10715.4118363534
 20
2853.82822506261
 10
10829.350157243
 20
2894.03435614256
  0
LWPOLYLINE
  5
203B0
100
AcDbEntity
  8
0
100
AcDbPolyline
 70
0
 90
2
 38
0
 10
10533.3872498735
 20
2883.29619613451
 10
10588.0832784553
 20
2661.49673478414
  0
LWPOLYLINE
  5
203B1
100
AcDbEntity
  8
0
100
AcDbPolyline
 70
0
 90
2
 38
0
 10
10009.3360335778
 20
2370.63453678811
 10
9946.65705900852
 20
2571.0374860368
  0
LWPOLYLINE
  5
203B2
100
AcDbEntity
  8
0
100
AcDbPolyline
 70
0
 90
2
 38
0
 10
11097.6521295337
 20
2826.19957541766
 10
11101.8801498478
 20
2693.83328301116
  0
LWPOLYLINE
  5
203B3
100
AcDbEntity
  8
0
100
AcDbPolyline
 70
0
 90
2
 38
0
 10
11088.7263363777
 20
2806.95480352988
 10
11336.3008961435
 20
2836.05662121776
  0
LWPOLYLINE
  5
203B4
100
AcDbEntity
  8
0
100
AcDbPolyline
 70
0
 90
2
 38
0
 10
11166.7099597064
 20
2827.60773945328
 10
11161.5423105548
 20
2750.62875435132
  0
LWPOLYLINE
  5
203B5
100
AcDbEntity
  8
0
100
AcDbPolyline
 70
0
 90
2
 38
0
 10
11156.3747851851
 20
2804.60789762025
 10
11273.3502201781
 20
2808.36296756549
  0
LWPOLYLINE
  5
203B6
100
AcDbEntity
  8
0
100
AcDbPolyline
 70
0
 90
2
 38
0
 10
11247.5122219838
 20
2816.81190055457
 10
11251.7402422979
 20
2761.89396418703
  0
LWPOLYLINE
  5
203B7
100
AcDbEntity
  8
0
100
AcDbPolyline
 70
0
 90
2
 38
0
 10
12458.1173410119
 20
3019.11179889627
 10
12450.9069182197
 20
3157.43535768507
  0
LWPOLYLINE
  5
203B8
100
AcDbEntity
  8
0
100
AcDbPolyline
 70
0
 90
2
 38
0
 10
12684.0445407464
 20
3155.0339488095
 10
12696.5426811889
 20
3104.60344037982
  0
LWPOLYLINE
  5
203B9
100
AcDbEntity
  8
0
100
AcDbPolyline
 70
0
 90
2
 38
0
 10
12579.7334853645
 20
3134.38147390743
 10
12738.8439272624
 20
3151.67187393452
  0
LWPOLYLINE
  5
203BA
100
AcDbEntity
  8
0
100
AcDbPolyline
 70
0
 90
2
 38
0
 10
12728.2686157441
 20
3182.41047101236
 10
12724.9037270179
 20
3142.06608475844
  0
LWPOLYLINE
  5
203BB
100
AcDbEntity
  8
0
100
AcDbPolyline
 70
0
 90
2
 38
0
 10
12791.6537663795
 20
3052.97612058135
 10
13032.0551617221
 20
3064.63622079722
  0
ENDSEC
  0
SECTION
  2
OBJECTS
  0
DICTIONARY
  5
C
330
0
100
AcDbDictionary
281
     1
  3
ACAD_GROUP
350
D
  3
ACAD_LAYOUT
350
1A
  3
ACAD_MLEADERSTYLE
350
43
  3
ACAD_PLOTSETTINGS
350
19
  3
ACAD_PLOTSTYLENAME
350
E
  3
ACAD_TABLESTYLE
350
42
  0
DICTIONARY
  5
D
102
{ACAD_REACTORS
330
C
102
}
330
C
100
AcDbDictionary
281
     1
  0
DICTIONARY
  5
1A
102
{ACAD_REACTORS
330
C
102
}
330
C
100
AcDbDictionary
281
     1
  3
Layout1
350
1E
  3
Model
350
22
  0
DICTIONARY
  5
43
102
{ACAD_REACTORS
330
C
102
}
330
C
100
AcDbDictionary
281
     1
  0
DICTIONARY
  5
19
102
{ACAD_REACTORS
330
C
102
}
330
C
100
AcDbDictionary
281
     1
  0
ACDBDICTIONARYWDFLT
  5
E
102
{ACAD_REACTORS
330
C
102
}
330
C
100
AcDbDictionary
281
     1
  3
Normal
350
F
100
AcDbDictionaryWithDefault
340
F
  0
DICTIONARY
  5
42
102
{ACAD_REACTORS
330
C
102
}
330
C
100
AcDbDictionary
281
     1
  0
LAYOUT
  5
1E
102
{ACAD_REACTORS
330
1A
102
}
330
1A
100
AcDbPlotSettings
  1

  2
none_device
  4

  6

 40
0.0
 41
0.0
 42
0.0
 43
0.0
 44
0.0
 45
0.0
 46
0.0
 47
0.0
 48
0.0
 49
0.0
140
0.0
141
0.0
142
1.0
143
1.0
 70
   688
 72
     0
 73
     0
 74
     5
  7

 75
    16
 76
     0
 77
     2
 78
   300
147
1.0
148
0.0
149
0.0
100
AcDbLayout
  1
Layout1
 70
     1
 71
     1
 10
0.0
 20
0.0
 11
12.0
 21
9.0
 12
0.0
 22
0.0
 32
0.0
 14
1.000000000000000E+20
 24
1.000000000000000E+20
 34
1.000000000000000E+20
 15
-1.000000000000000E+20
 25
-1.000000000000000E+20
 35
-1.000000000000000E+20
146
0.0
 13
0.0
 23
0.0
 33
0.0
 16
1.0
 26
0.0
 36
0.0
 17
0.0
 27
1.0
 37
0.0
 76
     0
330
1B
  0
LAYOUT
  5
22
102
{ACAD_REACTORS
330
1A
102
}
330
1A
100
AcDbPlotSettings
  1

  2
none_device
  4

  6

 40
0.0
 41
0.0
 42
0.0
 43
0.0
 44
0.0
 45
0.0
 46
0.0
 47
0.0
 48
0.0
 49
0.0
140
0.0
141
0.0
142
1.0
143
1.0
 70
  1712
 72
     0
 73
     0
 74
     0
  7

 75
     0
 76
     0
 77
     2
 78
   300
147
1.0
148
0.0
149
0.0
100
AcDbLayout
  1
Model
 70
     1
 71
     0
 10
0.0
 20
0.0
 11
12.0
 21
9.0
 12
0.0
 22
0.0
 32
0.0
 14
30.0
 24
49.75
 34
0.0
 15
130.5
 25
163.1318914119703
 35
0.0
146
0.0
 13
0.0
 23
0.0
 33
0.0
 16
1.0
 26
0.0
 36
0.0
 17
0.0
 27
1.0
 37
0.0
 76
     0
330
1F
331
29
  0
ACDBPLACEHOLDER
  5
F
102
{ACAD_REACTORS
330
E
102
}
330
E
  0
ENDSEC
  0
EOF
