  0
SECTION
  2
HEADER
  9
$ACADVER
  1
AC1018
  9
$ACADMAINTVER
 70
     0
  9
$DWGCODEPAGE
  3
ANSI_1252
  9
$EXTMIN
 10
1557.82436626301
 20
-1448.88598720091
 30
0.0
  9
$EXTMAX
 10
16189.3117930227
 20
7097.17285068972
 30
0.0
  9
$LIMMIN
 10
0.0
 20
0.0
  9
$LIMMAX
 10
12.0
 20
9.0
  9
$ORTHOMODE
 70
     0
  9
$REGENMODE
 70
     1
  9
$FILLMODE
 70
     1
  9
$QTEXTMODE
 70
     0
  9
$MIRRTEXT
 70
     1
  9
$LTSCALE
 40
1.0
  9
$ATTMODE
 70
     1
  9
$TEXTSIZE
 40
0.2
  9
$TRACEWID
 40
0.05
  9
$TEXTSTYLE
  7
Standard
  9
$CLAYER
  8
0
  9
$CELTYPE
  6
ByLayer
  9
$CECOLOR
 62
   256
  9
$CELTSCALE
 40
1.0
  9
$DISPSILH
 70
     0
  9
$LUNITS
 70
     2
  9
$LUPREC
 70
     4
  9
$SKETCHINC
 40
0.1
  9
$FILLETRAD
 40
0.5
  9
$AUNITS
 70
     0
  9
$AUPREC
 70
     0
  9
$MENU
  1
.
  9
$ELEVATION
 40
0.0
  9
$PELEVATION
 40
0.0
  9
$THICKNESS
 40
0.0
  9
$LIMCHECK
 70
     0
  9
$CHAMFERA
 40
0.5
  9
$CHAMFERB
 40
0.5
  9
$CHAMFERC
 40
1.0
  9
$CHAMFERD
 40
0.0
  9
$SKPOLY
 70
     0
  9
$ANGBASE
 50
0.0
  9
$ANGDIR
 70
     0
  9
$PDMODE
 70
     0
  9
$PDSIZE
 40
0.0
  9
$PLINEWID
 40
0.0
  9
$SPLFRAME
 70
     0
  9
$SPLINETYPE
 70
     6
  9
$SPLINESEGS
 70
     8
  9
$HANDSEED
  5
000202B5
  9
$SURFTAB1
 70
     6
  9
$SURFTAB2
 70
     6
  9
$SURFTYPE
 70
     6
  9
$SURFU
 70
     6
  9
$SURFV
 70
     6
  9
$UCSBASE
  2

  9
$UCSNAME
  2

  9
$UCSORG
 10
0.0
 20
0.0
 30
0.0
  9
$UCSXDIR
 10
1.0
 20
0.0
 30
0.0
  9
$UCSYDIR
 10
0.0
 20
1.0
 30
0.0
  9
$UCSORTHOREF
  2

  9
$UCSORTHOVIEW
 70
     0
  9
$UCSORGTOP
 10
0.0
 20
0.0
 30
0.0
  9
$UCSORGBOTTOM
 10
0.0
 20
0.0
 30
0.0
  9
$UCSORGLEFT
 10
0.0
 20
0.0
 30
0.0
  9
$UCSORGRIGHT
 10
0.0
 20
0.0
 30
0.0
  9
$UCSORGFRONT
 10
0.0
 20
0.0
 30
0.0
  9
$UCSORGBACK
 10
0.0
 20
0.0
 30
0.0
  9
$PUCSBASE
  2

  9
$PUCSNAME
  2

  9
$PUCSORG
 10
0.0
 20
0.0
 30
0.0
  9
$PUCSXDIR
 10
1.0
 20
0.0
 30
0.0
  9
$PUCSYDIR
 10
0.0
 20
1.0
 30
0.0
  9
$PUCSORTHOREF
  2

  9
$PUCSORTHOVIEW
 70
     0
  9
$PUCSORGTOP
 10
0.0
 20
0.0
 30
0.0
  9
$PUCSORGBOTTOM
 10
0.0
 20
0.0
 30
0.0
  9
$PUCSORGLEFT
 10
0.0
 20
0.0
 30
0.0
  9
$PUCSORGRIGHT
 10
0.0
 20
0.0
 30
0.0
  9
$PUCSORGFRONT
 10
0.0
 20
0.0
 30
0.0
  9
$PUCSORGBACK
 10
0.0
 20
0.0
 30
0.0
  9
$WORLDVIEW
 70
     1
  9
$SHADEDGE
 70
     3
  9
$SHADEDIF
 70
    70
  9
$TILEMODE
 70
     1
  9
$MAXACTVP
 70
    64
  9
$PINSBASE
 10
0.0
 20
0.0
 30
0.0
  9
$PLIMCHECK
 70
     0
  9
$PEXTMIN
 10
1.000000000000000E+20
 20
1.000000000000000E+20
 30
1.000000000000000E+20
  9
$PEXTMAX
 10
-1.000000000000000E+20
 20
-1.000000000000000E+20
 30
-1.000000000000000E+20
  9
$PLIMMIN
 10
0.0
 20
0.0
  9
$PLIMMAX
 10
12.0
 20
9.0
  9
$UNITMODE
 70
     0
  9
$VISRETAIN
 70
     1
  9
$PLINEGEN
 70
     0
  9
$PSLTSCALE
 70
     1
  9
$TREEDEPTH
 70
  3020
  9
$CMLSTYLE
  2
Standard
  9
$CMLJUST
 70
     0
  9
$CMLSCALE
 40
1.0
  9
$PROXYGRAPHICS
 70
     1
  9
$MEASUREMENT
 70
     0
  9
$CELWEIGHT
370
    -1
  9
$ENDCAPS
280
     0
  9
$JOINSTYLE
280
     0
  9
$LWDISPLAY
290
     0
  9
$INSUNITS
 70
     1
  9
$HYPERLINKBASE
  1

  9
$STYLESHEET
  1

  9
$XEDIT
290
     1
  9
$CEPSNTYPE
380
     0
  9
$PSTYLEMODE
290
     1
  9
$EXTNAMES
290
     1
  9
$PSVPSCALE
 40
0.0
  9
$OLESTARTUP
290
     0
  9
$SORTENTS
280
   127
  9
$INDEXCTL
280
     0
  9
$HIDETEXT
280
     1
  9
$XCLIPFRAME
290
     0
  9
$HALOGAP
280
     0
  9
$OBSCOLOR
 70
   257
  9
$OBSLTYPE
280
     0
  9
$INTERSECTIONDISPLAY
280
     0
  9
$INTERSECTIONCOLOR
 70
   257
  9
$DIMASSOC
280
     2
  9
$PROJECTNAME
  1

  0
ENDSEC
  0
SECTION
  2
CLASSES
  0
CLASS
  1
ACDBDICTIONARYWDFLT
  2
AcDbDictionaryWithDefault
  3
ObjectDBX Classes
 90
        0
 91
        4
280
     0
281
     0
  0
ENDSEC
  0
SECTION
  2
TABLES
  0
TABLE
  2
VPORT
  5
8
330
0
100
AcDbSymbolTable
 70
     1
  0
VPORT
  5
29
330
8
100
AcDbSymbolTableRecord
100
AcDbViewportTableRecord
  2
*Active
 70
     0
 10
0.0
 20
0.0
 11
1.0
 21
1.0
 12
80.25
 22
106.4409457059851
 13
0.0
 23
0.0
 14
0.5
 24
0.5
 15
0.5
 25
0.5
 16
0.0
 26
0.0
 36
1.0
 17
0.0
 27
0.0
 37
0.0
 40
113.3818914119703
 41
0.8863849310366128
 42
50.0
 43
0.0
 44
0.0
 50
0.0
 51
0.0
 71
     0
 72
  1000
 73
     1
 74
     3
 75
     0
 76
     0
 77
     0
 78
     0
281
     0
 65
     1
110
0.0
120
0.0
130
0.0
111
1.0
121
0.0
131
0.0
112
0.0
122
1.0
132
0.0
 79
     0
146
0.0
  0
ENDTAB
  0
TABLE
  2
LTYPE
  5
5
330
0
100
AcDbSymbolTable
 70
     1
  0
LTYPE
  5
14
330
5
100
AcDbSymbolTableRecord
100
AcDbLinetypeTableRecord
  2
ByBlock
 70
     0
  3

 72
    65
 73
     0
 40
0.0
  0
LTYPE
  5
15
330
5
100
AcDbSymbolTableRecord
100
AcDbLinetypeTableRecord
  2
ByLayer
 70
     0
  3

 72
    65
 73
     0
 40
0.0
  0
LTYPE
  5
16
330
5
100
AcDbSymbolTableRecord
100
AcDbLinetypeTableRecord
  2
Continuous
 70
     0
  3
Solid line
 72
    65
 73
     0
 40
0.0
  0
ENDTAB
  0
TABLE
  2
LAYER
  5
2
330
0
100
AcDbSymbolTable
 70
     1
  0
LAYER
  5
10
330
2
100
AcDbSymbolTableRecord
100
AcDbLayerTableRecord
  2
0
 70
     0
 62
     7
  6
Continuous
370
    -3
390
F
  0
ENDTAB
  0
TABLE
  2
STYLE
  5
3
330
0
100
AcDbSymbolTable
 70
     1
  0
STYLE
  5
11
330
3
100
AcDbSymbolTableRecord
100
AcDbTextStyleTableRecord
  2
Standard
 70
     0
 40
0.0
 41
1.0
 50
0.0
 71
     0
 42
0.2
  3
txt
  4

  0
ENDTAB
  0
TABLE
  2
VIEW
  5
6
330
0
100
AcDbSymbolTable
 70
     0
  0
ENDTAB
  0
TABLE
  2
UCS
  5
7
330
0
100
AcDbSymbolTable
 70
     0
  0
ENDTAB
  0
TABLE
  2
APPID
  5
9
330
0
100
AcDbSymbolTable
 70
     1
  0
APPID
  5
12
330
9
100
AcDbSymbolTableRecord
100
AcDbRegAppTableRecord
  2
ACAD
 70
     0
  0
ENDTAB
  0
TABLE
  2
DIMSTYLE
  5
A
330
0
100
AcDbSymbolTable
 70
     1
100
AcDbDimStyleTable
  0
DIMSTYLE
105
27
330
A
100
AcDbSymbolTableRecord
100
AcDbDimStyleTableRecord
  2
Standard
 70
     0
340
11
  0
ENDTAB
  0
TABLE
  2
BLOCK_RECORD
  5
1
330
0
100
AcDbSymbolTable
 70
     1
  0
BLOCK_RECORD
  5
1F
330
1
100
AcDbSymbolTableRecord
100
AcDbBlockTableRecord
  2
*Model_Space
340
22
  0
BLOCK_RECORD
  5
1B
330
1
100
AcDbSymbolTableRecord
100
AcDbBlockTableRecord
  2
*Paper_Space
340
1E
  0
ENDTAB
  0
ENDSEC
  0
SECTION
  2
BLOCKS
  0
BLOCK
  5
20
330
1F
100
AcDbEntity
  8
0
100
AcDbBlockBegin
  2
*Model_Space
 70
     0
 10
0.0
 20
0.0
 30
0.0
  3
*Model_Space
  1

  0
ENDBLK
  5
21
330
1F
100
AcDbEntity
  8
0
100
AcDbBlockEnd
  0
BLOCK
  5
1C
330
1B
100
AcDbEntity
 67
     1
  8
0
100
AcDbBlockBegin
  2
*Paper_Space
 70
     0
 10
0.0
 20
0.0
 30
0.0
  3
*Paper_Space
  1

  0
ENDBLK
  5
1D
330
1B
100
AcDbEntity
 67
     1
  8
0
100
AcDbBlockEnd
  0
ENDSEC
  0
SECTION
  2
ENTITIES
  0
LWPOLYLINE
  5
20000
100
AcDbEntity
  8
0
100
AcDbPolyline
 70
0
 90
5
 38
-1.79769313486232e+308
 10
11619.5734448832
 20
-512.476733698178
 10
11667.8026142725
 20
-739.39025949514
 10
11754.6384962638
 20
-1114.18346737339
 10
11790.009151264
 20
-1279.65660394229
 10
11826.1908513632
 20
-1448.88598720091
  0
LWPOLYLINE
  5
20001
100
AcDbEntity
  8
0
100
AcDbPolyline
 70
0
 90
10
 38
-1.79769313486232e+308
 10
10562.2230727029
 20
2045.46627083407
 10
10511.1329924026
 20
2139.25291957087
 10
10418.269159994
 20
2298.44497073149
 10
10287.3607784034
 20
2507.65418239576
 10
10267.673926453
 20
2536.42577596601
 10
10173.3629406624
 20
2674.24998471453
 10
10096.3777204127
 20
2786.73057461423
 10
9851.86334569276
 20
3107.70205192161
 10
9690.54359241285
 20
3300.40943962415
 10
9536.2970795826
 20
3468.58500384107
  0
LWPOLYLINE
  5
20002
100
AcDbEntity
  8
0
100
AcDbPolyline
 70
0
 90
4
 38
-1.79769313486232e+308
 10
11845.4903229632
 20
-1448.88598720091
 10
11810.7401800331
 20
-1285.23738047354
 10
11776.3146275123
 20
-1123.12725061611
 10
11639.872554033
 20
-508.948767555081
  0
LWPOLYLINE
  5
20003
100
AcDbEntity
  8
0
100
AcDbPolyline
 70
0
 90
12
 38
-1.79769313486232e+308
 10
1557.82436626301
 20
6281.40177614089
 10
1586.31990981371
 20
6271.05850960161
 10
1671.80993916363
 20
6242.03872524282
 10
1782.53387068295
 20
6209.64381672987
 10
1912.76876934328
 20
6167.55904049413
 10
2177.24718155236
 20
6077.08935931265
 10
2372.86669633248
 20
6011.653535826
 10
2547.26426338301
 20
5949.609924198
 10
2730.83678287351
 20
5887.58079233799
 10
2921.85657629267
 20
5835.87182477988
 10
3123.7667555035
 20
5788.17346958803
 10
3246.61449276366
 20
5761.82495100643
  0
LWPOLYLINE
  5
20004
100
AcDbEntity
  8
0
100
AcDbPolyline
 70
0
 90
64
 38
-1.79769313486232e+308
 10
1557.82436626301
 20
1680.17732402669
 10
1648.9137462926
 20
1843.63885008158
 10
1739.00238380291
 20
2019.01474283156
 10
1819.33832072363
 20
2161.74826543392
 10
1899.67203125254
 20
2305.05026338283
 10
1943.23134800316
 20
2381.35343140164
 10
1983.44217446343
 20
2451.7873346143
 10
2054.59202700191
 20
2563.58182951096
 10
2122.87317627379
 20
2654.75563232401
 10
2207.78657065229
 20
2761.4254469316
 10
2281.23071790383
 20
2851.4643128811
 10
2377.61113302306
 20
2959.30436405805
 10
2453.35068817333
 20
3037.32634569086
 10
2533.09440540419
 20
3125.649710473
 10
2654.14655928397
 20
3245.5621098097
 10
2764.29830861361
 20
3361.43122232087
 10
2841.75107072377
 20
3441.73494995791
 10
2876.16549130426
 20
3484.74995167913
 10
2914.6074510523
 20
3528.90925157476
 10
2978.86106114359
 20
3590.29419396897
 10
3059.16582860322
 20
3670.61483424609
 10
3128.58354986356
 20
3745.74597856668
 10
3190.5372992725
 20
3807.12552939668
 10
3258.23513440312
 20
3881.1184534364
 10
3306.99084498257
 20
3927.00959080956
 10
3359.76184959234
 20
3982.06860939679
 10
3413.68167135389
 20
4037.13044436262
 10
3483.66155604356
 20
4100.81785398801
 10
3538.15912595288
 20
4153.01839505076
 10
3596.09090215237
 20
4195.49720798932
 10
3650.57622692258
 20
4236.82163899798
 10
3674.7336696227
 20
4252.03276421815
 10
3717.11522616343
 20
4278.73377720952
 10
3789.38829236374
 20
4336.12014254402
 10
3838.70727956378
 20
4388.30876801149
 10
3859.931453674
 20
4416.40170215988
 10
3910.41150317238
 20
4480.61546156682
 10
3960.31046491385
 20
4559.14420087575
 10
4020.53653582268
 20
4637.11289815591
 10
4071.00322697394
 20
4720.21706907158
 10
4117.46575604276
 20
4789.56481360118
 10
4157.61535678328
 20
4844.59794474659
 10
4210.37634264388
 20
4911.67456788975
 10
4279.77736598336
 20
5020.57207157263
 10
4325.07771956258
 20
5093.35820692904
 10
4348.01732703381
 20
5128.32106060428
 10
4366.37391106308
 20
5159.84853457972
 10
4404.22365113244
 20
5215.44254102451
 10
4426.01444145375
 20
5250.40444317679
 10
4443.5339029123
 20
5277.00704767774
 10
4452.15337108345
 20
5286.31230244912
 10
4462.45710315266
 20
5301.53757479587
 10
4567.06959462249
 20
5455.43047512682
 10
4765.99307189406
 20
5780.16942148642
 10
4806.61578047358
 20
5858.21780503155
 10
4926.38442062297
 20
6078.83943974586
 10
5022.19933273354
 20
6277.5808177468
 10
5045.11333672226
 20
6321.29364307304
 10
5116.96227566236
 20
6446.17353285277
 10
5197.14793127299
 20
6570.01977301981
 10
5246.09288498283
 20
6655.36235178901
 10
5292.95059824259
 20
6708.45366495276
 10
5467.87804607385
 20
6933.29678158076
 10
5588.0966969029
 20
7097.17285068972
  0
LWPOLYLINE
  5
20005
100
AcDbEntity
  8
0
100
AcDbPolyline
 70
0
 90
8
 38
-1.79769313486232e+308
 10
4466.3800020133
 20
5269.81516386089
 10
4807.22692447239
 20
5060.46367743412
 10
4844.43101150253
 20
5037.71061475422
 10
5062.29104734295
 20
4904.85014245786
 10
5194.82469349251
 20
4821.48317583451
 10
5629.66534121231
 20
4549.09211365306
 10
5757.20296862246
 20
4469.00815036973
 10
6239.0315734026
 20
4228.17559460164
  0
LWPOLYLINE
  5
20006
100
AcDbEntity
  8
0
100
AcDbPolyline
 70
0
 90
34
 38
-1.79769313486232e+308
 10
6961.07984695294
 20
3752.19096560483
 10
7205.25803680242
 20
3582.79532480459
 10
7440.31136801363
 20
3429.90311213662
 10
7473.42446374231
 20
3404.28103013416
 10
7554.52739195236
 20
3358.00267704283
 10
7636.45408439347
 20
3325.78006592426
 10
7717.55367302232
 20
3298.51543827807
 10
7816.85845117354
 20
3282.84033323671
 10
7961.51701627382
 20
3271.32559844978
 10
8161.05052434363
 20
3252.40883297599
 10
8174.57918206313
 20
3251.12426682967
 10
8182.17228453317
 20
3250.50839664774
 10
8347.75000833244
 20
3237.11902553901
 10
8573.44359674388
 20
3212.14025873584
 10
8658.85236286269
 20
3207.46971023954
 10
8817.9357075625
 20
3178.22245260594
 10
8994.55966444396
 20
3132.58526975974
 10
9042.80998453395
 20
3119.44984162958
 10
9166.48371241325
 20
3085.76162146391
 10
9214.44014904359
 20
3075.22497161418
 10
9234.31735732303
 20
3065.86593952761
 10
9394.53282125377
 20
2962.87581405682
 10
9699.69405455225
 20
2746.21095811143
 10
9722.50230502234
 20
2724.56748060403
 10
9739.44624472306
 20
2693.55884114919
 10
9745.87605851227
 20
2673.66248677425
 10
9747.04268677243
 20
2647.93113444918
 10
9737.69296274231
 20
2612.24591167304
 10
9700.85956962303
 20
2552.60628306992
 10
9479.24472735346
 20
2244.42135575074
 10
9439.48029204355
 20
2193.54148084983
 10
9337.14205777355
 20
2049.68290613159
 10
9153.5127653432
 20
1787.66671420993
 10
9131.28226303392
 20
1732.68422224173
  0
LWPOLYLINE
  5
20007
100
AcDbEntity
  8
0
100
AcDbPolyline
 70
0
 90
30
 38
-1.79769313486232e+308
 10
12000.405215253
 20
4297.41627315931
 10
11974.8640712825
 20
4318.92327603079
 10
11853.2375088435
 20
4419.12569697979
 10
11771.4288150639
 20
4480.65927248481
 10
11471.7545194522
 20
4646.41897127484
 10
11165.5457697333
 20
4816.03759086305
 10
10966.577764674
 20
4925.79119220968
 10
10937.3218892933
 20
4941.92965083137
 10
10873.593707214
 20
4983.9536544493
 10
10859.4149436624
 20
4993.3102382015
 10
10808.5619738837
 20
5029.28824206475
 10
10778.9476497424
 20
5049.49756464302
 10
10655.7392373335
 20
5133.59539303263
 10
10590.0562849929
 20
5181.16757398085
 10
10520.4660185137
 20
5217.04044385148
 10
10340.2987622534
 20
5274.46456615474
 10
10205.0032795341
 20
5318.1829485091
 10
10105.4769755927
 20
5377.49024371277
 10
9950.00928794303
 20
5464.80544848494
 10
9865.43430481375
 20
5514.33763945275
 10
9671.5569400628
 20
5698.65883436413
 10
9453.5811319434
 20
5899.24997297894
 10
9342.9596143634
 20
5989.76993163475
 10
9153.08195891314
 20
6122.84411904156
 10
8905.12001956337
 20
6301.24982668772
 10
8767.13060516388
 20
6395.64922348117
 10
8627.82873397403
 20
6473.7632622792
 10
8479.936337673
 20
6572.30862718109
 10
8393.33311342345
 20
6633.51758678477
 10
8386.28658965313
 20
6638.49226151673
  0
LWPOLYLINE
  5
20008
100
AcDbEntity
  8
0
100
AcDbPolyline
 70
0
 90
33
 38
-1.79769313486232e+308
 10
6487.63794819349
 20
-1448.88598720091
 10
6481.43421738305
 20
-1422.45570569918
 10
6477.33766012349
 20
-1367.73160976511
 10
6484.8572917235
 20
-1240.31160890883
 10
6502.30884829246
 20
-1062.05463514863
 10
6514.97811954365
 20
-907.19185502049
 10
6540.83986364388
 20
-744.610626761005
 10
6542.7289554038
 20
-669.088331467141
 10
6526.14569086292
 20
-558.91853601918
 10
6518.13736669243
 20
-506.886600690097
 10
6514.31799496234
 20
-482.042680220813
 10
6515.32098358394
 20
-474.094109530695
 10
6517.27241425299
 20
-458.673533287034
 10
6533.3714390126
 20
-331.043458230462
 10
6534.34103177385
 20
-172.896153655969
 10
6548.11570556358
 20
25.9313669845979
 10
6553.12508265385
 20
110.879501134023
 10
6552.67869149231
 20
250.77569097593
 10
6555.5919225634
 20
314.402851509727
 10
6567.89829227225
 20
386.632528432976
 10
6595.06804039226
 20
451.312786734528
 10
6708.41799869285
 20
638.73694448113
 10
6767.99952975371
 20
739.504112508945
 10
6895.54160994374
 20
1017.46333947392
 10
6979.51212823288
 20
1206.93512701416
 10
7033.90728421406
 20
1324.43196267668
 10
7122.33392173321
 20
1429.1208501848
 10
7247.14310841345
 20
1594.1269270795
 10
7366.89616383323
 20
1717.13859361304
 10
7488.5817256038
 20
1849.47350889803
 10
7651.13044606232
 20
2068.34021364605
 10
7709.57429192298
 20
2155.97916714275
 10
7731.69570113243
 20
2209.34278239483
  0
LWPOLYLINE
  5
20009
100
AcDbEntity
  8
0
100
AcDbPolyline
 70
0
 90
2
 38
0
 10
7974.20521183395
 20
2863.98361175587
 10
7980.08510733292
 20
2878.23581207111
  0
LWPOLYLINE
  5
2000A
100
AcDbEntity
  8
0
100
AcDbPolyline
 70
0
 90
25
 38
-1.79769313486232e+308
 10
7980.08510733292
 20
2878.23581207111
 10
7995.80119304256
 20
2918.97101324085
 10
8007.02776369349
 20
2941.18816079605
 10
8054.37082993322
 20
3037.46678234111
 10
8124.26499861375
 20
3160.81199161136
 10
8182.17228453317
 20
3250.50839664774
 10
8201.33816125327
 20
3285.94803787149
 10
8284.06635403344
 20
3430.48935670113
 10
8367.10512819224
 20
3600.11746159602
 10
8445.95606310376
 20
3789.13696216965
 10
8472.3888761931
 20
3829.89957404682
 10
8524.19585401275
 20
3885.89490700081
 10
8736.21829576314
 20
4105.08542569108
 10
8831.16714224302
 20
4192.286198011
 10
8975.08765911394
 20
4290.21334884116
 10
9084.34885251232
 20
4354.69577402468
 10
9301.6823471737
 20
4457.97683350263
 10
9792.96865589255
 20
4582.61928963787
 10
10089.5939106428
 20
4661.28525042288
 10
10576.5298536633
 20
4855.62573262663
 10
10873.593707214
 20
4983.9536544493
 10
10961.9145912015
 20
5022.91219008794
 10
11091.9769446635
 20
5080.26455802597
 10
11220.8303684526
 20
5142.23818976931
 10
11336.5469791339
 20
5215.55980646923
  0
LWPOLYLINE
  5
2000B
100
AcDbEntity
  8
0
100
AcDbPolyline
 70
0
 90
3
 38
-1.79769313486232e+308
 10
8573.44359674388
 20
3212.14025873584
 10
8466.97986213387
 20
2932.30464693471
 10
8430.24443017402
 20
2836.16597063267
  0
LWPOLYLINE
  5
2000C
100
AcDbEntity
  8
0
100
AcDbPolyline
 70
0
 90
9
 38
-1.79769313486232e+308
 10
7998.5084830624
 20
2945.17962416388
 10
8007.02776369349
 20
2941.18816079605
 10
8019.40983065301
 20
2936.68262731596
 10
8037.82764040389
 20
2936.68906931286
 10
8065.68868255326
 20
2932.92307844605
 10
8089.29398058252
 20
2923.48555920679
 10
8136.03814796255
 20
2911.22001569891
 10
8340.0177565039
 20
2857.92559402143
 10
8430.24443017402
 20
2836.16597063267
  0
LWPOLYLINE
  5
2000D
100
AcDbEntity
  8
0
100
AcDbPolyline
 70
0
 90
25
 38
-1.79769313486232e+308
 10
5564.06689941407
 20
7097.17285068972
 10
5513.68712973305
 20
7032.1421520839
 10
5272.12717429259
 20
6721.94465483106
 10
5160.70526957409
 20
6571.01212527915
 10
5019.0823869937
 20
6334.77519909466
 10
4888.89980848403
 20
6056.9376773777
 10
4670.18706534327
 20
5659.40182384137
 10
4572.27934679286
 20
5497.02705933652
 10
4435.20497861401
 20
5296.62012554086
 10
4428.39222578228
 20
5286.660234833
 10
4223.34840290518
 20
4953.67012179583
 10
4104.59722290457
 20
4797.49349736269
 10
3945.2222211332
 20
4559.09265829656
 10
3876.47353000463
 20
4458.11857446083
 10
3736.88000175254
 20
4311.24357996076
 10
3519.16579443299
 20
4155.92143797302
 10
3391.01813622274
 20
4034.02126690639
 10
2866.96382219241
 20
3496.45814892264
 10
2441.85027158343
 20
3056.79680696489
 10
2238.65991822341
 20
2828.65852916088
 10
2081.31538396225
 20
2633.8853321889
 10
1931.65189457395
 20
2388.51790840584
 10
1892.69007279248
 20
2324.65745137293
 10
1573.80203307317
 20
1756.25455955589
 10
1557.82436626301
 20
1725.58183265278
  0
LWPOLYLINE
  5
2000E
100
AcDbEntity
  8
0
100
AcDbPolyline
 70
0
 90
5
 38
-1.79769313486232e+308
 10
2218.03296485254
 20
-1448.88598720091
 10
2272.97081168265
 20
-1256.04550005881
 10
2441.76010279254
 20
-683.5735410253
 10
2505.48271890254
 20
-472.616713005718
 10
2512.40122526408
 20
-449.699656068482
  0
LWPOLYLINE
  5
2000F
100
AcDbEntity
  8
0
100
AcDbPolyline
 70
0
 90
5
 38
-1.79769313486232e+308
 10
3478.40727607244
 20
-405.885095575959
 10
3476.49926000358
 20
-419.29765335577
 10
3473.10735512235
 20
-438.072376685352
 10
3359.77186834336
 20
-1302.11235609711
 10
3340.26314202407
 20
-1448.88598720091
  0
LWPOLYLINE
  5
20010
100
AcDbEntity
  8
0
100
AcDbPolyline
 70
0
 90
6
 38
-1.79769313486232e+308
 10
4875.01715478384
 20
6793.08963038805
 10
5068.38467627288
 20
6692.75500635464
 10
5175.63655287296
 20
6629.3690188591
 10
5226.82570751281
 20
6599.11376931924
 10
5429.30918210269
 20
6468.01926329905
 10
5526.04804599368
 20
6395.94563629791
  0
LWPOLYLINE
  5
20011
100
AcDbEntity
  8
0
100
AcDbPolyline
 70
0
 90
4
 38
-1.79769313486232e+308
 10
5526.04804599368
 20
6395.94563629791
 10
6080.09851000355
 20
5983.00936054471
 10
6893.77385642276
 20
5366.39370304146
 10
7072.68097605267
 20
5237.4510929192
  0
LWPOLYLINE
  5
20012
100
AcDbEntity
  8
0
100
AcDbPolyline
 70
0
 90
8
 38
-1.79769313486232e+308
 10
5539.47985575245
 20
6408.87826316092
 10
5447.16705481232
 20
6478.32804860953
 10
5381.1456912131
 20
6522.27998856954
 10
5232.21023129382
 20
6608.6854831859
 10
5211.29775174231
 20
6622.15059123594
 10
5183.37437067264
 20
6638.78868002152
 10
5001.27460805223
 20
6747.25383187118
 10
4884.30565310352
 20
6811.65211275672
  0
LWPOLYLINE
  5
20013
100
AcDbEntity
  8
0
100
AcDbPolyline
 70
0
 90
6
 38
-1.79769313486232e+308
 10
4461.8849209723
 20
305.482534929044
 10
5618.81169086405
 20
278.264336999837
 10
5837.95078766243
 20
271.73610020136
 10
5857.77790216253
 20
271.142272987734
 10
6537.40231777252
 20
250.774402849242
 10
6552.67869149231
 20
250.77569097593
  0
LWPOLYLINE
  5
20014
100
AcDbEntity
  8
0
100
AcDbPolyline
 70
0
 90
5
 38
-1.79769313486232e+308
 10
7966.54309127376
 20
2867.22778322767
 10
7877.81811753371
 20
2645.33378073653
 10
7859.02738748388
 20
2594.76665679492
 10
7744.60987526261
 20
2288.16020067675
 10
7718.03123364308
 20
2210.03203651668
  0
LWPOLYLINE
  5
20015
100
AcDbEntity
  8
0
100
AcDbPolyline
 70
0
 90
6
 38
-1.79769313486232e+308
 10
7731.69570113243
 20
2209.34278239483
 10
7822.80179879339
 20
2457.11981672641
 10
7870.65359510192
 20
2591.35635610098
 10
7887.49512086333
 20
2642.65654865266
 10
7965.00465591335
 20
2844.03545413153
 10
7974.20521183395
 20
2863.98361175587
  0
LWPOLYLINE
  5
20016
100
AcDbEntity
  8
0
100
AcDbPolyline
 70
0
 90
33
 38
-1.79769313486232e+308
 10
7718.03123364308
 20
2210.03203651668
 10
7699.18373065339
 20
2164.50269515426
 10
7664.55446346373
 20
2113.98129293915
 10
7535.10102761247
 20
1937.44332945287
 10
7465.83692725272
 20
1840.3769046593
 10
7313.10435949349
 20
1684.22577677141
 10
7233.04115532235
 20
1601.33218342471
 10
7151.26808377252
 20
1487.2195945567
 10
7084.25597670198
 20
1410.00071588145
 10
7017.81048584253
 20
1331.06766529787
 10
6983.16897351378
 20
1251.60306813461
 10
6882.64079415322
 20
1022.83772880151
 10
6766.77612855368
 20
775.909307081583
 10
6724.17527261273
 20
689.056663897685
 10
6585.5858461623
 20
464.791961226012
 10
6560.59016770207
 20
410.856027124315
 10
6544.6859520533
 20
354.095438105851
 10
6537.30435662241
 20
283.72729385491
 10
6537.40231777252
 20
250.774402849242
 10
6536.71992929363
 20
63.5620784464809
 10
6520.2368522928
 20
-136.197319338233
 10
6519.66467010313
 20
-196.341824139137
 10
6519.65799094261
 20
-285.997091083922
 10
6507.14679337376
 20
-407.441071508587
 10
6502.41794140347
 20
-473.719286192343
 10
6501.65985566274
 20
-481.770901270811
 10
6530.52722602234
 20
-680.215642683808
 10
6527.31343232364
 20
-737.204479619063
 10
6505.2087210332
 20
-859.799486405351
 10
6489.29559982279
 20
-1028.91324479007
 10
6465.0691390437
 20
-1368.50309893363
 10
6472.88822007262
 20
-1422.30887867384
 10
6479.57484806226
 20
-1448.88598720091
  0
LWPOLYLINE
  5
20017
100
AcDbEntity
  8
0
100
AcDbPolyline
 70
0
 90
6
 38
-1.79769313486232e+308
 10
5837.95078766243
 20
271.73610020136
 10
5820.64283323371
 20
141.157901028968
 10
5798.12178704225
 20
-116.466386930686
 10
5786.58463502386
 20
-437.729753689044
 10
5786.18277166308
 20
-453.161947903358
 10
5785.78090830416
 20
-466.352910468955
  0
LWPOLYLINE
  5
20018
100
AcDbEntity
  8
0
100
AcDbPolyline
 70
0
 90
7
 38
-1.79769313486232e+308
 10
5802.78830010341
 20
-466.783120325435
 10
5803.06882521407
 20
-453.579277657107
 10
5803.4706885823
 20
-438.147083954089
 10
5811.35433492334
 20
-228.197313209199
 10
5829.98476489344
 20
5.85886605582709
 10
5843.25850097359
 20
151.92783684922
 10
5857.77790216253
 20
271.142272987734
  0
LWPOLYLINE
  5
20019
100
AcDbEntity
  8
0
100
AcDbPolyline
 70
0
 90
4
 38
-1.79769313486232e+308
 10
8430.24443017402
 20
2836.16597063267
 10
8870.73231566408
 20
2722.32699176982
 10
8972.85459012248
 20
2972.10464135265
 10
9042.80998453395
 20
3119.44984162958
  0
LWPOLYLINE
  5
2001A
100
AcDbEntity
  8
0
100
AcDbPolyline
 70
0
 90
46
 38
-1.79769313486232e+308
 10
8972.85459012248
 20
2972.10464135265
 10
9012.28061418318
 20
2987.39412892783
 10
9165.85809687235
 20
3049.58041559891
 10
9200.42725154282
 20
3065.50003037449
 10
9214.44014904359
 20
3075.22497161418
 10
9224.14720864304
 20
3098.04279495483
 10
9247.88163727232
 20
3192.96203127397
 10
9255.15080002406
 20
3213.60262392914
 10
9307.87616364368
 20
3317.39361946178
 10
9351.34085882352
 20
3401.02125976407
 10
9368.60317226396
 20
3428.33249222287
 10
9392.56469265268
 20
3457.34454055583
 10
9415.33509449371
 20
3477.46502842787
 10
9439.77417550319
 20
3490.88428807152
 10
9469.96624779226
 20
3507.17424473805
 10
9520.76689742402
 20
3526.33104411918
 10
9544.96998111242
 20
3527.76509947596
 10
9617.40891335242
 20
3520.12324841074
 10
9640.7993647539
 20
3525.2036422229
 10
9692.7744350125
 20
3541.61089296486
 10
9734.40124539369
 20
3547.91919920766
 10
9796.0755828739
 20
3552.64527710281
 10
9830.63471879334
 20
3561.77789935968
 10
9866.88479777322
 20
3579.7223358898
 10
9910.9339202837
 20
3602.08108526082
 10
9964.46078424239
 20
3618.99609228164
 10
10024.0935222627
 20
3634.90224951772
 10
10158.2490933937
 20
3660.57762542074
 10
10196.6398461823
 20
3670.48727531671
 10
10332.143496354
 20
3715.82746913969
 10
10435.7930742324
 20
3760.15378898089
 10
10599.734401523
 20
3831.55013016272
 10
10648.1049466532
 20
3851.75109900428
 10
10705.3509948038
 20
3885.97737074118
 10
10912.489850494
 20
4013.82773840088
 10
10965.1795918726
 20
4045.79568602085
 10
11020.7269045831
 20
4069.4618119191
 10
11070.1661168327
 20
4086.7021492546
 10
11149.7384020434
 20
4101.87186159925
 10
11232.3530489438
 20
4113.98135876642
 10
11301.800826474
 20
4124.45444673612
 10
11330.2863709637
 20
4134.7291110911
 10
11384.6347727635
 20
4162.94904663074
 10
11548.6250806236
 20
4253.8354222843
 10
11658.2970429537
 20
4311.51159612076
 10
11853.2375088435
 20
4419.12569697979
  0
LWPOLYLINE
  5
2001B
100
AcDbEntity
  8
0
100
AcDbPolyline
 70
0
 90
6
 38
-1.79769313486232e+308
 10
9521.46264423327
 20
3455.83447449268
 10
9922.23841457338
 20
2996.37688863776
 10
10048.6094137234
 20
2817.43795949394
 10
10083.3934150123
 20
2768.17270300897
 10
10322.0946859223
 20
2430.1031329379
 10
10553.502303793
 20
2031.54610224986
  0
LWPOLYLINE
  5
2001C
100
AcDbEntity
  8
0
100
AcDbPolyline
 70
0
 90
5
 38
-1.79769313486232e+308
 10
7080.73605441385
 20
5249.08230395276
 10
7022.69852469386
 20
5287.64862058298
 10
6797.77638034233
 20
5449.46400085171
 10
5645.45489779384
 20
6329.13178526271
 10
5539.47985575245
 20
6408.87826316092
  0
LWPOLYLINE
  5
2001D
100
AcDbEntity
  8
0
100
AcDbPolyline
 70
0
 90
2
 38
0
 10
9455.52365706385
 20
3531.41659426164
 10
9521.46264423327
 20
3455.83447449268
  0
LWPOLYLINE
  5
2001E
100
AcDbEntity
  8
0
100
AcDbPolyline
 70
0
 90
2
 38
0
 10
9536.2970795826
 20
3468.58500384107
 10
9475.2873194524
 20
3535.09514776418
  0
LWPOLYLINE
  5
2001F
100
AcDbEntity
  8
0
100
AcDbPolyline
 70
0
 90
5
 38
-1.79769313486232e+308
 10
1943.23134800316
 20
2381.35343140164
 10
1931.65189457395
 20
2388.51790840584
 10
1751.85421901279
 20
2472.74365438181
 10
1685.55344349229
 20
2503.8071526716
 10
1557.82436626301
 20
2627.69518450262
  0
LWPOLYLINE
  5
20020
100
AcDbEntity
  8
0
100
AcDbPolyline
 70
0
 90
36
 38
-1.79769313486232e+308
 10
12176.4134703436
 20
-1448.88598720091
 10
12061.5040309736
 20
-1359.35856656045
 10
11840.1352047724
 20
-1214.25585069009
 10
11568.0725956623
 20
-1063.1313972223
 10
11265.1900723324
 20
-904.865711098205
 10
11017.9839923334
 20
-780.279858828191
 10
10814.0199685124
 20
-677.968027072162
 10
10574.6140452241
 20
-553.397977900826
 10
10320.4627421823
 20
-434.821322029125
 10
10137.488008364
 20
-362.818748870999
 10
9956.99903877349
 20
-306.691235818569
 10
9682.70781345376
 20
-251.785857777246
 10
9481.235119854
 20
-231.163755754143
 10
9286.54067003251
 20
-224.835430025258
 10
9072.36308294245
 20
-222.514313222044
 10
8881.47019374267
 20
-237.927448253282
 10
8681.01941306227
 20
-272.565071183857
 10
8372.27703173355
 20
-304.325051554148
 10
7964.18311807224
 20
-345.862663033553
 10
7591.22274889321
 20
-385.752707655676
 10
7231.33462752299
 20
-422.846253371932
 10
6992.67120524393
 20
-446.243803565991
 10
6732.81589149394
 20
-460.033718513925
 10
6517.27241425299
 20
-458.673533287034
 10
6515.61152744376
 20
-458.661940798298
 10
6502.88659645327
 20
-458.287117003598
 10
5871.04495908403
 20
-439.791931802076
 10
5803.4706885823
 20
-438.147083954089
 10
5786.58463502386
 20
-437.729753689044
 10
5089.20810022288
 20
-420.789224736061
 10
4515.25482444362
 20
-407.636856545828
 10
4076.75621826285
 20
-395.548412875407
 10
3760.32945248381
 20
-389.195696030412
 10
3478.36386147224
 20
-390.452843818483
 10
3450.48055542343
 20
-390.582938000229
 10
3215.36377211371
 20
-396.250405920804
  0
LWPOLYLINE
  5
20021
100
AcDbEntity
  8
0
100
AcDbPolyline
 70
0
 90
18
 38
-1.79769313486232e+308
 10
11332.3558003035
 20
5224.87017060896
 10
11214.3716115923
 20
5153.00593464482
 10
11088.5082293329
 20
5089.03231434138
 10
10859.4149436624
 20
4993.3102382015
 10
10775.2596350134
 20
4956.59783175993
 10
10558.5350579739
 20
4866.47828109596
 10
10081.1514404629
 20
4678.10760607277
 10
9778.19321988233
 20
4599.43123223805
 10
9245.46934391269
 20
4461.07065239116
 10
8978.21684999288
 20
4317.77647548295
 10
8729.79738753372
 20
4131.46399863982
 10
8457.51547903278
 20
3830.14181021681
 10
8294.9700981629
 20
3485.2279685441
 10
8161.05052434363
 20
3252.40883297599
 10
8075.28776225344
 20
3094.2071816864
 10
8034.05836244383
 20
3018.94461884988
 10
7998.5084830624
 20
2945.17962416388
 10
7970.7320437123
 20
2880.96462968956
  0
LWPOLYLINE
  5
20022
100
AcDbEntity
  8
0
100
AcDbPolyline
 70
0
 90
4
 38
-1.79769313486232e+308
 10
9475.2873194524
 20
3535.09514776418
 10
9439.07954188333
 20
3574.57492006929
 10
9192.25751411253
 20
3817.01725510401
 10
9050.82721425303
 20
3944.27550427463
  0
LWPOLYLINE
  5
20023
100
AcDbEntity
  8
0
100
AcDbPolyline
 70
0
 90
5
 38
-1.79769313486232e+308
 10
9050.82721425303
 20
3944.27550427463
 10
9027.54474275269
 20
3965.23171624109
 10
8810.28137938389
 20
4146.94043295398
 10
8611.48480633357
 20
4298.72285056613
 10
8489.59664308363
 20
4386.27286381959
  0
LWPOLYLINE
  5
20024
100
AcDbEntity
  8
0
100
AcDbPolyline
 70
0
 90
2
 38
0
 10
4288.73240978354
 20
7097.17285068972
 10
4875.01715478384
 20
6793.08963038805
  0
LWPOLYLINE
  5
20025
100
AcDbEntity
  8
0
100
AcDbPolyline
 70
0
 90
11
 38
-1.79769313486232e+308
 10
12932.969949453
 20
7097.17285068972
 10
12656.9441948635
 20
6821.68150947649
 10
12534.5161320836
 20
6699.49146965459
 10
12423.515015033
 20
6570.71570836274
 10
12317.287277744
 20
6436.95248338474
 10
12203.1736677335
 20
6279.56161027807
 10
11970.445800702
 20
5931.49717493295
 10
11776.338004603
 20
5650.24062651475
 10
11700.2400006939
 20
5544.17663513157
 10
11589.5216351532
 20
5431.84165534084
 10
11422.2607606527
 20
5285.88447449296
  0
LWPOLYLINE
  5
20026
100
AcDbEntity
  8
0
100
AcDbPolyline
 70
0
 90
2
 38
0
 10
11422.2607606527
 20
5285.88447449296
 10
11332.3558003035
 20
5224.87017060896
  0
LWPOLYLINE
  5
20027
100
AcDbEntity
  8
0
100
AcDbPolyline
 70
0
 90
8
 38
-1.79769313486232e+308
 10
14047.1799195324
 20
4622.9257242478
 10
13907.2680175238
 20
4869.90594616146
 10
13879.7631977432
 20
4929.0681068868
 10
13823.9531710324
 20
5056.85555466903
 10
13795.659096063
 20
5116.81882261797
 10
13691.1234150332
 20
5407.83149068137
 10
13617.2317634326
 20
5595.54806845761
 10
13637.0143501432
 20
5603.75303247464
  0
LWPOLYLINE
  5
20028
100
AcDbEntity
  8
0
100
AcDbPolyline
 70
0
 90
6
 38
-1.79769313486232e+308
 10
13918.3242693533
 20
5572.0079569792
 10
13690.3452917923
 20
5544.94467930762
 10
13669.1200044834
 20
5551.29393220074
 10
13653.3939000134
 20
5568.67546321112
 10
13637.0143501432
 20
5603.75303247464
 10
13629.8175450628
 20
5619.15652333932
  0
LWPOLYLINE
  5
20029
100
AcDbEntity
  8
0
100
AcDbPolyline
 70
0
 90
2
 38
0
 10
13629.8175450628
 20
5619.15652333932
 10
13596.8012972929
 20
5686.20761034764
  0
LWPOLYLINE
  5
2002A
100
AcDbEntity
  8
0
100
AcDbPolyline
 70
0
 90
11
 38
-1.79769313486232e+308
 10
13596.8012972929
 20
5686.20761034764
 10
13591.2943220836
 20
5712.22735768962
 10
13594.4379845046
 20
5727.98150241082
 10
13601.525696474
 20
5740.57065677164
 10
13678.5676896636
 20
5798.71882035104
 10
13691.462939483
 20
5806.07595710909
 10
13711.5895034139
 20
5817.56593436176
 10
13754.8326728129
 20
5885.23407050488
 10
14199.8122997423
 20
6572.1436647059
 10
14503.2369489939
 20
7015.06019403679
 10
14556.5308024128
 20
7097.17285068972
  0
LWPOLYLINE
  5
2002B
100
AcDbEntity
  8
0
100
AcDbPolyline
 70
0
 90
37
 38
-1.79769313486232e+308
 10
3200.9946522423
 20
-441.492165845953
 10
3291.1500814435
 20
-438.315819333908
 10
3451.07945428313
 20
-438.78338377424
 10
3473.10735512235
 20
-438.072376685352
 10
3759.86858979323
 20
-437.398723194045
 10
4075.52613788367
 20
-443.738535323315
 10
4513.95795237356
 20
-455.828221103311
 10
5087.98915179343
 20
-468.980539300148
 10
5785.33340394394
 20
-485.919715810702
 10
5802.21834431299
 20
-486.337044489239
 10
5869.69354046405
 20
-487.981886085723
 10
6501.42385834352
 20
-506.478289035749
 10
6514.70538679407
 20
-506.864703850955
 10
6518.13736669243
 20
-506.886600690097
 10
6733.89346416378
 20
-508.248068795208
 10
6996.26571160265
 20
-494.32682512388
 10
7236.13249758341
 20
-470.800558363222
 10
7596.23101279222
 20
-433.69427237906
 10
7969.16911806249
 20
-393.804378599063
 10
8377.17286294223
 20
-352.282380972192
 10
8687.59505538353
 20
-320.355071862363
 10
8887.52263446235
 20
-285.809032598179
 10
9074.05068642357
 20
-270.742447516084
 10
9285.50317238354
 20
-273.036505955872
 10
9478.00462822326
 20
-279.287523273979
 10
9675.53883825325
 20
-299.507669048984
 10
9945.11456993305
 20
-353.469976912387
 10
10121.532585754
 20
-408.319528034091
 10
10301.482769004
 20
-479.144563144207
 10
10553.3442301237
 20
-596.63498660237
 10
10792.1634996933
 20
-720.904500544206
 10
10996.4080486231
 20
-823.35637971586
 10
11243.2723777936
 20
-947.758912083362
 10
11545.3021938232
 20
-1105.58099478916
 10
11815.2886944328
 20
-1255.54061452732
 10
12033.5483672534
 20
-1398.61432307413
 10
12098.0748227023
 20
-1448.88598720091
  0
LWPOLYLINE
  5
2002C
100
AcDbEntity
  8
0
100
AcDbPolyline
 70
0
 90
3
 38
-1.79769313486232e+308
 10
9039.2177045633
 20
3934.94804257653
 10
9388.97018629395
 20
3607.6936490716
 10
9455.52365706385
 20
3531.41659426164
  0
LWPOLYLINE
  5
2002D
100
AcDbEntity
  8
0
100
AcDbPolyline
 70
0
 90
4
 38
-1.79769313486232e+308
 10
8483.35050645367
 20
4378.38567099427
 10
8560.86560748228
 20
4321.61761345794
 10
9014.16525316321
 20
3958.37816523794
 10
9039.2177045633
 20
3934.94804257653
  0
LWPOLYLINE
  5
2002E
100
AcDbEntity
  8
0
100
AcDbPolyline
 70
0
 90
4
 38
-1.79769313486232e+308
 10
1557.82436626301
 20
2444.93021141491
 10
1652.10416290247
 20
2465.71311830576
 10
1716.934407954
 20
2471.65113175181
 10
1751.85421901279
 20
2472.74365438181
  0
LWPOLYLINE
  5
2002F
100
AcDbEntity
  8
0
100
AcDbPolyline
 70
0
 90
14
 38
-1.79769313486232e+308
 10
16189.3117930227
 20
183.572447094
 10
16142.3173765828
 20
237.864807184651
 10
15885.344124454
 20
549.159501421596
 10
15776.3211547536
 20
679.025681181676
 10
15688.9798822728
 20
768.041107839304
 10
15392.2778170732
 20
1048.61215684084
 10
15218.3388863233
 20
1222.90137940306
 10
15098.9019782533
 20
1337.81158328462
 10
15022.3086026133
 20
1403.77592161145
 10
14910.0005947434
 20
1484.79123974392
 10
14753.5488428053
 20
1603.69228258389
 10
14688.6362213333
 20
1650.07373098922
 10
14647.0817686123
 20
1694.44950781144
 10
14551.4872690839
 20
1879.17504293086
  0
LWPOLYLINE
  5
20030
100
AcDbEntity
  8
0
100
AcDbPolyline
 70
0
 90
2
 38
0
 10
14551.4872690839
 20
1879.17504293086
 10
14500.0866074123
 20
1976.51230829661
  0
LWPOLYLINE
  5
20031
100
AcDbEntity
  8
0
100
AcDbPolyline
 70
0
 90
7
 38
-1.79769313486232e+308
 10
1557.82436626301
 20
-506.057275487245
 10
1775.29142461241
 20
-499.184063155804
 10
2120.80597332389
 20
-487.215495546948
 10
2505.48271890254
 20
-472.616713005718
 10
2566.73626871304
 20
-470.287913245749
 10
2937.73407526397
 20
-457.905852923304
 10
3126.84251303309
 20
-444.72776212417
  0
LWPOLYLINE
  5
20032
100
AcDbEntity
  8
0
100
AcDbPolyline
 70
0
 90
2
 38
0
 10
3126.84251303309
 20
-444.72776212417
 10
3200.9946522423
 20
-441.492165845953
  0
LWPOLYLINE
  5
20033
100
AcDbEntity
  8
0
100
AcDbPolyline
 70
0
 90
38
 38
-1.79769313486232e+308
 10
3205.70235350252
 20
-424.968972616032
 10
3219.61172388391
 20
-424.46534205195
 10
3420.61019645342
 20
-420.52388476361
 10
3476.49926000358
 20
-419.29765335577
 10
3657.47803535395
 20
-415.340737758804
 10
3903.55644892239
 20
-418.447534874216
 10
4885.68712798403
 20
-444.060549263977
 10
5785.78090830416
 20
-466.352910468955
 10
5802.78830010341
 20
-466.783120325435
 10
5836.77080105328
 20
-467.630659460224
 10
6501.65985566274
 20
-481.770901270811
 10
6514.31799496234
 20
-482.042680220813
 10
6643.10017428258
 20
-484.537636484154
 10
6772.17735024252
 20
-484.422999888328
 10
6918.65042303399
 20
-479.560603993614
 10
7054.87764989295
 20
-469.974916344177
 10
7175.73499465258
 20
-461.605144447316
 10
7617.11566246384
 20
-412.777500755754
 10
8321.51534393326
 20
-339.101604252257
 10
8980.65586004303
 20
-270.38307504835
 10
9129.04585446314
 20
-256.182057950315
 10
9267.18555017271
 20
-251.468991254125
 10
9424.74604424358
 20
-256.251613990073
 10
9566.96114651383
 20
-268.150843660482
 10
9677.45353349381
 20
-281.217055713892
 10
9822.70988424392
 20
-309.713046980691
 10
9968.99037432381
 20
-342.945193836134
 10
10096.8374699139
 20
-383.288645438984
 10
10250.2490865634
 20
-439.048723365315
 10
10366.832876074
 20
-487.694650647365
 10
10501.8177774128
 20
-551.741552387033
 10
10769.7237167423
 20
-686.981671688281
 10
11349.3732108631
 20
-981.310098930397
 10
11627.3769411937
 20
-1126.13083539591
 10
11823.6042603933
 20
-1240.09651710572
 10
11968.8973465831
 20
-1330.47081668409
 10
12047.3753612012
 20
-1385.16158644915
 10
12131.6478934129
 20
-1448.88598720091
  0
LWPOLYLINE
  5
20034
100
AcDbEntity
  8
0
100
AcDbPolyline
 70
0
 90
2
 38
0
 10
3130.51382984304
 20
-427.679045697343
 10
3205.70235350252
 20
-424.968972616032
  0
LWPOLYLINE
  5
20035
100
AcDbEntity
  8
0
100
AcDbPolyline
 70
0
 90
35
 38
-1.79769313486232e+308
 10
12151.3320603528
 20
-1448.88598720091
 10
12052.5561703042
 20
-1371.92907696696
 10
11832.1747479931
 20
-1227.47306899088
 10
11560.7789426324
 20
-1076.72357857194
 10
11258.1736048338
 20
-918.601030936134
 10
11011.077731124
 20
-794.066834433604
 10
10807.0235385232
 20
-691.717761040799
 10
10567.8057451741
 20
-567.240586075135
 10
10314.3891507638
 20
-449.011834587105
 10
10132.3806701236
 20
-377.385456285108
 10
9953.19302538307
 20
-321.670189543296
 10
9680.41463194312
 20
-267.061133335479
 10
9480.19873539255
 20
-246.569151815162
 10
9286.20671156318
 20
-240.266595305078
 10
9072.90743525223
 20
-237.959650170193
 10
8883.40603968398
 20
-253.256839665253
 10
8683.12223824383
 20
-287.867371207238
 10
8373.84552336381
 20
-319.680124048278
 10
7965.77498679319
 20
-361.216397155676
 10
7592.82463637264
 20
-401.106393467304
 10
7232.87083650277
 20
-438.199894263544
 10
6993.81779599273
 20
-461.636057743472
 10
6733.160981913
 20
-475.465885579255
 10
6515.32098358394
 20
-474.094109530695
 10
6502.41794140347
 20
-473.719286192343
 10
5870.60969986291
 20
-455.224123504147
 10
5803.06882521407
 20
-453.579277657107
 10
5786.18277166308
 20
-453.161947903358
 10
5088.81625561313
 20
-436.221439567063
 10
4514.84071593256
 20
-423.069087387197
 10
4076.36548684248
 20
-410.980658428878
 10
3760.18362395362
 20
-404.627949320846
 10
3478.40727607244
 20
-405.885095575959
 10
3450.66868536257
 20
-406.015189598449
 10
3215.89810566315
 20
-411.681362563879
  0
LWPOLYLINE
  5
20036
100
AcDbEntity
  8
0
100
AcDbPolyline
 70
0
 90
2
 38
0
 10
3215.89810566315
 20
-411.681362563879
 10
3136.86126720243
 20
-415.494016737346
  0
LWPOLYLINE
  5
20037
100
AcDbEntity
  8
0
100
AcDbPolyline
 70
0
 90
2
 38
0
 10
3215.36377211371
 20
-396.250405920804
 10
3141.47991287232
 20
-399.820909412247
  0
LWPOLYLINE
  5
20038
100
AcDbEntity
  8
0
100
AcDbPolyline
 70
0
 90
8
 38
-1.79769313486232e+308
 10
6279.53739651376
 20
4207.45861387984
 10
6335.72034352356
 20
4170.95980368262
 10
6391.51255911299
 20
4134.69045545427
 10
6422.14323020251
 20
4122.31163780145
 10
6551.30612217345
 20
4065.36433609282
 10
6599.31599216246
 20
4038.10327045466
 10
6685.41716551305
 20
3967.87572675604
 10
6961.07984695294
 20
3752.19096560483
  0
LWPOLYLINE
  5
20039
100
AcDbEntity
  8
0
100
AcDbPolyline
 70
0
 90
2
 38
0
 10
6239.0315734026
 20
4228.17559460164
 10
6279.53739651376
 20
4207.45861387984
  0
LWPOLYLINE
  5
2003A
100
AcDbEntity
  8
0
100
AcDbPolyline
 70
0
 90
3
 38
-1.79769313486232e+308
 10
6335.72034352356
 20
4170.95980368262
 10
6561.6944570531
 20
4429.87478726902
 10
6659.85375764304
 20
4523.99865448927
  0
LWPOLYLINE
  5
2003B
100
AcDbEntity
  8
0
100
AcDbPolyline
 70
0
 90
6
 38
-1.79769313486232e+308
 10
8489.59664308363
 20
4386.27286381959
 10
8271.47611962342
 20
4538.63027157388
 10
8010.1502754026
 20
4702.21818479975
 10
7459.45052806371
 20
5012.54015928307
 10
7199.59187473253
 20
5170.11501866892
 10
7178.6949799125
 20
5183.99353493178
  0
LWPOLYLINE
  5
2003C
100
AcDbEntity
  8
0
100
AcDbPolyline
 70
0
 90
4
 38
-1.79769313486232e+308
 10
7171.05289687299
 20
5173.04664456086
 10
7197.70834894375
 20
5155.70560404645
 10
7964.13859027335
 20
4712.65310184597
 10
8483.35050645367
 20
4378.38567099427
  0
LWPOLYLINE
  5
2003D
100
AcDbEntity
  8
0
100
AcDbPolyline
 70
0
 90
2
 38
0
 10
7072.68097605267
 20
5237.4510929192
 10
7171.05289687299
 20
5173.04664456086
  0
LWPOLYLINE
  5
2003E
100
AcDbEntity
  8
0
100
AcDbPolyline
 70
0
 90
2
 38
0
 10
7178.6949799125
 20
5183.99353493178
 10
7080.73605441385
 20
5249.08230395276
  0
LWPOLYLINE
  5
2003F
100
AcDbEntity
  8
0
100
AcDbPolyline
 70
0
 90
4
 38
-1.79769313486232e+308
 10
8323.95101439291
 20
6682.53497226895
 10
8218.37004335308
 20
6757.13754450097
 10
7970.30012409286
 20
6911.3574542048
 10
7697.36253280462
 20
7097.17285068972
  0
LWPOLYLINE
  5
20040
100
AcDbEntity
  8
0
100
AcDbPolyline
 70
0
 90
2
 38
0
 10
8386.28658965313
 20
6638.49226151673
 10
8323.95101439291
 20
6682.53497226895
  0
LWPOLYLINE
  5
20041
100
AcDbEntity
  8
0
100
AcDbPolyline
 70
0
 90
6
 38
-1.79769313486232e+308
 10
3141.47991287232
 20
-399.820909412247
 10
2935.86279462361
 20
-409.746697744023
 10
2565.11100415223
 20
-422.103043940053
 10
2119.15844486364
 20
-439.030690576084
 10
1773.79974343338
 20
-450.999303672132
 10
1557.82436626301
 20
-457.842195040681
  0
LWPOLYLINE
  5
20042
100
AcDbEntity
  8
0
100
AcDbPolyline
 70
0
 90
6
 38
-1.79769313486232e+308
 10
3136.86126720243
 20
-415.494016737346
 10
2936.46391988256
 20
-425.163469325885
 10
2565.63420575381
 20
-437.532681061089
 10
2119.68164647267
 20
-454.461595150777
 10
1774.27841724352
 20
-466.430193678611
 10
1557.82436626301
 20
-473.277308613197
  0
LWPOLYLINE
  5
20043
100
AcDbEntity
  8
0
100
AcDbPolyline
 70
0
 90
5
 38
-1.79769313486232e+308
 10
1557.82436626301
 20
-486.244591250685
 10
2303.78404673272
 20
-457.100818937313
 10
2512.40122526408
 20
-449.699656068482
 10
2976.56342685306
 20
-433.238300264016
 10
3130.51382984304
 20
-427.679045697343
  0
LWPOLYLINE
  5
20044
100
AcDbEntity
  8
0
100
AcDbPolyline
 70
0
 90
4
 38
-1.79769313486232e+308
 10
7541.64373716468
 20
1154.71542189406
 10
7876.8462983732
 20
1691.19146561097
 10
8159.14362147347
 20
2146.34124885905
 10
8430.24443017402
 20
2836.16597063267
  0
LWPOLYLINE
  5
20045
100
AcDbEntity
  8
0
100
AcDbPolyline
 70
0
 90
5
 38
-1.79769313486232e+308
 10
3674.7336696227
 20
4252.03276421815
 10
4025.08950299294
 20
4064.78450471429
 10
4733.82730503277
 20
3629.48294412657
 10
4781.75591179253
 20
3584.29123288659
 10
4859.84653458268
 20
3456.71577582495
  0
LWPOLYLINE
  5
20046
100
AcDbEntity
  8
0
100
AcDbPolyline
 70
0
 90
14
 38
-1.79769313486232e+308
 10
16189.3117930227
 20
1038.99391567088
 10
15696.728832024
 20
1252.24460572643
 10
15257.4365178727
 20
1412.03356533484
 10
14680.5243700323
 20
1559.75612001899
 10
13906.3295942237
 20
1709.88818181106
 10
12620.2677622222
 20
1945.17054192103
 10
11804.2925551337
 20
2090.59194238284
 10
11366.3772630737
 20
2148.82255154276
 10
10800.8486463641
 20
2184.42659307956
 10
10632.7372909532
 20
2207.10109634265
 10
10510.4205476631
 20
2282.24159821668
 10
10397.5659610935
 20
2410.29608815662
 10
10272.437287473
 20
2561.48308888157
 10
10173.3629406624
 20
2674.24998471453
  0
LWPOLYLINE
  5
20047
100
AcDbEntity
  8
0
100
AcDbPolyline
 70
0
 90
2
 38
0
 10
11502.5354718537
 20
-8.24841327233662
 10
11430.7188155641
 20
191.304325221437
  0
LWPOLYLINE
  5
20048
100
AcDbEntity
  8
0
100
AcDbPolyline
 70
0
 90
2
 38
0
 10
11411.9859716528
 20
197.021004414051
 10
11480.5231557441
 20
-0.324019438256073
  0
LWPOLYLINE
  5
20049
100
AcDbEntity
  8
0
100
AcDbPolyline
 70
0
 90
3
 38
-1.79769313486232e+308
 10
11639.872554033
 20
-508.948767555081
 10
11555.6727175926
 20
-201.617802465935
 10
11502.5354718537
 20
-8.24841327233662
  0
LWPOLYLINE
  5
2004A
100
AcDbEntity
  8
0
100
AcDbPolyline
 70
0
 90
3
 38
-1.79769313486232e+308
 10
11480.5231557441
 20
-0.324019438256073
 10
11492.3386064925
 20
-34.346581030306
 10
11619.5734448832
 20
-512.476733698178
  0
LWPOLYLINE
  5
2004B
100
AcDbEntity
  8
0
100
AcDbPolyline
 70
0
 90
4
 38
-1.79769313486232e+308
 10
10606.6261911941
 20
1936.85715397574
 10
11086.4421395835
 20
979.202442399557
 10
11342.957868603
 20
395.759004689618
 10
11411.9859716528
 20
197.021004414051
  0
LWPOLYLINE
  5
2004C
100
AcDbEntity
  8
0
100
AcDbPolyline
 70
0
 90
2
 38
0
 10
10553.502303793
 20
2031.54610224986
 10
10606.6261911941
 20
1936.85715397574
  0
LWPOLYLINE
  5
2004D
100
AcDbEntity
  8
0
100
AcDbPolyline
 70
0
 90
2
 38
0
 10
10613.221871023
 20
1951.83491217658
 10
10562.2230727029
 20
2045.46627083407
  0
LWPOLYLINE
  5
2004E
100
AcDbEntity
  8
0
100
AcDbPolyline
 70
0
 90
6
 38
-1.79769313486232e+308
 10
11430.7188155641
 20
191.304325221437
 10
11375.9418337223
 20
350.979435462836
 10
11306.6877521136
 20
527.807034477923
 10
11204.969567404
 20
762.771169002965
 10
11107.1353197236
 20
966.297257617913
 10
10613.221871023
 20
1951.83491217658
  0
LWPOLYLINE
  5
2004F
100
AcDbEntity
  8
0
100
AcDbPolyline
 70
0
 90
3
 38
-1.79769313486232e+308
 10
8393.33311342345
 20
6633.51758678477
 10
8502.30598934264
 20
6772.23184056287
 10
8764.00203222306
 20
7097.17285068972
  0
LWPOLYLINE
  5
20050
100
AcDbEntity
  8
0
100
AcDbPolyline
 70
0
 90
7
 38
-1.79769313486232e+308
 10
12373.8458871123
 20
7097.17285068972
 10
12656.9441948635
 20
6821.68150947649
 10
12664.0552839328
 20
6814.88956300109
 10
12989.3107985229
 20
6504.13806710612
 10
13191.9211773229
 20
6286.95124499486
 10
13447.5530295939
 20
6036.78731623604
 10
13691.462939483
 20
5806.07595710909
  0
LWPOLYLINE
  5
20051
100
AcDbEntity
  8
0
100
AcDbPolyline
 70
0
 90
3
 38
-1.79769313486232e+308
 10
4884.30565310352
 20
6811.65211275672
 10
4783.2086311438
 20
6867.30621442139
 10
4322.792898734
 20
7097.17285068972
  0
LWPOLYLINE
  5
20052
100
AcDbEntity
  8
0
100
AcDbPolyline
 70
0
 90
2
 38
0
 10
7970.7320437123
 20
2880.96462968956
 10
7966.54309127376
 20
2867.22778322767
  0
LWPOLYLINE
  5
20053
100
AcDbEntity
  8
0
100
AcDbPolyline
 70
0
 90
4
 38
-1.79769313486232e+308
 10
10778.9476497424
 20
5049.49756464302
 10
10792.2135934633
 20
5020.25765039665
 10
10787.139651074
 20
4984.42270764974
 10
10775.2596350134
 20
4956.59783175993
  0
LWPOLYLINE
  5
20054
100
AcDbEntity
  8
0
100
AcDbPolyline
 70
0
 90
5
 38
-1.79769313486232e+308
 10
10966.577764674
 20
4925.79119220968
 10
10946.7194807128
 20
4960.09124009111
 10
10945.2322523136
 20
4987.85040464472
 10
10950.3039683131
 20
5005.16544308267
 10
10961.9145912015
 20
5022.91219008794
  0
LWPOLYLINE
  5
20055
100
AcDbEntity
  8
0
100
AcDbPolyline
 70
0
 90
2
 38
0
 10
11336.5469791339
 20
5215.55980646923
 10
11430.187821594
 20
5280.53920354494
  0
LWPOLYLINE
  5
20056
100
AcDbEntity
  8
0
100
AcDbPolyline
 70
0
 90
10
 38
-1.79769313486232e+308
 10
11430.187821594
 20
5280.53920354494
 10
11597.1804161229
 20
5424.84684741158
 10
11708.7103007537
 20
5536.97300157636
 10
11786.2309677535
 20
5643.77018856616
 10
11980.638213274
 20
5927.77024318404
 10
12216.176897454
 20
6273.77903724961
 10
12327.0778269627
 20
6430.67237904468
 10
12433.7942568128
 20
6565.46526377169
 10
12664.0552839328
 20
6814.88956300109
 10
12947.7252480023
 20
7097.17285068972
  0
LWPOLYLINE
  5
20057
100
AcDbEntity
  8
0
100
AcDbPolyline
 70
0
 90
14
 38
-1.79769313486232e+308
 10
3317.11535267242
 20
5746.70093126907
 10
3512.08364843288
 20
5703.04679192589
 10
3661.77608089232
 20
5671.82724794173
 10
3764.44493405231
 20
5643.97251051651
 10
3837.849006283
 20
5626.92593113785
 10
3886.02474232287
 20
5609.83298254093
 10
3937.63468464361
 20
5582.44874553416
 10
4014.48966108345
 20
5535.63536846485
 10
4161.29446595245
 20
5451.15600504154
 10
4267.94967008279
 20
5380.34073279598
 10
4362.57235045255
 20
5324.96764880172
 10
4428.39222578228
 20
5286.660234833
 10
4443.5339029123
 20
5277.00704767774
 10
4466.3800020133
 20
5269.81516386089
  0
LWPOLYLINE
  5
20058
100
AcDbEntity
  8
0
100
AcDbPolyline
 70
0
 90
2
 38
0
 10
3324.34332720273
 20
5753.19719554424
 10
3252.84949744389
 20
5768.58927004585
  0
LWPOLYLINE
  5
20059
100
AcDbEntity
  8
0
100
AcDbPolyline
 70
0
 90
9
 38
-1.79769313486232e+308
 10
4466.3800020133
 20
5269.81516386089
 10
4452.15337108345
 20
5286.31230244912
 10
4435.20497861401
 20
5296.62012554086
 10
4022.51913595282
 20
5540.98461310273
 10
3871.77362110362
 20
5627.91563212486
 10
3812.54497283407
 20
5643.33848250644
 10
3670.15287257255
 20
5678.31316436907
 10
3463.44593651303
 20
5722.41568004466
 10
3324.34332720273
 20
5753.19719554424
  0
LWPOLYLINE
  5
2005A
100
AcDbEntity
  8
0
100
AcDbPolyline
 70
0
 90
2
 38
0
 10
3246.61449276366
 20
5761.82495100643
 10
3317.11535267242
 20
5746.70093126907
  0
LWPOLYLINE
  5
2005B
100
AcDbEntity
  8
0
100
AcDbPolyline
 70
0
 90
9
 38
-1.79769313486232e+308
 10
3252.84949744389
 20
5768.58927004585
 10
2997.05845830486
 20
5824.82127530394
 10
2876.48163865403
 20
5852.96121247472
 10
2770.87172454306
 20
5882.29970230428
 10
2566.22753864237
 20
5951.76206333084
 10
2259.54122831383
 20
6056.83458002643
 10
1981.8681168639
 20
6150.30684858174
 10
1677.85792709225
 20
6253.5742039898
 10
1557.82436626301
 20
6292.59062861638
  0
LWPOLYLINE
  5
2005C
100
AcDbEntity
  8
0
100
AcDbPolyline
 70
0
 90
19
 38
-1.79769313486232e+308
 10
14500.0866074123
 20
1976.51230829661
 10
14375.0770456334
 20
2209.43296517418
 10
14324.4378092726
 20
2292.23520001476
 10
14220.5444417138
 20
2417.47861838141
 10
14167.3025556532
 20
2475.54839746082
 10
14066.0084982038
 20
2544.78593825489
 10
13908.8632258334
 20
2653.87181003891
 10
13813.401196503
 20
2719.84042325928
 10
13627.0111807034
 20
2903.83750416651
 10
13408.1414770734
 20
3117.83803083641
 10
13249.0035858125
 20
3272.4555546193
 10
13070.3691989341
 20
3445.33488189788
 10
12918.3513023135
 20
3590.15246272307
 10
12705.2590802525
 20
3777.37824347416
 10
12568.171353734
 20
3888.94348877143
 10
12436.9078629733
 20
3984.21654862664
 10
12198.4292310336
 20
4143.45498006451
 10
12051.5520684932
 20
4254.35083564404
 10
12045.605381294
 20
4259.3593660778
  0
LWPOLYLINE
  5
2005D
100
AcDbEntity
  8
0
100
AcDbPolyline
 70
0
 90
2
 38
0
 10
12045.605381294
 20
4259.3593660778
 10
12000.405215253
 20
4297.41627315931
  0
LWPOLYLINE
  5
2005E
100
AcDbEntity
  8
0
100
AcDbPolyline
 70
0
 90
2
 38
0
 10
7826.07118519928
 20
3320.89072582826
 10
7428.3610536941
 20
2243.12141590675
  0
LWPOLYLINE
  5
2005F
100
AcDbEntity
  8
0
100
AcDbPolyline
 70
0
 90
2
 38
0
 10
7468.59066458329
 20
2234.08831766987
 10
8440.15639675307
 20
2167.24012258796
  0
LWPOLYLINE
  5
20060
100
AcDbEntity
  8
0
100
AcDbPolyline
 70
0
 90
2
 38
0
 10
8383.70821930555
 20
2179.50098481946
 10
8716.91058769202
 20
1896.79645678207
  0
LWPOLYLINE
  5
20061
100
AcDbEntity
  8
0
100
AcDbPolyline
 70
0
 90
2
 38
0
 10
8678.74818296707
 20
1938.76164035322
 10
8803.9438251337
 20
1760.89940691896
  0
LWPOLYLINE
  5
20062
100
AcDbEntity
  8
0
100
AcDbPolyline
 70
0
 90
2
 38
0
 10
8783.89305056952
 20
1779.95608210471
 10
8894.90638854838
 20
1732.55868421983
  0
LWPOLYLINE
  5
20063
100
AcDbEntity
  8
0
100
AcDbPolyline
 70
0
 90
2
 38
0
 10
8856.27178956935
 20
1739.88820619872
 10
9120.01806696606
 20
1743.46004577818
  0
LWPOLYLINE
  5
20064
100
AcDbEntity
  8
0
100
AcDbPolyline
 70
0
 90
2
 38
0
 10
9093.27030529882
 20
1748.26998374762
 10
9187.09617429672
 20
1717.35553264525
  0
LWPOLYLINE
  5
20065
100
AcDbEntity
  8
0
100
AcDbPolyline
 70
0
 90
2
 38
0
 10
9165.95218631197
 20
1718.90604982218
 10
9290.95064551634
 20
1725.99338192983
  0
LWPOLYLINE
  5
20066
100
AcDbEntity
  8
0
100
AcDbPolyline
 70
0
 90
2
 38
0
 10
9242.97021711361
 20
1729.10635161365
 10
9565.95657909077
 20
1661.43405529475
  0
LWPOLYLINE
  5
20067
100
AcDbEntity
  8
0
100
AcDbPolyline
 70
0
 90
2
 38
0
 10
9534.55130763061
 20
1671.8936047466
 10
10214.7612629672
 20
1384.61584757968
  0
LWPOLYLINE
  5
20068
100
AcDbEntity
  8
0
100
AcDbPolyline
 70
0
 90
2
 38
0
 10
10187.6100263798
 20
1401.95834301688
 10
10390.8788693167
 20
1224.96800336399
  0
LWPOLYLINE
  5
20069
100
AcDbEntity
  8
0
100
AcDbPolyline
 70
0
 90
2
 38
0
 10
10349.0696514363
 20
1254.12109686853
 10
10795.8926738191
 20
977.456255582067
  0
LWPOLYLINE
  5
2006A
100
AcDbEntity
  8
0
100
AcDbPolyline
 70
0
 90
2
 38
0
 10
10771.0263215982
 20
994.941821304877
 10
10894.9003556767
 20
863.46898823302
  0
LWPOLYLINE
  5
2006B
100
AcDbEntity
  8
0
100
AcDbPolyline
 70
0
 90
2
 38
0
 10
10869.7317991332
 20
896.713594803412
 10
10961.2360798708
 20
731.100595618249
  0
LWPOLYLINE
  5
2006C
100
AcDbEntity
  8
0
100
AcDbPolyline
 70
0
 90
2
 38
0
 10
10938.772627091
 20
781.150761451914
 10
11035.6296483105
 20
526.479096315393
  0
LWPOLYLINE
  5
2006D
100
AcDbEntity
  8
0
100
AcDbPolyline
 70
0
 90
2
 38
0
 10
11013.2542045023
 20
568.708137760215
 10
11137.5623893829
 20
371.639243534657
  0
LWPOLYLINE
  5
2006E
100
AcDbEntity
  8
0
100
AcDbPolyline
 70
0
 90
2
 38
0
 10
7521.55773222071
 20
2215.05981600974
 10
7123.36897658225
 20
2567.63284352582
  0
LWPOLYLINE
  5
2006F
100
AcDbEntity
  8
0
100
AcDbPolyline
 70
0
 90
2
 38
0
 10
7134.21886191651
 20
2548.36476444865
 10
7118.61220552912
 20
2587.07979887845
  0
LWPOLYLINE
  5
20070
100
AcDbEntity
  8
0
100
AcDbPolyline
 70
0
 90
2
 38
0
 10
7132.60442641293
 20
2572.02396923061
 10
6871.7987471057
 20
2782.49664878562
  0
LWPOLYLINE
  5
20071
100
AcDbEntity
  8
0
100
AcDbPolyline
 70
0
 90
2
 38
0
 10
6787.62171558896
 20
2833.11714922723
 10
6901.26098944375
 20
2762.40754194698
  0
LWPOLYLINE
  5
20072
100
AcDbEntity
  8
0
100
AcDbPolyline
 70
0
 90
2
 38
0
 10
6801.57147247886
 20
2821.89880989325
 10
6635.84414905624
 20
2990.73824123364
  0
LWPOLYLINE
  5
20073
100
AcDbEntity
  8
0
100
AcDbPolyline
 70
0
 90
2
 38
0
 10
6666.63925177106
 20
2966.01023533844
 10
6224.23864672281
 20
3173.34090086593
  0
LWPOLYLINE
  5
20074
100
AcDbEntity
  8
0
100
AcDbPolyline
 70
0
 90
2
 38
0
 10
6260.83979640342
 20
3151.46830740568
 10
6039.70767739002
 20
3378.04149093891
  0
LWPOLYLINE
  5
20075
100
AcDbEntity
  8
0
100
AcDbPolyline
 70
0
 90
2
 38
0
 10
5475.46501404772
 20
3723.57677175245
 10
6097.34431084385
 20
3336.36603366044
  0
LWPOLYLINE
  5
20076
100
AcDbEntity
  8
0
100
AcDbPolyline
 70
0
 90
2
 38
0
 10
5108.361643379
 20
3886.06788817478
 10
5447.34099031906
 20
3706.81285808252
  0
LWPOLYLINE
  5
20077
100
AcDbEntity
  8
0
100
AcDbPolyline
 70
0
 90
2
 38
0
 10
5409.47623541896
 20
3717.62222027353
 10
5505.94116796282
 20
3716.72143582223
  0
LWPOLYLINE
  5
20078
100
AcDbEntity
  8
0
100
AcDbPolyline
 70
0
 90
2
 38
0
 10
7653.61901186369
 20
3033.64913322331
 10
7142.31448170237
 20
2528.51190542858
  0
LWPOLYLINE
  5
20079
100
AcDbEntity
  8
0
100
AcDbPolyline
 70
0
 90
2
 38
0
 10
7640.99876645516
 20
3032.77211698273
 10
8433.23101498242
 20
2721.59388720525
  0
LWPOLYLINE
  5
2007A
100
AcDbEntity
  8
0
100
AcDbPolyline
 70
0
 90
2
 38
0
 10
8409.94922611801
 20
2729.78889989152
 10
8763.91407632313
 20
2610.35456309703
  0
LWPOLYLINE
  5
2007B
100
AcDbEntity
  8
0
100
AcDbPolyline
 70
0
 90
2
 38
0
 10
8747.07154357032
 20
2618.94129023874
 10
8805.33897496524
 20
2584.8052733174
  0
LWPOLYLINE
  5
2007C
100
AcDbEntity
  8
0
100
AcDbPolyline
 70
0
 90
2
 38
0
 10
8785.68243236979
 20
2593.45618487296
 10
8898.2658664769
 20
2555.07129293896
  0
LWPOLYLINE
  5
2007D
100
AcDbEntity
  8
0
100
AcDbPolyline
 70
0
 90
2
 38
0
 10
8876.26938367428
 20
2565.12504117255
 10
9154.263603609
 20
2361.35878765866
  0
LWPOLYLINE
  5
2007E
100
AcDbEntity
  8
0
100
AcDbPolyline
 70
0
 90
2
 38
0
 10
9130.62187546492
 20
2369.2715016181
 10
9199.66538253907
 20
2364.37094734531
  0
LWPOLYLINE
  5
2007F
100
AcDbEntity
  8
0
100
AcDbPolyline
 70
0
 90
2
 38
0
 10
9166.08681190779
 20
2372.66420879913
 10
9469.59305110015
 20
2202.0731525334
  0
LWPOLYLINE
  5
20080
100
AcDbEntity
  8
0
100
AcDbPolyline
 70
0
 90
2
 38
0
 10
8630.15276340963
 20
2756.05210681062
 10
8765.59415017691
 20
3202.83033504189
  0
LWPOLYLINE
  5
20081
100
AcDbEntity
  8
0
100
AcDbPolyline
 70
0
 90
2
 38
0
 10
8514.67936651176
 20
3118.40057935166
 10
8725.42441753781
 20
3020.13603461442
  0
LWPOLYLINE
  5
20082
100
AcDbEntity
  8
0
100
AcDbPolyline
 70
0
 90
2
 38
0
 10
8705.35341564531
 20
3071.27369853743
 10
8996.38220632978
 20
2995.06856334766
  0
LWPOLYLINE
  5
20083
100
AcDbEntity
  8
0
100
AcDbPolyline
 70
0
 90
2
 38
0
 10
8652.16545486607
 20
2933.90389042811
 10
8937.17293158721
 20
2845.66630346282
  0
LWPOLYLINE
  5
20084
100
AcDbEntity
  8
0
100
AcDbPolyline
 70
0
 90
2
 38
0
 10
8853.97659060499
 20
2541.56178005151
 10
8985.94557469024
 20
2830.44035694477
  0
LWPOLYLINE
  5
20085
100
AcDbEntity
  8
0
100
AcDbPolyline
 70
0
 90
2
 38
0
 10
8955.72366891534
 20
2805.27673711872
 10
9049.41156342198
 20
2841.51239884384
  0
LWPOLYLINE
  5
20086
100
AcDbEntity
  8
0
100
AcDbPolyline
 70
0
 90
2
 38
0
 10
9016.16748046514
 20
2812.32257730681
 10
9073.58911483307
 20
2897.87891545012
  0
LWPOLYLINE
  5
20087
100
AcDbEntity
  8
0
100
AcDbPolyline
 70
0
 90
2
 38
0
 10
9042.35972736031
 20
2877.74800934437
 10
9124.96626088134
 20
2879.76108458756
  0
LWPOLYLINE
  5
20088
100
AcDbEntity
  8
0
100
AcDbPolyline
 70
0
 90
2
 38
0
 10
9104.81836835001
 20
2866.67601866989
 10
9165.56867080857
 20
2945.37271801725
  0
LWPOLYLINE
  5
20089
100
AcDbEntity
  8
0
100
AcDbPolyline
 70
0
 90
2
 38
0
 10
9154.82407474631
 20
2923.27007491408
 10
9195.30016433835
 20
3028.24155793836
  0
LWPOLYLINE
  5
2008A
100
AcDbEntity
  8
0
100
AcDbPolyline
 70
0
 90
2
 38
0
 10
9180.13127556012
 20
3003.61292775175
 10
9214.26134228898
 20
3043.39768533744
  0
LWPOLYLINE
  5
2008B
100
AcDbEntity
  8
0
100
AcDbPolyline
 70
0
 90
2
 38
0
 10
9201.62060164049
 20
3018.76900392623
 10
9223.53429974834
 20
3082.10626546864
  0
LWPOLYLINE
  5
2008C
100
AcDbEntity
  8
0
100
AcDbPolyline
 70
0
 90
2
 38
0
 10
9136.70588075049
 20
2569.48476620241
 10
9535.81089417558
 20
3150.17970156793
  0
LWPOLYLINE
  5
2008D
100
AcDbEntity
  8
0
100
AcDbPolyline
 70
0
 90
2
 38
0
 10
9525.23494848661
 20
3132.4460039212
 10
9636.97633632956
 20
3339.42060730931
  0
LWPOLYLINE
  5
2008E
100
AcDbEntity
  8
0
100
AcDbPolyline
 70
0
 90
2
 38
0
 10
9473.26478003754
 20
3158.9943269197
 10
9930.64673572054
 20
2842.53566129474
  0
LWPOLYLINE
  5
2008F
100
AcDbEntity
  8
0
100
AcDbPolyline
 70
0
 90
2
 38
0
 10
9640.07352876884
 20
2485.19003853683
 10
10301.1911634101
 20
3170.84370200321
  0
LWPOLYLINE
  5
20090
100
AcDbEntity
  8
0
100
AcDbPolyline
 70
0
 90
2
 38
0
 10
10289.3325907757
 20
3120.06430287704
 10
10297.3071145032
 20
3465.51992944993
  0
LWPOLYLINE
  5
20091
100
AcDbEntity
  8
0
100
AcDbPolyline
 70
0
 90
2
 38
0
 10
10258.6691666288
 20
3397.79763792919
 10
10611.3262061948
 20
3858.70273783136
  0
LWPOLYLINE
  5
20092
100
AcDbEntity
  8
0
100
AcDbPolyline
 70
0
 90
2
 38
0
 10
6086.27058533978
 20
3271.77131083224
 10
6784.67937607385
 20
4187.87334944545
  0
LWPOLYLINE
  5
20093
100
AcDbEntity
  8
0
100
AcDbPolyline
 70
0
 90
2
 38
0
 10
6752.52154083512
 20
4151.00352727069
 10
7675.16138444751
 20
4913.9734897777
  0
LWPOLYLINE
  5
20094
100
AcDbEntity
  8
0
100
AcDbPolyline
 70
0
 90
2
 38
0
 10
6518.29591051259
 20
4330.92765298438
 10
7123.84679698062
 20
3828.46685889996
  0
LWPOLYLINE
  5
20095
100
AcDbEntity
  8
0
100
AcDbPolyline
 70
0
 90
2
 38
0
 10
6323.40332479766
 20
3899.40728419201
 10
7000.88540388172
 20
3318.12654439174
  0
LWPOLYLINE
  5
20096
100
AcDbEntity
  8
0
100
AcDbPolyline
 70
0
 90
2
 38
0
 10
6812.39282522412
 20
3463.59987806591
 10
7419.94876235744
 20
4189.45321831363
  0
LWPOLYLINE
  5
20097
100
AcDbEntity
  8
0
100
AcDbPolyline
 70
0
 90
2
 38
0
 10
6817.34101913939
 20
4671.86255563458
 10
7423.4677816637
 20
4153.51220044202
  0
LWPOLYLINE
  5
20098
100
AcDbEntity
  8
0
100
AcDbPolyline
 70
0
 90
2
 38
0
 10
6941.08056157787
 20
3358.64888487845
 10
7916.58928321395
 20
4474.94446660803
  0
LWPOLYLINE
  5
20099
100
AcDbEntity
  8
0
100
AcDbPolyline
 70
0
 90
2
 38
0
 10
7860.2632734713
 20
4462.63355795009
 10
8402.40135166687
 20
4149.58470851993
  0
LWPOLYLINE
  5
2009A
100
AcDbEntity
  8
0
100
AcDbPolyline
 70
0
 90
2
 38
0
 10
8227.4337560042
 20
3890.22066585274
 10
9377.90257177723
 20
3377.43022788191
  0
LWPOLYLINE
  5
2009B
100
AcDbEntity
  8
0
100
AcDbPolyline
 70
0
 90
2
 38
0
 10
8178.0139723504
 20
2882.60082229735
 10
8582.20073364006
 20
3758.04943669279
  0
LWPOLYLINE
  5
2009C
100
AcDbEntity
  8
0
100
AcDbPolyline
 70
0
 90
2
 38
0
 10
7979.14249701027
 20
3510.97883509765
 10
7857.04793200162
 20
3248.58229658076
  0
LWPOLYLINE
  5
2009D
100
AcDbEntity
  8
0
100
AcDbPolyline
 70
0
 90
2
 38
0
 10
7941.13199818152
 20
3464.9443699336
 10
8059.1568515212
 20
3559.6523912444
  0
LWPOLYLINE
  5
2009E
100
AcDbEntity
  8
0
100
AcDbPolyline
 70
0
 90
2
 38
0
 10
8023.02387742014
 20
3524.99413960705
 10
8153.53515430741
 20
3787.86076620524
  0
LWPOLYLINE
  5
2009F
100
AcDbEntity
  8
0
100
AcDbPolyline
 70
0
 90
2
 38
0
 10
8126.22276887251
 20
3741.92393511364
 10
8507.39900182671
 20
4280.36580470067
  0
LWPOLYLINE
  5
200A0
100
AcDbEntity
  8
0
100
AcDbPolyline
 70
0
 90
2
 38
0
 10
8484.006297546
 20
4238.58123904111
 10
8528.66421982562
 20
4382.56158075522
  0
LWPOLYLINE
  5
200A1
100
AcDbEntity
  8
0
100
AcDbPolyline
 70
0
 90
2
 38
0
 10
8409.95096754361
 20
4166.17456102606
 10
9138.28441609521
 20
3853.26053472218
  0
LWPOLYLINE
  5
200A2
100
AcDbEntity
  8
0
100
AcDbPolyline
 70
0
 90
2
 38
0
 10
8521.86087180406
 20
4371.42438117506
 10
8654.85528766661
 20
4526.49914993496
  0
LWPOLYLINE
  5
200A3
100
AcDbEntity
  8
0
100
AcDbPolyline
 70
0
 90
2
 38
0
 10
8605.67434723408
 20
4497.01545291331
 10
8959.93925846874
 20
4622.79170155183
  0
LWPOLYLINE
  5
200A4
100
AcDbEntity
  8
0
100
AcDbPolyline
 70
0
 90
2
 38
0
 10
8919.83770934038
 20
4598.59996591086
 10
9086.29656547832
 20
4733.92242952489
  0
LWPOLYLINE
  5
200A5
100
AcDbEntity
  8
0
100
AcDbPolyline
 70
0
 90
2
 38
0
 10
9033.3324448689
 20
4702.17081491456
 10
9210.38399117289
 20
4756.60216888216
  0
LWPOLYLINE
  5
200A6
100
AcDbEntity
  8
0
100
AcDbPolyline
 70
0
 90
2
 38
0
 10
9149.09692775656
 20
4752.82225500978
 10
9345.82082344242
 20
4744.50635228626
  0
LWPOLYLINE
  5
200A7
100
AcDbEntity
  8
0
100
AcDbPolyline
 70
0
 90
2
 38
0
 10
9266.3747095062
 20
4727.11852308509
 10
9659.10088089301
 20
4879.87230557895
  0
LWPOLYLINE
  5
200A8
100
AcDbEntity
  8
0
100
AcDbPolyline
 70
0
 90
2
 38
0
 10
9183.65860012703
 20
4192.80878766543
 10
10397.2135059355
 20
3719.1950713726
  0
LWPOLYLINE
  5
200A9
100
AcDbEntity
  8
0
100
AcDbPolyline
 70
0
 90
2
 38
0
 10
10404.2757905508
 20
3645.22763126219
 10
10956.2972628627
 20
3239.85111608945
  0
LWPOLYLINE
  5
200AA
100
AcDbEntity
  8
0
100
AcDbPolyline
 70
0
 90
2
 38
0
 10
10910.6124352918
 20
3279.64181572783
 10
11162.419096785
 20
3002.42262190615
  0
LWPOLYLINE
  5
200AB
100
AcDbEntity
  8
0
100
AcDbPolyline
 70
0
 90
2
 38
0
 10
10564.903014162
 20
1922.65043043526
 10
10880.6241484613
 20
2416.56901154847
  0
LWPOLYLINE
  5
200AC
100
AcDbEntity
  8
0
100
AcDbPolyline
 70
0
 90
2
 38
0
 10
10836.5993013717
 20
2331.10728522668
 10
11193.8866576999
 20
3097.21383195445
  0
LWPOLYLINE
  5
200AD
100
AcDbEntity
  8
0
100
AcDbPolyline
 70
0
 90
2
 38
0
 10
11167.4029229475
 20
3053.62728759556
 10
12113.6686879176
 20
4375.30653933318
  0
LWPOLYLINE
  5
200AE
100
AcDbEntity
  8
0
100
AcDbPolyline
 70
0
 90
2
 38
0
 10
10580.6789907017
 20
1943.25598361101
 10
10507.0659828063
 20
1864.00754418261
  0
LWPOLYLINE
  5
200AF
100
AcDbEntity
  8
0
100
AcDbPolyline
 70
0
 90
2
 38
0
 10
10364.3766486616
 20
1624.44692880417
 10
10545.2782190951
 20
1912.01133878824
  0
LWPOLYLINE
  5
200B0
100
AcDbEntity
  8
0
100
AcDbPolyline
 70
0
 90
2
 38
0
 10
10104.6199249689
 20
1326.21395469498
 10
10233.4522520354
 20
1545.93192308483
  0
LWPOLYLINE
  5
200B1
100
AcDbEntity
  8
0
100
AcDbPolyline
 70
0
 90
2
 38
0
 10
10208.3777324753
 20
1516.70301718406
 10
10402.2873504069
 20
1677.04433992699
  0
LWPOLYLINE
  5
200B2
100
AcDbEntity
  8
0
100
AcDbPolyline
 70
0
 90
2
 38
0
 10
10122.3518427757
 20
1368.65820898869
 10
9945.29855504606
 20
906.08943678574
  0
LWPOLYLINE
  5
200B3
100
AcDbEntity
  8
0
100
AcDbPolyline
 70
0
 90
2
 38
0
 10
9846.3553059363
 20
746.850518488434
 10
9966.08863176292
 20
946.807045417365
  0
LWPOLYLINE
  5
200B4
100
AcDbEntity
  8
0
100
AcDbPolyline
 70
0
 90
2
 38
0
 10
9694.36582130144
 20
439.556905649508
 10
9900.23528246492
 20
839.992655244692
  0
LWPOLYLINE
  5
200B5
100
AcDbEntity
  8
0
100
AcDbPolyline
 70
0
 90
2
 38
0
 10
9700.94010487638
 20
471.234756847283
 10
9691.46849094075
 20
256.337962950194
  0
LWPOLYLINE
  5
200B6
100
AcDbEntity
  8
0
100
AcDbPolyline
 70
0
 90
2
 38
0
 10
9720.01742252018
 20
515.653598377888
 10
10357.6081291524
 20
383.402663752706
  0
LWPOLYLINE
  5
200B7
100
AcDbEntity
  8
0
100
AcDbPolyline
 70
0
 90
2
 38
0
 10
8795.52322853639
 20
734.408628548612
 10
9792.82294475217
 20
589.469413695813
  0
LWPOLYLINE
  5
200B8
100
AcDbEntity
  8
0
100
AcDbPolyline
 70
0
 90
2
 38
0
 10
8783.00117274153
 20
637.137840897252
 10
9056.38677675647
 20
1177.87257444928
  0
LWPOLYLINE
  5
200B9
100
AcDbEntity
  8
0
100
AcDbPolyline
 70
0
 90
2
 38
0
 10
8731.44439194299
 20
1268.74402748889
 10
9174.99862448519
 20
1101.50649159127
  0
LWPOLYLINE
  5
200BA
100
AcDbEntity
  8
0
100
AcDbPolyline
 70
0
 90
2
 38
0
 10
9124.78501866126
 20
1081.9954030494
 10
9274.79530610351
 20
1405.99745332506
  0
LWPOLYLINE
  5
200BB
100
AcDbEntity
  8
0
100
AcDbPolyline
 70
0
 90
2
 38
0
 10
9252.04733116887
 20
1351.28190532073
 10
9369.41205024356
 20
1715.05022110437
  0
LWPOLYLINE
  5
200BC
100
AcDbEntity
  8
0
100
AcDbPolyline
 70
0
 90
2
 38
0
 10
7474.78317408045
 20
1838.0306315085
 10
8622.87414015018
 20
1370.37940650636
  0
LWPOLYLINE
  5
200BD
100
AcDbEntity
  8
0
100
AcDbPolyline
 70
0
 90
2
 38
0
 10
8560.79419225445
 20
1377.59193151699
 10
9269.55187356809
 20
1294.50984361915
  0
LWPOLYLINE
  5
200BE
100
AcDbEntity
  8
0
100
AcDbPolyline
 70
0
 90
2
 38
0
 10
9244.1898848252
 20
1300.84499381705
 10
9618.64046413152
 20
1091.30050387009
  0
LWPOLYLINE
  5
200BF
100
AcDbEntity
  8
0
100
AcDbPolyline
 70
0
 90
2
 38
0
 10
9567.01067741285
 20
1109.40091837136
 10
9987.29531106993
 20
965.50263845372
  0
LWPOLYLINE
  5
200C0
100
AcDbEntity
  8
0
100
AcDbPolyline
 70
0
 90
2
 38
0
 10
9615.92303643274
 20
921.15663829301
 10
9831.7242497624
 20
1469.5331077125
  0
LWPOLYLINE
  5
200C1
100
AcDbEntity
  8
0
100
AcDbPolyline
 70
0
 90
2
 38
0
 10
9204.1959022177
 20
1366.72279022705
 10
10028.7621378827
 20
1069.38810890183
  0
LWPOLYLINE
  5
200C2
100
AcDbEntity
  8
0
100
AcDbPolyline
 70
0
 90
2
 38
0
 10
8681.55428941656
 20
1472.19458384194
 10
9225.64825649262
 20
1361.25097930367
  0
LWPOLYLINE
  5
200C3
100
AcDbEntity
  8
0
100
AcDbPolyline
 70
0
 90
2
 38
0
 10
8540.7241430094
 20
1548.03821543842
 10
8722.77035094035
 20
1455.35972411202
  0
LWPOLYLINE
  5
200C4
100
AcDbEntity
  8
0
100
AcDbPolyline
 70
0
 90
2
 38
0
 10
8939.76149379028
 20
1300.16565327721
 10
9059.78938845795
 20
1458.83751534045
  0
LWPOLYLINE
  5
200C5
100
AcDbEntity
  8
0
100
AcDbPolyline
 70
0
 90
2
 38
0
 10
9036.7070598047
 20
1415.47948388672
 10
9154.90752922016
 20
1737.67832607285
  0
LWPOLYLINE
  5
200C6
100
AcDbEntity
  8
0
100
AcDbPolyline
 70
0
 90
2
 38
0
 10
9305.81960722079
 20
2038.14221527758
 10
9785.15504588923
 20
1682.66285808203
  0
LWPOLYLINE
  5
200C7
100
AcDbEntity
  8
0
100
AcDbPolyline
 70
0
 90
2
 38
0
 10
9428.6131536813
 20
2292.80455753834
 10
9703.50308151843
 20
2112.21497314925
  0
LWPOLYLINE
  5
200C8
100
AcDbEntity
  8
0
100
AcDbPolyline
 70
0
 90
2
 38
0
 10
9664.29006132262
 20
2132.11711022689
 10
9897.49655579126
 20
2027.22594736295
  0
LWPOLYLINE
  5
200C9
100
AcDbEntity
  8
0
100
AcDbPolyline
 70
0
 90
2
 38
0
 10
9867.15141066493
 20
2045.06096725277
 10
9993.92304301573
 20
1928.39234863257
  0
LWPOLYLINE
  5
200CA
100
AcDbEntity
  8
0
100
AcDbPolyline
 70
0
 90
2
 38
0
 10
9973.09800383067
 20
1958.1173647074
 10
10008.2031349498
 20
1883.21031190491
  0
LWPOLYLINE
  5
200CB
100
AcDbEntity
  8
0
100
AcDbPolyline
 70
0
 90
2
 38
0
 10
9986.1880322886
 20
1908.17932950574
 10
10283.970205475
 20
1732.17229712196
  0
LWPOLYLINE
  5
200CC
100
AcDbEntity
  8
0
100
AcDbPolyline
 70
0
 90
2
 38
0
 10
10250.6500356143
 20
1759.75709851612
 10
10344.898535214
 20
1617.07704184674
  0
LWPOLYLINE
  5
200CD
100
AcDbEntity
  8
0
100
AcDbPolyline
 70
0
 90
2
 38
0
 10
9794.25600407988
 20
1548.15102363728
 10
10047.5411359226
 20
1847.3685672927
  0
LWPOLYLINE
  5
200CE
100
AcDbEntity
  8
0
100
AcDbPolyline
 70
0
 90
2
 38
0
 10
10047.5411359226
 20
1828.86839607504
 10
10002.693800118
 20
1872.66101696777
  0
LWPOLYLINE
  5
200CF
100
AcDbEntity
  8
0
100
AcDbPolyline
 70
0
 90
2
 38
0
 10
10001.5182038702
 20
1858.33160325988
 10
10027.3801157212
 20
1891.21886707609
  0
LWPOLYLINE
  5
200D0
100
AcDbEntity
  8
0
100
AcDbPolyline
 70
0
 90
2
 38
0
 10
9754.71934663077
 20
2659.88157217204
 10
9958.11424199125
 20
2522.11969103512
  0
LWPOLYLINE
  5
200D1
100
AcDbEntity
  8
0
100
AcDbPolyline
 70
0
 90
2
 38
0
 10
9949.3136127418
 20
2554.36183233898
 10
9935.62346222479
 20
2454.70433726998
  0
LWPOLYLINE
  5
200D2
100
AcDbEntity
  8
0
100
AcDbPolyline
 70
0
 90
2
 38
0
 10
9918.02206977006
 20
2489.87754973126
 10
10579.5092885098
 20
2002.31220109695
  0
LWPOLYLINE
  5
200D3
100
AcDbEntity
  8
0
100
AcDbPolyline
 70
0
 90
2
 38
0
 10
10883.6112292193
 20
2376.57915069618
 10
11456.9560563546
 20
1970.66662139217
  0
LWPOLYLINE
  5
200D4
100
AcDbEntity
  8
0
100
AcDbPolyline
 70
0
 90
2
 38
0
 10
11380.0451902064
 20
2033.40035479098
 10
12335.1832507878
 20
1151.75417945191
  0
LWPOLYLINE
  5
200D5
100
AcDbEntity
  8
0
100
AcDbPolyline
 70
0
 90
2
 38
0
 10
11819.2462605713
 20
1180.50290602675
 10
12245.6692855756
 20
1611.92487237778
  0
LWPOLYLINE
  5
200D6
100
AcDbEntity
  8
0
100
AcDbPolyline
 70
0
 90
2
 38
0
 10
11569.8291029375
 20
781.236613868197
 10
11929.2044285816
 20
1306.44594193702
  0
LWPOLYLINE
  5
200D7
100
AcDbEntity
  8
0
100
AcDbPolyline
 70
0
 90
2
 38
0
 10
7620.96085164938
 20
1352.13341171448
 10
7997.11521498905
 20
1139.55616979486
  0
LWPOLYLINE
  5
200D8
100
AcDbEntity
  8
0
100
AcDbPolyline
 70
0
 90
2
 38
0
 10
7826.90961465635
 20
959.290683399711
 10
8506.24028401173
 20
2056.66451551901
  0
LWPOLYLINE
  5
200D9
100
AcDbEntity
  8
0
100
AcDbPolyline
 70
0
 90
2
 38
0
 10
8472.14209876725
 20
2083.76345165751
 10
8679.62144093652
 20
1901.44001727652
  0
LWPOLYLINE
  5
200DA
100
AcDbEntity
  8
0
100
AcDbPolyline
 70
0
 90
2
 38
0
 10
8654.46815535615
 20
1930.63680535808
 10
8780.42359491545
 20
1745.87963938393
  0
LWPOLYLINE
  5
200DB
100
AcDbEntity
  8
0
100
AcDbPolyline
 70
0
 90
2
 38
0
 10
8520.12560815376
 20
1562.21903825191
 10
8786.2260250742
 20
1757.7376714235
  0
LWPOLYLINE
  5
200DC
100
AcDbEntity
  8
0
100
AcDbPolyline
 70
0
 90
2
 38
0
 10
8481.83246255163
 20
1415.3345695158
 10
8507.876152446
 20
1540.43762456553
  0
LWPOLYLINE
  5
200DD
100
AcDbEntity
  8
0
100
AcDbPolyline
 70
0
 90
2
 38
0
 10
8499.67269822766
 20
1521.45635197928
 10
8546.30258408579
 20
1586.59666793745
  0
LWPOLYLINE
  5
200DE
100
AcDbEntity
  8
0
100
AcDbPolyline
 70
0
 90
2
 38
0
 10
8526.4396155767
 20
1526.51621473336
 10
8687.24366086596
 20
1676.75143770962
  0
LWPOLYLINE
  5
200DF
100
AcDbEntity
  8
0
100
AcDbPolyline
 70
0
 90
2
 38
0
 10
8644.13466969552
 20
1642.08335095059
 10
8812.596165294
 20
1748.49998216594
  0
LWPOLYLINE
  5
200E0
100
AcDbEntity
  8
0
100
AcDbPolyline
 70
0
 90
2
 38
0
 10
8500.70790877956
 20
1400.33442099953
 10
8532.15363489639
 20
1541.37103908197
  0
LWPOLYLINE
  5
200E1
100
AcDbEntity
  8
0
100
AcDbPolyline
 70
0
 90
2
 38
0
 10
8477.37776186529
 20
1440.04485170215
 10
8461.47573290198
 20
1372.09297155981
  0
LWPOLYLINE
  5
200E2
100
AcDbEntity
  8
0
100
AcDbPolyline
 70
0
 90
2
 38
0
 10
8461.92086808107
 20
1392.10939070232
 10
8468.15356432324
 20
1324.49835899552
  0
LWPOLYLINE
  5
200E3
100
AcDbEntity
  8
0
100
AcDbPolyline
 70
0
 90
2
 38
0
 10
8473.5213078566
 20
1347.93924456614
 10
8113.66039237683
 20
768.581066154911
  0
LWPOLYLINE
  5
200E4
100
AcDbEntity
  8
0
100
AcDbPolyline
 70
0
 90
2
 38
0
 10
7043.69607544824
 20
1352.34614744528
 10
7132.86497047651
 20
1268.73526808366
  0
LWPOLYLINE
  5
200E5
100
AcDbEntity
  8
0
100
AcDbPolyline
 70
0
 90
2
 38
0
 10
7107.71476587994
 20
1284.26953542129
 10
7440.26342988064
 20
1222.50302476968
  0
LWPOLYLINE
  5
200E6
100
AcDbEntity
  8
0
100
AcDbPolyline
 70
0
 90
2
 38
0
 10
7400.93761888711
 20
1233.01149370695
 10
7831.84963726683
 20
1035.23293398305
  0
LWPOLYLINE
  5
200E7
100
AcDbEntity
  8
0
100
AcDbPolyline
 70
0
 90
2
 38
0
 10
7795.12725757202
 20
1062.38458022678
 10
8131.59654041764
 20
771.505273217
  0
LWPOLYLINE
  5
200E8
100
AcDbEntity
  8
0
100
AcDbPolyline
 70
0
 90
2
 38
0
 10
8117.7757829793
 20
794.172513773803
 10
8473.98332146861
 20
669.421730243644
  0
LWPOLYLINE
  5
200E9
100
AcDbEntity
  8
0
100
AcDbPolyline
 70
0
 90
2
 38
0
 10
8421.10305720047
 20
673.824740053795
 10
8566.05503904604
 20
686.15506283212
  0
LWPOLYLINE
  5
200EA
100
AcDbEntity
  8
0
100
AcDbPolyline
 70
0
 90
2
 38
0
 10
8513.51596024321
 20
687.430503949712
 10
8823.43010988607
 20
642.946914534747
  0
LWPOLYLINE
  5
200EB
100
AcDbEntity
  8
0
100
AcDbPolyline
 70
0
 90
2
 38
0
 10
6464.12310656853
 20
1144.41794705146
 10
6891.46466660834
 20
1021.66108076707
  0
LWPOLYLINE
  5
200EC
100
AcDbEntity
  8
0
100
AcDbPolyline
 70
0
 90
2
 38
0
 10
6310.73793627886
 20
1132.21850310584
 10
6525.93500887492
 20
1139.0807031314
  0
LWPOLYLINE
  5
200ED
100
AcDbEntity
  8
0
100
AcDbPolyline
 70
0
 90
2
 38
0
 10
5526.64176219411
 20
1337.41817437922
 10
6371.55709202724
 20
1130.02762730361
  0
LWPOLYLINE
  5
200EE
100
AcDbEntity
  8
0
100
AcDbPolyline
 70
0
 90
2
 38
0
 10
5565.77293538587
 20
1304.69708313964
 10
5758.318749147
 20
1924.31487110493
  0
LWPOLYLINE
  5
200EF
100
AcDbEntity
  8
0
100
AcDbPolyline
 70
0
 90
2
 38
0
 10
5419.9799789227
 20
2113.48570160438
 10
5816.38672033077
 20
1880.63996432474
  0
LWPOLYLINE
  5
200F0
100
AcDbEntity
  8
0
100
AcDbPolyline
 70
0
 90
2
 38
0
 10
5787.6518580777
 20
1903.10917060866
 10
5817.6361262337
 20
1855.67412264862
  0
LWPOLYLINE
  5
200F1
100
AcDbEntity
  8
0
100
AcDbPolyline
 70
0
 90
2
 38
0
 10
5793.89848572484
 20
1873.15021182191
 10
6243.79833926275
 20
1630.68613534115
  0
LWPOLYLINE
  5
200F2
100
AcDbEntity
  8
0
100
AcDbPolyline
 70
0
 90
2
 38
0
 10
6208.81671540672
 20
1659.3968020441
 10
6247.54642301568
 20
1591.98913196775
  0
LWPOLYLINE
  5
200F3
100
AcDbEntity
  8
0
100
AcDbPolyline
 70
0
 90
2
 38
0
 10
6200.07127595378
 20
1614.45833825167
 10
6366.2342236925
 20
1570.76816654306
  0
LWPOLYLINE
  5
200F4
100
AcDbEntity
  8
0
100
AcDbPolyline
 70
0
 90
2
 38
0
 10
6313.76172093058
 20
1595.73400821917
 10
6408.71201505436
 20
1512.09854105335
  0
LWPOLYLINE
  5
200F5
100
AcDbEntity
  8
0
100
AcDbPolyline
 70
0
 90
2
 38
0
 10
6359.98759604536
 20
1530.82292231044
 10
6699.83993304326
 20
1488.97325019439
  0
LWPOLYLINE
  5
200F6
100
AcDbEntity
  8
0
100
AcDbPolyline
 70
0
 90
2
 38
0
 10
6673.87420543423
 20
1496.04885187045
 10
6826.5215470852
 20
1424.50664007093
  0
LWPOLYLINE
  5
200F7
100
AcDbEntity
  8
0
100
AcDbPolyline
 70
0
 90
2
 38
0
 10
6821.01368576748
 20
1460.67084349012
 10
7023.23218114517
 20
1370.26041177902
  0
LWPOLYLINE
  5
200F8
100
AcDbEntity
  8
0
100
AcDbPolyline
 70
0
 90
2
 38
0
 10
6998.84016647146
 20
1390.70102176834
 10
7031.88746833344
 20
1338.81327614386
  0
LWPOLYLINE
  5
200F9
100
AcDbEntity
  8
0
100
AcDbPolyline
 70
0
 90
2
 38
0
 10
6660.38686402381
 20
1061.21440564586
 10
6796.65033763857
 20
1376.77310641298
  0
LWPOLYLINE
  5
200FA
100
AcDbEntity
  8
0
100
AcDbPolyline
 70
0
 90
2
 38
0
 10
6830.75481880642
 20
1465.9583483313
 10
6795.53060096628
 20
1396.19788151725
  0
LWPOLYLINE
  5
200FB
100
AcDbEntity
  8
0
100
AcDbPolyline
 70
0
 90
2
 38
0
 10
6799.30467214764
 20
1410.02426973116
 10
6792.38558630037
 20
1362.57457153779
  0
LWPOLYLINE
  5
200FC
100
AcDbEntity
  8
0
100
AcDbPolyline
 70
0
 90
2
 38
0
 10
6829.91853264239
 20
1459.37665417184
 10
6831.5091240106
 20
1508.96380091791
  0
LWPOLYLINE
  5
200FD
100
AcDbEntity
  8
0
100
AcDbPolyline
 70
0
 90
2
 38
0
 10
6826.41893692955
 20
1491.48115499684
 10
7119.50756620834
 20
1979.10177496599
  0
LWPOLYLINE
  5
200FE
100
AcDbEntity
  8
0
100
AcDbPolyline
 70
0
 90
2
 38
0
 10
7090.07573184068
 20
1946.42745177895
 10
7332.27695753728
 20
2122.38868937744
  0
LWPOLYLINE
  5
200FF
100
AcDbEntity
  8
0
100
AcDbPolyline
 70
0
 90
2
 38
0
 10
7301.75967918639
 20
2094.70999330604
 10
7444.02758833158
 20
2272.15807591354
  0
LWPOLYLINE
  5
20100
100
AcDbEntity
  8
0
100
AcDbPolyline
 70
0
 90
2
 38
0
 10
5517.80148202289
 20
2832.64834176075
 10
5727.75110340904
 20
3175.64359995261
  0
LWPOLYLINE
  5
20101
100
AcDbEntity
  8
0
100
AcDbPolyline
 70
0
 90
2
 38
0
 10
5633.52269718176
 20
3102.8922828822
 10
5890.50929615318
 20
3237.69619995085
  0
LWPOLYLINE
  5
20102
100
AcDbEntity
  8
0
100
AcDbPolyline
 70
0
 90
2
 38
0
 10
5798.42244156843
 20
3149.96665848957
 10
5976.17149581033
 20
3462.36946336473
  0
LWPOLYLINE
  5
20103
100
AcDbEntity
  8
0
100
AcDbPolyline
 70
0
 90
2
 38
0
 10
5530.72808438438
 20
2914.59467800352
 10
5717.04334519637
 20
2711.31889995857
  0
LWPOLYLINE
  5
20104
100
AcDbEntity
  8
0
100
AcDbPolyline
 70
0
 90
2
 38
0
 10
5691.34472548598
 20
2760.5330292253
 10
5689.19419880372
 20
2282.44658645253
  0
LWPOLYLINE
  5
20105
100
AcDbEntity
  8
0
100
AcDbPolyline
 70
0
 90
2
 38
0
 10
5256.60023118879
 20
2196.8567986506
 10
5749.15777875046
 20
2372.31588157316
  0
LWPOLYLINE
  5
20106
100
AcDbEntity
  8
0
100
AcDbPolyline
 70
0
 90
2
 38
0
 10
5331.55467263324
 20
2263.18890596754
 10
5331.06439434391
 20
2177.11591658875
  0
LWPOLYLINE
  5
20107
100
AcDbEntity
  8
0
100
AcDbPolyline
 70
0
 90
2
 38
0
 10
5325.24669322206
 20
2195.6110677964
 10
5420.97393108305
 20
2086.22545922549
  0
LWPOLYLINE
  5
20108
100
AcDbEntity
  8
0
100
AcDbPolyline
 70
0
 90
2
 38
0
 10
5316.09121501399
 20
2006.86903835704
 10
5480.25540801085
 20
2165.82166240935
  0
LWPOLYLINE
  5
20109
100
AcDbEntity
  8
0
100
AcDbPolyline
 70
0
 90
2
 38
0
 10
5067.0560993696
 20
2236.15446159043
 10
5337.7246775532
 20
2005.20741503994
  0
LWPOLYLINE
  5
2010A
100
AcDbEntity
  8
0
100
AcDbPolyline
 70
0
 90
2
 38
0
 10
4899.4993413575
 20
2277.36438977631
 10
5122.90830738837
 20
2212.97389939664
  0
LWPOLYLINE
  5
2010B
100
AcDbEntity
  8
0
100
AcDbPolyline
 70
0
 90
2
 38
0
 10
5668.89761531577
 20
2436.21333525429
 10
5955.08564465004
 20
2469.34125220398
  0
LWPOLYLINE
  5
2010C
100
AcDbEntity
  8
0
100
AcDbPolyline
 70
0
 90
2
 38
0
 10
5928.90987432032
 20
2457.13622477782
 10
6024.01502136828
 20
2551.2892788583
  0
LWPOLYLINE
  5
2010D
100
AcDbEntity
  8
0
100
AcDbPolyline
 70
0
 90
2
 38
0
 10
6663.79456604636
 20
2912.92977631253
 10
6912.44630014317
 20
3130.56339771397
  0
LWPOLYLINE
  5
2010E
100
AcDbEntity
  8
0
100
AcDbPolyline
 70
0
 90
2
 38
0
 10
6864.98789755837
 20
3103.55067256389
 10
7020.6306252279
 20
3168.5321410621
  0
LWPOLYLINE
  5
2010F
100
AcDbEntity
  8
0
100
AcDbPolyline
 70
0
 90
2
 38
0
 10
6988.39027320605
 20
3148.53785094336
 10
7094.64322332473
 20
3259.80130183444
  0
LWPOLYLINE
  5
20110
100
AcDbEntity
  8
0
100
AcDbPolyline
 70
0
 90
2
 38
0
 10
7058.51185669348
 20
3232.03147721378
 10
7241.39195454051
 20
3340.88926758814
  0
LWPOLYLINE
  5
20111
100
AcDbEntity
  8
0
100
AcDbPolyline
 70
0
 90
2
 38
0
 10
6994.72383817824
 20
3336.59551983285
 10
6961.67573258135
 20
3198.91774947609
  0
LWPOLYLINE
  5
20112
100
AcDbEntity
  8
0
100
AcDbPolyline
 70
0
 90
2
 38
0
 10
6644.24558997175
 20
2963.47308129392
 10
6753.58461419694
 20
3081.67444215761
  0
LWPOLYLINE
  5
20113
100
AcDbEntity
  8
0
100
AcDbPolyline
 70
0
 90
2
 38
0
 10
6717.73576038322
 20
3055.70598154119
 10
6989.29112607375
 20
3226.73982318064
  0
LWPOLYLINE
  5
20114
100
AcDbEntity
  8
0
100
AcDbPolyline
 70
0
 90
2
 38
0
 10
6778.10937908507
 20
2800.18178551908
 10
7343.81537576966
 20
3095.02090716855
  0
LWPOLYLINE
  5
20115
100
AcDbEntity
  8
0
100
AcDbPolyline
 70
0
 90
2
 38
0
 10
7306.38959408106
 20
3086.39145871707
 10
7627.38818569333
 20
2952.63518700513
  0
LWPOLYLINE
  5
20116
100
AcDbEntity
  8
0
100
AcDbPolyline
 70
0
 90
2
 38
0
 10
7149.29023086012
 20
3075.11216211854
 10
7524.95954018729
 20
2851.06486321957
  0
LWPOLYLINE
  5
20117
100
AcDbEntity
  8
0
100
AcDbPolyline
 70
0
 90
2
 38
0
 10
7503.54107673399
 20
2867.77883291226
 10
7619.06376937244
 20
2700.19481387397
  0
LWPOLYLINE
  5
20118
100
AcDbEntity
  8
0
100
AcDbPolyline
 70
0
 90
2
 38
0
 10
7608.99511436152
 20
2709.53638660422
 10
7702.13030716823
 20
2655.28339666616
  0
LWPOLYLINE
  5
20119
100
AcDbEntity
  8
0
100
AcDbPolyline
 70
0
 90
2
 38
0
 10
7680.55457958605
 20
2661.39136579828
 10
7848.10450585149
 20
2655.05380804456
  0
LWPOLYLINE
  5
2011A
100
AcDbEntity
  8
0
100
AcDbPolyline
 70
0
 90
2
 38
0
 10
7817.61080372438
 20
2661.37733026006
 10
8314.88868635704
 20
2492.20365845651
  0
LWPOLYLINE
  5
2011B
100
AcDbEntity
  8
0
100
AcDbPolyline
 70
0
 90
2
 38
0
 10
8086.47379145387
 20
2583.03254386013
 10
8030.6647172081
 20
2454.2625251635
  0
LWPOLYLINE
  5
2011C
100
AcDbEntity
  8
0
100
AcDbPolyline
 70
0
 90
2
 38
0
 10
7843.09978258156
 20
2541.64215143644
 10
8277.4907674783
 20
2402.52456024618
  0
LWPOLYLINE
  5
2011D
100
AcDbEntity
  8
0
100
AcDbPolyline
 70
0
 90
2
 38
0
 10
8034.68821412028
 20
2473.61189766826
 10
8022.59441507162
 20
2188.31371486132
  0
LWPOLYLINE
  5
2011E
100
AcDbEntity
  8
0
100
AcDbPolyline
 70
0
 90
2
 38
0
 10
7784.39860225195
 20
2371.69601278469
 10
8513.3386027418
 20
2322.58689393168
  0
LWPOLYLINE
  5
2011F
100
AcDbEntity
  8
0
100
AcDbPolyline
 70
0
 90
2
 38
0
 10
8467.13389264606
 20
2332.74334747235
 10
8585.41795049119
 20
2286.57764490345
  0
LWPOLYLINE
  5
20120
100
AcDbEntity
  8
0
100
AcDbPolyline
 70
0
 90
2
 38
0
 10
8336.83654319815
 20
2168.39349550269
 10
8591.02252790859
 20
2808.62672298998
  0
LWPOLYLINE
  5
20121
100
AcDbEntity
  8
0
100
AcDbPolyline
 70
0
 90
2
 38
0
 10
7770.79230807623
 20
2567.84865273215
 10
7845.27415339919
 20
2532.10413239567
  0
LWPOLYLINE
  5
20122
100
AcDbEntity
  8
0
100
AcDbPolyline
 70
0
 90
2
 38
0
 10
7784.25084898606
 20
2574.08089272461
 10
7713.28775505774
 20
2380.12291919919
  0
LWPOLYLINE
  5
20123
100
AcDbEntity
  8
0
100
AcDbPolyline
 70
0
 90
2
 38
0
 10
7397.17989031537
 20
2517.24126578611
 10
7778.38612937252
 20
2361.95770558897
  0
LWPOLYLINE
  5
20124
100
AcDbEntity
  8
0
100
AcDbPolyline
 70
0
 90
2
 38
0
 10
7246.2891112896
 20
2652.48520210051
 10
7413.48566211041
 20
2508.95871027202
  0
LWPOLYLINE
  5
20125
100
AcDbEntity
  8
0
100
AcDbPolyline
 70
0
 90
2
 38
0
 10
7481.57540376924
 20
2427.26445024675
 10
7583.53949050274
 20
2362.80347482841
  0
LWPOLYLINE
  5
20126
100
AcDbEntity
  8
0
100
AcDbPolyline
 70
0
 90
2
 38
0
 10
7570.56225284253
 20
2389.10653448015
 10
7552.04594215934
 20
2269.30471246226
  0
LWPOLYLINE
  5
20127
100
AcDbEntity
  8
0
100
AcDbPolyline
 70
0
 90
2
 38
0
 10
7538.69791479834
 20
2293.38493216633
 10
7694.42490067659
 20
2274.49125363249
  0
LWPOLYLINE
  5
20128
100
AcDbEntity
  8
0
100
AcDbPolyline
 70
0
 90
2
 38
0
 10
7655.86397739677
 20
2212.62357441157
 10
7724.08713904908
 20
2391.18773843078
  0
LWPOLYLINE
  5
20129
100
AcDbEntity
  8
0
100
AcDbPolyline
 70
0
 90
2
 38
0
 10
7601.98025010529
 20
2413.55270266986
 10
7639.04421713282
 20
2476.26922460574
  0
LWPOLYLINE
  5
2012A
100
AcDbEntity
  8
0
100
AcDbPolyline
 70
0
 90
2
 38
0
 10
7612.74078690977
 20
2466.1151273963
 10
7705.99828137716
 20
2427.29062601329
  0
LWPOLYLINE
  5
2012B
100
AcDbEntity
  8
0
100
AcDbPolyline
 70
0
 90
2
 38
0
 10
7649.2069091271
 20
2395.03644693029
 10
7692.24878843332
 20
2545.55601761706
  0
LWPOLYLINE
  5
2012C
100
AcDbEntity
  8
0
100
AcDbPolyline
 70
0
 90
2
 38
0
 10
7665.34751340008
 20
2535.40192040762
 10
7785.50641685655
 20
2523.45588451889
  0
LWPOLYLINE
  5
2012D
100
AcDbEntity
  8
0
100
AcDbPolyline
 70
0
 90
2
 38
0
 10
7581.22473398913
 20
2692.27410887817
 10
7659.23752068603
 20
2642.43309305387
  0
LWPOLYLINE
  5
2012E
100
AcDbEntity
  8
0
100
AcDbPolyline
 70
0
 90
2
 38
0
 10
7560.22126565615
 20
2661.54503957446
 10
7671.23942604443
 20
2585.471961383
  0
LWPOLYLINE
  5
2012F
100
AcDbEntity
  8
0
100
AcDbPolyline
 70
0
 90
2
 38
0
 10
7760.50396552586
 20
2667.54098052376
 10
7737.62524971407
 20
2600.46171130708
  0
LWPOLYLINE
  5
20130
100
AcDbEntity
  8
0
100
AcDbPolyline
 70
0
 90
2
 38
0
 10
7734.49791721598
 20
2622.44561580587
 10
7822.89670025371
 20
2608.04085072306
  0
LWPOLYLINE
  5
20131
100
AcDbEntity
  8
0
100
AcDbPolyline
 70
0
 90
2
 38
0
 10
7794.06271069625
 20
2598.94305582641
 10
7813.03246181918
 20
2660.73200284934
  0
LWPOLYLINE
  5
20132
100
AcDbEntity
  8
0
100
AcDbPolyline
 70
0
 90
2
 38
0
 10
8446.25004685746
 20
2104.75155008673
 10
8589.71391353465
 20
2452.61135166317
  0
LWPOLYLINE
  5
20133
100
AcDbEntity
  8
0
100
AcDbPolyline
 70
0
 90
2
 38
0
 10
8293.54322882387
 20
2547.30584968167
 10
8648.94797010333
 20
2398.41117427951
  0
LWPOLYLINE
  5
20134
100
AcDbEntity
  8
0
100
AcDbPolyline
 70
0
 90
2
 38
0
 10
8580.3611184085
 20
2436.41357218463
 10
8615.27804160502
 20
2454.48028090432
  0
LWPOLYLINE
  5
20135
100
AcDbEntity
  8
0
100
AcDbPolyline
 70
0
 90
2
 38
0
 10
8597.81958000676
 20
2437.03656567322
 10
8684.33454239339
 20
2647.56113573998
  0
LWPOLYLINE
  5
20136
100
AcDbEntity
  8
0
100
AcDbPolyline
 70
0
 90
2
 38
0
 10
8624.57363759741
 20
2553.56472646201
 10
8715.67846208948
 20
2514.32853303263
  0
LWPOLYLINE
  5
20137
100
AcDbEntity
  8
0
100
AcDbPolyline
 70
0
 90
2
 38
0
 10
8241.26697133348
 20
2755.20008817097
 10
8558.4693890546
 20
2645.75966928656
  0
LWPOLYLINE
  5
20138
100
AcDbEntity
  8
0
100
AcDbPolyline
 70
0
 90
2
 38
0
 10
8256.46238336343
 20
2761.52612039148
 10
8205.81127784197
 20
2655.88134132922
  0
LWPOLYLINE
  5
20139
100
AcDbEntity
  8
0
100
AcDbPolyline
 70
0
 90
2
 38
0
 10
8189.34971543203
 20
2674.85943799076
 10
8293.81743638078
 20
2653.98352141814
  0
LWPOLYLINE
  5
2013A
100
AcDbEntity
  8
0
100
AcDbPolyline
 70
0
 90
2
 38
0
 10
8209.61013084944
 20
2681.81809392317
 10
8162.12466918968
 20
2628.67939253609
  0
LWPOLYLINE
  5
2013B
100
AcDbEntity
  8
0
100
AcDbPolyline
 70
0
 90
2
 38
0
 10
7910.13569382991
 20
2712.18305882655
 10
8363.46267298379
 20
2576.8058873482
  0
LWPOLYLINE
  5
2013C
100
AcDbEntity
  8
0
100
AcDbPolyline
 70
0
 90
2
 38
0
 10
7924.94759035646
 20
2751.2891930167
 10
8089.46355132811
 20
2732.8917783307
  0
LWPOLYLINE
  5
2013D
100
AcDbEntity
  8
0
100
AcDbPolyline
 70
0
 90
2
 38
0
 10
8047.8342361096
 20
2732.09185510116
 10
8156.31071883067
 20
2770.48653093223
  0
LWPOLYLINE
  5
2013E
100
AcDbEntity
  8
0
100
AcDbPolyline
 70
0
 90
2
 38
0
 10
8116.68283747038
 20
2765.68719645335
 10
8258.38277395247
 20
2738.09102319976
  0
LWPOLYLINE
  5
2013F
100
AcDbEntity
  8
0
100
AcDbPolyline
 70
0
 90
2
 38
0
 10
8101.87241445781
 20
2735.69135596032
 10
8143.10146969583
 20
2844.07624090082
  0
LWPOLYLINE
  5
20140
100
AcDbEntity
  8
0
100
AcDbPolyline
 70
0
 90
2
 38
0
 10
8101.47202052153
 20
2745.68998653286
 10
8136.69690814076
 20
2732.09185510116
  0
LWPOLYLINE
  5
20141
100
AcDbEntity
  8
0
100
AcDbPolyline
 70
0
 90
2
 38
0
 10
8120.68557123095
 20
2748.0896537723
 10
8113.08022973445
 20
2703.69586106721
  0
LWPOLYLINE
  5
20142
100
AcDbEntity
  8
0
100
AcDbPolyline
 70
0
 90
2
 38
0
 10
8119.48479128952
 20
2718.89373650881
 10
8074.25286833508
 20
2659.70197875229
  0
LWPOLYLINE
  5
20143
100
AcDbEntity
  8
0
100
AcDbPolyline
 70
0
 90
2
 38
0
 10
8109.87801593481
 20
2716.0941076546
 10
8165.91749418538
 20
2684.49852315166
  0
LWPOLYLINE
  5
20144
100
AcDbEntity
  8
0
100
AcDbPolyline
 70
0
 90
2
 38
0
 10
8158.31215268889
 20
2700.49627059822
 10
8122.28674510869
 20
2638.90489682685
  0
LWPOLYLINE
  5
20145
100
AcDbEntity
  8
0
100
AcDbPolyline
 70
0
 90
2
 38
0
 10
7952.76244406003
 20
2710.1780770689
 10
7922.22426860174
 20
2608.20266920936
  0
LWPOLYLINE
  5
20146
100
AcDbEntity
  8
0
100
AcDbPolyline
 70
0
 90
2
 38
0
 10
7924.23347189731
 20
2655.97856560494
 10
8180.19115624021
 20
2582.10655690954
  0
LWPOLYLINE
  5
20147
100
AcDbEntity
  8
0
100
AcDbPolyline
 70
0
 90
2
 38
0
 10
8050.80591194858
 20
2681.27168119971
 10
8027.09867941015
 20
2576.88738567416
  0
LWPOLYLINE
  5
20148
100
AcDbEntity
  8
0
100
AcDbPolyline
 70
0
 90
2
 38
0
 10
8011.78766351036
 20
2602.47309613875
 10
7970.08239534375
 20
2491.21804608077
  0
LWPOLYLINE
  5
20149
100
AcDbEntity
  8
0
100
AcDbPolyline
 70
0
 90
2
 38
0
 10
7971.70192116837
 20
2528.03336528959
 10
8083.05108637986
 20
2496.47737739632
  0
LWPOLYLINE
  5
2014A
100
AcDbEntity
  8
0
100
AcDbPolyline
 70
0
 90
2
 38
0
 10
7985.06387993431
 20
2560.80301744244
 10
8102.48660187767
 20
2514.68275108669
  0
LWPOLYLINE
  5
2014B
100
AcDbEntity
  8
0
100
AcDbPolyline
 70
0
 90
2
 38
0
 10
7880.19321988875
 20
2513.46903560253
 10
7941.73895198727
 20
2626.74689357619
  0
LWPOLYLINE
  5
2014C
100
AcDbEntity
  8
0
100
AcDbPolyline
 70
0
 90
2
 38
0
 10
7921.08872514308
 20
2591.14528985154
 10
7973.3215809488
 20
2560.39844561438
  0
LWPOLYLINE
  5
2014D
100
AcDbEntity
  8
0
100
AcDbPolyline
 70
0
 90
2
 38
0
 10
7970.08239534375
 20
2576.17643956102
 10
7928.78194165538
 20
2498.90475714006
  0
LWPOLYLINE
  5
2014E
100
AcDbEntity
  8
0
100
AcDbPolyline
 70
0
 90
2
 38
0
 10
8116.80326374964
 20
2435.76271251797
 10
8155.17303207895
 20
2564.42008833668
  0
LWPOLYLINE
  5
2014F
100
AcDbEntity
  8
0
100
AcDbPolyline
 70
0
 90
2
 38
0
 10
8093.39126983131
 20
2472.8004489055
 10
8087.54235700416
 20
2185.32148154097
  0
LWPOLYLINE
  5
20150
100
AcDbEntity
  8
0
100
AcDbPolyline
 70
0
 90
2
 38
0
 10
7936.66082092971
 20
2446.80903967183
 10
8105.74762228085
 20
2429.26487301571
  0
LWPOLYLINE
  5
20151
100
AcDbEntity
  8
0
100
AcDbPolyline
 70
0
 90
2
 38
0
 10
7956.17081586164
 20
2422.76703351344
 10
8127.20868368389
 20
2409.12151933408
  0
LWPOLYLINE
  5
20152
100
AcDbEntity
  8
0
100
AcDbPolyline
 70
0
 90
2
 38
0
 10
7947.06610690814
 20
2398.72497613045
 10
8187.68973495075
 20
2383.130161325
  0
LWPOLYLINE
  5
20153
100
AcDbEntity
  8
0
100
AcDbPolyline
 70
0
 90
2
 38
0
 10
8149.32010057726
 20
2457.20558287546
 10
8138.91869931753
 20
2243.15230433576
  0
LWPOLYLINE
  5
20154
100
AcDbEntity
  8
0
100
AcDbPolyline
 70
0
 90
2
 38
0
 10
8122.66034788161
 20
2261.34625494212
 10
8228.01445446984
 20
2255.49819939007
  0
LWPOLYLINE
  5
20155
100
AcDbEntity
  8
0
100
AcDbPolyline
 70
0
 90
2
 38
0
 10
7813.75167059936
 20
2326.97453636421
 10
8159.7294052302
 20
2311.37972155877
  0
LWPOLYLINE
  5
20156
100
AcDbEntity
  8
0
100
AcDbPolyline
 70
0
 90
2
 38
0
 10
7907.39978022841
 20
2462.77953563542
 10
7896.99436029419
 20
2289.93679997669
  0
LWPOLYLINE
  5
20157
100
AcDbEntity
  8
0
100
AcDbPolyline
 70
0
 90
2
 38
0
 10
7828.05895556416
 20
2414.04568814381
 10
7892.44200581743
 20
2409.49720049222
  0
LWPOLYLINE
  5
20158
100
AcDbEntity
  8
0
100
AcDbPolyline
 70
0
 90
2
 38
0
 10
7876.18365438152
 20
2398.45087333836
 10
7884.63800784465
 20
2471.22672698837
  0
LWPOLYLINE
  5
20159
100
AcDbEntity
  8
0
100
AcDbPolyline
 70
0
 90
2
 38
0
 10
7841.71601899443
 20
2458.23104798383
 10
7893.74271679815
 20
2446.53493687974
  0
LWPOLYLINE
  5
2015A
100
AcDbEntity
  8
0
100
AcDbPolyline
 70
0
 90
2
 38
0
 10
7841.71601899443
 20
2429.64050294925
 10
7839.76495252332
 20
2354.91529744856
  0
LWPOLYLINE
  5
2015B
100
AcDbEntity
  8
0
100
AcDbPolyline
 70
0
 90
2
 38
0
 10
7761.72483883979
 20
2312.029505509
 10
8107.70270742645
 20
2281.48960862374
  0
LWPOLYLINE
  5
2015C
100
AcDbEntity
  8
0
100
AcDbPolyline
 70
0
 90
2
 38
0
 10
7969.18154247603
 20
2280.83982467352
 10
7972.43318597207
 20
2505.01554362476
  0
LWPOLYLINE
  5
2015D
100
AcDbEntity
  8
0
100
AcDbPolyline
 70
0
 90
2
 38
0
 10
7957.47541156105
 20
2285.3883123251
 10
8032.91423723893
 20
2273.04241727079
  0
LWPOLYLINE
  5
2015E
100
AcDbEntity
  8
0
100
AcDbPolyline
 70
0
 90
2
 38
0
 10
7821.55566857214
 20
2194.41845684415
 10
7831.96095455054
 20
2289.93679997669
  0
LWPOLYLINE
  5
2015F
100
AcDbEntity
  8
0
100
AcDbPolyline
 70
0
 90
2
 38
0
 10
7948.8680805552
 20
2251.0508803078
 10
8040.08154321465
 20
2250.63852234175
  0
LWPOLYLINE
  5
20160
100
AcDbEntity
  8
0
100
AcDbPolyline
 70
0
 90
2
 38
0
 10
8320.73170512824
 20
2347.87473339346
 10
8252.19093423442
 20
2165.6968793031
  0
LWPOLYLINE
  5
20161
100
AcDbEntity
  8
0
100
AcDbPolyline
 70
0
 90
2
 38
0
 10
8214.26054098408
 20
2327.26339183882
 10
8299.4375526729
 20
2258.78046635063
  0
LWPOLYLINE
  5
20162
100
AcDbEntity
  8
0
100
AcDbPolyline
 70
0
 90
2
 38
0
 10
8284.7977893709
 20
2275.40253912516
 10
8392.5998045546
 20
2259.44536155552
  0
LWPOLYLINE
  5
20163
100
AcDbEntity
  8
0
100
AcDbPolyline
 70
0
 90
2
 38
0
 10
8245.53654508106
 20
2234.17980479128
 10
8393.26529705225
 20
2235.50959520105
  0
LWPOLYLINE
  5
20164
100
AcDbEntity
  8
0
100
AcDbPolyline
 70
0
 90
2
 38
0
 10
8227.56945324657
 20
2202.26544965198
 10
8369.30930856208
 20
2205.5898744518
  0
LWPOLYLINE
  5
20165
100
AcDbEntity
  8
0
100
AcDbPolyline
 70
0
 90
2
 38
0
 10
8439.84642299308
 20
2337.90151021858
 10
8425.87201823294
 20
2277.39717351522
  0
LWPOLYLINE
  5
20166
100
AcDbEntity
  8
0
100
AcDbPolyline
 70
0
 90
2
 38
0
 10
8284.13229687323
 20
2301.3329398697
 10
8449.82800672311
 20
2292.68950710458
  0
LWPOLYLINE
  5
20167
100
AcDbEntity
  8
0
100
AcDbPolyline
 70
0
 90
2
 38
0
 10
8140.27754712274
 20
2151.77649396277
 10
8383.02008827485
 20
2136.36665115924
  0
LWPOLYLINE
  5
20168
100
AcDbEntity
  8
0
100
AcDbPolyline
 70
0
 90
2
 38
0
 10
8349.49215294232
 20
2143.73658934126
 10
8442.69981584588
 20
2109.56691786293
  0
LWPOLYLINE
  5
20169
100
AcDbEntity
  8
0
100
AcDbPolyline
 70
0
 90
2
 38
0
 10
8411.18362896945
 20
2124.97676066646
 10
8492.32133695972
 20
2067.35739298768
  0
LWPOLYLINE
  5
2016A
100
AcDbEntity
  8
0
100
AcDbPolyline
 70
0
 90
2
 38
0
 10
8019.71717808343
 20
1967.9408583997
 10
8385.07349698997
 20
1808.16321106775
  0
LWPOLYLINE
  5
2016B
100
AcDbEntity
  8
0
100
AcDbPolyline
 70
0
 90
2
 38
0
 10
8026.38027436487
 20
1590.68802732954
 10
8349.53729605256
 20
2156.56727393478
  0
LWPOLYLINE
  5
2016C
100
AcDbEntity
  8
0
100
AcDbPolyline
 70
0
 90
2
 38
0
 10
8289.56996534296
 20
2127.71855695624
 10
8528.32866050463
 20
2031.18622302396
  0
LWPOLYLINE
  5
2016D
100
AcDbEntity
  8
0
100
AcDbPolyline
 70
0
 90
2
 38
0
 10
8267.35995696843
 20
1837.01192804629
 10
8437.2672376972
 20
2095.54111231215
  0
LWPOLYLINE
  5
2016E
100
AcDbEntity
  8
0
100
AcDbPolyline
 70
0
 90
2
 38
0
 10
7944.20280132492
 20
1855.87456447734
 10
8181.85100276567
 20
1746.02742233201
  0
LWPOLYLINE
  5
2016F
100
AcDbEntity
  8
0
100
AcDbPolyline
 70
0
 90
2
 38
0
 10
7926.43476783411
 20
1626.1941484146
 10
8117.4416971723
 20
1944.63996963917
  0
LWPOLYLINE
  5
20170
100
AcDbEntity
  8
0
100
AcDbPolyline
 70
0
 90
2
 38
0
 10
8125.21515321886
 20
1901.36681733448
 10
8280.68601557549
 20
2164.33425392982
  0
LWPOLYLINE
  5
20171
100
AcDbEntity
  8
0
100
AcDbPolyline
 70
0
 90
2
 38
0
 10
8104.11563856527
 20
2086.66455642859
 10
8292.90158046159
 20
2001.22787893232
  0
LWPOLYLINE
  5
20172
100
AcDbEntity
  8
0
100
AcDbPolyline
 70
0
 90
2
 38
0
 10
8384.02904348669
 20
3256.1268593971
 10
8295.32738634729
 20
3054.37496174121
  0
LWPOLYLINE
  5
20173
100
AcDbEntity
  8
0
100
AcDbPolyline
 70
0
 90
2
 38
0
 10
8311.19271141681
 20
3146.60437871622
 10
8532.58631218452
 20
3047.16950572428
  0
LWPOLYLINE
  5
20174
100
AcDbEntity
  8
0
100
AcDbPolyline
 70
0
 90
2
 38
0
 10
8345.80796611399
 20
3205.68887217697
 10
8529.70170762643
 20
3171.10284721442
  0
LWPOLYLINE
  5
20175
100
AcDbEntity
  8
0
100
AcDbPolyline
 70
0
 90
2
 38
0
 10
8515.99990295337
 20
3189.11638480755
 10
8438.81724045292
 20
2963.35265227799
  0
LWPOLYLINE
  5
20176
100
AcDbEntity
  8
0
100
AcDbPolyline
 70
0
 90
2
 38
0
 10
8378.24054473286
 20
3010.9084878261
 10
8491.46134061611
 20
2952.5445194772
  0
LWPOLYLINE
  5
20177
100
AcDbEntity
  8
0
100
AcDbPolyline
 70
0
 90
2
 38
0
 10
8281.6061580808
 20
2865.35888073436
 10
8324.15414229064
 20
2979.92513964741
  0
LWPOLYLINE
  5
20178
100
AcDbEntity
  8
0
100
AcDbPolyline
 70
0
 90
2
 38
0
 10
8353.00018787163
 20
2832.93448233196
 10
8428.72112449957
 20
3009.46738637779
  0
LWPOLYLINE
  5
20179
100
AcDbEntity
  8
0
100
AcDbPolyline
 70
0
 90
2
 38
0
 10
8211.03126810945
 20
2909.82182663873
 10
8200.58499165109
 20
2858.99617170593
  0
LWPOLYLINE
  5
2017A
100
AcDbEntity
  8
0
100
AcDbPolyline
 70
0
 90
2
 38
0
 10
8188.7762505805
 20
2880.77860988416
 10
8265.98757962571
 20
2841.2979727015
  0
LWPOLYLINE
  5
2017B
100
AcDbEntity
  8
0
100
AcDbPolyline
 70
0
 90
2
 38
0
 10
8252.36199581242
 20
2887.58558979948
 10
8228.74437971535
 20
2822.2383264894
  0
LWPOLYLINE
  5
2017C
100
AcDbEntity
  8
0
100
AcDbPolyline
 70
0
 90
2
 38
0
 10
8202.85594461262
 20
2844.47456332864
 10
8254.63294877394
 20
2829.49915629034
  0
LWPOLYLINE
  5
2017D
100
AcDbEntity
  8
0
100
AcDbPolyline
 70
0
 90
2
 38
0
 10
8217.38988281938
 20
2849.92014726091
 10
8206.94360636105
 20
2789.11092178564
  0
LWPOLYLINE
  5
2017E
100
AcDbEntity
  8
0
100
AcDbPolyline
 70
0
 90
2
 38
0
 10
8007.75988001205
 20
2870.60945264466
 10
8030.64368614487
 20
2926.85589880717
  0
LWPOLYLINE
  5
2017F
100
AcDbEntity
  8
0
100
AcDbPolyline
 70
0
 90
2
 38
0
 10
8012.79434147331
 20
2922.74031018304
 10
8163.82711366485
 20
2859.17725063885
  0
LWPOLYLINE
  5
20180
100
AcDbEntity
  8
0
100
AcDbPolyline
 70
0
 90
2
 38
0
 10
8101.58333780523
 20
2869.6948887781
 10
8116.68658823325
 20
2933.25794832229
  0
LWPOLYLINE
  5
20181
100
AcDbEntity
  8
0
100
AcDbPolyline
 70
0
 90
2
 38
0
 10
8075.03811733294
 20
2905.82067375326
 10
8053.98508534775
 20
2858.71996870557
  0
LWPOLYLINE
  5
20182
100
AcDbEntity
  8
0
100
AcDbPolyline
 70
0
 90
2
 38
0
 10
8177.55731697107
 20
2912.22267204379
 10
8154.21591776819
 20
2852.77525234831
  0
LWPOLYLINE
  5
20183
100
AcDbEntity
  8
0
100
AcDbPolyline
 70
0
 90
2
 38
0
 10
8131.78983866124
 20
2893.93118981416
 10
8116.22886120738
 20
2830.82541220325
  0
LWPOLYLINE
  5
20184
100
AcDbEntity
  8
0
100
AcDbPolyline
 70
0
 90
2
 38
0
 10
8398.95547223656
 20
2854.36275368072
 10
8376.90272799091
 20
2804.3271356312
  0
LWPOLYLINE
  5
20185
100
AcDbEntity
  8
0
100
AcDbPolyline
 70
0
 90
2
 38
0
 10
8377.36219644238
 20
2824.06596870936
 10
8431.11558472415
 20
2798.81864789989
  0
LWPOLYLINE
  5
20186
100
AcDbEntity
  8
0
100
AcDbPolyline
 70
0
 90
2
 38
0
 10
8285.01667317547
 20
2777.24366931949
 10
8316.25798271594
 20
2881.90529478643
  0
LWPOLYLINE
  5
20187
100
AcDbEntity
  8
0
100
AcDbPolyline
 70
0
 90
2
 38
0
 10
8081.52961621308
 20
2909.78443268653
 10
8151.15904602973
 20
3085.19106162683
  0
LWPOLYLINE
  5
20188
100
AcDbEntity
  8
0
100
AcDbPolyline
 70
0
 90
2
 38
0
 10
8119.30729983232
 20
3076.30969063161
 10
8225.23286193484
 20
3040.78430909994
  0
LWPOLYLINE
  5
20189
100
AcDbEntity
  8
0
100
AcDbPolyline
 70
0
 90
2
 38
0
 10
8180.04782351627
 20
3181.40570063918
 10
8315.60293877198
 20
3117.75602030983
  0
LWPOLYLINE
  5
2018A
100
AcDbEntity
  8
0
100
AcDbPolyline
 70
0
 90
2
 38
0
 10
8198.56627749253
 20
3030.42275229269
 10
8285.24104916854
 20
3255.5091420415
  0
LWPOLYLINE
  5
2018B
100
AcDbEntity
  8
0
100
AcDbPolyline
 70
0
 90
2
 38
0
 10
8094.13057198402
 20
3014.23250282918
 10
8200.7969097532
 20
2966.86527622903
  0
LWPOLYLINE
  5
2018C
100
AcDbEntity
  8
0
100
AcDbPolyline
 70
0
 90
2
 38
0
 10
8197.09329933146
 20
2983.14778118282
 10
8154.87109566797
 20
2892.85403909242
  0
LWPOLYLINE
  5
2018D
100
AcDbEntity
  8
0
100
AcDbPolyline
 70
0
 90
2
 38
0
 10
7741.01151880593
 20
3178.51315037498
 10
7922.04101704442
 20
3115.02667159591
  0
LWPOLYLINE
  5
2018E
100
AcDbEntity
  8
0
100
AcDbPolyline
 70
0
 90
2
 38
0
 10
7907.65456419191
 20
3083.88237574899
 10
7954.41050247362
 20
3303.09043621185
  0
LWPOLYLINE
  5
2018F
100
AcDbEntity
  8
0
100
AcDbPolyline
 70
0
 90
2
 38
0
 10
7775.76113118729
 20
3243.19029357179
 10
8098.07463309687
 20
3122.48379403361
  0
LWPOLYLINE
  5
20190
100
AcDbEntity
  8
0
100
AcDbPolyline
 70
0
 90
2
 38
0
 10
7925.35615559758
 20
3232.34558641227
 10
8107.98468442072
 20
3139.92966069758
  0
LWPOLYLINE
  5
20191
100
AcDbEntity
  8
0
100
AcDbPolyline
 70
0
 90
2
 38
0
 10
7982.80109827762
 20
3112.60789758363
 10
8061.26437838626
 20
3056.0669612414
  0
LWPOLYLINE
  5
20192
100
AcDbEntity
  8
0
100
AcDbPolyline
 70
0
 90
2
 38
0
 10
7744.08218799348
 20
3129.71271091369
 10
7893.87586888002
 20
3039.43730722724
  0
LWPOLYLINE
  5
20193
100
AcDbEntity
  8
0
100
AcDbPolyline
 70
0
 90
2
 38
0
 10
7808.27944152892
 20
2954.38834866824
 10
7916.70153818838
 20
3103.58038282728
  0
LWPOLYLINE
  5
20194
100
AcDbEntity
  8
0
100
AcDbPolyline
 70
0
 90
2
 38
0
 10
7727.43844567277
 20
3076.97289542496
 10
7784.02714277207
 20
3051.31562420527
  0
LWPOLYLINE
  5
20195
100
AcDbEntity
  8
0
100
AcDbPolyline
 70
0
 90
2
 38
0
 10
7730.76724771925
 20
2989.07313464428
 10
7766.43231415236
 20
3069.37075616716
  0
LWPOLYLINE
  5
20196
100
AcDbEntity
  8
0
100
AcDbPolyline
 70
0
 90
2
 38
0
 10
7745.98436059148
 20
3046.56428716914
 10
7871.52574272116
 20
3006.17794797434
  0
LWPOLYLINE
  5
20197
100
AcDbEntity
  8
0
100
AcDbPolyline
 70
0
 90
2
 38
0
 10
7786.88040166904
 20
3086.00041018131
 10
7773.08978428948
 20
3047.03944648505
  0
LWPOLYLINE
  5
20198
100
AcDbEntity
  8
0
100
AcDbPolyline
 70
0
 90
2
 38
0
 10
7774.51641373796
 20
3082.1993405524
 10
7828.7275290456
 20
3057.49238796454
  0
LWPOLYLINE
  5
20199
100
AcDbEntity
  8
0
100
AcDbPolyline
 70
0
 90
2
 38
0
 10
7812.08378672489
 20
3054.16642642695
 10
7838.23825807971
 20
3086.95067758853
  0
LWPOLYLINE
  5
2019A
100
AcDbEntity
  8
0
100
AcDbPolyline
 70
0
 90
2
 38
0
 10
7834.91883294043
 20
3008.95975067052
 10
7920.990803441
 20
2980.45172845374
  0
LWPOLYLINE
  5
2019B
100
AcDbEntity
  8
0
100
AcDbPolyline
 70
0
 90
2
 38
0
 10
7917.66200139455
 20
3031.76616844394
 10
7881.52139181193
 20
2930.5626639621
  0
LWPOLYLINE
  5
2019C
100
AcDbEntity
  8
0
100
AcDbPolyline
 70
0
 90
2
 38
0
 10
7893.4097026377
 20
3017.51215733555
 10
7980.4327594373
 20
2985.20306548988
  0
LWPOLYLINE
  5
2019D
100
AcDbEntity
  8
0
100
AcDbPolyline
 70
0
 90
2
 38
0
 10
7922.892976039
 20
2911.55731581758
 10
8018.0001324242
 20
3098.28488694975
  0
LWPOLYLINE
  5
2019E
100
AcDbEntity
  8
0
100
AcDbPolyline
 70
0
 90
2
 38
0
 10
7679.86738624607
 20
2979.24774564207
 10
7923.6794306392
 20
2886.55484855814
  0
LWPOLYLINE
  5
2019F
100
AcDbEntity
  8
0
100
AcDbPolyline
 70
0
 90
2
 38
0
 10
7919.07925393587
 20
2940.17885173035
 10
7827.20297789507
 20
2642.82388546666
  0
LWPOLYLINE
  5
201A0
100
AcDbEntity
  8
0
100
AcDbPolyline
 70
0
 90
2
 38
0
 10
7648.18469228939
 20
2628.64768451361
 10
7695.8700160278
 20
2631.07854752962
  0
LWPOLYLINE
  5
201A1
100
AcDbEntity
  8
0
100
AcDbPolyline
 70
0
 90
2
 38
0
 10
7680.2992597993
 20
2635.94027356162
 10
7708.03454374772
 20
2606.76986614498
  0
LWPOLYLINE
  5
201A2
100
AcDbEntity
  8
0
100
AcDbPolyline
 70
0
 90
2
 38
0
 10
7685.65173236956
 20
2616.49331820899
 10
7763.01858411805
 20
2608.22838395458
  0
LWPOLYLINE
  5
201A3
100
AcDbEntity
  8
0
100
AcDbPolyline
 70
0
 90
2
 38
0
 10
7600.77397797536
 20
2526.51378776626
 10
7642.61146053314
 20
2613.0687493317
  0
LWPOLYLINE
  5
201A4
100
AcDbEntity
  8
0
100
AcDbPolyline
 70
0
 90
2
 38
0
 10
7618.27758268386
 20
2912.28665155927
 10
7790.86840028979
 20
2826.06418882086
  0
LWPOLYLINE
  5
201A5
100
AcDbEntity
  8
0
100
AcDbPolyline
 70
0
 90
2
 38
0
 10
7768.79288355529
 20
2830.07451090831
 10
7900.24278885059
 20
2816.5395906232
  0
LWPOLYLINE
  5
201A6
100
AcDbEntity
  8
0
100
AcDbPolyline
 70
0
 90
2
 38
0
 10
7763.77570239437
 20
2853.13402939108
 10
7707.0815820673
 20
2652.11530932129
  0
LWPOLYLINE
  5
201A7
100
AcDbEntity
  8
0
100
AcDbPolyline
 70
0
 90
2
 38
0
 10
7804.4148162154
 20
2942.86558158367
 10
7767.28775599817
 20
2823.05643444912
  0
LWPOLYLINE
  5
201A8
100
AcDbEntity
  8
0
100
AcDbPolyline
 70
0
 90
2
 38
0
 10
7769.79634657863
 20
2860.65344093271
 10
7911.78227872952
 20
2838.59654139025
  0
LWPOLYLINE
  5
201A9
100
AcDbEntity
  8
0
100
AcDbPolyline
 70
0
 90
2
 38
0
 10
7764.77916541771
 20
2914.29183821529
 10
7918.80638593712
 20
2865.16509810261
  0
LWPOLYLINE
  5
201AA
100
AcDbEntity
  8
0
100
AcDbPolyline
 70
0
 90
2
 38
0
 10
7678.48375661476
 20
2961.9147267544
 10
7787.35648064182
 20
2904.76729124223
  0
LWPOLYLINE
  5
201AB
100
AcDbEntity
  8
0
100
AcDbPolyline
 70
0
 90
2
 38
0
 10
7694.538629165
 20
2846.1159017073
 10
7736.68300449898
 20
2949.382374185
  0
LWPOLYLINE
  5
201AC
100
AcDbEntity
  8
0
100
AcDbPolyline
 70
0
 90
2
 38
0
 10
7710.59363567107
 20
2964.92248112613
 10
7684.50440079902
 20
2863.15991144659
  0
LWPOLYLINE
  5
201AD
100
AcDbEntity
  8
0
100
AcDbPolyline
 70
0
 90
2
 38
0
 10
7638.34630732751
 20
2855.1392160471
 10
7769.79634657863
 20
2797.99172931034
  0
LWPOLYLINE
  5
201AE
100
AcDbEntity
  8
0
100
AcDbPolyline
 70
0
 90
2
 38
0
 10
7765.78262844108
 20
2807.01504365014
 10
7757.75505821014
 20
2770.92188874011
  0
LWPOLYLINE
  5
201AF
100
AcDbEntity
  8
0
100
AcDbPolyline
 70
0
 90
2
 38
0
 10
7749.22595740124
 20
2779.44386799747
 10
7885.19124536787
 20
2772.92707539614
  0
LWPOLYLINE
  5
201B0
100
AcDbEntity
  8
0
100
AcDbPolyline
 70
0
 90
2
 38
0
 10
7819.47546869368
 20
2792.93965269424
 10
7806.93251579141
 20
2745.31676415514
  0
LWPOLYLINE
  5
201B1
100
AcDbEntity
  8
0
100
AcDbPolyline
 70
0
 90
2
 38
0
 10
7720.63710698843
 20
2764.86724440831
 10
7882.69189773878
 20
2745.818048013
  0
LWPOLYLINE
  5
201B2
100
AcDbEntity
  8
0
100
AcDbPolyline
 70
0
 90
2
 38
0
 10
7704.58223443819
 20
2710.22622818543
 10
7864.12830065226
 20
2708.22104152941
  0
LWPOLYLINE
  5
201B3
100
AcDbEntity
  8
0
100
AcDbPolyline
 70
0
 90
2
 38
0
 10
7725.65428814935
 20
2643.5541944756
 10
7748.7332679072
 20
2720.7533940988
  0
LWPOLYLINE
  5
201B4
100
AcDbEntity
  8
0
100
AcDbPolyline
 70
0
 90
2
 38
0
 10
7623.8056713299
 20
2796.95002600629
 10
7747.72993883968
 20
2722.25729689697
  0
LWPOLYLINE
  5
201B5
100
AcDbEntity
  8
0
100
AcDbPolyline
 70
0
 90
2
 38
0
 10
7636.34862423217
 20
2676.13825993143
 10
7714.6164628042
 20
2764.36590932586
  0
LWPOLYLINE
  5
201B6
100
AcDbEntity
  8
0
100
AcDbPolyline
 70
0
 90
2
 38
0
 10
7655.41388585247
 20
2787.92671166649
 10
7630.8297785375
 20
2729.77665721401
  0
LWPOLYLINE
  5
201B7
100
AcDbEntity
  8
0
100
AcDbPolyline
 70
0
 90
2
 38
0
 10
7597.21463796825
 20
2763.36334161015
 10
7683.00838223746
 20
2707.71975767155
  0
LWPOLYLINE
  5
201B8
100
AcDbEntity
  8
0
100
AcDbPolyline
 70
0
 90
2
 38
0
 10
7724.27306972275
 20
2830.16128536725
 10
7683.83462171521
 20
2747.12596552196
  0
LWPOLYLINE
  5
201B9
100
AcDbEntity
  8
0
100
AcDbPolyline
 70
0
 90
2
 38
0
 10
7726.6802557499
 20
2850.24675525985
 10
7740.8522453398
 20
2911.39216773279
  0
LWPOLYLINE
  5
201BA
100
AcDbEntity
  8
0
100
AcDbPolyline
 70
0
 90
2
 38
0
 10
7727.32444927271
 20
2897.23220497542
 10
7794.96342960812
 20
2872.45220611928
  0
LWPOLYLINE
  5
201BB
100
AcDbEntity
  8
0
100
AcDbPolyline
 70
0
 90
2
 38
0
 10
8691.20982468856
 20
3211.02109608702
 10
8576.50332484164
 20
2952.52203188128
  0
LWPOLYLINE
  5
201BC
100
AcDbEntity
  8
0
100
AcDbPolyline
 70
0
 90
2
 38
0
 10
8485.24043248579
 20
3021.957068862
 10
8701.5488025377
 20
2930.37477215844
  0
LWPOLYLINE
  5
201BD
100
AcDbEntity
  8
0
100
AcDbPolyline
 70
0
 90
2
 38
0
 10
8808.18540211557
 20
3057.39080959849
 10
8763.53457949424
 20
2883.13739989914
  0
LWPOLYLINE
  5
201BE
100
AcDbEntity
  8
0
100
AcDbPolyline
 70
0
 90
2
 38
0
 10
8936.93757121716
 20
3159.25885071307
 10
8880.20473765902
 20
3002.85065459737
  0
LWPOLYLINE
  5
201BF
100
AcDbEntity
  8
0
100
AcDbPolyline
 70
0
 90
2
 38
0
 10
8995.29341345118
 20
3057.40515248426
 10
9135.54944018443
 20
3016.46609994118
  0
LWPOLYLINE
  5
201C0
100
AcDbEntity
  8
0
100
AcDbPolyline
 70
0
 90
2
 38
0
 10
9043.62145719837
 20
3012.79206730058
 10
9171.2700982815
 20
2929.86426787401
  0
LWPOLYLINE
  5
201C1
100
AcDbEntity
  8
0
100
AcDbPolyline
 70
0
 90
2
 38
0
 10
8929.63054932459
 20
2915.69303570638
 10
9067.26010435863
 20
2847.46131561764
  0
LWPOLYLINE
  5
201C2
100
AcDbEntity
  8
0
100
AcDbPolyline
 70
0
 90
2
 38
0
 10
8811.96442966218
 20
2902.3745905473
 10
8736.29439624457
 20
2741.70732572512
  0
LWPOLYLINE
  5
201C3
100
AcDbEntity
  8
0
100
AcDbPolyline
 70
0
 90
2
 38
0
 10
8539.04941243154
 20
2894.61293790984
 10
8507.59230007028
 20
2797.7727441793
  0
LWPOLYLINE
  5
201C4
100
AcDbEntity
  8
0
100
AcDbPolyline
 70
0
 90
2
 38
0
 10
8497.86898315497
 20
2880.98950152965
 10
8790.60396907752
 20
2796.56881259221
  0
LWPOLYLINE
  5
201C5
100
AcDbEntity
  8
0
100
AcDbPolyline
 70
0
 90
2
 38
0
 10
8574.67991826392
 20
2830.67819272569
 10
8619.05948035631
 20
2979.90659634509
  0
LWPOLYLINE
  5
201C6
100
AcDbEntity
  8
0
100
AcDbPolyline
 70
0
 90
2
 38
0
 10
8450.92898958104
 20
2945.7972674362
 10
8611.37845382333
 20
2891.22227971248
  0
LWPOLYLINE
  5
201C7
100
AcDbEntity
  8
0
100
AcDbPolyline
 70
0
 90
2
 38
0
 10
8396.06992998774
 20
2795.15368201208
 10
8532.04178178939
 20
2754.18092368743
  0
LWPOLYLINE
  5
201C8
100
AcDbEntity
  8
0
100
AcDbPolyline
 70
0
 90
2
 38
0
 10
8501.28619604051
 20
2770.35437148473
 10
8478.62422074025
 20
2736.39016184514
  0
LWPOLYLINE
  5
201C9
100
AcDbEntity
  8
0
100
AcDbPolyline
 70
0
 90
2
 38
0
 10
8472.68904036708
 20
2753.10269724924
 10
8525.56689343051
 20
2722.3731669242
  0
LWPOLYLINE
  5
201CA
100
AcDbEntity
  8
0
100
AcDbPolyline
 70
0
 90
2
 38
0
 10
8512.07767663867
 20
2742.85952047423
 10
8505.60278827976
 20
2686.25245318365
  0
LWPOLYLINE
  5
201CB
100
AcDbEntity
  8
0
100
AcDbPolyline
 70
0
 90
2
 38
0
 10
8477.00563260633
 20
2689.48713249819
 10
8433.83006539498
 20
2581.60583652219
  0
LWPOLYLINE
  5
201CC
100
AcDbEntity
  8
0
100
AcDbPolyline
 70
0
 90
2
 38
0
 10
8435.4487874847
 20
2654.92543921687
 10
8492.64323278738
 20
2624.19590889182
  0
LWPOLYLINE
  5
201CD
100
AcDbEntity
  8
0
100
AcDbPolyline
 70
0
 90
2
 38
0
 10
8475.91657181608
 20
2616.64832382456
 10
8501.81599129579
 20
2675.95093159829
  0
LWPOLYLINE
  5
201CE
100
AcDbEntity
  8
0
100
AcDbPolyline
 70
0
 90
2
 38
0
 10
8421.41986270711
 20
2596.70105788131
 10
8506.67202360914
 20
2558.9630300958
  0
LWPOLYLINE
  5
201CF
100
AcDbEntity
  8
0
100
AcDbPolyline
 70
0
 90
2
 38
0
 10
8444.59127197852
 20
2660.17703561901
 10
8397.64859928825
 20
2563.13640005976
  0
LWPOLYLINE
  5
201D0
100
AcDbEntity
  8
0
100
AcDbPolyline
 70
0
 90
2
 38
0
 10
8356.10166689704
 20
2588.4747981939
 10
8482.9007601903
 20
2544.8064481615
  0
LWPOLYLINE
  5
201D1
100
AcDbEntity
  8
0
100
AcDbPolyline
 70
0
 90
2
 38
0
 10
8481.82161213047
 20
2596.02238326117
 10
8435.4185134701
 20
2473.10421073639
  0
LWPOLYLINE
  5
201D2
100
AcDbEntity
  8
0
100
AcDbPolyline
 70
0
 90
2
 38
0
 10
8367.97216159917
 20
2546.42381343106
 10
8351.78507465779
 20
2514.61605666784
  0
LWPOLYLINE
  5
201D3
100
AcDbEntity
  8
0
100
AcDbPolyline
 70
0
 90
2
 38
0
 10
8352.86422271762
 20
2544.8064481615
 10
8488.83607451926
 20
2498.98169647733
  0
LWPOLYLINE
  5
201D4
100
AcDbEntity
  8
0
100
AcDbPolyline
 70
0
 90
2
 38
0
 10
8416.53355637917
 20
2701.68888155046
 10
8350.16635256808
 20
2569.60575868885
  0
LWPOLYLINE
  5
201D5
100
AcDbEntity
  8
0
100
AcDbPolyline
 70
0
 90
2
 38
0
 10
8543.86686546967
 20
2716.74435262616
 10
8633.37855343299
 20
2680.20641458331
  0
LWPOLYLINE
  5
201D6
100
AcDbEntity
  8
0
100
AcDbPolyline
 70
0
 90
2
 38
0
 10
8641.01979508842
 20
2745.64747012145
 10
8598.4471630083
 20
2653.48469634071
  0
LWPOLYLINE
  5
201D7
100
AcDbEntity
  8
0
100
AcDbPolyline
 70
0
 90
2
 38
0
 10
8625.19144182431
 20
2742.92078508632
 10
8672.13063166334
 20
2727.10585820882
  0
LWPOLYLINE
  5
201D8
100
AcDbEntity
  8
0
100
AcDbPolyline
 70
0
 90
2
 38
0
 10
8665.58099595871
 20
2743.46612209335
 10
8641.56566504171
 20
2680.75175159034
  0
LWPOLYLINE
  5
201D9
100
AcDbEntity
  8
0
100
AcDbPolyline
 70
0
 90
2
 38
0
 10
8632.8326834797
 20
2702.0200997627
 10
8705.42454618399
 20
2670.39029723227
  0
LWPOLYLINE
  5
201DA
100
AcDbEntity
  8
0
100
AcDbPolyline
 70
0
 90
2
 38
0
 10
8662.85191410387
 20
2671.48097124632
 10
8700.51238638343
 20
2778.91333489755
  0
LWPOLYLINE
  5
201DB
100
AcDbEntity
  8
0
100
AcDbPolyline
 70
0
 90
2
 38
0
 10
8806.94389960586
 20
2750.01021740225
 10
8764.37126752571
 20
2685.65983587816
  0
LWPOLYLINE
  5
201DC
100
AcDbEntity
  8
0
100
AcDbPolyline
 70
0
 90
2
 38
0
 10
8701.0581223809
 20
2723.83378494207
 10
8783.47443864215
 20
2694.38533043975
  0
LWPOLYLINE
  5
201DD
100
AcDbEntity
  8
0
100
AcDbPolyline
 70
0
 90
2
 38
0
 10
8731.07735300507
 20
2723.28844793505
 10
8697.13469046383
 20
2665.70667910684
  0
LWPOLYLINE
  5
201DE
100
AcDbEntity
  8
0
100
AcDbPolyline
 70
0
 90
2
 38
0
 10
8696.06049876925
 20
2670.21459688152
 10
8731.29476329565
 20
2643.16724390721
  0
LWPOLYLINE
  5
201DF
100
AcDbEntity
  8
0
100
AcDbPolyline
 70
0
 90
2
 38
0
 10
8727.6424579517
 20
2650.68040604862
 10
8710.24012384069
 20
2619.12513529963
  0
LWPOLYLINE
  5
201E0
100
AcDbEntity
  8
0
100
AcDbPolyline
 70
0
 90
2
 38
0
 10
8837.96900445805
 20
2742.46094192344
 10
8776.074987236
 20
2590.63591250814
  0
LWPOLYLINE
  5
201E1
100
AcDbEntity
  8
0
100
AcDbPolyline
 70
0
 90
2
 38
0
 10
8740.95525493289
 20
2662.20558068901
 10
8845.96656858604
 20
2633.02185487843
  0
LWPOLYLINE
  5
201E2
100
AcDbEntity
  8
0
100
AcDbPolyline
 70
0
 90
2
 38
0
 10
8817.80128646584
 20
2636.49611161002
 10
9090.52729203904
 20
2650.08568853485
  0
LWPOLYLINE
  5
201E3
100
AcDbEntity
  8
0
100
AcDbPolyline
 70
0
 90
2
 38
0
 10
9065.14373640966
 20
2645.56911380412
 10
9110.34726073095
 20
2667.80437737611
  0
LWPOLYLINE
  5
201E4
100
AcDbEntity
  8
0
100
AcDbPolyline
 70
0
 90
2
 38
0
 10
9545.5446596446
 20
2882.95043013814
 10
9277.57247809656
 20
2514.44010019413
  0
LWPOLYLINE
  5
201E5
100
AcDbEntity
  8
0
100
AcDbPolyline
 70
0
 90
2
 38
0
 10
9145.04784528338
 20
2606.1023072613
 10
8987.36054998267
 20
1719.69972365149
  0
LWPOLYLINE
  5
201E6
100
AcDbEntity
  8
0
100
AcDbPolyline
 70
0
 90
2
 38
0
 10
5104.57350683687
 20
4398.71438504193
 10
5958.9315161492
 20
3987.0980486371
  0
LWPOLYLINE
  5
201E7
100
AcDbEntity
  8
0
100
AcDbPolyline
 70
0
 90
2
 38
0
 10
5879.31045591627
 20
4017.91399484895
 10
6391.52990430608
 20
3868.96338219227
  0
LWPOLYLINE
  5
201E8
100
AcDbEntity
  8
0
100
AcDbPolyline
 70
0
 90
2
 38
0
 10
4479.74972723256
 20
4801.46845722438
 10
5166.39558978533
 20
4361.4400422637
  0
LWPOLYLINE
  5
201E9
100
AcDbEntity
  8
0
100
AcDbPolyline
 70
0
 90
2
 38
0
 10
4949.02307472509
 20
3601.83102769064
 10
5709.76405215784
 20
4573.80352396067
  0
LWPOLYLINE
  5
201EA
100
AcDbEntity
  8
0
100
AcDbPolyline
 70
0
 90
2
 38
0
 10
5307.04879551529
 20
4239.54216116349
 10
5811.37864816541
 20
4949.30893052203
  0
LWPOLYLINE
  5
201EB
100
AcDbEntity
  8
0
100
AcDbPolyline
 70
0
 90
2
 38
0
 10
7173.53730534008
 20
2541.83700978462
 10
6980.56283296534
 20
2270.72645101477
  0
LWPOLYLINE
  5
201EC
100
AcDbEntity
  8
0
100
AcDbPolyline
 70
0
 90
2
 38
0
 10
6592.65465043991
 20
2494.85755334633
 10
7011.90889595449
 20
2282.47132793049
  0
LWPOLYLINE
  5
201ED
100
AcDbEntity
  8
0
100
AcDbPolyline
 70
0
 90
2
 38
0
 10
6420.09651805329
 20
2405.91434762547
 10
6647.3559100811
 20
2485.1921899697
  0
LWPOLYLINE
  5
201EE
100
AcDbEntity
  8
0
100
AcDbPolyline
 70
0
 90
2
 38
0
 10
6555.27669097792
 20
2423.53166299906
 10
6447.52437340224
 20
2701.49340850718
  0
LWPOLYLINE
  5
201EF
100
AcDbEntity
  8
0
100
AcDbPolyline
 70
0
 90
2
 38
0
 10
6290.79379054482
 20
2175.91080683605
 10
6461.23836805462
 20
2431.36154679314
  0
LWPOLYLINE
  5
201F0
100
AcDbEntity
  8
0
100
AcDbPolyline
 70
0
 90
2
 38
0
 10
6296.67123596097
 20
2247.3587141616
 10
6448.43487108874
 20
2123.10665325969
  0
LWPOLYLINE
  5
201F1
100
AcDbEntity
  8
0
100
AcDbPolyline
 70
0
 90
2
 38
0
 10
6442.16573886442
 20
2184.17994150701
 10
6340.29086670489
 20
1913.265163128
  0
LWPOLYLINE
  5
201F2
100
AcDbEntity
  8
0
100
AcDbPolyline
 70
0
 90
2
 38
0
 10
5995.48363800088
 20
1703.4236217717
 10
6131.83913926175
 20
2004.09205077252
  0
LWPOLYLINE
  5
201F3
100
AcDbEntity
  8
0
100
AcDbPolyline
 70
0
 90
2
 38
0
 10
6113.03147467709
 20
1932.05690472363
 10
6174.15645155515
 20
2403.41735366112
  0
LWPOLYLINE
  5
201F4
100
AcDbEntity
  8
0
100
AcDbPolyline
 70
0
 90
2
 38
0
 10
6178.8583007234
 20
2343.91005241754
 10
6142.81025461014
 20
2394.0214828633
  0
LWPOLYLINE
  5
201F5
100
AcDbEntity
  8
0
100
AcDbPolyline
 70
0
 90
2
 38
0
 10
6145.94495467815
 20
2353.30597443995
 10
6175.72373461121
 20
2538.09177496106
  0
LWPOLYLINE
  5
201F6
100
AcDbEntity
  8
0
100
AcDbPolyline
 70
0
 90
2
 38
0
 10
5987.4061022503
 20
2674.85738900708
 10
6282.5474704651
 20
2443.08603632122
  0
LWPOLYLINE
  5
201F7
100
AcDbEntity
  8
0
100
AcDbPolyline
 70
0
 90
2
 38
0
 10
6238.12825745094
 20
2455.90744926359
 10
6483.91494453893
 20
2410.53941604219
  0
LWPOLYLINE
  5
201F8
100
AcDbEntity
  8
0
100
AcDbPolyline
 70
0
 90
2
 38
0
 10
6562.2665054964
 20
3041.64949245977
 10
6451.2878620741
 20
2878.29221941037
  0
LWPOLYLINE
  5
201F9
100
AcDbEntity
  8
0
100
AcDbPolyline
 70
0
 90
2
 38
0
 10
9015.02711459709
 20
2820.28149584828
 10
9255.19569473015
 20
2710.74564554887
  0
LWPOLYLINE
  5
201FA
100
AcDbEntity
  8
0
100
AcDbPolyline
 70
0
 90
2
 38
0
 10
9143.66622498934
 20
2747.46865804281
 10
9238.08605407874
 20
2926.01837672706
  0
LWPOLYLINE
  5
201FB
100
AcDbEntity
  8
0
100
AcDbPolyline
 70
0
 90
2
 38
0
 10
9182.95506417743
 20
2945.64615488964
 10
9276.10753728446
 20
2893.09433365375
  0
LWPOLYLINE
  5
201FC
100
AcDbEntity
  8
0
100
AcDbPolyline
 70
0
 90
2
 38
0
 10
9260.26525261541
 20
2890.56168737333
 10
9312.22778558295
 20
2964.64084831901
  0
LWPOLYLINE
  5
201FD
100
AcDbEntity
  8
0
100
AcDbPolyline
 70
0
 90
2
 38
0
 10
9264.06732056249
 20
2939.94777759558
 10
9375.59692425915
 20
2880.43120470084
  0
LWPOLYLINE
  5
201FE
100
AcDbEntity
  8
0
100
AcDbPolyline
 70
0
 90
2
 38
0
 10
9190.42537821064
 20
2756.31458162033
 10
9161.00479613157
 20
2676.07218020768
  0
LWPOLYLINE
  5
201FF
100
AcDbEntity
  8
0
100
AcDbPolyline
 70
0
 90
2
 38
0
 10
9118.46417949165
 20
2705.46792460478
 10
9178.89566710635
 20
2679.25010267423
  0
LWPOLYLINE
  5
20200
100
AcDbEntity
  8
0
100
AcDbPolyline
 70
0
 90
2
 38
0
 10
9155.83624489774
 20
2727.71333064601
 10
9225.01437756771
 20
2686.00314309412
  0
LWPOLYLINE
  5
20201
100
AcDbEntity
  8
0
100
AcDbPolyline
 70
0
 90
2
 38
0
 10
8928.48656664946
 20
2752.75057940345
 10
9086.13233564698
 20
2691.20325878125
  0
LWPOLYLINE
  5
20202
100
AcDbEntity
  8
0
100
AcDbPolyline
 70
0
 90
2
 38
0
 10
8974.28083612264
 20
2750.32104822684
 10
8917.94973605897
 20
2628.44114695844
  0
LWPOLYLINE
  5
20203
100
AcDbEntity
  8
0
100
AcDbPolyline
 70
0
 90
2
 38
0
 10
8841.35580937317
 20
2711.04413124678
 10
8926.86543335504
 20
2677.43608619575
  0
LWPOLYLINE
  5
20204
100
AcDbEntity
  8
0
100
AcDbPolyline
 70
0
 90
2
 38
0
 10
8876.61338221171
 20
2812.67822964945
 10
8938.61804693841
 20
2769.75709274136
  0
LWPOLYLINE
  5
20205
100
AcDbEntity
  8
0
100
AcDbPolyline
 70
0
 90
2
 38
0
 10
8934.56534765818
 20
2779.87999417423
 10
8927.67600000225
 20
2732.90965571332
  0
LWPOLYLINE
  5
20206
100
AcDbEntity
  8
0
100
AcDbPolyline
 70
0
 90
2
 38
0
 10
8931.32334898098
 20
2743.8424179466
 10
8879.84935287718
 20
2631.99997549151
  0
LWPOLYLINE
  5
20207
100
AcDbEntity
  8
0
100
AcDbPolyline
 70
0
 90
2
 38
0
 10
8810.95520653873
 20
2698.00142806674
 10
8850.26534470168
 20
2680.99491472883
  0
LWPOLYLINE
  5
20208
100
AcDbEntity
  8
0
100
AcDbPolyline
 70
0
 90
2
 38
0
 10
8856.34425966622
 20
2713.79315020405
 10
8829.59716777803
 20
2666.82281174314
  0
LWPOLYLINE
  5
20209
100
AcDbEntity
  8
0
100
AcDbPolyline
 70
0
 90
2
 38
0
 10
8573.53245273756
 20
2603.89539816177
 10
8661.06842635953
 20
2554.0096632686
  0
LWPOLYLINE
  5
2020A
100
AcDbEntity
  8
0
100
AcDbPolyline
 70
0
 90
2
 38
0
 10
8555.37688506889
 20
2534.57366997867
 10
8615.67937323204
 20
2668.6820595364
  0
LWPOLYLINE
  5
2020B
100
AcDbEntity
  8
0
100
AcDbPolyline
 70
0
 90
2
 38
0
 10
8465.34665413887
 20
2524.14736528705
 10
8546.61309366903
 20
2489.87293951798
  0
LWPOLYLINE
  5
2020C
100
AcDbEntity
  8
0
100
AcDbPolyline
 70
0
 90
2
 38
0
 10
8486.99056523177
 20
2446.62186501246
 10
8514.35157662816
 20
2522.10719223466
  0
LWPOLYLINE
  5
2020D
100
AcDbEntity
  8
0
100
AcDbPolyline
 70
0
 90
2
 38
0
 10
8524.96931653196
 20
2560.46191288394
 10
8582.95838773967
 20
2537.61231277942
  0
LWPOLYLINE
  5
2020E
100
AcDbEntity
  8
0
100
AcDbPolyline
 70
0
 90
2
 38
0
 10
8523.33585930238
 20
2488.2408215659
 10
8544.57120515418
 20
2556.38161800374
  0
LWPOLYLINE
  5
2020F
100
AcDbEntity
  8
0
100
AcDbPolyline
 70
0
 90
2
 38
0
 10
8563.35649911742
 20
2499.25759213014
 10
8649.93174162161
 20
2458.04669067702
  0
LWPOLYLINE
  5
20210
100
AcDbEntity
  8
0
100
AcDbPolyline
 70
0
 90
2
 38
0
 10
8646.66469320666
 20
2469.47151634157
 10
8621.34557032515
 20
2396.4343148229
  0
LWPOLYLINE
  5
20211
100
AcDbEntity
  8
0
100
AcDbPolyline
 70
0
 90
2
 38
0
 10
8549.88014208398
 20
2429.0766226399
 10
8609.91110180656
 20
2550.66920517146
  0
LWPOLYLINE
  5
20212
100
AcDbEntity
  8
0
100
AcDbPolyline
 70
0
 90
2
 38
0
 10
8518.816859824
 20
2390.45783921857
 10
8539.22784157947
 20
2462.16499420452
  0
LWPOLYLINE
  5
20213
100
AcDbEntity
  8
0
100
AcDbPolyline
 70
0
 90
2
 38
0
 10
8445.08583685401
 20
2462.87240582081
 10
8535.96588348554
 20
2418.29630479259
  0
LWPOLYLINE
  5
20214
100
AcDbEntity
  8
0
100
AcDbPolyline
 70
0
 90
2
 38
0
 10
8493.83061714715
 20
2444.71180242389
 10
8450.45612554788
 20
2320.06372420079
  0
LWPOLYLINE
  5
20215
100
AcDbEntity
  8
0
100
AcDbPolyline
 70
0
 90
2
 38
0
 10
8397.99353551641
 20
2385.68970051625
 10
8490.52592714768
 20
2360.09968718593
  0
LWPOLYLINE
  5
20216
100
AcDbEntity
  8
0
100
AcDbPolyline
 70
0
 90
2
 38
0
 10
8341.81313574658
 20
2326.25483084583
 10
8345.53094548493
 20
2395.59551212799
  0
LWPOLYLINE
  5
20217
100
AcDbEntity
  8
0
100
AcDbPolyline
 70
0
 90
2
 38
0
 10
8285.2197501937
 20
2381.14951124858
 10
8402.95057051559
 20
2372.4819517006
  0
LWPOLYLINE
  5
20218
100
AcDbEntity
  8
0
100
AcDbPolyline
 70
0
 90
2
 38
0
 10
8393.03650051722
 20
2364.63982522902
 10
8433.5192879001
 20
2440.17161315621
  0
LWPOLYLINE
  5
20219
100
AcDbEntity
  8
0
100
AcDbPolyline
 70
0
 90
2
 38
0
 10
8312.48377757875
 20
2471.12724883059
 10
8452.52159028649
 20
2423.24921059846
  0
LWPOLYLINE
  5
2021A
100
AcDbEntity
  8
0
100
AcDbPolyline
 70
0
 90
2
 38
0
 10
8378.16512760805
 20
2434.39322304937
 10
8432.18803499313
 20
2596.40882158364
  0
LWPOLYLINE
  5
2021B
100
AcDbEntity
  8
0
100
AcDbPolyline
 70
0
 90
2
 38
0
 10
8298.43194635649
 20
2368.93720993034
 10
8325.6971793439
 20
2483.3545077297
  0
LWPOLYLINE
  5
2021C
100
AcDbEntity
  8
0
100
AcDbPolyline
 70
0
 90
2
 38
0
 10
8290.0426954203
 20
2393.24563519203
 10
8290.0426954203
 20
2323.25409424321
  0
LWPOLYLINE
  5
2021D
100
AcDbEntity
  8
0
100
AcDbPolyline
 70
0
 90
2
 38
0
 10
8377.73740668513
 20
2160.3192191799
 10
8392.95425164575
 20
2229.15938497308
  0
LWPOLYLINE
  5
2021E
100
AcDbEntity
  8
0
100
AcDbPolyline
 70
0
 90
2
 38
0
 10
8527.94152819421
 20
2353.00267363038
 10
8689.37195088263
 20
2289.59149500164
  0
LWPOLYLINE
  5
2021F
100
AcDbEntity
  8
0
100
AcDbPolyline
 70
0
 90
2
 38
0
 10
8655.72291949176
 20
2287.03805153685
 10
8744.31808175682
 20
2329.59585241348
  0
LWPOLYLINE
  5
20220
100
AcDbEntity
  8
0
100
AcDbPolyline
 70
0
 90
2
 38
0
 10
8712.79854598496
 20
2327.46798285949
 10
8823.96847831362
 20
2267.03587283093
  0
LWPOLYLINE
  5
20221
100
AcDbEntity
  8
0
100
AcDbPolyline
 70
0
 90
2
 38
0
 10
8509.5731047327
 20
2292.10570042893
 10
8629.7208898564
 20
2239.13158365613
  0
LWPOLYLINE
  5
20222
100
AcDbEntity
  8
0
100
AcDbPolyline
 70
0
 90
2
 38
0
 10
8552.05196774111
 20
2390.90477378426
 10
8693.80428094757
 20
2325.03922005176
  0
LWPOLYLINE
  5
20223
100
AcDbEntity
  8
0
100
AcDbPolyline
 70
0
 90
2
 38
0
 10
8601.60075084644
 20
2304.80596721108
 10
8629.60649158887
 20
2372.39353805471
  0
LWPOLYLINE
  5
20224
100
AcDbEntity
  8
0
100
AcDbPolyline
 70
0
 90
2
 38
0
 10
8473.63945688701
 20
2409.67843309891
 10
8552.65838572357
 20
2396.2305433957
  0
LWPOLYLINE
  5
20225
100
AcDbEntity
  8
0
100
AcDbPolyline
 70
0
 90
2
 38
0
 10
8552.7488058999
 20
2635.57207119393
 10
8528.34205608632
 20
2546.38846846255
  0
LWPOLYLINE
  5
20226
100
AcDbEntity
  8
0
100
AcDbPolyline
 70
0
 90
2
 38
0
 10
8533.9207800311
 20
2629.99806720938
 10
8630.8504053033
 20
2589.58678163825
  0
LWPOLYLINE
  5
20227
100
AcDbEntity
  8
0
100
AcDbPolyline
 70
0
 90
2
 38
0
 10
8614.11436742483
 20
2593.07051491937
 10
8690.82135281997
 20
2599.34122458047
  0
LWPOLYLINE
  5
20228
100
AcDbEntity
  8
0
100
AcDbPolyline
 70
0
 90
2
 38
0
 10
8465.02328479721
 20
2231.88755552137
 10
8530.66886862344
 20
2167.01038029259
  0
LWPOLYLINE
  5
20229
100
AcDbEntity
  8
0
100
AcDbPolyline
 70
0
 90
2
 38
0
 10
8456.46082898995
 20
2176.27854818242
 10
8519.96566490852
 20
2122.80837246015
  0
LWPOLYLINE
  5
2022A
100
AcDbEntity
  8
0
100
AcDbPolyline
 70
0
 90
2
 38
0
 10
8500.7001393422
 20
2153.46460039396
 10
8465.73673347727
 20
2094.29092491844
  0
LWPOLYLINE
  5
2022B
100
AcDbEntity
  8
0
100
AcDbPolyline
 70
0
 90
2
 38
0
 10
8492.85126617082
 20
2274.66367560936
 10
8541.37193838251
 20
2229.74872390468
  0
LWPOLYLINE
  5
2022C
100
AcDbEntity
  8
0
100
AcDbPolyline
 70
0
 90
2
 38
0
 10
8562.06449526479
 20
2312.44929104089
 10
8504.98136724584
 20
2174.13971656572
  0
LWPOLYLINE
  5
2022D
100
AcDbEntity
  8
0
100
AcDbPolyline
 70
0
 90
2
 38
0
 10
9107.80678866609
 20
2499.59680137874
 10
9264.22123579597
 20
2443.98415709374
  0
LWPOLYLINE
  5
2022E
100
AcDbEntity
  8
0
100
AcDbPolyline
 70
0
 90
2
 38
0
 10
9221.30889176452
 20
2466.51227165852
 10
9441.71764936744
 20
2282.02756928951
  0
LWPOLYLINE
  5
2022F
100
AcDbEntity
  8
0
100
AcDbPolyline
 70
0
 90
2
 38
0
 10
9429.85331663286
 20
2307.56010862754
 10
9386.50253521316
 20
2237.34558702951
  0
LWPOLYLINE
  5
20230
100
AcDbEntity
  8
0
100
AcDbPolyline
 70
0
 90
2
 38
0
 10
8896.11333045739
 20
2645.89715609164
 10
8961.44786887709
 20
2493.57878263025
  0
LWPOLYLINE
  5
20231
100
AcDbEntity
  8
0
100
AcDbPolyline
 70
0
 90
2
 38
0
 10
8824.29171369947
 20
2413.02134997646
 10
8943.83991258734
 20
2522.28314870837
  0
LWPOLYLINE
  5
20232
100
AcDbEntity
  8
0
100
AcDbPolyline
 70
0
 90
2
 38
0
 10
8826.57699993337
 20
2425.78933566932
 10
8841.86805641648
 20
2322.546170381
  0
LWPOLYLINE
  5
20233
100
AcDbEntity
  8
0
100
AcDbPolyline
 70
0
 90
2
 38
0
 10
8843.25811592699
 20
2342.91701247594
 10
8813.43553244183
 20
2238.17066153375
  0
LWPOLYLINE
  5
20234
100
AcDbEntity
  8
0
100
AcDbPolyline
 70
0
 90
2
 38
0
 10
8808.98712767888
 20
2245.57824979093
 10
8893.85429956357
 20
2206.71481771795
  0
LWPOLYLINE
  5
20235
100
AcDbEntity
  8
0
100
AcDbPolyline
 70
0
 90
2
 38
0
 10
8885.94688770024
 20
2214.61559634744
 10
8914.80016689532
 20
2132.03038699253
  0
LWPOLYLINE
  5
20236
100
AcDbEntity
  8
0
100
AcDbPolyline
 70
0
 90
2
 38
0
 10
8905.12520802987
 20
2148.38957516063
 10
8942.33652645585
 20
2105.26082498095
  0
LWPOLYLINE
  5
20237
100
AcDbEntity
  8
0
100
AcDbPolyline
 70
0
 90
2
 38
0
 10
8931.17318451038
 20
2124.59442031135
 10
8949.4923122313
 20
2055.86551433212
  0
LWPOLYLINE
  5
20238
100
AcDbEntity
  8
0
100
AcDbPolyline
 70
0
 90
2
 38
0
 10
8938.75294044591
 20
2074.5267868918
 10
8980.30938370008
 20
2021.34213704565
  0
LWPOLYLINE
  5
20239
100
AcDbEntity
  8
0
100
AcDbPolyline
 70
0
 90
2
 38
0
 10
8977.50783174837
 20
2032.07235724193
 10
8937.33367856732
 20
1908.90087910944
  0
LWPOLYLINE
  5
2023A
100
AcDbEntity
  8
0
100
AcDbPolyline
 70
0
 90
2
 38
0
 10
8891.57477342975
 20
1853.8501173747
 10
8949.94066235001
 20
1937.3593671457
  0
LWPOLYLINE
  5
2023B
100
AcDbEntity
  8
0
100
AcDbPolyline
 70
0
 90
2
 38
0
 10
8894.37632538145
 20
1870.64527804579
 10
8894.84329535867
 20
1811.39568772483
  0
LWPOLYLINE
  5
2023C
100
AcDbEntity
  8
0
100
AcDbPolyline
 70
0
 90
2
 38
0
 10
8844.41522627216
 20
1742.81548673633
 10
8899.97956324069
 20
1830.99001622881
  0
LWPOLYLINE
  5
2023D
100
AcDbEntity
  8
0
100
AcDbPolyline
 70
0
 90
2
 38
0
 10
8856.55537403343
 20
1734.88443437294
 10
8913.05338304478
 20
1822.59246150556
  0
LWPOLYLINE
  5
2023E
100
AcDbEntity
  8
0
100
AcDbPolyline
 70
0
 90
2
 38
0
 10
8906.98344311997
 20
1801.59852347285
 10
8910.25183109308
 20
1852.9170614304
  0
LWPOLYLINE
  5
2023F
100
AcDbEntity
  8
0
100
AcDbPolyline
 70
0
 90
2
 38
0
 10
8904.18189116826
 20
1833.78923528628
 10
8975.1845020625
 20
1943.67535934617
  0
LWPOLYLINE
  5
20240
100
AcDbEntity
  8
0
100
AcDbPolyline
 70
0
 90
2
 38
0
 10
8955.01316726324
 20
1903.36698398047
 10
8996.10277449602
 20
2030.26371934563
  0
LWPOLYLINE
  5
20241
100
AcDbEntity
  8
0
100
AcDbPolyline
 70
0
 90
2
 38
0
 10
8996.10277449602
 20
2011.60244678595
 10
8939.62847566424
 20
2138.12790630789
  0
LWPOLYLINE
  5
20242
100
AcDbEntity
  8
0
100
AcDbPolyline
 70
0
 90
2
 38
0
 10
8911.03667822347
 20
2153.1142241843
 10
8957.90835433087
 20
2114.24351821925
  0
LWPOLYLINE
  5
20243
100
AcDbEntity
  8
0
100
AcDbPolyline
 70
0
 90
2
 38
0
 10
8925.56686566735
 20
2131.10311942714
 10
8899.78747059946
 20
2229.45059677892
  0
LWPOLYLINE
  5
20244
100
AcDbEntity
  8
0
100
AcDbPolyline
 70
0
 90
2
 38
0
 10
8836.49937519239
 20
2247.40978507988
 10
8917.11880812762
 20
2208.07073266966
  0
LWPOLYLINE
  5
20245
100
AcDbEntity
  8
0
100
AcDbPolyline
 70
0
 90
2
 38
0
 10
8839.78035501228
 20
2238.0433171979
 10
8854.31844584935
 20
2355.72479967682
  0
LWPOLYLINE
  5
20246
100
AcDbEntity
  8
0
100
AcDbPolyline
 70
0
 90
2
 38
0
 10
8857.13071426642
 20
2329.03048659096
 10
8838.85070164397
 20
2409.11342584853
  0
LWPOLYLINE
  5
20247
100
AcDbEntity
  8
0
100
AcDbPolyline
 70
0
 90
2
 38
0
 10
8836.9758560326
 20
2394.59545441729
 10
8854.56117378932
 20
2430.65966743279
  0
LWPOLYLINE
  5
20248
100
AcDbEntity
  8
0
100
AcDbPolyline
 70
0
 90
2
 38
0
 10
8845.4098482116
 20
2422.99098742991
 10
8958.49615245481
 20
2501.49708007022
  0
LWPOLYLINE
  5
20249
100
AcDbEntity
  8
0
100
AcDbPolyline
 70
0
 90
2
 38
0
 10
8841.43390561437
 20
2385.45949719955
 10
9006.59901647403
 20
2292.61389960671
  0
LWPOLYLINE
  5
2024A
100
AcDbEntity
  8
0
100
AcDbPolyline
 70
0
 90
2
 38
0
 10
8889.0949833499
 20
2348.32125816242
 10
8911.8763132829
 20
2395.34307733834
  0
LWPOLYLINE
  5
2024B
100
AcDbEntity
  8
0
100
AcDbPolyline
 70
0
 90
2
 38
0
 10
8851.02607978505
 20
2429.78577589232
 10
8953.84212551313
 20
2358.8038586807
  0
LWPOLYLINE
  5
2024C
100
AcDbEntity
  8
0
100
AcDbPolyline
 70
0
 90
2
 38
0
 10
8868.4118033748
 20
2445.95891634208
 10
8971.22784910287
 20
2376.47444763002
  0
LWPOLYLINE
  5
2024D
100
AcDbEntity
  8
0
100
AcDbPolyline
 70
0
 90
2
 38
0
 10
8878.6035637813
 20
2394.74405695884
 10
8904.38255698176
 20
2425.89224587476
  0
LWPOLYLINE
  5
2024E
100
AcDbEntity
  8
0
100
AcDbPolyline
 70
0
 90
2
 38
0
 10
8890.91812201601
 20
2426.90234360551
 10
8929.58647786087
 20
2465.83759255655
  0
LWPOLYLINE
  5
2024F
100
AcDbEntity
  8
0
100
AcDbPolyline
 70
0
 90
2
 38
0
 10
8900.51029618669
 20
2458.35004271117
 10
8999.42943324943
 20
2384.97204398155
  0
LWPOLYLINE
  5
20250
100
AcDbEntity
  8
0
100
AcDbPolyline
 70
0
 90
2
 38
0
 10
8936.18112271992
 20
2393.05861420643
 10
8952.96739402969
 20
2424.80582350185
  0
LWPOLYLINE
  5
20251
100
AcDbEntity
  8
0
100
AcDbPolyline
 70
0
 90
2
 38
0
 10
8962.25977508246
 20
2404.43969406937
 10
9018.6137815908
 20
2472.12710164293
  0
LWPOLYLINE
  5
20252
100
AcDbEntity
  8
0
100
AcDbPolyline
 70
0
 90
2
 38
0
 10
8943.52538432958
 20
2373.13404075747
 10
8924.26749424479
 20
2312.52284955508
  0
LWPOLYLINE
  5
20253
100
AcDbEntity
  8
0
100
AcDbPolyline
 70
0
 90
2
 38
0
 10
8846.27292553897
 20
2325.51099854459
 10
8921.37873705637
 20
2304.82620092494
  0
LWPOLYLINE
  5
20254
100
AcDbEntity
  8
0
100
AcDbPolyline
 70
0
 90
2
 38
0
 10
8895.86202934515
 20
2325.0299484006
 10
8858.30912358643
 20
2263.45670813481
  0
LWPOLYLINE
  5
20255
100
AcDbEntity
  8
0
100
AcDbPolyline
 70
0
 90
2
 38
0
 10
8902.0002867365
 20
2204.37088283466
 10
9010.25815356461
 20
2137.24971190168
  0
LWPOLYLINE
  5
20256
100
AcDbEntity
  8
0
100
AcDbPolyline
 70
0
 90
2
 38
0
 10
8773.44396103901
 20
2191.33294354167
 10
8792.29248214778
 20
2230.92960442534
  0
LWPOLYLINE
  5
20257
100
AcDbEntity
  8
0
100
AcDbPolyline
 70
0
 90
2
 38
0
 10
8774.89389879964
 20
2226.10071335684
 10
8866.23649486643
 20
2191.81583777099
  0
LWPOLYLINE
  5
20258
100
AcDbEntity
  8
0
100
AcDbPolyline
 70
0
 90
2
 38
0
 10
8846.42148253976
 20
2188.43562939041
 10
8854.63739464907
 20
2229.48092173741
  0
LWPOLYLINE
  5
20259
100
AcDbEntity
  8
0
100
AcDbPolyline
 70
0
 90
2
 38
0
 10
8698.25549878267
 20
2247.6275920453
 10
8784.94313021709
 20
2192.1555080409
  0
LWPOLYLINE
  5
2025A
100
AcDbEntity
  8
0
100
AcDbPolyline
 70
0
 90
2
 38
0
 10
8642.29157161273
 20
2586.35937621578
 10
8780.72178056356
 20
2521.87883300328
  0
LWPOLYLINE
  5
2025B
100
AcDbEntity
  8
0
100
AcDbPolyline
 70
0
 90
2
 38
0
 10
8748.20293439867
 20
2565.59051904056
 10
8726.03445232732
 20
2438.59830103581
  0
LWPOLYLINE
  5
2025C
100
AcDbEntity
  8
0
100
AcDbPolyline
 70
0
 90
2
 38
0
 10
8710.27012994364
 20
2456.81033392316
 10
8836.38457505743
 20
2388.39205387015
  0
LWPOLYLINE
  5
2025D
100
AcDbEntity
  8
0
100
AcDbPolyline
 70
0
 90
2
 38
0
 10
8733.42399100304
 20
2322.92707644752
 10
8853.13400851758
 20
2534.58079019697
  0
LWPOLYLINE
  5
2025E
100
AcDbEntity
  8
0
100
AcDbPolyline
 70
0
 90
2
 38
0
 10
8800.91481620513
 20
2577.40372956208
 10
8897.96379611009
 20
2469.6080298794
  0
LWPOLYLINE
  5
2025F
100
AcDbEntity
  8
0
100
AcDbPolyline
 70
0
 90
2
 38
0
 10
8376.75376912268
 20
2725.70491684069
 10
8814.70556754051
 20
2568.68740420247
  0
LWPOLYLINE
  5
20260
100
AcDbEntity
  8
0
100
AcDbPolyline
 70
0
 90
2
 38
0
 10
8800.91173522137
 20
2563.76523315184
 10
8816.18350206682
 20
2590.34495682527
  0
LWPOLYLINE
  5
20261
100
AcDbEntity
  8
0
100
AcDbPolyline
 70
0
 90
2
 38
0
 10
7954.71819898472
 20
2881.00430543676
 10
8402.81152437779
 20
2720.87853577719
  0
LWPOLYLINE
  5
20262
100
AcDbEntity
  8
0
100
AcDbPolyline
 70
0
 90
2
 38
0
 10
8964.46656320777
 20
2491.16543842473
 10
8996.85145355589
 20
2523.01735078631
  0
LWPOLYLINE
  5
20263
100
AcDbEntity
  8
0
100
AcDbPolyline
 70
0
 90
2
 38
0
 10
8975.59882740374
 20
2522.00617733913
 10
9031.26041629526
 20
2484.08722429447
  0
LWPOLYLINE
  5
20264
100
AcDbEntity
  8
0
100
AcDbPolyline
 70
0
 90
2
 38
0
 10
9013.04389872996
 20
2485.09839774165
 10
9082.36777532857
 20
2551.83579403094
  0
LWPOLYLINE
  5
20265
100
AcDbEntity
  8
0
100
AcDbPolyline
 70
0
 90
2
 38
0
 10
9022.65817561041
 20
2587.22686468224
 10
9118.80081045919
 20
2491.16543842473
  0
LWPOLYLINE
  5
20266
100
AcDbEntity
  8
0
100
AcDbPolyline
 70
0
 90
2
 38
0
 10
9022.15209053468
 20
2540.20729938837
 10
9085.40388391542
 20
2609.4726805202
  0
LWPOLYLINE
  5
20267
100
AcDbEntity
  8
0
100
AcDbPolyline
 70
0
 90
2
 38
0
 10
9036.32046331754
 20
2638.29107254024
 10
9087.42795630667
 20
2589.75479830019
  0
LWPOLYLINE
  5
20268
100
AcDbEntity
  8
0
100
AcDbPolyline
 70
0
 90
2
 38
0
 10
8924.9974194903
 20
2556.89166126684
 10
8995.83941736029
 20
2619.584414992
  0
LWPOLYLINE
  5
20269
100
AcDbEntity
  8
0
100
AcDbPolyline
 70
0
 90
2
 38
0
 10
8967.50253783879
 20
2608.46150707302
 10
9050.48883610035
 20
2601.38329294277
  0
LWPOLYLINE
  5
2026A
100
AcDbEntity
  8
0
100
AcDbPolyline
 70
0
 90
2
 38
0
 10
9027.21227151278
 20
2569.025742633
 10
9035.81451219762
 20
2617.56206809764
  0
LWPOLYLINE
  5
2026B
100
AcDbEntity
  8
0
100
AcDbPolyline
 70
0
 90
2
 38
0
 10
9257.80461821737
 20
2772.98798143609
 10
9340.01611603479
 20
2704.81004716901
  0
LWPOLYLINE
  5
2026C
100
AcDbEntity
  8
0
100
AcDbPolyline
 70
0
 90
2
 38
0
 10
9151.7516641331
 20
2626.77501587723
 10
9272.6027172948
 20
2534.77590466811
  0
LWPOLYLINE
  5
2026D
100
AcDbEntity
  8
0
100
AcDbPolyline
 70
0
 90
2
 38
0
 10
9133.6652176659
 20
2458.38374849274
 10
9242.1844322925
 20
2604.59666282701
  0
LWPOLYLINE
  5
2026E
100
AcDbEntity
  8
0
100
AcDbPolyline
 70
0
 90
2
 38
0
 10
9144.03339788306
 20
2585.41540943337
 10
9219.11027494405
 20
2530.77198565466
  0
LWPOLYLINE
  5
2026F
100
AcDbEntity
  8
0
100
AcDbPolyline
 70
0
 90
2
 38
0
 10
9167.68195777378
 20
2513.21716428339
 10
9240.17000472007
 20
2474.74042665584
  0
LWPOLYLINE
  5
20270
100
AcDbEntity
  8
0
100
AcDbPolyline
 70
0
 90
2
 38
0
 10
9198.10104651094
 20
2446.9337203289
 10
9261.85169135331
 20
2558.80725611136
  0
LWPOLYLINE
  5
20271
100
AcDbEntity
  8
0
100
AcDbPolyline
 70
0
 90
2
 38
0
 10
9229.94971172459
 20
2517.02822270775
 10
9300.63672271455
 20
2465.61568762377
  0
LWPOLYLINE
  5
20272
100
AcDbEntity
  8
0
100
AcDbPolyline
 70
0
 90
2
 38
0
 10
9281.92537236216
 20
2390.31451281
 10
9450.35445065299
 20
2645.45493418842
  0
LWPOLYLINE
  5
20273
100
AcDbEntity
  8
0
100
AcDbPolyline
 70
0
 90
2
 38
0
 10
9237.76804296975
 20
2321.77155209993
 10
9287.66484328703
 20
2425.63525209641
  0
LWPOLYLINE
  5
20274
100
AcDbEntity
  8
0
100
AcDbPolyline
 70
0
 90
2
 38
0
 10
9103.670634912
 20
2457.83298167896
 10
9218.01732943512
 20
2422.51936261084
  0
LWPOLYLINE
  5
20275
100
AcDbEntity
  8
0
100
AcDbPolyline
 70
0
 90
2
 38
0
 10
9209.18133585004
 20
2440.17617214491
 10
9177.99588588518
 20
2356.56590747838
  0
LWPOLYLINE
  5
20276
100
AcDbEntity
  8
0
100
AcDbPolyline
 70
0
 90
2
 38
0
 10
9186.31199694541
 20
2421.48073278233
 10
9285.06596648609
 20
2380.97386212242
  0
LWPOLYLINE
  5
20277
100
AcDbEntity
  8
0
100
AcDbPolyline
 70
0
 90
2
 38
0
 10
9247.12365116805
 20
2375.78066175522
 10
9377.59500922193
 20
2309.73049459294
  0
LWPOLYLINE
  5
20278
100
AcDbEntity
  8
0
100
AcDbPolyline
 70
0
 90
2
 38
0
 10
9332.37607998174
 20
2258.83727442323
 10
9382.27288029899
 20
2346.60210962843
  0
LWPOLYLINE
  5
20279
100
AcDbEntity
  8
0
100
AcDbPolyline
 70
0
 90
2
 38
0
 10
9291.31527324955
 20
2289.99637417725
 10
9336.53420248974
 20
2378.28052429672
  0
LWPOLYLINE
  5
2027A
100
AcDbEntity
  8
0
100
AcDbPolyline
 70
0
 90
2
 38
0
 10
9333.41571107559
 20
2327.90661904126
 10
9383.83212600607
 20
2418.26808004237
  0
LWPOLYLINE
  5
2027B
100
AcDbEntity
  8
0
100
AcDbPolyline
 70
0
 90
2
 38
0
 10
9341.73182213583
 20
2383.47372466392
 10
9427.49180953921
 20
2333.61913432273
  0
LWPOLYLINE
  5
2027C
100
AcDbEntity
  8
0
100
AcDbPolyline
 70
0
 90
2
 38
0
 10
9432.37744608807
 20
2268.72131558334
 10
9566.31156200517
 20
2454.20720260407
  0
LWPOLYLINE
  5
2027D
100
AcDbEntity
  8
0
100
AcDbPolyline
 70
0
 90
2
 38
0
 10
9460.35103743448
 20
2457.59509467345
 10
9584.96062290278
 20
2361.04078539118
  0
LWPOLYLINE
  5
2027E
100
AcDbEntity
  8
0
100
AcDbPolyline
 70
0
 90
2
 38
0
 10
9283.84924580244
 20
2323.51841313822
 10
9156.45619241771
 20
2022.50539630665
  0
LWPOLYLINE
  5
2027F
100
AcDbEntity
  8
0
100
AcDbPolyline
 70
0
 90
2
 38
0
 10
9200.93916840063
 20
2361.01133125075
 10
9118.85291927188
 20
2193.20043849425
  0
LWPOLYLINE
  5
20280
100
AcDbEntity
  8
0
100
AcDbPolyline
 70
0
 90
2
 38
0
 10
8972.78374591455
 20
2151.30200056655
 10
9082.30227093419
 20
2126.15436281323
  0
LWPOLYLINE
  5
20281
100
AcDbEntity
  8
0
100
AcDbPolyline
 70
0
 90
2
 38
0
 10
8549.06515489481
 20
2031.34174088544
 10
8614.82339556294
 20
2106.98253474453
  0
LWPOLYLINE
  5
20282
100
AcDbEntity
  8
0
100
AcDbPolyline
 70
0
 90
2
 38
0
 10
8640.70285562598
 20
1947.23101195453
 10
8698.12663328694
 20
1999.73806289696
  0
LWPOLYLINE
  5
20283
100
AcDbEntity
  8
0
100
AcDbPolyline
 70
0
 90
2
 38
0
 10
8831.4647797753
 20
1895.76361533246
 10
8885.68500407849
 20
1790.20709624231
  0
LWPOLYLINE
  5
20284
100
AcDbEntity
  8
0
100
AcDbPolyline
 70
0
 90
2
 38
0
 10
8810.78280540253
 20
1975.07060446957
 10
8900.77727012951
 20
1850.52512910436
  0
LWPOLYLINE
  5
20285
100
AcDbEntity
  8
0
100
AcDbPolyline
 70
0
 90
2
 38
0
 10
8909.72083023543
 20
1964.45912287767
 10
8947.73092719674
 20
1920.89609060653
  0
LWPOLYLINE
  5
20286
100
AcDbEntity
  8
0
100
AcDbPolyline
 70
0
 90
2
 38
0
 10
8907.51323837525
 20
2074.69393273568
 10
8975.70786743858
 20
2000.9719608704
  0
LWPOLYLINE
  5
20287
100
AcDbEntity
  8
0
100
AcDbPolyline
 70
0
 90
2
 38
0
 10
8894.09796519423
 20
2051.23696264315
 10
8961.1745990109
 20
1960.75993896237
  0
LWPOLYLINE
  5
20288
100
AcDbEntity
  8
0
100
AcDbPolyline
 70
0
 90
2
 38
0
 10
8872.19806453551
 20
2136.62897229516
 10
8906.70561875601
 20
2185.79208186819
  0
LWPOLYLINE
  5
20289
100
AcDbEntity
  8
0
100
AcDbPolyline
 70
0
 90
2
 38
0
 10
8958.74048786456
 20
2081.72420064778
 10
8975.70331294081
 20
2104.32223678071
  0
LWPOLYLINE
  5
2028A
100
AcDbEntity
  8
0
100
AcDbPolyline
 70
0
 90
2
 38
0
 10
8962.69848038236
 20
2104.88719280649
 10
9020.93764709995
 20
2074.37982353719
  0
LWPOLYLINE
  5
2028B
100
AcDbEntity
  8
0
100
AcDbPolyline
 70
0
 90
2
 38
0
 10
9006.23639807806
 20
2090.76339461111
 10
9009.06353559077
 20
2036.52807715731
  0
LWPOLYLINE
  5
2028C
100
AcDbEntity
  8
0
100
AcDbPolyline
 70
0
 90
2
 38
0
 10
8993.23156551961
 20
2055.17147233436
 10
9047.51273971942
 20
2047.82709522378
  0
LWPOLYLINE
  5
2028D
100
AcDbEntity
  8
0
100
AcDbPolyline
 70
0
 90
2
 38
0
 10
8971.19342245799
 20
1979.34575769795
 10
9094.45701987948
 20
1946.57856432551
  0
LWPOLYLINE
  5
2028E
100
AcDbEntity
  8
0
100
AcDbPolyline
 70
0
 90
2
 38
0
 10
8970.62799495543
 20
1956.74772156501
 10
9036.78328066441
 20
1934.14963420748
  0
LWPOLYLINE
  5
2028F
100
AcDbEntity
  8
0
100
AcDbPolyline
 70
0
 90
2
 38
0
 10
8993.24844395253
 20
1886.0630094365
 10
9092.76381835565
 20
1887.75787751385
  0
LWPOLYLINE
  5
20290
100
AcDbEntity
  8
0
100
AcDbPolyline
 70
0
 90
2
 38
0
 10
8992.68301644997
 20
1854.99068414141
 10
9056.57645819298
 20
1838.04215704171
  0
LWPOLYLINE
  5
20291
100
AcDbEntity
  8
0
100
AcDbPolyline
 70
0
 90
2
 38
0
 10
9040.17892666347
 20
1853.29586728866
 10
9038.48264415582
 20
1801.32032271339
  0
LWPOLYLINE
  5
20292
100
AcDbEntity
  8
0
100
AcDbPolyline
 70
0
 90
2
 38
0
 10
9023.78152908976
 20
1815.44412090877
 10
9117.64276242329
 20
1814.31420885721
  0
LWPOLYLINE
  5
20293
100
AcDbEntity
  8
0
100
AcDbPolyline
 70
0
 90
2
 38
0
 10
9102.94164735722
 20
1734.65607514156
 10
9209.24228574664
 20
1959.50667809313
  0
LWPOLYLINE
  5
20294
100
AcDbEntity
  8
0
100
AcDbPolyline
 70
0
 90
2
 38
0
 10
8903.91063063932
 20
1844.25662210073
 10
8990.421172484
 20
1843.12671004916
  0
LWPOLYLINE
  5
20295
100
AcDbEntity
  8
0
100
AcDbPolyline
 70
0
 90
2
 38
0
 10
8976.85091242299
 20
1848.21131428121
 10
8979.11262243317
 20
1801.88527873917
  0
LWPOLYLINE
  5
20296
100
AcDbEntity
  8
0
100
AcDbPolyline
 70
0
 90
2
 38
0
 10
8943.49068977305
 20
1904.70640461355
 10
8935.57457078164
 20
1732.39630226302
  0
LWPOLYLINE
  5
20297
100
AcDbEntity
  8
0
100
AcDbPolyline
 70
0
 90
2
 38
0
 10
9039.64511273368
 20
2238.92852937322
 10
9113.20587786057
 20
2218.05855485328
  0
LWPOLYLINE
  5
20298
100
AcDbEntity
  8
0
100
AcDbPolyline
 70
0
 90
2
 38
0
 10
9046.00225392962
 20
2288.83490777698
 10
9136.81786781331
 20
2292.46447747168
  0
LWPOLYLINE
  5
20299
100
AcDbEntity
  8
0
100
AcDbPolyline
 70
0
 90
2
 38
0
 10
9082.38840452436
 20
2419.04428628579
 10
9059.50995662421
 20
2374.0404599139
  0
LWPOLYLINE
  5
2029A
100
AcDbEntity
  8
0
100
AcDbPolyline
 70
0
 90
2
 38
0
 10
9074.1664644033
 20
2362.61092158687
 10
9132.43496744477
 20
2353.68160437349
  0
LWPOLYLINE
  5
2029B
100
AcDbEntity
  8
0
100
AcDbPolyline
 70
0
 90
2
 38
0
 10
9072.37909194027
 20
2338.3231398358
 10
9123.14057705473
 20
2336.53729688295
  0
LWPOLYLINE
  5
2029C
100
AcDbEntity
  8
0
100
AcDbPolyline
 70
0
 90
2
 38
0
 10
9048.13228537192
 20
2183.41649018702
 10
9152.59679138105
 20
2153.90318535115
  0
LWPOLYLINE
  5
2029D
100
AcDbEntity
  8
0
100
AcDbPolyline
 70
0
 90
2
 38
0
 10
9023.07558193544
 20
2095.21962677241
 10
9071.71641251477
 20
2087.24057696626
  0
LWPOLYLINE
  5
2029E
100
AcDbEntity
  8
0
100
AcDbPolyline
 70
0
 90
2
 38
0
 10
9035.41733320092
 20
2070.9197560176
 10
9120.3572430941
 20
2060.40191297998
  0
LWPOLYLINE
  5
2029F
100
AcDbEntity
  8
0
100
AcDbPolyline
 70
0
 90
2
 38
0
 10
9078.25024143304
 20
2050.24674005412
 10
9136.69194934558
 20
2180.4505350824
  0
LWPOLYLINE
  5
202A0
100
AcDbEntity
  8
0
100
AcDbPolyline
 70
0
 90
2
 38
0
 10
9324.42660599196
 20
1998.12822764243
 10
9537.5702698729
 20
2307.35690067086
  0
LWPOLYLINE
  5
202A1
100
AcDbEntity
  8
0
100
AcDbPolyline
 70
0
 90
2
 38
0
 10
9498.68423582581
 20
2303.43596549655
 10
9613.0642853473
 20
2210.0945138526
  0
LWPOLYLINE
  5
202A2
100
AcDbEntity
  8
0
100
AcDbPolyline
 70
0
 90
2
 38
0
 10
9592.10462056639
 20
2247.79012767589
 10
9513.65553977431
 20
2099.99949590631
  0
LWPOLYLINE
  5
202A3
100
AcDbEntity
  8
0
100
AcDbPolyline
 70
0
 90
2
 38
0
 10
9422.03163649229
 20
2161.6287758758
 10
9542.99909725873
 20
2096.40942037209
  0
LWPOLYLINE
  5
202A4
100
AcDbEntity
  8
0
100
AcDbPolyline
 70
0
 90
2
 38
0
 10
9802.89079602819
 20
2635.76278035015
 10
10288.4977781257
 20
3438.49757407655
  0
LWPOLYLINE
  5
202A5
100
AcDbEntity
  8
0
100
AcDbPolyline
 70
0
 90
2
 38
0
 10
7490.24060368797
 20
2183.29047769056
 10
7636.51848020783
 20
2065.34139794274
  0
LWPOLYLINE
  5
202A6
100
AcDbEntity
  8
0
100
AcDbPolyline
 70
0
 90
2
 38
0
 10
7259.24960447269
 20
2189.51723665166
 10
7430.5486861376
 20
2046.56809720023
  0
LWPOLYLINE
  5
202A7
100
AcDbEntity
  8
0
100
AcDbPolyline
 70
0
 90
2
 38
0
 10
7401.03647827989
 20
2060.6706884145
 10
7641.62514385433
 20
1948.49082957155
  0
LWPOLYLINE
  5
202A8
100
AcDbEntity
  8
0
100
AcDbPolyline
 70
0
 90
2
 38
0
 10
7601.84790175833
 20
1975.41401413471
 10
7724.38773590189
 20
1856.82385861731
  0
LWPOLYLINE
  5
202A9
100
AcDbEntity
  8
0
100
AcDbPolyline
 70
0
 90
2
 38
0
 10
7173.72537930682
 20
2031.48931893516
 10
7289.08531562789
 20
1885.78460377867
  0
LWPOLYLINE
  5
202AA
100
AcDbEntity
  8
0
100
AcDbPolyline
 70
0
 90
2
 38
0
 10
7251.6531040601
 20
1913.0878235903
 10
7442.93022228067
 20
1807.55604597811
  0
LWPOLYLINE
  5
202AB
100
AcDbEntity
  8
0
100
AcDbPolyline
 70
0
 90
2
 38
0
 10
7436.50704086706
 20
1800.38864983308
 10
7561.44897071677
 20
1705.15265665195
  0
LWPOLYLINE
  5
202AC
100
AcDbEntity
  8
0
100
AcDbPolyline
 70
0
 90
2
 38
0
 10
7387.56079102552
 20
1748.9097276778
 10
7448.74363681642
 20
1686.49153776605
  0
LWPOLYLINE
  5
202AD
100
AcDbEntity
  8
0
100
AcDbPolyline
 70
0
 90
2
 38
0
 10
7233.6373862641
 20
1835.78043762867
 10
7268.415129367
 20
1909.13789529688
  0
LWPOLYLINE
  5
202AE
100
AcDbEntity
  8
0
100
AcDbPolyline
 70
0
 90
2
 38
0
 10
7225.64745761768
 20
1852.27572953787
 10
7315.34949679664
 20
1803.82909833392
  0
LWPOLYLINE
  5
202AF
100
AcDbEntity
  8
0
100
AcDbPolyline
 70
0
 90
2
 38
0
 10
7301.27475912974
 20
2573.39571258127
 10
7483.68453810411
 20
2771.45385612862
  0
LWPOLYLINE
  5
202B0
100
AcDbEntity
  8
0
100
AcDbPolyline
 70
0
 90
2
 38
0
 10
7408.82279408484
 20
2835.71741196917
 10
7491.06536965174
 20
2714.56484868337
  0
LWPOLYLINE
  5
202B1
100
AcDbEntity
  8
0
100
AcDbPolyline
 70
0
 90
2
 38
0
 10
7473.40061609569
 20
2730.86369428202
 10
7592.10127653091
 20
2661.19630255174
  0
LWPOLYLINE
  5
202B2
100
AcDbEntity
  8
0
100
AcDbPolyline
 70
0
 90
2
 38
0
 10
7176.21441233804
 20
2986.18314560968
 10
7426.85860525333
 20
2818.34013503396
  0
LWPOLYLINE
  5
202B3
100
AcDbEntity
  8
0
100
AcDbPolyline
 70
0
 90
2
 38
0
 10
7240.87528695527
 20
2811.01363530601
 10
7387.52877558532
 20
2697.1202114096
  0
LWPOLYLINE
  5
202B4
100
AcDbEntity
  8
0
100
AcDbPolyline
 70
0
 90
2
 38
0
 10
6934.23608912053
 20
2920.24480173186
 10
7295.53702963048
 20
2649.16502894183
  0
ENDSEC
  0
SECTION
  2
OBJECTS
  0
DICTIONARY
  5
C
330
0
100
AcDbDictionary
281
     1
  3
ACAD_GROUP
350
D
  3
ACAD_LAYOUT
350
1A
  3
ACAD_MLEADERSTYLE
350
43
  3
ACAD_PLOTSETTINGS
350
19
  3
ACAD_PLOTSTYLENAME
350
E
  3
ACAD_TABLESTYLE
350
42
  0
DICTIONARY
  5
D
102
{ACAD_REACTORS
330
C
102
}
330
C
100
AcDbDictionary
281
     1
  0
DICTIONARY
  5
1A
102
{ACAD_REACTORS
330
C
102
}
330
C
100
AcDbDictionary
281
     1
  3
Layout1
350
1E
  3
Model
350
22
  0
DICTIONARY
  5
43
102
{ACAD_REACTORS
330
C
102
}
330
C
100
AcDbDictionary
281
     1
  0
DICTIONARY
  5
19
102
{ACAD_REACTORS
330
C
102
}
330
C
100
AcDbDictionary
281
     1
  0
ACDBDICTIONARYWDFLT
  5
E
102
{ACAD_REACTORS
330
C
102
}
330
C
100
AcDbDictionary
281
     1
  3
Normal
350
F
100
AcDbDictionaryWithDefault
340
F
  0
DICTIONARY
  5
42
102
{ACAD_REACTORS
330
C
102
}
330
C
100
AcDbDictionary
281
     1
  0
LAYOUT
  5
1E
102
{ACAD_REACTORS
330
1A
102
}
330
1A
100
AcDbPlotSettings
  1

  2
none_device
  4

  6

 40
0.0
 41
0.0
 42
0.0
 43
0.0
 44
0.0
 45
0.0
 46
0.0
 47
0.0
 48
0.0
 49
0.0
140
0.0
141
0.0
142
1.0
143
1.0
 70
   688
 72
     0
 73
     0
 74
     5
  7

 75
    16
 76
     0
 77
     2
 78
   300
147
1.0
148
0.0
149
0.0
100
AcDbLayout
  1
Layout1
 70
     1
 71
     1
 10
0.0
 20
0.0
 11
12.0
 21
9.0
 12
0.0
 22
0.0
 32
0.0
 14
1.000000000000000E+20
 24
1.000000000000000E+20
 34
1.000000000000000E+20
 15
-1.000000000000000E+20
 25
-1.000000000000000E+20
 35
-1.000000000000000E+20
146
0.0
 13
0.0
 23
0.0
 33
0.0
 16
1.0
 26
0.0
 36
0.0
 17
0.0
 27
1.0
 37
0.0
 76
     0
330
1B
  0
LAYOUT
  5
22
102
{ACAD_REACTORS
330
1A
102
}
330
1A
100
AcDbPlotSettings
  1

  2
none_device
  4

  6

 40
0.0
 41
0.0
 42
0.0
 43
0.0
 44
0.0
 45
0.0
 46
0.0
 47
0.0
 48
0.0
 49
0.0
140
0.0
141
0.0
142
1.0
143
1.0
 70
  1712
 72
     0
 73
     0
 74
     0
  7

 75
     0
 76
     0
 77
     2
 78
   300
147
1.0
148
0.0
149
0.0
100
AcDbLayout
  1
Model
 70
     1
 71
     0
 10
0.0
 20
0.0
 11
12.0
 21
9.0
 12
0.0
 22
0.0
 32
0.0
 14
30.0
 24
49.75
 34
0.0
 15
130.5
 25
163.1318914119703
 35
0.0
146
0.0
 13
0.0
 23
0.0
 33
0.0
 16
1.0
 26
0.0
 36
0.0
 17
0.0
 27
1.0
 37
0.0
 76
     0
330
1F
331
29
  0
ACDBPLACEHOLDER
  5
F
102
{ACAD_REACTORS
330
E
102
}
330
E
  0
ENDSEC
  0
EOF
