  0
SECTION
  2
HEADER
  9
$ACADVER
  1
AC1018
  9
$ACADMAINTVER
 70
     0
  9
$DWGCODEPAGE
  3
ANSI_1252
  9
$EXTMIN
 10
1061.83973305843
 20
19.0078353962599
 30
0.0
  9
$EXTMAX
 10
8858.32632181695
 20
4645.51367839905
 30
0.0
  9
$LIMMIN
 10
0.0
 20
0.0
  9
$LIMMAX
 10
12.0
 20
9.0
  9
$ORTHOMODE
 70
     0
  9
$REGENMODE
 70
     1
  9
$FILLMODE
 70
     1
  9
$QTEXTMODE
 70
     0
  9
$MIRRTEXT
 70
     1
  9
$LTSCALE
 40
1.0
  9
$ATTMODE
 70
     1
  9
$TEXTSIZE
 40
0.2
  9
$TRACEWID
 40
0.05
  9
$TEXTSTYLE
  7
Standard
  9
$CLAYER
  8
0
  9
$CELTYPE
  6
ByLayer
  9
$CECOLOR
 62
   256
  9
$CELTSCALE
 40
1.0
  9
$DISPSILH
 70
     0
  9
$LUNITS
 70
     2
  9
$LUPREC
 70
     4
  9
$SKETCHINC
 40
0.1
  9
$FILLETRAD
 40
0.5
  9
$AUNITS
 70
     0
  9
$AUPREC
 70
     0
  9
$MENU
  1
.
  9
$ELEVATION
 40
0.0
  9
$PELEVATION
 40
0.0
  9
$THICKNESS
 40
0.0
  9
$LIMCHECK
 70
     0
  9
$CHAMFERA
 40
0.5
  9
$CHAMFERB
 40
0.5
  9
$CHAMFERC
 40
1.0
  9
$CHAMFERD
 40
0.0
  9
$SKPOLY
 70
     0
  9
$ANGBASE
 50
0.0
  9
$ANGDIR
 70
     0
  9
$PDMODE
 70
     0
  9
$PDSIZE
 40
0.0
  9
$PLINEWID
 40
0.0
  9
$SPLFRAME
 70
     0
  9
$SPLINETYPE
 70
     6
  9
$SPLINESEGS
 70
     8
  9
$HANDSEED
  5
000202AD
  9
$SURFTAB1
 70
     6
  9
$SURFTAB2
 70
     6
  9
$SURFTYPE
 70
     6
  9
$SURFU
 70
     6
  9
$SURFV
 70
     6
  9
$UCSBASE
  2

  9
$UCSNAME
  2

  9
$UCSORG
 10
0.0
 20
0.0
 30
0.0
  9
$UCSXDIR
 10
1.0
 20
0.0
 30
0.0
  9
$UCSYDIR
 10
0.0
 20
1.0
 30
0.0
  9
$UCSORTHOREF
  2

  9
$UCSORTHOVIEW
 70
     0
  9
$UCSORGTOP
 10
0.0
 20
0.0
 30
0.0
  9
$UCSORGBOTTOM
 10
0.0
 20
0.0
 30
0.0
  9
$UCSORGLEFT
 10
0.0
 20
0.0
 30
0.0
  9
$UCSORGRIGHT
 10
0.0
 20
0.0
 30
0.0
  9
$UCSORGFRONT
 10
0.0
 20
0.0
 30
0.0
  9
$UCSORGBACK
 10
0.0
 20
0.0
 30
0.0
  9
$PUCSBASE
  2

  9
$PUCSNAME
  2

  9
$PUCSORG
 10
0.0
 20
0.0
 30
0.0
  9
$PUCSXDIR
 10
1.0
 20
0.0
 30
0.0
  9
$PUCSYDIR
 10
0.0
 20
1.0
 30
0.0
  9
$PUCSORTHOREF
  2

  9
$PUCSORTHOVIEW
 70
     0
  9
$PUCSORGTOP
 10
0.0
 20
0.0
 30
0.0
  9
$PUCSORGBOTTOM
 10
0.0
 20
0.0
 30
0.0
  9
$PUCSORGLEFT
 10
0.0
 20
0.0
 30
0.0
  9
$PUCSORGRIGHT
 10
0.0
 20
0.0
 30
0.0
  9
$PUCSORGFRONT
 10
0.0
 20
0.0
 30
0.0
  9
$PUCSORGBACK
 10
0.0
 20
0.0
 30
0.0
  9
$WORLDVIEW
 70
     1
  9
$SHADEDGE
 70
     3
  9
$SHADEDIF
 70
    70
  9
$TILEMODE
 70
     1
  9
$MAXACTVP
 70
    64
  9
$PINSBASE
 10
0.0
 20
0.0
 30
0.0
  9
$PLIMCHECK
 70
     0
  9
$PEXTMIN
 10
1.000000000000000E+20
 20
1.000000000000000E+20
 30
1.000000000000000E+20
  9
$PEXTMAX
 10
-1.000000000000000E+20
 20
-1.000000000000000E+20
 30
-1.000000000000000E+20
  9
$PLIMMIN
 10
0.0
 20
0.0
  9
$PLIMMAX
 10
12.0
 20
9.0
  9
$UNITMODE
 70
     0
  9
$VISRETAIN
 70
     1
  9
$PLINEGEN
 70
     0
  9
$PSLTSCALE
 70
     1
  9
$TREEDEPTH
 70
  3020
  9
$CMLSTYLE
  2
Standard
  9
$CMLJUST
 70
     0
  9
$CMLSCALE
 40
1.0
  9
$PROXYGRAPHICS
 70
     1
  9
$MEASUREMENT
 70
     0
  9
$CELWEIGHT
370
    -1
  9
$ENDCAPS
280
     0
  9
$JOINSTYLE
280
     0
  9
$LWDISPLAY
290
     0
  9
$INSUNITS
 70
     1
  9
$HYPERLINKBASE
  1

  9
$STYLESHEET
  1

  9
$XEDIT
290
     1
  9
$CEPSNTYPE
380
     0
  9
$PSTYLEMODE
290
     1
  9
$EXTNAMES
290
     1
  9
$PSVPSCALE
 40
0.0
  9
$OLESTARTUP
290
     0
  9
$SORTENTS
280
   127
  9
$INDEXCTL
280
     0
  9
$HIDETEXT
280
     1
  9
$XCLIPFRAME
290
     0
  9
$HALOGAP
280
     0
  9
$OBSCOLOR
 70
   257
  9
$OBSLTYPE
280
     0
  9
$INTERSECTIONDISPLAY
280
     0
  9
$INTERSECTIONCOLOR
 70
   257
  9
$DIMASSOC
280
     2
  9
$PROJECTNAME
  1

  0
ENDSEC
  0
SECTION
  2
CLASSES
  0
CLASS
  1
ACDBDICTIONARYWDFLT
  2
AcDbDictionaryWithDefault
  3
ObjectDBX Classes
 90
        0
 91
        4
280
     0
281
     0
  0
ENDSEC
  0
SECTION
  2
TABLES
  0
TABLE
  2
VPORT
  5
8
330
0
100
AcDbSymbolTable
 70
     1
  0
VPORT
  5
29
330
8
100
AcDbSymbolTableRecord
100
AcDbViewportTableRecord
  2
*Active
 70
     0
 10
0.0
 20
0.0
 11
1.0
 21
1.0
 12
80.25
 22
106.4409457059851
 13
0.0
 23
0.0
 14
0.5
 24
0.5
 15
0.5
 25
0.5
 16
0.0
 26
0.0
 36
1.0
 17
0.0
 27
0.0
 37
0.0
 40
113.3818914119703
 41
0.8863849310366128
 42
50.0
 43
0.0
 44
0.0
 50
0.0
 51
0.0
 71
     0
 72
  1000
 73
     1
 74
     3
 75
     0
 76
     0
 77
     0
 78
     0
281
     0
 65
     1
110
0.0
120
0.0
130
0.0
111
1.0
121
0.0
131
0.0
112
0.0
122
1.0
132
0.0
 79
     0
146
0.0
  0
ENDTAB
  0
TABLE
  2
LTYPE
  5
5
330
0
100
AcDbSymbolTable
 70
     1
  0
LTYPE
  5
14
330
5
100
AcDbSymbolTableRecord
100
AcDbLinetypeTableRecord
  2
ByBlock
 70
     0
  3

 72
    65
 73
     0
 40
0.0
  0
LTYPE
  5
15
330
5
100
AcDbSymbolTableRecord
100
AcDbLinetypeTableRecord
  2
ByLayer
 70
     0
  3

 72
    65
 73
     0
 40
0.0
  0
LTYPE
  5
16
330
5
100
AcDbSymbolTableRecord
100
AcDbLinetypeTableRecord
  2
Continuous
 70
     0
  3
Solid line
 72
    65
 73
     0
 40
0.0
  0
ENDTAB
  0
TABLE
  2
LAYER
  5
2
330
0
100
AcDbSymbolTable
 70
     1
  0
LAYER
  5
10
330
2
100
AcDbSymbolTableRecord
100
AcDbLayerTableRecord
  2
0
 70
     0
 62
     7
  6
Continuous
370
    -3
390
F
  0
ENDTAB
  0
TABLE
  2
STYLE
  5
3
330
0
100
AcDbSymbolTable
 70
     1
  0
STYLE
  5
11
330
3
100
AcDbSymbolTableRecord
100
AcDbTextStyleTableRecord
  2
Standard
 70
     0
 40
0.0
 41
1.0
 50
0.0
 71
     0
 42
0.2
  3
txt
  4

  0
ENDTAB
  0
TABLE
  2
VIEW
  5
6
330
0
100
AcDbSymbolTable
 70
     0
  0
ENDTAB
  0
TABLE
  2
UCS
  5
7
330
0
100
AcDbSymbolTable
 70
     0
  0
ENDTAB
  0
TABLE
  2
APPID
  5
9
330
0
100
AcDbSymbolTable
 70
     1
  0
APPID
  5
12
330
9
100
AcDbSymbolTableRecord
100
AcDbRegAppTableRecord
  2
ACAD
 70
     0
  0
ENDTAB
  0
TABLE
  2
DIMSTYLE
  5
A
330
0
100
AcDbSymbolTable
 70
     1
100
AcDbDimStyleTable
  0
DIMSTYLE
105
27
330
A
100
AcDbSymbolTableRecord
100
AcDbDimStyleTableRecord
  2
Standard
 70
     0
340
11
  0
ENDTAB
  0
TABLE
  2
BLOCK_RECORD
  5
1
330
0
100
AcDbSymbolTable
 70
     1
  0
BLOCK_RECORD
  5
1F
330
1
100
AcDbSymbolTableRecord
100
AcDbBlockTableRecord
  2
*Model_Space
340
22
  0
BLOCK_RECORD
  5
1B
330
1
100
AcDbSymbolTableRecord
100
AcDbBlockTableRecord
  2
*Paper_Space
340
1E
  0
ENDTAB
  0
ENDSEC
  0
SECTION
  2
BLOCKS
  0
BLOCK
  5
20
330
1F
100
AcDbEntity
  8
0
100
AcDbBlockBegin
  2
*Model_Space
 70
     0
 10
0.0
 20
0.0
 30
0.0
  3
*Model_Space
  1

  0
ENDBLK
  5
21
330
1F
100
AcDbEntity
  8
0
100
AcDbBlockEnd
  0
BLOCK
  5
1C
330
1B
100
AcDbEntity
 67
     1
  8
0
100
AcDbBlockBegin
  2
*Paper_Space
 70
     0
 10
0.0
 20
0.0
 30
0.0
  3
*Paper_Space
  1

  0
ENDBLK
  5
1D
330
1B
100
AcDbEntity
 67
     1
  8
0
100
AcDbBlockEnd
  0
ENDSEC
  0
SECTION
  2
ENTITIES
  0
LWPOLYLINE
  5
20000
100
AcDbEntity
  8
0
100
AcDbPolyline
 70
0
 90
8
 38
-1.79769313486232e+308
 10
4883.01030284385
 20
2397.55604314559
 10
4885.1576558243
 20
2628.76205925305
 10
4885.16433499413
 20
2710.61458596994
 10
4885.16878777402
 20
2770.96064406807
 10
4890.94181656311
 20
2946.82089615321
 10
4898.40912800314
 20
3231.39138882083
 10
4900.69117756406
 20
3318.20495829905
 10
4908.08390495399
 20
3489.49518496391
  0
LWPOLYLINE
  5
20001
100
AcDbEntity
  8
0
100
AcDbPolyline
 70
0
 90
11
 38
-1.79769313486232e+308
 10
3940.92681060391
 20
3016.7842056452
 10
3971.9359679542
 20
3021.01731635338
 10
4088.56985124419
 20
3031.99440454912
 10
4189.96520942482
 20
3030.82508585869
 10
4220.74170904266
 20
3030.51171364995
 10
4455.56460890392
 20
3021.03156053309
 10
4574.74882171335
 20
2965.47679074003
 10
4628.21000717426
 20
2953.37577174312
 10
4697.99842233429
 20
2945.07534708815
 10
4890.94181656311
 20
2946.82089615321
 10
5302.64359492282
 20
2963.70016099873
  0
LWPOLYLINE
  5
20002
100
AcDbEntity
  8
0
100
AcDbPolyline
 70
0
 90
2
 38
0
 10
4189.96520942482
 20
3030.82508585869
 10
4159.94456915403
 20
3494.37982816004
  0
LWPOLYLINE
  5
20003
100
AcDbEntity
  8
0
100
AcDbPolyline
 70
0
 90
13
 38
-1.79769313486232e+308
 10
4496.90087541411
 20
1721.57799996842
 10
4517.97588141295
 20
1860.17058011877
 10
4527.43692493284
 20
1922.35633988713
 10
4559.09396173278
 20
2130.58578594529
 10
4567.57984651285
 20
2218.12846702372
 10
4559.76855784314
 20
2394.24249472084
 10
4556.76404478247
 20
2443.60785349586
 10
4557.72695838319
 20
2712.50513032579
 10
4556.52359468336
 20
2801.55009371076
 10
4574.74882171335
 20
2965.47679074003
 10
4598.15485785375
 20
3246.76112790021
 10
4602.298169304
 20
3303.16275481076
 10
4615.9849006928
 20
3489.18439118831
  0
LWPOLYLINE
  5
20004
100
AcDbEntity
  8
0
100
AcDbPolyline
 70
0
 90
18
 38
-1.79769313486232e+308
 10
3604.91894639315
 20
2532.56155287509
 10
3725.73732933248
 20
2538.69537645519
 10
3810.54051742362
 20
2538.055707991
 10
3830.88415436292
 20
2543.71172502019
 10
3889.87235253336
 20
2549.3211290551
 10
3955.07551787267
 20
2543.23132603696
 10
3998.3821393832
 20
2548.62837011029
 10
4046.71706228363
 20
2562.70886507385
 10
4096.41787533308
 20
2585.46507102704
 10
4100.06024908306
 20
2614.74882373388
 10
4127.87342385421
 20
2622.46115137159
 10
4155.23241510274
 20
2635.66768183594
 10
4222.71317722122
 20
2662.518456919
 10
4248.70627833376
 20
2675.72761953377
 10
4306.15492794322
 20
2704.88079977349
 10
4362.4247041441
 20
2713.54104516084
 10
4557.72695838319
 20
2712.50513032579
 10
4885.16433499413
 20
2710.61458596994
  0
LWPOLYLINE
  5
20005
100
AcDbEntity
  8
0
100
AcDbPolyline
 70
0
 90
6
 38
-1.79769313486232e+308
 10
3868.85968545298
 20
2201.33049014711
 10
4079.30918280253
 20
2210.62226890574
 10
4090.89642859282
 20
2211.140205494
 10
4265.178223383
 20
2248.15848399873
 10
4280.22861853274
 20
2251.35157301032
 10
4567.57984651285
 20
2218.12846702372
  0
LWPOLYLINE
  5
20006
100
AcDbEntity
  8
0
100
AcDbPolyline
 70
0
 90
5
 38
-1.79769313486232e+308
 10
3940.92681060391
 20
3016.7842056452
 10
3929.02119105341
 20
3063.41324884805
 10
3921.88449850338
 20
3206.82367263722
 10
3911.17222390356
 20
3335.90313879388
 10
3906.65599216367
 20
3496.62142937385
  0
LWPOLYLINE
  5
20007
100
AcDbEntity
  8
0
100
AcDbPolyline
 70
0
 90
14
 38
-1.79769313486232e+308
 10
5782.61316420356
 20
2455.69801951187
 10
5739.95553533392
 20
2448.46619019412
 10
5625.99331983397
 20
2458.83418743812
 10
5578.27510690349
 20
2457.80606293573
 10
5540.09252156349
 20
2460.14070849574
 10
5450.27550361337
 20
2476.1090225022
 10
5428.94223639401
 20
2470.51777951314
 10
5361.57502015339
 20
2415.45880181889
 10
5334.06908717411
 20
2394.67238840821
 10
5314.97779450411
 20
2388.52050753996
 10
5258.25940074245
 20
2387.90285938593
 10
4883.01030284385
 20
2397.55604314559
 10
4829.08046233314
 20
2396.99925300001
 10
4559.76855784314
 20
2394.24249472084
  0
LWPOLYLINE
  5
20008
100
AcDbEntity
  8
0
100
AcDbPolyline
 70
0
 90
12
 38
-1.79769313486232e+308
 10
2585.87583738411
 20
2705.73542898509
 10
2609.36536313253
 20
2303.86673925013
 10
2765.38964823293
 20
1944.71128141029
 10
2804.11881227265
 20
1868.02745998825
 10
2841.48653894322
 20
1839.12354081903
 10
2850.14385574343
 20
1832.43329589196
 10
2924.80249863336
 20
1804.67924087901
 10
3193.60678625325
 20
1742.3542294501
 10
3364.69816443356
 20
1695.68091724708
 10
3536.68789090248
 20
1646.58265074842
 10
3561.84832221302
 20
1649.84420945995
 10
3671.88207288305
 20
1698.45305877818
  0
LWPOLYLINE
  5
20009
100
AcDbEntity
  8
0
100
AcDbPolyline
 70
0
 90
12
 38
-1.79769313486232e+308
 10
2664.73416198007
 20
96.9999527728098
 10
2675.43793370421
 20
184.669204448226
 10
2693.24237305331
 20
216.5340085508
 10
2699.59203681382
 20
225.444982613779
 10
2715.27695306423
 20
255.1763258957
 10
2760.94354777256
 20
344.269797748762
 10
2769.33815057421
 20
386.348517032216
 10
2770.54708024333
 20
534.28154719562
 10
2810.87479217382
 20
1371.68642074323
 10
2810.04212238299
 20
1520.05062659724
 10
2809.66586250285
 20
1825.22772354713
 10
2841.48653894322
 20
1839.12354081903
  0
LWPOLYLINE
  5
2000A
100
AcDbEntity
  8
0
100
AcDbPolyline
 70
0
 90
27
 38
-1.79769313486232e+308
 10
5897.38578560422
 20
2250.56560171383
 10
5944.24238567273
 20
2290.47410135005
 10
6119.05851401421
 20
2518.71157937019
 10
6395.06628587315
 20
2897.88475372025
 10
6550.332485244
 20
3087.62846120388
 10
6570.71619720416
 20
3101.41302419209
 10
6793.71474074418
 20
3206.22670311561
 10
6996.34960983353
 20
3294.85562282556
 10
7116.41769940252
 20
3339.86571136337
 10
7171.27928405287
 20
3356.60824182897
 10
7196.46086606415
 20
3360.17844788066
 10
7325.84751021335
 20
3363.01700199011
 10
7474.94660979355
 20
3366.29325365496
 10
7558.88261905345
 20
3370.65597904694
 10
7585.26533836345
 20
3373.02057943714
 10
7605.95406573298
 20
3385.61797613219
 10
7619.14653858388
 20
3403.03394980018
 10
7689.60064430381
 20
3514.17094049823
 10
7697.69691087337
 20
3533.0983334541
 10
7699.19749761405
 20
3544.22608957055
 10
7700.0980722926
 20
3562.25999073905
 10
7687.80951370331
 20
3629.04496205679
 10
7649.45215675267
 20
3731.03738264215
 10
7635.36244881371
 20
3763.23239777318
 10
7617.96766518275
 20
3835.96253892068
 10
7573.02019438366
 20
4028.48539397201
 10
7563.43113344381
 20
4083.47766898886
  0
LWPOLYLINE
  5
2000B
100
AcDbEntity
  8
0
100
AcDbPolyline
 70
0
 90
11
 38
-1.79769313486232e+308
 10
6566.24894603374
 20
1206.83678066346
 10
6607.16665126415
 20
1008.17774176026
 10
6615.54900892297
 20
862.021903334993
 10
6629.92703435416
 20
733.898886735893
 10
6629.32590910265
 20
700.221498663879
 10
6623.32801494407
 20
667.164353783119
 10
6625.11580596338
 20
520.415664198685
 10
6632.64100354383
 20
180.131522098432
 10
6637.42217567409
 20
137.41783575515
 10
6645.21342683429
 20
104.930519685026
 10
6647.275041272
 20
96.9999527728098
  0
LWPOLYLINE
  5
2000C
100
AcDbEntity
  8
0
100
AcDbPolyline
 70
0
 90
10
 38
-1.79769313486232e+308
 10
7299.39577281321
 20
4081.15437515207
 10
7401.72510153273
 20
4083.26657817035
 10
7509.62040479327
 20
4082.170978031
 10
7563.43113344381
 20
4083.47766898886
 10
7639.91764237391
 20
4097.71659468055
 10
7657.29572808402
 20
4101.28960277826
 10
7835.62843913245
 20
4151.95157465094
 10
7863.56963132354
 20
4159.88759950722
 10
8390.00952203418
 20
4359.30260111705
 10
8589.28476890395
 20
4429.04589498683
  0
LWPOLYLINE
  5
2000D
100
AcDbEntity
  8
0
100
AcDbPolyline
 70
0
 90
7
 38
-1.79769313486232e+308
 10
4527.43692493284
 20
1922.35633988713
 10
4669.80008213254
 20
1923.73013502394
 10
4772.42997347409
 20
1916.31734024907
 10
4830.46638999352
 20
1913.5231385756
 10
5364.78992705266
 20
1912.88350213586
 10
5898.95984320374
 20
1914.49036216304
 10
6421.70504002492
 20
1912.56109430815
  0
LWPOLYLINE
  5
2000E
100
AcDbEntity
  8
0
100
AcDbPolyline
 70
0
 90
3
 38
-1.79769313486232e+308
 10
7099.63628617334
 20
3267.75615213007
 10
7052.81864792327
 20
3298.38048782001
 10
6909.89110092292
 20
3391.85063608537
  0
LWPOLYLINE
  5
2000F
100
AcDbEntity
  8
0
100
AcDbPolyline
 70
0
 90
6
 38
-1.79769313486232e+308
 10
6170.62504173288
 20
3488.33100331888
 10
5774.13061900283
 20
3488.67287644825
 10
5412.44468786413
 20
3489.01345461501
 10
5392.7645150836
 20
3489.02899430401
 10
4908.08390495399
 20
3489.49518496391
 10
4615.9849006928
 20
3489.18439118831
  0
LWPOLYLINE
  5
20010
100
AcDbEntity
  8
0
100
AcDbPolyline
 70
0
 90
2
 38
0
 10
3663.58988401326
 20
3499.02101795084
 10
3097.29984198356
 20
3498.30489675595
  0
LWPOLYLINE
  5
20011
100
AcDbEntity
  8
0
100
AcDbPolyline
 70
0
 90
2
 38
0
 10
4521.16629802281
 20
4061.91663816512
 10
4490.2283851433
 20
4128.80270590574
  0
LWPOLYLINE
  5
20012
100
AcDbEntity
  8
0
100
AcDbPolyline
 70
0
 90
2
 38
0
 10
3671.88207288305
 20
1698.45305877818
 10
3893.58040477368
 20
1796.39252775523
  0
LWPOLYLINE
  5
20013
100
AcDbEntity
  8
0
100
AcDbPolyline
 70
0
 90
2
 38
0
 10
7901.0887525029
 20
1176.33668953587
 10
7939.33478995258
 20
1175.42001774569
  0
LWPOLYLINE
  5
20014
100
AcDbEntity
  8
0
100
AcDbPolyline
 70
0
 90
2
 38
0
 10
4147.34765557418
 20
3494.25162567558
 10
4135.47654507341
 20
3702.51376417593
  0
LWPOLYLINE
  5
20015
100
AcDbEntity
  8
0
100
AcDbPolyline
 70
0
 90
21
 38
-1.79769313486232e+308
 10
3893.58040477368
 20
1796.39252775523
 10
3987.3971320338
 20
1820.43695896898
 10
4448.51140596377
 20
1727.2155201187
 10
4496.90087541411
 20
1721.57799996842
 10
4601.95864485422
 20
1685.81593095871
 10
4823.54009127276
 20
1610.40646713587
 10
5048.38876475426
 20
1536.47220334584
 10
5234.85336461323
 20
1494.55533958493
 10
5592.13104392434
 20
1428.55087154206
 10
5777.1752070825
 20
1393.00975022872
 10
5860.43662022272
 20
1384.63915112695
 10
6107.42674041385
 20
1317.16442922723
 10
6262.0684374425
 20
1265.12987757555
 10
6344.78215868244
 20
1258.95524773688
 10
6420.91133205252
 20
1226.33036180899
 10
6448.48628311264
 20
1220.86138379375
 10
6566.24894603374
 20
1206.83678066346
 10
6576.76195874283
 20
1205.58606442098
 10
6964.41204792293
 20
1199.24185352713
 10
7657.97366378302
 20
1181.85743744845
 10
7901.0887525029
 20
1176.33668953587
  0
LWPOLYLINE
  5
20016
100
AcDbEntity
  8
0
100
AcDbPolyline
 70
0
 90
20
 38
-1.79769313486232e+308
 10
7939.33478995258
 20
1175.42001774569
 10
7995.44983206349
 20
1168.51649733015
 10
8193.51614925297
 20
1123.86381152074
 10
8243.68116459282
 20
1110.14616768376
 10
8275.13337351414
 20
1095.60379852016
 10
8321.04375791395
 20
1058.03350043517
 10
8377.14989446322
 20
992.300639937042
 10
8384.79976987312
 20
958.182353228207
 10
8385.63689244384
 20
870.370142259977
 10
8381.38337469319
 20
712.656952968675
 10
8376.26601770366
 20
600.128518191974
 10
8383.91700631412
 20
580.506447037092
 10
8411.12682944382
 20
559.157316482037
 10
8447.67747105318
 20
540.348361349075
 10
8507.19888958367
 20
529.172789634081
 10
8646.63879694263
 20
511.072061526
 10
8766.52320936354
 20
488.728748453192
 10
8799.67971969428
 20
472.492391023196
 10
8843.0431141335
 20
438.328916374936
 10
8858.32632181695
 20
420.743650604234
  0
LWPOLYLINE
  5
20017
100
AcDbEntity
  8
0
100
AcDbPolyline
 70
0
 90
8
 38
-1.79769313486232e+308
 10
4490.2283851433
 20
4128.80270590574
 10
4466.22567653315
 20
4180.72227885562
 10
4390.20559627409
 20
4251.63400779373
 10
4370.45195263284
 20
4276.42523489834
 10
4362.01838800343
 20
4298.47098795871
 10
4356.14851125362
 20
4462.91206223412
 10
4359.37121051396
 20
4513.30871542391
 10
4363.36879974953
 20
4523.84246696627
  0
LWPOLYLINE
  5
20018
100
AcDbEntity
  8
0
100
AcDbPolyline
 70
0
 90
8
 38
-1.79769313486232e+308
 10
4615.9849006928
 20
3489.18439118831
 10
4603.64624833348
 20
3527.58690572192
 10
4602.25141511331
 20
3581.43738844187
 10
4604.80842381375
 20
3639.34660029399
 10
4602.04436086337
 20
3772.67426442343
 10
4581.96455111387
 20
3900.73004333337
 10
4566.31970987315
 20
3964.25207129388
 10
4521.16629802281
 20
4061.91663816512
  0
LWPOLYLINE
  5
20019
100
AcDbEntity
  8
0
100
AcDbPolyline
 70
0
 90
15
 38
-1.79769313486232e+308
 10
8192.84432969752
 20
4523.84246696627
 10
8155.31130001354
 20
4509.91301533009
 10
8009.94585615429
 20
4454.77640326868
 10
7968.24446171368
 20
4438.90527867001
 10
7926.14343029293
 20
4422.24547607719
 10
7893.57023409413
 20
4407.95437737821
 10
7882.05423277276
 20
4400.80818663199
 10
7868.54895214396
 20
4384.50457829504
 10
7835.18761395323
 20
4343.92501681379
 10
7821.28269635359
 20
4323.24288218503
 10
7819.69305402445
 20
4310.0928439641
 10
7823.26640968429
 20
4273.44401697709
 10
7832.40017390283
 20
4188.58709444
 10
7835.62843913245
 20
4151.95157465094
 10
7856.21475256266
 20
3966.2969133089
  0
LWPOLYLINE
  5
2001A
100
AcDbEntity
  8
0
100
AcDbPolyline
 70
0
 90
10
 38
-1.79769313486232e+308
 10
7302.38024836252
 20
3135.16293016064
 10
7309.12286992403
 20
3168.42214480309
 10
7311.51067299428
 20
3184.7422940958
 10
7321.04407418365
 20
3271.95697414723
 10
7324.62188262338
 20
3307.79998864826
 10
7325.81188798355
 20
3332.49221949221
 10
7325.84751021335
 20
3363.01700199011
 10
7320.65779555248
 20
3458.76030792191
 10
7319.47335617276
 20
3502.57960995181
 10
7320.66224833424
 20
3528.4649008609
  0
LWPOLYLINE
  5
2001B
100
AcDbEntity
  8
0
100
AcDbPolyline
 70
0
 90
2
 38
0
 10
7320.66224833424
 20
3528.4649008609
 10
7316.70372724379
 20
3596.98497146868
  0
LWPOLYLINE
  5
2001C
100
AcDbEntity
  8
0
100
AcDbPolyline
 70
0
 90
10
 38
-1.79769313486232e+308
 10
3097.29984198356
 20
3498.30489675595
 10
2975.33709467421
 20
3498.14302488404
 10
2865.7909233741
 20
3479.2571240639
 10
2401.36044181357
 20
3246.04372622712
 10
2318.00218071262
 20
3207.98653308849
 10
2253.6929108839
 20
3208.12250230077
 10
1986.95248663271
 20
3266.03516226343
 10
1921.6869823731
 20
3289.71077207184
 10
1613.02586427363
 20
3582.25452313187
 10
1061.83973305843
 20
4466.73552337085
  0
LWPOLYLINE
  5
2001D
100
AcDbEntity
  8
0
100
AcDbPolyline
 70
0
 90
9
 38
-1.79769313486232e+308
 10
4567.57984651285
 20
2218.12846702372
 10
4829.39994927341
 20
2208.18019817711
 10
4996.11647146414
 20
2199.93076766317
 10
5099.40314780394
 20
2182.81557981332
 10
5203.2586667336
 20
2179.76882504846
 10
5392.43834897349
 20
2205.84689456724
 10
5605.20106534319
 20
2267.92042918724
 10
5707.376773164
 20
2287.42473061836
 10
5867.93955389256
 20
2294.98276891035
  0
LWPOLYLINE
  5
2001E
100
AcDbEntity
  8
0
100
AcDbPolyline
 70
0
 90
7
 38
-1.79769313486232e+308
 10
5793.44566385294
 20
2433.63868717511
 10
5782.61316420356
 20
2455.69801951187
 10
5776.94922851244
 20
2712.67735116218
 10
5775.47090567308
 20
2997.45616931083
 10
5788.62552990424
 20
3306.72517584997
 10
5781.72706106337
 20
3385.79797603317
 10
5774.13061900283
 20
3488.67287644825
  0
LWPOLYLINE
  5
2001F
100
AcDbEntity
  8
0
100
AcDbPolyline
 70
0
 90
7
 38
-1.79769313486232e+308
 10
5860.43662022272
 20
1384.63915112695
 10
5898.95984320374
 20
1914.49036216304
 10
5912.56085859271
 20
2116.76215492316
 10
5906.65202001328
 20
2212.63963204098
 10
5897.38578560422
 20
2250.56560171383
 10
5867.93955389256
 20
2294.98276891035
 10
5822.56906903381
 20
2382.10836299496
  0
LWPOLYLINE
  5
20020
100
AcDbEntity
  8
0
100
AcDbPolyline
 70
0
 90
2
 38
0
 10
5822.56906903381
 20
2382.10836299496
 10
5793.44566385294
 20
2433.63868717511
  0
LWPOLYLINE
  5
20021
100
AcDbEntity
  8
0
100
AcDbPolyline
 70
0
 90
4
 38
-1.79769313486232e+308
 10
4823.54009127276
 20
1610.40646713587
 10
4830.46638999352
 20
1913.5231385756
 10
4829.39994927341
 20
2208.18019817711
 10
4829.08046233314
 20
2396.99925300001
  0
LWPOLYLINE
  5
20022
100
AcDbEntity
  8
0
100
AcDbPolyline
 70
0
 90
4
 38
-1.79769313486232e+308
 10
4598.15485785375
 20
3246.76112790021
 10
4898.40912800314
 20
3231.39138882083
 10
5382.78806232507
 20
3209.17270265507
 10
5401.9350147325
 20
3208.30249964387
  0
LWPOLYLINE
  5
20023
100
AcDbEntity
  8
0
100
AcDbPolyline
 70
0
 90
2
 38
0
 10
4602.298169304
 20
3303.16275481076
 10
4314.6563974529
 20
3321.07587677833
  0
LWPOLYLINE
  5
20024
100
AcDbEntity
  8
0
100
AcDbPolyline
 70
0
 90
7
 38
-1.79769313486232e+308
 10
5390.55259680407
 20
2980.9394367932
 10
5397.21395513261
 20
3014.75246840843
 10
5397.96647489289
 20
3122.89340500382
 10
5401.9350147325
 20
3208.30249964387
 10
5412.44468786413
 20
3489.01345461501
 10
5419.48675884338
 20
3711.88824505021
 10
5432.1048231333
 20
3999.13616360805
  0
LWPOLYLINE
  5
20025
100
AcDbEntity
  8
0
100
AcDbPolyline
 70
0
 90
6
 38
-1.79769313486232e+308
 10
5410.62684057312
 20
3990.26782217842
 10
5392.7645150836
 20
3489.02899430401
 10
5382.78806232507
 20
3209.17270265507
 10
5376.48181316289
 20
3024.82439787068
 10
5373.88138986411
 20
2995.47234736184
 10
5370.55071069332
 20
2982.84685606311
  0
LWPOLYLINE
  5
20026
100
AcDbEntity
  8
0
100
AcDbPolyline
 70
0
 90
11
 38
-1.79769313486232e+308
 10
4517.97588141295
 20
1860.17058011877
 10
4332.38513955319
 20
1858.07558563013
 10
4307.42508333395
 20
1864.46544940199
 10
4301.41160444389
 20
1893.75528017885
 10
4295.70536734382
 20
2029.001359437
 10
4289.69634122247
 20
2108.71089392329
 10
4283.38341290349
 20
2133.17027317348
 10
4265.178223383
 20
2248.15848399873
 10
4246.69250874253
 20
2303.20636519824
 10
4229.54819396356
 20
2335.24231603217
 10
4211.50330450418
 20
2352.18808665207
  0
LWPOLYLINE
  5
20027
100
AcDbEntity
  8
0
100
AcDbPolyline
 70
0
 90
7
 38
-1.79769313486232e+308
 10
4290.01805455269
 20
2417.20557170582
 10
4329.419588324
 20
2429.80200403684
 10
4378.15414820271
 20
2444.19183789833
 10
4424.47975429366
 20
2450.42661763715
 10
4470.80536038274
 20
2449.12009759701
 10
4511.11526119369
 20
2446.01371402328
 10
4556.76404478247
 20
2443.60785349586
  0
LWPOLYLINE
  5
20028
100
AcDbEntity
  8
0
100
AcDbPolyline
 70
0
 90
8
 38
-1.79769313486232e+308
 10
3706.4089261427
 20
2005.60393673076
 10
3743.81227505425
 20
2024.47466039878
 10
3787.50740158404
 20
2038.49888691899
 10
3903.7973076425
 20
2045.30448160588
 10
4115.25758596355
 20
2057.46936186717
 10
4233.76052349279
 20
2112.59150266868
 10
4265.97972371275
 20
2127.75528100819
 10
4283.38341290349
 20
2133.17027317348
  0
LWPOLYLINE
  5
20029
100
AcDbEntity
  8
0
100
AcDbPolyline
 70
0
 90
7
 38
-1.79769313486232e+308
 10
3903.7973076425
 20
2045.30448160588
 10
3885.65668342295
 20
2110.75154755532
 10
3868.85968545298
 20
2201.33049014711
 10
3856.0345669243
 20
2261.32577318499
 10
3844.5630933925
 20
2324.90808759384
 10
3843.07920457268
 20
2367.27446448558
 10
3857.53626685249
 20
2451.23072964499
  0
LWPOLYLINE
  5
2002A
100
AcDbEntity
  8
0
100
AcDbPolyline
 70
0
 90
3
 38
-1.79769313486232e+308
 10
4115.25758596355
 20
2057.46936186717
 10
4079.30918280253
 20
2210.62226890574
 10
4057.13211384261
 20
2326.66908820194
  0
LWPOLYLINE
  5
2002B
100
AcDbEntity
  8
0
100
AcDbPolyline
 70
0
 90
9
 38
-1.79769313486232e+308
 10
3746.827103913
 20
2828.680167481
 10
3830.88415436292
 20
2543.71172502019
 10
3857.53626685249
 20
2451.23072964499
 10
4057.13211384261
 20
2326.66908820194
 10
4078.60787000353
 20
2324.01852341217
 10
4120.08328588339
 20
2332.10099973098
 10
4149.35029321382
 20
2346.53345123061
 10
4187.86349744382
 20
2352.77077192195
 10
4211.50330450418
 20
2352.18808665207
  0
LWPOLYLINE
  5
2002C
100
AcDbEntity
  8
0
100
AcDbPolyline
 70
0
 90
9
 38
-1.79769313486232e+308
 10
2318.00218071262
 20
3207.98653308849
 10
2336.04818336325
 20
3195.01896177499
 10
2375.33728444422
 20
3169.02429228031
 10
2403.40538085284
 20
3139.10083519702
 10
2522.96251397426
 20
2949.58943070086
 10
2550.46288097309
 20
2907.28193885076
 10
2568.98421785267
 20
2862.73957710561
 10
2578.52541140313
 20
2819.34465966501
 10
2581.63122520255
 20
2786.7415949091
  0
LWPOLYLINE
  5
2002D
100
AcDbEntity
  8
0
100
AcDbPolyline
 70
0
 90
2
 38
0
 10
2581.63122520255
 20
2786.7415949091
 10
2585.87583738411
 20
2705.73542898509
  0
LWPOLYLINE
  5
2002E
100
AcDbEntity
  8
0
100
AcDbPolyline
 70
0
 90
3
 38
-1.79769313486232e+308
 10
2804.11881227265
 20
1868.02745998825
 10
2743.35284184324
 20
1869.63560904876
 10
1809.49511655985
 20
1840.07839211496
  0
LWPOLYLINE
  5
2002F
100
AcDbEntity
  8
0
100
AcDbPolyline
 70
0
 90
16
 38
-1.79769313486232e+308
 10
4563.18161343256
 20
1412.06340400071
 10
4557.99746474283
 20
1390.14315927901
 10
4556.51914190347
 20
1361.15618711698
 10
4563.1604627225
 20
1116.61333248519
 10
4567.60767638343
 20
1072.74155046033
 10
4572.41111241313
 20
1036.69520618521
 10
4650.90025898288
 20
718.026017598684
 10
4668.67686846326
 20
673.027967390015
 10
4693.85511089335
 20
604.593851303092
 10
4702.74285903419
 20
574.095230680301
 10
4713.84809143314
 20
504.202569543726
 10
4711.99128233301
 20
471.138175418942
 10
4587.16539772259
 20
188.962203016847
 10
4577.90695567275
 20
157.027559295639
 10
4574.57293692263
 20
100.912010012071
 10
4574.49212616805
 20
96.9999527728098
  0
LWPOLYLINE
  5
20030
100
AcDbEntity
  8
0
100
AcDbPolyline
 70
0
 90
4
 38
-1.79769313486232e+308
 10
4601.95864485422
 20
1685.81593095871
 10
4609.86344189415
 20
1563.95117014401
 10
4609.1176013037
 20
1542.7725632888
 10
4600.97012777286
 20
1525.32810960372
  0
LWPOLYLINE
  5
20031
100
AcDbEntity
  8
0
100
AcDbPolyline
 70
0
 90
2
 38
0
 10
4600.97012777286
 20
1525.32810960372
 10
4563.18161343256
 20
1412.06340400071
  0
LWPOLYLINE
  5
20032
100
AcDbEntity
  8
0
100
AcDbPolyline
 70
0
 90
13
 38
-1.79769313486232e+308
 10
7316.70372724379
 20
3596.98497146868
 10
7314.31926375287
 20
3628.84812379849
 10
7311.54740842277
 20
3688.20665457134
 10
7309.16628452422
 20
3774.24251371191
 10
7303.62591346385
 20
3931.19664444343
 10
7299.65848681363
 20
4026.79926502692
 10
7299.39577281321
 20
4081.15437515207
 10
7299.26441581393
 20
4108.84355910902
 10
7297.6836790427
 20
4213.60353487904
 10
7296.90110302376
 20
4296.85475566505
 10
7294.12145534376
 20
4396.03326950536
 10
7292.15110035273
 20
4469.33693133189
 10
7290.9352262949
 20
4523.84246696627
  0
LWPOLYLINE
  5
20033
100
AcDbEntity
  8
0
100
AcDbPolyline
 70
0
 90
5
 38
-1.79769313486232e+308
 10
4334.60262381317
 20
3492.55909402004
 10
4159.94456915403
 20
3494.37982816004
 10
4147.34765557418
 20
3494.25162567558
 10
3906.65599216367
 20
3496.62142937385
 10
3663.58988401326
 20
3499.02101795084
  0
LWPOLYLINE
  5
20034
100
AcDbEntity
  8
0
100
AcDbPolyline
 70
0
 90
3
 38
-1.79769313486232e+308
 10
4615.9849006928
 20
3489.18439118831
 10
4599.50405008378
 20
3489.80338880035
 10
4376.96525603378
 20
3492.11621278326
  0
LWPOLYLINE
  5
20035
100
AcDbEntity
  8
0
100
AcDbPolyline
 70
0
 90
2
 38
0
 10
4376.96525603378
 20
3492.11621278326
 10
4334.60262381317
 20
3492.55909402004
  0
LWPOLYLINE
  5
20036
100
AcDbEntity
  8
0
100
AcDbPolyline
 70
0
 90
3
 38
-1.79769313486232e+308
 10
7438.74773778426
 20
3045.98091488599
 10
7302.38024836252
 20
3135.16293016064
 10
7099.63628617334
 20
3267.75615213007
  0
LWPOLYLINE
  5
20037
100
AcDbEntity
  8
0
100
AcDbPolyline
 70
0
 90
2
 38
0
 10
7487.96876383419
 20
3014.41319810401
 10
7438.74773778426
 20
3045.98091488599
  0
LWPOLYLINE
  5
20038
100
AcDbEntity
  8
0
100
AcDbPolyline
 70
0
 90
5
 38
-1.79769313486232e+308
 10
8264.14613977293
 20
2599.10016821033
 10
8248.90872787344
 20
2605.69111795897
 10
7998.69145563277
 20
2692.11963872366
 10
7870.02059581349
 20
2764.02386908314
 10
7487.96876383419
 20
3014.41319810401
  0
LWPOLYLINE
  5
20039
100
AcDbEntity
  8
0
100
AcDbPolyline
 70
0
 90
2
 38
0
 10
8299.09712030398
 20
2583.97984339331
 10
8264.14613977293
 20
2599.10016821033
  0
LWPOLYLINE
  5
2003A
100
AcDbEntity
  8
0
100
AcDbPolyline
 70
0
 90
3
 38
-1.79769313486232e+308
 10
8858.32632181695
 20
2326.13710784171
 10
8305.14956101248
 20
2581.35382669686
 10
8299.09712030398
 20
2583.97984339331
  0
LWPOLYLINE
  5
2003B
100
AcDbEntity
  8
0
100
AcDbPolyline
 70
0
 90
5
 38
-1.79769313486232e+308
 10
6909.89110092292
 20
3391.85063608537
 10
6807.4549054935
 20
3451.79725136409
 10
6724.08105966295
 20
3480.62720559525
 10
6633.55716295386
 20
3487.96582066581
 10
6204.83797403271
 20
3488.301218917
  0
LWPOLYLINE
  5
2003C
100
AcDbEntity
  8
0
100
AcDbPolyline
 70
0
 90
2
 38
0
 10
6204.83797403271
 20
3488.301218917
 10
6170.62504173288
 20
3488.33100331888
  0
LWPOLYLINE
  5
2003D
100
AcDbEntity
  8
0
100
AcDbPolyline
 70
0
 90
2
 38
0
 10
4543.56428583214
 20
2499.17398000611
 10
4787.54874838455
 20
2541.99407638083
  0
LWPOLYLINE
  5
2003E
100
AcDbEntity
  8
0
100
AcDbPolyline
 70
0
 90
2
 38
0
 10
4770.97839433711
 20
2547.13248794579
 10
4801.8335496686
 20
2383.27436854233
  0
LWPOLYLINE
  5
2003F
100
AcDbEntity
  8
0
100
AcDbPolyline
 70
0
 90
2
 38
0
 10
4748.71893001042
 20
2720.94179083351
 10
4782.52583407715
 20
2529.67955583159
  0
LWPOLYLINE
  5
20040
100
AcDbEntity
  8
0
100
AcDbPolyline
 70
0
 90
2
 38
0
 10
4551.09833558375
 20
2655.54373050542
 10
4656.97408053372
 20
2679.48965950769
  0
LWPOLYLINE
  5
20041
100
AcDbEntity
  8
0
100
AcDbPolyline
 70
0
 90
2
 38
0
 10
4636.94303336844
 20
2718.79153460587
 10
4670.56579093417
 20
2509.35406125261
  0
LWPOLYLINE
  5
20042
100
AcDbEntity
  8
0
100
AcDbPolyline
 70
0
 90
2
 38
0
 10
4547.16318533858
 20
2561.17732039267
 10
4667.70424953449
 20
2581.54922123245
  0
LWPOLYLINE
  5
20043
100
AcDbEntity
  8
0
100
AcDbPolyline
 70
0
 90
2
 38
0
 10
4649.46216439369
 20
2591.55651003522
 10
4774.29534766346
 20
2604.06555886523
  0
LWPOLYLINE
  5
20044
100
AcDbEntity
  8
0
100
AcDbPolyline
 70
0
 90
2
 38
0
 10
4633.3661387898
 20
2665.8960570693
 10
4715.27684448342
 20
2675.54592316032
  0
LWPOLYLINE
  5
20045
100
AcDbEntity
  8
0
100
AcDbPolyline
 70
0
 90
2
 38
0
 10
4706.6922202844
 20
2717.00452052462
 10
4705.26151392647
 20
2660.17764185255
  0
LWPOLYLINE
  5
20046
100
AcDbEntity
  8
0
100
AcDbPolyline
 70
0
 90
2
 38
0
 10
4704.18841981611
 20
2668.75528954706
 10
4734.59202373459
 20
2520.07614574012
  0
LWPOLYLINE
  5
20047
100
AcDbEntity
  8
0
100
AcDbPolyline
 70
0
 90
2
 38
0
 10
4708.65812251775
 20
2675.94035150769
 10
4761.92162931894
 20
2667.81716684091
  0
LWPOLYLINE
  5
20048
100
AcDbEntity
  8
0
100
AcDbPolyline
 70
0
 90
2
 38
0
 10
4749.10202164808
 20
2680.21017514956
 10
4890.38639777736
 20
2678.77700258952
  0
LWPOLYLINE
  5
20049
100
AcDbEntity
  8
0
100
AcDbPolyline
 70
0
 90
2
 38
0
 10
4553.60393762507
 20
2598.11988726523
 10
4769.41836077196
 20
2635.22191659449
  0
LWPOLYLINE
  5
2004A
100
AcDbEntity
  8
0
100
AcDbPolyline
 70
0
 90
2
 38
0
 10
4611.42400868499
 20
2679.78242183463
 10
4625.13642447884
 20
2503.82694129739
  0
LWPOLYLINE
  5
2004B
100
AcDbEntity
  8
0
100
AcDbPolyline
 70
0
 90
2
 38
0
 10
4646.73342466351
 20
2571.31820749822
 10
4728.83561183407
 20
2582.16598182607
  0
LWPOLYLINE
  5
2004C
100
AcDbEntity
  8
0
100
AcDbPolyline
 70
0
 90
2
 38
0
 10
4678.398129707
 20
2579.22806263387
 10
4689.70698970358
 20
2543.52075780506
  0
LWPOLYLINE
  5
2004D
100
AcDbEntity
  8
0
100
AcDbPolyline
 70
0
 90
2
 38
0
 10
4682.69552481614
 20
2544.42470998477
 10
4712.5508071128
 20
2555.49849722693
  0
LWPOLYLINE
  5
2004E
100
AcDbEntity
  8
0
100
AcDbPolyline
 70
0
 90
2
 38
0
 10
4702.82527244702
 20
2581.71400573621
 10
4705.08701870957
 20
2543.74672098061
  0
LWPOLYLINE
  5
2004F
100
AcDbEntity
  8
0
100
AcDbPolyline
 70
0
 90
2
 38
0
 10
4721.14559733108
 20
2560.47043317038
 10
4780.40396709242
 20
2569.05827731019
  0
LWPOLYLINE
  5
20050
100
AcDbEntity
  8
0
100
AcDbPolyline
 70
0
 90
2
 38
0
 10
4696.03990497554
 20
2553.91655604306
 10
4701.46817321595
 20
2519.33921630827
  0
LWPOLYLINE
  5
20051
100
AcDbEntity
  8
0
100
AcDbPolyline
 70
0
 90
2
 38
0
 10
4762.13472967231
 20
2610.00769901344
 10
4815.4202414013
 20
2608.19516894957
  0
LWPOLYLINE
  5
20052
100
AcDbEntity
  8
0
100
AcDbPolyline
 70
0
 90
2
 38
0
 10
4768.93721208762
 20
2575.11665693479
 10
4887.5257571642
 20
2581.0073672077
  0
LWPOLYLINE
  5
20053
100
AcDbEntity
  8
0
100
AcDbPolyline
 70
0
 90
2
 38
0
 10
4769.19174862082
 20
2516.63884942213
 10
4894.80951694763
 20
2558.55340197688
  0
LWPOLYLINE
  5
20054
100
AcDbEntity
  8
0
100
AcDbPolyline
 70
0
 90
2
 38
0
 10
4875.56948902883
 20
2561.88430709248
 10
4988.36121549536
 20
2570.21913017264
  0
LWPOLYLINE
  5
20055
100
AcDbEntity
  8
0
100
AcDbPolyline
 70
0
 90
2
 38
0
 10
4978.56902262726
 20
2578.55395325279
 10
4984.37176069155
 20
2543.7651243209
  0
LWPOLYLINE
  5
20056
100
AcDbEntity
  8
0
100
AcDbPolyline
 70
0
 90
2
 38
0
 10
4796.80497327453
 20
2606.60984553018
 10
4952.79314510242
 20
2649.32713189304
  0
LWPOLYLINE
  5
20057
100
AcDbEntity
  8
0
100
AcDbPolyline
 70
0
 90
2
 38
0
 10
4932.13322026388
 20
2647.28550511188
 10
5093.60679593421
 20
2648.18776617384
  0
LWPOLYLINE
  5
20058
100
AcDbEntity
  8
0
100
AcDbPolyline
 70
0
 90
2
 38
0
 10
5082.93633621119
 20
2655.67384709516
 10
5102.68813955592
 20
2619.83150153961
  0
LWPOLYLINE
  5
20059
100
AcDbEntity
  8
0
100
AcDbPolyline
 70
0
 90
2
 38
0
 10
5016.01767790192
 20
2617.10387781434
 10
5193.10304208088
 20
2635.02505059211
  0
LWPOLYLINE
  5
2005A
100
AcDbEntity
  8
0
100
AcDbPolyline
 70
0
 90
2
 38
0
 10
5016.92579939571
 20
2653.85365726262
 10
5037.68172234029
 20
2581.59761704355
  0
LWPOLYLINE
  5
2005B
100
AcDbEntity
  8
0
100
AcDbPolyline
 70
0
 90
2
 38
0
 10
5031.50387103323
 20
2974.72091889369
 10
5029.17765419272
 20
2742.86877392808
  0
LWPOLYLINE
  5
2005C
100
AcDbEntity
  8
0
100
AcDbPolyline
 70
0
 90
2
 38
0
 10
4560.83146259305
 20
2916.00202762318
 10
4723.76521320883
 20
2891.59974552038
  0
LWPOLYLINE
  5
2005D
100
AcDbEntity
  8
0
100
AcDbPolyline
 70
0
 90
2
 38
0
 10
4711.00763112391
 20
2907.26088863261
 10
4713.19461210549
 20
2847.16572594069
  0
LWPOLYLINE
  5
2005E
100
AcDbEntity
  8
0
100
AcDbPolyline
 70
0
 90
2
 38
0
 10
4556.45737194611
 20
2857.72790032269
 10
4871.02540709756
 20
2865.37637828741
  0
LWPOLYLINE
  5
2005F
100
AcDbEntity
  8
0
100
AcDbPolyline
 70
0
 90
2
 38
0
 10
4807.23698193789
 20
2953.15175642093
 10
4800.67591030934
 20
2830.77615872415
  0
LWPOLYLINE
  5
20060
100
AcDbEntity
  8
0
100
AcDbPolyline
 70
0
 90
2
 38
0
 10
4729.96185234896
 20
2837.33197566301
 10
4891.07318315533
 20
2842.06675721047
  0
LWPOLYLINE
  5
20061
100
AcDbEntity
  8
0
100
AcDbPolyline
 70
0
 90
2
 38
0
 10
4740.90447828418
 20
2870.38989583217
 10
4759.49426702087
 20
2705.03712676432
  0
LWPOLYLINE
  5
20062
100
AcDbEntity
  8
0
100
AcDbPolyline
 70
0
 90
2
 38
0
 10
4546.98778933516
 20
2777.87978588995
 10
4791.20619901465
 20
2779.70082128136
  0
LWPOLYLINE
  5
20063
100
AcDbEntity
  8
0
100
AcDbPolyline
 70
0
 90
2
 38
0
 10
4772.61653896174
 20
2845.62337680782
 10
4787.92566320038
 20
2703.2160913729
  0
LWPOLYLINE
  5
20064
100
AcDbEntity
  8
0
100
AcDbPolyline
 70
0
 90
2
 38
0
 10
4551.72631247051
 20
2816.48636289634
 10
4791.20619901465
 20
2814.30109058338
  0
LWPOLYLINE
  5
20065
100
AcDbEntity
  8
0
100
AcDbPolyline
 70
0
 90
2
 38
0
 10
4682.21913743197
 20
2865.65511428472
 10
4674.9290721429
 20
2702.85185445136
  0
LWPOLYLINE
  5
20066
100
AcDbEntity
  8
0
100
AcDbPolyline
 70
0
 90
2
 38
0
 10
4641.55956427249
 20
2909.28605188501
 10
4645.06645487031
 20
2850.30046139652
  0
LWPOLYLINE
  5
20067
100
AcDbEntity
  8
0
100
AcDbPolyline
 70
0
 90
2
 38
0
 10
4612.33534727347
 20
2875.4131621734
 10
4620.51809200176
 20
2744.00958207124
  0
LWPOLYLINE
  5
20068
100
AcDbEntity
  8
0
100
AcDbPolyline
 70
0
 90
2
 38
0
 10
4512.17998276331
 20
3002.93468198754
 10
4482.5060159243
 20
2940.70597529053
  0
LWPOLYLINE
  5
20069
100
AcDbEntity
  8
0
100
AcDbPolyline
 70
0
 90
2
 38
0
 10
4486.53587743765
 20
2963.03509623989
 10
4481.76556940662
 20
2742.21008356185
  0
LWPOLYLINE
  5
2006A
100
AcDbEntity
  8
0
100
AcDbPolyline
 70
0
 90
2
 38
0
 10
4409.59558306582
 20
2749.53108154686
 10
4561.26242459993
 20
2750.26318631924
  0
LWPOLYLINE
  5
2006B
100
AcDbEntity
  8
0
100
AcDbPolyline
 70
0
 90
2
 38
0
 10
4494.58762206946
 20
2756.12002449825
 10
4496.45714014539
 20
2702.98207051864
  0
LWPOLYLINE
  5
2006C
100
AcDbEntity
  8
0
100
AcDbPolyline
 70
0
 90
2
 38
0
 10
4340.39613329334
 20
2674.84326373241
 10
4568.03389422229
 20
2683.05045716069
  0
LWPOLYLINE
  5
2006D
100
AcDbEntity
  8
0
100
AcDbPolyline
 70
0
 90
2
 38
0
 10
4326.30345690515
 20
2837.9258066894
 10
4400.22714591247
 20
2583.50405388168
  0
LWPOLYLINE
  5
2006E
100
AcDbEntity
  8
0
100
AcDbPolyline
 70
0
 90
2
 38
0
 10
4355.63821327829
 20
2587.60765059581
 10
4568.60872470448
 20
2611.05663967141
  0
LWPOLYLINE
  5
2006F
100
AcDbEntity
  8
0
100
AcDbPolyline
 70
0
 90
2
 38
0
 10
4448.933445036
 20
2616.75874057569
 10
4465.94762946918
 20
2490.72033103417
  0
LWPOLYLINE
  5
20070
100
AcDbEntity
  8
0
100
AcDbPolyline
 70
0
 90
2
 38
0
 10
4383.81031162443
 20
2493.06521502011
 10
4538.6978510113
 20
2508.30711014494
  0
LWPOLYLINE
  5
20071
100
AcDbEntity
  8
0
100
AcDbPolyline
 70
0
 90
2
 38
0
 10
4385.38321356839
 20
2527.0638443108
 10
4540.57110091706
 20
2544.29315097105
  0
LWPOLYLINE
  5
20072
100
AcDbEntity
  8
0
100
AcDbPolyline
 70
0
 90
2
 38
0
 10
4382.16457465629
 20
2564.04938546988
 10
4550.45723295061
 20
2579.44084503866
  0
LWPOLYLINE
  5
20073
100
AcDbEntity
  8
0
100
AcDbPolyline
 70
0
 90
2
 38
0
 10
4523.55794595421
 20
2582.6570028406
 10
4529.71829626607
 20
2490.73261650729
  0
LWPOLYLINE
  5
20074
100
AcDbEntity
  8
0
100
AcDbPolyline
 70
0
 90
2
 38
0
 10
4389.61292100491
 20
2574.50805349741
 10
4411.30900770659
 20
2481.5467135467
  0
LWPOLYLINE
  5
20075
100
AcDbEntity
  8
0
100
AcDbPolyline
 70
0
 90
2
 38
0
 10
4446.24343912609
 20
2507.2672716796
 10
4426.75363597425
 20
2442.59853075346
  0
LWPOLYLINE
  5
20076
100
AcDbEntity
  8
0
100
AcDbPolyline
 70
0
 90
2
 38
0
 10
4493.31288046288
 20
2438.55670957619
 10
4502.13852939731
 20
2488.16057561563
  0
LWPOLYLINE
  5
20077
100
AcDbEntity
  8
0
100
AcDbPolyline
 70
0
 90
2
 38
0
 10
4416.8249096068
 20
2475.30032141855
 10
4544.79527495071
 20
2473.83059087171
  0
LWPOLYLINE
  5
20078
100
AcDbEntity
  8
0
100
AcDbPolyline
 70
0
 90
2
 38
0
 10
4518.68636378183
 20
2469.05392929041
 10
4530.45372411603
 20
2500.65340961068
  0
LWPOLYLINE
  5
20079
100
AcDbEntity
  8
0
100
AcDbPolyline
 70
0
 90
2
 38
0
 10
4552.53804980687
 20
2475.50076861148
 10
4717.69648575419
 20
2506.07478496734
  0
LWPOLYLINE
  5
2007A
100
AcDbEntity
  8
0
100
AcDbPolyline
 70
0
 90
2
 38
0
 10
4703.3189034588
 20
2508.65334163624
 10
4718.43384386096
 20
2472.55384670416
  0
LWPOLYLINE
  5
2007B
100
AcDbEntity
  8
0
100
AcDbPolyline
 70
0
 90
2
 38
0
 10
4706.26820720205
 20
2474.39567289624
 10
4793.6399955021
 20
2486.91999152482
  0
LWPOLYLINE
  5
2007C
100
AcDbEntity
  8
0
100
AcDbPolyline
 70
0
 90
2
 38
0
 10
4554.74999544339
 20
2454.87246447653
 10
4795.11458303186
 20
2460.76625855241
  0
LWPOLYLINE
  5
2007D
100
AcDbEntity
  8
0
100
AcDbPolyline
 70
0
 90
2
 38
0
 10
4707.74279473181
 20
2465.92337189021
 10
4717.69648575419
 20
2388.567318427
  0
LWPOLYLINE
  5
2007E
100
AcDbEntity
  8
0
100
AcDbPolyline
 70
0
 90
2
 38
0
 10
4656.13068698545
 20
2469.97533977401
 10
4667.92777327472
 20
2378.98992170573
  0
LWPOLYLINE
  5
2007F
100
AcDbEntity
  8
0
100
AcDbPolyline
 70
0
 90
2
 38
0
 10
4617.79038174188
 20
2462.9764499829
 10
4621.10823585474
 20
2385.25208102002
  0
LWPOLYLINE
  5
20080
100
AcDbEntity
  8
0
100
AcDbPolyline
 70
0
 90
2
 38
0
 10
4547.00812137371
 20
2429.45551171972
 10
4798.43256582849
 20
2434.61257531876
  0
LWPOLYLINE
  5
20081
100
AcDbEntity
  8
0
100
AcDbPolyline
 70
0
 90
2
 38
0
 10
4411.65735472142
 20
2453.15722342242
 10
4426.52046094992
 20
2373.10055437928
  0
LWPOLYLINE
  5
20082
100
AcDbEntity
  8
0
100
AcDbPolyline
 70
0
 90
2
 38
0
 10
4419.55339196941
 20
2380.75813453663
 10
4568.88011881392
 20
2371.24415473124
  0
LWPOLYLINE
  5
20083
100
AcDbEntity
  8
0
100
AcDbPolyline
 70
0
 90
2
 38
0
 10
4496.89942632566
 20
2367.09067004328
 10
4496.89942632566
 20
2411.41193185961
  0
LWPOLYLINE
  5
20084
100
AcDbEntity
  8
0
100
AcDbPolyline
 70
0
 90
2
 38
0
 10
4413.06271037305
 20
2405.14658926483
 10
4470.42466714675
 20
2411.41193185961
  0
LWPOLYLINE
  5
20085
100
AcDbEntity
  8
0
100
AcDbPolyline
 70
0
 90
2
 38
0
 10
4453.47147882922
 20
2411.41193185961
 10
4565.40848757408
 20
2393.31214720347
  0
LWPOLYLINE
  5
20086
100
AcDbEntity
  8
0
100
AcDbPolyline
 70
0
 90
2
 38
0
 10
4467.03513616382
 20
2384.79473314435
 10
4464.7979685048
 20
2350.89195043946
  0
LWPOLYLINE
  5
20087
100
AcDbEntity
  8
0
100
AcDbPolyline
 70
0
 90
2
 38
0
 10
4408.12369789561
 20
2351.26449373351
 10
4491.6437230453
 20
2356.85289183802
  0
LWPOLYLINE
  5
20088
100
AcDbEntity
  8
0
100
AcDbPolyline
 70
0
 90
2
 38
0
 10
4483.81370058068
 20
2351.26449373351
 10
4485.67794262129
 20
2385.1672764384
  0
LWPOLYLINE
  5
20089
100
AcDbEntity
  8
0
100
AcDbPolyline
 70
0
 90
2
 38
0
 10
4508.42228746213
 20
2381.81428731445
 10
4505.81219418475
 20
2296.12589770895
  0
LWPOLYLINE
  5
2008A
100
AcDbEntity
  8
0
100
AcDbPolyline
 70
0
 90
2
 38
0
 10
4433.10508171172
 20
2300.22402315976
 10
4574.79082257656
 20
2309.16541038824
  0
LWPOLYLINE
  5
2008B
100
AcDbEntity
  8
0
100
AcDbPolyline
 70
0
 90
2
 38
0
 10
4427.79095599148
 20
2360.20901450371
 10
4421.06259543818
 20
2228.36455005463
  0
LWPOLYLINE
  5
2008C
100
AcDbEntity
  8
0
100
AcDbPolyline
 70
0
 90
2
 38
0
 10
4325.74445452893
 20
2273.93117088249
 10
4481.99140945505
 20
2271.31670283064
  0
LWPOLYLINE
  5
2008D
100
AcDbEntity
  8
0
100
AcDbPolyline
 70
0
 90
2
 38
0
 10
4473.39404556097
 20
2314.26885560664
 10
4473.39404556097
 20
2224.25607894225
  0
LWPOLYLINE
  5
2008E
100
AcDbEntity
  8
0
100
AcDbPolyline
 70
0
 90
2
 38
0
 10
4299.80759358496
 20
2438.56566255255
 10
4354.88142391949
 20
2229.21329221346
  0
LWPOLYLINE
  5
2008F
100
AcDbEntity
  8
0
100
AcDbPolyline
 70
0
 90
2
 38
0
 10
4227.37341942685
 20
2310.56162705142
 10
4376.43209794041
 20
2376.95625312579
  0
LWPOLYLINE
  5
20090
100
AcDbEntity
  8
0
100
AcDbPolyline
 70
0
 90
2
 38
0
 10
4358.47324581758
 20
2360.20806946731
 10
4390.20061986594
 20
2422.41558745361
  0
LWPOLYLINE
  5
20091
100
AcDbEntity
  8
0
100
AcDbPolyline
 70
0
 90
2
 38
0
 10
4375.23482397437
 20
2410.45262044274
 10
4426.71696109461
 20
2423.6119040502
  0
LWPOLYLINE
  5
20092
100
AcDbEntity
  8
0
100
AcDbPolyline
 70
0
 90
2
 38
0
 10
4315.76644227057
 20
2333.521335969
 10
4383.17705870236
 20
2341.2661579071
  0
LWPOLYLINE
  5
20093
100
AcDbEntity
  8
0
100
AcDbPolyline
 70
0
 90
2
 38
0
 10
4371.66796673121
 20
2348.07226027396
 10
4377.53993667359
 20
2267.57296602737
  0
LWPOLYLINE
  5
20094
100
AcDbEntity
  8
0
100
AcDbPolyline
 70
0
 90
2
 38
0
 10
4326.33614258739
 20
2311.69502411971
 10
4363.68197951521
 20
2324.83774472091
  0
LWPOLYLINE
  5
20095
100
AcDbEntity
  8
0
100
AcDbPolyline
 70
0
 90
2
 38
0
 10
4352.40773545764
 20
2326.24589868591
 10
4358.98437782456
 20
2267.80763348549
  0
LWPOLYLINE
  5
20096
100
AcDbEntity
  8
0
100
AcDbPolyline
 70
0
 90
2
 38
0
 10
4277.4810850046
 20
2287.99112391167
 10
4340.42881897555
 20
2307.2358947666
  0
LWPOLYLINE
  5
20097
100
AcDbEntity
  8
0
100
AcDbPolyline
 70
0
 90
2
 38
0
 10
4071.24819936443
 20
2584.15324414522
 10
4087.51331546611
 20
2512.5241112263
  0
LWPOLYLINE
  5
20098
100
AcDbEntity
  8
0
100
AcDbPolyline
 70
0
 90
2
 38
0
 10
4086.91081796944
 20
2543.82421396487
 10
4068.23622661628
 20
2407.78906023718
  0
LWPOLYLINE
  5
20099
100
AcDbEntity
  8
0
100
AcDbPolyline
 70
0
 90
2
 38
0
 10
4066.42899149388
 20
2424.04105005035
 10
4097.75422870391
 20
2351.20804024368
  0
LWPOLYLINE
  5
2009A
100
AcDbEntity
  8
0
100
AcDbPolyline
 70
0
 90
2
 38
0
 10
4094.13975845909
 20
2366.25615316911
 10
4038.71822452868
 20
2333.75217354279
  0
LWPOLYLINE
  5
2009B
100
AcDbEntity
  8
0
100
AcDbPolyline
 70
0
 90
2
 38
0
 10
4069.13096499609
 20
2542.87131884773
 10
4172.58771209425
 20
2574.56256717569
  0
LWPOLYLINE
  5
2009C
100
AcDbEntity
  8
0
100
AcDbPolyline
 70
0
 90
2
 38
0
 10
4134.45214275783
 20
2633.79506085665
 10
4173.34282856379
 20
2549.66230063229
  0
LWPOLYLINE
  5
2009D
100
AcDbEntity
  8
0
100
AcDbPolyline
 70
0
 90
2
 38
0
 10
4136.34006261546
 20
2534.19394494433
 10
4207.32499995016
 20
2576.07169081851
  0
LWPOLYLINE
  5
2009E
100
AcDbEntity
  8
0
100
AcDbPolyline
 70
0
 90
2
 38
0
 10
4193.35457316085
 20
2590.78545981568
 10
4200.52856567287
 20
2565.50792479627
  0
LWPOLYLINE
  5
2009F
100
AcDbEntity
  8
0
100
AcDbPolyline
 70
0
 90
2
 38
0
 10
4181.64962446396
 20
2582.48540412705
 10
4246.21568575612
 20
2603.23561795675
  0
LWPOLYLINE
  5
200A0
100
AcDbEntity
  8
0
100
AcDbPolyline
 70
0
 90
2
 38
0
 10
4214.49899246221
 20
2639.07691899839
 10
4243.9502076637
 20
2587.38999379278
  0
LWPOLYLINE
  5
200A1
100
AcDbEntity
  8
0
100
AcDbPolyline
 70
0
 90
2
 38
0
 10
4234.51073705923
 20
2589.27638591161
 10
4281.33053184679
 20
2597.19917312422
  0
LWPOLYLINE
  5
200A2
100
AcDbEntity
  8
0
100
AcDbPolyline
 70
0
 90
2
 38
0
 10
4119.72659949897
 20
2590.03092286365
 10
4285.52909780655
 20
2663.2756701053
  0
LWPOLYLINE
  5
200A3
100
AcDbEntity
  8
0
100
AcDbPolyline
 70
0
 90
2
 38
0
 10
4257.58824422792
 20
2688.17593664869
 10
4308.56143696557
 20
2625.92524542084
  0
LWPOLYLINE
  5
200A4
100
AcDbEntity
  8
0
100
AcDbPolyline
 70
0
 90
2
 38
0
 10
4334.23681245177
 20
2616.49333456541
 10
4389.74096137425
 20
2654.22102772589
  0
LWPOLYLINE
  5
200A5
100
AcDbEntity
  8
0
100
AcDbPolyline
 70
0
 90
2
 38
0
 10
4229.51381687707
 20
2573.75197464389
 10
4239.44112772285
 20
2592.40967894347
  0
LWPOLYLINE
  5
200A6
100
AcDbEntity
  8
0
100
AcDbPolyline
 70
0
 90
2
 38
0
 10
4229.27755344182
 20
2581.54568978066
 10
4265.91369927736
 20
2513.29158025529
  0
LWPOLYLINE
  5
200A7
100
AcDbEntity
  8
0
100
AcDbPolyline
 70
0
 90
2
 38
0
 10
4147.49064155252
 20
2457.43654716699
 10
4366.00652346647
 20
2574.53973708597
  0
LWPOLYLINE
  5
200A8
100
AcDbEntity
  8
0
100
AcDbPolyline
 70
0
 90
2
 38
0
 10
4348.99401192254
 20
2556.02985637383
 10
4363.73821433069
 20
2606.27092563624
  0
LWPOLYLINE
  5
200A9
100
AcDbEntity
  8
0
100
AcDbPolyline
 70
0
 90
2
 38
0
 10
4329.02859348926
 20
2536.52843352994
 10
4403.88125076407
 20
2548.6774732328
  0
LWPOLYLINE
  5
200AA
100
AcDbEntity
  8
0
100
AcDbPolyline
 70
0
 90
2
 38
0
 10
4342.70729413058
 20
2543.74194605988
 10
4375.38409716878
 20
2489.83040518409
  0
LWPOLYLINE
  5
200AB
100
AcDbEntity
  8
0
100
AcDbPolyline
 70
0
 90
2
 38
0
 10
4359.04563130779
 20
2498.94219739593
 10
4416.04006718218
 20
2509.57266309204
  0
LWPOLYLINE
  5
200AC
100
AcDbEntity
  8
0
100
AcDbPolyline
 70
0
 90
2
 38
0
 10
4324.46906950342
 20
2478.44062761522
 10
4367.7848047365
 20
2512.23025464669
  0
LWPOLYLINE
  5
200AD
100
AcDbEntity
  8
0
100
AcDbPolyline
 70
0
 90
2
 38
0
 10
4306.23071619248
 20
2511.85059871031
 10
4335.86787946805
 20
2477.68131574246
  0
LWPOLYLINE
  5
200AE
100
AcDbEntity
  8
0
100
AcDbPolyline
 70
0
 90
2
 38
0
 10
4248.09639932163
 20
2460.9763550643
 10
4316.86977707117
 20
2506.53536586226
  0
LWPOLYLINE
  5
200AF
100
AcDbEntity
  8
0
100
AcDbPolyline
 70
0
 90
2
 38
0
 10
4232.51793991413
 20
2513.7488783922
 10
4267.09463040228
 20
2459.45768158003
  0
LWPOLYLINE
  5
200B0
100
AcDbEntity
  8
0
100
AcDbPolyline
 70
0
 90
2
 38
0
 10
4247.33652155192
 20
2469.32883540338
 10
4271.27415116137
 20
2432.50196088089
  0
LWPOLYLINE
  5
200B1
100
AcDbEntity
  8
0
100
AcDbPolyline
 70
0
 90
2
 38
0
 10
4259.49533797003
 20
2434.77989649916
 10
4332.06823325189
 20
2466.2915381736
  0
LWPOLYLINE
  5
200B2
100
AcDbEntity
  8
0
100
AcDbPolyline
 70
0
 90
2
 38
0
 10
4388.76425142129
 20
2498.5701017507
 10
4376.94078495543
 20
2463.89049913039
  0
LWPOLYLINE
  5
200B3
100
AcDbEntity
  8
0
100
AcDbPolyline
 70
0
 90
2
 38
0
 10
4376.55936620699
 20
2476.84769416593
 10
4403.25739175855
 20
2442.54918990597
  0
LWPOLYLINE
  5
200B4
100
AcDbEntity
  8
0
100
AcDbPolyline
 70
0
 90
2
 38
0
 10
4262.11598331807
 20
2440.48324087237
 10
4273.20453666916
 20
2386.23133767866
  0
LWPOLYLINE
  5
200B5
100
AcDbEntity
  8
0
100
AcDbPolyline
 70
0
 90
2
 38
0
 10
4283.91064180151
 20
2406.09824091304
 10
4187.93775777757
 20
2361.01572741241
  0
LWPOLYLINE
  5
200B6
100
AcDbEntity
  8
0
100
AcDbPolyline
 70
0
 90
2
 38
0
 10
4193.94638990308
 20
2372.41963078842
 10
4210.57812611753
 20
2346.06962867872
  0
LWPOLYLINE
  5
200B7
100
AcDbEntity
  8
0
100
AcDbPolyline
 70
0
 90
2
 38
0
 10
4061.79109908099
 20
2331.39749102162
 10
4200.8388222864
 20
2371.52134882707
  0
LWPOLYLINE
  5
200B8
100
AcDbEntity
  8
0
100
AcDbPolyline
 70
0
 90
2
 38
0
 10
4054.14946968239
 20
2349.81251992311
 10
4072.42938785694
 20
2326.45689049543
  0
LWPOLYLINE
  5
200B9
100
AcDbEntity
  8
0
100
AcDbPolyline
 70
0
 90
2
 38
0
 10
4158.36390692584
 20
2470.89152768809
 10
4169.86360498046
 20
2404.62940566383
  0
LWPOLYLINE
  5
200BA
100
AcDbEntity
  8
0
100
AcDbPolyline
 70
0
 90
2
 38
0
 10
4065.98245874859
 20
2378.58415292164
 10
4172.93026833862
 20
2415.35387761171
  0
LWPOLYLINE
  5
200BB
100
AcDbEntity
  8
0
100
AcDbPolyline
 70
0
 90
2
 38
0
 10
4159.1145194628
 20
2552.90213408282
 10
4168.33741525162
 20
2523.3353773061
  0
LWPOLYLINE
  5
200BC
100
AcDbEntity
  8
0
100
AcDbPolyline
 70
0
 90
2
 38
0
 10
4172.18042790439
 20
2538.31077216798
 10
4141.82134857666
 20
2510.66393143268
  0
LWPOLYLINE
  5
200BD
100
AcDbEntity
  8
0
100
AcDbPolyline
 70
0
 90
2
 38
0
 10
4154.50300722651
 20
2531.0150414718
 10
4157.57726292818
 20
2488.77683882167
  0
LWPOLYLINE
  5
200BE
100
AcDbEntity
  8
0
100
AcDbPolyline
 70
0
 90
2
 38
0
 10
4162.95740343179
 20
2507.5920657664
 10
4072.64879371592
 20
2471.49759444883
  0
LWPOLYLINE
  5
200BF
100
AcDbEntity
  8
0
100
AcDbPolyline
 70
0
 90
2
 38
0
 10
3958.89850171059
 20
2491.08073807138
 10
4084.1775743067
 20
2472.64954407368
  0
LWPOLYLINE
  5
200C0
100
AcDbEntity
  8
0
100
AcDbPolyline
 70
0
 90
2
 38
0
 10
3989.57491526019
 20
2551.38211765209
 10
3999.57905032756
 20
2476.41098787464
  0
LWPOLYLINE
  5
200C1
100
AcDbEntity
  8
0
100
AcDbPolyline
 70
0
 90
2
 38
0
 10
3936.07051240734
 20
2502.53487759252
 10
3976.08718136067
 20
2503.6883193801
  0
LWPOLYLINE
  5
200C2
100
AcDbEntity
  8
0
100
AcDbPolyline
 70
0
 90
2
 38
0
 10
3966.85257534712
 20
2507.53297612243
 10
3976.85671041449
 20
2476.00666151452
  0
LWPOLYLINE
  5
200C3
100
AcDbEntity
  8
0
100
AcDbPolyline
 70
0
 90
2
 38
0
 10
3941.07257994104
 20
2552.90009479376
 10
3933.37703203515
 20
2512.5310249136
  0
LWPOLYLINE
  5
200C4
100
AcDbEntity
  8
0
100
AcDbPolyline
 70
0
 90
2
 38
0
 10
3934.53145429969
 20
2534.4456727963
 10
3958.00273386049
 20
2412.18507110696
  0
LWPOLYLINE
  5
200C5
100
AcDbEntity
  8
0
100
AcDbPolyline
 70
0
 90
2
 38
0
 10
3958.3874983874
 20
2427.17931695795
 10
3942.99640257561
 20
2393.73064910949
  0
LWPOLYLINE
  5
200C6
100
AcDbEntity
  8
0
100
AcDbPolyline
 70
0
 90
2
 38
0
 10
4019.49749917811
 20
2507.24658035646
 10
4000.98170361965
 20
2419.75257437439
  0
LWPOLYLINE
  5
200C7
100
AcDbEntity
  8
0
100
AcDbPolyline
 70
0
 90
2
 38
0
 10
3993.26672446175
 20
2434.78457194237
 10
4076.58780447475
 20
2415.51279294209
  0
LWPOLYLINE
  5
200C8
100
AcDbEntity
  8
0
100
AcDbPolyline
 70
0
 90
2
 38
0
 10
4190.18586355858
 20
2572.74367055084
 10
4211.17406074097
 20
2542.06341220885
  0
LWPOLYLINE
  5
200C9
100
AcDbEntity
  8
0
100
AcDbPolyline
 70
0
 90
2
 38
0
 10
4211.17406074097
 20
2542.06341220885
 10
4210.39668197607
 20
2551.77236794383
  0
LWPOLYLINE
  5
200CA
100
AcDbEntity
  8
0
100
AcDbPolyline
 70
0
 90
2
 38
0
 10
4210.39668197607
 20
2551.77236794383
 10
4187.07647718271
 20
2530.80101559807
  0
LWPOLYLINE
  5
200CB
100
AcDbEntity
  8
0
100
AcDbPolyline
 70
0
 90
2
 38
0
 10
4191.35186736405
 20
2541.6750519899
 10
4202.62328037826
 20
2516.0434267555
  0
LWPOLYLINE
  5
200CC
100
AcDbEntity
  8
0
100
AcDbPolyline
 70
0
 90
2
 38
0
 10
4209.23067817057
 20
2527.30582336628
 10
4178.13707177943
 20
2505.55775058261
  0
LWPOLYLINE
  5
200CD
100
AcDbEntity
  8
0
100
AcDbPolyline
 70
0
 90
2
 38
0
 10
4178.52582550378
 20
2516.0434267555
 10
4197.18188639145
 20
2471.38225027007
  0
LWPOLYLINE
  5
200CE
100
AcDbEntity
  8
0
100
AcDbPolyline
 70
0
 90
2
 38
0
 10
4167.17964720857
 20
2733.1054537311
 10
4205.66806749243
 20
2646.1471839066
  0
LWPOLYLINE
  5
200CF
100
AcDbEntity
  8
0
100
AcDbPolyline
 70
0
 90
2
 38
0
 10
4226.50583332634
 20
2703.71109148804
 10
4243.91134515963
 20
2657.41500204196
  0
LWPOLYLINE
  5
200D0
100
AcDbEntity
  8
0
100
AcDbPolyline
 70
0
 90
2
 38
0
 10
4228.46697425953
 20
2675.54149641089
 10
4294.65728232721
 20
2712.77433867251
  0
LWPOLYLINE
  5
200D1
100
AcDbEntity
  8
0
100
AcDbPolyline
 70
0
 90
2
 38
0
 10
4288.52858822723
 20
2701.75148391809
 10
4286.32217599364
 20
2732.12564994612
  0
LWPOLYLINE
  5
200D2
100
AcDbEntity
  8
0
100
AcDbPolyline
 70
0
 90
2
 38
0
 10
4279.45805404373
 20
2723.06240276165
 10
4366.24098532868
 20
2740.94393374966
  0
LWPOLYLINE
  5
200D3
100
AcDbEntity
  8
0
100
AcDbPolyline
 70
0
 90
2
 38
0
 10
4226.99611855965
 20
2691.46346956771
 10
4239.9890632933
 20
2719.87797828703
  0
LWPOLYLINE
  5
200D4
100
AcDbEntity
  8
0
100
AcDbPolyline
 70
0
 90
2
 38
0
 10
4228.95725949283
 20
2712.03949826847
 10
4265.48453884351
 20
2726.00181411658
  0
LWPOLYLINE
  5
200D5
100
AcDbEntity
  8
0
100
AcDbPolyline
 70
0
 90
2
 38
0
 10
4092.49492227746
 20
2683.27801197648
 10
4202.10712970354
 20
2705.37932941627
  0
LWPOLYLINE
  5
200D6
100
AcDbEntity
  8
0
100
AcDbPolyline
 70
0
 90
2
 38
0
 10
4077.50313226069
 20
2716.67554838218
 10
4216.60747633292
 20
2734.84775266931
  0
LWPOLYLINE
  5
200D7
100
AcDbEntity
  8
0
100
AcDbPolyline
 70
0
 90
2
 38
0
 10
4026.2804216576
 20
2625.32763424888
 10
4132.29012643118
 20
2638.71591509609
  0
LWPOLYLINE
  5
200D8
100
AcDbEntity
  8
0
100
AcDbPolyline
 70
0
 90
2
 38
0
 10
4115.34440177335
 20
2693.84401624281
 10
4116.92064949582
 20
2627.69027497125
  0
LWPOLYLINE
  5
200D9
100
AcDbEntity
  8
0
100
AcDbPolyline
 70
0
 90
2
 38
0
 10
4107.54629288823
 20
2657.11104849457
 10
4166.80839447945
 20
2678.82311041777
  0
LWPOLYLINE
  5
200DA
100
AcDbEntity
  8
0
100
AcDbPolyline
 70
0
 90
2
 38
0
 10
4147.05440351029
 20
2708.43045402065
 10
4203.15590257791
 20
2579.73713881739
  0
LWPOLYLINE
  5
200DB
100
AcDbEntity
  8
0
100
AcDbPolyline
 70
0
 90
2
 38
0
 10
3943.6963137
 20
2578.96096550582
 10
4012.74919263765
 20
2547.3107019141
  0
LWPOLYLINE
  5
200DC
100
AcDbEntity
  8
0
100
AcDbPolyline
 70
0
 90
2
 38
0
 10
3817.62725132774
 20
2565.66788464055
 10
3908.85311908636
 20
2590.35507034659
  0
LWPOLYLINE
  5
200DD
100
AcDbEntity
  8
0
100
AcDbPolyline
 70
0
 90
2
 38
0
 10
3894.91576403062
 20
2561.86983311404
 10
3852.47044594138
 20
2731.51525591347
  0
LWPOLYLINE
  5
200DE
100
AcDbEntity
  8
0
100
AcDbPolyline
 70
0
 90
2
 38
0
 10
3685.22308605915
 20
2659.9856502484
 10
3931.65961819695
 20
2727.08422895838
  0
LWPOLYLINE
  5
200DF
100
AcDbEntity
  8
0
100
AcDbPolyline
 70
0
 90
2
 38
0
 10
3891.74821258246
 20
2718.22212530944
 10
4221.32811242167
 20
2760.70568925057
  0
LWPOLYLINE
  5
200E0
100
AcDbEntity
  8
0
100
AcDbPolyline
 70
0
 90
2
 38
0
 10
4203.58982431193
 20
2746.14655805062
 10
4231.46440573962
 20
2837.93232246664
  0
LWPOLYLINE
  5
200E1
100
AcDbEntity
  8
0
100
AcDbPolyline
 70
0
 90
2
 38
0
 10
4207.39088604975
 20
2815.77713795243
 10
4340.42856160796
 20
2815.14416252385
  0
LWPOLYLINE
  5
200E2
100
AcDbEntity
  8
0
100
AcDbPolyline
 70
0
 90
2
 38
0
 10
3950.13101784844
 20
2564.513000429
 10
3973.61748209625
 20
2640.08681473169
  0
LWPOLYLINE
  5
200E3
100
AcDbEntity
  8
0
100
AcDbPolyline
 70
0
 90
2
 38
0
 10
3904.75029386507
 20
2609.45952816649
 10
3986.35589029672
 20
2603.49316524335
  0
LWPOLYLINE
  5
200E4
100
AcDbEntity
  8
0
100
AcDbPolyline
 70
0
 90
2
 38
0
 10
3911.91566456331
 20
2600.70888907322
 10
3898.38108976485
 20
2698.95487253609
  0
LWPOLYLINE
  5
200E5
100
AcDbEntity
  8
0
100
AcDbPolyline
 70
0
 90
2
 38
0
 10
3845.87205601425
 20
2552.92799823675
 10
3863.03242523089
 20
2505.07687627462
  0
LWPOLYLINE
  5
200E6
100
AcDbEntity
  8
0
100
AcDbPolyline
 70
0
 90
2
 38
0
 10
3851.85816847682
 20
2509.46323782543
 10
3931.27498235382
 20
2519.43222778488
  0
LWPOLYLINE
  5
200E7
100
AcDbEntity
  8
0
100
AcDbPolyline
 70
0
 90
2
 38
0
 10
3924.09159592525
 20
2512.25452716037
 10
3923.69254749783
 20
2553.32675385602
  0
LWPOLYLINE
  5
200E8
100
AcDbEntity
  8
0
100
AcDbPolyline
 70
0
 90
2
 38
0
 10
3954.60754079087
 20
2399.77385841305
 10
3936.98159362827
 20
2348.53955590114
  0
LWPOLYLINE
  5
200E9
100
AcDbEntity
  8
0
100
AcDbPolyline
 70
0
 90
2
 38
0
 10
3938.18337152689
 20
2360.14733844435
 10
3957.81858735948
 20
2252.80861271377
  0
LWPOLYLINE
  5
200EA
100
AcDbEntity
  8
0
100
AcDbPolyline
 70
0
 90
2
 38
0
 10
3959.82142184002
 20
2265.21689082099
 10
3938.59026966538
 20
2198.37212899079
  0
LWPOLYLINE
  5
200EB
100
AcDbEntity
  8
0
100
AcDbPolyline
 70
0
 90
2
 38
0
 10
3934.98493596955
 20
2219.98660347168
 10
4013.09985596067
 20
2234.39626970519
  0
LWPOLYLINE
  5
200EC
100
AcDbEntity
  8
0
100
AcDbPolyline
 70
0
 90
2
 38
0
 10
3932.98197280517
 20
2379.69357590879
 10
4039.93930499553
 20
2305.64395609246
  0
LWPOLYLINE
  5
200ED
100
AcDbEntity
  8
0
100
AcDbPolyline
 70
0
 90
2
 38
0
 10
4026.31928416167
 20
2324.05629910104
 10
4043.94523132427
 20
2194.76969999773
  0
LWPOLYLINE
  5
200EE
100
AcDbEntity
  8
0
100
AcDbPolyline
 70
0
 90
2
 38
0
 10
3998.67864986107
 20
2273.22224437113
 10
4090.81405463515
 20
2289.23300121017
  0
LWPOLYLINE
  5
200EF
100
AcDbEntity
  8
0
100
AcDbPolyline
 70
0
 90
2
 38
0
 10
4086.00707172445
 20
2303.24236992292
 10
4175.73892070132
 20
2332.86219795395
  0
LWPOLYLINE
  5
200F0
100
AcDbEntity
  8
0
100
AcDbPolyline
 70
0
 90
2
 38
0
 10
3779.7253717508
 20
2309.99714189199
 10
3911.9519533916
 20
2323.51205761593
  0
LWPOLYLINE
  5
200F1
100
AcDbEntity
  8
0
100
AcDbPolyline
 70
0
 90
2
 38
0
 10
3898.31481761389
 20
2330.3251731476
 10
3913.5563828637
 20
2293.05338543883
  0
LWPOLYLINE
  5
200F2
100
AcDbEntity
  8
0
100
AcDbPolyline
 70
0
 90
2
 38
0
 10
3841.76060897915
 20
2286.24022016839
 10
3962.89091624154
 20
2308.282696658
  0
LWPOLYLINE
  5
200F3
100
AcDbEntity
  8
0
100
AcDbPolyline
 70
0
 90
2
 38
0
 10
3883.87546710012
 20
2300.26724614007
 10
3902.72686997839
 20
2223.71979565835
  0
LWPOLYLINE
  5
200F4
100
AcDbEntity
  8
0
100
AcDbPolyline
 70
0
 90
2
 38
0
 10
3854.99676607261
 20
2220.11284043834
 10
3904.7322781347
 20
2235.74294656586
  0
LWPOLYLINE
  5
200F5
100
AcDbEntity
  8
0
100
AcDbPolyline
 70
0
 90
2
 38
0
 10
4969.54687354813
 20
2552.31496804995
 10
5079.74845272445
 20
2564.86465344488
  0
LWPOLYLINE
  5
200F6
100
AcDbEntity
  8
0
100
AcDbPolyline
 70
0
 90
2
 38
0
 10
5062.32685541763
 20
2567.69841967877
 10
5074.07632870527
 20
2526.81082325114
  0
LWPOLYLINE
  5
200F7
100
AcDbEntity
  8
0
100
AcDbPolyline
 70
0
 90
2
 38
0
 10
5051.38770394472
 20
2538.55081141192
 10
5128.77195738608
 20
2528.83494198963
  0
LWPOLYLINE
  5
200F8
100
AcDbEntity
  8
0
100
AcDbPolyline
 70
0
 90
2
 38
0
 10
5114.99674390355
 20
2448.27417063872
 10
5120.2636426735
 20
2541.78945113227
  0
LWPOLYLINE
  5
200F9
100
AcDbEntity
  8
0
100
AcDbPolyline
 70
0
 90
2
 38
0
 10
5116.21216228374
 20
2533.28805295307
 10
5148.62439145325
 20
2558.79219775188
  0
LWPOLYLINE
  5
200FA
100
AcDbEntity
  8
0
100
AcDbPolyline
 70
0
 90
2
 38
0
 10
5136.87491816562
 20
2558.38737400418
 10
5178.60565517863
 20
2539.76528265501
  0
LWPOLYLINE
  5
200FB
100
AcDbEntity
  8
0
100
AcDbPolyline
 70
0
 90
2
 38
0
 10
5172.12320934472
 20
2550.69567305915
 10
5169.69237258437
 20
2494.42457526395
  0
LWPOLYLINE
  5
200FC
100
AcDbEntity
  8
0
100
AcDbPolyline
 70
0
 90
2
 38
0
 10
5021.00134365388
 20
2468.51555697868
 10
5104.46268899611
 20
2473.77836517628
  0
LWPOLYLINE
  5
200FD
100
AcDbEntity
  8
0
100
AcDbPolyline
 70
0
 90
2
 38
0
 10
5095.1441811526
 20
2477.82660265327
 10
5107.2987510057
 20
2456.77556881791
  0
LWPOLYLINE
  5
200FE
100
AcDbEntity
  8
0
100
AcDbPolyline
 70
0
 90
2
 38
0
 10
5091.09270076285
 20
2461.63350352905
 10
5245.05075714705
 20
2478.23147613972
  0
LWPOLYLINE
  5
200FF
100
AcDbEntity
  8
0
100
AcDbPolyline
 70
0
 90
2
 38
0
 10
5214.66426817243
 20
2480.66041862592
 10
5298.5308387639
 20
2458.3948638087
  0
LWPOLYLINE
  5
20100
100
AcDbEntity
  8
0
100
AcDbPolyline
 70
0
 90
2
 38
0
 10
5098.15190733576
 20
2464.13605937641
 10
5080.14467010854
 20
2387.85660132037
  0
LWPOLYLINE
  5
20101
100
AcDbEntity
  8
0
100
AcDbPolyline
 70
0
 90
2
 38
0
 10
5038.80410234156
 20
2414.21227364842
 10
5244.9999270507
 20
2439.04748189694
  0
LWPOLYLINE
  5
20102
100
AcDbEntity
  8
0
100
AcDbPolyline
 70
0
 90
2
 38
0
 10
5192.49990116528
 20
2438.54064395751
 10
5179.81875725061
 20
2383.54847883518
  0
LWPOLYLINE
  5
20103
100
AcDbEntity
  8
0
100
AcDbPolyline
 70
0
 90
2
 38
0
 10
5232.61707215721
 20
2441.56958507602
 10
5285.62436953597
 20
2423.83015771834
  0
LWPOLYLINE
  5
20104
100
AcDbEntity
  8
0
100
AcDbPolyline
 70
0
 90
2
 38
0
 10
5264.06636053912
 20
2438.02171949999
 10
5257.47221717701
 20
2381.25557185089
  0
LWPOLYLINE
  5
20105
100
AcDbEntity
  8
0
100
AcDbPolyline
 70
0
 90
2
 38
0
 10
5266.34895357539
 20
2475.02103829491
 10
5252.90690242068
 20
2428.89858685143
  0
LWPOLYLINE
  5
20106
100
AcDbEntity
  8
0
100
AcDbPolyline
 70
0
 90
2
 38
0
 10
5198.12428349903
 20
2483.1304950646
 10
5203.45037681155
 20
2428.13832994227
  0
LWPOLYLINE
  5
20107
100
AcDbEntity
  8
0
100
AcDbPolyline
 70
0
 90
2
 38
0
 10
5132.4358422056
 20
2474.00736241604
 10
5134.46479949518
 20
2421.29596802116
  0
LWPOLYLINE
  5
20108
100
AcDbEntity
  8
0
100
AcDbPolyline
 70
0
 90
2
 38
0
 10
5106.31264713622
 20
2426.87123509369
 10
5105.04446840286
 20
2387.08425789313
  0
LWPOLYLINE
  5
20109
100
AcDbEntity
  8
0
100
AcDbPolyline
 70
0
 90
2
 38
0
 10
5055.29415770512
 20
2422.31098684649
 10
5057.32311499471
 20
2388.09927671845
  0
LWPOLYLINE
  5
2010A
100
AcDbEntity
  8
0
100
AcDbPolyline
 70
0
 90
2
 38
0
 10
4997.2144027605
 20
2450.94747964075
 10
5024.60577656323
 20
2391.39372332477
  0
LWPOLYLINE
  5
2010B
100
AcDbEntity
  8
0
100
AcDbPolyline
 70
0
 90
2
 38
0
 10
4983.51871585913
 20
2414.45494904651
 10
5040.07678500749
 20
2446.63930741682
  0
LWPOLYLINE
  5
2010C
100
AcDbEntity
  8
0
100
AcDbPolyline
 70
0
 90
2
 38
0
 10
5025.11291937277
 20
2443.85169874992
 10
5099.17095425504
 20
2446.89272638653
  0
LWPOLYLINE
  5
2010D
100
AcDbEntity
  8
0
100
AcDbPolyline
 70
0
 90
2
 38
0
 10
5091.61438484047
 20
2552.36445811371
 10
5094.86776837541
 20
2501.97591343517
  0
LWPOLYLINE
  5
2010E
100
AcDbEntity
  8
0
100
AcDbPolyline
 70
0
 90
2
 38
0
 10
5097.77499251993
 20
2400.06289033317
 10
5101.09709319781
 20
2283.37198497552
  0
LWPOLYLINE
  5
2010F
100
AcDbEntity
  8
0
100
AcDbPolyline
 70
0
 90
2
 38
0
 10
5077.33125644567
 20
2290.266174682
 10
5165.49457872735
 20
2287.2020682619
  0
LWPOLYLINE
  5
20110
100
AcDbEntity
  8
0
100
AcDbPolyline
 70
0
 90
2
 38
0
 10
5141.72887065902
 20
2284.64867940432
 10
5263.62433172643
 20
2323.97124582563
  0
LWPOLYLINE
  5
20111
100
AcDbEntity
  8
0
100
AcDbPolyline
 70
0
 90
2
 38
0
 10
4965.22039590284
 20
2406.87023616897
 10
4975.46452623533
 20
2305.73865868684
  0
LWPOLYLINE
  5
20112
100
AcDbEntity
  8
0
100
AcDbPolyline
 70
0
 90
2
 38
0
 10
4971.30881197707
 20
2315.04448179188
 10
5016.71154088824
 20
2246.35416336279
  0
LWPOLYLINE
  5
20113
100
AcDbEntity
  8
0
100
AcDbPolyline
 70
0
 90
2
 38
0
 10
4621.58500929025
 20
2361.35618920784
 10
4839.30935722258
 20
2365.46088017464
  0
LWPOLYLINE
  5
20114
100
AcDbEntity
  8
0
100
AcDbPolyline
 70
0
 90
2
 38
0
 10
4818.35847833878
 20
2333.44409167852
 10
4909.14540569563
 20
2373.25986761971
  0
LWPOLYLINE
  5
20115
100
AcDbEntity
  8
0
100
AcDbPolyline
 70
0
 90
2
 38
0
 10
4885.319087563
 20
2367.51325052742
 10
4981.85715078504
 20
2360.94569524177
  0
LWPOLYLINE
  5
20116
100
AcDbEntity
  8
0
100
AcDbPolyline
 70
0
 90
2
 38
0
 10
4873.95643774289
 20
2403.25547196403
 10
4884.78427773897
 20
2353.28095270334
  0
LWPOLYLINE
  5
20117
100
AcDbEntity
  8
0
100
AcDbPolyline
 70
0
 90
2
 38
0
 10
4777.6089552113
 20
2477.46505162464
 10
4889.36580665261
 20
2498.1441887698
  0
LWPOLYLINE
  5
20118
100
AcDbEntity
  8
0
100
AcDbPolyline
 70
0
 90
2
 38
0
 10
4778.02280227435
 20
2467.12545818268
 10
4890.60760520937
 20
2472.91564642658
  0
LWPOLYLINE
  5
20119
100
AcDbEntity
  8
0
100
AcDbPolyline
 70
0
 90
2
 38
0
 10
4854.5969912686
 20
2445.20558773044
 10
4860.80572668483
 20
2385.64964290912
  0
LWPOLYLINE
  5
2011A
100
AcDbEntity
  8
0
100
AcDbPolyline
 70
0
 90
2
 38
0
 10
4770.57728696909
 20
2220.02609604518
 10
4772.66247907415
 20
2075.42503296976
  0
LWPOLYLINE
  5
2011B
100
AcDbEntity
  8
0
100
AcDbPolyline
 70
0
 90
2
 38
0
 10
4716.3604906644
 20
2101.67824345727
 10
4789.34465933358
 20
2110.42933019935
  0
LWPOLYLINE
  5
2011C
100
AcDbEntity
  8
0
100
AcDbPolyline
 70
0
 90
2
 38
0
 10
4760.98506870793
 20
2090.4268391119
 10
4849.40009647945
 20
2070.42439776321
  0
LWPOLYLINE
  5
2011D
100
AcDbEntity
  8
0
100
AcDbPolyline
 70
0
 90
2
 38
0
 10
4833.65550630132
 20
2072.03250153356
 10
5122.23250463398
 20
2074.40295124087
  0
LWPOLYLINE
  5
2011E
100
AcDbEntity
  8
0
100
AcDbPolyline
 70
0
 90
2
 38
0
 10
4989.69399349042
 20
2183.8581605827
 10
5122.23250463398
 20
2086.1004625027
  0
LWPOLYLINE
  5
2011F
100
AcDbEntity
  8
0
100
AcDbPolyline
 70
0
 90
2
 38
0
 10
5114.70669064482
 20
2105.73553338813
 10
5023.6267503021
 20
1654.10438181575
  0
LWPOLYLINE
  5
20120
100
AcDbEntity
  8
0
100
AcDbPolyline
 70
0
 90
2
 38
0
 10
4792.73483373545
 20
2165.39866523197
 10
4945.23335859316
 20
2164.34599416718
  0
LWPOLYLINE
  5
20121
100
AcDbEntity
  8
0
100
AcDbPolyline
 70
0
 90
2
 38
0
 10
4786.94046011742
 20
2132.23907904238
 10
4951.29114792577
 20
2131.71274350999
  0
LWPOLYLINE
  5
20122
100
AcDbEntity
  8
0
100
AcDbPolyline
 70
0
 90
2
 38
0
 10
4938.64886651517
 20
2209.34832879064
 10
4950.50772102282
 20
1903.9206241069
  0
LWPOLYLINE
  5
20123
100
AcDbEntity
  8
0
100
AcDbPolyline
 70
0
 90
2
 38
0
 10
4876.36385405378
 20
2168.68858561134
 10
4872.99362563909
 20
1905.18339168358
  0
LWPOLYLINE
  5
20124
100
AcDbEntity
  8
0
100
AcDbPolyline
 70
0
 90
2
 38
0
 10
4818.22825034504
 20
2047.03842769342
 10
5109.47144808678
 20
2041.60924335182
  0
LWPOLYLINE
  5
20125
100
AcDbEntity
  8
0
100
AcDbPolyline
 70
0
 90
2
 38
0
 10
4816.36310751791
 20
2014.00512820926
 10
5106.1023778262
 20
2013.33181464831
  0
LWPOLYLINE
  5
20126
100
AcDbEntity
  8
0
100
AcDbPolyline
 70
0
 90
2
 38
0
 10
4815.68931920256
 20
1981.01475327286
 10
5098.69044898966
 20
1980.34148945066
  0
LWPOLYLINE
  5
20127
100
AcDbEntity
  8
0
100
AcDbPolyline
 70
0
 90
2
 38
0
 10
4821.7536714084
 20
1949.37095571961
 10
5096.66895535978
 20
1950.71753310276
  0
LWPOLYLINE
  5
20128
100
AcDbEntity
  8
0
100
AcDbPolyline
 70
0
 90
2
 38
0
 10
5005.03052737599
 20
2184.34296425254
 10
5001.66145711538
 20
2064.50051173901
  0
LWPOLYLINE
  5
20129
100
AcDbEntity
  8
0
100
AcDbPolyline
 70
0
 90
2
 38
0
 10
4993.71137267631
 20
2207.22483201456
 10
4993.97543180984
 20
2172.9263277546
  0
LWPOLYLINE
  5
2012A
100
AcDbEntity
  8
0
100
AcDbPolyline
 70
0
 90
2
 38
0
 10
5048.89702922283
 20
2152.61102962091
 10
5061.31527215807
 20
2038.79577053101
  0
LWPOLYLINE
  5
2012B
100
AcDbEntity
  8
0
100
AcDbPolyline
 70
0
 90
2
 38
0
 10
5022.76456892071
 20
2051.45985506831
 10
5022.32948903259
 20
1910.43575474209
  0
LWPOLYLINE
  5
2012C
100
AcDbEntity
  8
0
100
AcDbPolyline
 70
0
 90
2
 38
0
 10
4600.94451570374
 20
2227.89919423899
 10
4600.09237165787
 20
2118.060797509
  0
LWPOLYLINE
  5
2012D
100
AcDbEntity
  8
0
100
AcDbPolyline
 70
0
 90
2
 38
0
 10
4586.03199490055
 20
2126.14966243306
 10
4689.56736779332
 20
2122.31808698396
  0
LWPOLYLINE
  5
2012E
100
AcDbEntity
  8
0
100
AcDbPolyline
 70
0
 90
2
 38
0
 10
4661.02054225575
 20
2195.54368480396
 10
4657.61196607217
 20
2111.67483842716
  0
LWPOLYLINE
  5
2012F
100
AcDbEntity
  8
0
100
AcDbPolyline
 70
0
 90
2
 38
0
 10
4647.12861257727
 20
2175.53865703988
 10
4780.7003258568
 20
2176.90055396035
  0
LWPOLYLINE
  5
20130
100
AcDbEntity
  8
0
100
AcDbPolyline
 70
0
 90
2
 38
0
 10
4727.42626698498
 20
2111.12059945178
 10
4706.27798716997
 20
1908.15020909392
  0
LWPOLYLINE
  5
20131
100
AcDbEntity
  8
0
100
AcDbPolyline
 70
0
 90
2
 38
0
 10
4526.87695822117
 20
1959.79341393165
 10
4798.96853380665
 20
1951.68415611699
  0
LWPOLYLINE
  5
20132
100
AcDbEntity
  8
0
100
AcDbPolyline
 70
0
 90
2
 38
0
 10
4786.15420217111
 20
1943.57489830232
 10
4785.29987050081
 20
2092.52914717726
  0
LWPOLYLINE
  5
20133
100
AcDbEntity
  8
0
100
AcDbPolyline
 70
0
 90
2
 38
0
 10
4710.54938815389
 20
2006.74172770549
 10
4795.97856598627
 20
2008.87576909817
  0
LWPOLYLINE
  5
20134
100
AcDbEntity
  8
0
100
AcDbPolyline
 70
0
 90
2
 38
0
 10
4702.43368767932
 20
1978.99953777197
 10
4796.83276897279
 20
1987.10879558663
  0
LWPOLYLINE
  5
20135
100
AcDbEntity
  8
0
100
AcDbPolyline
 70
0
 90
2
 38
0
 10
4776.75693984918
 20
1991.80363691177
 10
4841.68305838094
 20
1996.92523677668
  0
LWPOLYLINE
  5
20136
100
AcDbEntity
  8
0
100
AcDbPolyline
 70
0
 90
2
 38
0
 10
4760.95264039328
 20
2029.78907631387
 10
4839.97452372411
 20
2023.38705161335
  0
LWPOLYLINE
  5
20137
100
AcDbEntity
  8
0
100
AcDbPolyline
 70
0
 90
2
 38
0
 10
4727.36823059648
 20
2076.14002760954
 10
4642.58028408102
 20
2079.13519611168
  0
LWPOLYLINE
  5
20138
100
AcDbEntity
  8
0
100
AcDbPolyline
 70
0
 90
2
 38
0
 10
4649.86005466702
 20
2089.83216252663
 10
4639.15446426981
 20
2037.2030857755
  0
LWPOLYLINE
  5
20139
100
AcDbEntity
  8
0
100
AcDbPolyline
 70
0
 90
2
 38
0
 10
4537.66593571318
 20
2058.59701860541
 10
4657.99621586394
 20
2045.76063901196
  0
LWPOLYLINE
  5
2013A
100
AcDbEntity
  8
0
100
AcDbPolyline
 70
0
 90
2
 38
0
 10
4653.28587447823
 20
2053.89033945598
 10
4642.15202443366
 20
1945.20911492038
  0
LWPOLYLINE
  5
2013B
100
AcDbEntity
  8
0
100
AcDbPolyline
 70
0
 90
2
 38
0
 10
4752.1308519725
 20
1929.26351585373
 10
4745.94322069752
 20
1710.80765967531
  0
LWPOLYLINE
  5
2013C
100
AcDbEntity
  8
0
100
AcDbPolyline
 70
0
 90
2
 38
0
 10
4602.25181430875
 20
1734.85157402996
 10
4839.44576203814
 20
1711.49465139458
  0
LWPOLYLINE
  5
2013D
100
AcDbEntity
  8
0
100
AcDbPolyline
 70
0
 90
2
 38
0
 10
4803.69483198208
 20
1929.26351585373
 10
4797.5072007071
 20
1692.25952985862
  0
LWPOLYLINE
  5
2013E
100
AcDbEntity
  8
0
100
AcDbPolyline
 70
0
 90
2
 38
0
 10
4646.94047687884
 20
1936.82017607201
 10
4611.18954682277
 20
1668.902656962
  0
LWPOLYLINE
  5
2013F
100
AcDbEntity
  8
0
100
AcDbPolyline
 70
0
 90
2
 38
0
 10
4503.24907049007
 20
1846.8273446494
 10
4651.06556439548
 20
1823.47042201402
  0
LWPOLYLINE
  5
20140
100
AcDbEntity
  8
0
100
AcDbPolyline
 70
0
 90
2
 38
0
 10
4613.93964806179
 20
1839.27068443111
 10
4814.0075507737
 20
1824.1574137333
  0
LWPOLYLINE
  5
20141
100
AcDbEntity
  8
0
100
AcDbPolyline
 70
0
 90
2
 38
0
 10
4623.89758564919
 20
1868.07141460281
 10
4808.10147962745
 20
1851.29995320579
  0
LWPOLYLINE
  5
20142
100
AcDbEntity
  8
0
100
AcDbPolyline
 70
0
 90
2
 38
0
 10
4514.14974551028
 20
1907.20492400668
 10
4808.96224548717
 20
1882.26267795192
  0
LWPOLYLINE
  5
20143
100
AcDbEntity
  8
0
100
AcDbPolyline
 70
0
 90
2
 38
0
 10
4610.56105520087
 20
1794.0529312487
 10
4764.63827277301
 20
1777.71146141071
  0
LWPOLYLINE
  5
20144
100
AcDbEntity
  8
0
100
AcDbPolyline
 70
0
 90
2
 38
0
 10
4610.99137378883
 20
1756.63958703594
 10
4759.47367761476
 20
1745.02857147349
  0
LWPOLYLINE
  5
20145
100
AcDbEntity
  8
0
100
AcDbPolyline
 70
0
 90
2
 38
0
 10
4549.88896534164
 20
1850.84479383546
 10
4547.99589813245
 20
1777.88534810711
  0
LWPOLYLINE
  5
20146
100
AcDbEntity
  8
0
100
AcDbPolyline
 70
0
 90
2
 38
0
 10
4497.15383417506
 20
1782.20888960714
 10
4559.35430138753
 20
1785.45150842809
  0
LWPOLYLINE
  5
20147
100
AcDbEntity
  8
0
100
AcDbPolyline
 70
0
 90
2
 38
0
 10
4541.50547390367
 20
1787.88348497849
 10
4552.59338383583
 20
1739.78431583246
  0
LWPOLYLINE
  5
20148
100
AcDbEntity
  8
0
100
AcDbPolyline
 70
0
 90
2
 38
0
 10
4517.70695146933
 20
1703.57484850743
 10
4553.94559308293
 20
1747.08024548367
  0
LWPOLYLINE
  5
20149
100
AcDbEntity
  8
0
100
AcDbPolyline
 70
0
 90
2
 38
0
 10
4533.39234710488
 20
1757.0784320938
 10
4616.41642493455
 20
1775.18314088694
  0
LWPOLYLINE
  5
2014A
100
AcDbEntity
  8
0
100
AcDbPolyline
 70
0
 90
2
 38
0
 10
4597.75624616567
 20
1763.5636697357
 10
4608.30329813575
 20
1838.68486134469
  0
LWPOLYLINE
  5
2014B
100
AcDbEntity
  8
0
100
AcDbPolyline
 70
0
 90
2
 38
0
 10
4860.00183905955
 20
1925.68675205955
 10
4857.22741658453
 20
1582.62844427009
  0
LWPOLYLINE
  5
2014C
100
AcDbEntity
  8
0
100
AcDbPolyline
 70
0
 90
2
 38
0
 10
4928.6685379486
 20
1561.14398690143
 10
4942.54052163989
 20
1676.88284270082
  0
LWPOLYLINE
  5
2014D
100
AcDbEntity
  8
0
100
AcDbPolyline
 70
0
 90
2
 38
0
 10
4917.57084804855
 20
1657.47756487527
 10
5050.04900649539
 20
1669.95239344009
  0
LWPOLYLINE
  5
2014E
100
AcDbEntity
  8
0
100
AcDbPolyline
 70
0
 90
2
 38
0
 10
4919.65166490481
 20
1625.59735900738
 10
5050.04900649539
 20
1618.66690974665
  0
LWPOLYLINE
  5
2014F
100
AcDbEntity
  8
0
100
AcDbPolyline
 70
0
 90
2
 38
0
 10
5035.48341718535
 20
1628.36954865943
 10
5019.53048795401
 20
1532.03602042435
  0
LWPOLYLINE
  5
20150
100
AcDbEntity
  8
0
100
AcDbPolyline
 70
0
 90
2
 38
0
 10
4989.7139394776
 20
1924.34748627377
 10
4982.08427767133
 20
1789.89636275778
  0
LWPOLYLINE
  5
20151
100
AcDbEntity
  8
0
100
AcDbPolyline
 70
0
 90
2
 38
0
 10
4968.90577091501
 20
1807.22256051774
 10
5075.027044533
 20
1787.81723295343
  0
LWPOLYLINE
  5
20152
100
AcDbEntity
  8
0
100
AcDbPolyline
 70
0
 90
2
 38
0
 10
4918.27281811353
 20
1868.90374297165
 10
5005.66674002516
 20
1869.59680281934
  0
LWPOLYLINE
  5
20153
100
AcDbEntity
  8
0
100
AcDbPolyline
 70
0
 90
2
 38
0
 10
4937.69364675486
 20
1886.92295084055
 10
4929.37037932981
 20
1743.46224825949
  0
LWPOLYLINE
  5
20154
100
AcDbEntity
  8
0
100
AcDbPolyline
 70
0
 90
2
 38
0
 10
4934.22561866109
 20
1780.193723845
 10
4904.40070573846
 20
1658.21742889383
  0
LWPOLYLINE
  5
20155
100
AcDbEntity
  8
0
100
AcDbPolyline
 70
0
 90
2
 38
0
 10
4896.60259685334
 20
1681.32332001984
 10
4955.21844845987
 20
1653.12343403935
  0
LWPOLYLINE
  5
20156
100
AcDbEntity
  8
0
100
AcDbPolyline
 70
0
 90
2
 38
0
 10
4847.59144583539
 20
1852.51223594356
 10
4946.40142133925
 20
1849.0327114204
  0
LWPOLYLINE
  5
20157
100
AcDbEntity
  8
0
100
AcDbPolyline
 70
0
 90
2
 38
0
 10
4849.76787474632
 20
1814.67268031735
 10
4942.48377208927
 20
1814.23776462133
  0
LWPOLYLINE
  5
20158
100
AcDbEntity
  8
0
100
AcDbPolyline
 70
0
 90
2
 38
0
 10
4845.41501692444
 20
1782.4873271719
 10
4942.91910934498
 20
1785.53188626029
  0
LWPOLYLINE
  5
20159
100
AcDbEntity
  8
0
100
AcDbPolyline
 70
0
 90
2
 38
0
 10
4850.20321200203
 20
1756.39109220322
 10
4929.69813693853
 20
1754.0654073777
  0
LWPOLYLINE
  5
2015A
100
AcDbEntity
  8
0
100
AcDbPolyline
 70
0
 90
2
 38
0
 10
4847.47923357203
 20
1720.41972431058
 10
4927.7922013505
 20
1719.60082540628
  0
LWPOLYLINE
  5
2015B
100
AcDbEntity
  8
0
100
AcDbPolyline
 70
0
 90
2
 38
0
 10
5000.66621669693
 20
1810.12690604859
 10
4959.92904721314
 20
1737.9093138891
  0
LWPOLYLINE
  5
2015C
100
AcDbEntity
  8
0
100
AcDbPolyline
 70
0
 90
2
 38
0
 10
4962.11924528942
 20
1757.60501631998
 10
4995.84778092909
 20
1658.25115177144
  0
LWPOLYLINE
  5
2015D
100
AcDbEntity
  8
0
100
AcDbPolyline
 70
0
 90
2
 38
0
 10
4851.26781298235
 20
1681.30014175882
 10
4928.45878337373
 20
1689.18831079618
  0
LWPOLYLINE
  5
2015E
100
AcDbEntity
  8
0
100
AcDbPolyline
 70
0
 90
2
 38
0
 10
4848.19780384569
 20
1653.25320245779
 10
4947.75659031348
 20
1644.05028884212
  0
LWPOLYLINE
  5
2015F
100
AcDbEntity
  8
0
100
AcDbPolyline
 70
0
 90
2
 38
0
 10
4777.33421532335
 20
1637.81563506076
 10
4759.39826891484
 20
1579.91514530698
  0
LWPOLYLINE
  5
20160
100
AcDbEntity
  8
0
100
AcDbPolyline
 70
0
 90
2
 38
0
 10
4768.78021786595
 20
1584.87807853531
 10
4638.53755418886
 20
1625.95980533365
  0
LWPOLYLINE
  5
20161
100
AcDbEntity
  8
0
100
AcDbPolyline
 70
0
 90
2
 38
0
 10
4599.63039685797
 20
1603.07535115624
 10
4655.64567778746
 20
1628.99272555277
  0
LWPOLYLINE
  5
20162
100
AcDbEntity
  8
0
100
AcDbPolyline
 70
0
 90
2
 38
0
 10
4668.61481602027
 20
1625.40840146745
 10
4657.02542536525
 20
1522.84181109125
  0
LWPOLYLINE
  5
20163
100
AcDbEntity
  8
0
100
AcDbPolyline
 70
0
 90
2
 38
0
 10
4598.52667600603
 20
1544.62345753626
 10
4664.19980392864
 20
1531.38901866614
  0
LWPOLYLINE
  5
20164
100
AcDbEntity
  8
0
100
AcDbPolyline
 70
0
 90
2
 38
0
 10
4644.60821190031
 20
1549.03488742088
 10
4754.98325682321
 20
1555.37638005346
  0
LWPOLYLINE
  5
20165
100
AcDbEntity
  8
0
100
AcDbPolyline
 70
0
 90
2
 38
0
 10
4719.93918681607
 20
1561.99357461914
 10
4763.53738296439
 20
1583.49946939229
  0
LWPOLYLINE
  5
20166
100
AcDbEntity
  8
0
100
AcDbPolyline
 70
0
 90
2
 38
0
 10
4729.32113576721
 20
1576.88227482662
 10
4739.96624478392
 20
1475.73244322046
  0
LWPOLYLINE
  5
20167
100
AcDbEntity
  8
0
100
AcDbPolyline
 70
0
 90
2
 38
0
 10
4636.07210148947
 20
1517.95333678297
 10
4748.66179440843
 20
1486.7188394656
  0
LWPOLYLINE
  5
20168
100
AcDbEntity
  8
0
100
AcDbPolyline
 70
0
 90
2
 38
0
 10
4914.23060295652
 20
1590.48388520497
 10
4921.31902074936
 20
1437.76326839207
  0
LWPOLYLINE
  5
20169
100
AcDbEntity
  8
0
100
AcDbPolyline
 70
0
 90
2
 38
0
 10
5027.20158594011
 20
1546.2170375894
 10
5003.71718063293
 20
1431.39839854345
  0
LWPOLYLINE
  5
2016A
100
AcDbEntity
  8
0
100
AcDbPolyline
 70
0
 90
2
 38
0
 10
5006.38981423143
 20
1460.71332799069
 10
5013.03517374129
 20
1384.13165724377
  0
LWPOLYLINE
  5
2016B
100
AcDbEntity
  8
0
100
AcDbPolyline
 70
0
 90
2
 38
0
 10
5018.66200106699
 20
1390.41828802678
 10
4469.70481003518
 20
1500.92054795379
  0
LWPOLYLINE
  5
2016C
100
AcDbEntity
  8
0
100
AcDbPolyline
 70
0
 90
2
 38
0
 10
4785.21558261948
 20
1432.18730497694
 10
4759.81082914001
 20
1584.74278911477
  0
LWPOLYLINE
  5
2016D
100
AcDbEntity
  8
0
100
AcDbPolyline
 70
0
 90
2
 38
0
 10
4760.50392002362
 20
1469.21268688082
 10
4844.26471254113
 20
1481.24891908156
  0
LWPOLYLINE
  5
2016E
100
AcDbEntity
  8
0
100
AcDbPolyline
 70
0
 90
2
 38
0
 10
4516.9473310672
 20
1725.76146791641
 10
4472.34553005418
 20
1489.27352153088
  0
LWPOLYLINE
  5
2016F
100
AcDbEntity
  8
0
100
AcDbPolyline
 70
0
 90
2
 38
0
 10
4311.00604289124
 20
1558.44401792535
 10
4495.64179966293
 20
1564.29364398452
  0
LWPOLYLINE
  5
20170
100
AcDbEntity
  8
0
100
AcDbPolyline
 70
0
 90
2
 38
0
 10
4473.57561838621
 20
1554.84427482519
 10
4612.27756825255
 20
1526.04618080764
  0
LWPOLYLINE
  5
20171
100
AcDbEntity
  8
0
100
AcDbPolyline
 70
0
 90
2
 38
0
 10
4268.71733297233
 20
1775.16041027474
 10
4315.66980074558
 20
1649.75343426031
  0
LWPOLYLINE
  5
20172
100
AcDbEntity
  8
0
100
AcDbPolyline
 70
0
 90
2
 38
0
 10
4166.23459346755
 20
1674.11304050914
 10
4317.02419761708
 20
1665.09097701592
  0
LWPOLYLINE
  5
20173
100
AcDbEntity
  8
0
100
AcDbPolyline
 70
0
 90
2
 38
0
 10
3988.35692320424
 20
1781.92697032934
 10
4195.57990191132
 20
1737.26763417794
  0
LWPOLYLINE
  5
20174
100
AcDbEntity
  8
0
100
AcDbPolyline
 70
0
 90
2
 38
0
 10
4154.49644435328
 20
1792.75345646896
 10
4107.09255385079
 20
1601.93638334711
  0
LWPOLYLINE
  5
20175
100
AcDbEntity
  8
0
100
AcDbPolyline
 70
0
 90
2
 38
0
 10
4084.51922976453
 20
1812.15097504833
 10
4037.56676199127
 20
1653.3622795531
  0
LWPOLYLINE
  5
20176
100
AcDbEntity
  8
0
100
AcDbPolyline
 70
0
 90
2
 38
0
 10
4042.53279806423
 20
1678.62409712512
 10
4075.03845166403
 20
1609.60515472491
  0
LWPOLYLINE
  5
20177
100
AcDbEntity
  8
0
100
AcDbPolyline
 70
0
 90
2
 38
0
 10
4060.14008607753
 20
1622.23606351092
 10
4227.18245268505
 20
1571.2612978359
  0
LWPOLYLINE
  5
20178
100
AcDbEntity
  8
0
100
AcDbPolyline
 70
0
 90
2
 38
0
 10
4210.0267160848
 20
1571.71237862812
 10
4261.04237447257
 20
1587.95213270692
  0
LWPOLYLINE
  5
20179
100
AcDbEntity
  8
0
100
AcDbPolyline
 70
0
 90
2
 38
0
 10
4249.30435404208
 20
1575.32122392091
 10
4262.84832275708
 20
1655.61778299172
  0
LWPOLYLINE
  5
2017A
100
AcDbEntity
  8
0
100
AcDbPolyline
 70
0
 90
2
 38
0
 10
4242.08081827155
 20
1643.43795499793
 10
4326.05355298833
 20
1657.87328643034
  0
LWPOLYLINE
  5
2017B
100
AcDbEntity
  8
0
100
AcDbPolyline
 70
0
 90
2
 38
0
 10
4365.91065404419
 20
2250.62637446503
 10
4361.64478646318
 20
2173.33169862863
  0
LWPOLYLINE
  5
2017C
100
AcDbEntity
  8
0
100
AcDbPolyline
 70
0
 90
2
 38
0
 10
4346.28714843635
 20
2189.24531567418
 10
4400.03862416267
 20
2192.93956241368
  0
LWPOLYLINE
  5
2017D
100
AcDbEntity
  8
0
100
AcDbPolyline
 70
0
 90
2
 38
0
 10
4394.06628086543
 20
2247.50049250804
 10
4388.94711108442
 20
2177.31010289001
  0
LWPOLYLINE
  5
2017E
100
AcDbEntity
  8
0
100
AcDbPolyline
 70
0
 90
2
 38
0
 10
4377.85546932241
 20
2214.82078585131
 10
4474.55129886884
 20
2207.71649963294
  0
LWPOLYLINE
  5
2017F
100
AcDbEntity
  8
0
100
AcDbPolyline
 70
0
 90
2
 38
0
 10
4419.37786728222
 20
2217.37830302576
 10
4431.03816270459
 20
2138.09442505867
  0
LWPOLYLINE
  5
20180
100
AcDbEntity
  8
0
100
AcDbPolyline
 70
0
 90
2
 38
0
 10
4418.24017391016
 20
2176.45758058561
 10
4469.14773791577
 20
2184.69859636902
  0
LWPOLYLINE
  5
20181
100
AcDbEntity
  8
0
100
AcDbPolyline
 70
0
 90
2
 38
0
 10
4454.64340208896
 20
2192.37119763115
 10
4466.87260853924
 20
2113.65568444658
  0
LWPOLYLINE
  5
20182
100
AcDbEntity
  8
0
100
AcDbPolyline
 70
0
 90
2
 38
0
 10
4455.49657560515
 20
2121.61249296935
 10
4561.86196236947
 20
2105.41471840193
  0
LWPOLYLINE
  5
20183
100
AcDbEntity
  8
0
100
AcDbPolyline
 70
0
 90
2
 38
0
 10
4464.5973504789
 20
2237.55448185458
 10
4464.5973504789
 20
2176.17342306372
  0
LWPOLYLINE
  5
20184
100
AcDbEntity
  8
0
100
AcDbPolyline
 70
0
 90
2
 38
0
 10
4458.62500718169
 20
2196.34960189254
 10
4518.91760854932
 20
2183.84607406462
  0
LWPOLYLINE
  5
20185
100
AcDbEntity
  8
0
100
AcDbPolyline
 70
0
 90
2
 38
0
 10
4522.33043129795
 20
2210.27401680739
 10
4491.33089275603
 20
2109.6772801852
  0
LWPOLYLINE
  5
20186
100
AcDbEntity
  8
0
100
AcDbPolyline
 70
0
 90
2
 38
0
 10
4278.53577733322
 20
2041.4012856065
 10
4558.54114852948
 20
2067.83007390816
  0
LWPOLYLINE
  5
20187
100
AcDbEntity
  8
0
100
AcDbPolyline
 70
0
 90
2
 38
0
 10
4276.26489452171
 20
2107.00894505892
 10
4401.17464464548
 20
2112.43549324637
  0
LWPOLYLINE
  5
20188
100
AcDbEntity
  8
0
100
AcDbPolyline
 70
0
 90
2
 38
0
 10
4374.02043506451
 20
2046.46051306945
 10
4404.03309763421
 20
2149.56423228844
  0
LWPOLYLINE
  5
20189
100
AcDbEntity
  8
0
100
AcDbPolyline
 70
0
 90
2
 38
0
 10
4273.69237691048
 20
2124.71653961178
 10
4438.90486004885
 20
2147.85058287457
  0
LWPOLYLINE
  5
2018A
100
AcDbEntity
  8
0
100
AcDbPolyline
 70
0
 90
2
 38
0
 10
4426.04227199272
 20
2142.13848448002
 10
4468.91752261858
 20
2140.42483506616
  0
LWPOLYLINE
  5
2018B
100
AcDbEntity
  8
0
100
AcDbPolyline
 70
0
 90
2
 38
0
 10
4370.87617538203
 20
2087.01655093925
 10
4465.48758492613
 20
2091.87184949624
  0
LWPOLYLINE
  5
2018C
100
AcDbEntity
  8
0
100
AcDbPolyline
 70
0
 90
2
 38
0
 10
4461.48590516241
 20
2126.14453934103
 10
4447.76576834128
 20
2046.7461130153
  0
LWPOLYLINE
  5
2018D
100
AcDbEntity
  8
0
100
AcDbPolyline
 70
0
 90
2
 38
0
 10
4341.64217841512
 20
2257.36756775328
 10
4336.14223330462
 20
2198.74750739402
  0
LWPOLYLINE
  5
2018E
100
AcDbEntity
  8
0
100
AcDbPolyline
 70
0
 90
2
 38
0
 10
4332.01714578795
 20
2227.59956796351
 10
4373.26737753558
 20
2223.47786634162
  0
LWPOLYLINE
  5
2018F
100
AcDbEntity
  8
0
100
AcDbPolyline
 70
0
 90
2
 38
0
 10
4282.97511066083
 20
2208.82283881712
 10
4349.89222476463
 20
2203.78519797495
  0
LWPOLYLINE
  5
20190
100
AcDbEntity
  8
0
100
AcDbPolyline
 70
0
 90
2
 38
0
 10
4438.09312271248
 20
2073.6669668454
 10
4445.43324599517
 20
1849.23738640772
  0
LWPOLYLINE
  5
20191
100
AcDbEntity
  8
0
100
AcDbPolyline
 70
0
 90
2
 38
0
 10
4359.5531601687
 20
2069.99982772876
 10
4374.96754774614
 20
1842.63655589327
  0
LWPOLYLINE
  5
20192
100
AcDbEntity
  8
0
100
AcDbPolyline
 70
0
 90
2
 38
0
 10
4509.29283328977
 20
2080.26784709861
 10
4496.81449502541
 20
1938.71586933851
  0
LWPOLYLINE
  5
20193
100
AcDbEntity
  8
0
100
AcDbPolyline
 70
0
 90
2
 38
0
 10
4455.70954727475
 20
1900.57748325694
 10
4504.88875932014
 20
1958.51846035937
  0
LWPOLYLINE
  5
20194
100
AcDbEntity
  8
0
100
AcDbPolyline
 70
0
 90
2
 38
0
 10
4281.01319762494
 20
1933.58183478421
 10
4515.89907292797
 20
1960.71875377711
  0
LWPOLYLINE
  5
20195
100
AcDbEntity
  8
0
100
AcDbPolyline
 70
0
 90
2
 38
0
 10
4290.55548657622
 20
1899.11063755804
 10
4483.60227311656
 20
1910.11210464672
  0
LWPOLYLINE
  5
20196
100
AcDbEntity
  8
0
100
AcDbPolyline
 70
0
 90
2
 38
0
 10
4278.07714831186
 20
1968.78647972921
 10
4514.43104827145
 20
1981.2547925168
  0
LWPOLYLINE
  5
20197
100
AcDbEntity
  8
0
100
AcDbPolyline
 70
0
 90
2
 38
0
 10
4267.80084703228
 20
1997.39024442102
 10
4520.30314689761
 20
2017.9262831607
  0
LWPOLYLINE
  5
20198
100
AcDbEntity
  8
0
100
AcDbPolyline
 70
0
 90
2
 38
0
 10
4131.47478594873
 20
2072.02071344802
 10
4164.3896539952
 20
2008.84005667025
  0
LWPOLYLINE
  5
20199
100
AcDbEntity
  8
0
100
AcDbPolyline
 70
0
 90
2
 38
0
 10
4141.86896157832
 20
2018.64893756915
 10
4217.22683140586
 20
2009.70556079038
  0
LWPOLYLINE
  5
2019A
100
AcDbEntity
  8
0
100
AcDbPolyline
 70
0
 90
2
 38
0
 10
4032.48156473035
 20
2067.44783155639
 10
4047.2731227726
 20
1900.43627492426
  0
LWPOLYLINE
  5
2019B
100
AcDbEntity
  8
0
100
AcDbPolyline
 70
0
 90
2
 38
0
 10
4018.42942373551
 20
1915.2160472527
 10
4104.22097511563
 20
1920.3889775154
  0
LWPOLYLINE
  5
2019C
100
AcDbEntity
  8
0
100
AcDbPolyline
 70
0
 90
2
 38
0
 10
4084.25221090388
 20
1941.81966728714
 10
4106.43974099291
 20
1784.4150024595
  0
LWPOLYLINE
  5
2019D
100
AcDbEntity
  8
0
100
AcDbPolyline
 70
0
 90
2
 38
0
 10
3916.36297628577
 20
2064.50553535353
 10
3957.77946748782
 20
1921.88064285433
  0
LWPOLYLINE
  5
2019E
100
AcDbEntity
  8
0
100
AcDbPolyline
 70
0
 90
2
 38
0
 10
3953.34206441706
 20
1968.43696547991
 10
3922.27959950268
 20
1881.97523767204
  0
LWPOLYLINE
  5
2019F
100
AcDbEntity
  8
0
100
AcDbPolyline
 70
0
 90
2
 38
0
 10
3924.49836537996
 20
1934.44345928125
 10
3968.87316819045
 20
1802.90339602838
  0
LWPOLYLINE
  5
201A0
100
AcDbEntity
  8
0
100
AcDbPolyline
 70
0
 90
2
 38
0
 10
3704.02957829527
 20
2023.09598040417
 10
3836.74837542619
 20
1764.53869859996
  0
LWPOLYLINE
  5
201A1
100
AcDbEntity
  8
0
100
AcDbPolyline
 70
0
 90
2
 38
0
 10
3724.96565854343
 20
1932.98516864864
 10
3933.82922686712
 20
1971.47804285527
  0
LWPOLYLINE
  5
201A2
100
AcDbEntity
  8
0
100
AcDbPolyline
 70
0
 90
2
 38
0
 10
3879.06050579459
 20
2056.34778225025
 10
3899.01858925191
 20
1952.46351270904
  0
LWPOLYLINE
  5
201A3
100
AcDbEntity
  8
0
100
AcDbPolyline
 70
0
 90
2
 38
0
 10
3922.49012618026
 20
1999.00187964315
 10
4045.79750577256
 20
2010.16037198941
  0
LWPOLYLINE
  5
201A4
100
AcDbEntity
  8
0
100
AcDbPolyline
 70
0
 90
2
 38
0
 10
3645.72964538893
 20
2104.82357326845
 10
3886.90172374877
 20
2150.03620335882
  0
LWPOLYLINE
  5
201A5
100
AcDbEntity
  8
0
100
AcDbPolyline
 70
0
 90
2
 38
0
 10
3526.5267639072
 20
2380.87964632132
 10
3673.51363342966
 20
2101.30639650582
  0
LWPOLYLINE
  5
201A6
100
AcDbEntity
  8
0
100
AcDbPolyline
 70
0
 90
2
 38
0
 10
3432.94199362587
 20
2634.05046937667
 10
3553.96678018189
 20
2319.04118991605
  0
LWPOLYLINE
  5
201A7
100
AcDbEntity
  8
0
100
AcDbPolyline
 70
0
 90
2
 38
0
 10
3422.48309005077
 20
2613.14934815657
 10
3719.81882174796
 20
2667.71987783114
  0
LWPOLYLINE
  5
201A8
100
AcDbEntity
  8
0
100
AcDbPolyline
 70
0
 90
2
 38
0
 10
3582.34039734045
 20
2657.16053855833
 10
3616.52254333376
 20
2526.15596276924
  0
LWPOLYLINE
  5
201A9
100
AcDbEntity
  8
0
100
AcDbPolyline
 70
0
 90
2
 38
0
 10
3479.32567905499
 20
2490.59757578054
 10
3621.67324064291
 20
2548.14601460839
  0
LWPOLYLINE
  5
201AA
100
AcDbEntity
  8
0
100
AcDbPolyline
 70
0
 90
2
 38
0
 10
3594.98306480244
 20
2551.88900533029
 10
3725.15623923385
 20
2595.86910900858
  0
LWPOLYLINE
  5
201AB
100
AcDbEntity
  8
0
100
AcDbPolyline
 70
0
 90
2
 38
0
 10
3702.68020009153
 20
2681.02206088904
 10
3716.72770847002
 20
2521.00934430928
  0
LWPOLYLINE
  5
201AC
100
AcDbEntity
  8
0
100
AcDbPolyline
 70
0
 90
2
 38
0
 10
3669.13967146652
 20
2550.01271017923
 10
3721.19535223104
 20
2297.80771431799
  0
LWPOLYLINE
  5
201AD
100
AcDbEntity
  8
0
100
AcDbPolyline
 70
0
 90
2
 38
0
 10
3581.0337421544
 20
2220.83017279972
 10
3789.66670912949
 20
2346.3781581918
  0
LWPOLYLINE
  5
201AE
100
AcDbEntity
  8
0
100
AcDbPolyline
 70
0
 90
2
 38
0
 10
3756.37917283221
 20
2341.69351331196
 10
3782.16534506012
 20
2269.55028059501
  0
LWPOLYLINE
  5
201AF
100
AcDbEntity
  8
0
100
AcDbPolyline
 70
0
 90
2
 38
0
 10
3608.22629950426
 20
2185.69546054784
 10
3802.32533338125
 20
2316.39653043836
  0
LWPOLYLINE
  5
201B0
100
AcDbEntity
  8
0
100
AcDbPolyline
 70
0
 90
2
 38
0
 10
3691.31227423612
 20
2273.38503932459
 10
3650.56249374105
 20
2348.78720517497
  0
LWPOLYLINE
  5
201B1
100
AcDbEntity
  8
0
100
AcDbPolyline
 70
0
 90
2
 38
0
 10
3605.63216301659
 20
2294.79270005159
 10
3671.87240039412
 20
2334.68223857022
  0
LWPOLYLINE
  5
201B2
100
AcDbEntity
  8
0
100
AcDbPolyline
 70
0
 90
2
 38
0
 10
3594.09926454462
 20
2331.136462022
 10
3618.05220752489
 20
2287.99669465251
  0
LWPOLYLINE
  5
201B3
100
AcDbEntity
  8
0
100
AcDbPolyline
 70
0
 90
2
 38
0
 10
3651.76375690452
 20
2297.45198272399
 10
3722.43959577978
 20
2342.66013632619
  0
LWPOLYLINE
  5
201B4
100
AcDbEntity
  8
0
100
AcDbPolyline
 70
0
 90
2
 38
0
 10
3687.42229200061
 20
2410.34498577141
 10
3783.68072535074
 20
2426.45417561164
  0
LWPOLYLINE
  5
201B5
100
AcDbEntity
  8
0
100
AcDbPolyline
 70
0
 90
2
 38
0
 10
3595.43165648833
 20
2494.6812272529
 10
3696.90590114446
 20
2485.20524785829
  0
LWPOLYLINE
  5
201B6
100
AcDbEntity
  8
0
100
AcDbPolyline
 70
0
 90
2
 38
0
 10
3597.80252660335
 20
2529.26856447796
 10
3608.70860634267
 20
2480.94109443477
  0
LWPOLYLINE
  5
201B7
100
AcDbEntity
  8
0
100
AcDbPolyline
 70
0
 90
2
 38
0
 10
3536.15926019405
 20
2520.74020789217
 10
3612.50207573696
 20
2518.84501201326
  0
LWPOLYLINE
  5
201B8
100
AcDbEntity
  8
0
100
AcDbPolyline
 70
0
 90
2
 38
0
 10
4063.93908887473
 20
3050.01216731474
 10
4144.07743275256
 20
2839.53137378312
  0
LWPOLYLINE
  5
201B9
100
AcDbEntity
  8
0
100
AcDbPolyline
 70
0
 90
2
 38
0
 10
3872.36997827506
 20
2842.58180204489
 10
4153.236115331
 20
2911.97945534509
  0
LWPOLYLINE
  5
201BA
100
AcDbEntity
  8
0
100
AcDbPolyline
 70
0
 90
2
 38
0
 10
4257.79774143521
 20
3048.48692831447
 10
4276.11510659216
 20
2879.18718988002
  0
LWPOLYLINE
  5
201BB
100
AcDbEntity
  8
0
100
AcDbPolyline
 70
0
 90
2
 38
0
 10
4227.80026355252
 20
2878.69885475839
 10
4286.42074777544
 20
2895.13527588455
  0
LWPOLYLINE
  5
201BC
100
AcDbEntity
  8
0
100
AcDbPolyline
 70
0
 90
2
 38
0
 10
4232.88468871071
 20
2895.4341063399
 10
4251.72695503998
 20
2832.6768258664
  0
LWPOLYLINE
  5
201BD
100
AcDbEntity
  8
0
100
AcDbPolyline
 70
0
 90
2
 38
0
 10
4214.64054462928
 20
2832.37799541104
 10
4447.17189265843
 20
2864.04631417176
  0
LWPOLYLINE
  5
201BE
100
AcDbEntity
  8
0
100
AcDbPolyline
 70
0
 90
2
 38
0
 10
4436.98348240627
 20
3032.27801226535
 10
4443.58830652281
 20
2902.68895177737
  0
LWPOLYLINE
  5
201BF
100
AcDbEntity
  8
0
100
AcDbPolyline
 70
0
 90
2
 38
0
 10
4481.42751709485
 20
2996.05581181839
 10
4591.90666720248
 20
3045.85161972321
  0
LWPOLYLINE
  5
201C0
100
AcDbEntity
  8
0
100
AcDbPolyline
 70
0
 90
2
 38
0
 10
4471.04029038979
 20
3327.43904052569
 10
4454.10087123761
 20
3067.3953159521
  0
LWPOLYLINE
  5
201C1
100
AcDbEntity
  8
0
100
AcDbPolyline
 70
0
 90
2
 38
0
 10
4429.46152893075
 20
3099.7084479657
 10
4573.44723514328
 20
3028.15795202246
  0
LWPOLYLINE
  5
201C2
100
AcDbEntity
  8
0
100
AcDbPolyline
 70
0
 90
2
 38
0
 10
4329.36458686043
 20
3336.67134974708
 10
4320.12483349536
 20
3111.24883449243
  0
LWPOLYLINE
  5
201C3
100
AcDbEntity
  8
0
100
AcDbPolyline
 70
0
 90
2
 38
0
 10
4286.2458665072
 20
3120.48114371381
 10
4475.50072785869
 20
3106.89798641451
  0
LWPOLYLINE
  5
201C4
100
AcDbEntity
  8
0
100
AcDbPolyline
 70
0
 90
2
 38
0
 10
4302.46208276931
 20
3150.72499419706
 10
4571.41904995643
 20
3140.12944510875
  0
LWPOLYLINE
  5
201C5
100
AcDbEntity
  8
0
100
AcDbPolyline
 70
0
 90
2
 38
0
 10
4558.4050010815
 20
3130.49713679915
 10
4550.21093217988
 20
3287.02212196076
  0
LWPOLYLINE
  5
201C6
100
AcDbEntity
  8
0
100
AcDbPolyline
 70
0
 90
2
 38
0
 10
4305.35412222682
 20
3287.02212196076
 10
4569.49098075682
 20
3268.23912573092
  0
LWPOLYLINE
  5
201C7
100
AcDbEntity
  8
0
100
AcDbPolyline
 70
0
 90
2
 38
0
 10
4316.44010190215
 20
3251.38256131974
 10
4561.77896132605
 20
3241.26868235954
  0
LWPOLYLINE
  5
201C8
100
AcDbEntity
  8
0
100
AcDbPolyline
 70
0
 90
2
 38
0
 10
4313.54819112844
 20
3218.63272301485
 10
4560.3329415973
 20
3208.0372236653
  0
LWPOLYLINE
  5
201C9
100
AcDbEntity
  8
0
100
AcDbPolyline
 70
0
 90
2
 38
0
 10
4307.28206274263
 20
3184.4380235419
 10
4566.11702051229
 20
3170.95280185621
  0
LWPOLYLINE
  5
201CA
100
AcDbEntity
  8
0
100
AcDbPolyline
 70
0
 90
2
 38
0
 10
1843.98661838016
 20
1867.98959434664
 10
1754.76821771849
 20
1539.76691551033
  0
LWPOLYLINE
  5
201CB
100
AcDbEntity
  8
0
100
AcDbPolyline
 70
0
 90
2
 38
0
 10
1647.30065430766
 20
1541.79302379912
 10
1791.26667190059
 20
1574.21006007725
  0
LWPOLYLINE
  5
201CC
100
AcDbEntity
  8
0
100
AcDbPolyline
 70
0
 90
2
 38
0
 10
2281.47649649426
 20
2236.00253314151
 10
2677.15057761132
 20
2300.81511855448
  0
LWPOLYLINE
  5
201CD
100
AcDbEntity
  8
0
100
AcDbPolyline
 70
0
 90
2
 38
0
 10
2077.8647709373
 20
2313.40126245871
 10
2433.90836314965
 20
2248.96505022411
  0
LWPOLYLINE
  5
201CE
100
AcDbEntity
  8
0
100
AcDbPolyline
 70
0
 90
2
 38
0
 10
1794.99219625469
 20
2200.35556142561
 10
2129.04475852268
 20
2317.01826490773
  0
LWPOLYLINE
  5
201CF
100
AcDbEntity
  8
0
100
AcDbPolyline
 70
0
 90
2
 38
0
 10
1826.2222074614
 20
2237.20700689434
 10
1730.90303708182
 20
2002.27483910621
  0
LWPOLYLINE
  5
201D0
100
AcDbEntity
  8
0
100
AcDbPolyline
 70
0
 90
2
 38
0
 10
1373.77386843167
 20
1992.11559839912
 10
1783.01083478061
 20
2021.3233905626
  0
LWPOLYLINE
  5
201D1
100
AcDbEntity
  8
0
100
AcDbPolyline
 70
0
 90
2
 38
0
 10
1538.19057102341
 20
2032.2067281021
 10
1496.19731908235
 20
1404.08416087989
  0
LWPOLYLINE
  5
201D2
100
AcDbEntity
  8
0
100
AcDbPolyline
 70
0
 90
2
 38
0
 10
1184.42931447976
 20
1629.14025070766
 10
1540.73567898774
 20
1590.99514989382
  0
LWPOLYLINE
  5
201D3
100
AcDbEntity
  8
0
100
AcDbPolyline
 70
0
 90
2
 38
0
 10
1435.11627214399
 20
1280.74840620736
 10
1514.01268878127
 20
1466.38782388453
  0
LWPOLYLINE
  5
201D4
100
AcDbEntity
  8
0
100
AcDbPolyline
 70
0
 90
2
 38
0
 10
1447.76408695751
 20
1371.80589573533
 10
1433.76637920509
 20
1100.9757744607
  0
LWPOLYLINE
  5
201D5
100
AcDbEntity
  8
0
100
AcDbPolyline
 70
0
 90
2
 38
0
 10
1183.07942154084
 20
999.255489044212
 10
1455.39928216669
 20
1136.57783207853
  0
LWPOLYLINE
  5
201D6
100
AcDbEntity
  8
0
100
AcDbPolyline
 70
0
 90
2
 38
0
 10
4851.41206750899
 20
4046.13150823562
 10
5019.36525796988
 20
3460.81272307564
  0
LWPOLYLINE
  5
201D7
100
AcDbEntity
  8
0
100
AcDbPolyline
 70
0
 90
2
 38
0
 10
4893.62832845512
 20
3793.21942619705
 10
5463.4962490288
 20
4002.5382228748
  0
LWPOLYLINE
  5
201D8
100
AcDbEntity
  8
0
100
AcDbPolyline
 70
0
 90
2
 38
0
 10
5445.83838828673
 20
3983.29051743317
 10
5449.90955729611
 20
4079.03867023064
  0
LWPOLYLINE
  5
201D9
100
AcDbEntity
  8
0
100
AcDbPolyline
 70
0
 90
2
 38
0
 10
5457.13322175041
 20
4053.37506297513
 10
5417.0016381742
 20
4157.63346745064
  0
LWPOLYLINE
  5
201DA
100
AcDbEntity
  8
0
100
AcDbPolyline
 70
0
 90
2
 38
0
 10
5427.43583446197
 20
4106.30625293962
 10
5431.44909576661
 20
4203.34676787451
  0
LWPOLYLINE
  5
201DB
100
AcDbEntity
  8
0
100
AcDbPolyline
 70
0
 90
2
 38
0
 10
5438.67276022094
 20
4171.26725880513
 10
5403.356910053
 20
4289.15945463512
  0
LWPOLYLINE
  5
201DC
100
AcDbEntity
  8
0
100
AcDbPolyline
 70
0
 90
2
 38
0
 10
4747.60941838799
 20
4153.21049817427
 10
4830.59308950815
 20
4027.62714852557
  0
LWPOLYLINE
  5
201DD
100
AcDbEntity
  8
0
100
AcDbPolyline
 70
0
 90
2
 38
0
 10
4814.47982027664
 20
4034.06732285314
 10
4975.61328469458
 20
4071.09827549786
  0
LWPOLYLINE
  5
201DE
100
AcDbEntity
  8
0
100
AcDbPolyline
 70
0
 90
2
 38
0
 10
3417.05906837534
 20
3516.85377911718
 10
3395.79291421029
 20
3354.21654725653
  0
LWPOLYLINE
  5
201DF
100
AcDbEntity
  8
0
100
AcDbPolyline
 70
0
 90
2
 38
0
 10
3408.03563245834
 20
3490.37375989525
 10
3377.738321349
 20
3529.66857208985
  0
LWPOLYLINE
  5
201E0
100
AcDbEntity
  8
0
100
AcDbPolyline
 70
0
 90
2
 38
0
 10
3384.35961699043
 20
3513.83035900075
 10
3396.39824275029
 20
3597.03111438614
  0
LWPOLYLINE
  5
201E1
100
AcDbEntity
  8
0
100
AcDbPolyline
 70
0
 90
2
 38
0
 10
3390.17831184446
 20
3588.61079038176
 10
3514.69081511385
 20
3611.26495411171
  0
LWPOLYLINE
  5
201E2
100
AcDbEntity
  8
0
100
AcDbPolyline
 70
0
 90
2
 38
0
 10
3506.02589223096
 20
3601.3242655053
 10
3543.70321859737
 20
3744.60759967695
  0
LWPOLYLINE
  5
201E3
100
AcDbEntity
  8
0
100
AcDbPolyline
 70
0
 90
2
 38
0
 10
3698.66089064884
 20
3619.95356897432
 10
3515.941492852
 20
3741.58313504662
  0
LWPOLYLINE
  5
201E4
100
AcDbEntity
  8
0
100
AcDbPolyline
 70
0
 90
2
 38
0
 10
3525.71901576825
 20
3728.21415283732
 10
3496.38657570331
 20
3789.91702138953
  0
LWPOLYLINE
  5
201E5
100
AcDbEntity
  8
0
100
AcDbPolyline
 70
0
 90
2
 38
0
 10
3508.22252449665
 20
3754.95206751715
 10
3384.45021037737
 20
4645.51367839905
  0
LWPOLYLINE
  5
201E6
100
AcDbEntity
  8
0
100
AcDbPolyline
 70
0
 90
2
 38
0
 10
5755.97313824866
 20
3056.7148130659
 10
6050.47255056867
 20
3057.54137173886
  0
LWPOLYLINE
  5
201E7
100
AcDbEntity
  8
0
100
AcDbPolyline
 70
0
 90
2
 38
0
 10
5786.47106738392
 20
2956.78288467711
 10
5655.998574461
 20
3006.64469591319
  0
LWPOLYLINE
  5
201E8
100
AcDbEntity
  8
0
100
AcDbPolyline
 70
0
 90
2
 38
0
 10
5527.08560036804
 20
2966.65135260756
 10
5675.23165345524
 20
3006.64469591319
  0
LWPOLYLINE
  5
201E9
100
AcDbEntity
  8
0
100
AcDbPolyline
 70
0
 90
2
 38
0
 10
5484.46115444554
 20
2872.64107199887
 10
5568.67040996515
 20
2986.9077600523
  0
LWPOLYLINE
  5
201EA
100
AcDbEntity
  8
0
100
AcDbPolyline
 70
0
 90
2
 38
0
 10
5384.88345146089
 20
2686.23473241903
 10
5806.33932955706
 20
2620.35684229685
  0
LWPOLYLINE
  5
201EB
100
AcDbEntity
  8
0
100
AcDbPolyline
 70
0
 90
2
 38
0
 10
5465.00172066773
 20
2463.58410838388
 10
5487.53502409585
 20
2517.78746655022
  0
LWPOLYLINE
  5
201EC
100
AcDbEntity
  8
0
100
AcDbPolyline
 70
0
 90
2
 38
0
 10
5382.3796509926
 20
2410.21467022663
 10
5381.54513662567
 20
2539.46878992126
  0
LWPOLYLINE
  5
201ED
100
AcDbEntity
  8
0
100
AcDbPolyline
 70
0
 90
2
 38
0
 10
5324.79468521386
 20
2525.29254767693
 10
5459.15986273182
 20
2529.46204824482
  0
LWPOLYLINE
  5
201EE
100
AcDbEntity
  8
0
100
AcDbPolyline
 70
0
 90
2
 38
0
 10
5429.94992963332
 20
2509.44846541444
 10
5440.79938850581
 20
2690.40423298693
  0
LWPOLYLINE
  5
201EF
100
AcDbEntity
  8
0
100
AcDbPolyline
 70
0
 90
2
 38
0
 10
5631.46307997123
 20
2452.50892845652
 10
5628.85092775323
 20
2508.36460814867
  0
LWPOLYLINE
  5
201F0
100
AcDbEntity
  8
0
100
AcDbPolyline
 70
0
 90
2
 38
0
 10
5706.87538304122
 20
2457.75308462004
 10
5742.56776197362
 20
2428.30594955522
  0
LWPOLYLINE
  5
201F1
100
AcDbEntity
  8
0
100
AcDbPolyline
 70
0
 90
2
 38
0
 10
5735.69128638005
 20
2440.73919651873
 10
5743.87763425437
 20
2380.20896891452
  0
LWPOLYLINE
  5
201F2
100
AcDbEntity
  8
0
100
AcDbPolyline
 70
0
 90
2
 38
0
 10
5596.52375856778
 20
2370.72040561424
 10
5763.19731743811
 20
2394.60530516101
  0
LWPOLYLINE
  5
201F3
100
AcDbEntity
  8
0
100
AcDbPolyline
 70
0
 90
2
 38
0
 10
5083.13386582615
 20
2179.6596125804
 10
5101.86932461118
 20
2230.89441247989
  0
LWPOLYLINE
  5
201F4
100
AcDbEntity
  8
0
100
AcDbPolyline
 70
0
 90
2
 38
0
 10
5089.05036035928
 20
2221.69841255152
 10
5261.61351885099
 20
2261.43823740992
  0
LWPOLYLINE
  5
201F5
100
AcDbEntity
  8
0
100
AcDbPolyline
 70
0
 90
2
 38
0
 10
5149.20089482467
 20
2229.58071241548
 10
5154.13128548832
 20
2296.90848732025
  0
LWPOLYLINE
  5
201F6
100
AcDbEntity
  8
0
100
AcDbPolyline
 70
0
 90
2
 38
0
 10
5254.71092044839
 20
2273.26163746711
 10
5284.62192282538
 20
2183.60076251238
  0
LWPOLYLINE
  5
201F7
100
AcDbEntity
  8
0
100
AcDbPolyline
 70
0
 90
2
 38
0
 10
5190.61609918886
 20
2255.19811236523
 10
5210.99497863382
 20
2172.43416274864
  0
LWPOLYLINE
  5
201F8
100
AcDbEntity
  8
0
100
AcDbPolyline
 70
0
 90
2
 38
0
 10
5180.10199026857
 20
2218.20366796855
 10
5272.36762303638
 20
2244.87339081177
  0
LWPOLYLINE
  5
201F9
100
AcDbEntity
  8
0
100
AcDbPolyline
 70
0
 90
2
 38
0
 10
5645.30971295625
 20
2291.16788861762
 10
5650.71185838766
 20
1957.34999746701
  0
LWPOLYLINE
  5
201FA
100
AcDbEntity
  8
0
100
AcDbPolyline
 70
0
 90
2
 38
0
 10
5638.54364805302
 20
1967.39389399534
 10
5784.56178601741
 20
1972.15155537125
  0
LWPOLYLINE
  5
201FB
100
AcDbEntity
  8
0
100
AcDbPolyline
 70
0
 90
2
 38
0
 10
5713.66885759134
 20
1902.37280371071
 10
5712.09840063934
 20
2297.44715806451
  0
LWPOLYLINE
  5
201FC
100
AcDbEntity
  8
0
100
AcDbPolyline
 70
0
 90
2
 38
0
 10
5768.70678514894
 20
2301.67614618643
 10
5770.82299004699
 20
2140.97355303945
  0
LWPOLYLINE
  5
201FD
100
AcDbEntity
  8
0
100
AcDbPolyline
 70
0
 90
2
 38
0
 10
5767.64874704182
 20
2168.46212504822
 10
5789.87488226735
 20
2045.18824539008
  0
LWPOLYLINE
  5
201FE
100
AcDbEntity
  8
0
100
AcDbPolyline
 70
0
 90
2
 38
0
 10
5790.40390132091
 20
2070.56237307665
 10
5765.53846159804
 20
1954.79302741888
  0
LWPOLYLINE
  5
201FF
100
AcDbEntity
  8
0
100
AcDbPolyline
 70
0
 90
2
 38
0
 10
5635.92094376436
 20
2046.7741159358
 10
5793.04912527249
 20
2054.70351840316
  0
LWPOLYLINE
  5
20200
100
AcDbEntity
  8
0
100
AcDbPolyline
 70
0
 90
2
 38
0
 10
5622.16567626901
 20
2015.05650606635
 10
5784.0552866268
 20
2013.47063552063
  0
LWPOLYLINE
  5
20201
100
AcDbEntity
  8
0
100
AcDbPolyline
 70
0
 90
2
 38
0
 10
5615.28804252137
 20
2081.13489312022
 10
5791.99108716537
 20
2083.77801069642
  0
LWPOLYLINE
  5
20202
100
AcDbEntity
  8
0
100
AcDbPolyline
 70
0
 90
2
 38
0
 10
5629.04331001668
 20
2110.7380089287
 10
5788.81671547642
 20
2114.43842327415
  0
LWPOLYLINE
  5
20203
100
AcDbEntity
  8
0
100
AcDbPolyline
 70
0
 90
2
 38
0
 10
5632.74670075919
 20
2145.09878611312
 10
5780.35189588429
 20
2149.85639775028
  0
LWPOLYLINE
  5
20204
100
AcDbEntity
  8
0
100
AcDbPolyline
 70
0
 90
2
 38
0
 10
5629.57232907025
 20
2178.93089004354
 10
5787.22965831574
 20
2183.68855141946
  0
LWPOLYLINE
  5
20205
100
AcDbEntity
  8
0
100
AcDbPolyline
 70
0
 90
2
 38
0
 10
5624.28188116706
 20
2215.40616128891
 10
5724.80154948181
 20
2213.82029074319
  0
LWPOLYLINE
  5
20206
100
AcDbEntity
  8
0
100
AcDbPolyline
 70
0
 90
2
 38
0
 10
5940.8638176049
 20
2310.47358945056
 10
6140.47334866301
 20
2324.05311582056
  0
LWPOLYLINE
  5
20207
100
AcDbEntity
  8
0
100
AcDbPolyline
 70
0
 90
2
 38
0
 10
6098.85263628897
 20
2323.20442340049
 10
6502.31864946932
 20
2245.12203486077
  0
LWPOLYLINE
  5
20208
100
AcDbEntity
  8
0
100
AcDbPolyline
 70
0
 90
2
 38
0
 10
6447.10751353271
 20
2245.9707770196
 10
6677.29552977753
 20
2247.6682115985
  0
LWPOLYLINE
  5
20209
100
AcDbEntity
  8
0
100
AcDbPolyline
 70
0
 90
2
 38
0
 10
6525.2525455303
 20
2231.54250849076
 10
6515.93828425181
 20
2542.55383635829
  0
LWPOLYLINE
  5
2020A
100
AcDbEntity
  8
0
100
AcDbPolyline
 70
0
 90
2
 38
0
 10
6165.13521063281
 20
2637.61062042582
 10
6430.14866312849
 20
2506.05876908741
  0
LWPOLYLINE
  5
2020B
100
AcDbEntity
  8
0
100
AcDbPolyline
 70
0
 90
2
 38
0
 10
6391.92558881606
 20
2498.42028861296
 10
6452.23311750314
 20
2591.77963810159
  0
LWPOLYLINE
  5
2020C
100
AcDbEntity
  8
0
100
AcDbPolyline
 70
0
 90
2
 38
0
 10
6072.55044207012
 20
2651.19014679582
 10
6188.06910669382
 20
2600.26686073487
  0
LWPOLYLINE
  5
2020D
100
AcDbEntity
  8
0
100
AcDbPolyline
 70
0
 90
2
 38
0
 10
7786.22627358706
 20
2563.10947216846
 10
8056.67198352062
 20
2686.25179281287
  0
LWPOLYLINE
  5
2020E
100
AcDbEntity
  8
0
100
AcDbPolyline
 70
0
 90
2
 38
0
 10
8003.60973816426
 20
2677.70025796608
 10
8070.36535411377
 20
2506.66926259758
  0
LWPOLYLINE
  5
2020F
100
AcDbEntity
  8
0
100
AcDbPolyline
 70
0
 90
2
 38
0
 10
8047.25773493864
 20
2512.65532206871
 10
8497.14874104416
 20
2515.68689934138
  0
LWPOLYLINE
  5
20210
100
AcDbEntity
  8
0
100
AcDbPolyline
 70
0
 90
2
 38
0
 10
7021.4839993121
 20
2629.21382285377
 10
7837.34307743239
 20
2569.03087125477
  0
LWPOLYLINE
  5
20211
100
AcDbEntity
  8
0
100
AcDbPolyline
 70
0
 90
2
 38
0
 10
7841.44976316733
 20
2615.53591322133
 10
8038.86253327594
 20
1939.4430499739
  0
LWPOLYLINE
  5
20212
100
AcDbEntity
  8
0
100
AcDbPolyline
 70
0
 90
2
 38
0
 10
7419.12977343297
 20
2981.30593248324
 10
7561.44735169821
 20
3025.0608688061
  0
LWPOLYLINE
  5
20213
100
AcDbEntity
  8
0
100
AcDbPolyline
 70
0
 90
2
 38
0
 10
7441.02480527127
 20
3018.49764079236
 10
7275.78864431585
 20
1927.18990705148
  0
LWPOLYLINE
  5
20214
100
AcDbEntity
  8
0
100
AcDbPolyline
 70
0
 90
2
 38
0
 10
6929.90682481151
 20
3300.77135697153
 10
6957.42289320508
 20
3144.05577289099
  0
LWPOLYLINE
  5
20215
100
AcDbEntity
  8
0
100
AcDbPolyline
 70
0
 90
2
 38
0
 10
6958.79865158541
 20
3186.67144297216
 10
6909.26980568728
 20
2700.02838414029
  0
LWPOLYLINE
  5
20216
100
AcDbEntity
  8
0
100
AcDbPolyline
 70
0
 90
2
 38
0
 10
5555.43695523124
 20
1718.48951234634
 10
5523.67380708974
 20
1417.67169518985
  0
LWPOLYLINE
  5
20217
100
AcDbEntity
  8
0
100
AcDbPolyline
 70
0
 90
2
 38
0
 10
5230.90068778931
 20
1809.56281879922
 10
5312.38004542468
 20
1648.11469141531
  0
LWPOLYLINE
  5
20218
100
AcDbEntity
  8
0
100
AcDbPolyline
 70
0
 90
2
 38
0
 10
5299.9509930512
 20
1688.13176010831
 10
5337.23815017159
 20
1454.92895918142
  0
LWPOLYLINE
  5
20219
100
AcDbEntity
  8
0
100
AcDbPolyline
 70
0
 90
2
 38
0
 10
2127.60555903471
 20
2034.59035858016
 10
2749.99512437024
 20
2056.80075311525
  0
LWPOLYLINE
  5
2021A
100
AcDbEntity
  8
0
100
AcDbPolyline
 70
0
 90
2
 38
0
 10
2445.46879995232
 20
2307.77814670141
 10
2463.25830420978
 20
1419.06517622137
  0
LWPOLYLINE
  5
2021B
100
AcDbEntity
  8
0
100
AcDbPolyline
 70
0
 90
2
 38
0
 10
2243.25792611441
 20
1635.99937459007
 10
2845.76597484661
 20
1652.68364394509
  0
LWPOLYLINE
  5
2021C
100
AcDbEntity
  8
0
100
AcDbPolyline
 70
0
 90
2
 38
0
 10
2823.50239263871
 20
1647.12220424716
 10
2904.20784597143
 20
1684.66188490411
  0
LWPOLYLINE
  5
2021D
100
AcDbEntity
  8
0
100
AcDbPolyline
 70
0
 90
2
 38
0
 10
2861.07213935813
 20
1690.22332460203
 10
3055.87841933542
 20
1598.45969393312
  0
LWPOLYLINE
  5
2021E
100
AcDbEntity
  8
0
100
AcDbPolyline
 70
0
 90
2
 38
0
 10
3166.6157091223
 20
1712.25709680907
 10
3276.81921855545
 20
1988.24189422237
  0
LWPOLYLINE
  5
2021F
100
AcDbEntity
  8
0
100
AcDbPolyline
 70
0
 90
2
 38
0
 10
3272.12084476206
 20
1953.10360077994
 10
3262.28116757609
 20
2116.96719144674
  0
LWPOLYLINE
  5
20220
100
AcDbEntity
  8
0
100
AcDbPolyline
 70
0
 90
2
 38
0
 10
3138.73829665128
 20
2084.7407043488
 10
3481.48782406545
 20
2137.17704341442
  0
LWPOLYLINE
  5
20221
100
AcDbEntity
  8
0
100
AcDbPolyline
 70
0
 90
2
 38
0
 10
3296.72467034338
 20
2099.14718730182
 10
3284.22831634866
 20
2407.60189329253
  0
LWPOLYLINE
  5
20222
100
AcDbEntity
  8
0
100
AcDbPolyline
 70
0
 90
2
 38
0
 10
3041.42298334814
 20
2353.29910734984
 10
3393.79754338943
 20
2350.67155800475
  0
LWPOLYLINE
  5
20223
100
AcDbEntity
  8
0
100
AcDbPolyline
 70
0
 90
2
 38
0
 10
3016.87938177973
 20
2237.6867372109
 10
3447.26733030322
 20
2240.31428655599
  0
LWPOLYLINE
  5
20224
100
AcDbEntity
  8
0
100
AcDbPolyline
 70
0
 90
2
 38
0
 10
3127.32520278619
 20
2115.06751907964
 10
3135.21416242584
 20
2256.07958262652
  0
LWPOLYLINE
  5
20225
100
AcDbEntity
  8
0
100
AcDbPolyline
 70
0
 90
2
 38
0
 10
3052.81819016667
 20
2218.41799227483
 10
3061.57769563394
 20
2778.52718555822
  0
LWPOLYLINE
  5
20226
100
AcDbEntity
  8
0
100
AcDbPolyline
 70
0
 90
2
 38
0
 10
2953.76165652448
 20
2675.17671236303
 10
3250.91337040445
 20
2680.43186079196
  0
LWPOLYLINE
  5
20227
100
AcDbEntity
  8
0
100
AcDbPolyline
 70
0
 90
2
 38
0
 10
2884.24307095711
 20
2089.43902738696
 10
2939.67489959058
 20
2043.72244420509
  0
LWPOLYLINE
  5
20228
100
AcDbEntity
  8
0
100
AcDbPolyline
 70
0
 90
2
 38
0
 10
2885.12288201747
 20
2051.63493549488
 10
3059.33718219644
 20
2100.86819805181
  0
LWPOLYLINE
  5
20229
100
AcDbEntity
  8
0
100
AcDbPolyline
 70
0
 90
2
 38
0
 10
3038.22030122577
 20
2253.84288043826
 10
3040.85986309068
 20
2180.87219375071
  0
LWPOLYLINE
  5
2022A
100
AcDbEntity
  8
0
100
AcDbPolyline
 70
0
 90
2
 38
0
 10
2874.56450587403
 20
2167.68470826771
 10
3056.69762033153
 20
2206.36793269949
  0
LWPOLYLINE
  5
2022B
100
AcDbEntity
  8
0
100
AcDbPolyline
 70
0
 90
2
 38
0
 10
3013.58391864602
 20
2204.60961788134
 10
3008.27571238006
 20
2157.40992442684
  0
LWPOLYLINE
  5
2022C
100
AcDbEntity
  8
0
100
AcDbPolyline
 70
0
 90
2
 38
0
 10
2981.83762808079
 20
2162.36305911993
 10
3021.49475452968
 20
2166.76588419949
  0
LWPOLYLINE
  5
2022D
100
AcDbEntity
  8
0
100
AcDbPolyline
 70
0
 90
2
 38
0
 10
2982.93916130834
 20
2173.9205060405
 10
3020.9439879159
 20
2068.80316296087
  0
LWPOLYLINE
  5
2022E
100
AcDbEntity
  8
0
100
AcDbPolyline
 70
0
 90
2
 38
0
 10
2903.62490841058
 20
2064.95069723359
 10
2894.38914424294
 20
2444.95853532168
  0
LWPOLYLINE
  5
2022F
100
AcDbEntity
  8
0
100
AcDbPolyline
 70
0
 90
2
 38
0
 10
2706.74077130416
 20
2255.70007590642
 10
2934.9141141599
 20
2259.22113229214
  0
LWPOLYLINE
  5
20230
100
AcDbEntity
  8
0
100
AcDbPolyline
 70
0
 90
2
 38
0
 10
2624.80986225579
 20
2221.36944040909
 10
2742.86089514877
 20
2261.86196188549
  0
LWPOLYLINE
  5
20231
100
AcDbEntity
  8
0
100
AcDbPolyline
 70
0
 90
2
 38
0
 10
3088.62895818429
 20
2088.1352253353
 10
3114.64701859864
 20
2056.60682169957
  0
LWPOLYLINE
  5
20232
100
AcDbEntity
  8
0
100
AcDbPolyline
 70
0
 90
2
 38
0
 10
3096.93266567351
 20
2059.92559055833
 10
3177.75444915082
 20
2074.30695543879
  0
LWPOLYLINE
  5
20233
100
AcDbEntity
  8
0
100
AcDbPolyline
 70
0
 90
2
 38
0
 10
3149.52212679177
 20
2099.19782135701
 10
3218.7188742047
 20
1944.32137757563
  0
LWPOLYLINE
  5
20234
100
AcDbEntity
  8
0
100
AcDbPolyline
 70
0
 90
2
 38
0
 10
3201.55811893669
 20
1953.72458916796
 10
3334.96936353226
 20
1934.36507099935
  0
LWPOLYLINE
  5
20235
100
AcDbEntity
  8
0
100
AcDbPolyline
 70
0
 90
2
 38
0
 10
3263.00475651751
 20
1975.29668622741
 10
3341.05868039301
 20
1970.87162792323
  0
LWPOLYLINE
  5
20236
100
AcDbEntity
  8
0
100
AcDbPolyline
 70
0
 90
2
 38
0
 10
3290.12988356232
 20
1928.28062826578
 10
3360.43369760571
 20
2040.01287792825
  0
LWPOLYLINE
  5
20237
100
AcDbEntity
  8
0
100
AcDbPolyline
 70
0
 90
2
 38
0
 10
3357.11224034677
 20
2011.80324315128
 10
3347.14799725375
 20
2131.27936971546
  0
LWPOLYLINE
  5
20238
100
AcDbEntity
  8
0
100
AcDbPolyline
 70
0
 90
2
 38
0
 10
3074.24661458873
 20
2014.47978517256
 10
3151.38726961889
 20
2029.45189727644
  0
LWPOLYLINE
  5
20239
100
AcDbEntity
  8
0
100
AcDbPolyline
 70
0
 90
2
 38
0
 10
3135.29317427182
 20
2010.5981227946
 10
3134.18327659804
 20
2075.47740788146
  0
LWPOLYLINE
  5
2023A
100
AcDbEntity
  8
0
100
AcDbPolyline
 70
0
 90
2
 38
0
 10
3094.78042931476
 20
2008.38002290167
 10
3037.06369133684
 20
2108.74885653677
  0
LWPOLYLINE
  5
2023B
100
AcDbEntity
  8
0
100
AcDbPolyline
 70
0
 90
2
 38
0
 10
2990.44631614821
 20
2041.09693414906
 10
3080.35124482028
 20
2067.71408312555
  0
LWPOLYLINE
  5
2023C
100
AcDbEntity
  8
0
100
AcDbPolyline
 70
0
 90
2
 38
0
 10
2997.10595955855
 20
2052.18738387499
 10
3020.41471149476
 20
2002.28026063077
  0
LWPOLYLINE
  5
2023D
100
AcDbEntity
  8
0
100
AcDbPolyline
 70
0
 90
2
 38
0
 10
2909.97583941287
 20
1988.97166127315
 10
3038.17358901062
 20
2015.58881024965
  0
LWPOLYLINE
  5
2023E
100
AcDbEntity
  8
0
100
AcDbPolyline
 70
0
 90
2
 38
0
 10
2978.79194018012
 20
2016.69788506549
 10
3015.419978937
 20
1955.70021261783
  0
LWPOLYLINE
  5
2023F
100
AcDbEntity
  8
0
100
AcDbPolyline
 70
0
 90
2
 38
0
 10
2956.03833010649
 20
1946.27332537692
 10
3012.09015723182
 20
1988.41712386523
  0
LWPOLYLINE
  5
20240
100
AcDbEntity
  8
0
100
AcDbPolyline
 70
0
 90
2
 38
0
 10
2982.67677506407
 20
1953.4821127249
 10
2917.74538049701
 20
1968.45427456754
  0
LWPOLYLINE
  5
20241
100
AcDbEntity
  8
0
100
AcDbPolyline
 70
0
 90
2
 38
0
 10
2740.15544718425
 20
1926.8649637484
 10
2946.60374948598
 20
1969.56329964463
  0
LWPOLYLINE
  5
20242
100
AcDbEntity
  8
0
100
AcDbPolyline
 70
0
 90
2
 38
0
 10
2982.12176188528
 20
1981.76287392517
 10
3005.43051382148
 20
1886.38472774511
  0
LWPOLYLINE
  5
20243
100
AcDbEntity
  8
0
100
AcDbPolyline
 70
0
 90
2
 38
0
 10
2981.56687739029
 20
1878.6214029892
 10
3029.84916343149
 20
1909.67470201282
  0
LWPOLYLINE
  5
20244
100
AcDbEntity
  8
0
100
AcDbPolyline
 70
0
 90
2
 38
0
 10
2988.22652080063
 20
1889.15731530721
 10
2984.89669909545
 20
1840.35921714009
  0
LWPOLYLINE
  5
20245
100
AcDbEntity
  8
0
100
AcDbPolyline
 70
0
 90
2
 38
0
 10
2974.90723397993
 20
1855.33137898273
 10
3010.42524637925
 20
1833.70491746128
  0
LWPOLYLINE
  5
20246
100
AcDbEntity
  8
0
100
AcDbPolyline
 70
0
 90
2
 38
0
 10
2989.33641847441
 20
1834.2594548692
 10
3061.48234094682
 20
1876.95779076543
  0
LWPOLYLINE
  5
20247
100
AcDbEntity
  8
0
100
AcDbPolyline
 70
0
 90
2
 38
0
 10
3039.83849986321
 20
1876.40330309627
 10
3109.20961380925
 20
1829.2687176754
  0
LWPOLYLINE
  5
20248
100
AcDbEntity
  8
0
100
AcDbPolyline
 70
0
 90
2
 38
0
 10
3558.47521670378
 20
1910.99054084381
 10
3498.6941333945
 20
1746.01354808925
  0
LWPOLYLINE
  5
20249
100
AcDbEntity
  8
0
100
AcDbPolyline
 70
0
 90
2
 38
0
 10
3480.19056279593
 20
1780.14672071912
 10
3594.05911520269
 20
1640.76957013289
  0
LWPOLYLINE
  5
2024A
100
AcDbEntity
  8
0
100
AcDbPolyline
 70
0
 90
2
 38
0
 10
2265.78222167734
 20
935.131884900817
 10
3149.05281701597
 20
650.066381999131
  0
LWPOLYLINE
  5
2024B
100
AcDbEntity
  8
0
100
AcDbPolyline
 70
0
 90
2
 38
0
 10
3123.94699597663
 20
508.673916434505
 10
3118.04427060887
 20
739.151481096465
  0
LWPOLYLINE
  5
2024C
100
AcDbEntity
  8
0
100
AcDbPolyline
 70
0
 90
2
 38
0
 10
3110.88919461369
 20
698.042795891531
 10
3212.84909188673
 20
958.993705664077
  0
LWPOLYLINE
  5
2024D
100
AcDbEntity
  8
0
100
AcDbPolyline
 70
0
 90
2
 38
0
 10
3168.12980257503
 20
976.867029757093
 10
3272.77275683342
 20
901.798959141168
  0
LWPOLYLINE
  5
2024E
100
AcDbEntity
  8
0
100
AcDbPolyline
 70
0
 90
2
 38
0
 10
3267.40651417893
 20
933.97103203836
 10
3167.23545024659
 20
679.275765802864
  0
LWPOLYLINE
  5
2024F
100
AcDbEntity
  8
0
100
AcDbPolyline
 70
0
 90
2
 38
0
 10
3169.91863591572
 20
708.766820190591
 10
3178.84929082138
 20
472.600335395102
  0
LWPOLYLINE
  5
20250
100
AcDbEntity
  8
0
100
AcDbPolyline
 70
0
 90
2
 38
0
 10
2996.39498162839
 20
440.428312236676
 10
3194.05379514017
 20
491.367365483777
  0
LWPOLYLINE
  5
20251
100
AcDbEntity
  8
0
100
AcDbPolyline
 70
0
 90
2
 38
0
 10
2747.7561551382
 20
508.347033319886
 10
2861.34289004865
 20
508.347033319886
  0
LWPOLYLINE
  5
20252
100
AcDbEntity
  8
0
100
AcDbPolyline
 70
0
 90
2
 38
0
 10
2833.61693839642
 20
513.709070338795
 10
2976.71845829979
 20
448.471318026284
  0
LWPOLYLINE
  5
20253
100
AcDbEntity
  8
0
100
AcDbPolyline
 70
0
 90
2
 38
0
 10
2925.73857400515
 20
376.084265919817
 10
2982.9791819665
 20
494.048383993228
  0
LWPOLYLINE
  5
20254
100
AcDbEntity
  8
0
100
AcDbPolyline
 70
0
 90
2
 38
0
 10
2964.19713965013
 20
481.537047180369
 10
3143.96839185778
 20
535.157069198161
  0
LWPOLYLINE
  5
20255
100
AcDbEntity
  8
0
100
AcDbPolyline
 70
0
 90
2
 38
0
 10
2951.6756923167
 20
369.828572644008
 10
3015.17702394475
 20
456.514323815893
  0
LWPOLYLINE
  5
20256
100
AcDbEntity
  8
0
100
AcDbPolyline
 70
0
 90
2
 38
0
 10
2912.32277434327
 20
401.106939545534
 10
2976.71845829979
 20
371.615934896559
  0
LWPOLYLINE
  5
20257
100
AcDbEntity
  8
0
100
AcDbPolyline
 70
0
 90
2
 38
0
 10
3147.54592985536
 20
487.792690717419
 10
3175.2717528238
 20
438.640999722876
  0
LWPOLYLINE
  5
20258
100
AcDbEntity
  8
0
100
AcDbPolyline
 70
0
 90
2
 38
0
 10
3166.32797217174
 20
448.471318026284
 10
3886.57152114809
 20
287.73390774901
  0
LWPOLYLINE
  5
20259
100
AcDbEntity
  8
0
100
AcDbPolyline
 70
0
 90
2
 38
0
 10
3380.16027892794
 20
430.673298412199
 10
3278.59183773881
 20
19.0078353962599
  0
LWPOLYLINE
  5
2025A
100
AcDbEntity
  8
0
100
AcDbPolyline
 70
0
 90
2
 38
0
 10
3533.22810086493
 20
347.768438895473
 10
3744.97341394305
 20
1167.4177020935
  0
LWPOLYLINE
  5
2025B
100
AcDbEntity
  8
0
100
AcDbPolyline
 70
0
 90
2
 38
0
 10
3736.09603412572
 20
1566.46981410484
 10
3728.91625084321
 20
1098.72459829399
  0
LWPOLYLINE
  5
2025C
100
AcDbEntity
  8
0
100
AcDbPolyline
 70
0
 90
2
 38
0
 10
4479.2775970443
 20
1325.17705400123
 10
4572.92220528715
 20
1336.45049261619
  0
LWPOLYLINE
  5
2025D
100
AcDbEntity
  8
0
100
AcDbPolyline
 70
0
 90
2
 38
0
 10
4468.55926695204
 20
1284.59266503963
 10
4508.61209604985
 20
1335.32311393756
  0
LWPOLYLINE
  5
2025E
100
AcDbEntity
  8
0
100
AcDbPolyline
 70
0
 90
2
 38
0
 10
4075.92920084641
 20
1179.7497306854
 10
4495.63729573035
 20
1300.37546915282
  0
LWPOLYLINE
  5
2025F
100
AcDbEntity
  8
0
100
AcDbPolyline
 70
0
 90
2
 38
0
 10
4284.65494883284
 20
1225.40717448454
 10
4294.24510815338
 20
1369.70711912175
  0
LWPOLYLINE
  5
20260
100
AcDbEntity
  8
0
100
AcDbPolyline
 70
0
 90
2
 38
0
 10
4144.18810081045
 20
1275.01024470385
 10
4304.96343824564
 20
1282.33800715989
  0
LWPOLYLINE
  5
20261
100
AcDbEntity
  8
0
100
AcDbPolyline
 70
0
 90
2
 38
0
 10
4180.29201049774
 20
1188.76851142062
 10
4148.13702022098
 20
1267.11884264726
  0
LWPOLYLINE
  5
20262
100
AcDbEntity
  8
0
100
AcDbPolyline
 70
0
 90
2
 38
0
 10
4154.34240985874
 20
1232.73488720183
 10
4165.060739951
 20
1307.13954226955
  0
LWPOLYLINE
  5
20263
100
AcDbEntity
  8
0
100
AcDbPolyline
 70
0
 90
2
 38
0
 10
4164.49659022325
 20
1280.64698888071
 10
4154.34240985874
 20
1349.97858911088
  0
LWPOLYLINE
  5
20264
100
AcDbEntity
  8
0
100
AcDbPolyline
 70
0
 90
2
 38
0
 10
4168.44550963375
 20
1331.94112711796
 10
4118.80264989921
 20
1366.32508256339
  0
LWPOLYLINE
  5
20265
100
AcDbEntity
  8
0
100
AcDbPolyline
 70
0
 90
2
 38
0
 10
4126.69817241206
 20
1341.64983415916
 10
4128.39062159535
 20
1432.96462227993
  0
LWPOLYLINE
  5
20266
100
AcDbEntity
  8
0
100
AcDbPolyline
 70
0
 90
2
 38
0
 10
4123.31340272931
 20
1408.16308717028
 10
4170.69992092039
 20
1463.96659090576
  0
LWPOLYLINE
  5
20267
100
AcDbEntity
  8
0
100
AcDbPolyline
 70
0
 90
2
 38
0
 10
4166.18685178211
 20
1441.41971367585
 10
4149.82728177984
 20
1517.51538702274
  0
LWPOLYLINE
  5
20268
100
AcDbEntity
  8
0
100
AcDbPolyline
 70
0
 90
2
 38
0
 10
4149.82728177984
 20
1507.93296668697
 10
4166.18685178211
 20
1550.20832418899
  0
LWPOLYLINE
  5
20269
100
AcDbEntity
  8
0
100
AcDbPolyline
 70
0
 90
2
 38
0
 10
4065.20868312975
 20
1306.70218937441
 10
4167.87930096537
 20
1331.50372448406
  0
LWPOLYLINE
  5
2026A
100
AcDbEntity
  8
0
100
AcDbPolyline
 70
0
 90
2
 38
0
 10
4482.29175741685
 20
705.074413785121
 10
4670.91709767614
 20
711.417299102912
  0
LWPOLYLINE
  5
2026B
100
AcDbEntity
  8
0
100
AcDbPolyline
 70
0
 90
2
 38
0
 10
4419.71887932112
 20
669.735474194727
 10
4512.21794448083
 20
712.323390049198
  0
LWPOLYLINE
  5
2026C
100
AcDbEntity
  8
0
100
AcDbPolyline
 70
0
 90
2
 38
0
 10
4347.17069132658
 20
700.543760098655
 10
4483.19859207276
 20
673.359987196149
  0
LWPOLYLINE
  5
2026D
100
AcDbEntity
  8
0
100
AcDbPolyline
 70
0
 90
2
 38
0
 10
4311.80349632713
 20
655.237471927809
 10
4364.40093584027
 20
706.886645416453
  0
LWPOLYLINE
  5
2026E
100
AcDbEntity
  8
0
100
AcDbPolyline
 70
0
 90
2
 38
0
 10
4352.61182794583
 20
651.612958926395
 10
4214.77025788787
 20
714.135671419288
  0
LWPOLYLINE
  5
2026F
100
AcDbEntity
  8
0
100
AcDbPolyline
 70
0
 90
2
 38
0
 10
4537.60982958149
 20
687.857989463067
 10
4511.31110982492
 20
940.667162012272
  0
LWPOLYLINE
  5
20270
100
AcDbEntity
  8
0
100
AcDbPolyline
 70
0
 90
2
 38
0
 10
4537.89872468615
 20
702.231396142321
 10
4486.04160300692
 20
396.441891736176
  0
LWPOLYLINE
  5
20271
100
AcDbEntity
  8
0
100
AcDbPolyline
 70
0
 90
2
 38
0
 10
4482.40499915052
 20
424.602583575717
 10
4548.95188999548
 20
216.418924822778
  0
LWPOLYLINE
  5
20272
100
AcDbEntity
  8
0
100
AcDbPolyline
 70
0
 90
2
 38
0
 10
4519.86909647979
 20
249.83730176789
 10
4621.65887378473
 20
217.871893408323
  0
LWPOLYLINE
  5
20273
100
AcDbEntity
  8
0
100
AcDbPolyline
 70
0
 90
2
 38
0
 10
4689.96976199923
 20
476.796247243255
 10
5027.01834022562
 20
519.607092209066
  0
LWPOLYLINE
  5
20274
100
AcDbEntity
  8
0
100
AcDbPolyline
 70
0
 90
2
 38
0
 10
4975.03279212571
 20
520.177894190711
 10
5249.81308678319
 20
499.628724419024
  0
LWPOLYLINE
  5
20275
100
AcDbEntity
  8
0
100
AcDbPolyline
 70
0
 90
2
 38
0
 10
5200.11270539529
 20
492.778951423039
 10
5364.89795835665
 20
568.137347166783
  0
LWPOLYLINE
  5
20276
100
AcDbEntity
  8
0
100
AcDbPolyline
 70
0
 90
2
 38
0
 10
5340.33338133077
 20
547.0173256747
 10
5379.75102724967
 20
617.79786565106
  0
LWPOLYLINE
  5
20277
100
AcDbEntity
  8
0
100
AcDbPolyline
 70
0
 90
2
 38
0
 10
5346.61739676315
 20
596.107091916092
 10
5455.72966767181
 20
654.900591322927
  0
LWPOLYLINE
  5
20278
100
AcDbEntity
  8
0
100
AcDbPolyline
 70
0
 90
2
 38
0
 10
5427.16624192556
 20
631.497361904272
 10
5475.15281262132
 20
721.685467689029
  0
LWPOLYLINE
  5
20279
100
AcDbEntity
  8
0
100
AcDbPolyline
 70
0
 90
2
 38
0
 10
5474.22487382413
 20
687.434165509985
 10
5463.26011427734
 20
783.298557783855
  0
LWPOLYLINE
  5
2027A
100
AcDbEntity
  8
0
100
AcDbPolyline
 70
0
 90
2
 38
0
 10
5452.29548341435
 20
739.474832759297
 10
5558.4302688301
 20
948.815763184153
  0
LWPOLYLINE
  5
2027B
100
AcDbEntity
  8
0
100
AcDbPolyline
 70
0
 90
2
 38
0
 10
5549.29294776049
 20
903.166028892432
 10
5569.39489969311
 20
1036.46326297202
  0
LWPOLYLINE
  5
2027C
100
AcDbEntity
  8
0
100
AcDbPolyline
 70
0
 90
2
 38
0
 10
5335.48084435903
 20
1086.67797069292
 10
6202.87366179866
 20
865.689665673846
  0
LWPOLYLINE
  5
2027D
100
AcDbEntity
  8
0
100
AcDbPolyline
 70
0
 90
2
 38
0
 10
2546.90971550727
 20
2769.79186600227
 10
2911.18559570637
 20
2893.07673792583
  0
LWPOLYLINE
  5
2027E
100
AcDbEntity
  8
0
100
AcDbPolyline
 70
0
 90
2
 38
0
 10
8078.93723861777
 20
2524.96830071646
 10
8064.11376699604
 20
2436.09891861062
  0
LWPOLYLINE
  5
2027F
100
AcDbEntity
  8
0
100
AcDbPolyline
 70
0
 90
2
 38
0
 10
7714.83649705449
 20
2308.34919737684
 10
8074.30500829156
 20
2458.31627657177
  0
LWPOLYLINE
  5
20280
100
AcDbEntity
  8
0
100
AcDbPolyline
 70
0
 90
2
 38
0
 10
7307.19186390156
 20
2275.0231853045
 10
7764.86553683764
 20
2317.60642571576
  0
LWPOLYLINE
  5
20281
100
AcDbEntity
  8
0
100
AcDbPolyline
 70
0
 90
2
 38
0
 10
7679.6308002093
 20
2322.2350647546
 10
7680.55732348483
 20
2179.67373838754
  0
LWPOLYLINE
  5
20282
100
AcDbEntity
  8
0
100
AcDbPolyline
 70
0
 90
2
 38
0
 10
7683.33663594379
 20
2210.22258693209
 10
7605.98584028738
 20
1916.26558477576
  0
LWPOLYLINE
  5
20283
100
AcDbEntity
  8
0
100
AcDbPolyline
 70
0
 90
2
 38
0
 10
7603.02212395985
 20
1959.20490495232
 10
7629.69544222404
 20
1870.36496819095
  0
LWPOLYLINE
  5
20284
100
AcDbEntity
  8
0
100
AcDbPolyline
 70
0
 90
2
 38
0
 10
7274.05089843911
 20
2064.33209630595
 10
7493.36500589165
 20
2016.95080664763
  0
LWPOLYLINE
  5
20285
100
AcDbEntity
  8
0
100
AcDbPolyline
 70
0
 90
2
 38
0
 10
7269.60525960589
 20
2206.47596528089
 10
7508.18358752943
 20
2156.13332947557
  0
LWPOLYLINE
  5
20286
100
AcDbEntity
  8
0
100
AcDbPolyline
 70
0
 90
2
 38
0
 10
7525.96575681097
 20
2316.04517585503
 10
7534.85690579365
 20
2095.42608163324
  0
LWPOLYLINE
  5
20287
100
AcDbEntity
  8
0
100
AcDbPolyline
 70
0
 90
2
 38
0
 10
7341.55416719845
 20
2481.87299979623
 10
7491.59843484635
 20
2429.91912667883
  0
LWPOLYLINE
  5
20288
100
AcDbEntity
  8
0
100
AcDbPolyline
 70
0
 90
2
 38
0
 10
7473.7713549227
 20
2450.70067592579
 10
7476.74253490998
 20
2277.02626454855
  0
LWPOLYLINE
  5
20289
100
AcDbEntity
  8
0
100
AcDbPolyline
 70
0
 90
2
 38
0
 10
7038.49432323163
 20
2374.99644660081
 10
7372.75149272295
 20
2321.5581700031
  0
LWPOLYLINE
  5
2028A
100
AcDbEntity
  8
0
100
AcDbPolyline
 70
0
 90
2
 38
0
 10
7371.6322011326
 20
2715.71857468692
 10
7796.62623998715
 20
2764.88901719306
  0
LWPOLYLINE
  5
2028B
100
AcDbEntity
  8
0
100
AcDbPolyline
 70
0
 90
2
 38
0
 10
7377.59708077009
 20
2693.36841424312
 10
7474.52557060574
 20
2663.56818373845
  0
LWPOLYLINE
  5
2028C
100
AcDbEntity
  8
0
100
AcDbPolyline
 70
0
 90
2
 38
0
 10
7420.84203991963
 20
2662.07815977853
 10
7617.68139506775
 20
2696.34846216296
  0
LWPOLYLINE
  5
2028D
100
AcDbEntity
  8
0
100
AcDbPolyline
 70
0
 90
2
 38
0
 10
7555.0507379511
 20
2691.87839028319
 10
7814.52075021583
 20
2690.38836632327
  0
LWPOLYLINE
  5
2028E
100
AcDbEntity
  8
0
100
AcDbPolyline
 70
0
 90
2
 38
0
 10
7775.74935428158
 20
2678.46827412141
 10
7908.46686457461
 20
2764.88901719306
  0
LWPOLYLINE
  5
2028F
100
AcDbEntity
  8
0
100
AcDbPolyline
 70
0
 90
2
 38
0
 10
5236.82052810091
 20
1764.98938148211
 10
5261.13777488578
 20
1820.92001748189
  0
LWPOLYLINE
  5
20290
100
AcDbEntity
  8
0
100
AcDbPolyline
 70
0
 90
2
 38
0
 10
5235.44412630162
 20
1814.96022007475
 10
5303.80764618554
 20
1800.74831514125
  0
LWPOLYLINE
  5
20291
100
AcDbEntity
  8
0
100
AcDbPolyline
 70
0
 90
2
 38
0
 10
5279.94928578965
 20
1790.20399697322
 10
5314.36048892609
 20
1867.22331904782
  0
LWPOLYLINE
  5
20292
100
AcDbEntity
  8
0
100
AcDbPolyline
 70
0
 90
2
 38
0
 10
5288.66671165815
 20
1852.09452985766
 10
5411.17058967651
 20
1808.54193080051
  0
LWPOLYLINE
  5
20293
100
AcDbEntity
  8
0
100
AcDbPolyline
 70
0
 90
2
 38
0
 10
5391.90032106746
 20
1825.50453824278
 10
5387.31210059681
 20
1761.32179471665
  0
LWPOLYLINE
  5
20294
100
AcDbEntity
  8
0
100
AcDbPolyline
 70
0
 90
2
 38
0
 10
5379.51231882244
 20
1769.11541037591
 10
5443.74650462469
 20
1765.90626573879
  0
LWPOLYLINE
  5
20295
100
AcDbEntity
  8
0
100
AcDbPolyline
 70
0
 90
2
 38
0
 10
5427.68792600318
 20
1771.86606314593
 10
5445.58179281294
 20
1723.72904280541
  0
LWPOLYLINE
  5
20296
100
AcDbEntity
  8
0
100
AcDbPolyline
 70
0
 90
2
 38
0
 10
5427.68792600318
 20
1733.35642697801
 10
5596.99100940296
 20
1697.59749331887
  0
LWPOLYLINE
  5
20297
100
AcDbEntity
  8
0
100
AcDbPolyline
 70
0
 90
2
 38
0
 10
5457.0521509638
 20
1687.05317515084
 10
5553.86225171425
 20
1671.00750170399
  0
LWPOLYLINE
  5
20298
100
AcDbEntity
  8
0
100
AcDbPolyline
 70
0
 90
2
 38
0
 10
5398.78258743149
 20
1788.37022845987
 10
5551.10944811566
 20
1748.48521616818
  0
LWPOLYLINE
  5
20299
100
AcDbEntity
  8
0
100
AcDbPolyline
 70
0
 90
2
 38
0
 10
5511.65126680341
 20
1768.19847638048
 10
5504.76900043938
 20
1702.181964341
  0
LWPOLYLINE
  5
2029A
100
AcDbEntity
  8
0
100
AcDbPolyline
 70
0
 90
2
 38
0
 10
5495.5926881819
 20
1737.4824558718
 10
5545.6035835509
 20
1733.81486910635
  0
LWPOLYLINE
  5
2029B
100
AcDbEntity
  8
0
100
AcDbPolyline
 70
0
 90
2
 38
0
 10
5535.50962719932
 20
1742.06692689394
 10
5536.8861576824
 20
1720.06145603995
  0
LWPOLYLINE
  5
2029C
100
AcDbEntity
  8
0
100
AcDbPolyline
 70
0
 90
2
 38
0
 10
5477.69882137215
 20
1715.47693527906
 10
5479.53410956042
 20
1779.20123667685
  0
LWPOLYLINE
  5
2029D
100
AcDbEntity
  8
0
100
AcDbPolyline
 70
0
 90
2
 38
0
 10
5404.74720970143
 20
1754.90350544242
 10
5417.13521194642
 20
1802.12364152627
  0
LWPOLYLINE
  5
2029E
100
AcDbEntity
  8
0
100
AcDbPolyline
 70
0
 90
2
 38
0
 10
5241.40874857156
 20
1767.74003425214
 10
5293.2549321288
 20
1789.74555484488
  0
LWPOLYLINE
  5
2029F
100
AcDbEntity
  8
0
100
AcDbPolyline
 70
0
 90
2
 38
0
 10
5111.563846484
 20
1848.88538522053
 10
5309.31351075027
 20
1836.96574066749
  0
LWPOLYLINE
  5
202A0
100
AcDbEntity
  8
0
100
AcDbPolyline
 70
0
 90
2
 38
0
 10
5184.51558683853
 20
1853.01141411433
 10
5182.68029865029
 20
1815.87710433142
  0
LWPOLYLINE
  5
202A1
100
AcDbEntity
  8
0
100
AcDbPolyline
 70
0
 90
2
 38
0
 10
5165.70407593465
 20
1885.56125287511
 10
5323.07791479459
 20
1871.80779006996
  0
LWPOLYLINE
  5
202A2
100
AcDbEntity
  8
0
100
AcDbPolyline
 70
0
 90
2
 38
0
 10
5235.90288400679
 20
1890.14572389724
 10
5235.90288400679
 20
1836.50729853915
  0
LWPOLYLINE
  5
202A3
100
AcDbEntity
  8
0
100
AcDbPolyline
 70
0
 90
2
 38
0
 10
5207.45630314029
 20
1849.80226947722
 10
5208.37394723442
 20
1708.14176174815
  0
LWPOLYLINE
  5
202A4
100
AcDbEntity
  8
0
100
AcDbPolyline
 70
0
 90
2
 38
0
 10
5187.40530998784
 20
1871.16889572923
 10
5188.32527039014
 20
2001.69632761714
  0
LWPOLYLINE
  5
202A5
100
AcDbEntity
  8
0
100
AcDbPolyline
 70
0
 90
2
 38
0
 10
5612.21880548741
 20
1897.8695063409
 10
5628.40439500794
 20
2002.9919227738
  0
LWPOLYLINE
  5
202A6
100
AcDbEntity
  8
0
100
AcDbPolyline
 70
0
 90
2
 38
0
 10
5627.66870979042
 20
1969.91142120872
 10
5598.24027161946
 20
2060.33140908118
  0
LWPOLYLINE
  5
202A7
100
AcDbEntity
  8
0
100
AcDbPolyline
 70
0
 90
2
 38
0
 10
5468.75504072011
 20
2001.52164510063
 10
5625.46165413788
 20
2000.05141716621
  0
LWPOLYLINE
  5
202A8
100
AcDbEntity
  8
0
100
AcDbPolyline
 70
0
 90
2
 38
0
 10
5513.63351187788
 20
2014.01870689007
 10
5462.13374507867
 20
1894.19391163547
  0
LWPOLYLINE
  5
202A9
100
AcDbEntity
  8
0
100
AcDbPolyline
 70
0
 90
2
 38
0
 10
5432.70517822387
 20
2011.07825102124
 10
5485.67644414192
 20
1939.0363361534
  0
LWPOLYLINE
  5
202AA
100
AcDbEntity
  8
0
100
AcDbPolyline
 70
0
 90
2
 38
0
 10
5256.13454919797
 20
2022.84017397409
 10
5450.36226686323
 20
1999.31627832962
  0
LWPOLYLINE
  5
202AB
100
AcDbEntity
  8
0
100
AcDbPolyline
 70
0
 90
2
 38
0
 10
5148.72064692687
 20
1990.49486098436
 10
5271.58445350098
 20
1987.55435537676
  0
LWPOLYLINE
  5
202AC
100
AcDbEntity
  8
0
100
AcDbPolyline
 70
0
 90
2
 38
0
 10
4083.6192560598
 20
2285.53075377976
 10
4091.72704176398
 20
2312.53506387002
  0
ENDSEC
  0
SECTION
  2
OBJECTS
  0
DICTIONARY
  5
C
330
0
100
AcDbDictionary
281
     1
  3
ACAD_GROUP
350
D
  3
ACAD_LAYOUT
350
1A
  3
ACAD_MLEADERSTYLE
350
43
  3
ACAD_PLOTSETTINGS
350
19
  3
ACAD_PLOTSTYLENAME
350
E
  3
ACAD_TABLESTYLE
350
42
  0
DICTIONARY
  5
D
102
{ACAD_REACTORS
330
C
102
}
330
C
100
AcDbDictionary
281
     1
  0
DICTIONARY
  5
1A
102
{ACAD_REACTORS
330
C
102
}
330
C
100
AcDbDictionary
281
     1
  3
Layout1
350
1E
  3
Model
350
22
  0
DICTIONARY
  5
43
102
{ACAD_REACTORS
330
C
102
}
330
C
100
AcDbDictionary
281
     1
  0
DICTIONARY
  5
19
102
{ACAD_REACTORS
330
C
102
}
330
C
100
AcDbDictionary
281
     1
  0
ACDBDICTIONARYWDFLT
  5
E
102
{ACAD_REACTORS
330
C
102
}
330
C
100
AcDbDictionary
281
     1
  3
Normal
350
F
100
AcDbDictionaryWithDefault
340
F
  0
DICTIONARY
  5
42
102
{ACAD_REACTORS
330
C
102
}
330
C
100
AcDbDictionary
281
     1
  0
LAYOUT
  5
1E
102
{ACAD_REACTORS
330
1A
102
}
330
1A
100
AcDbPlotSettings
  1

  2
none_device
  4

  6

 40
0.0
 41
0.0
 42
0.0
 43
0.0
 44
0.0
 45
0.0
 46
0.0
 47
0.0
 48
0.0
 49
0.0
140
0.0
141
0.0
142
1.0
143
1.0
 70
   688
 72
     0
 73
     0
 74
     5
  7

 75
    16
 76
     0
 77
     2
 78
   300
147
1.0
148
0.0
149
0.0
100
AcDbLayout
  1
Layout1
 70
     1
 71
     1
 10
0.0
 20
0.0
 11
12.0
 21
9.0
 12
0.0
 22
0.0
 32
0.0
 14
1.000000000000000E+20
 24
1.000000000000000E+20
 34
1.000000000000000E+20
 15
-1.000000000000000E+20
 25
-1.000000000000000E+20
 35
-1.000000000000000E+20
146
0.0
 13
0.0
 23
0.0
 33
0.0
 16
1.0
 26
0.0
 36
0.0
 17
0.0
 27
1.0
 37
0.0
 76
     0
330
1B
  0
LAYOUT
  5
22
102
{ACAD_REACTORS
330
1A
102
}
330
1A
100
AcDbPlotSettings
  1

  2
none_device
  4

  6

 40
0.0
 41
0.0
 42
0.0
 43
0.0
 44
0.0
 45
0.0
 46
0.0
 47
0.0
 48
0.0
 49
0.0
140
0.0
141
0.0
142
1.0
143
1.0
 70
  1712
 72
     0
 73
     0
 74
     0
  7

 75
     0
 76
     0
 77
     2
 78
   300
147
1.0
148
0.0
149
0.0
100
AcDbLayout
  1
Model
 70
     1
 71
     0
 10
0.0
 20
0.0
 11
12.0
 21
9.0
 12
0.0
 22
0.0
 32
0.0
 14
30.0
 24
49.75
 34
0.0
 15
130.5
 25
163.1318914119703
 35
0.0
146
0.0
 13
0.0
 23
0.0
 33
0.0
 16
1.0
 26
0.0
 36
0.0
 17
0.0
 27
1.0
 37
0.0
 76
     0
330
1F
331
29
  0
ACDBPLACEHOLDER
  5
F
102
{ACAD_REACTORS
330
E
102
}
330
E
  0
ENDSEC
  0
EOF
